<?xml version="1.0" encoding="utf-8"?>
<!-- Generator: Adobe Illustrator 18.1.1, SVG Export Plug-In . SVG Version: 6.00 Build 0)  -->
<svg version="1.2" baseProfile="tiny" id="Слой_1" xmlns:ev="http://www.w3.org/2001/xml-events"
	 xmlns="http://www.w3.org/2000/svg" xmlns:xlink="http://www.w3.org/1999/xlink" x="0px" y="0px" width="25px" height="23px"
	 viewBox="-267 469 25 23" xml:space="preserve">
<path fill="#FFFFFF" d="M-247.51,470.65c-0.12-0.46-0.57-0.74-1.02-0.62l-4.9,1.39c-0.15-0.24-0.4-0.4-0.69-0.4h-12.04
	c-0.46,0-0.83,0.4-0.83,0.88v18.23c0,0.49,0.37,0.88,0.83,0.88h12.04c0.46,0,0.83-0.39,0.83-0.88v-11l2.86,11.24
	c0.12,0.46,0.57,0.73,1.02,0.61l5.81-1.63c0.45-0.12,0.71-0.61,0.59-1.06L-247.51,470.65L-247.51,470.65z M-260.65,489.26
	L-260.65,489.26h-4.7v-16.5h4.7V489.26L-260.65,489.26z M-254.96,489.26L-254.96,489.26h-4.7v-16.5h4.7V489.26L-254.96,489.26z
	 M-249.06,489.07L-249.06,489.07l-4.06-15.94l4.22-1.19l4.06,15.94L-249.06,489.07L-249.06,489.07z M-264.23,487.07L-264.23,487.07
	l0.04,0.04c0.3,0.32,0.72,0.51,1.18,0.51c0.45,0,0.86-0.19,1.17-0.5l0,0l0.02-0.01c0.31-0.32,0.49-0.77,0.49-1.25
	c0-0.49-0.18-0.93-0.49-1.25h-0.01l0,0c-0.29-0.32-0.72-0.52-1.18-0.52c-0.46,0-0.88,0.2-1.18,0.52l0,0
	c-0.31,0.32-0.49,0.76-0.49,1.25C-264.69,486.33-264.51,486.77-264.23,487.07L-264.23,487.07z M-263.5,485.35L-263.5,485.35
	c0.13-0.13,0.3-0.21,0.49-0.21c0.19,0,0.36,0.08,0.49,0.2v0.01c0.12,0.13,0.2,0.31,0.2,0.51c0,0.2-0.08,0.38-0.2,0.51l0,0
	c-0.13,0.14-0.3,0.21-0.49,0.21c-0.19,0-0.36-0.08-0.49-0.21l-0.02-0.02c-0.11-0.12-0.18-0.3-0.18-0.48
	C-263.7,485.66-263.62,485.48-263.5,485.35L-263.5,485.35z M-263.16,481.61L-263.16,481.61c0.27,0,0.49-0.23,0.49-0.52v-6.31
	c0-0.28-0.22-0.52-0.49-0.52c-0.28,0-0.49,0.24-0.49,0.52v6.31C-263.65,481.37-263.44,481.61-263.16,481.61L-263.16,481.61z
	 M-250.63,473.99L-250.63,473.99c-0.26,0.07-0.42,0.36-0.35,0.63l1.55,6.09c0.07,0.28,0.34,0.44,0.61,0.37
	c0.26-0.07,0.42-0.36,0.35-0.64l-1.55-6.08C-250.1,474.07-250.38,473.91-250.63,473.99L-250.63,473.99z M-258.63,487.07
	L-258.63,487.07l0.03,0.04c0.3,0.32,0.72,0.51,1.19,0.51c0.45,0,0.86-0.19,1.17-0.5l0,0l0.01-0.01c0.31-0.32,0.49-0.77,0.49-1.25
	c0-0.49-0.19-0.93-0.49-1.25l0,0l0,0c-0.3-0.32-0.72-0.52-1.18-0.52s-0.89,0.2-1.19,0.52h0.01c-0.31,0.32-0.49,0.76-0.49,1.25
	C-259.09,486.33-258.91,486.77-258.63,487.07L-258.63,487.07z M-257.9,485.35L-257.9,485.35c0.13-0.13,0.29-0.21,0.49-0.21
	s0.36,0.08,0.48,0.2v0.01c0.12,0.13,0.21,0.31,0.21,0.51c0,0.2-0.08,0.38-0.2,0.51h-0.01c-0.12,0.14-0.29,0.21-0.48,0.21
	s-0.36-0.08-0.49-0.21l-0.02-0.02c-0.11-0.12-0.18-0.3-0.18-0.48C-258.1,485.66-258.02,485.48-257.9,485.35L-257.9,485.35z
	 M-257.14,481.61L-257.14,481.61c0.27,0,0.49-0.23,0.49-0.52v-6.31c0-0.28-0.22-0.52-0.49-0.52c-0.28,0-0.5,0.24-0.5,0.52v6.31
	C-257.64,481.37-257.41,481.61-257.14,481.61L-257.14,481.61z M-248.9,483.93L-248.9,483.93c-0.31,0.32-0.49,0.75-0.49,1.25
	c0,0.47,0.18,0.9,0.47,1.21l0.02,0.03c0.3,0.32,0.72,0.52,1.19,0.52c0.45,0,0.86-0.19,1.16-0.5l0.01-0.01l0.02-0.02
	c0.3-0.32,0.49-0.76,0.49-1.24c0-0.49-0.19-0.93-0.49-1.26v0.01v-0.01c-0.3-0.32-0.73-0.52-1.19-0.52
	C-248.18,483.41-248.6,483.61-248.9,483.93L-248.9,483.93L-248.9,483.93z M-248.21,484.66L-248.21,484.66
	c0.12-0.12,0.29-0.21,0.49-0.21c0.19,0,0.36,0.09,0.48,0.21l0,0c0.12,0.14,0.2,0.32,0.2,0.52c0,0.19-0.08,0.37-0.2,0.51l0,0
	c-0.12,0.12-0.29,0.21-0.48,0.21c-0.19,0-0.37-0.09-0.49-0.21l-0.02-0.02c-0.11-0.13-0.18-0.3-0.18-0.48
	C-248.41,484.98-248.33,484.8-248.21,484.66L-248.21,484.66z"/>
</svg>
