<svg baseProfile="full" xmlns="http://www.w3.org/2000/svg" height="61" width="32"><path opacity=".302" fill="rgb( 255, 255, 255 )" d="M13.69 1.001c.736-.028 1.76.323.693.682-9.26 8.557-8.52 32.593 0 41.588 2.769-2.047 3.19-6.404 7.619-6.818 2.266 8.906 5.664 16.699 9.004 24.545-7.545-.814-18.293-2.747-27.014-3.407 1.18-5.431 5.557-7.713 8.312-11.591-8.86-9.59-11.602-37.884 1.386-44.999zm8.312 55.908c-.313-2.433-6.622-4.838-7.619-8.864-1.914 1.98-4.374 3.423-4.849 6.817 2.899 1.92 9.119.572 12.468 2.047zm2.077-2.727c.173-2.912-3.24-8.165-3.462-12.956-2.996.007-2.737 3.216-4.849 4.092 2.112 3.602 5.929 5.528 8.311 8.864z"/></svg>