<?xml version="1.0" encoding="utf-8"?>
<!-- Generator: Adobe Illustrator 18.1.1, SVG Export Plug-In . SVG Version: 6.00 Build 0)  -->
<svg version="1.1" id="Слой_1" xmlns:ev="http://www.w3.org/2001/xml-events"
	 xmlns="http://www.w3.org/2000/svg" xmlns:xlink="http://www.w3.org/1999/xlink" x="0px" y="0px" width="28px" height="20px"
	 viewBox="-265 471 28 20" enable-background="new -265 471 28 20" xml:space="preserve">
<path fill="#FFFFFF" d="M-245.5,485.33c0,0.57,0.45,1.04,1,1.04c0.55,0,1-0.47,1-1.04c0-0.56-0.45-1.03-1-1.03
	C-245.05,484.3-245.5,484.77-245.5,485.33L-245.5,485.33z M-238.99,477.61L-238.99,477.61h-4.14l-2.75-6
	c-0.17-0.38-0.53-0.6-0.9-0.6V471h-12.29c-0.42,0-0.79,0.28-0.93,0.66l-2.72,5.94h-0.28c-0.55,0-1,0.47-1,1.04v6.6
	c0,0.57,0.45,1.04,1,1.04h0.82c0.18,0.91,0.62,1.72,1.23,2.35l0.06,0.06c0.81,0.81,1.92,1.31,3.13,1.31c1.24,0,2.37-0.52,3.19-1.37
	l0.02-0.02c0.6-0.63,1.03-1.43,1.21-2.33h4.43c0.18,0.91,0.62,1.72,1.23,2.35l0.05,0.06c0.82,0.81,1.92,1.31,3.14,1.31
	c1.24,0,2.36-0.52,3.19-1.37l0.02-0.02c0.6-0.63,1.03-1.43,1.21-2.33h1.08c0.55,0,1-0.47,1-1.04v-6.6
	C-237.99,478.08-238.44,477.61-238.99,477.61L-238.99,477.61z M-240,484.21L-240,484.21h-0.99v0.01h-0.01
	c-0.55,0.01-0.99,0.46-0.99,1.04l0,0.07c0,0.73-0.28,1.38-0.74,1.85c-0.45,0.46-1.08,0.75-1.77,0.75c-0.68,0-1.29-0.27-1.74-0.72
	l-0.04-0.04c-0.45-0.46-0.74-1.12-0.74-1.84l0-0.08c0-0.58-0.45-1.04-1-1.04h-6.24v0.01h-0.01c-0.55,0.01-0.99,0.46-0.99,1.04
	l0,0.07c0,0.73-0.28,1.38-0.73,1.85c-0.46,0.46-1.08,0.75-1.78,0.75c-0.68,0-1.29-0.27-1.74-0.72l-0.04-0.04
	c-0.45-0.46-0.73-1.12-0.73-1.84v-0.08c0-0.58-0.44-1.04-1-1.04h-0.73v-0.78h7.54c0.92,0,1.76-0.39,2.37-1.02h0
	c0.47-0.49,0.8-1.13,0.93-1.83h1.01c0.38,0,0.74-0.18,1-0.44h0c0.26-0.26,0.42-0.63,0.42-1.03v-2.07c0-0.35-0.27-0.63-0.6-0.63
	h-0.35v-1.94c0-0.34-0.27-0.63-0.6-0.63c-0.33,0-0.6,0.29-0.6,0.63v1.94h-1.65v-1.94c0-0.34-0.27-0.63-0.6-0.63
	c-0.33,0-0.6,0.29-0.6,0.63v1.94h-0.35c-0.33,0-0.6,0.27-0.6,0.63v2.07c0,0.4,0.16,0.77,0.41,1.03c0.26,0.27,0.62,0.44,1,0.44h0.88
	c-0.11,0.37-0.29,0.69-0.55,0.96c-0.39,0.4-0.93,0.65-1.53,0.65h-7.54v-2.13l3.56-6.99h11.03l2.78,6.08
	c0.15,0.33,0.45,0.52,0.79,0.52h3.85V484.21L-240,484.21z M-253.27,479.33L-253.27,479.33c-0.06,0-0.11-0.03-0.15-0.07
	c-0.04-0.03-0.06-0.09-0.06-0.15v-1.46h3.56v1.46c0,0.06-0.02,0.12-0.06,0.15v0.01c-0.04,0.04-0.1,0.07-0.15,0.07H-253.27
	L-253.27,479.33z M-257.76,484.3L-257.76,484.3c-0.55,0-1,0.47-1,1.03c0,0.57,0.45,1.04,1,1.04c0.55,0,1-0.47,1-1.04
	C-256.76,484.77-257.21,484.3-257.76,484.3L-257.76,484.3z"/>
</svg>
