<?xml version="1.0" encoding="utf-8"?>
<!DOCTYPE svg PUBLIC "-//W3C//DTD SVG 1.1//EN" "http://www.w3.org/Graphics/SVG/1.1/DTD/svg11.dtd">
<svg version="1.1" baseProfile="full"
 xmlns="http://www.w3.org/2000/svg"
 xmlns:xlink="http://www.w3.org/1999/xlink"
 xmlns:ev="http://www.w3.org/2001/xml-events" 
  height="24px" 
  width="26px" 
>
<path fill="rgb( 93, 193, 232 )"
 d="M24.062,0.01100000000002 C24.062,0.01100000000002 1.94200000000001,0.01100000000002 1.94200000000001,0.01100000000002 C1.42100000000005,0.01100000000002 0.995,0.43799999999999 0.995,0.96199999999999 C0.995,0.96199999999999 0.995,21.174 0.995,21.174 C0.995,21.697 1.42100000000005,22.123 1.94200000000001,22.123 C1.94200000000001,22.123 3.74000000000001,22.123 3.74000000000001,22.123 C3.74000000000001,22.123 3.74000000000001,23.048 3.74000000000001,23.048 C3.74000000000001,23.573 4.16099999999994,23.998 4.68499999999995,23.998 C5.20600000000002,23.998 5.63199999999995,23.573 5.63199999999995,23.048 C5.63199999999995,23.048 5.63199999999995,22.123 5.63199999999995,22.123 C5.63199999999995,22.123 20.373,22.123 20.373,22.123 C20.373,22.123 20.373,23.048 20.373,23.048 C20.373,23.573 20.798,23.998 21.318,23.998 C21.841,23.998 22.2670000000001,23.573 22.2670000000001,23.048 C22.2670000000001,23.048 22.2670000000001,22.123 22.2670000000001,22.123 C22.2670000000001,22.123 24.062,22.123 24.062,22.123 C24.586,22.123 25.009,21.697 25.009,21.174 C25.009,21.174 25.009,0.96199999999999 25.009,0.96199999999999 C25.009,0.43799999999999 24.586,0.01100000000002 24.062,0.01100000000002 C24.062,0.01100000000002 24.062,0.01100000000002 24.062,0.01100000000002 ZM23.117,20.223 C23.117,20.223 23.117,20.223 23.117,20.223 C23.117,20.223 2.88900000000001,20.223 2.88900000000001,20.223 C2.88900000000001,20.223 2.88900000000001,1.91199999999998 2.88900000000001,1.91199999999998 C2.88900000000001,1.91199999999998 23.117,1.91199999999998 23.117,1.91199999999998 C23.117,1.91199999999998 23.117,20.223 23.117,20.223 C23.117,20.223 23.117,20.223 23.117,20.223 ZM16.29,13.791 C16.29,13.791 16.29,13.791 16.29,13.791 C17.0170000000001,13.791 17.68,13.5 18.17,13.026 C18.17,13.026 18.206,12.992 18.206,12.992 C18.698,12.5 19.003,11.818 19.003,11.067 C19.003,10.319 18.698,9.63799999999998 18.21,9.14499999999998 C18.21,9.14499999999998 18.206,9.142 18.206,9.142 C18.206,9.142 18.206,9.142 18.206,9.142 C18.206,9.142 18.206,9.14100000000002 18.206,9.14100000000002 C17.713,8.64800000000002 17.035,8.34300000000002 16.29,8.34300000000002 C15.542,8.34300000000002 14.862,8.649 14.373,9.14100000000002 C13.881,9.63400000000001 13.576,10.316 13.576,11.067 C13.576,11.818 13.881,12.5 14.373,12.992 C14.862,13.484 15.542,13.791 16.29,13.791 C16.29,13.791 16.29,13.791 16.29,13.791 ZM15.175,9.94600000000003 C15.175,9.94600000000003 15.175,9.94600000000003 15.175,9.94600000000003 C15.4589999999999,9.66199999999998 15.855,9.483 16.29,9.483 C16.728,9.483 17.122,9.661 17.404,9.94400000000002 C17.404,9.94400000000002 17.409,9.94600000000003 17.409,9.94600000000003 C17.691,10.231 17.866,10.627 17.866,11.067 C17.866,11.504 17.689,11.9 17.404,12.187 C17.404,12.187 17.375,12.218 17.375,12.218 C17.096,12.486 16.71,12.65 16.29,12.65 C15.855,12.65 15.4589999999999,12.472 15.175,12.187 C14.891,11.9 14.7140000000001,11.504 14.7140000000001,11.067 C14.7140000000001,10.63 14.891,10.233 15.175,9.94600000000003 C15.175,9.94600000000003 15.175,9.94600000000003 15.175,9.94600000000003 ZM12.997,14.373 C12.997,14.373 12.997,14.373 12.997,14.373 C12.997,14.373 12.997,14.374 12.997,14.374 C13.841,15.222 15.005,15.746 16.29,15.746 C17.575,15.746 18.7430000000001,15.222 19.585,14.374 C20.427,13.529 20.948,12.359 20.948,11.067 C20.948,9.774 20.427,8.60500000000002 19.585,7.75799999999998 C18.7430000000001,6.91199999999998 17.575,6.38799999999998 16.29,6.38799999999998 C15.023,6.38799999999998 13.872,6.89800000000002 13.03,7.72699999999998 C13.03,7.72699999999998 12.994,7.75799999999998 12.994,7.75799999999998 C12.153,8.60500000000002 11.629,9.774 11.629,11.067 C11.629,12.359 12.153,13.529 12.994,14.374 C12.994,14.374 12.997,14.373 12.997,14.373 C12.997,14.373 12.997,14.373 12.997,14.373 ZM13.798,8.56400000000002 C13.798,8.56400000000002 13.798,8.56400000000002 13.798,8.56400000000002 C13.798,8.56400000000002 13.823,8.536 13.823,8.536 C14.458,7.91199999999998 15.329,7.52800000000002 16.29,7.52800000000002 C17.263,7.52800000000002 18.146,7.92500000000001 18.784,8.56400000000002 C19.419,9.20400000000001 19.813,10.089 19.813,11.067 C19.813,12.045 19.419,12.93 18.784,13.57 C18.146,14.209 17.263,14.605 16.29,14.605 C15.316,14.605 14.434,14.21 13.796,13.57 C13.796,13.57 13.798,13.57 13.798,13.57 C13.16,12.93 12.766,12.045 12.766,11.067 C12.766,10.089 13.16,9.20400000000001 13.798,8.56400000000002 C13.798,8.56400000000002 13.798,8.56400000000002 13.798,8.56400000000002 ZM5.28700000000003,15.787 C5.28700000000003,15.787 5.28700000000003,15.787 5.28700000000003,15.787 C5.28700000000003,15.787 5.24900000000002,15.821 5.24900000000002,15.821 C4.93100000000004,16.142 4.72900000000004,16.588 4.72900000000004,17.077 C4.72900000000004,17.567 4.93100000000004,18.013 5.24900000000002,18.334 C5.24900000000002,18.334 5.25099999999998,18.333 5.25099999999998,18.333 C5.25099999999998,18.333 5.25300000000004,18.334 5.25300000000004,18.334 C5.57100000000003,18.656 6.01400000000001,18.856 6.5,18.856 C6.96799999999996,18.856 7.39499999999998,18.669 7.71299999999997,18.37 C7.71299999999997,18.37 7.75199999999995,18.334 7.75199999999995,18.334 C8.06899999999996,18.013 8.27099999999996,17.567 8.27099999999996,17.077 C8.27099999999996,16.588 8.06899999999996,16.142 7.75199999999995,15.821 C7.75199999999995,15.821 7.75199999999995,15.821 7.75199999999995,15.821 C7.75199999999995,15.821 7.74900000000002,15.821 7.74900000000002,15.821 C7.55899999999997,15.631 7.32600000000002,15.484 7.06600000000003,15.394 C7.06600000000003,15.394 7.06600000000003,6.35899999999998 7.06600000000003,6.35899999999998 C7.32600000000002,6.26799999999997 7.55899999999997,6.12099999999998 7.74900000000002,5.93200000000002 C7.74900000000002,5.93200000000002 7.75199999999995,5.92899999999997 7.75199999999995,5.92899999999997 C8.06899999999996,5.608 8.27099999999996,5.16399999999999 8.27099999999996,4.67500000000001 C8.27099999999996,4.18599999999998 8.06899999999996,3.743 7.75199999999995,3.42000000000002 C7.75199999999995,3.42000000000002 7.74900000000002,3.41800000000001 7.74900000000002,3.41800000000001 C7.42899999999997,3.09699999999998 6.98599999999999,2.89699999999999 6.5,2.89699999999999 C6.01400000000001,2.89699999999999 5.57100000000003,3.09699999999998 5.25300000000004,3.41800000000001 C5.25300000000004,3.41800000000001 5.24900000000002,3.42000000000002 5.24900000000002,3.42000000000002 C4.93100000000004,3.743 4.72900000000004,4.18599999999998 4.72900000000004,4.67500000000001 C4.72900000000004,5.16399999999999 4.93100000000004,5.608 5.24900000000002,5.92899999999997 C5.24900000000002,5.92899999999997 5.25300000000004,5.93200000000002 5.25300000000004,5.93200000000002 C5.44100000000003,6.12099999999998 5.67399999999998,6.26799999999997 5.93399999999997,6.35899999999998 C5.93399999999997,6.35899999999998 5.93399999999997,15.394 5.93399999999997,15.394 C5.69200000000001,15.476 5.47000000000003,15.613 5.28700000000003,15.787 C5.28700000000003,15.787 5.28700000000003,15.787 5.28700000000003,15.787 ZM5.86599999999999,4.67500000000001 C5.86599999999999,4.67500000000001 5.86599999999999,4.67500000000001 5.86599999999999,4.67500000000001 C5.86599999999999,4.49900000000002 5.93799999999999,4.33800000000002 6.04999999999995,4.22399999999999 C6.04999999999995,4.22399999999999 6.04999999999995,4.22199999999998 6.04999999999995,4.22199999999998 C6.16700000000003,4.108 6.32500000000005,4.03699999999998 6.5,4.03699999999998 C6.67700000000002,4.03699999999998 6.83399999999995,4.10899999999998 6.95000000000005,4.22199999999998 C6.95000000000005,4.22199999999998 6.95000000000005,4.22399999999999 6.95000000000005,4.22399999999999 C7.06200000000001,4.33800000000002 7.13400000000001,4.49900000000002 7.13400000000001,4.67500000000001 C7.13400000000001,4.851 7.06399999999996,5.01100000000002 6.95000000000005,5.125 C6.95000000000005,5.125 6.95000000000005,5.12799999999999 6.95000000000005,5.12799999999999 C6.83399999999995,5.24000000000001 6.67700000000002,5.31200000000001 6.5,5.31200000000001 C6.32500000000005,5.31200000000001 6.16700000000003,5.24099999999999 6.04999999999995,5.12799999999999 C6.04999999999995,5.12799999999999 6.04999999999995,5.125 6.04999999999995,5.125 C5.93799999999999,5.01100000000002 5.86599999999999,4.851 5.86599999999999,4.67500000000001 C5.86599999999999,4.67500000000001 5.86599999999999,4.67500000000001 5.86599999999999,4.67500000000001 ZM6.04999999999995,16.627 C6.04999999999995,16.627 6.04999999999995,16.627 6.04999999999995,16.627 C6.04999999999995,16.627 6.07500000000005,16.603 6.07500000000005,16.603 C6.18399999999997,16.506 6.32799999999997,16.444 6.48400000000004,16.441 C6.48400000000004,16.441 6.51599999999996,16.441 6.51599999999996,16.441 C6.68600000000004,16.445 6.84299999999996,16.517 6.95000000000005,16.625 C6.95000000000005,16.625 6.95000000000005,16.627 6.95000000000005,16.627 C7.06200000000001,16.74 7.13400000000001,16.902 7.13400000000001,17.077 C7.13400000000001,17.252 7.06200000000001,17.414 6.95000000000005,17.529 C6.95000000000005,17.529 6.928,17.548 6.928,17.548 C6.928,17.548 6.928,17.549 6.928,17.549 C6.81600000000003,17.65 6.66600000000005,17.716 6.5,17.716 C6.32299999999998,17.716 6.16399999999999,17.644 6.04999999999995,17.529 C6.04999999999995,17.529 6.04999999999995,17.529 6.04999999999995,17.529 C5.93799999999999,17.414 5.86599999999999,17.252 5.86599999999999,17.077 C5.86599999999999,16.902 5.93799999999999,16.74 6.04999999999995,16.627 C6.04999999999995,16.627 6.04999999999995,16.627 6.04999999999995,16.627 Z "/>
</svg>
