<?xml version="1.0" encoding="utf-8"?>
<!-- Generator: Adobe Illustrator 18.1.1, SVG Export Plug-In . SVG Version: 6.00 Build 0)  -->
<svg version="1.2" baseProfile="tiny" id="Слой_1" xmlns:ev="http://www.w3.org/2001/xml-events"
	 xmlns="http://www.w3.org/2000/svg" xmlns:xlink="http://www.w3.org/1999/xlink" x="0px" y="0px" width="26px" height="24px"
	 viewBox="-266 469 26 24" xml:space="preserve">
<path fill="#FFFFFF" d="M-241.94,469.01h-22.12c-0.52,0-0.95,0.43-0.95,0.95v20.21c0,0.52,0.43,0.95,0.95,0.95h1.8v0.93
	c0,0.52,0.42,0.95,0.95,0.95c0.52,0,0.95-0.42,0.95-0.95v-0.93h14.74v0.93c0,0.52,0.43,0.95,0.94,0.95c0.52,0,0.95-0.42,0.95-0.95
	v-0.93h1.79c0.52,0,0.95-0.43,0.95-0.95v-20.21C-240.99,469.44-241.41,469.01-241.94,469.01L-241.94,469.01z M-242.88,489.22
	L-242.88,489.22h-20.23v-18.31h20.23V489.22L-242.88,489.22z M-249.71,482.79L-249.71,482.79c0.73,0,1.39-0.29,1.88-0.77l0.04-0.03
	c0.49-0.49,0.8-1.17,0.8-1.93c0-0.75-0.31-1.43-0.79-1.92l0,0l0,0v0c-0.49-0.49-1.17-0.8-1.92-0.8c-0.75,0-1.43,0.31-1.92,0.8
	c-0.49,0.49-0.8,1.18-0.8,1.93c0,0.75,0.3,1.43,0.8,1.93C-251.14,482.48-250.46,482.79-249.71,482.79L-249.71,482.79z
	 M-250.82,478.95L-250.82,478.95c0.28-0.28,0.68-0.46,1.12-0.46c0.44,0,0.83,0.18,1.11,0.46l0.01,0c0.28,0.28,0.46,0.68,0.46,1.12
	c0,0.44-0.18,0.83-0.46,1.12l-0.03,0.03c-0.28,0.27-0.67,0.43-1.08,0.43c-0.44,0-0.83-0.18-1.12-0.46
	c-0.28-0.29-0.46-0.68-0.46-1.12C-251.29,479.63-251.11,479.23-250.82,478.95L-250.82,478.95z M-253,483.37L-253,483.37L-253,483.37
	c0.84,0.85,2.01,1.37,3.29,1.37c1.28,0,2.45-0.52,3.29-1.37c0.84-0.85,1.36-2.01,1.36-3.31c0-1.29-0.52-2.46-1.36-3.31
	c-0.84-0.85-2.01-1.37-3.29-1.37c-1.27,0-2.42,0.51-3.26,1.34l-0.04,0.03c-0.84,0.85-1.37,2.02-1.37,3.31
	C-254.37,481.36-253.85,482.53-253,483.37L-253,483.37L-253,483.37z M-252.2,477.56L-252.2,477.56l0.02-0.03
	c0.64-0.62,1.51-1.01,2.47-1.01c0.97,0,1.86,0.4,2.49,1.04c0.64,0.64,1.03,1.52,1.03,2.5c0,0.98-0.39,1.86-1.03,2.5
	c-0.64,0.64-1.52,1.04-2.49,1.04c-0.97,0-1.86-0.4-2.49-1.04h0c-0.64-0.64-1.03-1.52-1.03-2.5
	C-253.23,479.09-252.84,478.2-252.2,477.56L-252.2,477.56z M-260.71,484.79L-260.71,484.79l-0.04,0.03
	c-0.32,0.32-0.52,0.77-0.52,1.26c0,0.49,0.2,0.94,0.52,1.26l0,0l0,0c0.32,0.32,0.76,0.52,1.25,0.52c0.47,0,0.89-0.19,1.21-0.49
	l0.04-0.04c0.32-0.32,0.52-0.77,0.52-1.26c0-0.49-0.2-0.93-0.52-1.26l0,0h0c-0.19-0.19-0.42-0.34-0.68-0.43v-9.04
	c0.26-0.09,0.49-0.24,0.68-0.43l0,0c0.32-0.32,0.52-0.76,0.52-1.25c0-0.49-0.2-0.93-0.52-1.25l0,0c-0.32-0.32-0.76-0.52-1.25-0.52
	s-0.93,0.2-1.25,0.52l0,0c-0.32,0.32-0.52,0.77-0.52,1.25c0,0.49,0.2,0.93,0.52,1.25l0,0c0.19,0.19,0.42,0.34,0.68,0.43v9.04
	C-260.31,484.48-260.53,484.61-260.71,484.79L-260.71,484.79z M-260.13,473.67L-260.13,473.67c0-0.18,0.07-0.34,0.18-0.45v0
	c0.12-0.11,0.28-0.18,0.45-0.18c0.18,0,0.33,0.07,0.45,0.18v0c0.11,0.11,0.18,0.27,0.18,0.45c0,0.18-0.07,0.34-0.18,0.45v0
	c-0.12,0.11-0.27,0.18-0.45,0.18c-0.17,0-0.33-0.07-0.45-0.18v0C-260.06,474.01-260.13,473.85-260.13,473.67L-260.13,473.67z
	 M-259.95,485.63L-259.95,485.63l0.03-0.02c0.11-0.1,0.25-0.16,0.41-0.16h0.03c0.17,0,0.33,0.08,0.43,0.18v0
	c0.11,0.11,0.18,0.27,0.18,0.45c0,0.18-0.07,0.34-0.18,0.45l-0.02,0.02v0c-0.11,0.1-0.26,0.17-0.43,0.17
	c-0.18,0-0.34-0.07-0.45-0.19l0,0c-0.11-0.11-0.18-0.28-0.18-0.45C-260.13,485.9-260.06,485.74-259.95,485.63L-259.95,485.63z"/>
</svg>
