<?xml version="1.0" encoding="utf-8"?>
<!-- Generator: Adobe Illustrator 18.1.1, SVG Export Plug-In . SVG Version: 6.00 Build 0)  -->
<svg version="1.1" id="Ñëîé_3" xmlns="http://www.w3.org/2000/svg" xmlns:xlink="http://www.w3.org/1999/xlink" x="0px" y="0px"
	 width="229.95px" height="162.23px" viewBox="-164 399.77 229.95 162.23" enable-background="new -164 399.77 229.95 162.23"
	 xml:space="preserve">
<rect x="-154.15" y="535.47" fill="#6A7C89" width="134.37" height="26.53"/>
<ellipse fill="#F4F4F4" cx="-133.05" cy="548.44" rx="6.79" ry="6.87"/>
<rect x="-19.77" y="535.47" fill="#F4F4F4" width="34.37" height="26.53"/>
<rect x="-19.77" y="535.47" fill="#6A7C89" width="36.77" height="3.13"/>
<rect x="-19.77" y="558.87" fill="#6A7C89" width="36.77" height="3.13"/>
<rect x="-164" y="509" fill="#50626F" width="134.37" height="26.52"/>
<ellipse fill="#F4F4F4" cx="-142.9" cy="521.97" rx="6.79" ry="6.87"/>
<rect x="-29.63" y="509" fill="#F4F4F4" width="34.37" height="26.52"/>
<rect x="-29.63" y="509" fill="#50626F" width="36.77" height="3.13"/>
<rect x="-29.63" y="532.4" fill="#50626F" width="36.77" height="3.13"/>
<rect x="-132.37" y="482.5" fill="#0A3140" width="133.84" height="26.5"/>
<ellipse fill="#F4F4F4" cx="-111.36" cy="495.45" rx="6.77" ry="6.86"/>
<rect x="1.47" y="482.5" fill="#F4F4F4" width="34.23" height="26.5"/>
<rect x="1.47" y="482.5" fill="#0A3140" width="36.63" height="3.12"/>
<rect x="9.58" y="505.87" fill="#0A3140" width="36.63" height="3.12"/>
<rect x="-142.9" y="456" fill="#F4F4F4" width="133.84" height="26.5"/>
<ellipse fill="#6A7C89" cx="-121.89" cy="468.95" rx="6.77" ry="6.86"/>
<rect x="-9.06" y="456" fill="#F4F4F4" width="34.23" height="26.5"/>
<rect x="-0.95" y="456" fill="#6A7C89" width="36.63" height="3.12"/>
<rect x="-9.06" y="479.37" fill="#6A7C89" width="36.63" height="3.12"/>
<rect x="-105.49" y="426.27" fill="#6A7C89" width="134.61" height="26.5"/>
<ellipse fill="#F4F4F4" cx="-84.36" cy="439.23" rx="6.8" ry="6.86"/>
<rect x="29.12" y="426.27" fill="#F4F4F4" width="34.43" height="26.5"/>
<rect x="29.12" y="426.27" fill="#6A7C89" width="36.84" height="3.12"/>
<rect x="29.12" y="449.65" fill="#6A7C89" width="36.84" height="3.12"/>
<rect x="-133.05" y="399.77" fill="#50626F" width="134.61" height="26.5"/>
<ellipse fill="#4696A3" cx="-111.91" cy="412.73" rx="6.8" ry="6.86"/>
<rect x="1.56" y="399.77" fill="#F4F4F4" width="34.43" height="26.5"/>
<rect x="1.56" y="399.77" fill="#50626F" width="36.84" height="3.12"/>
<rect x="1.56" y="423.15" fill="#50626F" width="36.84" height="3.12"/>
</svg>
