<?xml version="1.0" encoding="utf-8"?>
<!-- Generator: Adobe Illustrator 18.1.1, SVG Export Plug-In . SVG Version: 6.00 Build 0)  -->
<svg version="1.1" id="Слой_1" xmlns="http://www.w3.org/2000/svg" xmlns:xlink="http://www.w3.org/1999/xlink" x="0px" y="0px"
	 width="229.67px" height="212.26px" viewBox="-520.72 1098.5 229.67 212.26" enable-background="new -520.72 1098.5 229.67 212.26"
	 xml:space="preserve">
<rect x="-478.26" y="1284.26" fill="#213442" width="133.84" height="26.5"/>
<ellipse fill="#F3F3F3" cx="-457.25" cy="1297.22" rx="6.77" ry="6.86"/>
<rect x="-344.42" y="1284.26" fill="#F3F3F3" width="34.23" height="26.5"/>
<rect x="-344.42" y="1284.26" fill="#213442" width="36.63" height="3.12"/>
<rect x="-344.42" y="1307.64" fill="#213442" width="36.63" height="3.12"/>
<rect x="-488.79" y="1257.76" fill="#F3F3F3" width="133.84" height="26.5"/>
<ellipse fill="#6F7B86" cx="-467.78" cy="1270.72" rx="6.77" ry="6.86"/>
<rect x="-354.95" y="1257.76" fill="#F3F3F3" width="34.23" height="26.5"/>
<rect x="-354.95" y="1257.76" fill="#6F7B86" width="36.63" height="3.12"/>
<rect x="-354.95" y="1281.14" fill="#6F7B86" width="36.63" height="3.12"/>
<rect x="-462.2" y="1231.25" fill="#6F7B86" width="134.37" height="26.53"/>
<ellipse fill="#F3F3F3" cx="-441.1" cy="1244.23" rx="6.79" ry="6.87"/>
<rect x="-327.82" y="1231.25" fill="#F3F3F3" width="34.37" height="26.53"/>
<rect x="-327.82" y="1231.25" fill="#6F7B86" width="36.77" height="3.13"/>
<rect x="-327.82" y="1254.65" fill="#6F7B86" width="36.77" height="3.13"/>
<rect x="-472.05" y="1204.78" fill="#56626E" width="134.37" height="26.52"/>
<ellipse fill="#F3F3F3" cx="-450.95" cy="1217.75" rx="6.79" ry="6.87"/>
<rect x="-337.68" y="1204.78" fill="#F3F3F3" width="34.37" height="26.52"/>
<rect x="-337.68" y="1204.78" fill="#56626E" width="36.77" height="3.13"/>
<rect x="-337.68" y="1228.18" fill="#56626E" width="36.77" height="3.13"/>
<rect x="-493.16" y="1178.28" fill="#6F7B86" width="134.61" height="26.5"/>
<ellipse fill="#F3F3F3" cx="-472.68" cy="1190.96" rx="6.8" ry="6.86"/>
<rect x="-358.56" y="1178.28" fill="#F3F3F3" width="34.43" height="26.5"/>
<rect x="-358.56" y="1178.28" fill="#6F7B86" width="36.84" height="3.12"/>
<rect x="-359.21" y="1201.38" fill="#6F7B86" width="36.84" height="3.12"/>
<rect x="-520.72" y="1151.78" fill="#56626E" width="134.61" height="26.5"/>
<ellipse fill="#6594A0" cx="-500.24" cy="1164.46" rx="6.8" ry="6.86"/>
<rect x="-386.11" y="1151.78" fill="#F3F3F3" width="34.43" height="26.5"/>
<rect x="-386.76" y="1151.5" fill="#56626E" width="36.84" height="3.12"/>
<rect x="-386.11" y="1175.16" fill="#56626E" width="36.84" height="3.12"/>
<rect x="-468.95" y="1125" fill="#213442" width="133.84" height="26.5"/>
<ellipse fill="#F3F3F3" cx="-447.94" cy="1137.96" rx="6.77" ry="6.86"/>
<rect x="-335.11" y="1125" fill="#F3F3F3" width="34.23" height="26.5"/>
<rect x="-335.11" y="1125" fill="#213442" width="36.63" height="3.12"/>
<rect x="-335.11" y="1148.38" fill="#213442" width="36.63" height="3.12"/>
<rect x="-479.48" y="1098.5" fill="#F3F3F3" width="133.84" height="26.5"/>
<ellipse fill="#6F7B86" cx="-458.47" cy="1111.46" rx="6.77" ry="6.86"/>
<rect x="-345.64" y="1098.5" fill="#F3F3F3" width="34.23" height="26.5"/>
<rect x="-345.64" y="1098.5" fill="#6F7B86" width="36.63" height="3.12"/>
<rect x="-345.64" y="1121.88" fill="#6F7B86" width="36.63" height="3.12"/>
</svg>
