<?xml version="1.0" encoding="utf-8"?>
<!-- Generator: Adobe Illustrator 18.1.1, SVG Export Plug-In . SVG Version: 6.00 Build 0)  -->
<svg version="1.1" id="Слой_1" xmlns="http://www.w3.org/2000/svg" xmlns:xlink="http://www.w3.org/1999/xlink" x="0px" y="0px"
	 width="197.74px" height="105.98px" viewBox="-144.79 375.02 197.74 105.98" enable-background="new -144.79 375.02 197.74 105.98"
	 xml:space="preserve">
<rect x="-134.26" y="454.5" fill="#213442" width="133.84" height="26.5"/>
<ellipse fill="#F3F3F3" cx="-113.25" cy="467.46" rx="6.77" ry="6.86"/>
<rect x="-0.42" y="454.5" fill="#F3F3F3" width="34.23" height="26.5"/>
<rect x="-0.42" y="454.5" fill="#213442" width="36.63" height="3.12"/>
<rect x="-0.42" y="477.88" fill="#213442" width="36.63" height="3.12"/>
<rect x="-144.79" y="428" fill="#F3F3F3" width="133.84" height="26.5"/>
<ellipse fill="#6F7B86" cx="-123.78" cy="440.96" rx="6.77" ry="6.86"/>
<rect x="-10.95" y="428" fill="#F3F3F3" width="34.23" height="26.5"/>
<rect x="-10.95" y="428" fill="#6F7B86" width="36.63" height="3.12"/>
<rect x="-10.95" y="451.38" fill="#6F7B86" width="36.63" height="3.12"/>
<rect x="-118.2" y="401.49" fill="#6F7B86" width="134.37" height="26.53"/>
<ellipse fill="#F3F3F3" cx="-97.1" cy="414.47" rx="6.79" ry="6.87"/>
<rect x="16.18" y="401.49" fill="#F3F3F3" width="34.37" height="26.53"/>
<rect x="16.18" y="401.49" fill="#6F7B86" width="36.77" height="3.13"/>
<rect x="16.18" y="424.89" fill="#6F7B86" width="36.77" height="3.13"/>
<rect x="-128.05" y="375.02" fill="#56626E" width="134.37" height="26.52"/>
<ellipse fill="#F3F3F3" cx="-106.95" cy="387.99" rx="6.79" ry="6.87"/>
<rect x="6.32" y="375.02" fill="#F3F3F3" width="34.37" height="26.52"/>
<rect x="6.32" y="375.02" fill="#56626E" width="36.77" height="3.13"/>
<rect x="6.32" y="398.42" fill="#56626E" width="36.77" height="3.13"/>
</svg>
