<?xml version="1.0" encoding="utf-8"?>
<!DOCTYPE svg PUBLIC "-//W3C//DTD SVG 1.1//EN" "http://www.w3.org/Graphics/SVG/1.1/DTD/svg11.dtd">
<svg version="1.1" baseProfile="full"
 xmlns="http://www.w3.org/2000/svg"
 xmlns:xlink="http://www.w3.org/1999/xlink"
 xmlns:ev="http://www.w3.org/2001/xml-events" 
  height="17px" 
  width="16px" 
>
<path fill="rgb( 52, 177, 226 )"
 d="M14.533,17 C14.533,17 1.46600000000001,17 1.46600000000001,17 C0.65599999999995,17 0,16.308 0,15.467 C0,15.467 0,3.41500000000002 0,3.41500000000002 C0,2.589 0.64200000000005,1.91699999999997 1.42399999999998,1.892 C1.42399999999998,1.892 1.42399999999998,3.94900000000001 1.42399999999998,3.94900000000001 C1.42399999999998,4.87799999999999 2.14999999999998,5.62700000000001 3.04399999999998,5.62700000000001 C3.04399999999998,5.62700000000001 4.06700000000001,5.62700000000001 4.06700000000001,5.62700000000001 C4.96100000000001,5.62700000000001 5.69600000000003,4.87799999999999 5.69600000000003,3.94900000000001 C5.69600000000003,3.94900000000001 5.69600000000003,1.88499999999999 5.69600000000003,1.88499999999999 C5.69600000000003,1.88499999999999 10.303,1.88499999999999 10.303,1.88499999999999 C10.303,1.88499999999999 10.303,3.94900000000001 10.303,3.94900000000001 C10.303,4.87799999999999 11.039,5.62700000000001 11.933,5.62700000000001 C11.933,5.62700000000001 12.955,5.62700000000001 12.955,5.62700000000001 C13.85,5.62700000000001 14.576,4.87799999999999 14.576,3.94900000000001 C14.576,3.94900000000001 14.576,1.892 14.576,1.892 C15.357,1.91699999999997 16,2.589 16,3.41500000000002 C16,3.41500000000002 16,15.467 16,15.467 C16,16.307 15.342,17 14.533,17 ZM14.101,8.49099999999999 C14.101,8.12700000000001 13.817,7.83199999999999 13.467,7.83199999999999 C13.467,7.83199999999999 2.505,7.83199999999999 2.505,7.83199999999999 C2.15499999999997,7.83199999999999 1.87099999999998,8.12700000000001 1.87099999999998,8.49099999999999 C1.87099999999998,8.49099999999999 1.87099999999998,14.716 1.87099999999998,14.716 C1.87099999999998,15.08 2.15499999999997,15.375 2.505,15.375 C2.505,15.375 13.467,15.375 13.467,15.375 C13.817,15.375 14.101,15.08 14.101,14.716 C14.101,14.716 14.101,8.49099999999999 14.101,8.49099999999999 ZM11.8869999999999,14.476 C11.8869999999999,14.476 10.591,14.476 10.591,14.476 C10.386,14.476 10.22,14.303 10.22,14.09 C10.22,14.09 10.22,12.744 10.22,12.744 C10.22,12.531 10.386,12.358 10.591,12.358 C10.591,12.358 11.8869999999999,12.358 11.8869999999999,12.358 C12.092,12.358 12.258,12.531 12.258,12.744 C12.258,12.744 12.258,14.09 12.258,14.09 C12.258,14.303 12.092,14.476 11.8869999999999,14.476 ZM11.8869999999999,11.111 C11.8869999999999,11.111 10.591,11.111 10.591,11.111 C10.386,11.111 10.22,10.938 10.22,10.725 C10.22,10.725 10.22,9.37799999999999 10.22,9.37799999999999 C10.22,9.166 10.386,8.993 10.591,8.993 C10.591,8.993 11.8869999999999,8.993 11.8869999999999,8.993 C12.092,8.993 12.258,9.166 12.258,9.37799999999999 C12.258,9.37799999999999 12.258,10.725 12.258,10.725 C12.258,10.938 12.092,11.111 11.8869999999999,11.111 ZM8.64800000000002,14.476 C8.64800000000002,14.476 7.35199999999998,14.476 7.35199999999998,14.476 C7.14700000000005,14.476 6.98099999999999,14.303 6.98099999999999,14.09 C6.98099999999999,14.09 6.98099999999999,12.744 6.98099999999999,12.744 C6.98099999999999,12.531 7.14700000000005,12.358 7.35199999999998,12.358 C7.35199999999998,12.358 8.64800000000002,12.358 8.64800000000002,12.358 C8.85299999999995,12.358 9.01900000000001,12.531 9.01900000000001,12.744 C9.01900000000001,12.744 9.01900000000001,14.09 9.01900000000001,14.09 C9.01900000000001,14.303 8.85299999999995,14.476 8.64800000000002,14.476 ZM8.64800000000002,11.111 C8.64800000000002,11.111 7.35199999999998,11.111 7.35199999999998,11.111 C7.14700000000005,11.111 6.98099999999999,10.938 6.98099999999999,10.725 C6.98099999999999,10.725 6.98099999999999,9.37799999999999 6.98099999999999,9.37799999999999 C6.98099999999999,9.166 7.14700000000005,8.993 7.35199999999998,8.993 C7.35199999999998,8.993 8.64800000000002,8.993 8.64800000000002,8.993 C8.85299999999995,8.993 9.01900000000001,9.166 9.01900000000001,9.37799999999999 C9.01900000000001,9.37799999999999 9.01900000000001,10.725 9.01900000000001,10.725 C9.01900000000001,10.938 8.85299999999995,11.111 8.64800000000002,11.111 ZM5.40899999999999,14.476 C5.40899999999999,14.476 4.11300000000006,14.476 4.11300000000006,14.476 C3.90800000000002,14.476 3.74099999999999,14.303 3.74099999999999,14.09 C3.74099999999999,14.09 3.74099999999999,12.744 3.74099999999999,12.744 C3.74099999999999,12.531 3.90800000000002,12.358 4.11300000000006,12.358 C4.11300000000006,12.358 5.40899999999999,12.358 5.40899999999999,12.358 C5.61400000000003,12.358 5.77999999999997,12.531 5.77999999999997,12.744 C5.77999999999997,12.744 5.77999999999997,14.09 5.77999999999997,14.09 C5.77999999999997,14.303 5.61400000000003,14.476 5.40899999999999,14.476 ZM5.40899999999999,11.111 C5.40899999999999,11.111 4.11300000000006,11.111 4.11300000000006,11.111 C3.90800000000002,11.111 3.74099999999999,10.938 3.74099999999999,10.725 C3.74099999999999,10.725 3.74099999999999,9.37799999999999 3.74099999999999,9.37799999999999 C3.74099999999999,9.166 3.90800000000002,8.993 4.11300000000006,8.993 C4.11300000000006,8.993 5.40899999999999,8.993 5.40899999999999,8.993 C5.61400000000003,8.993 5.77999999999997,9.166 5.77999999999997,9.37799999999999 C5.77999999999997,9.37799999999999 5.77999999999997,10.725 5.77999999999997,10.725 C5.77999999999997,10.938 5.61400000000003,11.111 5.40899999999999,11.111 ZM12.931,4.52499999999998 C12.931,4.52499999999998 11.92,4.52499999999998 11.92,4.52499999999998 C11.6130000000001,4.52499999999998 11.365,4.267 11.365,3.94799999999998 C11.365,3.94799999999998 11.365,0.577 11.365,0.577 C11.365,0.25799999999998 11.6130000000001,0 11.92,0 C11.92,0 12.931,0 12.931,0 C13.2380000000001,0 13.487,0.25799999999998 13.487,0.577 C13.487,0.577 13.487,3.94799999999998 13.487,3.94799999999998 C13.487,4.267 13.2380000000001,4.52499999999998 12.931,4.52499999999998 ZM4.05200000000002,4.52499999999998 C4.05200000000002,4.52499999999998 3.04100000000005,4.52499999999998 3.04100000000005,4.52499999999998 C2.73400000000004,4.52499999999998 2.48500000000001,4.267 2.48500000000001,3.94799999999998 C2.48500000000001,3.94799999999998 2.48500000000001,0.577 2.48500000000001,0.577 C2.48500000000001,0.25799999999998 2.73400000000004,0 3.04100000000005,0 C3.04100000000005,0 4.05200000000002,0 4.05200000000002,0 C4.35900000000004,0 4.60699999999997,0.25799999999998 4.60699999999997,0.577 C4.60699999999997,0.577 4.60699999999997,3.94799999999998 4.60699999999997,3.94799999999998 C4.60699999999997,4.267 4.35900000000004,4.52499999999998 4.05200000000002,4.52499999999998 Z "/>
</svg>
