<?xml version="1.0" encoding="utf-8"?>
<!DOCTYPE svg PUBLIC "-//W3C//DTD SVG 1.1//EN" "http://www.w3.org/Graphics/SVG/1.1/DTD/svg11.dtd">
<svg version="1.1" baseProfile="full"
 xmlns="http://www.w3.org/2000/svg"
 xmlns:xlink="http://www.w3.org/1999/xlink"
 xmlns:ev="http://www.w3.org/2001/xml-events" 
  height="86px" 
  width="293px" 
>
<path fill="rgb( 165, 174, 181 )"
 d="M18,70 C27.941,70 36,73.582 36,78 C36,82.418 27.941,86 18,86 C8.05899999999997,86 0,82.418 0,78 C0,73.582 8.05899999999997,70 18,70 Z "/>
<path fill="rgb( 203, 210, 216 )"
 d="M35.6660000000001,77.149 C31.766,74.834 26.312,74.076 20,74.007 C20,74.007 20,9 20,9 C20,9 21,9 21,9 C29.284,9 36,15.716 36,24 C36,24 36,74 36,74 C36,75.081 35.883,76.134 35.6660000000001,77.149 Z "/>
<path opacity="0.502" fill="rgb( 76, 94, 107 )"
 d="M274,70 C283.941,70 292,73.582 292,78 C292,82.418 283.941,86 274,86 C264.059,86 256,82.418 256,78 C256,73.582 264.059,70 274,70 Z "/>
<path fill="rgb( 203, 210, 216 )"
 d="M256.334,77.149 C256.117,76.134 256,75.081 256,74 C256,74 256,24 256,24 C256,15.716 262.716,9 271,9 C271,9 272,9 272,9 C272,9 272,74.007 272,74.007 C265.688,74.076 260.234,74.834 256.334,77.149 Z "/>
<path fill="rgb( 237, 98, 71 )"
 d="M278,71 C278,71 16,71 16,71 C9.92200000000003,71 4.375,73.264 0.14700000000005,76.989 C0.05999999999995,76.336 0,75.676 0,75 C0,75 0,15 0,15 C0,6.71600000000001 6.71600000000001,0 15,0 C15,0 278,0 278,0 C286.284,0 293,6.71600000000001 293,15 C293,15 293,75 293,75 C293,75.413 292.971,75.818 292.938,76.223 C288.838,72.957 283.649,71 278,71 Z "/>
</svg>
