<svg baseProfile="full" xmlns="http://www.w3.org/2000/svg" height="86" width="293"><path fill="rgb( 165, 174, 181 )" d="M18 70c9.941 0 18 3.582 18 8s-8.059 8-18 8-18-3.582-18-8 8.059-8 18-8z"/><path fill="rgb( 203, 210, 216 )" d="M35.666 77.149c-3.9-2.315-9.354-3.073-15.666-3.142v-65.007h1c8.284 0 15 6.716 15 15v50c0 1.081-.117 2.134-.334 3.149z"/><path opacity=".502" fill="rgb( 76, 94, 107 )" d="M274 70c9.941 0 18 3.582 18 8s-8.059 8-18 8-18-3.582-18-8 8.059-8 18-8z"/><path fill="rgb( 203, 210, 216 )" d="M256.334 77.149c-.217-1.015-.334-2.068-.334-3.149v-50c0-8.284 6.716-15 15-15h1v65.007c-6.312.069-11.766.827-15.666 3.142z"/><path fill="rgb( 240, 248, 249 )" d="M278 71h-262c-6.078 0-11.625 2.264-15.853 5.989-.087-.653-.147-1.313-.147-1.989v-60c0-8.284 6.716-15 15-15h263c8.284 0 15 6.716 15 15v60c0 .413-.029.818-.062 1.223-4.1-3.266-9.289-5.223-14.938-5.223z"/></svg>