<?xml version="1.0" encoding="utf-8"?>
<!-- Generator: Adobe Illustrator 18.1.1, SVG Export Plug-In . SVG Version: 6.00 Build 0)  -->
<svg version="1.1" id="Слой_1" xmlns:ev="http://www.w3.org/2001/xml-events"
	 xmlns="http://www.w3.org/2000/svg" xmlns:xlink="http://www.w3.org/1999/xlink" x="0px" y="0px" width="293px" height="86px"
	 viewBox="-133 438 293 86" enable-background="new -133 438 293 86" xml:space="preserve">
<path fill="#A5AEB5" d="M-115,508c9.941,0,18,3.582,18,8c0,4.418-8.059,8-18,8s-18-3.582-18-8C-133,511.582-124.941,508-115,508z"/>
<path fill="#CBD2D8" d="M-97.334,515.149c-3.9-2.315-9.354-3.073-15.666-3.142V447h1c8.284,0,15,6.716,15,15v50
	C-97,513.081-97.117,514.134-97.334,515.149z"/>
<path opacity="0.502" fill="#4C5E6B" enable-background="new    " d="M141,508c9.941,0,18,3.582,18,8c0,4.418-8.059,8-18,8
	s-18-3.582-18-8C123,511.582,131.059,508,141,508z"/>
<path fill="#CBD2D8" d="M123.334,515.149C123.117,514.134,123,513.081,123,512v-50c0-8.284,6.716-15,15-15h1v65.007
	C132.688,512.076,127.234,512.834,123.334,515.149z"/>
<path fill="#5DC1E8" d="M145,509h-262c-6.078,0-11.625,2.264-15.853,5.989C-132.94,514.336-133,513.676-133,513v-60
	c0-8.284,6.716-15,15-15h263c8.284,0,15,6.716,15,15v60c0,0.413-0.029,0.818-0.062,1.223C155.838,510.957,150.649,509,145,509z"/>
</svg>
