<?xml version="1.0" encoding="utf-8"?>
<!DOCTYPE svg PUBLIC "-//W3C//DTD SVG 1.1//EN" "http://www.w3.org/Graphics/SVG/1.1/DTD/svg11.dtd">
<svg version="1.1" baseProfile="full"
 xmlns="http://www.w3.org/2000/svg"
 xmlns:xlink="http://www.w3.org/1999/xlink"
 xmlns:ev="http://www.w3.org/2001/xml-events" 
  height="70px" 
  width="27px" 
>
<path fill="rgb( 245, 130, 32 )"
 d="M26.992,36.008 C26.994,33.337 26.991,30.672 26.9880000000001,28.009 C26.7809999999999,26.405 26.508,24.813 26.357,23.202 C26.067,22.541 25.651,21.992 24.6900000000001,21.92 C24.36,22.644 24.025,23.381 23.8440000000001,23.778 C23.788,24.775 23.756,25.762 23.734,26.746 C23.748,27.102 23.874,29.724 23.884,30.678 C23.885,30.776 23.862,33.39 23.75,36.506 C23.821,36.643 23.867,36.806 23.869,37.001 C23.893,39.207 24.098,41.465 23.825,43.66 C23.777,44.048 23.704,44.426 23.622,44.801 C23.625,44.847 23.63,44.891 23.628,44.94 C23.553,46.76 23.623,48.562 23.567,50.313 C22.963,51.626 22.644,53.032 22.317,54.49 C22.057,55.648 21.745,56.787 21.398,57.914 C21.39,57.925 21.384,57.936 21.376,57.948 C21.046,58.917 20.672,59.87 20.265,60.825 C19.474,62.679 18.352,64.003 16.275,64.656 C15.832,64.571 15.384,64.465 14.936,64.344 C12.872,64.125 10.8920000000001,62.956 9.35500000000002,61.303 C8.97400000000005,60.92 8.61900000000003,60.503 8.29300000000001,60.052 C8.26300000000003,60.011 8.23400000000004,59.97 8.20399999999995,59.929 C8.096,59.776 7.99300000000005,59.619 7.89200000000005,59.459 C6.65599999999995,57.551 5.995,55.296 5.60199999999998,52.934 C5.26999999999998,50.941 4.66700000000003,48.968 4.87599999999998,46.887 C4.10500000000002,44.868 3.66200000000003,36.398 3.61000000000001,34.176 C3.60599999999999,34.01 3.73599999999999,31.959 3.73800000000006,31.541 C3.73000000000002,30.197 3.72199999999998,28.853 3.71400000000006,27.508 C3.78899999999999,27.354 4.22400000000005,19.25 4.476,17.846 C4.95899999999995,15.153 5.31700000000001,12.436 5.73000000000002,10.102 C6.28099999999995,6.389 7.92100000000005,5.79300000000001 8.18899999999996,5.56999999999999 C8.19200000000001,5.56699999999999 8.19600000000003,5.56399999999999 8.20000000000005,5.56100000000001 C8.529,5.205 8.92700000000002,4.97199999999999 9.36699999999996,4.80800000000001 C9.56200000000001,4.702 9.74400000000003,4.605 9.87800000000004,4.52500000000001 C10.556,4.39700000000001 11.192,4.358 11.805,4.38 C12.919,4.30800000000001 13.744,4.44499999999999 14.525,4.929 C15.0069999999999,5.108 15.484,5.325 15.965,5.574 C16.3630000000001,6.80500000000001 17.897,7.31399999999999 17.976,8.95 C19.2809999999999,10.869 18.976,13.339 19.754,15.439 C19.753,21.365 19.5700000000001,37.156 19.497,39.188 C19.347,43.344 17.901,51.399 15.526,51.399 C15.526,51.399 12.742,51.399 12.742,51.399 C12.2569999999999,50.592 11.773,50.031 11.388,49.322 C10.374,47.454 10.766,46.054 10.192,43.987 C9.52300000000002,41.572 9.05499999999995,32.83 9.02800000000002,30.943 C9.10900000000004,27.006 9.74199999999996,22.982 8.97799999999995,19.114 C8.98299999999995,19.111 8.98599999999999,19.109 8.99099999999999,19.105 C9.06700000000001,18.366 9.28700000000003,17.543 8.60400000000004,16.86 C8.22900000000004,16.732 7.88800000000003,16.709 7.58500000000004,16.803 C7.35400000000004,17.443 7.14700000000005,18.092 6.95899999999995,18.748 C6.96299999999997,18.767 6.97000000000003,18.786 6.97400000000005,18.806 C6.97400000000005,18.806 6.36599999999999,23.859 6.36900000000003,25.056 C6.375,27.224 6.58299999999997,32.068 6.43799999999999,32.257 C6.43600000000004,32.65 6.43299999999999,33.055 6.51300000000003,33.412 C6.5,33.462 6.67200000000003,40.434 6.74400000000003,40.82 C6.78200000000004,41.626 7.49400000000003,47.355 8.18799999999999,49.232 C8.75599999999997,50.77 9.59400000000005,52.288 10.175,53.476 C11.147,54.215 11.859,54.628 12.614,55.436 C12.614,55.436 16.736,55.436 16.736,55.436 C18.319,53.821 19.526,52.554 19.91,50.394 C19.991,49.937 20.266,49.473 20.4349999999999,49.032 C21.288,46.807 21.796,44.468 21.846,42.039 C21.854,41.656 21.9589999999999,40.021 22.086,38.103 C22.075,37.734 22.0650000000001,37.366 22.061,37.001 C22.058,36.78 22.111,36.601 22.1950000000001,36.455 C22.319,34.588 22.443,32.707 22.5069999999999,31.597 C22.562,30.636 22.557,12.796 22.418,11.855 C21.897,8.334 20.764,5.09999999999999 18.131,2.846 C15.74,0.8 12.92,0.152 10.241,0.001 C7.86300000000006,1.108 5.92399999999998,2.38200000000001 4.36199999999997,4.729 C2.70100000000002,8.35599999999999 0.99300000000005,21.365 0.99099999999999,22.922 C0.98500000000001,28.245 0.99900000000002,33.568 1.01900000000001,38.891 C1.02200000000005,39.61 1.31399999999996,41.38 1.36300000000006,41.556 C1.27099999999996,43.933 1.11699999999996,46.273 1.42999999999995,48.654 C1.63199999999995,50.187 1.98500000000001,51.682 2.37,53.168 C2.37699999999995,53.538 4.41300000000001,61.618 6.53099999999995,64.452 C8.27200000000005,65.662 10.097,66.93 11.944,68.214 C13.5309999999999,68.191 14.979,69.518 17.011,68.78 C17.735,68.394 18.804,67.824 20.115,67.126 C20.843,66.105 22.057,64.997 22.694,63.642 C23.485,61.962 24.169,60.183 24.8920000000001,58.405 C24.8920000000001,58.405 24.8920000000001,58.4 24.8920000000001,58.4 C24.8920000000001,56.686 25.545,54.972 25.934,53.245 C25.933,53.218 25.859,53.192 25.857,53.165 C25.823,52.457 26.599,46.545 26.693,46.086 C26.736,43.776 26.629,41.468 26.749,39.155 C26.804,38.111 26.894,37.061 26.992,36.008 Z "/>
</svg>
