<?xml version="1.0" encoding="UTF-8" standalone="no"?>
<svg width="20px" height="56px" viewBox="0 0 20 56" version="1.1" xmlns="http://www.w3.org/2000/svg" xmlns:xlink="http://www.w3.org/1999/xlink" xmlns:sketch="http://www.bohemiancoding.com/sketch/ns">
    <!-- Generator: Sketch 3.3 (11970) - http://www.bohemiancoding.com/sketch -->
    <title>Shape</title>
    <desc>Created with Sketch.</desc>
    <defs></defs>
    <g id="Page-1" stroke="none" stroke-width="1" fill="none" fill-rule="evenodd" sketch:type="MSPage">
        <path d="M3.09458158,8.46113062 C3.80032307,6.19661953 4.9666909,5.75498108 5.189,5.57 C5.529,5.205 5.927,4.972 6.367,4.808 C6.562,4.702 6.744,4.605 6.878,4.525 C7.556,4.397 8.192,4.358 8.805,4.38 C9.919,4.308 10.744,4.445 11.525,4.929 C12.007,5.108 12.484,5.325 12.965,5.574 C13.363,6.805 14.897,7.314 14.976,8.95 C16.281,10.869 15.976,13.339 16.754,15.439 C16.753,21.365 16.57,37.156 16.497,39.188 C16.347,43.344 14.901,51.399 12.526,51.399 L9.742,51.399 C9.257,50.592 8.773,50.031 8.388,49.322 C7.374,47.454 7.766,46.054 7.192,43.987 C6.523,41.572 6.055,32.83 6.028,30.943 C6.109,27.006 6.742,22.982 5.978,19.114 C6.067,18.366 6.287,17.543 5.604,16.86 C5.229,16.732 4.888,16.709 4.585,16.803 C4.354,17.443 4.147,18.092 3.959,18.748 C3.974,18.806 3.366,23.859 3.369,25.056 C3.375,27.224 3.583,32.068 3.438,32.257 C3.436,32.65 3.433,33.055 3.513,33.412 C3.5,33.462 3.672,40.434 3.744,40.82 C3.782,41.626 4.494,47.355 5.188,49.232 C5.756,50.77 6.594,52.288 7.175,53.476 C8.147,54.215 8.859,54.628 9.614,55.436 L13.736,55.436 C15.319,53.821 16.526,52.554 16.91,50.394 C16.991,49.937 17.266,49.473 17.435,49.032 C18.288,46.807 18.796,44.468 18.846,42.039 C18.854,41.656 18.959,40.021 19.086,38.103 C19.075,37.734 19.065,37.366 19.061,37.001 C19.058,36.78 19.111,36.601 19.195,36.455 C19.319,34.588 19.443,32.707 19.507,31.597 C19.562,30.636 19.557,12.796 19.418,11.855 C18.897,8.334 17.764,5.1 15.131,2.846 C12.74,0.8 9.92,0.152 7.241,0.001 C4.863,1.108 2.924,2.382 1.362,4.729 C0.981682767,5.55946996 0.598901479,6.88180747 0.234699297,8.44591939 C-0.204216583,10.3308987 2.94953145,8.92655261 3.09458158,8.46113062 Z" id="Shape" fill="#F58220" sketch:type="MSShapeGroup"></path>
    </g>
</svg>