<?xml version="1.0" encoding="utf-8"?>
<!DOCTYPE svg PUBLIC "-//W3C//DTD SVG 1.1//EN" "http://www.w3.org/Graphics/SVG/1.1/DTD/svg11.dtd">
<svg version="1.1" baseProfile="full"
 xmlns="http://www.w3.org/2000/svg"
 xmlns:xlink="http://www.w3.org/1999/xlink"
 xmlns:ev="http://www.w3.org/2001/xml-events" 
  height="15px" 
  width="18px" 
>
<path fill="rgb( 93, 193, 232 )"
 d="M6.22199999999998,7.596 C6.22199999999998,7.596 6.20600000000002,7.61099999999999 6.20600000000002,7.61099999999999 C6.20600000000002,7.61099999999999 2.91399999999999,10.576 2.91399999999999,10.576 C2.50300000000004,10.946 2.29899999999998,11.434 2.29899999999998,11.92 C2.29899999999998,12.405 2.50300000000004,12.8920000000001 2.91399999999999,13.2619999999999 C2.91399999999999,13.2619999999999 2.91399999999999,13.264 2.91399999999999,13.264 C2.91399999999999,13.264 2.93700000000001,13.285 2.93700000000001,13.285 C3.346,13.636 3.875,13.816 4.404,13.816 C4.94299999999998,13.816 5.48299999999995,13.6319999999999 5.89200000000005,13.264 C5.89200000000005,13.264 9.61300000000006,9.91099999999994 9.61300000000006,9.91099999999994 C9.61300000000006,9.91099999999994 9.625,9.89800000000002 9.625,9.89800000000002 C9.625,9.89800000000002 13.627,6.29899999999998 13.627,6.29899999999998 C13.808,6.13499999999999 13.899,5.91999999999996 13.899,5.70699999999999 C13.899,5.49099999999999 13.808,5.27800000000002 13.627,5.11599999999999 C13.448,4.95500000000004 13.2089999999999,4.87099999999998 12.973,4.87099999999998 C12.736,4.87099999999998 12.494,4.95500000000004 12.318,5.11599999999999 C12.318,5.11599999999999 6.55899999999997,10.297 6.55899999999997,10.297 C6.303,10.529 5.88999999999999,10.529 5.63699999999994,10.297 C5.38099999999997,10.072 5.38099999999997,9.69799999999998 5.63699999999994,9.46799999999996 C5.63699999999994,9.46799999999996 11.3920000000001,4.28499999999997 11.3920000000001,4.28499999999997 C11.826,3.88999999999999 12.399,3.69299999999998 12.973,3.69299999999998 C13.546,3.69299999999998 14.119,3.88999999999999 14.553,4.28499999999997 C14.9880000000001,4.67399999999998 15.206,5.19000000000005 15.206,5.70699999999999 C15.206,6.221 14.9880000000001,6.73699999999997 14.553,7.12900000000002 C14.553,7.12900000000002 10.551,10.734 10.551,10.734 C10.551,10.734 10.542,10.7430000000001 10.542,10.7430000000001 C10.542,10.7430000000001 10.528,10.755 10.528,10.755 C10.528,10.755 6.81899999999996,14.096 6.81899999999996,14.096 C6.154,14.694 5.27999999999997,14.995 4.404,14.995 C3.54499999999996,14.995 2.68399999999997,14.704 2.02499999999998,14.127 C2.02499999999998,14.127 1.98800000000006,14.096 1.98800000000006,14.096 C1.32100000000003,13.498 0.99199999999996,12.708 0.99199999999996,11.92 C0.99199999999996,11.131 1.32100000000003,10.343 1.98800000000006,9.74599999999998 C1.98800000000006,9.74599999999998 5.70899999999995,6.38999999999999 5.70899999999995,6.38999999999999 C5.70899999999995,6.38999999999999 5.72500000000002,6.37800000000004 5.72500000000002,6.37800000000004 C5.72500000000002,6.37800000000004 10.41,2.15899999999999 10.41,2.15899999999999 C11.276,1.38400000000001 12.415,0.99300000000005 13.553,0.99300000000005 C14.6950000000001,0.99300000000005 15.833,1.38400000000001 16.701,2.15899999999999 C17.564,2.93899999999996 17.999,3.96500000000003 17.999,4.99199999999996 C17.999,6.01800000000003 17.564,7.04700000000003 16.701,7.82299999999998 C16.701,7.82299999999998 10.256,13.625 10.256,13.625 C10.001,13.857 9.58600000000001,13.857 9.33000000000004,13.625 C9.07500000000005,13.397 9.07500000000005,13.025 9.33000000000004,12.795 C9.33000000000004,12.795 15.775,6.99199999999996 15.775,6.99199999999996 C16.385,6.44200000000001 16.689,5.71500000000003 16.689,4.99199999999996 C16.689,4.26900000000001 16.385,3.54300000000001 15.775,2.99300000000005 C15.1660000000001,2.44600000000003 14.361,2.17200000000003 13.553,2.17200000000003 C12.748,2.17200000000003 11.944,2.44600000000003 11.3339999999999,2.99300000000005 C11.3339999999999,2.99300000000005 6.22199999999998,7.596 6.22199999999998,7.596 C6.22199999999998,7.596 6.22199999999998,7.596 6.22199999999998,7.596 Z "/>
</svg>
