<?xml version="1.0" encoding="utf-8"?>
<!-- Generator: Adobe Illustrator 18.1.1, SVG Export Plug-In . SVG Version: 6.00 Build 0)  -->
<svg version="1.1" id="Layer_5" xmlns="http://www.w3.org/2000/svg" xmlns:xlink="http://www.w3.org/1999/xlink" x="0px" y="0px"
	 viewBox="0 0 11.39 14.128" enable-background="new 0 0 11.39 14.128" xml:space="preserve">
<g>
	
		<rect x="4.706" y="-0.619" transform="matrix(-0.8661 0.4999 -0.4999 -0.8661 13.213 10.7833)" fill="#BBBDBF" width="0.912" height="15.561"/>
	
		<rect x="5.766" y="-0.619" transform="matrix(0.8658 0.5005 -0.5005 0.8658 4.4194 -2.1523)" fill="#BBBDBF" width="0.911" height="15.562"/>
	<circle fill="#4C5E6B" cx="5.695" cy="7.283" r="5.389"/>
	<circle fill="#F4F4F4" cx="5.653" cy="7.283" r="4.577"/>
	<path fill="#121212" d="M8.252,4.004L7.874,3.739L5.75,6.695C5.613,6.673,5.47,6.692,5.339,6.765l-1.94-1.307L3.139,5.835
		l1.889,1.363C5.001,7.341,5.019,7.494,5.099,7.63c0.173,0.306,0.559,0.411,0.863,0.237C6.267,7.692,6.37,7.308,6.197,7.002
		L8.252,4.004z"/>
	<path fill="#DEDBD9" d="M1.149,0.308c-1.1,0.635-1.476,2.04-0.841,3.139l3.979-2.298C3.653,0.051,2.247-0.326,1.149,0.308z"/>
	<path fill="#DEDBD9" d="M10.24,0.308c1.1,0.635,1.476,2.04,0.842,3.139L7.102,1.148C7.736,0.051,9.143-0.326,10.24,0.308z"/>
	<circle fill="#E8E8E8" cx="5.653" cy="9.911" r="1.126"/>
</g>
</svg>
