<svg baseProfile="full" xmlns="http://www.w3.org/2000/svg" height="85" width="209"><path fill="rgb( 237, 98, 71 )" d="M207.995 31.46c.18-3.493-1.142-6.844-2.451-10.232-.96-2.485-2.674-4.807-3.743-7.156-2.013-1.416-8.127-6.136-12.991-7.39-3.524-.827-13.522-3.348-18.96-3.923-5.294-.56-10.471-1.317-15.909-1.221-2.828.051-12.635-.065-14.74-.447-1.936-.351-10.088.484-12.374.156-1.893-.271-19.848.333-26.689.361-1.413.006-15.281.709-20.838.764-1.885.019-14.905.758-19.581.802-1.87.018-10.753.565-13.156.984-2.762.481-12.272 2.119-14.592 2.345-3.118.304-12.76 4.072-15.117 4.689-2.459.644-6.531 3.925-7.157 4.304-3.962 2.404-8.514 9.689-8.607 10.338-.472 3.287 1.158 17.545 1.178 18.214.055 1.877.3 7.237.646 8 1.163 2.562 1.635 5.23 3.582 7.673.369 3.509 4.847 5.695 8.467 8.053 2.717 1.769 12.004 4.676 13.121 4.858 6.101.993 12.263 1.591 18.656 1.543 10.377-.08.952-.515 6.359-.508.982.001 2.064-.113 2.925.081 1.801.405 71.336.293 73.159.318 2.087.027 4.176.006 6.022.006 2.521.538 3.993-.446 5.912.49.363.177.853.268 1.283.399 4.093 1.251 7.933 2.731 11.73 4.247 1.298.519 2.573 1.058 3.807 1.626.962.442 2.203.496 3.219.944 2.588 1.142 5.379 2.134 8.179 3.22 1.345-.053 2.052-.613 2.789-1.284-.074-.353-.036-.789-.271-1.169-.771-1.246-1.455-2.507-2.403-3.723-.934-1.197-1.116-2.548-2.197-3.745-.871-.965-1.433-2.021-2.167-3.087 1.62-.243 3.185-.405 4.651-.718 1.485-.316 2.908-.745 4.296-1.188 2.574-.821 16.765-4.02 21.062-6.072.53-.253 5.431-5.726 7.236-8.18 1.166-1.586 4.951-10.668 4.282-13.645-.116-.509 1.251-3.903 1.287-5.097.057-1.876-.001-3.754.095-5.63z"/><path stroke="rgb( 255, 255, 255 )" stroke-dasharray="4, 2" opacity=".8" d="M204.112 32.428c.174-3.202-1.106-6.273-2.372-9.379-.928-2.278-2.586-4.406-3.62-6.559-1.946-1.299-7.86-5.625-12.564-6.774-3.408-.758-13.078-3.069-18.338-3.596-5.12-.514-10.126-1.207-15.387-1.119-2.734.046-12.219-.06-14.255-.41-1.873-.322-9.757.443-11.968.143-1.831-.249-19.197.305-25.814.331-1.366.005-14.779.65-20.154.7-1.822.018-14.415.695-18.938.735-1.808.017-10.399.518-12.724.902-2.67.441-11.868 1.942-14.113 2.15-3.015.278-12.341 3.732-14.621 4.298-2.378.59-6.316 3.597-6.922 3.945-3.831 2.203-8.234 8.881-8.323 9.476-.457 3.013 1.12 16.082 1.139 16.696.053 1.72.289 6.633.625 7.332 1.125 2.349 1.581 4.794 3.464 7.034.356 3.216 4.688 5.22 8.189 7.381 2.627 1.622 11.61 4.286 12.69 4.453 5.901.91 11.861 1.459 18.044 1.414 10.036-.072-1.32-.355 3.909-.348.95.001 1.996-.103 2.829.074 1.741.372 71.217.269 72.98.291 2.018.026 4.039.006 5.824.006 2.439.493 3.816-.525 5.673.333.35.162.824.245 1.24.366 3.959 1.146 7.673 2.502 11.345 3.892 1.255.476 2.489.97 3.682 1.49.931.406 2.131.456 3.113.866 2.504 1.047 5.203 1.955 7.911 2.951 1.301-.048 1.985-.562 2.698-1.177-.072-.323-.035-.723-.263-1.072-.745-1.142-1.407-2.297-2.323-3.412-.904-1.097-1.08-2.336-2.126-3.432-.842-.885-1.385-1.853-2.095-2.83 1.567-.223 3.08-.371 4.498-.658 1.436-.29 2.812-.683 4.155-1.089 2.49-.753 16.279-3.685 20.434-5.566.513-.232 5.253-5.248 6.999-7.498 1.127-1.454 4.788-9.778 4.141-12.507-.111-.467 1.21-3.578 1.245-4.673.056-1.719 0-3.441.093-5.16z" fill="none"/></svg>