<svg baseProfile="full" xmlns="http://www.w3.org/2000/svg" height="93" width="285"><path opacity=".8" fill="rgb( 52, 177, 226 )" d="M27.006 54.288c-.224 4.324 1.418 8.473 3.044 12.667 1.192 3.077 3.32 5.953 4.648 8.86 2.499 1.754 10.091 7.597 16.13 9.15 4.376 1.024 16.791 4.146 23.543 4.858 6.573.693 13.001 1.629 19.754 1.51 3.511-.062 15.688.082 18.302.554 2.404.435 12.527-.598 15.365-.193 2.35.336 24.646-.412 33.14-.447 1.755-.007 18.974-.878 25.875-.946 2.34-.023 18.507-.938 24.313-.993 2.322-.022 13.352-.7 16.336-1.218 3.429-.595 15.238-2.623 18.119-2.903 3.871-.377 15.844-5.042 18.771-5.806 3.053-.797 8.109-4.859 8.887-5.329 4.919-2.975 10.571-11.995 10.686-12.799.586-4.07-1.438-21.722-1.462-22.551-.069-2.324-.372-8.96-.803-9.904-1.444-3.172-2.03-6.475-4.448-9.501-.457-4.343-6.017-7.05-10.513-9.969-3.373-2.191-14.905-5.789-16.292-6.015-7.576-1.229-15.227-1.97-23.165-1.91-12.885.098-1.183.637-7.896.628-1.219-.001-2.563.14-3.632-.1-2.236-.502-88.578-.363-90.841-.393-2.591-.035-5.186-.008-7.478-.008-3.131-.666-4.696-.429-7.341-.607-9.62-.645-31.381 1.41-40.048 4.077-13.413 4.127-21.641 6.445-26.976 8.985-.658.313-38.783.976-41.024 4.015-1.448 1.963 25.892 19.32 26.723 23.006.143.631-1.554 4.833-1.599 6.311-.071 2.323.001 4.648-.118 6.971z"/><path stroke="rgb( 255, 255, 255 )" stroke-dasharray="4, 2" opacity=".8" d="M31.828 54.089c-.216 3.964 1.373 7.767 2.945 11.612 1.152 2.82 3.21 5.456 4.495 8.121 2.417 1.608 9.76 5.964 15.6 7.387 4.233.939 16.24 3.8 22.771 4.452 6.357.636 12.574 1.494 19.105 1.385 3.396-.057 15.173.075 17.702.508 2.325.399 12.115-.549 14.86-.177 2.273.308 23.837-.378 32.052-.41 1.697-.007 18.351-.804 25.026-.867 2.263-.021 17.899-.859 23.515-.91 2.245-.021 12.913-.641 15.799-1.116 3.316-.546 14.738-2.405 17.524-2.662 3.744-.345 15.324-4.621 18.155-5.321 2.953-.731 7.843-4.454 8.595-4.885 4.758-2.727 10.225-10.995 10.336-11.732.567-3.731-1.391-18.911-1.414-19.671-.067-2.13-.36-8.213-.777-9.078-1.397-2.908-1.963-5.936-4.302-8.709-.442-3.981-5.82-6.462-10.168-9.138-3.262-2.008-14.415-5.307-15.757-5.513-7.327-1.127-14.727-1.807-22.404-1.751-12.463.09 1.638.439-4.854.431-1.18-.001-2.479.128-3.513-.092-2.163-.46-88.43-.333-90.619-.36-2.507-.032-5.016-.008-7.233-.008-3.027-.61-4.737.651-7.043-.411-1.128-.52-11.891-.674-18.224-.174s-17.333 2.497-19 3c-3.092.932-22.519 6.818-27.679 9.147-.637.286-34.154.067-36.321 2.853-1.4 1.799 21.685 18.537 22.489 21.915.138.578-1.503 4.43-1.546 5.785-.069 2.129.001 4.261-.115 6.389z" fill="none"/></svg>