<svg baseProfile="full" xmlns="http://www.w3.org/2000/svg" height="83" width="135"><path fill="rgb( 255, 255, 255 )" d="M1.003 29.496c-.116-3.268.734-6.403 1.575-9.572.617-2.325 1.718-4.498 2.405-6.695 1.293-1.325 5.222-5.74 8.347-6.913 2.264-.774 8.688-3.133 12.182-3.671 3.401-.524 6.727-1.231 10.222-1.141 1.816.046 8.117-.062 9.47-.419 1.244-.328 6.482.453 7.951.146 1.216-.254 12.752.312 17.148.338.908.005 9.818.663 13.389.715 1.21.017 9.576.708 12.58.75 1.202.017 6.909.529 8.453.92 1.775.45 7.885 1.982 9.376 2.194 2.003.284 8.198 3.809 9.713 4.387 1.58.602 4.196 3.671 4.598 4.026 2.546 2.249 5.47 9.064 5.53 9.671.303 3.076-.744 16.414-.757 17.04-.035 1.756-.192 6.77-.415 7.484-.747 2.397-1.05 4.893-2.301 7.179-.237 3.282-3.114 5.327-5.441 7.533-1.745 1.655-7.712 4.374-8.43 4.544-3.92.93-7.879 1.489-11.986 1.444-6.668-.074-.613-.482-4.086-.475-.631.001-1.326-.105-1.88.076-1.156.379-45.834.274-47.005.297-1.341.026-2.683.006-3.869.006-1.62.503-5.489 3-6.722 3.875-.233.166-.548.251-.824.374-2.63 1.17-5.097 2.554-7.537 3.973-.834.485-1.653.99-2.446 1.52-.618.414-1.415.465-2.068.884-1.663 1.068-3.457 1.996-5.255 3.012-.865-.05-1.319-.574-1.793-1.202.048-.329.024-.737.175-1.093.495-1.166.935-2.345 1.544-3.482.6-1.12.717-2.385 1.411-3.504.56-.903 3.844-5.308 4.315-6.305-1.04-.227-2.045-.379-2.988-.671-.954-.296-1.868-.698-2.76-1.112-1.654-.768-10.772-3.761-13.532-5.68-.341-.237-3.49-5.357-4.65-7.653-.749-1.483-3.181-9.98-2.751-12.765.074-.476-.804-3.651-.827-4.768-.036-1.756.001-3.513-.061-5.267z"/><path stroke="rgb( 161, 174, 179 )" stroke-dasharray="4, 2" d="M3.498 30.401c-.111-2.995.711-5.868 1.524-8.774.596-2.131 1.661-4.122 2.326-6.136 1.251-1.215 5.05-5.262 8.072-6.337 2.191-.71 8.403-2.871 11.783-3.365 3.289-.48 6.506-1.128 9.886-1.046 1.757.043 7.851-.056 9.16-.384 1.203-.301 6.269.415 7.689.134 1.176-.232 12.334.286 16.585.31.878.005 9.496.608 12.95.655 1.171.016 9.261.649 12.167.688 1.162.015 6.682.484 8.176.843 1.716.412 7.626 1.817 9.068 2.011 1.937.261 7.929 3.492 9.394 4.021 1.528.552 4.058 3.365 4.447 3.691 2.462 2.061 5.291 8.308 5.348 8.865.294 2.819-.719 15.045-.731 15.619-.035 1.609-.187 6.206-.402 6.859-.723 2.198-1.016 4.486-2.226 6.581-.229 3.008-3.012 4.883-5.262 6.905-1.688 1.517-7.459 4.01-8.153 4.166-3.791.851-7.621 1.365-11.593 1.323-6.449-.068.848-.332-2.512-.326-.61.001-1.283-.097-1.818.069-1.118.348-45.757.252-46.89.273-1.297.024-2.595.005-3.743.005-1.566.461-2.451-.491-3.644.311-.225.152-.53.23-.797.343-2.543 1.072-7.853 5.758-10.212 7.058-.807.445-1.6.907-2.366 1.394-.598.379-1.369.426-2 .81-1.609.979-3.343 1.829-5.083 2.761-.836-.046-1.276-.526-1.734-1.102.047-.302.023-.676.169-1.002.479-1.069.904-2.15 1.493-3.192.581-1.027 3.617-5.602 4.289-6.628.541-.828.89-1.733 1.346-2.648-1.006-.208-1.979-.347-2.89-.615-.923-.271-1.807-.639-2.669-1.019-1.6-.704-10.46-3.447-13.13-5.207-.329-.216-3.375-4.91-4.497-7.014-.724-1.36-3.076-9.148-2.66-11.701.071-.437-.778-3.347-.8-4.371-.036-1.609 0-3.219-.06-4.828z" fill="none"/></svg>