<svg baseProfile="full" xmlns="http://www.w3.org/2000/svg" height="83" width="184"><path fill="rgb( 255, 255, 255 )" d="M182.996 29.496c.158-3.268-1.005-6.403-2.156-9.572-.844-2.325-2.35-4.498-3.291-6.695-1.769-1.325-7.145-5.74-11.421-6.913-3.099-.774-11.89-3.133-16.671-3.671-4.654-.524-9.206-1.231-13.988-1.141-2.485.047-11.108-.062-12.959-.419-1.702-.328-8.87.453-10.88.146-1.664-.254-17.451.312-23.466.338-1.242.006-13.435.663-18.321.715-1.657.017-13.104.708-17.216.75-1.644.017-9.454.529-11.567.92-2.428.45-10.79 1.982-12.83 2.194-2.741.284-11.219 3.809-13.291 4.387-2.162.602-5.742 3.671-6.293 4.026-3.483 2.249-7.485 9.064-7.567 9.671-.415 3.076 1.019 16.414 1.036 17.041.048 1.755.263 6.769.568 7.483 1.023 2.397 1.438 4.893 3.149 7.179.324 3.282 4.262 5.327 7.445 7.533 2.388 1.655 10.554 4.374 11.536 4.544 5.364.93 10.782 1.489 16.403 1.444 9.123-.074.837-.482 5.591-.475.863.001 1.815-.105 2.571.076 1.584.379 62.721.274 64.324.297 1.835.026 3.672.006 5.295.006 2.216.503 7.51 3 9.198 3.875.319.166.749.251 1.128.374 3.598 1.17 6.974 2.554 10.313 3.973 1.141.485 2.262.99 3.347 1.52.846.414 1.937.465 2.83.884 2.276 1.068 4.73 1.996 7.192 3.012 1.182-.05 1.804-.574 2.452-1.201-.065-.33-.032-.738-.239-1.094-.677-1.166-1.279-2.345-2.112-3.482-.821-1.12-.982-2.385-1.932-3.504-.766-.903-5.26-5.307-5.905-6.305 1.424-.227 2.8-.379 4.089-.671 1.306-.296 2.557-.698 3.777-1.112 2.264-.768 14.741-3.761 18.518-5.68.467-.237 4.776-5.357 6.363-7.653 1.024-1.483 4.352-9.98 3.764-12.764-.101-.477 1.1-3.652 1.132-4.769.05-1.756-.001-3.513.084-5.267z"/><path stroke="rgb( 161, 174, 179 )" stroke-dasharray="4, 2" d="M179.581 30.401c.153-2.995-.972-5.868-2.085-8.773-.816-2.132-2.273-4.123-3.183-6.137-1.711-1.215-6.91-5.262-11.046-6.337-2.997-.71-11.499-2.871-16.124-3.365-4.501-.48-8.903-1.128-13.528-1.046-2.404.043-10.744-.056-12.534-.384-1.646-.301-8.579.415-10.523.134-1.609-.232-16.878.286-22.695.31-1.202.005-12.994.608-17.72.655-1.603.016-12.674.649-16.651.688-1.59.015-9.144.484-11.188.843-2.348.412-10.435 1.817-12.408 2.011-2.651.261-10.851 3.492-12.855 4.021-2.091.552-5.554 3.366-6.086 3.691-3.369 2.061-7.24 8.308-7.319 8.865-.401 2.819.985 15.045 1.002 15.619.047 1.609.255 6.206.549 6.86.99 2.197 1.391 4.485 3.046 6.58.314 3.009 4.122 4.883 7.201 6.905 2.309 1.517 10.207 4.01 11.157 4.166 5.188.851 10.428 1.365 15.864 1.323 8.824-.068-1.16-.332 3.437-.326.835.001 1.755-.097 2.487.069 1.532.348 62.616.252 64.167.273 1.774.024 3.551.005 5.121.005 2.144.461 3.354-.491 4.987.311.308.152.725.23 1.091.343 3.48 1.072 10.745 5.758 13.974 7.058 1.104.445 2.189.907 3.238 1.394.818.379 1.873.426 2.737.81 2.201.979 4.575 1.829 6.956 2.761 1.143-.046 1.745-.526 2.371-1.102-.063-.302-.03-.675-.231-1.002-.655-1.069-1.237-2.15-2.043-3.192-.794-1.027-4.949-5.602-5.868-6.628-.741-.828-1.219-1.733-1.843-2.647 1.378-.209 2.708-.348 3.955-.616 1.263-.271 2.473-.639 3.653-1.019 2.189-.704 14.313-3.447 17.967-5.207.451-.216 4.619-4.91 6.153-7.014.991-1.36 4.21-9.148 3.641-11.701-.098-.437 1.064-3.347 1.095-4.371.049-1.609-.001-3.219.081-4.828z" fill="none"/></svg>