<?xml version="1.0" encoding="utf-8"?>
<!DOCTYPE svg PUBLIC "-//W3C//DTD SVG 1.1//EN" "http://www.w3.org/Graphics/SVG/1.1/DTD/svg11.dtd">
<svg version="1.1" baseProfile="full"
 xmlns="http://www.w3.org/2000/svg"
 xmlns:xlink="http://www.w3.org/1999/xlink"
 xmlns:ev="http://www.w3.org/2001/xml-events" 
  height="121px" 
  width="216px" 
>
<path opacity="0.8" fill="rgb( 52, 177, 226 )"
 d="M1.005,44.514 C0.81899999999996,39.524 2.18600000000004,34.737 3.53899999999999,29.898 C4.53099999999995,26.347 6.303,23.03 7.40899999999999,19.675 C9.49000000000001,17.651 15.8099999999999,10.909 20.8390000000001,9.118 C24.482,7.935 34.818,4.334 40.4400000000001,3.512 C45.913,2.71199999999999 51.265,1.63200000000001 56.8869999999999,1.76900000000001 C59.8099999999999,1.84100000000001 69.949,1.67500000000001 72.125,1.13 C74.127,0.62799999999999 82.555,1.82100000000003 84.918,1.35300000000001 C86.875,0.96600000000001 105.437,1.82900000000001 112.51,1.86900000000003 C113.971,1.87700000000001 128.307,2.88200000000001 134.053,2.95999999999998 C136.001,2.98700000000002 149.461,4.04199999999997 154.295,4.10599999999999 C156.228,4.13200000000001 165.412,4.91300000000001 167.896,5.51100000000002 C170.751,6.19799999999998 180.583,8.53800000000001 182.982,8.86099999999999 C186.205,9.29599999999999 196.173,14.678 198.61,15.56 C201.152,16.48 205.362,21.166 206.009,21.709 C210.105,25.142 214.811,35.55 214.907,36.477 C215.395,41.173 213.709,61.5410000000001 213.689,62.498 C213.632,65.179 213.379,72.836 213.021,73.925 C211.818,77.585 211.331,81.397 209.318,84.888 C208.937,89.9 204.307,93.023 200.564,96.391 C197.756,98.919 188.155,103.071 187,103.331 C180.693,104.75 174.322,105.605 167.713,105.535 C156.985,105.422 166.728,104.799 161.139,104.81 C160.124,104.812 159.005,104.649 158.115,104.926 C156.254,105.505 84.367,105.345 82.482,105.379 C80.325,105.419 78.165,105.389 76.256,105.389 C73.65,106.156 72.129,104.752 70.144,106.089 C69.77,106.341 69.263,106.471 68.818,106.659 C64.587,108.446 60.617,110.56 56.692,112.726 C55.35,113.467 54.0309999999999,114.238 52.756,115.048 C51.761,115.68 50.478,115.758 49.428,116.398 C46.753,118.029 43.867,119.445 40.972,120.997 C39.582,120.921 38.85,120.121 38.0890000000001,119.162 C38.1660000000001,118.659 38.126,118.036 38.37,117.492 C39.1660000000001,115.712 39.874,113.911 40.853,112.175 C41.819,110.464 42.008,108.534 43.125,106.824 C44.025,105.446 44.606,103.937 45.365,102.414 C43.6900000000001,102.067 42.073,101.836 40.556,101.389 C39.021,100.938 37.551,100.324 36.116,99.691 C33.454,98.518 18.783,93.948 14.341,91.0170000000001 C13.793,90.6559999999999 8.726,82.838 6.86099999999999,79.331 C5.65599999999995,77.066 1.74199999999996,64.092 2.43399999999997,59.8390000000001 C2.553,59.111 1.13999999999999,54.263 1.10299999999995,52.557 C1.04399999999998,49.876 1.10400000000004,47.194 1.005,44.514 Z "/>
<path stroke="rgb( 255, 255, 255 )" stroke-width="1px" stroke-dasharray="4, 2" stroke-linecap="butt" stroke-linejoin="miter" opacity="0.8" fill="none"
 d="M5.01999999999998,45.897 C4.84000000000003,41.323 6.16200000000003,36.9349999999999 7.471,32.499 C8.43100000000004,29.245 10.145,26.204 11.2140000000001,23.128 C13.226,21.273 19.34,15.093 24.203,13.452 C27.727,12.368 37.723,9.06700000000001 43.1609999999999,8.31400000000002 C48.454,7.57999999999998 53.63,6.58999999999998 59.068,6.71600000000001 C61.895,6.78100000000001 71.701,6.63 73.806,6.13 C75.742,5.67000000000002 83.893,6.76299999999998 86.178,6.334 C88.071,5.97899999999999 106.024,6.77100000000002 112.865,6.80700000000002 C114.277,6.815 128.143,7.73500000000001 133.7,7.80799999999999 C135.584,7.83199999999999 148.603,8.79899999999998 153.279,8.858 C155.148,8.88099999999997 164.03,9.59800000000001 166.433,10.146 C169.194,10.775 178.703,12.92 181.023,13.217 C184.14,13.615 193.782,18.549 196.138,19.357 C198.597,20.2 202.669,24.496 203.295,24.993 C207.256,28.14 211.807,37.68 211.9,38.53 C212.372,42.835 210.742,61.504 210.722,62.381 C210.667,64.8390000000001 210.423,71.857 210.076,72.856 C208.913,76.211 208.441,79.705 206.495,82.904 C206.126,87.499 201.649,90.361 198.028,93.449 C195.313,95.766 186.026,99.572 184.909,99.8099999999999 C178.809,101.11 172.648,101.894 166.256,101.831 C155.88,101.727 167.62,101.323 162.214,101.333 C161.233,101.334 160.151,101.185 159.29,101.439 C157.489,101.97 85.665,101.823 83.842,101.855 C81.755,101.891 79.6660000000001,101.863 77.8200000000001,101.863 C75.299,102.567 73.876,101.112 71.956,102.338 C71.5940000000001,102.569 71.104,102.689 70.674,102.861 C66.582,104.498 62.742,106.436 58.9450000000001,108.422 C57.647,109.101 56.372,109.807 55.139,110.55 C54.177,111.129 52.936,111.201 51.92,111.787 C49.332,113.283 46.5410000000001,114.581 43.742,116.003 C42.397,115.934 41.6900000000001,115.2 40.953,114.321 C41.027,113.86 40.989,113.289 41.225,112.791 C41.995,111.159 42.679,109.508 43.627,107.916 C44.5599999999999,106.349 44.7430000000001,104.579 45.824,103.012 C46.6950000000001,101.749 47.256,100.366 47.99,98.97 C46.37,98.652 44.806,98.439 43.34,98.03 C41.855,97.616 40.433,97.054 39.045,96.474 C36.47,95.398 22.215,91.21 17.919,88.523 C17.389,88.192 12.4880000000001,81.025 10.684,77.811 C9.51800000000003,75.735 5.73299999999995,63.842 6.40300000000002,59.944 C6.51700000000005,59.277 5.15099999999995,54.833 5.11500000000001,53.269 C5.05799999999999,50.812 5.11599999999999,48.353 5.01999999999998,45.897 Z "/>
</svg>
