<?xml version="1.0" encoding="utf-8"?>
<!DOCTYPE svg PUBLIC "-//W3C//DTD SVG 1.1//EN" "http://www.w3.org/Graphics/SVG/1.1/DTD/svg11.dtd">
<svg version="1.1" baseProfile="full"
 xmlns="http://www.w3.org/2000/svg"
 xmlns:xlink="http://www.w3.org/1999/xlink"
 xmlns:ev="http://www.w3.org/2001/xml-events" 
  height="85px" 
  width="209px" 
>
<path opacity="0.8" fill="rgb( 52, 177, 226 )"
 d="M207.995,31.46 C208.175,27.967 206.853,24.616 205.544,21.228 C204.584,18.7430000000001 202.87,16.421 201.801,14.072 C199.788,12.6559999999999 193.674,7.93600000000004 188.81,6.68200000000002 C185.286,5.85500000000002 175.288,3.33399999999995 169.85,2.75900000000001 C164.556,2.19899999999996 159.379,1.44200000000001 153.941,1.53800000000001 C151.113,1.58900000000006 141.306,1.47299999999996 139.201,1.09100000000001 C137.265,0.74000000000001 129.113,1.57500000000005 126.827,1.24699999999996 C124.934,0.976 106.979,1.58000000000004 100.138,1.60799999999995 C98.7249999999999,1.61400000000003 84.857,2.31700000000001 79.3,2.37199999999996 C77.415,2.39099999999996 64.395,3.13 59.7190000000001,3.17399999999998 C57.8489999999999,3.19200000000001 48.9659999999999,3.73900000000003 46.5630000000001,4.15800000000002 C43.8009999999999,4.63900000000001 34.2909999999999,6.27700000000004 31.971,6.50300000000004 C28.8530000000001,6.80700000000002 19.211,10.575 16.854,11.192 C14.395,11.836 10.3230000000001,15.117 9.69699999999989,15.496 C5.7349999999999,17.9 1.18299999999999,25.1849999999999 1.08999999999992,25.8339999999999 C0.61799999999994,29.121 2.24800000000005,43.379 2.26800000000003,44.048 C2.32300000000009,45.925 2.56799999999998,51.285 2.91399999999999,52.048 C4.077,54.61 4.54899999999998,57.278 6.49600000000009,59.721 C6.86500000000001,63.23 11.3430000000001,65.4160000000001 14.963,67.774 C17.6800000000001,69.543 26.9670000000001,72.45 28.0840000000001,72.6319999999999 C34.1849999999999,73.625 40.347,74.223 46.74,74.175 C57.117,74.095 47.692,73.66 53.0989999999999,73.667 C54.0809999999999,73.668 55.163,73.554 56.0239999999999,73.748 C57.825,74.153 127.36,74.0410000000001 129.183,74.066 C131.27,74.093 133.359,74.072 135.205,74.072 C137.726,74.61 139.198,73.626 141.117,74.562 C141.48,74.739 141.97,74.83 142.4,74.961 C146.493,76.212 150.333,77.692 154.13,79.208 C155.428,79.727 156.703,80.266 157.937,80.8339999999999 C158.899,81.276 160.14,81.33 161.156,81.778 C163.744,82.92 166.535,83.912 169.335,84.998 C170.68,84.9450000000001 171.387,84.385 172.124,83.7140000000001 C172.05,83.361 172.088,82.925 171.853,82.545 C171.082,81.299 170.398,80.038 169.45,78.822 C168.516,77.625 168.334,76.274 167.253,75.077 C166.382,74.112 165.82,73.056 165.086,71.99 C166.706,71.747 168.271,71.585 169.737,71.272 C171.222,70.956 172.645,70.527 174.033,70.0839999999999 C176.607,69.263 190.798,66.064 195.095,64.0119999999999 C195.625,63.759 200.526,58.2859999999999 202.331,55.832 C203.497,54.246 207.282,45.164 206.613,42.187 C206.497,41.678 207.864,38.284 207.9,37.09 C207.957,35.2140000000001 207.899,33.336 207.995,31.46 Z "/>
<path stroke="rgb( 255, 255, 255 )" stroke-width="1px" stroke-dasharray="4, 2" stroke-linecap="butt" stroke-linejoin="miter" opacity="0.8" fill="none"
 d="M204.112,32.428 C204.286,29.226 203.006,26.155 201.74,23.049 C200.812,20.771 199.154,18.643 198.12,16.49 C196.174,15.191 190.26,10.865 185.556,9.71600000000001 C182.148,8.95799999999997 172.478,6.64700000000005 167.218,6.12 C162.098,5.60599999999999 157.092,4.91300000000001 151.831,5.00099999999998 C149.097,5.04700000000003 139.612,4.94100000000003 137.576,4.59100000000001 C135.703,4.26900000000001 127.819,5.03399999999999 125.608,4.73400000000004 C123.777,4.48500000000001 106.411,5.03899999999999 99.7940000000001,5.06500000000005 C98.4280000000001,5.07000000000005 85.0150000000001,5.71500000000003 79.6400000000001,5.76499999999999 C77.818,5.78300000000002 65.2249999999999,6.46000000000004 60.702,6.5 C58.894,6.51700000000005 50.3030000000001,7.01800000000003 47.9780000000001,7.40200000000004 C45.308,7.84299999999996 36.1099999999999,9.34400000000005 33.865,9.55200000000002 C30.8499999999999,9.83000000000004 21.5239999999999,13.284 19.2439999999999,13.85 C16.866,14.4400000000001 12.9280000000001,17.447 12.3219999999999,17.795 C8.49099999999999,19.998 4.08799999999997,26.676 3.99900000000002,27.271 C3.54199999999992,30.284 5.11899999999991,43.353 5.13799999999992,43.967 C5.19100000000003,45.687 5.42699999999991,50.6 5.76299999999992,51.299 C6.88799999999992,53.648 7.34400000000005,56.093 9.22700000000009,58.333 C9.58300000000008,61.549 13.915,63.553 17.4159999999999,65.7140000000001 C20.0429999999999,67.336 29.0260000000001,70 30.106,70.167 C36.0070000000001,71.077 41.9670000000001,71.626 48.1500000000001,71.581 C58.1859999999999,71.509 46.8299999999999,71.226 52.059,71.2329999999999 C53.009,71.234 54.0550000000001,71.13 54.8879999999999,71.307 C56.6289999999999,71.679 126.105,71.576 127.868,71.598 C129.886,71.624 131.907,71.604 133.692,71.604 C136.131,72.097 137.508,71.079 139.365,71.937 C139.715,72.099 140.189,72.182 140.605,72.303 C144.564,73.449 148.278,74.805 151.95,76.1950000000001 C153.205,76.671 154.439,77.165 155.632,77.6849999999999 C156.563,78.091 157.763,78.141 158.745,78.551 C161.249,79.598 163.948,80.506 166.656,81.502 C167.957,81.454 168.641,80.9400000000001 169.354,80.325 C169.282,80.002 169.319,79.602 169.091,79.253 C168.346,78.111 167.684,76.956 166.768,75.841 C165.864,74.744 165.688,73.505 164.642,72.409 C163.8,71.524 163.257,70.556 162.547,69.579 C164.114,69.356 165.627,69.208 167.045,68.921 C168.481,68.631 169.857,68.2380000000001 171.2,67.832 C173.69,67.079 187.479,64.147 191.634,62.266 C192.147,62.034 196.887,57.018 198.633,54.768 C199.76,53.314 203.421,44.99 202.774,42.261 C202.663,41.794 203.984,38.683 204.019,37.588 C204.075,35.869 204.019,34.147 204.112,32.428 Z "/>
</svg>
