<?xml version="1.0" encoding="utf-8"?>
<!-- Generator: Adobe Illustrator 18.1.1, SVG Export Plug-In . SVG Version: 6.00 Build 0)  -->
<svg version="1.1" id="Layer_2" xmlns="http://www.w3.org/2000/svg" xmlns:xlink="http://www.w3.org/1999/xlink" x="0px" y="0px"
	 viewBox="0 0 1013 162.499" enable-background="new 0 0 1013 162.499" xml:space="preserve">
<pattern  x="-4557" y="2548" width="31.188" height="31.188" patternUnits="userSpaceOnUse" id="New_Pattern_Swatch_11" viewBox="0 -31.189 31.188 31.188" overflow="visible">
	<g>
		<polygon fill="none" points="0,-31.189 31.189,-31.189 31.189,0 0,0 		"/>
		<g>
			<defs>
				<rect id="SVGID_1_" x="0" y="-31.189" width="31.188" height="31.188"/>
			</defs>
			<defs>
				<rect id="SVGID_2_" x="0" y="-31.189" width="31.188" height="31.188"/>
			</defs>
			<use xlink:href="#SVGID_1_"  overflow="visible" fill="#FFFFFF"/>
			<clipPath id="SVGID_3_">
				<use xlink:href="#SVGID_1_"  overflow="visible"/>
			</clipPath>
			<clipPath id="SVGID_4_" clip-path="url(#SVGID_3_)">
				<use xlink:href="#SVGID_2_"  overflow="visible"/>
			</clipPath>
			<g clip-path="url(#SVGID_4_)">
				<polygon fill="#CCCCCC" points="14.108,-31.189 13.57,-31.189 13.57,0 14.108,0 				"/>
				<polygon fill="#444444" points="16.319,-31.189 14.379,-31.189 14.379,0 16.319,0 				"/>
				<polygon fill="#444444" points="30.406,-31.189 28.463,-31.189 28.463,0 30.406,0 				"/>
				<polygon fill="#444444" points="27.842,-31.189 27.682,-31.189 27.682,0 27.842,0 				"/>
				<polygon fill="#444444" points="31.189,-31.189 31.025,-31.189 31.025,0 31.189,0 				"/>
				<polygon fill="#B2B1B1" points="17.859,-31.189 16.319,-31.189 16.319,0 17.859,0 				"/>
				<polygon fill="#777677" points="21.529,-31.189 17.859,-31.189 17.859,0 21.529,0 				"/>
				<polygon fill="#CCCCCC" points="27.682,-31.189 21.529,-31.189 21.529,0 27.682,0 				"/>
				<polygon fill="#CCCCCC" points="6.152,-31.189 0,-31.189 0,0 6.152,0 				"/>
				<polygon fill="#777677" points="9.819,-31.189 6.152,-31.189 6.152,0 9.819,0 				"/>
				<polygon fill="#B2B1B1" points="11.356,-31.189 9.819,-31.189 9.819,0 11.356,0 				"/>
				<polygon fill="#444444" points="13.3,-31.189 11.356,-31.189 11.356,0 13.3,0 				"/>
				<polygon fill="#B2B1B1" points="13.57,-31.189 13.3,-31.189 13.3,0 13.57,0 				"/>
				<polygon fill="#B2B1B1" points="14.379,-31.189 14.108,-31.189 14.108,0 14.379,0 				"/>
				<polygon fill="#CCCCCC" points="27.842,-31.189 28.463,-31.189 28.463,0 27.842,0 				"/>
				<polygon fill="#CCCCCC" points="30.406,-31.189 31.025,-31.189 31.025,0 30.406,0 				"/>
			</g>
			<g opacity="0.5" clip-path="url(#SVGID_4_)">
				<polygon fill="#CCCCCC" points="31.189,-17.078 31.189,-17.619 0,-17.619 0,-17.078 				"/>
				<polygon fill="#444444" points="31.189,-14.867 31.189,-16.809 0,-16.809 0,-14.867 				"/>
				<polygon fill="#444444" points="31.189,-0.782 31.189,-2.726 0,-2.726 0,-0.782 				"/>
				<polygon fill="#444444" points="31.189,-3.346 31.189,-3.507 0,-3.507 0,-3.346 				"/>
				<polygon fill="#444444" points="31.189,0 31.189,-0.163 0,-0.163 0,0 				"/>
				<polygon fill="#F4F0E9" points="31.189,-13.329 31.189,-14.867 0,-14.867 0,-13.329 				"/>
				<polygon fill="#2B1F22" points="31.189,-9.66 31.189,-13.329 0,-13.329 0,-9.66 				"/>
				<polygon fill="#CCCCCC" points="31.189,-3.507 31.189,-9.66 0,-9.66 0,-3.507 				"/>
				<polygon fill="#2B1F22" points="31.189,-21.37 31.189,-25.039 0,-25.039 0,-21.37 				"/>
				<polygon fill="#F4F0E9" points="31.189,-19.83 31.189,-21.37 0,-21.37 0,-19.83 				"/>
				<polygon fill="#444444" points="31.189,-17.888 31.189,-19.83 0,-19.83 0,-17.888 				"/>
				<polygon fill="#CCCCCC" points="31.333,-24.989 31.333,-31.141 0.145,-31.141 0.145,-24.989 				"/>
				<polygon fill="#F4F0E9" points="31.189,-17.619 31.189,-17.888 0,-17.888 0,-17.619 				"/>
				<polygon fill="#F4F0E9" points="31.189,-16.809 31.189,-17.078 0,-17.078 0,-16.809 				"/>
				<polygon fill="#CCCCCC" points="31.189,-3.346 31.189,-2.726 0,-2.726 0,-3.346 				"/>
				<polygon fill="#CCCCCC" points="31.189,-0.782 31.189,-0.163 0,-0.163 0,-0.782 				"/>
			</g>
		</g>
	</g>
</pattern>
<g>
	<path fill="#FBFAFF" d="M499.573,248.371c-0.17-1.133-0.908-0.247-2.553-1.258c-4.231-2.606-10.985-5.136-15.511-8.113
		c-2.826,0.1-5.595-0.129-8.426-0.306c-1.792-0.109-4.484-0.549-6.164-0.991c-1.194,5.703,0.995,8.786,6.9,10.253
		c6.584,1.636,12.96,7.546,19.788,7.724C497.485,255.781,500.33,253.42,499.573,248.371z"/>
	<path fill="#A965A5" d="M497.035,244.802c-0.105-0.07-0.19-0.142-0.301-0.211c-6.677-4.11-19.637-8.033-20.21-13.821
		c-0.573-5.793-8.964,0.373-8.964,0.373c-1.306,7.945-1.585,12.413,5.972,14.291c4.433,1.103,8.775,4.136,13.221,6.058
		C488.28,247.164,492.729,245.435,497.035,244.802z"/>
	<path fill="#A965A5" d="M497.035,244.802c-4.306,0.633-8.755,2.363-10.281,6.69c2.156,0.933,4.337,1.608,6.567,1.666
		C498.643,253.296,502.329,248.34,497.035,244.802z"/>
	<path fill="#FBFAFF" d="M493.537,252.539l-0.199-0.005c-1.742-0.043-3.589-0.484-5.772-1.378c1.325-3.023,4.451-4.937,9.311-5.702
		c1.71,1.217,2.412,2.641,1.969,4.039C498.29,251.258,496.06,252.539,493.537,252.539L493.537,252.539z"/>
	<ellipse fill="#FBFAFF" cx="470.808" cy="238.778" rx="1.811" ry="1.774"/>
	<g>
		<path fill="#FBFAFF" d="M477.347,237.78c0,0.463-0.383,0.838-0.855,0.838c-0.471,0-0.856-0.374-0.856-0.838
			c0-0.46,0.384-0.836,0.856-0.836C476.964,236.944,477.347,237.32,477.347,237.78z"/>
		<path fill="#FBFAFF" d="M480.165,239.909c0,0.463-0.383,0.838-0.855,0.838c-0.471,0-0.855-0.375-0.855-0.838
			c0-0.459,0.384-0.836,0.855-0.836C479.783,239.073,480.165,239.45,480.165,239.909z"/>
		<path fill="#FBFAFF" d="M482.984,242.039c0,0.463-0.383,0.838-0.855,0.838c-0.471,0-0.854-0.375-0.854-0.838
			c0-0.459,0.384-0.836,0.854-0.836C482.601,241.203,482.984,241.58,482.984,242.039z"/>
		<path fill="#FBFAFF" d="M485.802,244.169c0,0.463-0.383,0.838-0.855,0.838c-0.471,0-0.854-0.374-0.854-0.838
			c0-0.459,0.383-0.836,0.854-0.836C485.419,243.333,485.802,243.709,485.802,244.169z"/>
		<path fill="#FBFAFF" d="M488.621,246.299c0,0.463-0.383,0.838-0.856,0.838c-0.47,0-0.853-0.374-0.853-0.838
			c0-0.459,0.383-0.836,0.853-0.836C488.238,245.463,488.621,245.839,488.621,246.299z"/>
	</g>
	<g>
		<g>
			<path fill="#FFFFFF" d="M487.688,246.443c-0.205-0.111-0.275-0.364-0.163-0.561l0,0c1.171-2.052,3.223-2.86,4.909-2.854l0,0
				c0.336,0,0.665,0.03,0.977,0.094l0,0c0.225,0.049,0.371,0.267,0.321,0.489l0,0c-0.049,0.224-0.271,0.365-0.498,0.316l0,0
				c-0.247-0.051-0.515-0.078-0.8-0.075l0,0c-1.428,0.002-3.172,0.673-4.174,2.431l0,0l0.003,0.003
				c-0.08,0.134-0.224,0.209-0.369,0.209l0,0C487.822,246.495,487.752,246.479,487.688,246.443L487.688,246.443z"/>
		</g>
		<g>
			<path fill="#FFFFFF" d="M484.873,244.314c-0.201-0.116-0.267-0.37-0.147-0.564l0,0c1.08-1.792,2.906-2.526,4.476-2.521l0,0
				c0.306,0,0.608,0.026,0.895,0.082l0,0c0.231,0.044,0.374,0.262,0.331,0.484l0,0c-0.045,0.223-0.267,0.368-0.491,0.324l0,0
				c-0.232-0.046-0.481-0.067-0.735-0.067l0,0c-1.321,0.002-2.84,0.603-3.754,2.117l0,0l0.003,0.002
				c-0.08,0.129-0.22,0.201-0.362,0.201l0,0C485.013,244.372,484.939,244.354,484.873,244.314L484.873,244.314z"/>
		</g>
		<g>
			<path fill="#FFFFFF" d="M482.053,242.184c-0.195-0.124-0.252-0.38-0.127-0.569l0,0c0.989-1.526,2.589-2.189,4.049-2.186l0,0
				c0.27,0,0.545,0.021,0.813,0.07l0,0c0.229,0.044,0.378,0.257,0.336,0.481l0,0c-0.043,0.224-0.261,0.371-0.491,0.327l0,0
				c-0.21-0.036-0.431-0.054-0.658-0.054l0,0c-1.213,0.002-2.514,0.533-3.34,1.803l0,0h0.001c-0.078,0.125-0.217,0.191-0.357,0.191
				l0,0C482.202,242.248,482.124,242.228,482.053,242.184L482.053,242.184z"/>
		</g>
		<g>
			<path fill="#FFFFFF" d="M479.234,240.05c-0.192-0.132-0.237-0.387-0.107-0.576l0,0c0.902-1.256,2.272-1.849,3.624-1.845l0,0
				c0.237,0,0.479,0.016,0.727,0.057l0,0c0.227,0.038,0.379,0.252,0.342,0.478l0,0c-0.04,0.222-0.257,0.373-0.484,0.334l0,0
				c-0.194-0.033-0.386-0.045-0.585-0.044l0,0c-1.113,0.003-2.19,0.464-2.933,1.495l0,0l0.001,0.002
				c-0.081,0.114-0.212,0.175-0.346,0.175l0,0C479.39,240.126,479.306,240.101,479.234,240.05L479.234,240.05z"/>
		</g>
		<g>
			<path fill="#FFFFFF" d="M476.405,237.911c-0.182-0.144-0.21-0.404-0.063-0.581l0,0c0.801-0.978,1.937-1.502,3.188-1.5l0,0
				c0.202,0,0.414,0.012,0.634,0.048l0,0c0.232,0.033,0.386,0.242,0.352,0.464l0,0c-0.035,0.227-0.25,0.382-0.478,0.347l0,0
				c-0.171-0.024-0.341-0.034-0.509-0.034l0,0c-1.017,0.005-1.872,0.401-2.534,1.194l0,0c-0.083,0.102-0.204,0.154-0.327,0.154l0,0
				C476.576,238.002,476.482,237.973,476.405,237.911L476.405,237.911z"/>
		</g>
	</g>
</g>
<g>
	<path fill="#FBFAFF" d="M416.48,248.371c0.169-1.133,0.909-0.247,2.552-1.258c4.232-2.606,10.988-5.136,15.512-8.113
		c2.826,0.1,5.594-0.129,8.424-0.306c1.794-0.109,4.46-0.852,6.14-1.294c1.192,5.703-0.969,9.089-6.876,10.556
		c-6.58,1.636-12.962,7.546-19.786,7.724C418.566,255.781,415.726,253.42,416.48,248.371z"/>
	<path fill="#A965A5" d="M419.018,244.802c0.105-0.07,0.19-0.142,0.302-0.211c6.675-4.11,19.637-8.033,20.208-13.821
		c0.575-5.793,8.966,0.373,8.966,0.373c1.308,7.945,1.583,12.413-5.973,14.291c-4.432,1.103-8.773,4.136-13.221,6.058
		C427.774,247.164,423.323,245.435,419.018,244.802z"/>
	<path fill="#A965A5" d="M419.018,244.802c4.305,0.633,8.756,2.363,10.283,6.69c-2.157,0.933-4.339,1.608-6.568,1.666
		C417.411,253.296,413.723,248.34,419.018,244.802z"/>
	<path fill="#FBFAFF" d="M422.517,252.539l0.198-0.005c1.74-0.043,3.59-0.484,5.772-1.378c-1.323-3.023-4.451-4.937-9.312-5.702
		c-1.712,1.217-2.41,2.641-1.966,4.039C417.764,251.258,419.994,252.539,422.517,252.539L422.517,252.539z"/>
	<ellipse fill="#FBFAFF" cx="445.246" cy="238.778" rx="1.811" ry="1.774"/>
	<g>
		<path fill="#FBFAFF" d="M438.707,237.78c0,0.463,0.381,0.838,0.855,0.838c0.471,0,0.852-0.374,0.852-0.838
			c0-0.46-0.381-0.836-0.852-0.836C439.087,236.944,438.707,237.32,438.707,237.78z"/>
		<path fill="#FBFAFF" d="M435.888,239.909c0,0.463,0.381,0.838,0.854,0.838c0.472,0,0.852-0.375,0.852-0.838
			c0-0.459-0.381-0.836-0.852-0.836C436.269,239.073,435.888,239.45,435.888,239.909z"/>
		<path fill="#FBFAFF" d="M433.07,242.039c0,0.463,0.381,0.838,0.854,0.838c0.472,0,0.853-0.375,0.853-0.838
			c0-0.459-0.381-0.836-0.853-0.836C433.451,241.203,433.07,241.58,433.07,242.039z"/>
		<path fill="#FBFAFF" d="M430.251,244.169c0,0.463,0.381,0.838,0.854,0.838c0.472,0,0.853-0.374,0.853-0.838
			c0-0.459-0.381-0.836-0.853-0.836C430.632,243.333,430.251,243.709,430.251,244.169z"/>
		<path fill="#FBFAFF" d="M427.433,246.299c0,0.463,0.381,0.838,0.853,0.838c0.473,0,0.853-0.374,0.853-0.838
			c0-0.459-0.381-0.836-0.853-0.836C427.814,245.463,427.433,245.839,427.433,246.299z"/>
	</g>
	<g>
		<g>
			<path fill="#FFFFFF" d="M428.365,246.443c0.204-0.111,0.277-0.364,0.164-0.561l0,0c-1.173-2.052-3.223-2.86-4.909-2.854l0,0
				c-0.339,0-0.667,0.03-0.977,0.094l0,0c-0.228,0.049-0.371,0.267-0.321,0.489l0,0c0.046,0.224,0.27,0.365,0.498,0.316l0,0
				c0.244-0.051,0.514-0.078,0.8-0.075l0,0c1.428,0.002,3.17,0.673,4.173,2.431l0,0l-0.003,0.003
				c0.076,0.134,0.222,0.209,0.369,0.209l0,0C428.228,246.495,428.3,246.479,428.365,246.443L428.365,246.443z"/>
		</g>
		<g>
			<path fill="#FFFFFF" d="M431.181,244.314c0.2-0.116,0.267-0.37,0.149-0.564l0,0c-1.081-1.792-2.908-2.526-4.477-2.521l0,0
				c-0.309,0-0.61,0.026-0.897,0.082l0,0c-0.23,0.044-0.376,0.262-0.33,0.484l0,0c0.043,0.223,0.267,0.368,0.493,0.324l0,0
				c0.232-0.046,0.476-0.067,0.734-0.067l0,0c1.318,0.002,2.837,0.603,3.751,2.117l0,0l-0.001,0.002
				c0.079,0.129,0.218,0.201,0.364,0.201l0,0C431.039,244.372,431.112,244.354,431.181,244.314L431.181,244.314z"/>
		</g>
		<g>
			<path fill="#FFFFFF" d="M434,242.184c0.197-0.124,0.251-0.38,0.127-0.569l0,0c-0.988-1.526-2.589-2.189-4.048-2.186l0,0
				c-0.272,0-0.546,0.021-0.815,0.07l0,0c-0.229,0.044-0.378,0.257-0.334,0.481l0,0c0.042,0.224,0.262,0.371,0.491,0.327l0,0
				c0.209-0.036,0.431-0.054,0.658-0.054l0,0c1.213,0.002,2.512,0.533,3.34,1.803l0,0h-0.003c0.082,0.125,0.221,0.191,0.358,0.191
				l0,0C433.853,242.248,433.93,242.228,434,242.184L434,242.184z"/>
		</g>
		<g>
			<path fill="#FFFFFF" d="M436.821,240.05c0.189-0.132,0.235-0.387,0.102-0.576l0,0c-0.897-1.256-2.268-1.849-3.622-1.845l0,0
				c-0.235,0-0.479,0.016-0.726,0.057l0,0c-0.227,0.038-0.379,0.252-0.342,0.478l0,0c0.041,0.222,0.257,0.373,0.488,0.334l0,0
				c0.188-0.033,0.382-0.045,0.581-0.044l0,0c1.114,0.003,2.193,0.464,2.934,1.495l0,0l-0.003,0.002
				c0.084,0.114,0.215,0.175,0.347,0.175l0,0C436.663,240.126,436.746,240.101,436.821,240.05L436.821,240.05z"/>
		</g>
		<g>
			<path fill="#FFFFFF" d="M439.648,237.911c0.18-0.144,0.21-0.404,0.064-0.581l0,0c-0.803-0.979-1.939-1.502-3.188-1.5l0,0
				c-0.204,0-0.416,0.012-0.636,0.048l0,0c-0.231,0.033-0.384,0.242-0.351,0.464l0,0c0.033,0.227,0.247,0.382,0.478,0.347l0,0
				c0.17-0.024,0.339-0.034,0.509-0.034l0,0c1.015,0.005,1.872,0.401,2.534,1.194l0,0c0.083,0.102,0.204,0.154,0.327,0.154l0,0
				C439.478,238.002,439.571,237.973,439.648,237.911L439.648,237.911z"/>
		</g>
	</g>
</g>
<path fill="#DDB98E" d="M473.995,80.082c-4.032-2.264-8.678-3.568-13.472-3.568h-4.599c-5.138,0-10.108,1.5-14.33,4.074
	l17.761,25.243L473.995,80.082z"/>
<pattern  id="SVGID_5_" xlink:href="#New_Pattern_Swatch_11" patternTransform="matrix(5.309 0 0 5.309 -3553.8206 58184.75)">
</pattern>
<path fill="url(#SVGID_5_)" d="M473.995,80.082l-14.64,25.748l2.805,3.989l-2.805-3.989l-3.321,5.834l3.321-5.834l-17.761-25.243
	c-7.161,4.362-12.167,11.801-12.167,20.249v53.146h57.593v-53.146C487.02,92.053,481.61,84.355,473.995,80.082z"/>
<pattern  id="SVGID_6_" xlink:href="#New_Pattern_Swatch_11" patternTransform="matrix(5.309 0 0 5.309 -3553.8206 58184.75)">
</pattern>
<polygon fill="url(#SVGID_6_)" points="441.746,79.058 437.036,83.979 448.97,107.051 454.622,98.438 "/>
<pattern  id="SVGID_7_" xlink:href="#New_Pattern_Swatch_11" patternTransform="matrix(5.309 0 0 5.309 -3553.8206 58184.75)">
</pattern>
<polygon fill="url(#SVGID_7_)" points="474.269,79.449 480.099,84.475 468.754,107.051 463.191,99.21 "/>
<pattern  id="SVGID_8_" xlink:href="#New_Pattern_Swatch_11" patternTransform="matrix(5.309 0 0 5.309 -3553.8206 58184.75)">
</pattern>
<polygon fill="url(#SVGID_8_)" points="441.746,79.058 437.036,83.979 448.97,107.051 454.622,98.438 "/>
<pattern  id="SVGID_9_" xlink:href="#New_Pattern_Swatch_11" patternTransform="matrix(5.309 0 0 5.309 -3553.8206 58184.75)">
</pattern>
<polygon fill="url(#SVGID_9_)" points="474.269,79.449 480.099,84.475 468.754,107.051 463.191,99.21 "/>
<g>
	<g>
		<polygon fill="#36162D" points="487.014,152.135 429.421,151.347 429.796,156.886 486.681,156.886 		"/>
		<path fill="#F99C1E" d="M429.796,156.886l3.394,71.88h19.263l1.884-37.227c0-2.099,1.737-3.801,3.878-3.801
			c2.145,0,3.881,1.702,3.881,3.801l1.884,37.227h19.263l3.437-71.88H429.796z"/>
	</g>
</g>
<ellipse fill="#DDB98E" cx="458.704" cy="49.031" rx="31.262" ry="30.626"/>
<g>
	<g>
		<path fill="#36162D" d="M448.606,51.334c-0.723-1.816-2.362-2.671-4.132-2.684l0,0c-1.749,0.002-3.52,0.88-4.407,2.563l0,0h0
			c-0.189,0.357-0.639,0.497-1.003,0.312l0,0c-0.365-0.185-0.508-0.625-0.319-0.983l0,0c1.175-2.217,3.486-3.352,5.729-3.35l0,0
			c2.264-0.013,4.568,1.188,5.52,3.616l0,0c0.148,0.376-0.042,0.798-0.425,0.943l0,0c-0.088,0.034-0.179,0.05-0.269,0.05l0,0
			C449.001,51.8,448.72,51.623,448.606,51.334L448.606,51.334z"/>
	</g>
</g>
<g>
	<path fill="#36162D" d="M475.836,51.334c-0.724-1.817-2.362-2.671-4.131-2.684l0,0c-1.748,0.002-3.517,0.88-4.404,2.563l0,0
		c-0.189,0.358-0.638,0.498-1.003,0.313l0,0c-0.365-0.185-0.508-0.626-0.319-0.983l0,0c1.173-2.217,3.483-3.353,5.726-3.351l0,0
		c2.263-0.012,4.567,1.188,5.52,3.616l0,0c0.148,0.376-0.042,0.798-0.425,0.943l0,0c-0.088,0.033-0.179,0.049-0.268,0.049l0,0
		C476.232,51.801,475.95,51.623,475.836,51.334L475.836,51.334z"/>
</g>
<g>
	<g>
		<path fill="#553305" d="M434.622,46.448l2.169,1.785c0.157,0.128,0.391,0.108,0.524-0.044c0.13-0.155,0.111-0.386-0.046-0.517
			l-2.168-1.783c-0.158-0.128-0.392-0.108-0.526,0.046C434.443,46.088,434.466,46.318,434.622,46.448L434.622,46.448z"/>
		<path fill="#553305" d="M435.612,45.294l1.84,2.107c0.136,0.154,0.369,0.172,0.526,0.041c0.155-0.131,0.173-0.362,0.042-0.515
			l-1.842-2.107c-0.133-0.152-0.367-0.17-0.525-0.039C435.499,44.911,435.478,45.142,435.612,45.294L435.612,45.294z"/>
		<path fill="#553305" d="M436.806,44.444l1.56,2.317c0.113,0.167,0.344,0.215,0.514,0.103c0.173-0.111,0.221-0.337,0.106-0.505
			l-1.56-2.313c-0.112-0.17-0.342-0.216-0.515-0.105C436.741,44.049,436.693,44.276,436.806,44.444L436.806,44.444z"/>
		<path fill="#553305" d="M438.034,43.648l1.264,2.484c0.092,0.18,0.316,0.252,0.5,0.165c0.183-0.091,0.257-0.311,0.167-0.491
			l-1.266-2.482c-0.09-0.18-0.312-0.254-0.498-0.164C438.017,43.251,437.943,43.467,438.034,43.648L438.034,43.648z"/>
		<path fill="#553305" d="M439.37,43.091l0.989,2.598c0.07,0.19,0.284,0.285,0.478,0.214c0.192-0.069,0.29-0.28,0.217-0.468
			l-0.987-2.601c-0.072-0.188-0.287-0.283-0.48-0.213C439.393,42.691,439.298,42.901,439.37,43.091L439.37,43.091z"/>
		<path fill="#553305" d="M440.726,42.595l0.705,2.69c0.05,0.193,0.252,0.311,0.451,0.26c0.2-0.048,0.321-0.247,0.269-0.443
			l-0.703-2.688c-0.05-0.193-0.254-0.312-0.454-0.261C440.796,42.202,440.676,42.4,440.726,42.595L440.726,42.595z"/>
		<path fill="#553305" d="M442.15,42.313l0.408,2.744c0.03,0.201,0.219,0.337,0.423,0.309c0.203-0.028,0.344-0.214,0.314-0.414
			l-0.408-2.746c-0.03-0.198-0.22-0.337-0.422-0.308C442.262,41.929,442.12,42.114,442.15,42.313L442.15,42.313z"/>
		<path fill="#553305" d="M443.588,42.112l0.101,2.773c0.006,0.199,0.178,0.358,0.384,0.35c0.207-0.008,0.367-0.176,0.361-0.378
			l-0.101-2.771c-0.006-0.203-0.18-0.359-0.386-0.352C443.742,41.739,443.582,41.909,443.588,42.112L443.588,42.112z"/>
		<path fill="#553305" d="M445.061,42.135l-0.242,2.763c-0.019,0.202,0.136,0.378,0.339,0.395c0.204,0.018,0.384-0.131,0.403-0.331
			l0.243-2.765c0.016-0.201-0.136-0.377-0.34-0.396C445.259,41.785,445.078,41.934,445.061,42.135L445.061,42.135z"/>
		<path fill="#553305" d="M446.531,42.274l-0.601,2.711c-0.044,0.196,0.086,0.391,0.285,0.434c0.2,0.041,0.399-0.084,0.443-0.28
			l0.601-2.713c0.042-0.196-0.087-0.389-0.285-0.434C446.771,41.95,446.575,42.076,446.531,42.274L446.531,42.274z"/>
		<path fill="#553305" d="M447.986,42.665l-0.997,2.596c-0.072,0.187,0.026,0.399,0.217,0.47c0.194,0.071,0.408-0.024,0.481-0.213
			l0.995-2.598c0.073-0.188-0.025-0.398-0.217-0.47C448.273,42.381,448.058,42.477,447.986,42.665L447.986,42.665z"/>
		<path fill="#553305" d="M449.382,43.217l-1.387,2.419c-0.101,0.176-0.038,0.396,0.143,0.496c0.177,0.098,0.404,0.036,0.504-0.139
			l1.389-2.418c0.098-0.177,0.035-0.399-0.143-0.499C449.711,42.979,449.482,43.042,449.382,43.217L449.382,43.217z"/>
		<path fill="#553305" d="M450.68,44.03l-1.78,2.159c-0.127,0.157-0.102,0.386,0.056,0.512c0.16,0.126,0.394,0.104,0.525-0.055
			l1.777-2.158c0.128-0.157,0.103-0.388-0.057-0.514C451.04,43.848,450.808,43.871,450.68,44.03L450.68,44.03z"/>
		<path fill="#553305" d="M451.824,44.998l-2.108,1.852c-0.152,0.136-0.165,0.365-0.029,0.514c0.138,0.152,0.373,0.165,0.528,0.03
			l2.106-1.852c0.152-0.136,0.165-0.365,0.028-0.515C452.213,44.877,451.977,44.864,451.824,44.998L451.824,44.998z"/>
		<path fill="#553305" d="M452.769,46.171l-2.381,1.505c-0.172,0.11-0.22,0.335-0.112,0.504c0.114,0.169,0.343,0.218,0.515,0.11
			l2.38-1.507c0.174-0.108,0.224-0.335,0.11-0.504C453.172,46.109,452.941,46.063,452.769,46.171L452.769,46.171z"/>
		<path fill="#553305" d="M461.853,46.448l2.168,1.785c0.157,0.128,0.392,0.108,0.524-0.044c0.132-0.155,0.112-0.386-0.045-0.517
			l-2.169-1.783c-0.157-0.128-0.391-0.108-0.525,0.046C461.674,46.088,461.693,46.318,461.853,46.448L461.853,46.448z"/>
		<path fill="#553305" d="M462.842,45.294l1.844,2.107c0.132,0.154,0.368,0.172,0.523,0.041c0.158-0.131,0.175-0.362,0.042-0.515
			l-1.841-2.107c-0.133-0.152-0.368-0.17-0.526-0.039C462.728,44.911,462.708,45.142,462.842,45.294L462.842,45.294z"/>
		<path fill="#553305" d="M464.037,44.444l1.56,2.317c0.112,0.167,0.345,0.213,0.515,0.103c0.172-0.111,0.219-0.337,0.107-0.507
			l-1.56-2.312c-0.114-0.17-0.346-0.216-0.516-0.105C463.971,44.049,463.924,44.276,464.037,44.444L464.037,44.444z"/>
		<path fill="#553305" d="M465.265,43.648l1.264,2.484c0.091,0.18,0.315,0.252,0.498,0.165c0.184-0.091,0.26-0.311,0.168-0.491
			l-1.266-2.482c-0.09-0.18-0.312-0.254-0.498-0.164C465.246,43.251,465.173,43.467,465.265,43.648L465.265,43.648z"/>
		<path fill="#553305" d="M466.6,43.091l0.987,2.598c0.073,0.19,0.286,0.285,0.478,0.214c0.194-0.069,0.293-0.28,0.22-0.468
			l-0.99-2.601c-0.07-0.188-0.284-0.283-0.476-0.213C466.626,42.691,466.526,42.901,466.6,43.091L466.6,43.091z"/>
		<path fill="#553305" d="M467.957,42.595l0.704,2.69c0.05,0.193,0.254,0.311,0.451,0.26c0.2-0.048,0.321-0.247,0.271-0.443
			l-0.705-2.688c-0.05-0.193-0.252-0.312-0.451-0.261C468.025,42.202,467.906,42.4,467.957,42.595L467.957,42.595z"/>
		<path fill="#553305" d="M469.379,42.313l0.411,2.744c0.027,0.201,0.219,0.337,0.421,0.309c0.203-0.028,0.343-0.214,0.314-0.414
			l-0.406-2.746c-0.032-0.198-0.221-0.337-0.424-0.308C469.49,41.929,469.35,42.114,469.379,42.313L469.379,42.313z"/>
		<path fill="#553305" d="M470.818,42.112l0.1,2.773c0.006,0.199,0.18,0.358,0.386,0.35c0.206-0.008,0.366-0.176,0.357-0.378
			l-0.098-2.771c-0.01-0.203-0.181-0.359-0.386-0.352C470.972,41.739,470.812,41.909,470.818,42.112L470.818,42.112z"/>
		<path fill="#553305" d="M472.291,42.135l-0.242,2.763c-0.015,0.202,0.133,0.378,0.339,0.395c0.204,0.018,0.386-0.131,0.403-0.331
			l0.242-2.765c0.018-0.201-0.134-0.377-0.338-0.396C472.488,41.785,472.308,41.934,472.291,42.135L472.291,42.135z"/>
		<path fill="#553305" d="M473.761,42.274l-0.601,2.711c-0.044,0.196,0.085,0.391,0.285,0.434c0.203,0.042,0.399-0.082,0.443-0.28
			l0.601-2.713c0.042-0.195-0.085-0.389-0.285-0.434C474.001,41.952,473.805,42.076,473.761,42.274L473.761,42.274z"/>
		<path fill="#553305" d="M475.215,42.665l-0.997,2.596c-0.073,0.19,0.025,0.399,0.217,0.47c0.194,0.071,0.408-0.024,0.48-0.213
			l0.997-2.598c0.073-0.188-0.025-0.398-0.217-0.47C475.501,42.381,475.288,42.477,475.215,42.665L475.215,42.665z"/>
		<path fill="#553305" d="M476.612,43.217l-1.388,2.419c-0.101,0.176-0.036,0.396,0.142,0.496c0.179,0.098,0.406,0.036,0.506-0.139
			l1.388-2.418c0.102-0.175,0.038-0.398-0.14-0.499C476.939,42.979,476.714,43.042,476.612,43.217L476.612,43.217z"/>
		<path fill="#553305" d="M477.908,44.03l-1.779,2.159c-0.127,0.157-0.103,0.386,0.056,0.512c0.16,0.126,0.394,0.104,0.525-0.055
			l1.777-2.158c0.13-0.157,0.103-0.388-0.056-0.514C478.27,43.848,478.036,43.871,477.908,44.03L477.908,44.03z"/>
		<path fill="#553305" d="M479.054,44.998l-2.106,1.852c-0.155,0.136-0.168,0.365-0.031,0.514c0.138,0.152,0.372,0.165,0.525,0.03
			l2.107-1.852c0.156-0.136,0.168-0.365,0.031-0.515C479.443,44.877,479.206,44.864,479.054,44.998L479.054,44.998z"/>
		<path fill="#553305" d="M479.997,46.171l-2.378,1.507c-0.173,0.108-0.224,0.333-0.11,0.504c0.11,0.167,0.341,0.219,0.514,0.108
			l2.378-1.507c0.17-0.108,0.22-0.335,0.111-0.504C480.401,46.109,480.17,46.063,479.997,46.171L479.997,46.171z"/>
	</g>
</g>
<ellipse fill="#DDB98E" cx="457.624" cy="57.858" rx="4.825" ry="4.437"/>
<path fill="#553305" d="M489.789,26.247c-6.071-10.893-26.522-19.837-38.777-15.641c-4.656,1.597-6.328,6.019-10.163,7.874
	c-3.494,1.693-7.718-0.522-10.994,1.919c-6.576,4.897-4.402,18.525-3.526,25.318c0.203,1.587,0.724,5.666,1.291,7.121
	c0.279-0.35,2.303,0.804,2.065-0.931c-1.357-9.975,5.898-19.919,12.042-27.113c3.781,5.771,11.085,10.096,17.783,11.637
	c5.011,1.155,21.254,5.555,19.764,15.498c2.906-3.946,3.344-7.64,1.209-10.984c-0.065-0.057-0.07-0.057-0.008,0
	c5.309,3.185,8.958,13.563,5.482,19.087c0.048-0.042,0.094-0.087,0.137-0.131c1.983-3.4,4.243-6.794,5.696-10.453
	C494.731,42.058,493.68,33.227,489.789,26.247z"/>
<g>
	<path fill="#FFFFFF" d="M457.982,65.339c-4.012-0.116-8.515,0.946-8.515,0.946c0.615,3.635,4.105,6.426,8.338,6.426
		c4.232,0,7.723-2.791,8.337-6.426C466.142,66.285,462.11,65.457,457.982,65.339z"/>
</g>
<path fill="#DDB98E" d="M489.222,48.069l-0.51,6.667C495.322,53.736,493.616,46.994,489.222,48.069z"/>
<path fill="#DDB98E" d="M428.581,54.756l-0.541-6.647C423.497,46.832,421.693,53.843,428.581,54.756z"/>
<polygon fill="#7992AD" points="431.299,225.609 432.482,234.967 454.252,234.514 453.882,226.666 "/>
<polygon fill="#7992AD" points="462.291,226.286 463.396,234.272 483.683,234.681 485.088,226.319 "/>
<g>
	<pattern  id="SVGID_10_" xlink:href="#New_Pattern_Swatch_11" patternTransform="matrix(5.309 0 0 5.309 -3553.8206 58184.75)">
	</pattern>
	<path fill="url(#SVGID_10_)" d="M418.203,127.091c-0.011-13.741,4.922-28.422,16.913-40.727l0,0v0.002l3.863,3.611
		c-11.008,11.32-15.424,24.57-15.436,37.114l0,0c-0.01,12.529,4.493,24.315,11.262,32.305l0,0l-4.115,3.334
		C423.059,153.685,418.216,140.839,418.203,127.091L418.203,127.091z"/>
</g>
<g>
	<pattern  id="SVGID_11_" xlink:href="#New_Pattern_Swatch_11" patternTransform="matrix(5.309 0 0 5.309 -3553.8206 58184.75)">
	</pattern>
	<path fill="url(#SVGID_11_)" d="M498.619,127.091c0.012-13.741-4.922-28.422-16.912-40.727l0,0v0.002l-3.865,3.611
		c11.008,11.32,15.424,24.57,15.434,37.114l0,0c0.014,12.529-4.491,24.315-11.262,32.305l0,0l4.115,3.334
		C493.764,153.685,498.608,140.839,498.619,127.091L498.619,127.091z"/>
</g>
<ellipse fill="#36162D" cx="459.229" cy="109.472" rx="1.224" ry="1.199"/>
<ellipse fill="#36162D" cx="459.229" cy="118.823" rx="1.224" ry="1.201"/>
<ellipse fill="#36162D" cx="459.229" cy="128.174" rx="1.224" ry="1.201"/>
<ellipse fill="#36162D" cx="459.229" cy="137.527" rx="1.224" ry="1.199"/>
<ellipse fill="#36162D" cx="459.229" cy="146.877" rx="1.224" ry="1.201"/>
<ellipse fill="#575757" cx="440.629" cy="121.294" rx="1.768" ry="1.731"/>
<ellipse fill="#575757" cx="476.12" cy="121.294" rx="1.768" ry="1.731"/>
<path fill="#FAB962" d="M433.935,175.037v17.795c5.013,0,9.079-3.988,9.079-8.896C443.013,179.02,438.947,175.037,433.935,175.037z"
	/>
<path fill="#FAB962" d="M482.716,175.037v17.795c-5.017,0-9.081-3.988-9.081-8.896C473.635,179.02,477.699,175.037,482.716,175.037z
	"/>
<g>
	<g>
		<path fill="#DDCB45" d="M573.673,165.082c2.567-6.55,4.048-14.288,4.046-22.323l0,0c0.001-9.09-1.887-18.546-6.113-27.171l0,0
			c-4.232-8.63-10.767-16.443-20.221-22.415l0,0l3.639-5.655c10.541,6.646,17.956,15.494,22.675,25.144l0,0
			c4.726,9.654,6.791,20.097,6.792,30.097l0,0c-0.002,8.846-1.612,17.356-4.504,24.747l0,0L573.673,165.082L573.673,165.082z
			 M551.385,93.174L551.385,93.174L551.385,93.174L551.385,93.174L551.385,93.174L551.385,93.174z"/>
	</g>
	<g>
		<path fill="#DDCB45" d="M509.587,150.389c0.156-2.683,0.298-6.717,0.795-11.514l0,0c0.499-4.803,1.355-10.393,2.96-16.303l0,0
			c3.201-11.805,9.447-24.973,21.829-35.406l0,0l4.39,5.106c-8.304,7.003-13.536,15.36-16.904,23.733l0,0
			c-3.364,8.367-4.83,16.73-5.537,23.555l0,0c-0.473,4.556-0.609,8.404-0.771,11.211l0,0L509.587,150.389L509.587,150.389z"/>
	</g>
	<g>
		<path fill="#DDB98E" d="M562.459,96.192c-2.468-8.162-8.469-13.926-15.485-13.926h-3.059c-7.073,0-13.119,5.861-15.545,14.13
			c-0.735,2.503-1.142,5.222-1.142,8.073v49.567c0,12.262,7.472,22.204,16.687,22.204h3.059c9.218,0,16.685-9.942,16.685-22.204
			V104.47C563.659,101.543,563.231,98.751,562.459,96.192z"/>
	</g>
	<g>
		<path fill="#36162D" d="M538.237,181.217v58.355c0,3.413-2.059,6.18-4.6,6.18c-2.543,0-4.602-2.767-4.602-6.18v-58.355H538.237z"
			/>
	</g>
	<g>
		<path fill="#36162D" d="M552.651,181.217v58.355c0,3.413,2.063,6.18,4.603,6.18c2.541,0,4.601-2.767,4.601-6.18v-58.355H552.651z"
			/>
	</g>
	<path fill="#563305" d="M539.082,11.746c-8.495,1.488-16.527,5.988-21.372,13.461c-4.443,6.853-7.603,15.141-8.896,23.41
		c-0.319,2.05-0.518,24.858,0.848,24.566c21.956-4.673,47.35-9.872,69.31-3.292c4.251-18.986,0.311-42.446-15.612-53.452
		C556.65,11.8,547.63,10.249,539.082,11.746z"/>
	<ellipse fill="#DDB98E" cx="545.747" cy="48.557" rx="30.707" ry="30.406"/>
	<path fill="#563305" d="M545.746,13.396c-15.591,0-28.458,13.579-30.436,31.165h42.716l-3.749-10.565l-2.392-3.47l2.392,3.47
		l-0.852-2.39l0.852,2.39l7.269,10.565h14.637C574.205,26.975,561.338,13.396,545.746,13.396z"/>
	<g>
		<path fill="#F0262B" d="M537.959,65.781c0.604,4.688,4.032,8.287,8.189,8.287c4.156,0,7.584-3.598,8.189-8.287H537.959z"/>
		<path fill="#FFFFFF" d="M537.959,65.687c0.604,3.61,4.032,6.383,8.189,6.383c4.156,0,7.584-2.773,8.189-6.383H537.959z"/>
		<path fill="#F0262B" d="M537.888,65.781c2.177-1.796,5.905-2.264,8.246-0.488c1.843-1.735,6.616-1.516,8.203,0.488H537.888z"/>
	</g>
	<g>
		<g>
			<path fill="#36162D" d="M526.695,53.566L526.695,53.566c-0.365-0.172-0.519-0.604-0.345-0.965l0,0
				c0.174-0.361,0.61-0.514,0.974-0.342l0,0l1.198,0.566c1.225-1.804,3.271-2.726,5.262-2.723l0,0
				c2.223-0.013,4.485,1.18,5.419,3.591l0,0c0.145,0.373-0.042,0.792-0.419,0.936l0,0c-0.377,0.144-0.8-0.042-0.945-0.415l0,0
				c-0.708-1.804-2.317-2.652-4.054-2.664l0,0c-1.717,0.002-3.456,0.874-4.325,2.546l0,0l-0.325,0.623L526.695,53.566
				L526.695,53.566z"/>
		</g>
	</g>
	<g>
		<g>
			<path fill="#36162D" d="M561.909,54.096c-0.87-1.671-2.608-2.544-4.326-2.546l0,0c-1.738,0.013-3.348,0.861-4.058,2.665l0,0
				c-0.146,0.373-0.569,0.558-0.946,0.414l0,0c-0.377-0.144-0.564-0.564-0.418-0.936l0,0c0.935-2.411,3.198-3.603,5.422-3.591l0,0
				c1.992-0.001,4.037,0.92,5.263,2.724l0,0l1.198-0.566c0.364-0.172,0.801-0.019,0.975,0.342l0,0
				c0.174,0.361,0.02,0.793-0.345,0.965l0,0l-2.44,1.153L561.909,54.096L561.909,54.096z"/>
		</g>
	</g>
	<g>
		<g>
			<g>
				<g>
					<path fill="#36162D" d="M533.951,60.936c-3.221-0.004-5.955-0.802-7.927-2.165l0,0c-1.97-1.354-3.174-3.32-3.17-5.502l0,0
						c-0.02-2.157,1.146-3.862,2.887-4.859l0,0c1.737-1.015,4.001-1.444,6.471-1.446l0,0c2.404,0.002,5.09,0.284,7.285,1.085l0,0
						c2.159,0.766,4.038,2.233,4.038,4.549l0,0c0,0.055,0,0.104,0,0.15l0,0l-0.882-0.016l0.882,0.031
						c-0.178,4.854-4.452,8.173-9.523,8.173l0,0C533.992,60.936,533.972,60.936,533.951,60.936L533.951,60.936z M526.667,49.824
						c-1.322,0.796-2.039,1.83-2.056,3.445l0,0c0.005,1.594,0.844,3.042,2.449,4.159l0,0c1.605,1.111,3.978,1.845,6.891,1.844l0,0
						c4.335-0.026,7.666-2.659,7.823-6.565l0,0l0,0c0-0.041,0.001-0.076,0.001-0.108l0,0c0.001-1.347-1.014-2.28-2.916-3.001l0,0
						c-1.862-0.687-4.397-0.974-6.648-0.972l0,0c-0.011,0-0.02,0-0.029,0l0,0C529.947,48.624,527.981,49.045,526.667,49.824
						L526.667,49.824z"/>
				</g>
				<path fill="#36162D" d="M535.005,47.274c-0.6-0.615-7.583-0.249-8.66-0.249l-2.247,0.239c-1.814,0-3.285,1.12-3.285,2.505
					c0,1.201,1.117,2.205,2.602,2.443C524.387,49.987,526.932,47.893,535.005,47.274z"/>
			</g>
			<g>
				<g>
					<path fill="#36162D" d="M548.197,52.763L548.197,52.763c-0.007-0.07-0.007-0.123-0.007-0.166l0,0
						c0.003-2.316,1.796-3.783,3.856-4.549l0,0c2.099-0.802,4.665-1.083,6.965-1.085l0,0c2.355,0.002,4.518,0.432,6.176,1.446l0,0
						c1.664,0.997,2.778,2.702,2.758,4.859l0,0c0.005,2.182-1.147,4.148-3.026,5.502l0,0c-1.885,1.363-4.496,2.161-7.57,2.165l0,0
						c-0.023,0-0.043,0-0.06,0l0,0C552.445,60.932,548.361,57.617,548.197,52.763L548.197,52.763z M557.35,59.271
						c2.782,0.002,5.048-0.732,6.577-1.844l0,0c1.537-1.117,2.337-2.565,2.339-4.159l0,0c-0.018-1.615-0.701-2.649-1.96-3.445l0,0
						c-1.263-0.78-3.15-1.201-5.295-1.2l0,0c-2.152-0.002-4.576,0.285-6.357,0.972l0,0c-1.815,0.721-2.782,1.654-2.782,3.001l0,0
						c0,0.046,0,0.069,0,0.083l0,0l-0.838,0.051l0.84-0.026C550.024,56.612,553.208,59.244,557.35,59.271L557.35,59.271z"/>
				</g>
				<path fill="#36162D" d="M556.344,47.274c0.569-0.615,7.237-0.249,8.271-0.249l2.146,0.239c1.734,0,3.137,1.12,3.137,2.505
					c0,1.201-1.067,2.205-2.487,2.443C566.484,49.987,564.048,47.893,556.344,47.274z"/>
			</g>
			<path fill="#36162D" d="M542.741,51.99c0.118,0.815-0.253,2.008-0.649,2.908c0.137-0.107,0.994,0.049,1.129-0.115
				c3.072-3.663,5.831,0.497,5.831,0.497l0.062-3.35L542.741,51.99z"/>
		</g>
	</g>
	<g>
		<path fill="#DDCB45" d="M544.822,126.224c-25.702,0-46.536,22.044-46.536,49.244c0,1.599,0.076,3.181,0.22,4.741
			c12.963,4.912,28.978,7.815,46.316,7.815c17.338,0,33.354-2.902,46.318-7.815c0.14-1.56,0.219-3.142,0.219-4.741
			C591.358,148.268,570.523,126.224,544.822,126.224z"/>
	</g>
	<g>
		<path fill="#FFFFFF" d="M554.992,100.649c3.207-0.528,4.913-4.66,5.651-8.887c-0.877-1.666-1.917-3.17-3.096-4.459
			c-1.966,4.762-5.351,7.313-9.009,7.915C549.569,98.589,552.027,101.139,554.992,100.649z"/>
		<path fill="#DDCB45" d="M563.659,104.47c0-2.927-0.428-5.719-1.2-8.278c-0.478-1.576-1.094-3.058-1.816-4.43
			c-0.738,4.227-2.443,8.359-5.651,8.887c-2.965,0.49-5.423-2.061-6.454-5.432c-1.784,0.294-3.632,0.116-5.413-0.488
			c-3.203,8.083-10.555,4.379-12.653-3.387c-0.854,1.546-1.569,3.237-2.102,5.053c-0.735,2.503-1.142,5.222-1.142,8.073v28.691
			h36.431V104.47z"/>
		<path fill="#FFFFFF" d="M543.125,94.73c-3.529-1.197-6.796-4.095-8.748-8.478c-1.505,1.398-2.819,3.126-3.906,5.092
			C532.57,99.108,539.922,102.812,543.125,94.73z"/>
	</g>
	<g>
		<rect x="527.228" y="123.977" fill="#36162D" width="36.431" height="5.759"/>
	</g>
	<path fill="#36162D" d="M547.474,100.876c0,0.673-0.55,1.219-1.233,1.219c-0.68,0-1.231-0.546-1.231-1.219
		c0-0.674,0.551-1.22,1.231-1.22C546.924,99.656,547.474,100.202,547.474,100.876z"/>
	<path fill="#36162D" d="M547.474,107.087c0,0.673-0.55,1.219-1.233,1.219c-0.68,0-1.231-0.546-1.231-1.219
		c0-0.673,0.551-1.22,1.231-1.22C546.924,105.867,547.474,106.414,547.474,107.087z"/>
	<path fill="#36162D" d="M547.474,113.295c0,0.674-0.55,1.222-1.233,1.222c-0.68,0-1.231-0.548-1.231-1.222
		c0-0.673,0.551-1.219,1.231-1.219C546.924,112.076,547.474,112.622,547.474,113.295z"/>
	<rect x="540.83" y="77.94" fill="#DDB98E" width="8.756" height="6.356"/>
	<g>
		<path fill="#36162D" d="M522.24,243.271c-0.363,0.431-1.519,1.701-1.203,2.307c0.292,0.558,2.814,0.726,3.344,0.631
			c3.49-0.788,6.919-1.872,9.33-2.61c-2.185-1.686-4.591-3.052-7.119-3.943C525.019,240.67,523.382,241.91,522.24,243.271z"/>
		<path fill="#36162D" d="M515.883,245.483c0.37-0.053,0.733-0.15,1.089-0.296c1.836-0.746,3.194-2.383,4.582-3.709
			c0.718-0.69,1.748-1.849,2.717-2.501c-0.375-0.086-0.758-0.136-1.137-0.202C519.956,240.293,517.45,242.674,515.883,245.483z"/>
		<path fill="#36162D" d="M538.237,238.979c-3.563-1.927-7.997-2.47-12.358-1.235c3.774,1.029,7.342,2.367,9.925,5.164
			c0.793-0.304,1.695-0.697,2.433-1.046V238.979z"/>
		<g>
			<path fill="#F0812B" d="M535.373,243.07c0.142-0.051,0.281-0.104,0.431-0.162c-2.583-2.797-6.151-4.135-9.925-5.164
				c-0.229,0.065-0.461,0.115-0.69,0.189c-0.715,0.236-1.395,0.527-2.055,0.842c0.379,0.067,0.762,0.116,1.137,0.202h0.004
				c-0.971,0.65-1.999,1.809-2.721,2.501c-1.388,1.326-2.746,2.963-4.582,3.709c-0.355,0.146-0.718,0.243-1.089,0.296
				c-0.288,0.516-0.549,1.045-0.774,1.587c0.607,0.083,0.607,0.083,0,0c-0.706,1.71-1.09,3.531-1.083,5.375l24.211-7.957v-2.626
				C537.358,242.276,536.248,242.755,535.373,243.07z M522.24,243.271c1.142-1.361,2.78-2.601,4.354-3.616
				c2.525,0.891,4.932,2.258,7.117,3.943c-2.412,0.74-5.84,1.823-9.332,2.61c-0.535,0.095-3.05-0.073-3.342-0.631
				C520.721,244.973,521.877,243.703,522.24,243.271z"/>
		</g>
	</g>
	<g>
		<path fill="#36162D" d="M568.65,243.271c0.361,0.431,1.517,1.701,1.2,2.307c-0.292,0.558-2.814,0.726-3.345,0.631
			c-3.488-0.788-6.918-1.872-9.326-2.61c2.184-1.686,4.591-3.052,7.116-3.943C565.87,240.67,567.51,241.91,568.65,243.271z"/>
		<path fill="#36162D" d="M575.005,245.483c-0.367-0.053-0.733-0.15-1.09-0.296c-1.834-0.746-3.189-2.383-4.577-3.709
			c-0.724-0.69-1.752-1.849-2.721-2.501c0.378-0.086,0.758-0.136,1.138-0.202C570.934,240.293,573.44,242.674,575.005,245.483z"/>
		<path fill="#36162D" d="M552.651,238.979c3.565-1.927,8-2.47,12.358-1.235c-3.774,1.029-7.34,2.367-9.924,5.164
			c-0.792-0.304-1.693-0.697-2.433-1.046V238.979z"/>
		<g>
			<path fill="#F0812B" d="M552.651,241.862v2.626l24.214,7.957c0.004-1.844-0.38-3.665-1.086-5.375c-0.603,0.083-0.603,0.083,0,0
				c-0.222-0.542-0.484-1.071-0.774-1.587c-0.367-0.053-0.733-0.15-1.09-0.296c-1.834-0.746-3.189-2.383-4.577-3.709
				c-0.724-0.692-1.753-1.851-2.724-2.501h0.003c0.378-0.086,0.758-0.136,1.138-0.202c-0.661-0.315-1.337-0.606-2.056-0.842
				c-0.227-0.074-0.459-0.123-0.69-0.189c-3.774,1.029-7.34,2.367-9.924,5.164c0.149,0.058,0.29,0.111,0.43,0.162
				C554.64,242.755,553.53,242.276,552.651,241.862z M569.851,245.578c-0.292,0.558-2.807,0.726-3.342,0.631
				c-3.49-0.788-6.917-1.871-9.329-2.61c2.184-1.686,4.591-3.052,7.116-3.943c1.574,1.015,3.214,2.254,4.354,3.616
				C569.011,243.703,570.167,244.973,569.851,245.578z"/>
		</g>
	</g>
</g>
<g>
	<g>
		<path fill="none" d="M714.759,111.386c0.014-0.047,0.025-0.095,0.042-0.141C714.784,111.292,714.773,111.339,714.759,111.386z"/>
		<path fill="none" d="M714.699,111.626c0.007-0.037,0.013-0.074,0.022-0.11C714.712,111.552,714.706,111.589,714.699,111.626z"/>
		<path fill="none" d="M714.658,111.854c0.003-0.021,0.005-0.041,0.007-0.062C714.662,111.813,714.661,111.834,714.658,111.854z"/>
		<path fill="none" d="M714.847,111.132c0.019-0.05,0.038-0.101,0.062-0.15C714.885,111.03,714.867,111.082,714.847,111.132z"/>
		<path fill="none" d="M714.621,112.932c0.277,0.001,0.555,0.003,0.833,0.004C715.176,112.935,714.899,112.933,714.621,112.932
			L714.621,112.932z"/>
		<path fill="none" d="M712.425,113.414c0.009-0.004,0.018-0.007,0.027-0.01C712.443,113.407,712.434,113.41,712.425,113.414z"/>
		<path fill="none" d="M714.631,112.095c0-0.007,0-0.013,0.001-0.021C714.631,112.081,714.631,112.088,714.631,112.095z"/>
		<path fill="none" d="M712.843,113.248c0.136-0.049,0.274-0.092,0.412-0.129C713.117,113.157,712.979,113.199,712.843,113.248z"/>
		<path fill="none" d="M713.758,115.201c-0.006,0.032-0.009,0.065-0.014,0.096C713.749,115.266,713.752,115.233,713.758,115.201z"/>
		<path fill="none" d="M713.88,114.784c0.233-0.619,0.651-1.181,0.736-1.845l0,0C714.531,113.602,714.113,114.165,713.88,114.784z"
			/>
		<path fill="none" d="M713.733,115.741c-0.004-0.043-0.01-0.087-0.011-0.129C713.724,115.654,713.729,115.697,713.733,115.741z"/>
		<path fill="none" d="M713.729,115.403c-0.003,0.036-0.002,0.073-0.003,0.109C713.727,115.476,713.727,115.439,713.729,115.403z"/>
		<path fill="none" d="M713.788,116.052c-0.021-0.076-0.037-0.151-0.047-0.225C713.752,115.901,713.768,115.976,713.788,116.052z"/>
		<path fill="none" d="M703.333,119.534c-0.006,0.173,0.006,0.352,0.044,0.538v-0.001
			C703.339,119.886,703.327,119.707,703.333,119.534z"/>
		<path fill="none" d="M713.805,115.005c-0.01,0.035-0.017,0.071-0.026,0.107C713.788,115.076,713.796,115.04,713.805,115.005z"/>
		<path fill="none" d="M714.616,112.938c-0.473-0.004-0.918,0.059-1.347,0.176C713.698,112.997,714.143,112.934,714.616,112.938
			L714.616,112.938z"/>
		<path fill="none" d="M713.869,114.813c-0.016,0.043-0.029,0.086-0.043,0.129C713.84,114.899,713.853,114.856,713.869,114.813z"/>
		<path fill="none" d="M713.651,97.484L713.651,97.484c-0.31,2.88-0.521,5.768-0.627,8.665
			C713.131,103.252,713.341,100.364,713.651,97.484z"/>
		<rect x="714.622" y="112.932" fill="#F5F5F5" width="0" height="0"/>
		<path fill="#F5F5F5" d="M700.022,113.066c0.535,1.166,0.36,2.288,0.012,3.434c1.802,1.1,1.523,3.206,2.074,4.912
			c0.002,0.144,0.006,0.287,0.014,0.431c0.275,0,0.55,0,0.825,0.001c0.143-0.591,0.286-1.181,0.429-1.772
			c-0.038-0.186-0.05-0.364-0.044-0.538c0.029-0.867,0.53-1.604,0.814-2.41c0.113-0.323,0.192-0.656,0.192-1.014
			c0-0.494,0.604-0.535,1.014-0.425c1.12,0.3,0.893,1.299,0.933,2.153c1.639-1.241,3.121-2.691,4.893-3.765
			c0.419-0.253,0.83-0.478,1.246-0.66c0.009-0.004,0.018-0.007,0.027-0.01c0.129-0.056,0.26-0.108,0.39-0.155
			c0.136-0.049,0.274-0.092,0.412-0.129c0.005-0.002,0.009-0.004,0.013-0.005c0.43-0.117,0.875-0.18,1.347-0.176l0.001-0.006
			c0.001,0,0.003,0,0.005,0c-0.011-0.283-0.014-0.563,0.009-0.837c0-0.007,0-0.013,0.001-0.021c0.006-0.074,0.016-0.146,0.026-0.22
			c0.003-0.021,0.005-0.041,0.007-0.062c0.009-0.056,0.022-0.111,0.034-0.167c0.007-0.037,0.013-0.074,0.022-0.11
			c0.01-0.044,0.026-0.087,0.038-0.13c0.014-0.047,0.025-0.095,0.042-0.141c0.013-0.038,0.031-0.076,0.047-0.113
			c0.019-0.05,0.038-0.101,0.062-0.15c0.041-0.087,0.087-0.173,0.139-0.258c0.962-1.753,2.523-3.044,3.325-4.92
			c-0.003-1.928-0.007-3.857-0.01-5.785c-0.025-0.088-0.045-0.178-0.068-0.265l-0.898-0.631l-3.611-1.782l-0.134,0.143
			c-0.31,2.88-0.521,5.768-0.627,8.665c-0.054,1.469-0.082,2.94-0.082,4.414c-0.001,0.55,0.16,1.318-0.661,1.36
			c-0.683,0.037-0.976-0.544-0.968-1.185c0.035-2.798-0.157-5.538-0.789-8.289c-0.151-0.66-0.255-1.379-0.203-2.088l-1.936,0.138
			c-0.288,1.919-0.162,3.936-0.401,5.86c-0.186,1.492-0.04,1.513-0.862,2.12c-0.526,2.318-3.104,3.191-3.457,5.694
			c-0.119,0.838-0.959,0.558-1.291,0.076c-0.814-1.188-1.785-2.595-0.491-3.933c2.106-2.177,2.601-4.868,2.937-7.611l-1.786,1.85
			c-0.376,1.521-1.065,2.904-2.144,4.091C699.692,109.961,699.246,111.376,700.022,113.066z"/>
		<path fill="#EAEAEB" d="M698.581,109.165l-0.629,0.651l-0.963,4.462c0.044-0.002,0.089-0.002,0.133-0.005
			C698.356,112.758,698.911,111.102,698.581,109.165z"/>
		<path fill="#F5F5F5" d="M707.76,120.807c-2.483,0.715-3.837,2.538-4.814,4.75l1.484,0.396c0.04-0.057,0.081-0.115,0.122-0.173
			C705.704,124.172,706.896,122.626,707.76,120.807z"/>
		<path fill="#EAEAEB" d="M714.296,126.253c-0.198-0.176-0.357-0.453-0.456-0.823c-0.476-1.773-0.149-3.541,0.416-5.316
			c0.423-1.329,1.114-2.905-0.468-4.061c-2.146,0.263-3.715,1.444-5.344,2.984c-1.463,1.383-3.636,1.905-5.496,2.808
			c-0.275-0.001-0.55-0.001-0.825-0.001c-0.185,1.128,0.207,2.368-0.029,3.485l0.852,0.228c0.977-2.212,2.331-4.035,4.814-4.75
			c-0.864,1.819-2.055,3.365-3.208,4.973c-0.041,0.058-0.082,0.115-0.122,0.173l5.189,1.388L714.296,126.253z"/>
		<path fill="#EAEAEB" d="M722.369,106.268c-0.778,1.058,1.008,2.165,0.201,3.516c-1.055,1.767-0.553,4.313-2.45,5.744
			c-0.319,0.241-0.34,0.935-0.498,1.42c1.573-0.427,2.544-2.773,4.621-1.576c-0.229,1.934-1.758,3.142-2.947,4.205
			c-2.09,1.867-3.517,4.276-5.38,6.3l0.092-0.021l9.776-6.009l-0.01-0.681c-0.292-1.1-0.507-2.215-0.6-3.338
			c-0.011-0.133-0.004-0.264,0.01-0.394l-2.386-3.996l2.997-5.223c-0.056-0.073-0.112-0.143-0.168-0.218
			c0.094,0.01,0.184,0.021,0.275,0.033l0.384-0.668l-5.908-4.146c0.33,0.494,0.675,0.976,1.076,1.391
			C722.47,103.658,723.699,104.46,722.369,106.268z"/>
		<path fill="#EAEAEB" d="M718.482,99.886l-0.188-0.132c0.024,0.088,0.044,0.177,0.068,0.265
			C718.404,99.97,718.444,99.925,718.482,99.886z"/>
		<path fill="#EAEAEB" d="M702.373,114.248c0.332,0.483,1.172,0.762,1.291-0.076c0.354-2.503,2.931-3.376,3.457-5.694
			c-0.002-1.911,0.076-3.828-0.025-5.733c-0.039-0.756,0.011-1.474,0.135-2.165l-0.389,0.028l-2.023,2.095
			c-0.336,2.744-0.831,5.435-2.937,7.611C700.587,111.652,701.558,113.06,702.373,114.248z"/>
		<path fill="#D6D6D7" d="M702.123,121.843c-0.008-0.144-0.013-0.287-0.014-0.431c-2.219-0.899-1.736-3.104-2.074-4.912
			c0.348-1.146,0.523-2.268-0.012-3.434c-0.776-1.69-0.33-3.105,0.867-4.423c1.078-1.187,1.768-2.569,2.144-4.091l-4.452,4.612
			c0.33,1.938-0.225,3.593-1.459,5.109c0.001,1.119-0.651,2.158-0.826,3.282l0.857,1.417c0.541-0.692,0.283-1.749,0.596-2.883
			c0.497,1.608,0.516,3.009,0.277,4.325l1.316,2.173l2.5,2.674l0.252,0.067C702.33,124.211,701.938,122.971,702.123,121.843z"/>
		<path fill="#DFDFDF" d="M718.373,105.804c0.967-0.023,1.462,0.272,0.996,1.44c-0.294,0.735-1.017,1.234-1.001,2.127
			c0.633,1.586,0.526,3.222-0.073,4.725c-0.582,1.459-0.727,2.96-0.93,4.481c-0.065,0.488-0.445,1.022,0.176,1.34
			c0.539,0.276,0.921-0.158,1.234-0.547c0.554-0.688,0.901-1.48,0.846-2.422c0.159-0.485,0.179-1.178,0.498-1.42
			c1.897-1.43,1.395-3.977,2.45-5.744c0.807-1.352-0.979-2.458-0.201-3.516c1.33-1.809,0.101-2.61-0.916-3.662
			c-0.401-0.416-0.745-0.898-1.076-1.391l-1.895-1.329c-0.038,0.039-0.078,0.084-0.119,0.134
			C718.366,101.947,718.37,103.876,718.373,105.804z"/>
		<path fill="#EAEAEB" d="M710.524,102.448c0.632,2.752,0.825,5.491,0.789,8.289c-0.008,0.641,0.285,1.222,0.968,1.185
			c0.822-0.043,0.661-0.81,0.661-1.36c0.001-1.474,0.028-2.945,0.082-4.414c0.106-2.897,0.317-5.785,0.627-8.665l-2.644,2.827
			l-0.687,0.049C710.269,101.069,710.373,101.788,710.524,102.448z"/>
		<polygon fill="#D6D6D7" points="714.616,112.938 714.617,112.932 714.616,112.938 714.616,112.938 		"/>
		<path fill="#D6D6D7" d="M713.733,115.741c-0.004-0.043-0.01-0.087-0.011-0.129c-0.001-0.034,0.002-0.066,0.003-0.099
			c0.001-0.037,0.001-0.073,0.003-0.109c0.003-0.035,0.01-0.07,0.015-0.106c0.005-0.032,0.007-0.065,0.014-0.096
			c0.006-0.03,0.015-0.059,0.022-0.089c0.009-0.036,0.016-0.072,0.026-0.107c0.006-0.021,0.014-0.042,0.021-0.062
			c0.014-0.043,0.027-0.087,0.043-0.129c0.003-0.01,0.007-0.02,0.011-0.029c0.233-0.619,0.651-1.181,0.736-1.845
			c-0.473-0.004-0.917,0.059-1.347,0.176c-0.004,0.001-0.009,0.003-0.013,0.005c-0.138,0.038-0.276,0.081-0.412,0.129
			c-0.131,0.047-0.261,0.099-0.39,0.155c-0.009,0.004-0.018,0.007-0.027,0.01c-0.417,0.182-0.828,0.406-1.246,0.66
			c-1.773,1.075-3.255,2.524-4.893,3.765c-0.535,1.39-2.041,1.337-2.908,2.232v0.001c-0.143,0.591-0.286,1.181-0.429,1.772
			c1.86-0.903,4.033-1.425,5.496-2.808c1.629-1.54,3.198-2.721,5.344-2.984c-0.021-0.076-0.037-0.151-0.047-0.225
			C713.737,115.798,713.737,115.77,713.733,115.741z"/>
		<path fill="#D6D6D7" d="M707.096,102.745c0.102,1.905,0.023,3.822,0.025,5.733c0.822-0.607,0.676-0.628,0.862-2.12
			c0.239-1.924,0.114-3.941,0.401-5.86l-1.154,0.082C707.107,101.271,707.056,101.989,707.096,102.745z"/>
		<path fill="#EAEAEB" d="M715.454,112.936c0.985,0.091,1.264-0.455,1.265-1.43c0.002-1.139,0.218-2.205,1.649-2.135
			c-0.016-0.893,0.707-1.392,1.001-2.127c0.466-1.167-0.03-1.463-0.996-1.44c-0.802,1.876-2.363,3.167-3.325,4.92
			C716.707,111.142,715.233,112.217,715.454,112.936z"/>
		<path fill="#EAEAEB" d="M706.285,117.839c-0.04-0.854,0.187-1.853-0.933-2.153c-0.41-0.11-1.014-0.069-1.014,0.425
			c0,0.358-0.079,0.691-0.192,1.014c-0.284,0.806-0.785,1.543-0.814,2.41c-0.006,0.173,0.006,0.352,0.044,0.537
			C704.245,119.175,705.75,119.229,706.285,117.839z"/>
		<path fill="#EAEAEB" d="M700.034,116.5c0.338,1.808-0.146,4.013,2.074,4.912C701.558,119.707,701.837,117.601,700.034,116.5z"/>
		<path fill="#D6D6D7" d="M715.454,112.936c-0.221-0.72,1.253-1.794-0.406-2.212c-0.052,0.084-0.098,0.17-0.139,0.258
			c-0.024,0.049-0.042,0.1-0.062,0.15c-0.016,0.038-0.034,0.076-0.047,0.113c-0.017,0.046-0.028,0.094-0.042,0.141
			c-0.013,0.043-0.028,0.086-0.038,0.13c-0.009,0.036-0.015,0.073-0.022,0.11c-0.011,0.056-0.025,0.11-0.034,0.167
			c-0.003,0.021-0.005,0.041-0.007,0.062c-0.01,0.073-0.02,0.146-0.026,0.22c-0.001,0.007-0.001,0.014-0.001,0.021
			c-0.023,0.275-0.021,0.555-0.009,0.837l0,0C714.899,112.933,715.176,112.935,715.454,112.936z"/>
		<polygon fill="#D6D6D7" points="714.621,112.932 714.617,112.932 714.621,112.932 		"/>
		<path fill="#DFDFDF" d="M697.749,116.09c-0.313,1.134-0.055,2.191-0.596,2.883l0.873,1.442
			C698.265,119.098,698.246,117.698,697.749,116.09z"/>
		<path fill="#DFDFDF" d="M696.988,114.278l-0.703,3.26l0.01,0.017c0.175-1.124,0.826-2.163,0.826-3.282
			C697.077,114.276,697.033,114.276,696.988,114.278z"/>
		<path fill="#D6D6D7" d="M725.173,115.827c0.092,1.123,0.308,2.238,0.6,3.338l-0.042-2.813l-0.548-0.919
			C725.169,115.564,725.163,115.694,725.173,115.827z"/>
		<path fill="#D6D6D7" d="M725.795,106.215l0.106-0.185c-0.09-0.012-0.18-0.023-0.275-0.033
			C725.683,106.071,725.739,106.142,725.795,106.215z"/>
		<path fill="#F5F5F5" d="M721.295,119.577c1.189-1.062,2.718-2.271,2.947-4.205c-2.077-1.197-3.048,1.149-4.621,1.576
			c0.055,0.942-0.292,1.733-0.846,2.422c-0.314,0.389-0.695,0.823-1.234,0.547c-0.622-0.319-0.241-0.852-0.176-1.34
			c0.204-1.52,0.349-3.022,0.93-4.481c0.599-1.504,0.706-3.139,0.073-4.725c-1.431-0.07-1.648,0.997-1.649,2.135
			c-0.001,0.975-0.28,1.521-1.265,1.43c-0.278-0.001-0.555-0.003-0.833-0.004l0,0c-0.002,0-0.003,0-0.005,0l-0.001,0.006
			c-0.085,0.664-0.503,1.227-0.736,1.845c-0.004,0.01-0.008,0.02-0.011,0.029c-0.016,0.043-0.029,0.086-0.043,0.129
			c-0.006,0.021-0.014,0.042-0.021,0.062c-0.01,0.035-0.017,0.071-0.026,0.107c-0.007,0.03-0.015,0.059-0.022,0.089
			c-0.006,0.032-0.009,0.065-0.014,0.096c-0.005,0.035-0.011,0.07-0.015,0.106c-0.003,0.036-0.002,0.073-0.003,0.109
			c-0.002,0.033-0.004,0.065-0.003,0.099c0.001,0.042,0.007,0.085,0.011,0.129c0.003,0.029,0.003,0.057,0.007,0.087
			c0.011,0.074,0.027,0.149,0.047,0.225c1.582,1.156,0.891,2.732,0.468,4.061c-0.565,1.775-0.892,3.543-0.416,5.316
			c0.1,0.37,0.258,0.647,0.456,0.823l1.62-0.376C717.778,123.854,719.205,121.445,721.295,119.577z"/>
	</g>
</g>
<g>
	<g>
		<path fill="#B8BEC1" d="M663.45,81.323l-6.138-32.477c0.045-0.012,0.088-0.024,0.134-0.031c2.317-0.414,4.524,1.158,4.931,3.509
			l5.403,28.227L663.45,81.323z"/>
		<path fill="#708F3D" d="M663.996,94.674l1.258-0.225c2.642-0.471,4.407-3.025,3.942-5.706l-0.929-5.366
			c-0.464-2.68-2.98-4.472-5.622-4.002l-1.259,0.225c-2.641,0.471-4.408,3.026-3.943,5.706l0.929,5.365
			C658.836,93.355,661.354,95.145,663.996,94.674z M660.151,84.823c-0.202-1.16,0.566-2.272,1.711-2.476l1.259-0.224
			c1.146-0.204,2.24,0.574,2.441,1.736l0.929,5.367c0.2,1.161-0.566,2.275-1.712,2.478l-1.259,0.224
			c-1.145,0.205-2.24-0.577-2.441-1.738L660.151,84.823z"/>
		<path fill="#708F3D" d="M668.29,83.505l-1.544-8.928c-0.263-1.516-1.687-2.529-3.182-2.263c-1.496,0.266-2.493,1.711-2.23,3.228
			l0.997,5.768L668.29,83.505z"/>
		<path fill="#103754" d="M662.754,75.289c-0.125-0.72,0.35-1.407,1.059-1.534c0.712-0.127,1.387,0.355,1.511,1.076
			c0.125,0.721-0.348,1.407-1.06,1.534C663.555,76.491,662.879,76.01,662.754,75.289z"/>
		<g>
			<path fill="#E6E6E6" d="M664.788,73.542L643.25,57.944c-0.027,0.038-0.059,0.072-0.084,0.111c-1.35,1.955-0.884,4.65,1.042,6.019
				l18.058,13.121L664.788,73.542z"/>
			<path fill="#80A446" d="M681.512,83.291l-0.734,1.061c-1.54,2.229-4.568,2.769-6.764,1.205l-4.394-3.126
				c-2.196-1.563-2.727-4.637-1.187-6.866l0.733-1.06c1.539-2.229,4.567-2.769,6.763-1.207l4.394,3.128
				C682.52,77.987,683.053,81.06,681.512,83.291z M674.352,75.581c-0.951-0.678-2.269-0.443-2.937,0.524l-0.734,1.062
				c-0.667,0.966-0.435,2.302,0.517,2.979l4.395,3.129c0.95,0.677,2.268,0.443,2.936-0.522l0.734-1.063
				c0.667-0.966,0.435-2.303-0.516-2.98L674.352,75.581z"/>
			<path fill="#80A446" d="M669.723,82.504l-7.311-5.205c-1.242-0.886-1.543-2.623-0.671-3.882c0.871-1.261,2.583-1.568,3.826-0.683
				l4.726,3.363L669.723,82.504z"/>
			<path fill="#CCCCCC" d="M664.74,73.933c-0.59-0.42-1.404-0.275-1.818,0.324c-0.414,0.599-0.271,1.423,0.318,1.846
				c0.59,0.42,1.405,0.274,1.819-0.325C665.473,75.178,665.33,74.352,664.74,73.933z"/>
		</g>
	</g>
</g>
<g>
	<path fill="#CDD5D8" d="M637.181,12.638c1.5-1.179,2.477,0.21,1.236,1.76c-2.232,2.685-3.601,4.41-5.775,7.145
		c-1.013-0.919-1.818-2.062-2.4-3.409C632.891,16.072,634.561,14.775,637.181,12.638z"/>
	<path fill="#51A1A5" d="M602.841,46.449c-3.604,3.785-2.254,5.702,1.516,2.15c6.34-5.964,21.85-21.115,28.216-27.041
		c-0.786-1.114-1.57-2.232-2.357-3.35C624.187,24.612,608.901,40.082,602.841,46.449z"/>
	<polygon fill="#DC6231" points="630.136,18.108 632.641,21.671 633.537,20.782 631.032,17.219 	"/>
	<path fill="#DCE4E7" d="M637.527,13.956l-5.174,5.145l1.047,1.488c1.567-1.968,4.39-5.435,4.39-5.435L637.527,13.956z"/>
	<path fill="#72BCC5" d="M631.459,19.99l-30.542,30.372c0.447,0.363,1.679-0.104,3.441-1.763
		c6.337-5.961,21.847-21.112,28.21-27.034L631.459,19.99z"/>
	<polygon fill="#F36C36" points="631.459,19.99 632.568,21.565 632.641,21.671 633.537,20.782 633.401,20.589 632.353,19.101 	"/>
	<path fill="#474F59" d="M636.429,13.328l1.285,1.829c0.938-0.033,2.207-0.729,3.307-1.909c0.51-0.548,0.922-1.133,1.219-1.703
		c0.619-1.187,0.744-3.172,2.491-3.912c0,0-2.242-0.772-4.882,1.13c-0.612,0.439-1.115,0.845-1.707,1.482
		C637.197,11.261,636.592,12.399,636.429,13.328z"/>
	<path fill="#596273" d="M637.302,14.569l0.41,0.583c0.027-0.003,0.051,0.003,0.079,0.001c0.93-0.068,2.16-0.759,3.231-1.906
		c0.51-0.548,0.922-1.133,1.219-1.703c0.619-1.187,0.744-3.172,2.491-3.912c0,0-1.417-0.491-3.543,3.104
		C639.722,13.222,638.14,14.201,637.302,14.569z"/>
</g>
<g>
	<g>
		<polygon fill="#FBCA61" points="386.774,73.616 361.158,5.902 365.85,4.259 391.466,71.973 		"/>
		<polygon fill="#FBCA61" points="396.158,70.33 391.466,71.973 365.85,4.259 370.542,2.616 		"/>
	</g>
	<polygon opacity="0.3" fill="#FFFFFF" points="386.774,73.616 361.158,5.902 365.85,4.259 391.466,71.973 	"/>
	<g>
		<g>
			<g>
				<polygon fill="#0F0D10" points="372.303,7.271 371.13,7.682 371.023,7.4 372.196,6.989 				"/>
			</g>
		</g>
		<g>
			<g>
				<polygon fill="#0F0D10" points="373.157,9.528 371.984,9.939 371.877,9.657 373.05,9.246 				"/>
			</g>
		</g>
		<g>
			<g>
				<polygon fill="#0F0D10" points="374.01,11.786 372.837,12.196 372.731,11.914 373.904,11.503 				"/>
			</g>
		</g>
		<g>
			<g>
				<polygon fill="#0F0D10" points="374.864,14.043 373.691,14.453 373.585,14.171 374.758,13.761 				"/>
			</g>
		</g>
		<g>
			<g>
				<polygon fill="#0F0D10" points="375.718,16.3 374.545,16.711 374.438,16.428 375.611,16.018 				"/>
			</g>
		</g>
		<g>
			<g>
				<polygon fill="#0F0D10" points="376.572,18.557 375.399,18.968 375.292,18.686 376.465,18.275 				"/>
			</g>
		</g>
		<g>
			<g>
				<polygon fill="#0F0D10" points="377.426,20.814 376.253,21.225 376.146,20.943 377.319,20.532 				"/>
			</g>
		</g>
		<g>
			<g>
				<polygon fill="#0F0D10" points="378.28,23.071 377.107,23.482 377,23.2 378.173,22.789 				"/>
			</g>
		</g>
		<g>
			<g>
				<polygon fill="#0F0D10" points="379.134,25.328 377.961,25.739 377.854,25.457 379.027,25.046 				"/>
			</g>
		</g>
		<g>
			<g>
				<polygon fill="#0F0D10" points="379.988,27.586 378.815,27.996 378.708,27.714 379.881,27.303 				"/>
			</g>
		</g>
		<g>
			<g>
				<polygon fill="#0F0D10" points="380.841,29.843 379.668,30.253 379.562,29.971 380.735,29.56 				"/>
			</g>
		</g>
		<g>
			<g>
				<polygon fill="#0F0D10" points="381.695,32.1 380.522,32.511 380.416,32.228 381.589,31.818 				"/>
			</g>
		</g>
		<g>
			<g>
				<polygon fill="#0F0D10" points="382.549,34.357 381.376,34.768 381.269,34.486 382.442,34.075 				"/>
			</g>
		</g>
		<g>
			<g>
				<polygon fill="#0F0D10" points="383.403,36.614 382.23,37.025 382.123,36.743 383.296,36.332 				"/>
			</g>
		</g>
		<g>
			<g>
				<polygon fill="#0F0D10" points="384.257,38.871 383.084,39.282 382.977,39 384.15,38.589 				"/>
			</g>
		</g>
		<g>
			<g>
				<polygon fill="#0F0D10" points="385.111,41.128 383.938,41.539 383.831,41.257 385.004,40.846 				"/>
			</g>
		</g>
		<g>
			<g>
				<polygon fill="#0F0D10" points="385.965,43.385 384.792,43.796 384.685,43.514 385.858,43.103 				"/>
			</g>
		</g>
		<g>
			<g>
				<polygon fill="#0F0D10" points="386.818,45.643 385.646,46.053 385.539,45.771 386.712,45.36 				"/>
			</g>
		</g>
		<g>
			<g>
				<polygon fill="#0F0D10" points="387.672,47.9 386.499,48.31 386.393,48.028 387.566,47.618 				"/>
			</g>
		</g>
		<g>
			<g>
				<polygon fill="#0F0D10" points="388.526,50.157 387.353,50.568 387.247,50.285 388.419,49.875 				"/>
			</g>
		</g>
		<g>
			<g>
				<polygon fill="#0F0D10" points="389.38,52.414 388.207,52.825 388.1,52.543 389.273,52.132 				"/>
			</g>
		</g>
		<g>
			<g>
				<polygon fill="#0F0D10" points="390.234,54.671 389.061,55.082 388.954,54.8 390.127,54.389 				"/>
			</g>
		</g>
		<g>
			<g>
				<polygon fill="#0F0D10" points="391.088,56.928 389.915,57.339 389.808,57.057 390.981,56.646 				"/>
			</g>
		</g>
		<g>
			<g>
				<polygon fill="#0F0D10" points="391.942,59.185 390.769,59.596 390.662,59.314 391.835,58.903 				"/>
			</g>
		</g>
		<g>
			<g>
				<polygon fill="#0F0D10" points="392.796,61.442 391.623,61.853 391.516,61.571 392.689,61.16 				"/>
			</g>
		</g>
		<g>
			<g>
				<polygon fill="#0F0D10" points="393.649,63.7 392.476,64.11 392.37,63.828 393.543,63.417 				"/>
			</g>
		</g>
		<g>
			<g>
				<polygon fill="#0F0D10" points="394.503,65.957 393.33,66.367 393.224,66.085 394.397,65.675 				"/>
			</g>
		</g>
	</g>
</g>
<g>
	<g>
		<path fill="#7891A0" d="M322.97,41.153l-21.879,15.248c-0.881,0.614-1.09,1.769-0.467,2.58l20.362,26.525
			c0.622,0.81,1.84,0.971,2.722,0.356l21.88-15.248c0.88-0.613,1.089-1.769,0.467-2.579l-20.362-26.525
			C325.069,40.7,323.85,40.54,322.97,41.153z"/>
		<path fill="#4F616E" d="M323.707,85.862l21.88-15.248c0.88-0.613,1.089-1.769,0.467-2.579l-3.772-4.914L318.808,79.48
			c-0.881,0.614-1.09,1.769-0.467,2.58l2.645,3.445C321.607,86.316,322.826,86.476,323.707,85.862z"/>
		<path fill="#106974" d="M325.742,75.842c-0.414,0.289-0.512,0.833-0.22,1.213l2.645,3.445c0.292,0.381,0.865,0.455,1.279,0.167
			l16.949-11.811c-0.038-0.289-0.15-0.571-0.342-0.82l-3.175-4.136L325.742,75.842z"/>
		<path fill="#FFFFFF" d="M323.11,85.084c-0.414,0.288-0.987,0.214-1.279-0.167l-2.645-3.445c-0.292-0.381-0.194-0.925,0.22-1.213
			l22.628-15.769l3.175,4.136c0.292,0.381,0.193,0.924-0.22,1.211L323.11,85.084z"/>
		<path fill="#EAEAEC" d="M319.405,80.259c-0.414,0.288-0.512,0.833-0.22,1.213l0.821,1.07c-0.292-0.381-0.194-0.925,0.22-1.213
			l22.628-15.77l-0.821-1.07L319.405,80.259z"/>
		<polygon fill="#ED6247" points="328.143,84.856 326.303,85.432 325.17,86.928 321.495,82.142 322.982,81.105 324.469,80.069 		"/>
		<polygon fill="#FFFFFF" points="312.936,62.532 325.795,53.571 326.592,54.609 313.733,63.57 		"/>
		<polygon fill="#FFFFFF" points="308.853,61.098 325.597,49.429 326.792,50.986 310.048,62.654 		"/>
	</g>
</g>
<g>
	<path fill="#474F59" d="M304.907,128.815l-62.045-36.914c0.478-0.516,1.374-0.611,2.194-0.22l60.529,36.01L304.907,128.815z"/>
	<path fill="#596273" d="M307.198,125.018l-1.613,2.673l-60.529-36.01l0.001-0.001c-0.008-0.006-0.013-0.01-0.018-0.016
		c0,0,0.015,0.009,0.021,0.011c-0.817-0.596-1.148-1.562-0.736-2.246c0.417-0.688,1.429-0.85,2.343-0.416
		c-0.004-0.005-0.012-0.009-0.019-0.014c0.006,0.003,0.014,0.004,0.014,0.004l0.008,0.004L307.198,125.018z"/>
	<path fill="#474F59" d="M246.668,89.007c-0.734-0.537-1.07-1.366-0.837-2.027l62.043,36.915l-0.677,1.123L246.668,89.007z"/>
	<path fill="#F0EDDA" d="M245.832,86.978c-0.236,0.66,0.103,1.491,0.837,2.029l0.001,0.001c0,0-0.017-0.005-0.023-0.009
		c0.007,0.005,0.015,0.009,0.019,0.014c-0.914-0.434-1.926-0.272-2.343,0.416c-0.412,0.684-0.081,1.65,0.736,2.246
		c-0.006-0.002-0.016-0.007-0.016-0.007s0.006,0.007,0.014,0.012l-0.001,0.001c-0.823-0.391-1.721-0.295-2.196,0.223l-2.598-4.893
		L245.832,86.978z"/>
	<path fill="#474F59" d="M241.535,89.414l-1.274-2.403l2.734-0.016c-0.111,0.463-0.288,0.905-0.539,1.322
		C242.204,88.733,241.894,89.097,241.535,89.414z"/>
	<g>
		<polygon fill="#DC6231" points="304.931,128.829 305.608,127.705 307.541,128.855 306.863,129.978 		"/>
		<polygon fill="#F36C36" points="305.608,127.705 307.223,125.033 309.156,126.182 307.541,128.855 		"/>
		<polygon fill="#DC6231" points="307.223,125.033 307.9,123.908 309.834,125.059 309.156,126.182 		"/>
	</g>
</g>
<g>
	<path fill="#72BCC5" d="M313.914,123.862c0.638,0.009,1.162-0.495,1.171-1.127l0.176-11.246c0.01-0.633-0.498-1.153-1.136-1.163
		l-19.09-0.294c-0.637-0.01-1.162,0.495-1.171,1.128l-0.176,11.245c-0.01,0.632,0.498,1.153,1.136,1.163L313.914,123.862z"/>
	<path fill="#5F9CA4" d="M296.626,122.45l0.176-11.245c0.009-0.633,0.534-1.137,1.171-1.127l-2.937-0.045
		c-0.637-0.01-1.162,0.495-1.171,1.128l-0.176,11.245c-0.01,0.632,0.498,1.153,1.136,1.163l2.937,0.046
		C297.124,123.603,296.616,123.083,296.626,122.45z"/>
	<path fill="#ED6247" d="M315.085,122.735l0.176-11.246c0.01-0.633-0.498-1.153-1.136-1.163l-9.335-0.144l-0.212,13.536l9.335,0.144
		C314.551,123.872,315.075,123.368,315.085,122.735z"/>
</g>
</svg>
