<?xml version="1.0" encoding="utf-8"?>
<!DOCTYPE svg PUBLIC "-//W3C//DTD SVG 1.1//EN" "http://www.w3.org/Graphics/SVG/1.1/DTD/svg11.dtd">
<svg version="1.1" baseProfile="full"
 xmlns="http://www.w3.org/2000/svg"
 xmlns:xlink="http://www.w3.org/1999/xlink"
 xmlns:ev="http://www.w3.org/2001/xml-events" 
  height="24px" 
  width="27px" 
>
<path fill="rgb( 255, 255, 255 )"
 d="M10.84,0.00999999999999 C10.84,0.00999999999999 16.1609999999999,0.00999999999999 16.1609999999999,0.00999999999999 C16.926,0.00999999999999 17.629,0.31400000000002 18.134,0.79899999999998 C18.646,1.28399999999999 18.961,1.95499999999998 18.961,2.69600000000003 C18.961,2.69600000000003 18.961,3.52499999999998 18.961,3.52499999999998 C18.961,3.52499999999998 21.0650000000001,3.52499999999998 21.0650000000001,3.52499999999998 C22.423,3.52499999999998 23.6660000000001,4.05900000000003 24.561,4.91699999999997 C25.449,5.78199999999998 26.009,6.96800000000002 26.009,8.27199999999999 C26.009,8.27199999999999 26.009,18.261 26.009,18.261 C26.009,19.568 25.449,20.757 24.561,21.612 C23.6660000000001,22.474 22.423,23.008 21.0650000000001,23.008 C21.0650000000001,23.008 5.94299999999998,23.008 5.94299999999998,23.008 C4.577,23.008 3.33399999999995,22.474 2.44000000000005,21.612 C2.44000000000005,21.612 2.39200000000005,21.56 2.39200000000005,21.56 C1.53099999999995,20.701 0.99199999999996,19.538 0.99199999999996,18.261 C0.99199999999996,18.261 0.99199999999996,8.27199999999999 0.99199999999996,8.27199999999999 C0.99199999999996,6.96800000000002 1.54499999999996,5.78199999999998 2.44000000000005,4.92000000000002 C2.44000000000005,4.92000000000002 2.44600000000003,4.91699999999997 2.44600000000003,4.91699999999997 C2.44600000000003,4.91699999999997 2.44000000000005,4.91699999999997 2.44000000000005,4.91699999999997 C3.33399999999995,4.05900000000003 4.577,3.52499999999998 5.94299999999998,3.52499999999998 C5.94299999999998,3.52499999999998 8.03999999999996,3.52499999999998 8.03999999999996,3.52499999999998 C8.03999999999996,3.52499999999998 8.03999999999996,2.69600000000003 8.03999999999996,2.69600000000003 C8.03999999999996,1.95499999999998 8.35400000000004,1.28399999999999 8.85299999999995,0.79899999999998 C9.37199999999996,0.31400000000002 10.069,0.00999999999999 10.84,0.00999999999999 C10.84,0.00999999999999 10.84,0.00999999999999 10.84,0.00999999999999 ZM18.496,5.36900000000003 C18.496,5.36900000000003 18.496,5.36900000000003 18.496,5.36900000000003 C18.462,5.37599999999998 18.421,5.37900000000002 18.3869999999999,5.37900000000002 C18.3869999999999,5.37900000000002 18.373,5.37900000000002 18.373,5.37900000000002 C18.373,5.37900000000002 8.61400000000003,5.37900000000002 8.61400000000003,5.37900000000002 C8.58000000000004,5.37900000000002 8.53800000000001,5.37599999999998 8.505,5.36900000000003 C8.505,5.36900000000003 5.94299999999998,5.36900000000003 5.94299999999998,5.36900000000003 C5.11000000000001,5.36900000000003 4.35199999999998,5.69999999999999 3.80600000000004,6.22399999999999 C3.80600000000004,6.22399999999999 3.79899999999998,6.221 3.79899999999998,6.221 C3.25300000000004,6.745 2.91099999999994,7.476 2.91099999999994,8.27199999999999 C2.91099999999994,8.27199999999999 2.91099999999994,12.711 2.91099999999994,12.711 C2.91099999999994,12.711 5.65599999999995,12.711 5.65599999999995,12.711 C5.65599999999995,12.711 5.65599999999995,11.073 5.65599999999995,11.073 C5.65599999999995,10.768 5.91600000000005,10.519 6.23699999999997,10.519 C6.23699999999997,10.519 6.25099999999998,10.519 6.25099999999998,10.519 C6.25099999999998,10.519 10.362,10.519 10.362,10.519 C10.683,10.519 10.936,10.768 10.936,11.073 C10.936,11.073 10.936,11.086 10.936,11.086 C10.936,11.086 10.936,12.711 10.936,12.711 C10.936,12.711 16.0650000000001,12.711 16.0650000000001,12.711 C16.0650000000001,12.711 16.0650000000001,11.073 16.0650000000001,11.073 C16.0650000000001,10.768 16.324,10.519 16.638,10.519 C16.638,10.519 16.652,10.519 16.652,10.519 C16.652,10.519 20.764,10.519 20.764,10.519 C21.078,10.519 21.337,10.768 21.337,11.073 C21.337,11.073 21.337,11.086 21.337,11.086 C21.337,11.086 21.337,12.711 21.337,12.711 C21.337,12.711 24.083,12.711 24.083,12.711 C24.083,12.711 24.083,8.27199999999999 24.083,8.27199999999999 C24.083,7.47899999999999 23.742,6.75099999999998 23.1950000000001,6.22399999999999 C22.649,5.69999999999999 21.89,5.36900000000003 21.0650000000001,5.36900000000003 C21.0650000000001,5.36900000000003 18.496,5.36900000000003 18.496,5.36900000000003 C18.496,5.36900000000003 18.496,5.36900000000003 18.496,5.36900000000003 ZM9.19399999999996,3.52499999999998 C9.19399999999996,3.52499999999998 9.19399999999996,3.52499999999998 9.19399999999996,3.52499999999998 C9.19399999999996,3.52499999999998 17.813,3.52499999999998 17.813,3.52499999999998 C17.813,3.52499999999998 17.813,2.69600000000003 17.813,2.69600000000003 C17.813,2.26299999999998 17.622,1.86700000000002 17.322,1.58199999999999 C17.028,1.29399999999998 16.611,1.11700000000002 16.1609999999999,1.11700000000002 C16.1609999999999,1.11700000000002 10.84,1.11700000000002 10.84,1.11700000000002 C10.389,1.11700000000002 9.97299999999996,1.29399999999998 9.67200000000003,1.58199999999999 C9.37900000000002,1.86700000000002 9.19399999999996,2.26299999999998 9.19399999999996,2.69600000000003 C9.19399999999996,2.69600000000003 9.19399999999996,3.52499999999998 9.19399999999996,3.52499999999998 C9.19399999999996,3.52499999999998 9.19399999999996,3.52499999999998 9.19399999999996,3.52499999999998 ZM2.91099999999994,13.818 C2.91099999999994,13.818 2.91099999999994,13.818 2.91099999999994,13.818 C2.91099999999994,13.818 2.91099999999994,18.261 2.91099999999994,18.261 C2.91099999999994,19.044 3.23900000000003,19.751 3.76499999999999,20.276 C3.76499999999999,20.276 3.80600000000004,20.311 3.80600000000004,20.311 C4.35199999999998,20.836 5.11000000000001,21.163 5.94299999999998,21.163 C5.94299999999998,21.163 21.0650000000001,21.163 21.0650000000001,21.163 C21.89,21.163 22.649,20.836 23.1950000000001,20.311 C23.742,19.784 24.083,19.057 24.083,18.261 C24.083,18.261 24.083,13.818 24.083,13.818 C24.083,13.818 21.337,13.818 21.337,13.818 C21.337,13.818 21.337,15.46 21.337,15.46 C21.337,15.768 21.078,16.013 20.764,16.013 C20.764,16.013 20.75,16.013 20.75,16.013 C20.75,16.013 16.638,16.013 16.638,16.013 C16.324,16.013 16.0650000000001,15.768 16.0650000000001,15.46 C16.0650000000001,15.46 16.0650000000001,15.444 16.0650000000001,15.444 C16.0650000000001,15.444 16.0650000000001,13.818 16.0650000000001,13.818 C16.0650000000001,13.818 10.936,13.818 10.936,13.818 C10.936,13.818 10.936,15.46 10.936,15.46 C10.936,15.768 10.683,16.013 10.362,16.013 C10.362,16.013 10.348,16.013 10.348,16.013 C10.348,16.013 6.23699999999997,16.013 6.23699999999997,16.013 C5.91600000000005,16.013 5.65599999999995,15.768 5.65599999999995,15.46 C5.65599999999995,15.46 5.65599999999995,15.444 5.65599999999995,15.444 C5.65599999999995,15.444 5.65599999999995,13.818 5.65599999999995,13.818 C5.65599999999995,13.818 2.91099999999994,13.818 2.91099999999994,13.818 C2.91099999999994,13.818 2.91099999999994,13.818 2.91099999999994,13.818 ZM9.78200000000004,11.63 C9.78200000000004,11.63 9.78200000000004,11.63 9.78200000000004,11.63 C9.78200000000004,11.63 6.81700000000001,11.63 6.81700000000001,11.63 C6.81700000000001,11.63 6.81700000000001,13.252 6.81700000000001,13.252 C6.81700000000001,13.252 6.81700000000001,13.268 6.81700000000001,13.268 C6.81700000000001,13.268 6.81700000000001,13.281 6.81700000000001,13.281 C6.81700000000001,13.281 6.81700000000001,14.906 6.81700000000001,14.906 C6.81700000000001,14.906 9.78200000000004,14.906 9.78200000000004,14.906 C9.78200000000004,14.906 9.78200000000004,13.281 9.78200000000004,13.281 C9.78200000000004,13.281 9.78200000000004,13.268 9.78200000000004,13.268 C9.78200000000004,13.268 9.78200000000004,13.252 9.78200000000004,13.252 C9.78200000000004,13.252 9.78200000000004,11.63 9.78200000000004,11.63 C9.78200000000004,11.63 9.78200000000004,11.63 9.78200000000004,11.63 ZM20.1900000000001,11.63 C20.1900000000001,11.63 20.1900000000001,11.63 20.1900000000001,11.63 C20.1900000000001,11.63 17.212,11.63 17.212,11.63 C17.212,11.63 17.212,13.252 17.212,13.252 C17.212,13.252 17.212,13.268 17.212,13.268 C17.212,13.268 17.212,13.281 17.212,13.281 C17.212,13.281 17.212,14.906 17.212,14.906 C17.212,14.906 20.1900000000001,14.906 20.1900000000001,14.906 C20.1900000000001,14.906 20.1900000000001,13.281 20.1900000000001,13.281 C20.1900000000001,13.281 20.1900000000001,13.268 20.1900000000001,13.268 C20.1900000000001,13.268 20.1900000000001,13.252 20.1900000000001,13.252 C20.1900000000001,13.252 20.1900000000001,11.63 20.1900000000001,11.63 C20.1900000000001,11.63 20.1900000000001,11.63 20.1900000000001,11.63 Z "/>
</svg>
