<?xml version="1.0" encoding="utf-8"?>
<!-- Generator: Adobe Illustrator 18.1.1, SVG Export Plug-In . SVG Version: 6.00 Build 0)  -->
<svg version="1.2" baseProfile="tiny" id="Слой_1" xmlns:ev="http://www.w3.org/2001/xml-events"
	 xmlns="http://www.w3.org/2000/svg" xmlns:xlink="http://www.w3.org/1999/xlink" x="0px" y="0px" width="27px" height="24px"
	 viewBox="-266 469 27 24" xml:space="preserve">
<path fill="#5DC1E8" d="M-255.16,469.01h5.32c0.76,0,1.47,0.3,1.97,0.79c0.51,0.48,0.83,1.16,0.83,1.9v0.83h2.1
	c1.36,0,2.6,0.53,3.5,1.39c0.89,0.87,1.45,2.05,1.45,3.36v9.99c0,1.31-0.56,2.5-1.45,3.35c-0.9,0.86-2.14,1.4-3.5,1.4h-15.12
	c-1.37,0-2.61-0.53-3.5-1.4l-0.05-0.05c-0.86-0.86-1.4-2.02-1.4-3.3v-9.99c0-1.3,0.55-2.49,1.45-3.35l0.01,0h-0.01
	c0.89-0.86,2.14-1.39,3.5-1.39h2.1v-0.83c0-0.74,0.31-1.41,0.81-1.9C-256.63,469.31-255.93,469.01-255.16,469.01L-255.16,469.01z
	 M-247.5,474.37L-247.5,474.37c-0.03,0.01-0.07,0.01-0.11,0.01h-0.01h-9.76c-0.03,0-0.08,0-0.11-0.01h-2.56
	c-0.83,0-1.59,0.33-2.14,0.86l-0.01,0c-0.55,0.52-0.89,1.26-0.89,2.05v4.44h2.74v-1.64c0-0.3,0.26-0.55,0.58-0.55h0.01h4.11
	c0.32,0,0.57,0.25,0.57,0.55v0.01v1.63h5.13v-1.64c0-0.3,0.26-0.55,0.57-0.55h0.01h4.11c0.31,0,0.57,0.25,0.57,0.55v0.01v1.63h2.75
	v-4.44c0-0.79-0.34-1.52-0.89-2.05c-0.55-0.52-1.31-0.86-2.13-0.86H-247.5L-247.5,474.37z M-256.81,472.52L-256.81,472.52h8.62
	v-0.83c0-0.43-0.19-0.83-0.49-1.11c-0.29-0.29-0.71-0.46-1.16-0.46h-5.32c-0.45,0-0.87,0.18-1.17,0.46
	c-0.29,0.29-0.48,0.68-0.48,1.11V472.52L-256.81,472.52z M-263.09,482.82L-263.09,482.82v4.44c0,0.78,0.33,1.49,0.85,2.02l0.04,0.04
	c0.55,0.52,1.3,0.85,2.14,0.85h15.12c0.82,0,1.58-0.33,2.13-0.85c0.55-0.53,0.89-1.25,0.89-2.05v-4.44h-2.75v1.64
	c0,0.31-0.26,0.55-0.57,0.55h-0.01h-4.11c-0.31,0-0.57-0.24-0.57-0.55v-0.02v-1.63h-5.13v1.64c0,0.31-0.25,0.55-0.57,0.55h-0.01
	h-4.11c-0.32,0-0.58-0.24-0.58-0.55v-0.02v-1.63H-263.09L-263.09,482.82z M-256.22,480.63L-256.22,480.63h-2.97v1.62v0.02v0.01v1.63
	h2.97v-1.63v-0.01v-0.02V480.63L-256.22,480.63z M-245.81,480.63L-245.81,480.63h-2.98v1.62v0.02v0.01v1.63h2.98v-1.63v-0.01v-0.02
	V480.63L-245.81,480.63z"/>
</svg>
