<?xml version="1.0" encoding="utf-8"?>
<!-- Generator: Adobe Illustrator 18.1.1, SVG Export Plug-In . SVG Version: 6.00 Build 0)  -->
<svg version="1.2" baseProfile="tiny" id="Слой_1" xmlns:ev="http://www.w3.org/2001/xml-events"
	 xmlns="http://www.w3.org/2000/svg" xmlns:xlink="http://www.w3.org/1999/xlink" x="0px" y="0px" width="25px" height="21px"
	 viewBox="-267 470 25 21" xml:space="preserve">
<path fill="#FFFFFF" d="M-242.87,483.19c-0.07,0-0.14,0.01-0.2,0.04c-0.47,0.22-0.89,0.23-1.38,0c-0.22-0.11-0.48-0.02-0.59,0.2
	s-0.01,0.48,0.2,0.58c0,0,0.01,0,0.01,0.01c0.7,0.32,1.45,0.32,2.13,0c0.22-0.1,0.32-0.36,0.22-0.58
	C-242.54,483.29-242.7,483.19-242.87,483.19L-242.87,483.19L-242.87,483.19z M-243.76,484.69c-0.88,0-1.75,0.73-1.75,1.9
	c0,0.8,0.46,1.29,0.79,1.61c0.32,0.32,0.52,0.49,0.53,0.97c-0.01,0.19,0.1,0.36,0.28,0.43h0c0,0,0.01,0,0.01,0
	c0.2,0.07,0.42,0,0.53-0.17c0.31-0.32,0.51-0.59,0.61-0.85c0.11-0.28,0.11-0.53,0.11-0.69c0-0.16,0-0.24,0.05-0.37
	c0.05-0.13,0.17-0.33,0.48-0.63c0.08-0.08,0.13-0.19,0.13-0.31C-242,485.43-242.88,484.69-243.76,484.69L-243.76,484.69z
	 M-243.76,485.57c0.41,0,0.81,0.22,0.87,0.89c-0.26,0.28-0.44,0.53-0.53,0.76c-0.11,0.28-0.11,0.53-0.11,0.69
	c0,0.15,0,0.23-0.04,0.34c-0.16-0.27-0.36-0.48-0.52-0.65c-0.33-0.33-0.53-0.49-0.53-1C-244.63,485.81-244.19,485.57-243.76,485.57
	L-243.76,485.57z M-243.76,470.37c-0.23,0-0.42,0.18-0.43,0.4l-0.88,11.32c-0.01,0.18,0.09,0.35,0.25,0.43
	c0.7,0.32,1.45,0.32,2.13,0c0.16-0.08,0.26-0.25,0.25-0.43l-0.88-11.32C-243.34,470.55-243.53,470.37-243.76,470.37L-243.76,470.37z
	 M-243.76,476.48l0.42,5.35c-0.28,0.08-0.54,0.08-0.83,0L-243.76,476.48L-243.76,476.48z M-254.28,483.06
	c-1.21,0-2.19,0.98-2.19,2.18s0.99,2.18,2.19,2.18c1.21,0,2.19-0.98,2.19-2.18S-253.07,483.06-254.28,483.06z M-254.28,483.93
	c0.73,0,1.32,0.58,1.32,1.31c0,0.73-0.58,1.31-1.32,1.31c-0.73,0-1.31-0.58-1.31-1.31C-255.6,484.51-255.01,483.93-254.28,483.93z
	 M-260.42,482.19c-1.21,0-2.19,0.98-2.19,2.18s0.99,2.18,2.19,2.18c1.21,0,2.19-0.98,2.19-2.18S-259.21,482.19-260.42,482.19z
	 M-260.42,483.06c0.73,0,1.32,0.58,1.32,1.31c0,0.73-0.58,1.31-1.32,1.31c-0.73,0-1.32-0.58-1.32-1.31
	C-261.74,483.64-261.15,483.06-260.42,483.06z M-263.05,477.83c-1.21,0-2.19,0.98-2.19,2.18s0.99,2.18,2.19,2.18
	s2.19-0.98,2.19-2.18S-261.85,477.83-263.05,477.83z M-263.05,478.7c0.73,0,1.32,0.58,1.32,1.31c0,0.73-0.58,1.31-1.32,1.31
	s-1.32-0.58-1.32-1.31C-264.37,479.28-263.78,478.7-263.05,478.7z M-259.54,473.48c-1.21,0-2.19,0.98-2.19,2.18s0.99,2.18,2.19,2.18
	c1.2,0,2.19-0.98,2.19-2.18S-258.34,473.48-259.54,473.48z M-259.54,474.35c0.73,0,1.32,0.58,1.32,1.31c0,0.73-0.58,1.31-1.32,1.31
	c-0.73,0-1.32-0.58-1.32-1.31C-260.86,474.93-260.27,474.35-259.54,474.35z M-254.28,473.48c-1.21,0-2.19,0.98-2.19,2.18
	s0.99,2.18,2.19,2.18c1.21,0,2.19-0.98,2.19-2.18S-253.07,473.48-254.28,473.48z M-254.28,474.35c0.73,0,1.32,0.58,1.32,1.31
	c0,0.73-0.58,1.31-1.32,1.31c-0.73,0-1.31-0.58-1.31-1.31C-255.6,474.93-255.01,474.35-254.28,474.35z M-256.84,470
	c-1.29,0-2.59,0.23-3.79,0.7c-3.84,1.51-6.36,5.2-6.36,9.31c0,4.1,2.52,7.79,6.37,9.3c3.84,1.51,8.23,0.54,11.06-2.44
	c0.14-0.15,0.16-0.37,0.05-0.54h0c-2.12-3.17-1.45-5.34-0.58-7.34c0.44-1,0.95-1.93,1.18-2.89c0.23-0.96,0.14-1.99-0.63-2.95
	C-251.21,471.11-254.01,470-256.84,470L-256.84,470z M-256.85,470.89c2.6,0.01,5.17,1.03,6.62,2.82c0.61,0.76,0.66,1.4,0.46,2.2
	c-0.19,0.8-0.68,1.71-1.13,2.75c-0.88,2.01-1.57,4.6,0.46,7.86c-2.59,2.54-6.46,3.34-9.86,2c-3.51-1.38-5.81-4.75-5.81-8.5
	c0-3.75,2.3-7.11,5.81-8.5C-259.22,471.08-258.03,470.88-256.85,470.89z"/>
</svg>
