<?xml version="1.0" encoding="utf-8"?>
<!-- Generator: Adobe Illustrator 18.1.1, SVG Export Plug-In . SVG Version: 6.00 Build 0)  -->
<svg version="1.1" id="Layer_1" xmlns="http://www.w3.org/2000/svg" xmlns:xlink="http://www.w3.org/1999/xlink" x="0px" y="0px"
	 width="227.674px" height="229.733px" viewBox="0 0 227.674 229.733" enable-background="new 0 0 227.674 229.733"
	 xml:space="preserve">
<g>
	<g>
		<g>
			<g>
				<path opacity="0.76" fill="#7A8499" d="M161.194,29.868l5.792-10.029l-1.966-1.135l-5.789,10.024
					C159.891,29.101,160.544,29.481,161.194,29.868z"/>
				<path fill="#7A8499" d="M60.622,199.526l-6.016,10.417l1.967,1.138l6.02-10.427C61.931,200.286,61.275,199.909,60.622,199.526z"
					/>
			</g>
		</g>
		<g>
			<g>
				<path fill="#7A8499" d="M24.855,163.199l-10.247,5.916l1.135,1.966l10.252-5.918C25.608,164.512,25.229,163.857,24.855,163.199z
					"/>
				<path opacity="0.76" fill="#7A8499" d="M196.779,66.561l10.206-5.893l-1.135-1.967l-10.196,5.887
					C196.034,65.241,196.412,65.898,196.779,66.561z"/>
			</g>
		</g>
		<g>
			<g>
				<path fill="#7A8499" d="M11.984,114.533c0-0.259,0.007-0.518,0.01-0.777H0.384v2.271h11.62
					C11.995,115.529,11.984,115.032,11.984,114.533z"/>
				<path opacity="0.76" fill="#7A8499" d="M209.26,113.756c0.003,0.26,0.009,0.519,0.009,0.777c0,0.499-0.012,0.996-0.02,1.493
					h11.962v-2.271H209.26z"/>
			</g>
		</g>
		<g>
			<g>
				<path fill="#7A8499" d="M25.685,64.441L15.743,58.7l-1.135,1.968l9.947,5.742C24.924,65.749,25.301,65.093,25.685,64.441z"/>
				<path fill="#7A8499" d="M195.341,165.016l10.51,6.066l1.135-1.966l-10.503-6.064
					C196.109,163.711,195.729,164.365,195.341,165.016z"/>
			</g>
		</g>
		<g>
			<g>
				<path fill="#7A8499" d="M62.279,28.585l-5.705-9.882l-1.967,1.135l5.706,9.881C60.964,29.335,61.619,28.956,62.279,28.585z"/>
				<path fill="#7A8499" d="M158.919,200.511l6.101,10.57l1.966-1.138l-6.1-10.566C160.232,199.765,159.579,200.143,158.919,200.511
					z"/>
			</g>
		</g>
		<g>
			<g>
				<path opacity="0.76" fill="#7A8499" d="M110.627,15.892c0.435,0,0.868,0.01,1.304,0.017V4.477h-2.27v11.426
					C109.981,15.901,110.304,15.892,110.627,15.892z"/>
				<path fill="#7A8499" d="M110.627,213.176c-0.323,0-0.646-0.009-0.966-0.012v12.142h2.27v-12.146
					C111.495,213.167,111.062,213.176,110.627,213.176z"/>
			</g>
		</g>
	</g>
</g>
<g>
	<g>
		<g>
			<g>
				<path fill="#7A8499" d="M99.59,218.605l-0.634,6.027l0.607,0.06l0.634-6.02C99.993,218.653,99.791,218.625,99.59,218.605z"/>
				<path opacity="0.76" fill="#7A8499" d="M122.003,11.175l0.634-6.023l-0.606-0.063l-0.634,6.017
					C121.599,11.127,121.801,11.153,122.003,11.175z"/>
			</g>
		</g>
		<g>
			<g>
				<path opacity="0.76" fill="#7A8499" d="M132.78,12.928l1.266-5.937l-0.601-0.128l-1.264,5.936
					C132.382,12.843,132.584,12.885,132.78,12.928z"/>
				<path fill="#7A8499" d="M88.812,216.852l-1.262,5.94l0.598,0.127l1.263-5.939C89.211,216.936,89.012,216.895,88.812,216.852z"/>
			</g>
		</g>
		<g>
			<g>
				<path opacity="0.76" fill="#7A8499" d="M143.316,15.789l1.878-5.776l-0.582-0.189l-1.879,5.78
					C142.929,15.668,143.122,15.726,143.316,15.789z"/>
				<path fill="#7A8499" d="M78.277,213.989L76.4,219.77l0.58,0.187l1.878-5.783C78.666,214.112,78.471,214.055,78.277,213.989z"/>
			</g>
		</g>
		<g>
			<g>
				<path opacity="0.76" fill="#7A8499" d="M153.497,19.735l2.471-5.553l-0.558-0.249l-2.473,5.551
					C153.126,19.566,153.311,19.652,153.497,19.735z"/>
				<path fill="#7A8499" d="M68.099,210.043l-2.475,5.557l0.559,0.249l2.473-5.556C68.469,210.213,68.285,210.127,68.099,210.043z"
					/>
			</g>
		</g>
		<g>
			<g>
				<path opacity="0.76" fill="#7A8499" d="M172.358,30.676l3.563-4.9l-0.495-0.36l-3.564,4.904
					C172.029,30.438,172.194,30.557,172.358,30.676z"/>
				<path fill="#7A8499" d="M49.237,199.102l-3.565,4.905l0.496,0.361l3.568-4.91C49.569,199.341,49.403,199.222,49.237,199.102z"/>
			</g>
		</g>
		<g>
			<g>
				<path opacity="0.76" fill="#7A8499" d="M180.836,37.562l4.043-4.49l-0.455-0.409l-4.047,4.494
					C180.532,37.292,180.684,37.423,180.836,37.562z"/>
				<path fill="#7A8499" d="M40.762,192.218l-4.046,4.495l0.454,0.409l4.051-4.499C41.068,192.485,40.912,192.355,40.762,192.218z"
					/>
			</g>
		</g>
		<g>
			<g>
				<path opacity="0.76" fill="#7A8499" d="M188.532,45.31l4.494-4.047l-0.411-0.454l-4.487,4.043
					C188.263,45.002,188.394,45.157,188.532,45.31z"/>
				<path fill="#7A8499" d="M33.068,184.47l-4.5,4.051l0.41,0.454l4.495-4.047C33.334,184.777,33.203,184.622,33.068,184.47z"/>
			</g>
		</g>
		<g>
			<g>
				<path opacity="0.76" fill="#7A8499" d="M195.37,53.825l4.9-3.563l-0.359-0.495l-4.898,3.559
					C195.13,53.492,195.25,53.659,195.37,53.825z"/>
				<path fill="#7A8499" d="M26.23,175.954l-4.909,3.567l0.359,0.497l4.907-3.566C26.468,176.287,26.35,176.12,26.23,175.954z"/>
			</g>
		</g>
		<g>
			<g>
				<path opacity="0.76" fill="#7A8499" d="M206.204,72.747l5.551-2.47l-0.25-0.558l-5.552,2.471
					C206.038,72.377,206.122,72.561,206.204,72.747z"/>
				<path fill="#7A8499" d="M15.395,157.033l-5.556,2.474l0.249,0.559l5.558-2.475C15.564,157.405,15.477,157.219,15.395,157.033z"
					/>
			</g>
		</g>
		<g>
			<g>
				<path opacity="0.76" fill="#7A8499" d="M210.085,82.953l5.779-1.878l-0.19-0.582l-5.774,1.877
					C209.964,82.563,210.02,82.76,210.085,82.953z"/>
				<path fill="#7A8499" d="M11.515,146.829l-5.786,1.881l0.189,0.58l5.782-1.877C11.636,147.22,11.578,147.023,11.515,146.829z"/>
			</g>
		</g>
		<g>
			<g>
				<path opacity="0.76" fill="#7A8499" d="M212.89,93.503l5.936-1.26l-0.129-0.6l-5.936,1.262
					C212.806,93.104,212.848,93.305,212.89,93.503z"/>
				<path fill="#7A8499" d="M8.71,136.279l-5.941,1.263l0.128,0.598l5.941-1.262C8.795,136.678,8.752,136.477,8.71,136.279z"/>
			</g>
		</g>
		<g>
			<g>
				<path opacity="0.76" fill="#7A8499" d="M214.584,104.29l6.015-0.632l-0.063-0.608l-6.02,0.633
					C214.538,103.885,214.565,104.088,214.584,104.29z"/>
				<path fill="#7A8499" d="M7.017,125.493l-6.022,0.632l0.063,0.608l6.027-0.634C7.062,125.897,7.038,125.695,7.017,125.493z"/>
			</g>
		</g>
		<g>
			<g>
				<path fill="#7A8499" d="M7.085,103.687l-6.027-0.635l-0.063,0.607l6.022,0.634C7.037,104.09,7.061,103.887,7.085,103.687z"/>
				<path fill="#7A8499" d="M214.584,125.493c-0.024,0.202-0.049,0.404-0.071,0.606l6.022,0.633l0.063-0.607L214.584,125.493z"/>
			</g>
		</g>
		<g>
			<g>
				<path fill="#7A8499" d="M8.837,92.907l-5.94-1.262l-0.128,0.599l5.94,1.262C8.751,93.307,8.794,93.106,8.837,92.907z"/>
				<path fill="#7A8499" d="M212.89,136.28c-0.045,0.198-0.084,0.398-0.129,0.598l5.936,1.262l0.129-0.6L212.89,136.28z"/>
			</g>
		</g>
		<g>
			<g>
				<path fill="#7A8499" d="M210.084,146.831c-0.064,0.193-0.123,0.389-0.187,0.582l5.776,1.876l0.19-0.58L210.084,146.831z"/>
				<path fill="#7A8499" d="M11.699,82.373l-5.781-1.879l-0.189,0.581l5.785,1.878C11.576,82.761,11.636,82.566,11.699,82.373z"/>
			</g>
		</g>
		<g>
			<g>
				<path fill="#7A8499" d="M205.952,157.593l5.553,2.473l0.25-0.559l-5.553-2.471C206.121,157.221,206.034,157.406,205.952,157.593
					z"/>
				<path fill="#7A8499" d="M15.646,72.193l-5.557-2.474l-0.249,0.559l5.554,2.473C15.475,72.564,15.561,72.38,15.646,72.193z"/>
			</g>
		</g>
		<g>
			<g>
				<path fill="#7A8499" d="M26.586,53.332l-4.905-3.563l-0.36,0.495l4.906,3.564C26.347,53.662,26.466,53.496,26.586,53.332z"/>
				<path fill="#7A8499" d="M195.013,176.455l4.898,3.562l0.359-0.495l-4.902-3.563C195.248,176.123,195.13,176.29,195.013,176.455z
					"/>
			</g>
		</g>
		<g>
			<g>
				<path fill="#7A8499" d="M33.469,44.855l-4.493-4.045l-0.408,0.454l4.497,4.049C33.2,45.162,33.331,45.006,33.469,44.855z"/>
				<path fill="#7A8499" d="M188.126,184.931l4.489,4.044l0.411-0.454l-4.494-4.049C188.393,184.625,188.262,184.78,188.126,184.931
					z"/>
			</g>
		</g>
		<g>
			<g>
				<path fill="#7A8499" d="M41.217,37.16l-4.049-4.496l-0.454,0.408l4.044,4.493C40.911,37.428,41.065,37.296,41.217,37.16z"/>
				<path fill="#7A8499" d="M180.376,192.624l4.048,4.496l0.455-0.408l-4.043-4.491C180.682,192.359,180.528,192.49,180.376,192.624
					z"/>
			</g>
		</g>
		<g>
			<g>
				<path fill="#7A8499" d="M49.732,30.323l-3.564-4.905l-0.495,0.359l3.563,4.902C49.4,30.562,49.566,30.442,49.732,30.323z"/>
				<path fill="#7A8499" d="M171.86,199.462l3.566,4.905l0.495-0.359l-3.563-4.904C172.192,199.224,172.027,199.344,171.86,199.462z
					"/>
			</g>
		</g>
		<g>
			<g>
				<path fill="#7A8499" d="M68.653,19.487l-2.471-5.552l-0.559,0.25l2.473,5.553C68.282,19.655,68.467,19.569,68.653,19.487z"/>
				<path fill="#7A8499" d="M152.937,210.298l2.473,5.551l0.558-0.249l-2.473-5.554C153.31,210.129,153.123,210.214,152.937,210.298
					z"/>
			</g>
		</g>
		<g>
			<g>
				<path fill="#7A8499" d="M78.858,15.606l-1.879-5.78l-0.58,0.188l1.876,5.777C78.469,15.729,78.663,15.669,78.858,15.606z"/>
				<path fill="#7A8499" d="M142.733,214.176l1.879,5.783l0.582-0.189l-1.878-5.781
					C143.122,214.055,142.929,214.113,142.733,214.176z"/>
			</g>
		</g>
		<g>
			<g>
				<path fill="#7A8499" d="M89.409,12.802l-1.261-5.936l-0.6,0.127l1.262,5.936C89.01,12.886,89.209,12.843,89.409,12.802z"/>
				<path fill="#7A8499" d="M132.181,216.98l1.264,5.939l0.601-0.127l-1.266-5.94C132.584,216.895,132.382,216.938,132.181,216.98z"
					/>
			</g>
		</g>
		<g>
			<g>
				<path fill="#7A8499" d="M100.194,11.107l-0.633-6.017l-0.606,0.065l0.633,6.021C99.79,11.154,99.991,11.128,100.194,11.107z"/>
				<path fill="#7A8499" d="M121.396,218.676l0.634,6.017l0.606-0.06l-0.634-6.027C121.801,218.626,121.599,218.653,121.396,218.676
					z"/>
			</g>
		</g>
	</g>
</g>
<path opacity="0.302" fill="#415E6C" enable-background="new    " d="M113.837,0C51.067,0,0,51.533,0,114.875
	c0,63.334,51.067,114.858,113.837,114.858s113.837-51.524,113.837-114.858C227.674,51.533,176.607,0,113.837,0z M113.837,225.43
	c-60.424,0-109.586-49.594-109.586-110.555c0-60.978,49.162-110.587,109.586-110.587c60.413,0,109.565,49.609,109.565,110.587
	C223.402,175.836,174.25,225.43,113.837,225.43z"/>
</svg>
