<?xml version="1.0" encoding="utf-8"?>
<!-- Generator: Adobe Illustrator 18.1.1, SVG Export Plug-In . SVG Version: 6.00 Build 0)  -->
<svg version="1.1" id="Слой_1" xmlns:ev="http://www.w3.org/2001/xml-events"
	 xmlns="http://www.w3.org/2000/svg" xmlns:xlink="http://www.w3.org/1999/xlink" x="0px" y="0px" width="972.9px" height="7px"
	 viewBox="210 477 972.9 7" enable-background="new 210 477 972.9 7" xml:space="preserve">
<circle fill="#C5C5C5" fill-opacity="0.231" cx="511.5" cy="480.5" r="3.5"/>
<circle fill="#C5C5C5" fill-opacity="0.231" cx="531.5" cy="480.5" r="3.5"/>
<circle fill="#C5C5C5" fill-opacity="0.231" cx="471.5" cy="480.5" r="3.5"/>
<circle fill="#C5C5C5" fill-opacity="0.231" cx="550.5" cy="480.5" r="3.5"/>
<circle fill="#C5C5C5" fill-opacity="0.231" cx="491.5" cy="480.5" r="3.5"/>
<circle fill="#C5C5C5" fill-opacity="0.231" cx="570.5" cy="480.5" r="3.5"/>
<circle fill="#C5C5C5" fill-opacity="0.231" cx="630.5" cy="480.5" r="3.5"/>
<circle fill="#C5C5C5" fill-opacity="0.231" cx="650.5" cy="480.5" r="3.5"/>
<circle fill="#C5C5C5" fill-opacity="0.231" cx="451.5" cy="480.5" r="3.5"/>
<circle fill="#C5C5C5" fill-opacity="0.231" cx="669.5" cy="480.5" r="3.5"/>
<circle fill="#C5C5C5" fill-opacity="0.231" cx="590.5" cy="480.5" r="3.5"/>
<circle fill="#C5C5C5" fill-opacity="0.231" cx="610.5" cy="480.5" r="3.5"/>
<circle fill="#C5C5C5" fill-opacity="0.231" cx="412.5" cy="480.5" r="3.5"/>
<circle fill="#C5C5C5" fill-opacity="0.231" cx="253.5" cy="480.5" r="3.5"/>
<circle fill="#C5C5C5" fill-opacity="0.231" cx="273.5" cy="480.5" r="3.5"/>
<circle fill="#C5C5C5" fill-opacity="0.231" cx="293.5" cy="480.5" r="3.5"/>
<circle fill="#C5C5C5" fill-opacity="0.231" cx="213.5" cy="480.5" r="3.5"/>
<circle fill="#C5C5C5" fill-opacity="0.231" cx="233.5" cy="480.5" r="3.5"/>
<circle fill="#C5C5C5" fill-opacity="0.231" cx="352.5" cy="480.5" r="3.5"/>
<circle fill="#C5C5C5" fill-opacity="0.231" cx="689.5" cy="480.5" r="3.5"/>
<circle fill="#C5C5C5" fill-opacity="0.231" cx="372.5" cy="480.5" r="3.5"/>
<circle fill="#C5C5C5" fill-opacity="0.231" cx="332.5" cy="480.5" r="3.5"/>
<circle fill="#C5C5C5" fill-opacity="0.231" cx="431.5" cy="480.5" r="3.5"/>
<circle fill="#C5C5C5" fill-opacity="0.231" cx="312.5" cy="480.5" r="3.5"/>
<circle fill="#C5C5C5" fill-opacity="0.231" cx="392.5" cy="480.5" r="3.5"/>
<circle fill="#C5C5C5" fill-opacity="0.231" cx="1026.5" cy="480.5" r="3.5"/>
<circle fill="#C5C5C5" fill-opacity="0.231" cx="1046.5" cy="480.5" r="3.5"/>
<circle fill="#C5C5C5" fill-opacity="0.231" cx="1066.5" cy="480.5" r="3.5"/>
<circle fill="#C5C5C5" fill-opacity="0.231" cx="987.5" cy="480.5" r="3.5"/>
<circle fill="#C5C5C5" fill-opacity="0.231" cx="1007.5" cy="480.5" r="3.5"/>
<circle fill="#C5C5C5" fill-opacity="0.231" cx="967.5" cy="480.5" r="3.5"/>
<circle fill="#C5C5C5" fill-opacity="0.231" cx="1086.5" cy="480.5" r="3.5"/>
<circle fill="#C5C5C5" fill-opacity="0.231" cx="1165.5" cy="480.5" r="3.5"/>
<circle fill="#C5C5C5" fill-opacity="0.231" cx="1106.5" cy="480.5" r="3.5"/>
<circle fill="#C5C5C5" fill-opacity="0.231" cx="1126.5" cy="480.5" r="3.5"/>
<circle fill="#C5C5C5" fill-opacity="0.231" cx="1145.5" cy="480.5" r="3.5"/>
<circle fill="#C5C5C5" fill-opacity="0.231" cx="868.5" cy="480.5" r="3.5"/>
<circle fill="#C5C5C5" fill-opacity="0.231" cx="788.5" cy="480.5" r="3.5"/>
<circle fill="#C5C5C5" fill-opacity="0.231" cx="808.5" cy="480.5" r="3.5"/>
<circle fill="#C5C5C5" fill-opacity="0.231" cx="828.5" cy="480.5" r="3.5"/>
<circle fill="#C5C5C5" fill-opacity="0.231" cx="769.5" cy="480.5" r="3.5"/>
<circle fill="#C5C5C5" fill-opacity="0.231" cx="749.5" cy="480.5" r="3.5"/>
<circle fill="#C5C5C5" fill-opacity="0.231" cx="729.5" cy="480.5" r="3.5"/>
<circle fill="#C5C5C5" fill-opacity="0.231" cx="848.5" cy="480.5" r="3.5"/>
<circle fill="#C5C5C5" fill-opacity="0.231" cx="907.5" cy="480.5" r="3.5"/>
<circle fill="#C5C5C5" fill-opacity="0.231" cx="927.5" cy="480.5" r="3.5"/>
<circle fill="#C5C5C5" fill-opacity="0.231" cx="709.5" cy="480.5" r="3.5"/>
<circle fill="#C5C5C5" fill-opacity="0.231" cx="947.5" cy="480.5" r="3.5"/>
<circle fill="#C5C5C5" fill-opacity="0.231" cx="888.5" cy="480.5" r="3.5"/>
</svg>
