<svg baseProfile="full" xmlns="http://www.w3.org/2000/svg" height="17" width="17"><path fill="rgb( 255, 123, 98 )" d="M16.009 8.507c0 4.138-3.363 7.517-7.533 7.499-3.026-.012-5.73-1.832-6.883-4.577-.379-.895-.595-1.885-.595-2.922 0-4.144 3.363-7.511 7.534-7.5 4.147.012 7.477 3.374 7.477 7.5zm-3.88-.836h-7.248c-.227 0-.437.095-.591.243-.148.154-.243.362-.243.593 0 .231.095.439.243.592.154.149.364.244.591.244h7.248c.227 0 .438-.095.588-.244.151-.153.246-.361.246-.592 0-.231-.095-.439-.246-.593-.15-.148-.361-.243-.588-.243zm-3.6-5.003c-3.248-.013-5.86 2.614-5.86 5.839 0 .812.163 1.577.459 2.276.899 2.14 2.996 3.552 5.351 3.563 2.372.012 4.493-1.411 5.401-3.563.298-.699.458-1.464.458-2.276 0-.812-.16-1.571-.458-2.277-.9-2.134-2.997-3.551-5.351-3.562z"/></svg>