<svg baseProfile="full" xmlns="http://www.w3.org/2000/svg" height="26" width="29"><path fill="rgb( 93, 193, 232 )" d="M1.672 10.558c-.381 0-.689-.262-.689-.579 0-.318.308-.573.689-.573h10.758l-3.083-2.603c-.272-.225-.272-.593 0-.815.267-.229.7-.229.968 0l4.255 3.581c.085.076.142.158.175.246l.003.007.012.041.013.085v.061l-.013.089-.012.041-.003.004c-.033.088-.09.17-.175.245l-.012.01-4.243 3.571c-.268.229-.701.229-.968 0-.272-.224-.272-.589 0-.811l3.083-2.6h-10.758zm24.646 8.364l-7.116 3.456v-16.574l8.246-4.008c.547-.26.734-.849.418-1.303-.203-.3-.571-.471-.948-.481h-14.488c-.38 0-.689.256-.689.577v4.42c0 .317.309.58.689.58.378 0 .681-.263.681-.58v-3.844h11.095l-6.613 3.213c-.397.15-.672.488-.672.877v13.541h-3.81v-3.605c0-.317-.303-.577-.681-.577-.38 0-.689.26-.689.577v4.182c0 .314.309.576.689.576h4.491v4.09c0 .16.052.327.153.474.312.457 1.009.617 1.552.355l8.822-4.288c.547-.259.734-.849.418-1.306-.313-.457-1.01-.614-1.548-.352z"/></svg>