<?xml version="1.0" encoding="utf-8"?>
<!-- Generator: Adobe Illustrator 18.1.1, SVG Export Plug-In . SVG Version: 6.00 Build 0)  -->
<svg version="1.1" id="Layer_2" xmlns="http://www.w3.org/2000/svg" xmlns:xlink="http://www.w3.org/1999/xlink" x="0px" y="0px"
	 width="567px" height="176.544px" viewBox="-1.5 689.494 567 176.544" enable-background="new -1.5 689.494 567 176.544"
	 xml:space="preserve">
<pattern  x="-46" y="550" width="17.241" height="17.241" patternUnits="userSpaceOnUse" id="SVGID_86_" viewBox="0 -17.242 17.241 17.241" overflow="visible">
	<g>
		<polygon fill="none" points="0,-0.001 17.241,-0.001 17.241,-17.242 0,-17.242 		"/>
		<g>
			<polygon fill="none" points="0,-17.242 17.241,-17.242 17.241,-0.001 0,-0.001 			"/>
			<g>
				<polygon fill="none" points="0,-17.242 17.242,-17.242 17.242,0 0,0 				"/>
				<g>
					<g>
						<polygon id="SVGID_3_" fill="#FFFFFF" points="0,-17.242 17.241,-17.242 17.241,-0.001 0,-0.001 						"/>
					</g>
					<g>
					</g>
					<g>
						<g>
							<defs>
								<rect id="SVGID_15_" x="0" y="-17.242" width="17.241" height="17.241"/>
							</defs>
							<clipPath id="SVGID_16_">
								<use xlink:href="#SVGID_15_"  overflow="visible"/>
							</clipPath>
						</g>
						<g>
							<defs>
								<rect id="SVGID_17_" x="0" y="-17.242" width="17.241" height="17.241"/>
							</defs>
							<defs>
								<rect id="SVGID_18_" x="0" y="-17.242" width="17.241" height="17.241"/>
							</defs>
							<clipPath id="SVGID_19_">
								<use xlink:href="#SVGID_17_"  overflow="visible"/>
							</clipPath>
							<clipPath id="SVGID_20_" clip-path="url(#SVGID_19_)">
								<use xlink:href="#SVGID_18_"  overflow="visible"/>
							</clipPath>
							<g clip-path="url(#SVGID_20_)">
								<polygon fill="#CCCCCC" points="7.799,-17.242 7.502,-17.242 7.502,0 7.799,0 								"/>
								<polygon fill="#444444" points="9.021,-17.242 7.949,-17.242 7.949,0 9.021,0 								"/>
								<polygon fill="#444444" points="16.809,-17.242 15.735,-17.242 15.735,0 16.809,0 								"/>
								<polygon fill="#444444" points="15.391,-17.242 15.303,-17.242 15.303,0 15.391,0 								"/>
								<polygon fill="#444444" points="17.242,-17.242 17.151,-17.242 17.151,0 17.242,0 								"/>
								<polygon fill="#B2B1B1" points="9.873,-17.242 9.021,-17.242 9.021,0 9.873,0 								"/>
								<polygon fill="#777677" points="11.902,-17.242 9.873,-17.242 9.873,0 11.902,0 								"/>
								<polygon fill="#CCCCCC" points="15.303,-17.242 11.902,-17.242 11.902,0 15.303,0 								"/>
								<polygon fill="#CCCCCC" points="3.401,-17.242 0,-17.242 0,0 3.401,0 								"/>
								<polygon fill="#777677" points="5.428,-17.242 3.401,-17.242 3.401,0 5.428,0 								"/>
								<polygon fill="#B2B1B1" points="6.278,-17.242 5.428,-17.242 5.428,0 6.278,0 								"/>
								<polygon fill="#444444" points="7.352,-17.242 6.278,-17.242 6.278,0 7.352,0 								"/>
								<polygon fill="#B2B1B1" points="7.502,-17.242 7.352,-17.242 7.352,0 7.502,0 								"/>
								<polygon fill="#B2B1B1" points="7.949,-17.242 7.799,-17.242 7.799,0 7.949,0 								"/>
								<polygon fill="#CCCCCC" points="15.391,-17.242 15.735,-17.242 15.735,0 15.391,0 								"/>
								<polygon fill="#CCCCCC" points="16.809,-17.242 17.151,-17.242 17.151,0 16.809,0 								"/>
							</g>
						</g>
					</g>
					<g>
						<g>
							<defs>
								<rect id="SVGID_21_" x="0" y="-17.242" width="17.241" height="17.241"/>
							</defs>
							<clipPath id="SVGID_22_">
								<use xlink:href="#SVGID_21_"  overflow="visible"/>
							</clipPath>
						</g>
						<g>
							<defs>
								<rect id="SVGID_23_" x="0" y="-17.242" width="17.241" height="17.241"/>
							</defs>
							<defs>
								<rect id="SVGID_24_" x="0" y="-17.242" width="17.241" height="17.241"/>
							</defs>
							<clipPath id="SVGID_25_">
								<use xlink:href="#SVGID_23_"  overflow="visible"/>
							</clipPath>
							<clipPath id="SVGID_26_" clip-path="url(#SVGID_25_)">
								<use xlink:href="#SVGID_24_"  overflow="visible"/>
							</clipPath>
							<g opacity="0.5" clip-path="url(#SVGID_26_)">
								<polygon fill="#CCCCCC" points="17.242,-9.441 17.242,-9.74 0,-9.74 0,-9.441 								"/>
								<polygon fill="#444444" points="17.242,-8.219 17.242,-9.293 0,-9.293 0,-8.219 								"/>
								<polygon fill="#444444" points="17.242,-0.433 17.242,-1.507 0,-1.507 0,-0.433 								"/>
								<polygon fill="#444444" points="17.242,-1.85 17.242,-1.939 0,-1.939 0,-1.85 								"/>
								<polygon fill="#444444" points="17.242,0 17.242,-0.09 0,-0.09 0,0 								"/>
								<polygon fill="#F4F0E9" points="17.242,-7.369 17.242,-8.219 0,-8.219 0,-7.369 								"/>
								<polygon fill="#2B1F22" points="17.242,-5.34 17.242,-7.369 0,-7.369 0,-5.34 								"/>
								<polygon fill="#CCCCCC" points="17.242,-1.939 17.242,-5.34 0,-5.34 0,-1.939 								"/>
								<polygon fill="#2B1F22" points="17.242,-11.814 17.242,-13.842 0,-13.842 0,-11.814 								"/>
								<polygon fill="#F4F0E9" points="17.242,-10.963 17.242,-11.814 0,-11.814 0,-10.963 								"/>
								<polygon fill="#444444" points="17.242,-9.889 17.242,-10.963 0,-10.963 0,-9.889 								"/>
								<polygon fill="#CCCCCC" points="17.321,-13.815 17.321,-17.215 0.08,-17.215 0.08,-13.815 								"/>
								<polygon fill="#F4F0E9" points="17.242,-9.74 17.242,-9.889 0,-9.889 0,-9.74 								"/>
								<polygon fill="#F4F0E9" points="17.242,-9.293 17.242,-9.441 0,-9.441 0,-9.293 								"/>
								<polygon fill="#CCCCCC" points="17.242,-1.85 17.242,-1.507 0,-1.507 0,-1.85 								"/>
								<polygon fill="#CCCCCC" points="17.242,-0.433 17.242,-0.09 0,-0.09 0,-0.433 								"/>
							</g>
						</g>
					</g>
				</g>
			</g>
		</g>
	</g>
</pattern>
<pattern  x="-46" y="550" width="17.241" height="17.241" patternUnits="userSpaceOnUse" id="SVGID_87_" viewBox="0 -17.242 17.241 17.241" overflow="visible">
	<g>
		<polygon fill="none" points="0,-0.001 17.241,-0.001 17.241,-17.242 0,-17.242 		"/>
		<g>
			<polygon fill="none" points="0,-17.242 17.241,-17.242 17.241,-0.001 0,-0.001 			"/>
			<g>
				<polygon fill="none" points="0,-17.242 17.242,-17.242 17.242,0 0,0 				"/>
				<g>
					<g>
						<polygon id="SVGID_9_" fill="#FFFFFF" points="0,-17.242 17.241,-17.242 17.241,-0.001 0,-0.001 						"/>
					</g>
					<g>
					</g>
					<g>
						<g>
							<defs>
								<rect id="SVGID_27_" x="0" y="-17.242" width="17.241" height="17.241"/>
							</defs>
							<clipPath id="SVGID_28_">
								<use xlink:href="#SVGID_27_"  overflow="visible"/>
							</clipPath>
						</g>
						<g>
							<defs>
								<rect id="SVGID_29_" x="0" y="-17.242" width="17.241" height="17.241"/>
							</defs>
							<defs>
								<rect id="SVGID_30_" x="0" y="-17.242" width="17.241" height="17.241"/>
							</defs>
							<clipPath id="SVGID_31_">
								<use xlink:href="#SVGID_29_"  overflow="visible"/>
							</clipPath>
							<clipPath id="SVGID_32_" clip-path="url(#SVGID_31_)">
								<use xlink:href="#SVGID_30_"  overflow="visible"/>
							</clipPath>
							<g clip-path="url(#SVGID_32_)">
								<polygon fill="#CCCCCC" points="7.799,-17.242 7.502,-17.242 7.502,0 7.799,0 								"/>
								<polygon fill="#444444" points="9.021,-17.242 7.949,-17.242 7.949,0 9.021,0 								"/>
								<polygon fill="#444444" points="16.809,-17.242 15.735,-17.242 15.735,0 16.809,0 								"/>
								<polygon fill="#444444" points="15.391,-17.242 15.303,-17.242 15.303,0 15.391,0 								"/>
								<polygon fill="#444444" points="17.242,-17.242 17.151,-17.242 17.151,0 17.242,0 								"/>
								<polygon fill="#B2B1B1" points="9.873,-17.242 9.021,-17.242 9.021,0 9.873,0 								"/>
								<polygon fill="#777677" points="11.902,-17.242 9.873,-17.242 9.873,0 11.902,0 								"/>
								<polygon fill="#CCCCCC" points="15.303,-17.242 11.902,-17.242 11.902,0 15.303,0 								"/>
								<polygon fill="#CCCCCC" points="3.401,-17.242 0,-17.242 0,0 3.401,0 								"/>
								<polygon fill="#777677" points="5.428,-17.242 3.401,-17.242 3.401,0 5.428,0 								"/>
								<polygon fill="#B2B1B1" points="6.278,-17.242 5.428,-17.242 5.428,0 6.278,0 								"/>
								<polygon fill="#444444" points="7.352,-17.242 6.278,-17.242 6.278,0 7.352,0 								"/>
								<polygon fill="#B2B1B1" points="7.502,-17.242 7.352,-17.242 7.352,0 7.502,0 								"/>
								<polygon fill="#B2B1B1" points="7.949,-17.242 7.799,-17.242 7.799,0 7.949,0 								"/>
								<polygon fill="#CCCCCC" points="15.391,-17.242 15.735,-17.242 15.735,0 15.391,0 								"/>
								<polygon fill="#CCCCCC" points="16.809,-17.242 17.151,-17.242 17.151,0 16.809,0 								"/>
							</g>
						</g>
					</g>
					<g>
						<g>
							<defs>
								<rect id="SVGID_33_" x="0" y="-17.242" width="17.241" height="17.241"/>
							</defs>
							<clipPath id="SVGID_34_">
								<use xlink:href="#SVGID_33_"  overflow="visible"/>
							</clipPath>
						</g>
						<g>
							<defs>
								<rect id="SVGID_35_" x="0" y="-17.242" width="17.241" height="17.241"/>
							</defs>
							<defs>
								<rect id="SVGID_36_" x="0" y="-17.242" width="17.241" height="17.241"/>
							</defs>
							<clipPath id="SVGID_37_">
								<use xlink:href="#SVGID_35_"  overflow="visible"/>
							</clipPath>
							<clipPath id="SVGID_38_" clip-path="url(#SVGID_37_)">
								<use xlink:href="#SVGID_36_"  overflow="visible"/>
							</clipPath>
							<g opacity="0.5" clip-path="url(#SVGID_38_)">
								<polygon fill="#CCCCCC" points="17.242,-9.441 17.242,-9.74 0,-9.74 0,-9.441 								"/>
								<polygon fill="#444444" points="17.242,-8.219 17.242,-9.293 0,-9.293 0,-8.219 								"/>
								<polygon fill="#444444" points="17.242,-0.433 17.242,-1.507 0,-1.507 0,-0.433 								"/>
								<polygon fill="#444444" points="17.242,-1.85 17.242,-1.939 0,-1.939 0,-1.85 								"/>
								<polygon fill="#444444" points="17.242,0 17.242,-0.09 0,-0.09 0,0 								"/>
								<polygon fill="#F4F0E9" points="17.242,-7.369 17.242,-8.219 0,-8.219 0,-7.369 								"/>
								<polygon fill="#2B1F22" points="17.242,-5.34 17.242,-7.369 0,-7.369 0,-5.34 								"/>
								<polygon fill="#CCCCCC" points="17.242,-1.939 17.242,-5.34 0,-5.34 0,-1.939 								"/>
								<polygon fill="#2B1F22" points="17.242,-11.814 17.242,-13.842 0,-13.842 0,-11.814 								"/>
								<polygon fill="#F4F0E9" points="17.242,-10.963 17.242,-11.814 0,-11.814 0,-10.963 								"/>
								<polygon fill="#444444" points="17.242,-9.889 17.242,-10.963 0,-10.963 0,-9.889 								"/>
								<polygon fill="#CCCCCC" points="17.321,-13.815 17.321,-17.215 0.08,-17.215 0.08,-13.815 								"/>
								<polygon fill="#F4F0E9" points="17.242,-9.74 17.242,-9.889 0,-9.889 0,-9.74 								"/>
								<polygon fill="#F4F0E9" points="17.242,-9.293 17.242,-9.441 0,-9.441 0,-9.293 								"/>
								<polygon fill="#CCCCCC" points="17.242,-1.85 17.242,-1.507 0,-1.507 0,-1.85 								"/>
								<polygon fill="#CCCCCC" points="17.242,-0.433 17.242,-0.09 0,-0.09 0,-0.433 								"/>
							</g>
						</g>
					</g>
				</g>
			</g>
		</g>
	</g>
</pattern>
<pattern  x="-46" y="550" width="17.241" height="17.241" patternUnits="userSpaceOnUse" id="SVGID_88_" viewBox="0 -17.242 17.241 17.241" overflow="visible">
	<g>
		<polygon fill="none" points="0,-0.001 17.241,-0.001 17.241,-17.242 0,-17.242 		"/>
		<g>
			<polygon fill="none" points="0,-17.242 17.241,-17.242 17.241,-0.001 0,-0.001 			"/>
			<g>
				<polygon fill="none" points="0,-17.242 17.242,-17.242 17.242,0 0,0 				"/>
				<g>
					<g>
						<polygon id="SVGID_10_" fill="#FFFFFF" points="0,-17.242 17.241,-17.242 17.241,-0.001 0,-0.001 						"/>
					</g>
					<g>
					</g>
					<g>
						<g>
							<defs>
								<rect id="SVGID_39_" x="0" y="-17.242" width="17.241" height="17.241"/>
							</defs>
							<clipPath id="SVGID_40_">
								<use xlink:href="#SVGID_39_"  overflow="visible"/>
							</clipPath>
						</g>
						<g>
							<defs>
								<rect id="SVGID_41_" x="0" y="-17.242" width="17.241" height="17.241"/>
							</defs>
							<defs>
								<rect id="SVGID_42_" x="0" y="-17.242" width="17.241" height="17.241"/>
							</defs>
							<clipPath id="SVGID_43_">
								<use xlink:href="#SVGID_41_"  overflow="visible"/>
							</clipPath>
							<clipPath id="SVGID_44_" clip-path="url(#SVGID_43_)">
								<use xlink:href="#SVGID_42_"  overflow="visible"/>
							</clipPath>
							<g clip-path="url(#SVGID_44_)">
								<polygon fill="#CCCCCC" points="7.799,-17.242 7.502,-17.242 7.502,0 7.799,0 								"/>
								<polygon fill="#444444" points="9.021,-17.242 7.949,-17.242 7.949,0 9.021,0 								"/>
								<polygon fill="#444444" points="16.809,-17.242 15.735,-17.242 15.735,0 16.809,0 								"/>
								<polygon fill="#444444" points="15.391,-17.242 15.303,-17.242 15.303,0 15.391,0 								"/>
								<polygon fill="#444444" points="17.242,-17.242 17.151,-17.242 17.151,0 17.242,0 								"/>
								<polygon fill="#B2B1B1" points="9.873,-17.242 9.021,-17.242 9.021,0 9.873,0 								"/>
								<polygon fill="#777677" points="11.902,-17.242 9.873,-17.242 9.873,0 11.902,0 								"/>
								<polygon fill="#CCCCCC" points="15.303,-17.242 11.902,-17.242 11.902,0 15.303,0 								"/>
								<polygon fill="#CCCCCC" points="3.401,-17.242 0,-17.242 0,0 3.401,0 								"/>
								<polygon fill="#777677" points="5.428,-17.242 3.401,-17.242 3.401,0 5.428,0 								"/>
								<polygon fill="#B2B1B1" points="6.278,-17.242 5.428,-17.242 5.428,0 6.278,0 								"/>
								<polygon fill="#444444" points="7.352,-17.242 6.278,-17.242 6.278,0 7.352,0 								"/>
								<polygon fill="#B2B1B1" points="7.502,-17.242 7.352,-17.242 7.352,0 7.502,0 								"/>
								<polygon fill="#B2B1B1" points="7.949,-17.242 7.799,-17.242 7.799,0 7.949,0 								"/>
								<polygon fill="#CCCCCC" points="15.391,-17.242 15.735,-17.242 15.735,0 15.391,0 								"/>
								<polygon fill="#CCCCCC" points="16.809,-17.242 17.151,-17.242 17.151,0 16.809,0 								"/>
							</g>
						</g>
					</g>
					<g>
						<g>
							<defs>
								<rect id="SVGID_45_" x="0" y="-17.242" width="17.241" height="17.241"/>
							</defs>
							<clipPath id="SVGID_46_">
								<use xlink:href="#SVGID_45_"  overflow="visible"/>
							</clipPath>
						</g>
						<g>
							<defs>
								<rect id="SVGID_47_" x="0" y="-17.242" width="17.241" height="17.241"/>
							</defs>
							<defs>
								<rect id="SVGID_48_" x="0" y="-17.242" width="17.241" height="17.241"/>
							</defs>
							<clipPath id="SVGID_49_">
								<use xlink:href="#SVGID_47_"  overflow="visible"/>
							</clipPath>
							<clipPath id="SVGID_50_" clip-path="url(#SVGID_49_)">
								<use xlink:href="#SVGID_48_"  overflow="visible"/>
							</clipPath>
							<g opacity="0.5" clip-path="url(#SVGID_50_)">
								<polygon fill="#CCCCCC" points="17.242,-9.441 17.242,-9.74 0,-9.74 0,-9.441 								"/>
								<polygon fill="#444444" points="17.242,-8.219 17.242,-9.293 0,-9.293 0,-8.219 								"/>
								<polygon fill="#444444" points="17.242,-0.433 17.242,-1.507 0,-1.507 0,-0.433 								"/>
								<polygon fill="#444444" points="17.242,-1.85 17.242,-1.939 0,-1.939 0,-1.85 								"/>
								<polygon fill="#444444" points="17.242,0 17.242,-0.09 0,-0.09 0,0 								"/>
								<polygon fill="#F4F0E9" points="17.242,-7.369 17.242,-8.219 0,-8.219 0,-7.369 								"/>
								<polygon fill="#2B1F22" points="17.242,-5.34 17.242,-7.369 0,-7.369 0,-5.34 								"/>
								<polygon fill="#CCCCCC" points="17.242,-1.939 17.242,-5.34 0,-5.34 0,-1.939 								"/>
								<polygon fill="#2B1F22" points="17.242,-11.814 17.242,-13.842 0,-13.842 0,-11.814 								"/>
								<polygon fill="#F4F0E9" points="17.242,-10.963 17.242,-11.814 0,-11.814 0,-10.963 								"/>
								<polygon fill="#444444" points="17.242,-9.889 17.242,-10.963 0,-10.963 0,-9.889 								"/>
								<polygon fill="#CCCCCC" points="17.321,-13.815 17.321,-17.215 0.08,-17.215 0.08,-13.815 								"/>
								<polygon fill="#F4F0E9" points="17.242,-9.74 17.242,-9.889 0,-9.889 0,-9.74 								"/>
								<polygon fill="#F4F0E9" points="17.242,-9.293 17.242,-9.441 0,-9.441 0,-9.293 								"/>
								<polygon fill="#CCCCCC" points="17.242,-1.85 17.242,-1.507 0,-1.507 0,-1.85 								"/>
								<polygon fill="#CCCCCC" points="17.242,-0.433 17.242,-0.09 0,-0.09 0,-0.433 								"/>
							</g>
						</g>
					</g>
				</g>
			</g>
		</g>
	</g>
</pattern>
<pattern  x="-46" y="550" width="17.241" height="17.241" patternUnits="userSpaceOnUse" id="SVGID_89_" viewBox="0 -17.242 17.241 17.241" overflow="visible">
	<g>
		<polygon fill="none" points="0,-0.001 17.241,-0.001 17.241,-17.242 0,-17.242 		"/>
		<g>
			<polygon fill="none" points="0,-17.242 17.241,-17.242 17.241,-0.001 0,-0.001 			"/>
			<g>
				<polygon fill="none" points="0,-17.242 17.242,-17.242 17.242,0 0,0 				"/>
				<g>
					<g>
						<polygon id="SVGID_11_" fill="#FFFFFF" points="0,-17.242 17.241,-17.242 17.241,-0.001 0,-0.001 						"/>
					</g>
					<g>
					</g>
					<g>
						<g>
							<defs>
								<rect id="SVGID_51_" x="0" y="-17.242" width="17.241" height="17.241"/>
							</defs>
							<clipPath id="SVGID_52_">
								<use xlink:href="#SVGID_51_"  overflow="visible"/>
							</clipPath>
						</g>
						<g>
							<defs>
								<rect id="SVGID_53_" x="0" y="-17.242" width="17.241" height="17.241"/>
							</defs>
							<defs>
								<rect id="SVGID_54_" x="0" y="-17.242" width="17.241" height="17.241"/>
							</defs>
							<clipPath id="SVGID_55_">
								<use xlink:href="#SVGID_53_"  overflow="visible"/>
							</clipPath>
							<clipPath id="SVGID_56_" clip-path="url(#SVGID_55_)">
								<use xlink:href="#SVGID_54_"  overflow="visible"/>
							</clipPath>
							<g clip-path="url(#SVGID_56_)">
								<polygon fill="#CCCCCC" points="7.799,-17.242 7.502,-17.242 7.502,0 7.799,0 								"/>
								<polygon fill="#444444" points="9.021,-17.242 7.949,-17.242 7.949,0 9.021,0 								"/>
								<polygon fill="#444444" points="16.809,-17.242 15.735,-17.242 15.735,0 16.809,0 								"/>
								<polygon fill="#444444" points="15.391,-17.242 15.303,-17.242 15.303,0 15.391,0 								"/>
								<polygon fill="#444444" points="17.242,-17.242 17.151,-17.242 17.151,0 17.242,0 								"/>
								<polygon fill="#B2B1B1" points="9.873,-17.242 9.021,-17.242 9.021,0 9.873,0 								"/>
								<polygon fill="#777677" points="11.902,-17.242 9.873,-17.242 9.873,0 11.902,0 								"/>
								<polygon fill="#CCCCCC" points="15.303,-17.242 11.902,-17.242 11.902,0 15.303,0 								"/>
								<polygon fill="#CCCCCC" points="3.401,-17.242 0,-17.242 0,0 3.401,0 								"/>
								<polygon fill="#777677" points="5.428,-17.242 3.401,-17.242 3.401,0 5.428,0 								"/>
								<polygon fill="#B2B1B1" points="6.278,-17.242 5.428,-17.242 5.428,0 6.278,0 								"/>
								<polygon fill="#444444" points="7.352,-17.242 6.278,-17.242 6.278,0 7.352,0 								"/>
								<polygon fill="#B2B1B1" points="7.502,-17.242 7.352,-17.242 7.352,0 7.502,0 								"/>
								<polygon fill="#B2B1B1" points="7.949,-17.242 7.799,-17.242 7.799,0 7.949,0 								"/>
								<polygon fill="#CCCCCC" points="15.391,-17.242 15.735,-17.242 15.735,0 15.391,0 								"/>
								<polygon fill="#CCCCCC" points="16.809,-17.242 17.151,-17.242 17.151,0 16.809,0 								"/>
							</g>
						</g>
					</g>
					<g>
						<g>
							<defs>
								<rect id="SVGID_57_" x="0" y="-17.242" width="17.241" height="17.241"/>
							</defs>
							<clipPath id="SVGID_58_">
								<use xlink:href="#SVGID_57_"  overflow="visible"/>
							</clipPath>
						</g>
						<g>
							<defs>
								<rect id="SVGID_59_" x="0" y="-17.242" width="17.241" height="17.241"/>
							</defs>
							<defs>
								<rect id="SVGID_60_" x="0" y="-17.242" width="17.241" height="17.241"/>
							</defs>
							<clipPath id="SVGID_61_">
								<use xlink:href="#SVGID_59_"  overflow="visible"/>
							</clipPath>
							<clipPath id="SVGID_62_" clip-path="url(#SVGID_61_)">
								<use xlink:href="#SVGID_60_"  overflow="visible"/>
							</clipPath>
							<g opacity="0.5" clip-path="url(#SVGID_62_)">
								<polygon fill="#CCCCCC" points="17.242,-9.441 17.242,-9.74 0,-9.74 0,-9.441 								"/>
								<polygon fill="#444444" points="17.242,-8.219 17.242,-9.293 0,-9.293 0,-8.219 								"/>
								<polygon fill="#444444" points="17.242,-0.433 17.242,-1.507 0,-1.507 0,-0.433 								"/>
								<polygon fill="#444444" points="17.242,-1.85 17.242,-1.939 0,-1.939 0,-1.85 								"/>
								<polygon fill="#444444" points="17.242,0 17.242,-0.09 0,-0.09 0,0 								"/>
								<polygon fill="#F4F0E9" points="17.242,-7.369 17.242,-8.219 0,-8.219 0,-7.369 								"/>
								<polygon fill="#2B1F22" points="17.242,-5.34 17.242,-7.369 0,-7.369 0,-5.34 								"/>
								<polygon fill="#CCCCCC" points="17.242,-1.939 17.242,-5.34 0,-5.34 0,-1.939 								"/>
								<polygon fill="#2B1F22" points="17.242,-11.814 17.242,-13.842 0,-13.842 0,-11.814 								"/>
								<polygon fill="#F4F0E9" points="17.242,-10.963 17.242,-11.814 0,-11.814 0,-10.963 								"/>
								<polygon fill="#444444" points="17.242,-9.889 17.242,-10.963 0,-10.963 0,-9.889 								"/>
								<polygon fill="#CCCCCC" points="17.321,-13.815 17.321,-17.215 0.08,-17.215 0.08,-13.815 								"/>
								<polygon fill="#F4F0E9" points="17.242,-9.74 17.242,-9.889 0,-9.889 0,-9.74 								"/>
								<polygon fill="#F4F0E9" points="17.242,-9.293 17.242,-9.441 0,-9.441 0,-9.293 								"/>
								<polygon fill="#CCCCCC" points="17.242,-1.85 17.242,-1.507 0,-1.507 0,-1.85 								"/>
								<polygon fill="#CCCCCC" points="17.242,-0.433 17.242,-0.09 0,-0.09 0,-0.433 								"/>
							</g>
						</g>
					</g>
				</g>
			</g>
		</g>
	</g>
</pattern>
<pattern  x="-46" y="550" width="17.241" height="17.241" patternUnits="userSpaceOnUse" id="SVGID_90_" viewBox="0 -17.242 17.241 17.241" overflow="visible">
	<g>
		<polygon fill="none" points="0,-0.001 17.241,-0.001 17.241,-17.242 0,-17.242 		"/>
		<g>
			<polygon fill="none" points="0,-17.242 17.241,-17.242 17.241,-0.001 0,-0.001 			"/>
			<g>
				<polygon fill="none" points="0,-17.242 17.242,-17.242 17.242,0 0,0 				"/>
				<g>
					<g>
						<polygon id="SVGID_12_" fill="#FFFFFF" points="0,-17.242 17.241,-17.242 17.241,-0.001 0,-0.001 						"/>
					</g>
					<g>
					</g>
					<g>
						<g>
							<defs>
								<rect id="SVGID_63_" x="0" y="-17.242" width="17.241" height="17.241"/>
							</defs>
							<clipPath id="SVGID_64_">
								<use xlink:href="#SVGID_63_"  overflow="visible"/>
							</clipPath>
						</g>
						<g>
							<defs>
								<rect id="SVGID_65_" x="0" y="-17.242" width="17.241" height="17.241"/>
							</defs>
							<defs>
								<rect id="SVGID_66_" x="0" y="-17.242" width="17.241" height="17.241"/>
							</defs>
							<clipPath id="SVGID_67_">
								<use xlink:href="#SVGID_65_"  overflow="visible"/>
							</clipPath>
							<clipPath id="SVGID_68_" clip-path="url(#SVGID_67_)">
								<use xlink:href="#SVGID_66_"  overflow="visible"/>
							</clipPath>
							<g clip-path="url(#SVGID_68_)">
								<polygon fill="#CCCCCC" points="7.799,-17.242 7.502,-17.242 7.502,0 7.799,0 								"/>
								<polygon fill="#444444" points="9.021,-17.242 7.949,-17.242 7.949,0 9.021,0 								"/>
								<polygon fill="#444444" points="16.809,-17.242 15.735,-17.242 15.735,0 16.809,0 								"/>
								<polygon fill="#444444" points="15.391,-17.242 15.303,-17.242 15.303,0 15.391,0 								"/>
								<polygon fill="#444444" points="17.242,-17.242 17.151,-17.242 17.151,0 17.242,0 								"/>
								<polygon fill="#B2B1B1" points="9.873,-17.242 9.021,-17.242 9.021,0 9.873,0 								"/>
								<polygon fill="#777677" points="11.902,-17.242 9.873,-17.242 9.873,0 11.902,0 								"/>
								<polygon fill="#CCCCCC" points="15.303,-17.242 11.902,-17.242 11.902,0 15.303,0 								"/>
								<polygon fill="#CCCCCC" points="3.401,-17.242 0,-17.242 0,0 3.401,0 								"/>
								<polygon fill="#777677" points="5.428,-17.242 3.401,-17.242 3.401,0 5.428,0 								"/>
								<polygon fill="#B2B1B1" points="6.278,-17.242 5.428,-17.242 5.428,0 6.278,0 								"/>
								<polygon fill="#444444" points="7.352,-17.242 6.278,-17.242 6.278,0 7.352,0 								"/>
								<polygon fill="#B2B1B1" points="7.502,-17.242 7.352,-17.242 7.352,0 7.502,0 								"/>
								<polygon fill="#B2B1B1" points="7.949,-17.242 7.799,-17.242 7.799,0 7.949,0 								"/>
								<polygon fill="#CCCCCC" points="15.391,-17.242 15.735,-17.242 15.735,0 15.391,0 								"/>
								<polygon fill="#CCCCCC" points="16.809,-17.242 17.151,-17.242 17.151,0 16.809,0 								"/>
							</g>
						</g>
					</g>
					<g>
						<g>
							<defs>
								<rect id="SVGID_69_" x="0" y="-17.242" width="17.241" height="17.241"/>
							</defs>
							<clipPath id="SVGID_70_">
								<use xlink:href="#SVGID_69_"  overflow="visible"/>
							</clipPath>
						</g>
						<g>
							<defs>
								<rect id="SVGID_71_" x="0" y="-17.242" width="17.241" height="17.241"/>
							</defs>
							<defs>
								<rect id="SVGID_72_" x="0" y="-17.242" width="17.241" height="17.241"/>
							</defs>
							<clipPath id="SVGID_73_">
								<use xlink:href="#SVGID_71_"  overflow="visible"/>
							</clipPath>
							<clipPath id="SVGID_74_" clip-path="url(#SVGID_73_)">
								<use xlink:href="#SVGID_72_"  overflow="visible"/>
							</clipPath>
							<g opacity="0.5" clip-path="url(#SVGID_74_)">
								<polygon fill="#CCCCCC" points="17.242,-9.441 17.242,-9.74 0,-9.74 0,-9.441 								"/>
								<polygon fill="#444444" points="17.242,-8.219 17.242,-9.293 0,-9.293 0,-8.219 								"/>
								<polygon fill="#444444" points="17.242,-0.433 17.242,-1.507 0,-1.507 0,-0.433 								"/>
								<polygon fill="#444444" points="17.242,-1.85 17.242,-1.939 0,-1.939 0,-1.85 								"/>
								<polygon fill="#444444" points="17.242,0 17.242,-0.09 0,-0.09 0,0 								"/>
								<polygon fill="#F4F0E9" points="17.242,-7.369 17.242,-8.219 0,-8.219 0,-7.369 								"/>
								<polygon fill="#2B1F22" points="17.242,-5.34 17.242,-7.369 0,-7.369 0,-5.34 								"/>
								<polygon fill="#CCCCCC" points="17.242,-1.939 17.242,-5.34 0,-5.34 0,-1.939 								"/>
								<polygon fill="#2B1F22" points="17.242,-11.814 17.242,-13.842 0,-13.842 0,-11.814 								"/>
								<polygon fill="#F4F0E9" points="17.242,-10.963 17.242,-11.814 0,-11.814 0,-10.963 								"/>
								<polygon fill="#444444" points="17.242,-9.889 17.242,-10.963 0,-10.963 0,-9.889 								"/>
								<polygon fill="#CCCCCC" points="17.321,-13.815 17.321,-17.215 0.08,-17.215 0.08,-13.815 								"/>
								<polygon fill="#F4F0E9" points="17.242,-9.74 17.242,-9.889 0,-9.889 0,-9.74 								"/>
								<polygon fill="#F4F0E9" points="17.242,-9.293 17.242,-9.441 0,-9.441 0,-9.293 								"/>
								<polygon fill="#CCCCCC" points="17.242,-1.85 17.242,-1.507 0,-1.507 0,-1.85 								"/>
								<polygon fill="#CCCCCC" points="17.242,-0.433 17.242,-0.09 0,-0.09 0,-0.433 								"/>
							</g>
						</g>
					</g>
				</g>
			</g>
		</g>
	</g>
</pattern>
<pattern  x="-46" y="550" width="17.241" height="17.241" patternUnits="userSpaceOnUse" id="SVGID_91_" viewBox="0 -17.242 17.241 17.241" overflow="visible">
	<g>
		<polygon fill="none" points="0,-0.001 17.241,-0.001 17.241,-17.242 0,-17.242 		"/>
		<g>
			<polygon fill="none" points="0,-17.242 17.241,-17.242 17.241,-0.001 0,-0.001 			"/>
			<g>
				<polygon fill="none" points="0,-17.242 17.242,-17.242 17.242,0 0,0 				"/>
				<g>
					<g>
						<polygon id="SVGID_13_" fill="#FFFFFF" points="0,-17.242 17.241,-17.242 17.241,-0.001 0,-0.001 						"/>
					</g>
					<g>
					</g>
					<g>
						<g>
							<defs>
								<rect id="SVGID_75_" x="0" y="-17.242" width="17.241" height="17.241"/>
							</defs>
							<clipPath id="SVGID_76_">
								<use xlink:href="#SVGID_75_"  overflow="visible"/>
							</clipPath>
						</g>
						<g>
							<defs>
								<rect id="SVGID_77_" x="0" y="-17.242" width="17.241" height="17.241"/>
							</defs>
							<defs>
								<rect id="SVGID_78_" x="0" y="-17.242" width="17.241" height="17.241"/>
							</defs>
							<clipPath id="SVGID_79_">
								<use xlink:href="#SVGID_77_"  overflow="visible"/>
							</clipPath>
							<clipPath id="SVGID_80_" clip-path="url(#SVGID_79_)">
								<use xlink:href="#SVGID_78_"  overflow="visible"/>
							</clipPath>
							<g clip-path="url(#SVGID_80_)">
								<polygon fill="#CCCCCC" points="7.799,-17.242 7.502,-17.242 7.502,0 7.799,0 								"/>
								<polygon fill="#444444" points="9.021,-17.242 7.949,-17.242 7.949,0 9.021,0 								"/>
								<polygon fill="#444444" points="16.809,-17.242 15.735,-17.242 15.735,0 16.809,0 								"/>
								<polygon fill="#444444" points="15.391,-17.242 15.303,-17.242 15.303,0 15.391,0 								"/>
								<polygon fill="#444444" points="17.242,-17.242 17.151,-17.242 17.151,0 17.242,0 								"/>
								<polygon fill="#B2B1B1" points="9.873,-17.242 9.021,-17.242 9.021,0 9.873,0 								"/>
								<polygon fill="#777677" points="11.902,-17.242 9.873,-17.242 9.873,0 11.902,0 								"/>
								<polygon fill="#CCCCCC" points="15.303,-17.242 11.902,-17.242 11.902,0 15.303,0 								"/>
								<polygon fill="#CCCCCC" points="3.401,-17.242 0,-17.242 0,0 3.401,0 								"/>
								<polygon fill="#777677" points="5.428,-17.242 3.401,-17.242 3.401,0 5.428,0 								"/>
								<polygon fill="#B2B1B1" points="6.278,-17.242 5.428,-17.242 5.428,0 6.278,0 								"/>
								<polygon fill="#444444" points="7.352,-17.242 6.278,-17.242 6.278,0 7.352,0 								"/>
								<polygon fill="#B2B1B1" points="7.502,-17.242 7.352,-17.242 7.352,0 7.502,0 								"/>
								<polygon fill="#B2B1B1" points="7.949,-17.242 7.799,-17.242 7.799,0 7.949,0 								"/>
								<polygon fill="#CCCCCC" points="15.391,-17.242 15.735,-17.242 15.735,0 15.391,0 								"/>
								<polygon fill="#CCCCCC" points="16.809,-17.242 17.151,-17.242 17.151,0 16.809,0 								"/>
							</g>
						</g>
					</g>
					<g>
						<g>
							<defs>
								<rect id="SVGID_81_" x="0" y="-17.242" width="17.241" height="17.241"/>
							</defs>
							<clipPath id="SVGID_82_">
								<use xlink:href="#SVGID_81_"  overflow="visible"/>
							</clipPath>
						</g>
						<g>
							<defs>
								<rect id="SVGID_83_" x="0" y="-17.242" width="17.241" height="17.241"/>
							</defs>
							<defs>
								<rect id="SVGID_84_" x="0" y="-17.242" width="17.241" height="17.241"/>
							</defs>
							<clipPath id="SVGID_85_">
								<use xlink:href="#SVGID_83_"  overflow="visible"/>
							</clipPath>
							<clipPath id="SVGID_93_" clip-path="url(#SVGID_85_)">
								<use xlink:href="#SVGID_84_"  overflow="visible"/>
							</clipPath>
							<g opacity="0.5" clip-path="url(#SVGID_93_)">
								<polygon fill="#CCCCCC" points="17.242,-9.441 17.242,-9.74 0,-9.74 0,-9.441 								"/>
								<polygon fill="#444444" points="17.242,-8.219 17.242,-9.293 0,-9.293 0,-8.219 								"/>
								<polygon fill="#444444" points="17.242,-0.433 17.242,-1.507 0,-1.507 0,-0.433 								"/>
								<polygon fill="#444444" points="17.242,-1.85 17.242,-1.939 0,-1.939 0,-1.85 								"/>
								<polygon fill="#444444" points="17.242,0 17.242,-0.09 0,-0.09 0,0 								"/>
								<polygon fill="#F4F0E9" points="17.242,-7.369 17.242,-8.219 0,-8.219 0,-7.369 								"/>
								<polygon fill="#2B1F22" points="17.242,-5.34 17.242,-7.369 0,-7.369 0,-5.34 								"/>
								<polygon fill="#CCCCCC" points="17.242,-1.939 17.242,-5.34 0,-5.34 0,-1.939 								"/>
								<polygon fill="#2B1F22" points="17.242,-11.814 17.242,-13.842 0,-13.842 0,-11.814 								"/>
								<polygon fill="#F4F0E9" points="17.242,-10.963 17.242,-11.814 0,-11.814 0,-10.963 								"/>
								<polygon fill="#444444" points="17.242,-9.889 17.242,-10.963 0,-10.963 0,-9.889 								"/>
								<polygon fill="#CCCCCC" points="17.321,-13.815 17.321,-17.215 0.08,-17.215 0.08,-13.815 								"/>
								<polygon fill="#F4F0E9" points="17.242,-9.74 17.242,-9.889 0,-9.889 0,-9.74 								"/>
								<polygon fill="#F4F0E9" points="17.242,-9.293 17.242,-9.441 0,-9.441 0,-9.293 								"/>
								<polygon fill="#CCCCCC" points="17.242,-1.85 17.242,-1.507 0,-1.507 0,-1.85 								"/>
								<polygon fill="#CCCCCC" points="17.242,-0.433 17.242,-0.09 0,-0.09 0,-0.433 								"/>
							</g>
						</g>
					</g>
				</g>
			</g>
		</g>
	</g>
</pattern>
<pattern  x="-46" y="550" width="17.241" height="17.241" patternUnits="userSpaceOnUse" id="SVGID_92_" viewBox="0 -17.242 17.241 17.241" overflow="visible">
	<g>
		<polygon fill="none" points="0,-0.001 17.241,-0.001 17.241,-17.242 0,-17.242 		"/>
		<g>
			<polygon fill="none" points="0,-17.242 17.241,-17.242 17.241,-0.001 0,-0.001 			"/>
			<g>
				<polygon fill="none" points="0,-17.242 17.242,-17.242 17.242,0 0,0 				"/>
				<g>
					<g>
						<polygon id="SVGID_14_" fill="#FFFFFF" points="0,-17.242 17.241,-17.242 17.241,-0.001 0,-0.001 						"/>
					</g>
					<g>
					</g>
					<g>
						<g>
							<defs>
								<rect id="SVGID_94_" x="0" y="-17.242" width="17.241" height="17.241"/>
							</defs>
							<clipPath id="SVGID_95_">
								<use xlink:href="#SVGID_94_"  overflow="visible"/>
							</clipPath>
						</g>
						<g>
							<defs>
								<rect id="SVGID_96_" x="0" y="-17.242" width="17.241" height="17.241"/>
							</defs>
							<defs>
								<rect id="SVGID_97_" x="0" y="-17.242" width="17.241" height="17.241"/>
							</defs>
							<clipPath id="SVGID_98_">
								<use xlink:href="#SVGID_96_"  overflow="visible"/>
							</clipPath>
							<clipPath id="SVGID_99_" clip-path="url(#SVGID_98_)">
								<use xlink:href="#SVGID_97_"  overflow="visible"/>
							</clipPath>
							<g clip-path="url(#SVGID_99_)">
								<polygon fill="#CCCCCC" points="7.799,-17.242 7.502,-17.242 7.502,0 7.799,0 								"/>
								<polygon fill="#444444" points="9.021,-17.242 7.949,-17.242 7.949,0 9.021,0 								"/>
								<polygon fill="#444444" points="16.809,-17.242 15.735,-17.242 15.735,0 16.809,0 								"/>
								<polygon fill="#444444" points="15.391,-17.242 15.303,-17.242 15.303,0 15.391,0 								"/>
								<polygon fill="#444444" points="17.242,-17.242 17.151,-17.242 17.151,0 17.242,0 								"/>
								<polygon fill="#B2B1B1" points="9.873,-17.242 9.021,-17.242 9.021,0 9.873,0 								"/>
								<polygon fill="#777677" points="11.902,-17.242 9.873,-17.242 9.873,0 11.902,0 								"/>
								<polygon fill="#CCCCCC" points="15.303,-17.242 11.902,-17.242 11.902,0 15.303,0 								"/>
								<polygon fill="#CCCCCC" points="3.401,-17.242 0,-17.242 0,0 3.401,0 								"/>
								<polygon fill="#777677" points="5.428,-17.242 3.401,-17.242 3.401,0 5.428,0 								"/>
								<polygon fill="#B2B1B1" points="6.278,-17.242 5.428,-17.242 5.428,0 6.278,0 								"/>
								<polygon fill="#444444" points="7.352,-17.242 6.278,-17.242 6.278,0 7.352,0 								"/>
								<polygon fill="#B2B1B1" points="7.502,-17.242 7.352,-17.242 7.352,0 7.502,0 								"/>
								<polygon fill="#B2B1B1" points="7.949,-17.242 7.799,-17.242 7.799,0 7.949,0 								"/>
								<polygon fill="#CCCCCC" points="15.391,-17.242 15.735,-17.242 15.735,0 15.391,0 								"/>
								<polygon fill="#CCCCCC" points="16.809,-17.242 17.151,-17.242 17.151,0 16.809,0 								"/>
							</g>
						</g>
					</g>
					<g>
						<g>
							<defs>
								<rect id="SVGID_100_" x="0" y="-17.242" width="17.241" height="17.241"/>
							</defs>
							<clipPath id="SVGID_101_">
								<use xlink:href="#SVGID_100_"  overflow="visible"/>
							</clipPath>
						</g>
						<g>
							<defs>
								<rect id="SVGID_102_" x="0" y="-17.242" width="17.241" height="17.241"/>
							</defs>
							<defs>
								<rect id="SVGID_103_" x="0" y="-17.242" width="17.241" height="17.241"/>
							</defs>
							<clipPath id="SVGID_104_">
								<use xlink:href="#SVGID_102_"  overflow="visible"/>
							</clipPath>
							<clipPath id="SVGID_105_" clip-path="url(#SVGID_104_)">
								<use xlink:href="#SVGID_103_"  overflow="visible"/>
							</clipPath>
							<g opacity="0.5" clip-path="url(#SVGID_105_)">
								<polygon fill="#CCCCCC" points="17.242,-9.441 17.242,-9.74 0,-9.74 0,-9.441 								"/>
								<polygon fill="#444444" points="17.242,-8.219 17.242,-9.293 0,-9.293 0,-8.219 								"/>
								<polygon fill="#444444" points="17.242,-0.433 17.242,-1.507 0,-1.507 0,-0.433 								"/>
								<polygon fill="#444444" points="17.242,-1.85 17.242,-1.939 0,-1.939 0,-1.85 								"/>
								<polygon fill="#444444" points="17.242,0 17.242,-0.09 0,-0.09 0,0 								"/>
								<polygon fill="#F4F0E9" points="17.242,-7.369 17.242,-8.219 0,-8.219 0,-7.369 								"/>
								<polygon fill="#2B1F22" points="17.242,-5.34 17.242,-7.369 0,-7.369 0,-5.34 								"/>
								<polygon fill="#CCCCCC" points="17.242,-1.939 17.242,-5.34 0,-5.34 0,-1.939 								"/>
								<polygon fill="#2B1F22" points="17.242,-11.814 17.242,-13.842 0,-13.842 0,-11.814 								"/>
								<polygon fill="#F4F0E9" points="17.242,-10.963 17.242,-11.814 0,-11.814 0,-10.963 								"/>
								<polygon fill="#444444" points="17.242,-9.889 17.242,-10.963 0,-10.963 0,-9.889 								"/>
								<polygon fill="#CCCCCC" points="17.321,-13.815 17.321,-17.215 0.08,-17.215 0.08,-13.815 								"/>
								<polygon fill="#F4F0E9" points="17.242,-9.74 17.242,-9.889 0,-9.889 0,-9.74 								"/>
								<polygon fill="#F4F0E9" points="17.242,-9.293 17.242,-9.441 0,-9.441 0,-9.293 								"/>
								<polygon fill="#CCCCCC" points="17.242,-1.85 17.242,-1.507 0,-1.507 0,-1.85 								"/>
								<polygon fill="#CCCCCC" points="17.242,-0.433 17.242,-0.09 0,-0.09 0,-0.433 								"/>
							</g>
						</g>
					</g>
				</g>
			</g>
		</g>
	</g>
</pattern>
<g>
	<path fill="#FBFAFF" d="M284.656,984.65c-0.168-1.168-0.895-0.255-2.515-1.298c-4.169-2.689-10.823-5.299-15.283-8.37
		c-2.785,0.103-5.513-0.133-8.302-0.315c-1.766-0.113-4.417-0.566-6.073-1.023c-1.176,5.884,0.981,9.065,6.799,10.578
		c6.486,1.688,12.769,7.785,19.496,7.969C282.598,992.296,285.401,989.86,284.656,984.65z"/>
	<path fill="#A965A5" d="M282.155,980.969c-0.103-0.072-0.187-0.147-0.297-0.217c-6.579-4.24-19.348-8.287-19.912-14.259
		c-0.564-5.977-8.832,0.385-8.832,0.385c-1.287,8.197-1.561,12.806,5.883,14.744c4.367,1.138,8.646,4.267,13.026,6.25
		C273.529,983.405,277.913,981.622,282.155,980.969z"/>
	<path fill="#A965A5" d="M282.155,980.969c-4.242,0.653-8.626,2.438-10.129,6.902c2.124,0.963,4.273,1.659,6.47,1.719
		C283.74,989.732,287.371,984.619,282.155,980.969z"/>
	<path fill="#FBFAFF" d="M278.709,988.951l-0.196-0.005c-1.717-0.044-3.536-0.5-5.687-1.421c1.305-3.119,4.386-5.093,9.174-5.883
		c1.685,1.256,2.376,2.725,1.94,4.167C283.392,987.629,281.195,988.951,278.709,988.951L278.709,988.951z"/>
	<ellipse fill="#FBFAFF" cx="256.315" cy="974.754" rx="1.784" ry="1.831"/>
	<g>
		<path fill="#FBFAFF" d="M262.757,973.724c0,0.478-0.378,0.865-0.843,0.865c-0.464,0-0.844-0.386-0.844-0.865
			c0-0.474,0.379-0.863,0.844-0.863C262.38,972.862,262.757,973.249,262.757,973.724z"/>
		<path fill="#FBFAFF" d="M265.533,975.92c0,0.478-0.378,0.865-0.843,0.865c-0.464,0-0.843-0.387-0.843-0.865
			c0-0.473,0.379-0.863,0.843-0.863C265.158,975.058,265.533,975.447,265.533,975.92z"/>
		<path fill="#FBFAFF" d="M268.311,978.118c0,0.478-0.378,0.865-0.843,0.865c-0.464,0-0.842-0.387-0.842-0.865
			c0-0.474,0.379-0.863,0.842-0.863C267.934,977.255,268.311,977.644,268.311,978.118z"/>
		<path fill="#FBFAFF" d="M271.087,980.315c0,0.478-0.378,0.865-0.843,0.865c-0.464,0-0.841-0.386-0.841-0.865
			c0-0.473,0.378-0.863,0.841-0.863C270.711,979.453,271.087,979.841,271.087,980.315z"/>
		<path fill="#FBFAFF" d="M273.865,982.513c0,0.478-0.378,0.865-0.844,0.865c-0.463,0-0.841-0.386-0.841-0.865
			c0-0.473,0.378-0.863,0.841-0.863C273.488,981.65,273.865,982.038,273.865,982.513z"/>
	</g>
	<g>
		<g>
			<path fill="#FFFFFF" d="M272.945,982.662c-0.202-0.115-0.271-0.375-0.161-0.579l0,0c1.154-2.117,3.176-2.951,4.836-2.944l0,0
				c0.331,0,0.655,0.031,0.962,0.097l0,0c0.222,0.051,0.365,0.275,0.316,0.504l0,0c-0.048,0.231-0.267,0.376-0.49,0.326l0,0
				c-0.244-0.053-0.508-0.08-0.788-0.077l0,0c-1.407,0.002-3.126,0.694-4.112,2.508l0,0l0.003,0.003
				c-0.079,0.138-0.221,0.215-0.363,0.215l0,0C273.077,982.715,273.009,982.698,272.945,982.662L272.945,982.662z"/>
		</g>
		<g>
			<path fill="#FFFFFF" d="M270.172,980.465c-0.198-0.12-0.263-0.382-0.144-0.582l0,0c1.064-1.849,2.863-2.606,4.41-2.6l0,0
				c0.301,0,0.599,0.026,0.881,0.084l0,0c0.227,0.045,0.369,0.27,0.327,0.5l0,0c-0.044,0.23-0.263,0.38-0.484,0.334l0,0
				c-0.228-0.047-0.474-0.07-0.724-0.07l0,0c-1.301,0.002-2.798,0.622-3.699,2.184l0,0l0.003,0.002
				c-0.079,0.133-0.217,0.208-0.356,0.208l0,0C270.31,980.525,270.238,980.506,270.172,980.465L270.172,980.465z"/>
		</g>
		<g>
			<path fill="#FFFFFF" d="M267.394,978.267c-0.192-0.128-0.249-0.392-0.125-0.587l0,0c0.975-1.574,2.551-2.259,3.99-2.256l0,0
				c0.266,0,0.537,0.022,0.801,0.072l0,0c0.225,0.045,0.373,0.265,0.331,0.497l0,0c-0.042,0.231-0.257,0.383-0.484,0.337l0,0
				c-0.207-0.037-0.425-0.056-0.648-0.056l0,0c-1.195,0.002-2.476,0.549-3.29,1.86l0,0h0.001c-0.077,0.129-0.214,0.197-0.352,0.197
				l0,0C267.541,978.334,267.464,978.313,267.394,978.267L267.394,978.267z"/>
		</g>
		<g>
			<path fill="#FFFFFF" d="M264.616,976.066c-0.189-0.136-0.233-0.4-0.105-0.595l0,0c0.889-1.296,2.239-1.908,3.571-1.903l0,0
				c0.233,0,0.472,0.017,0.717,0.059l0,0c0.223,0.039,0.374,0.26,0.337,0.493l0,0c-0.04,0.229-0.253,0.385-0.477,0.345l0,0
				c-0.191-0.034-0.38-0.046-0.576-0.045l0,0c-1.096,0.003-2.158,0.479-2.89,1.543l0,0l0.001,0.002
				c-0.08,0.118-0.209,0.18-0.341,0.18l0,0C264.771,976.145,264.688,976.118,264.616,976.066L264.616,976.066z"/>
		</g>
		<g>
			<path fill="#FFFFFF" d="M261.829,973.859c-0.179-0.149-0.207-0.417-0.062-0.599l0,0c0.789-1.009,1.908-1.549,3.141-1.548l0,0
				c0.199,0,0.407,0.013,0.624,0.05l0,0c0.228,0.034,0.38,0.25,0.347,0.479l0,0c-0.035,0.234-0.247,0.394-0.471,0.357l0,0
				c-0.169-0.024-0.336-0.035-0.502-0.035l0,0c-1.002,0.005-1.845,0.413-2.497,1.232l0,0c-0.082,0.105-0.201,0.159-0.322,0.159l0,0
				C261.997,973.953,261.905,973.923,261.829,973.859L261.829,973.859z"/>
		</g>
	</g>
</g>
<g>
	<path fill="#FBFAFF" d="M202.788,984.65c0.167-1.168,0.896-0.255,2.514-1.298c4.17-2.689,10.826-5.299,15.284-8.37
		c2.785,0.103,5.512-0.133,8.3-0.315c1.768-0.113,4.394-0.879,6.049-1.335c1.174,5.884-0.955,9.377-6.774,10.891
		c-6.483,1.688-12.771,7.785-19.494,7.969C204.843,992.296,202.045,989.86,202.788,984.65z"/>
	<path fill="#A965A5" d="M205.289,980.969c0.103-0.072,0.187-0.147,0.298-0.217c6.577-4.24,19.348-8.287,19.91-14.259
		c0.566-5.977,8.834,0.385,8.834,0.385c1.289,8.197,1.559,12.806-5.884,14.744c-4.366,1.138-8.644,4.267-13.026,6.25
		C213.915,983.405,209.53,981.622,205.289,980.969z"/>
	<path fill="#A965A5" d="M205.289,980.969c4.241,0.653,8.627,2.438,10.131,6.902c-2.125,0.963-4.275,1.659-6.471,1.719
		C203.705,989.732,200.072,984.619,205.289,980.969z"/>
	<path fill="#FBFAFF" d="M208.736,988.951l0.196-0.005c1.715-0.044,3.537-0.5,5.687-1.421c-1.303-3.119-4.386-5.093-9.175-5.883
		c-1.687,1.256-2.374,2.725-1.937,4.167C204.053,987.629,206.25,988.951,208.736,988.951L208.736,988.951z"/>
	<ellipse fill="#FBFAFF" cx="231.129" cy="974.754" rx="1.784" ry="1.831"/>
	<g>
		<path fill="#FBFAFF" d="M224.687,973.724c0,0.478,0.376,0.865,0.843,0.865c0.464,0,0.839-0.386,0.839-0.865
			c0-0.474-0.376-0.863-0.839-0.863C225.062,972.862,224.687,973.249,224.687,973.724z"/>
		<path fill="#FBFAFF" d="M221.909,975.92c0,0.478,0.376,0.865,0.842,0.865c0.465,0,0.839-0.387,0.839-0.865
			c0-0.473-0.376-0.863-0.839-0.863C222.285,975.058,221.909,975.447,221.909,975.92z"/>
		<path fill="#FBFAFF" d="M219.133,978.118c0,0.478,0.376,0.865,0.842,0.865c0.465,0,0.841-0.387,0.841-0.865
			c0-0.474-0.376-0.863-0.841-0.863C219.509,977.255,219.133,977.644,219.133,978.118z"/>
		<path fill="#FBFAFF" d="M216.356,980.315c0,0.478,0.376,0.865,0.842,0.865c0.465,0,0.841-0.386,0.841-0.865
			c0-0.473-0.376-0.863-0.841-0.863C216.731,979.453,216.356,979.841,216.356,980.315z"/>
		<path fill="#FBFAFF" d="M213.579,982.513c0,0.478,0.376,0.865,0.841,0.865c0.466,0,0.841-0.386,0.841-0.865
			c0-0.473-0.376-0.863-0.841-0.863C213.955,981.65,213.579,982.038,213.579,982.513z"/>
	</g>
	<g>
		<g>
			<path fill="#FFFFFF" d="M214.497,982.662c0.201-0.115,0.273-0.375,0.162-0.579l0,0c-1.156-2.117-3.176-2.951-4.836-2.944l0,0
				c-0.334,0-0.657,0.031-0.962,0.097l0,0c-0.224,0.051-0.365,0.275-0.316,0.504l0,0c0.045,0.231,0.266,0.376,0.49,0.326l0,0
				c0.241-0.053,0.507-0.08,0.788-0.077l0,0c1.407,0.002,3.123,0.694,4.111,2.508l0,0l-0.003,0.003
				c0.075,0.138,0.219,0.215,0.363,0.215l0,0C214.362,982.715,214.434,982.698,214.497,982.662L214.497,982.662z"/>
		</g>
		<g>
			<path fill="#FFFFFF" d="M217.272,980.465c0.198-0.12,0.263-0.382,0.146-0.582l0,0c-1.065-1.849-2.865-2.606-4.411-2.6l0,0
				c-0.304,0-0.601,0.026-0.883,0.084l0,0c-0.226,0.045-0.371,0.27-0.326,0.5l0,0c0.042,0.23,0.263,0.38,0.485,0.334l0,0
				c0.228-0.047,0.469-0.07,0.723-0.07l0,0c1.298,0.002,2.795,0.622,3.696,2.184l0,0l-0.001,0.002
				c0.078,0.133,0.215,0.208,0.358,0.208l0,0C217.133,980.525,217.204,980.506,217.272,980.465L217.272,980.465z"/>
		</g>
		<g>
			<path fill="#FFFFFF" d="M220.049,978.267c0.195-0.128,0.248-0.392,0.125-0.587l0,0c-0.974-1.574-2.551-2.259-3.989-2.256l0,0
				c-0.268,0-0.537,0.022-0.803,0.072l0,0c-0.225,0.045-0.373,0.265-0.329,0.497l0,0c0.041,0.231,0.258,0.383,0.484,0.337l0,0
				c0.206-0.037,0.425-0.056,0.648-0.056l0,0c1.195,0.002,2.475,0.549,3.29,1.86l0,0h-0.003c0.081,0.129,0.218,0.197,0.353,0.197
				l0,0C219.905,978.334,219.981,978.313,220.049,978.267L220.049,978.267z"/>
		</g>
		<g>
			<path fill="#FFFFFF" d="M222.829,976.066c0.186-0.136,0.231-0.4,0.1-0.595l0,0c-0.883-1.296-2.235-1.908-3.569-1.903l0,0
				c-0.231,0-0.472,0.017-0.716,0.059l0,0c-0.223,0.039-0.374,0.26-0.337,0.493l0,0c0.04,0.229,0.253,0.385,0.481,0.345l0,0
				c0.185-0.034,0.377-0.046,0.572-0.045l0,0c1.097,0.003,2.161,0.479,2.891,1.543l0,0l-0.003,0.002
				c0.083,0.118,0.212,0.18,0.342,0.18l0,0C222.673,976.145,222.755,976.118,222.829,976.066L222.829,976.066z"/>
		</g>
		<g>
			<path fill="#FFFFFF" d="M225.614,973.859c0.177-0.149,0.207-0.417,0.063-0.599l0,0c-0.791-1.01-1.91-1.549-3.141-1.548l0,0
				c-0.201,0-0.41,0.013-0.627,0.05l0,0c-0.227,0.034-0.379,0.25-0.346,0.479l0,0c0.033,0.234,0.244,0.394,0.471,0.357l0,0
				c0.168-0.024,0.334-0.035,0.502-0.035l0,0c1,0.005,1.845,0.413,2.497,1.232l0,0c0.082,0.105,0.201,0.159,0.322,0.159l0,0
				C225.446,973.953,225.539,973.923,225.614,973.859L225.614,973.859z"/>
		</g>
	</g>
</g>
<path fill="#DDB98E" d="M259.454,811.028c-3.972-2.336-8.55-3.681-13.273-3.681h-4.531c-5.062,0-9.959,1.547-14.119,4.203
	l17.499,26.043L259.454,811.028z"/>
<pattern  id="SVGID_106_" xlink:href="#SVGID_86_" patternTransform="matrix(2.9349 0 0 2.9349 26021.9141 84652.7813)">
</pattern>
<path fill="url(#SVGID_106_)" d="M259.454,811.028l-14.425,26.564l2.764,4.116l-2.764-4.116l-3.271,6.02l3.272-6.019l-17.499-26.043
	c-7.056,4.501-11.988,12.175-11.988,20.891v54.831h56.743v-54.831C272.288,823.378,266.957,815.437,259.454,811.028z"/>
<pattern  id="SVGID_107_" xlink:href="#SVGID_87_" patternTransform="matrix(2.9349 0 0 2.9349 26021.9141 84652.7813)">
</pattern>
<polygon fill="url(#SVGID_107_)" points="227.681,809.971 223.041,815.049 234.798,838.851 240.368,829.966 "/>
<pattern  id="SVGID_108_" xlink:href="#SVGID_88_" patternTransform="matrix(2.9349 0 0 2.9349 26021.9141 84652.7813)">
</pattern>
<polygon fill="url(#SVGID_108_)" points="259.725,810.375 265.469,815.56 254.291,838.851 248.81,830.762 "/>
<pattern  id="SVGID_109_" xlink:href="#SVGID_89_" patternTransform="matrix(2.9349 0 0 2.9349 26021.9141 84652.7813)">
</pattern>
<polygon fill="url(#SVGID_109_)" points="227.681,809.971 223.041,815.049 234.798,838.851 240.368,829.966 "/>
<pattern  id="SVGID_110_" xlink:href="#SVGID_90_" patternTransform="matrix(2.9349 0 0 2.9349 26021.9141 84652.7813)">
</pattern>
<polygon fill="url(#SVGID_110_)" points="259.725,810.375 265.469,815.56 254.291,838.851 248.81,830.762 "/>
<g>
	<g>
		<polygon fill="#36162D" points="272.282,885.364 215.538,884.551 215.907,890.267 271.953,890.267 		"/>
		<path fill="#F99C1E" d="M215.907,890.267l3.344,74.158h18.979l1.856-38.407c0-2.166,1.712-3.922,3.821-3.922
			c2.113,0,3.824,1.756,3.824,3.922l1.856,38.407h18.979l3.387-74.158C271.952,890.267,215.907,890.267,215.907,890.267z"/>
	</g>
</g>
<ellipse fill="#DDB98E" cx="244.389" cy="778.993" rx="30.801" ry="31.597"/>
<g>
	<g>
		<path fill="#36162D" d="M234.44,781.369c-0.713-1.874-2.327-2.755-4.071-2.769l0,0c-1.723,0.002-3.468,0.908-4.342,2.645l0,0l0,0
			c-0.186,0.368-0.63,0.512-0.988,0.322l0,0c-0.359-0.191-0.501-0.644-0.314-1.014l0,0c1.158-2.287,3.435-3.458,5.645-3.456l0,0
			c2.231-0.014,4.5,1.225,5.438,3.731l0,0c0.145,0.388-0.041,0.824-0.419,0.973l0,0c-0.087,0.035-0.176,0.052-0.265,0.052l0,0
			C234.829,781.849,234.553,781.667,234.44,781.369L234.44,781.369z"/>
	</g>
</g>
<g>
	<path fill="#36162D" d="M261.268,781.369c-0.714-1.875-2.327-2.755-4.07-2.769l0,0c-1.722,0.002-3.465,0.908-4.339,2.645l0,0
		c-0.186,0.369-0.629,0.514-0.988,0.323l0,0c-0.359-0.191-0.501-0.645-0.314-1.014l0,0c1.156-2.287,3.432-3.459,5.642-3.457l0,0
		c2.23-0.013,4.499,1.225,5.438,3.731l0,0c0.145,0.388-0.041,0.824-0.419,0.973l0,0c-0.087,0.034-0.176,0.051-0.264,0.051l0,0
		C261.659,781.85,261.381,781.667,261.268,781.369L261.268,781.369z"/>
</g>
<g>
	<g>
		<path fill="#553305" d="M220.662,776.328l2.137,1.841c0.155,0.132,0.385,0.112,0.516-0.045c0.128-0.16,0.11-0.399-0.045-0.534
			l-2.136-1.839c-0.156-0.132-0.386-0.112-0.518,0.047C220.486,775.957,220.509,776.194,220.662,776.328L220.662,776.328z"/>
		<path fill="#553305" d="M221.638,775.137l1.813,2.173c0.134,0.159,0.363,0.177,0.518,0.042c0.153-0.135,0.171-0.373,0.041-0.531
			l-1.815-2.173c-0.131-0.157-0.361-0.175-0.517-0.04C221.526,774.742,221.506,774.98,221.638,775.137L221.638,775.137z"/>
		<path fill="#553305" d="M222.814,774.26l1.537,2.391c0.112,0.172,0.339,0.221,0.507,0.106c0.171-0.115,0.218-0.348,0.104-0.521
			l-1.537-2.386c-0.111-0.175-0.337-0.223-0.508-0.109C222.75,773.853,222.703,774.087,222.814,774.26L222.814,774.26z"/>
		<path fill="#553305" d="M224.024,773.44l1.245,2.563c0.091,0.186,0.311,0.26,0.492,0.17c0.18-0.094,0.253-0.321,0.165-0.506
			l-1.247-2.56c-0.089-0.186-0.307-0.262-0.49-0.169C224.007,773.029,223.934,773.253,224.024,773.44L224.024,773.44z"/>
		<path fill="#553305" d="M225.34,772.865l0.975,2.681c0.069,0.196,0.279,0.294,0.471,0.22c0.189-0.071,0.286-0.289,0.214-0.483
			l-0.973-2.684c-0.071-0.194-0.283-0.292-0.473-0.219C225.363,772.452,225.269,772.669,225.34,772.865L225.34,772.865z"/>
		<path fill="#553305" d="M226.676,772.352l0.694,2.775c0.049,0.199,0.249,0.321,0.444,0.268c0.198-0.05,0.316-0.255,0.265-0.457
			l-0.693-2.773c-0.049-0.199-0.25-0.322-0.447-0.269C226.746,771.947,226.627,772.152,226.676,772.352L226.676,772.352z"/>
		<path fill="#553305" d="M228.08,772.062l0.402,2.831c0.03,0.208,0.216,0.348,0.417,0.318c0.2-0.028,0.339-0.22,0.309-0.427
			l-0.402-2.833c-0.03-0.205-0.217-0.348-0.416-0.317C228.19,771.666,228.05,771.857,228.08,772.062L228.08,772.062z"/>
		<path fill="#553305" d="M229.496,771.855l0.099,2.861c0.006,0.206,0.175,0.369,0.379,0.361c0.204-0.008,0.361-0.181,0.355-0.39
			l-0.099-2.859c-0.006-0.21-0.177-0.37-0.38-0.363C229.648,771.47,229.49,771.645,229.496,771.855L229.496,771.855z"/>
		<path fill="#553305" d="M230.947,771.878l-0.239,2.85c-0.018,0.209,0.134,0.39,0.334,0.407c0.201,0.019,0.379-0.135,0.397-0.342
			l0.24-2.852c0.015-0.208-0.134-0.389-0.335-0.408C231.143,771.517,230.964,771.671,230.947,771.878L230.947,771.878z"/>
		<path fill="#553305" d="M232.396,772.021l-0.592,2.797c-0.043,0.202,0.085,0.404,0.28,0.448c0.198,0.042,0.393-0.087,0.436-0.289
			l0.592-2.799c0.041-0.202-0.086-0.402-0.28-0.448C232.632,771.687,232.439,771.818,232.396,772.021L232.396,772.021z"/>
		<path fill="#553305" d="M233.829,772.425l-0.983,2.678c-0.071,0.193,0.026,0.411,0.214,0.485c0.191,0.073,0.402-0.025,0.474-0.219
			l0.981-2.681c0.072-0.194-0.025-0.41-0.214-0.485C234.112,772.132,233.901,772.231,233.829,772.425L233.829,772.425z"/>
		<path fill="#553305" d="M235.205,772.995l-1.367,2.496c-0.099,0.181-0.038,0.408,0.141,0.511c0.174,0.101,0.398,0.037,0.496-0.143
			l1.369-2.495c0.096-0.182,0.035-0.411-0.141-0.515C235.529,772.749,235.303,772.814,235.205,772.995L235.205,772.995z"/>
		<path fill="#553305" d="M236.484,773.833l-1.754,2.227c-0.125,0.162-0.1,0.399,0.055,0.528c0.158,0.13,0.388,0.108,0.517-0.057
			l1.751-2.226c0.126-0.162,0.101-0.401-0.056-0.53C236.839,773.645,236.609,773.669,236.484,773.833L236.484,773.833z"/>
		<path fill="#553305" d="M237.611,774.832l-2.077,1.911c-0.149,0.14-0.163,0.376-0.029,0.53c0.136,0.157,0.368,0.17,0.52,0.031
			l2.075-1.911c0.149-0.14,0.163-0.376,0.028-0.531C237.994,774.707,237.761,774.693,237.611,774.832L237.611,774.832z"/>
		<path fill="#553305" d="M238.542,776.042l-2.345,1.552c-0.17,0.114-0.217,0.346-0.111,0.52c0.113,0.174,0.338,0.225,0.508,0.114
			l2.344-1.554c0.171-0.112,0.221-0.346,0.109-0.52C238.938,775.978,238.711,775.93,238.542,776.042L238.542,776.042z"/>
		<path fill="#553305" d="M247.492,776.328l2.136,1.841c0.155,0.132,0.386,0.112,0.516-0.045c0.13-0.16,0.111-0.399-0.044-0.534
			l-2.137-1.839c-0.155-0.132-0.385-0.112-0.517,0.047C247.316,775.957,247.334,776.194,247.492,776.328L247.492,776.328z"/>
		<path fill="#553305" d="M248.466,775.137l1.817,2.173c0.13,0.159,0.362,0.177,0.515,0.042c0.156-0.135,0.172-0.373,0.041-0.531
			l-1.814-2.173c-0.131-0.157-0.362-0.175-0.518-0.04C248.354,774.742,248.334,774.98,248.466,775.137L248.466,775.137z"/>
		<path fill="#553305" d="M249.644,774.26l1.537,2.391c0.111,0.172,0.34,0.219,0.508,0.106c0.17-0.115,0.216-0.348,0.105-0.523
			l-1.537-2.385c-0.113-0.175-0.341-0.223-0.509-0.109C249.578,773.853,249.532,774.087,249.644,774.26L249.644,774.26z"/>
		<path fill="#553305" d="M250.854,773.44l1.245,2.563c0.09,0.186,0.31,0.26,0.49,0.17c0.181-0.094,0.256-0.321,0.166-0.506
			l-1.247-2.56c-0.089-0.186-0.307-0.262-0.49-0.169C250.834,773.029,250.763,773.253,250.854,773.44L250.854,773.44z"/>
		<path fill="#553305" d="M252.168,772.865l0.973,2.681c0.072,0.196,0.282,0.294,0.471,0.22c0.191-0.071,0.289-0.289,0.217-0.483
			l-0.976-2.684c-0.069-0.194-0.279-0.292-0.469-0.219C252.194,772.452,252.096,772.669,252.168,772.865L252.168,772.865z"/>
		<path fill="#553305" d="M253.505,772.352l0.694,2.775c0.049,0.199,0.25,0.321,0.444,0.268c0.198-0.05,0.316-0.255,0.267-0.457
			l-0.694-2.773c-0.049-0.199-0.249-0.322-0.444-0.269C253.573,771.947,253.455,772.152,253.505,772.352L253.505,772.352z"/>
		<path fill="#553305" d="M254.907,772.062l0.405,2.831c0.027,0.208,0.216,0.348,0.415,0.318c0.2-0.028,0.338-0.22,0.309-0.427
			l-0.4-2.833c-0.032-0.205-0.218-0.348-0.418-0.317C255.016,771.666,254.878,771.857,254.907,772.062L254.907,772.062z"/>
		<path fill="#553305" d="M256.325,771.855l0.098,2.861c0.006,0.206,0.177,0.369,0.38,0.361c0.203-0.008,0.36-0.181,0.352-0.39
			l-0.096-2.859c-0.01-0.21-0.178-0.37-0.38-0.363C256.476,771.47,256.319,771.645,256.325,771.855L256.325,771.855z"/>
		<path fill="#553305" d="M257.775,771.878l-0.239,2.85c-0.014,0.209,0.131,0.39,0.334,0.407c0.201,0.019,0.38-0.135,0.397-0.342
			l0.239-2.852c0.017-0.208-0.132-0.389-0.333-0.408C257.97,771.517,257.793,771.671,257.775,771.878L257.775,771.878z"/>
		<path fill="#553305" d="M259.224,772.021l-0.592,2.797c-0.043,0.202,0.084,0.404,0.28,0.448c0.2,0.043,0.393-0.084,0.436-0.289
			l0.592-2.799c0.041-0.201-0.084-0.402-0.28-0.448C259.461,771.689,259.268,771.818,259.224,772.021L259.224,772.021z"/>
		<path fill="#553305" d="M260.656,772.425l-0.983,2.678c-0.072,0.196,0.025,0.411,0.214,0.485c0.191,0.073,0.402-0.025,0.473-0.219
			l0.983-2.681c0.072-0.194-0.025-0.41-0.214-0.485C260.939,772.132,260.729,772.231,260.656,772.425L260.656,772.425z"/>
		<path fill="#553305" d="M262.033,772.995l-1.368,2.496c-0.099,0.181-0.036,0.408,0.14,0.511c0.176,0.101,0.4,0.037,0.499-0.143
			l1.368-2.495c0.1-0.18,0.038-0.41-0.138-0.515C262.356,772.749,262.134,772.814,262.033,772.995L262.033,772.995z"/>
		<path fill="#553305" d="M263.31,773.833l-1.753,2.227c-0.125,0.162-0.101,0.399,0.055,0.528c0.158,0.13,0.388,0.108,0.517-0.057
			l1.751-2.226c0.128-0.162,0.101-0.401-0.055-0.53C263.667,773.645,263.436,773.669,263.31,773.833L263.31,773.833z"/>
		<path fill="#553305" d="M264.439,774.832l-2.075,1.911c-0.153,0.14-0.166,0.376-0.031,0.53c0.136,0.157,0.367,0.17,0.517,0.031
			l2.076-1.911c0.154-0.14,0.166-0.376,0.031-0.531C264.823,774.707,264.589,774.693,264.439,774.832L264.439,774.832z"/>
		<path fill="#553305" d="M265.369,776.042l-2.343,1.554c-0.17,0.112-0.221,0.344-0.108,0.52c0.108,0.172,0.336,0.226,0.507,0.112
			l2.343-1.554c0.168-0.112,0.217-0.346,0.11-0.52C265.767,775.978,265.539,775.93,265.369,776.042L265.369,776.042z"/>
	</g>
</g>
<ellipse fill="#DDB98E" cx="243.325" cy="788.1" rx="4.754" ry="4.578"/>
<path fill="#553305" d="M275.015,755.486c-5.982-11.238-26.131-20.466-38.205-16.136c-4.587,1.647-6.235,6.21-10.013,8.124
	c-3.443,1.746-7.604-0.539-10.832,1.979c-6.479,5.052-4.337,19.112-3.474,26.12c0.2,1.638,0.714,5.845,1.271,7.347
	c0.274-0.361,2.269,0.83,2.034-0.961c-1.337-10.291,5.811-20.55,11.864-27.972c3.725,5.954,10.921,10.417,17.52,12.006
	c4.938,1.192,20.941,5.731,19.473,15.99c2.863-4.071,3.294-7.883,1.192-11.332c-0.064-0.059-0.069-0.059-0.008,0
	c5.23,3.286,8.826,13.992,5.401,19.692c0.047-0.043,0.092-0.09,0.135-0.135c1.953-3.507,4.18-7.009,5.612-10.785
	C279.885,771.799,278.849,762.688,275.015,755.486z"/>
<g>
	<path fill="#FFFFFF" d="M243.678,795.818c-3.953-0.12-8.39,0.976-8.39,0.976c0.606,3.75,4.045,6.63,8.216,6.63
		c4.17,0,7.61-2.88,8.215-6.63C251.718,796.794,247.745,795.94,243.678,795.818z"/>
</g>
<path fill="#DDB98E" d="M274.457,778l-0.503,6.879C280.467,783.847,278.787,776.891,274.457,778z"/>
<path fill="#DDB98E" d="M214.71,784.899l-0.533-6.858C209.701,776.724,207.924,783.957,214.71,784.899z"/>
<polygon fill="#7992AD" points="217.389,961.167 218.554,970.821 240.003,970.354 239.639,962.258 "/>
<polygon fill="#7992AD" points="247.923,961.865 249.012,970.104 269,970.527 270.384,961.9 "/>
<g>
	<pattern  id="SVGID_111_" xlink:href="#SVGID_91_" patternTransform="matrix(2.9349 0 0 2.9349 26021.9141 84652.7813)">
	</pattern>
	<path fill="url(#SVGID_111_)" d="M204.485,859.526c-0.011-14.177,4.85-29.323,16.664-42.017l0,0v0.002l3.806,3.726
		c-10.846,11.679-15.197,25.349-15.209,38.291l0,0c-0.01,12.926,4.427,25.086,11.096,33.329l0,0l-4.054,3.44
		C209.27,886.964,204.498,873.711,204.485,859.526L204.485,859.526z"/>
</g>
<g>
	<pattern  id="SVGID_112_" xlink:href="#SVGID_92_" patternTransform="matrix(2.9349 0 0 2.9349 26021.9141 84652.7813)">
	</pattern>
	<path fill="url(#SVGID_112_)" d="M283.715,859.526c0.012-14.177-4.849-29.323-16.663-42.017l0,0v0.002l-3.808,3.726
		c10.846,11.679,15.197,25.349,15.207,38.291l0,0c0.013,12.926-4.425,25.086-11.096,33.329l0,0l4.054,3.44
		C278.932,886.964,283.705,873.711,283.715,859.526L283.715,859.526z"/>
</g>
<ellipse fill="#36162D" cx="244.907" cy="841.35" rx="1.206" ry="1.237"/>
<ellipse fill="#36162D" cx="244.907" cy="850.996" rx="1.206" ry="1.239"/>
<ellipse fill="#36162D" cx="244.907" cy="860.644" rx="1.206" ry="1.239"/>
<ellipse fill="#36162D" cx="244.907" cy="870.294" rx="1.206" ry="1.237"/>
<ellipse fill="#36162D" cx="244.907" cy="879.94" rx="1.206" ry="1.239"/>
<ellipse fill="#575757" cx="226.581" cy="853.546" rx="1.742" ry="1.786"/>
<ellipse fill="#575757" cx="261.548" cy="853.546" rx="1.742" ry="1.786"/>
<path fill="#FAB962" d="M219.986,908.993v18.359c4.939,0,8.946-4.115,8.946-9.178C228.929,913.101,224.923,908.993,219.986,908.993z
	"/>
<path fill="#FAB962" d="M268.047,908.993v18.359c-4.943,0-8.948-4.115-8.948-9.178C259.1,913.101,263.104,908.993,268.047,908.993z"
	/>
<g>
	<g>
		<path fill="#DDCB45" d="M357.663,898.722c2.53-6.757,3.989-14.741,3.986-23.031l0,0c0.001-9.378-1.859-19.134-6.023-28.032l0,0
			c-4.17-8.903-10.608-16.964-19.923-23.126l0,0l3.585-5.835c10.386,6.856,17.691,15.985,22.34,25.941l0,0
			c4.656,9.96,6.691,20.734,6.692,31.051l0,0c-0.002,9.127-1.588,17.906-4.438,25.531l0,0L357.663,898.722L357.663,898.722z
			 M335.703,824.535L335.703,824.535L335.703,824.535L335.703,824.535L335.703,824.535L335.703,824.535z"/>
	</g>
	<g>
		<path fill="#DDCB45" d="M294.522,883.563c0.154-2.768,0.294-6.93,0.783-11.879l0,0c0.491-4.955,1.335-10.722,2.917-16.82l0,0
			c3.154-12.18,9.308-25.764,21.507-36.529l0,0l4.325,5.267c-8.182,7.225-13.336,15.847-16.654,24.485l0,0
			c-3.315,8.632-4.758,17.26-5.456,24.301l0,0c-0.466,4.7-0.6,8.67-0.76,11.566l0,0L294.522,883.563L294.522,883.563z"/>
	</g>
	<g>
		<path fill="#DDB98E" d="M346.614,827.648c-2.431-8.42-8.345-14.368-15.257-14.368h-3.014c-6.969,0-12.926,6.047-15.315,14.578
			c-0.724,2.583-1.125,5.388-1.125,8.329v51.138c0,12.651,7.362,22.907,16.441,22.907h3.014c9.082,0,16.439-10.257,16.439-22.907
			v-51.137C347.797,833.169,347.375,830.289,346.614,827.648z"/>
	</g>
	<g>
		<path fill="#36162D" d="M322.75,915.368v60.205c0,3.521-2.029,6.376-4.532,6.376c-2.505,0-4.534-2.855-4.534-6.376v-60.205H322.75
			z"/>
	</g>
	<g>
		<path fill="#36162D" d="M336.951,915.368v60.205c0,3.521,2.032,6.376,4.535,6.376c2.503,0,4.533-2.855,4.533-6.376v-60.205
			H336.951z"/>
	</g>
	<path fill="#563305" d="M323.582,740.526c-8.37,1.535-16.284,6.177-21.056,13.888c-4.378,7.071-7.491,15.621-8.764,24.152
		c-0.314,2.115-0.511,25.646,0.835,25.344c21.632-4.821,46.652-10.185,68.288-3.397c4.188-19.588,0.306-43.791-15.382-55.146
		C340.891,740.582,332.004,738.982,323.582,740.526z"/>
	<ellipse fill="#DDB98E" cx="330.148" cy="778.503" rx="30.254" ry="31.37"/>
	<path fill="#563305" d="M330.147,742.228c-15.361,0-28.038,14.009-29.988,32.152h42.086l-3.694-10.9l-2.357-3.58l2.357,3.58
		l-0.839-2.465l0.839,2.465l7.162,10.9h14.422C358.187,756.238,345.51,742.228,330.147,742.228z"/>
	<g>
		<path fill="#F0262B" d="M322.475,796.274c0.595,4.836,3.972,8.55,8.068,8.55c4.095,0,7.472-3.712,8.068-8.55H322.475z"/>
		<path fill="#FFFFFF" d="M322.475,796.177c0.595,3.725,3.972,6.585,8.068,6.585c4.095,0,7.472-2.861,8.068-6.585H322.475z"/>
		<path fill="#F0262B" d="M322.406,796.274c2.145-1.853,5.818-2.336,8.124-0.503c1.816-1.79,6.518-1.564,8.082,0.503H322.406z"/>
	</g>
	<g>
		<g>
			<path fill="#36162D" d="M311.378,783.672L311.378,783.672c-0.359-0.177-0.511-0.623-0.34-0.995l0,0
				c0.171-0.372,0.601-0.53,0.959-0.353l0,0l1.18,0.584c1.207-1.861,3.223-2.812,5.184-2.809l0,0
				c2.19-0.014,4.418,1.217,5.339,3.705l0,0c0.143,0.385-0.041,0.817-0.413,0.966l0,0c-0.372,0.149-0.788-0.043-0.931-0.428l0,0
				c-0.697-1.861-2.283-2.736-3.995-2.748l0,0c-1.691,0.002-3.405,0.902-4.261,2.627l0,0l-0.32,0.643L311.378,783.672
				L311.378,783.672z"/>
		</g>
	</g>
	<g>
		<g>
			<path fill="#36162D" d="M346.073,784.218c-0.857-1.724-2.57-2.625-4.262-2.627l0,0c-1.713,0.014-3.298,0.888-3.998,2.749l0,0
				c-0.144,0.385-0.561,0.576-0.932,0.427l0,0c-0.372-0.149-0.556-0.582-0.412-0.966l0,0c0.921-2.488,3.151-3.717,5.342-3.705l0,0
				c1.963-0.001,3.977,0.949,5.185,2.81l0,0l1.18-0.584c0.358-0.177,0.789-0.02,0.96,0.353l0,0c0.171,0.372,0.019,0.818-0.34,0.995
				l0,0l-2.404,1.19L346.073,784.218L346.073,784.218z"/>
		</g>
	</g>
	<g>
		<g>
			<g>
				<g>
					<path fill="#36162D" d="M318.527,791.275c-3.174-0.004-5.867-0.828-7.81-2.233l0,0c-1.941-1.397-3.128-3.425-3.123-5.676l0,0
						c-0.019-2.225,1.129-3.984,2.844-5.013l0,0c1.712-1.047,3.942-1.49,6.376-1.492l0,0c2.369,0.002,5.015,0.293,7.177,1.12l0,0
						c2.127,0.79,3.978,2.304,3.978,4.693l0,0c0,0.057,0,0.108,0,0.155l0,0l-0.869-0.017l0.869,0.032
						c-0.175,5.008-4.387,8.432-9.383,8.432l0,0C318.567,791.275,318.547,791.275,318.527,791.275L318.527,791.275z M311.35,779.811
						c-1.302,0.821-2.009,1.888-2.026,3.554l0,0c0.005,1.644,0.831,3.138,2.413,4.291l0,0c1.582,1.146,3.919,1.903,6.789,1.902l0,0
						c4.271-0.026,7.553-2.743,7.708-6.773l0,0l0,0c0-0.042,0.001-0.078,0.001-0.112l0,0c0.001-1.39-0.999-2.353-2.873-3.096l0,0
						c-1.835-0.709-4.332-1.005-6.55-1.003l0,0c-0.011,0-0.019,0-0.029,0l0,0C314.582,778.573,312.644,779.007,311.35,779.811
						L311.35,779.811z"/>
				</g>
				<path fill="#36162D" d="M319.565,777.18c-0.591-0.635-7.471-0.257-8.532-0.257l-2.214,0.247c-1.787,0-3.236,1.156-3.236,2.585
					c0,1.239,1.101,2.275,2.563,2.52C309.104,779.979,311.611,777.819,319.565,777.18z"/>
			</g>
			<g>
				<g>
					<path fill="#36162D" d="M332.562,782.843L332.562,782.843c-0.007-0.073-0.007-0.127-0.007-0.171l0,0
						c0.003-2.39,1.769-3.903,3.799-4.694l0,0c2.068-0.828,4.597-1.118,6.862-1.12l0,0c2.32,0.002,4.451,0.446,6.085,1.492l0,0
						c1.639,1.028,2.738,2.788,2.717,5.013l0,0c0.005,2.251-1.13,4.279-2.981,5.676l0,0c-1.857,1.406-4.43,2.229-7.458,2.233l0,0
						c-0.023,0-0.042,0-0.059,0l0,0C336.749,791.271,332.724,787.851,332.562,782.843L332.562,782.843z M341.581,789.557
						c2.741,0.002,4.973-0.755,6.48-1.902l0,0c1.514-1.153,2.302-2.646,2.304-4.291l0,0c-0.017-1.666-0.691-2.733-1.931-3.554l0,0
						c-1.245-0.805-3.104-1.239-5.217-1.238l0,0c-2.12-0.002-4.509,0.294-6.263,1.003l0,0c-1.788,0.743-2.741,1.706-2.741,3.096l0,0
						c0,0.047,0,0.071,0,0.085l0,0l-0.825,0.053l0.827-0.026C334.363,786.814,337.5,789.529,341.581,789.557L341.581,789.557z"/>
				</g>
				<path fill="#36162D" d="M340.59,777.18c0.561-0.635,7.13-0.257,8.149-0.257l2.114,0.247c1.709,0,3.091,1.156,3.091,2.585
					c0,1.239-1.051,2.275-2.45,2.52C350.58,779.979,348.18,777.819,340.59,777.18z"/>
			</g>
			<path fill="#36162D" d="M327.187,782.046c0.117,0.84-0.249,2.072-0.64,3c0.135-0.111,0.98,0.051,1.113-0.119
				c3.027-3.779,5.745,0.513,5.745,0.513l0.061-3.456L327.187,782.046z"/>
		</g>
	</g>
	<g>
		<path fill="#DDCB45" d="M329.237,858.632c-25.323,0-45.85,22.743-45.85,50.805c0,1.649,0.075,3.282,0.217,4.891
			c12.772,5.068,28.55,8.063,45.633,8.063s32.862-2.994,45.635-8.063c0.138-1.609,0.216-3.242,0.216-4.891
			C375.087,881.375,354.56,858.632,329.237,858.632z"/>
	</g>
	<g>
		<path fill="#FFFFFF" d="M339.258,832.247c3.159-0.545,4.84-4.808,5.568-9.169c-0.864-1.719-1.889-3.27-3.051-4.6
			c-1.937,4.913-5.272,7.545-8.876,8.166C333.915,830.121,336.336,832.752,339.258,832.247z"/>
		<path fill="#DDCB45" d="M347.797,836.189c0-3.02-0.422-5.9-1.182-8.541c-0.471-1.626-1.078-3.155-1.79-4.57
			c-0.727,4.36-2.407,8.624-5.568,9.169c-2.922,0.505-5.343-2.126-6.358-5.604c-1.758,0.304-3.578,0.12-5.334-0.503
			c-3.156,8.339-10.399,4.518-12.466-3.495c-0.842,1.594-1.546,3.34-2.071,5.214c-0.724,2.583-1.125,5.388-1.125,8.329v29.6h35.894
			L347.797,836.189L347.797,836.189z"/>
		<path fill="#FFFFFF" d="M327.566,826.14c-3.477-1.235-6.695-4.224-8.619-8.746c-1.482,1.443-2.777,3.225-3.848,5.254
			C317.166,830.657,324.409,834.478,327.566,826.14z"/>
	</g>
	<g>
		<rect x="311.903" y="856.314" fill="#36162D" width="35.894" height="5.941"/>
	</g>
	<path fill="#36162D" d="M331.85,832.481c0,0.694-0.542,1.258-1.215,1.258c-0.67,0-1.213-0.563-1.213-1.258
		c0-0.695,0.543-1.259,1.213-1.259C331.308,831.222,331.85,831.785,331.85,832.481z"/>
	<path fill="#36162D" d="M331.85,838.888c0,0.694-0.542,1.258-1.215,1.258c-0.67,0-1.213-0.563-1.213-1.258
		c0-0.694,0.543-1.259,1.213-1.259C331.308,837.63,331.85,838.195,331.85,838.888z"/>
	<path fill="#36162D" d="M331.85,845.294c0,0.695-0.542,1.26-1.215,1.26c-0.67,0-1.213-0.565-1.213-1.26
		c0-0.694,0.543-1.258,1.213-1.258C331.308,844.036,331.85,844.6,331.85,845.294z"/>
	<rect x="325.304" y="808.818" fill="#DDB98E" width="8.627" height="6.557"/>
	<g>
		<path fill="#36162D" d="M306.988,979.389c-0.357,0.445-1.497,1.755-1.185,2.38c0.288,0.576,2.772,0.749,3.294,0.651
			c3.439-0.813,6.817-1.931,9.192-2.693c-2.153-1.74-4.523-3.149-7.014-4.068C309.727,976.706,308.113,977.985,306.988,979.389z"/>
		<path fill="#36162D" d="M300.725,981.671c0.364-0.055,0.722-0.155,1.073-0.306c1.809-0.77,3.147-2.458,4.515-3.827
			c0.707-0.712,1.722-1.908,2.677-2.58c-0.37-0.089-0.746-0.14-1.12-0.209C304.738,976.317,302.269,978.773,300.725,981.671z"/>
		<path fill="#36162D" d="M322.75,974.961c-3.51-1.988-7.879-2.549-12.175-1.274c3.718,1.062,7.234,2.442,9.779,5.327
			c0.781-0.313,1.67-0.719,2.397-1.079V974.961z"/>
		<g>
			<path fill="#F0812B" d="M319.927,979.182c0.14-0.053,0.276-0.108,0.425-0.168c-2.545-2.885-6.061-4.266-9.779-5.327
				c-0.225,0.067-0.455,0.118-0.68,0.195c-0.704,0.244-1.375,0.544-2.025,0.869c0.374,0.07,0.75,0.12,1.12,0.209h0.004
				c-0.957,0.671-1.97,1.866-2.681,2.58c-1.368,1.368-2.706,3.057-4.515,3.827c-0.35,0.151-0.707,0.251-1.073,0.306
				c-0.284,0.533-0.541,1.078-0.763,1.638c0.598,0.085,0.598,0.085,0,0c-0.695,1.764-1.074,3.643-1.067,5.546l23.854-8.209v-2.709
				C321.884,978.362,320.79,978.857,319.927,979.182z M306.988,979.389c1.125-1.405,2.739-2.684,4.29-3.731
				c2.488,0.92,4.86,2.329,7.012,4.068c-2.376,0.763-5.753,1.881-9.194,2.693c-0.527,0.098-3.005-0.076-3.292-0.651
				C305.491,981.145,306.631,979.834,306.988,979.389z"/>
		</g>
	</g>
	<g>
		<path fill="#36162D" d="M352.714,979.389c0.355,0.445,1.495,1.755,1.182,2.38c-0.288,0.576-2.772,0.749-3.295,0.651
			c-3.437-0.813-6.816-1.931-9.188-2.693c2.152-1.74,4.523-3.149,7.011-4.068C349.975,976.706,351.591,977.985,352.714,979.389z"/>
		<path fill="#36162D" d="M358.975,981.671c-0.361-0.055-0.722-0.155-1.074-0.306c-1.807-0.77-3.142-2.458-4.51-3.827
			c-0.714-0.712-1.726-1.908-2.681-2.58c0.373-0.089,0.746-0.14,1.121-0.209C354.964,976.317,357.433,978.773,358.975,981.671z"/>
		<path fill="#36162D" d="M336.951,974.961c3.512-1.988,7.882-2.549,12.175-1.274c-3.718,1.062-7.232,2.442-9.778,5.327
			c-0.78-0.313-1.668-0.719-2.397-1.079L336.951,974.961L336.951,974.961z"/>
		<g>
			<path fill="#F0812B" d="M336.951,977.935v2.709l23.856,8.209c0.004-1.902-0.375-3.781-1.07-5.546c-0.594,0.085-0.594,0.085,0,0
				c-0.219-0.559-0.477-1.105-0.763-1.638c-0.361-0.055-0.722-0.155-1.074-0.306c-1.807-0.77-3.142-2.458-4.51-3.827
				c-0.714-0.714-1.727-1.91-2.684-2.58h0.003c0.373-0.089,0.746-0.14,1.121-0.209c-0.651-0.325-1.318-0.625-2.026-0.869
				c-0.223-0.076-0.452-0.127-0.68-0.195c-3.718,1.062-7.232,2.442-9.778,5.327c0.146,0.06,0.286,0.115,0.424,0.168
				C338.911,978.857,337.817,978.362,336.951,977.935z M353.897,981.769c-0.288,0.576-2.765,0.749-3.292,0.651
				c-3.439-0.813-6.815-1.931-9.191-2.693c2.152-1.74,4.523-3.149,7.011-4.068c1.551,1.047,3.166,2.325,4.289,3.731
				C353.07,979.834,354.209,981.145,353.897,981.769z"/>
		</g>
	</g>
</g>
<g>
	<g>
		<path fill="#B34940" d="M506.714,872.682l21.827-50l-38,29.41L506.714,872.682z M515.199,839.661l-9.661,22.129l-7.157-9.113
			L515.199,839.661z"/>
	</g>
	<g>
		<polygon fill="#CA5D4B" points="490.596,852.051 498.408,852.712 498.381,852.676 515.199,839.661 509.107,853.617 514.826,854.1 
			528.541,822.682 		"/>
	</g>
	<g>
		
			<rect x="506.468" y="868.624" transform="matrix(-0.6166 -0.7873 0.7873 -0.6166 133.9062 1805.45)" fill="#FFFFFF" width="0.258" height="2.986"/>
		
			<rect x="504.917" y="868.363" transform="matrix(-0.6217 -0.7833 0.7833 -0.6217 138.2139 1805.1597)" fill="#FFFFFF" width="0.257" height="1.678"/>
		
			<rect x="504.4" y="865.991" transform="matrix(-0.619 -0.7854 0.7854 -0.619 135.5247 1800.7128)" fill="#FFFFFF" width="0.257" height="2.986"/>
		<polygon fill="#FFFFFF" points="503.56,865.954 503.72,866.155 502.395,867.182 502.236,866.98 		"/>
		
			<rect x="502.332" y="863.359" transform="matrix(-0.6165 -0.7874 0.7874 -0.6165 131.2594 1793.6377)" fill="#FFFFFF" width="0.258" height="2.985"/>
		
			<rect x="500.782" y="863.098" transform="matrix(-0.619 -0.7854 0.7854 -0.619 132.4692 1792.1328)" fill="#FFFFFF" width="0.257" height="1.678"/>
		
			<rect x="500.264" y="860.726" transform="matrix(-0.6163 -0.7875 0.7875 -0.6163 129.7269 1787.6478)" fill="#FFFFFF" width="0.258" height="2.985"/>
		
			<rect x="498.714" y="860.465" transform="matrix(-0.6138 -0.7895 0.7895 -0.6138 125.0241 1783.7694)" fill="#FFFFFF" width="0.256" height="1.676"/>
		
			<rect x="498.196" y="858.093" transform="matrix(-0.6191 -0.7853 0.7853 -0.6191 131.8392 1783.1143)" fill="#FFFFFF" width="0.257" height="2.986"/>
		
			<rect x="496.645" y="857.832" transform="matrix(-0.6191 -0.7853 0.7853 -0.6191 130.0308 1780.4067)" fill="#FFFFFF" width="0.257" height="1.677"/>
		
			<rect x="496.127" y="855.46" transform="matrix(-0.6169 -0.787 0.787 -0.6169 127.9536 1776.1866)" fill="#FFFFFF" width="0.258" height="2.985"/>
		
			<rect x="494.577" y="855.198" transform="matrix(-0.6177 -0.7864 0.7864 -0.6177 127.0785 1773.8508)" fill="#FFFFFF" width="0.256" height="1.677"/>
		
			<rect x="494.059" y="852.827" transform="matrix(-0.6168 -0.7871 0.7871 -0.6168 126.5759 1770.2596)" fill="#FFFFFF" width="0.258" height="2.986"/>
		
			<rect x="492.509" y="852.565" transform="matrix(-0.6165 -0.7874 0.7874 -0.6165 124.3606 1767.3843)" fill="#FFFFFF" width="0.257" height="1.676"/>
		
			<rect x="491.992" y="850.193" transform="matrix(-0.6167 -0.7872 0.7872 -0.6167 125.1215 1764.2994)" fill="#FFFFFF" width="0.257" height="2.985"/>
	</g>
	<g>
		
			<rect x="496.636" y="847.658" transform="matrix(0.7902 -0.6129 0.6129 0.7902 -416.2036 482.657)" fill="#FFFFFF" width="0.258" height="2.98"/>
		
			<rect x="497.559" y="846.771" transform="matrix(0.7898 -0.6134 0.6134 0.7898 -415.28 483.4348)" fill="#FFFFFF" width="0.258" height="1.674"/>
		
			<rect x="499.289" y="845.605" transform="matrix(0.7901 -0.613 0.613 0.7901 -414.4402 483.9815)" fill="#FFFFFF" width="0.257" height="2.98"/>
		
			<rect x="500.212" y="844.719" transform="matrix(0.7917 -0.6109 0.6109 0.7917 -412.32 481.7495)" fill="#FFFFFF" width="0.258" height="1.673"/>
		
			<rect x="501.941" y="843.552" transform="matrix(0.7931 -0.6091 0.6091 0.7931 -410.826 480.6363)" fill="#FFFFFF" width="0.257" height="2.98"/>
		
			<rect x="502.864" y="842.665" transform="matrix(0.7923 -0.6102 0.6102 0.7923 -410.2001 482.1487)" fill="#FFFFFF" width="0.257" height="1.674"/>
		<polygon fill="#FFFFFF" points="505.745,844.082 505.54,844.24 503.7,841.895 503.905,841.738 		"/>
		
			<rect x="505.517" y="840.613" transform="matrix(0.7912 -0.6115 0.6115 0.7912 -409.0035 484.8944)" fill="#FFFFFF" width="0.258" height="1.673"/>
		
			<rect x="507.246" y="839.446" transform="matrix(0.7915 -0.6111 0.6111 0.7915 -408.1522 485.3904)" fill="#FFFFFF" width="0.258" height="2.98"/>
		
			<rect x="508.169" y="838.558" transform="matrix(0.7894 -0.6138 0.6138 0.7894 -408.2202 488.7588)" fill="#FFFFFF" width="0.258" height="1.675"/>
		
			<rect x="509.898" y="837.393" transform="matrix(0.7895 -0.6137 0.6137 0.7895 -407.4892 489.5753)" fill="#FFFFFF" width="0.258" height="2.981"/>
		
			<rect x="510.822" y="836.506" transform="matrix(0.7889 -0.6145 0.6145 0.7889 -406.68 490.6908)" fill="#FFFFFF" width="0.259" height="1.675"/>
		
			<rect x="512.551" y="835.341" transform="matrix(0.793 -0.6093 0.6093 0.793 -403.7081 485.6053)" fill="#FFFFFF" width="0.258" height="2.979"/>
		
			<rect x="513.475" y="834.454" transform="matrix(0.7922 -0.6103 0.6103 0.7922 -403.0261 487.0241)" fill="#FFFFFF" width="0.257" height="1.674"/>
		
			<rect x="515.203" y="833.288" transform="matrix(0.7905 -0.6125 0.6125 0.7905 -403.3076 490.5082)" fill="#FFFFFF" width="0.259" height="2.98"/>
	</g>
</g>
<g>
	<path fill="#80C7C4" d="M473.945,768.607c-8.914-1.968-17.727,3.617-19.683,12.476c-0.98,4.441-0.051,8.86,2.241,12.41
		l27.835-17.643C482.059,772.289,478.413,769.593,473.945,768.607z"/>
	<path fill="#80C7C4" d="M456.502,793.493c2.282,3.535,5.913,6.21,10.36,7.192c8.914,1.968,17.727-3.617,19.682-12.475
		c0.976-4.419,0.06-8.815-2.207-12.36L456.502,793.493z"/>
	
		<rect x="463.761" y="802.393" transform="matrix(0.9765 0.2156 -0.2156 0.9765 184.3996 -81.5461)" fill="#CF5D55" width="4.506" height="4.272"/>
	<path fill="#CF5D55" d="M487.001,774.698l0.463-0.292c0.107-0.067,0.138-0.208,0.069-0.313c-0.069-0.106-0.209-0.137-0.317-0.07
		l-34.025,21.569c-0.105,0.067-0.135,0.206-0.069,0.311c0.034,0.055,0.087,0.089,0.144,0.101c0.057,0.013,0.12,0.004,0.173-0.031
		l0.804-0.508c2.9,4.024,7.472,7.022,11.994,8.02c4.859,1.073,10.119,0.293,14.627-2.565c4.37-2.769,7.401-7.034,8.535-12.007
		C490.513,784.015,489.659,778.984,487.001,774.698z M479.714,799.134c-4.011,2.542-8.693,3.236-13.019,2.28
		c-4.014-0.886-8.025-3.552-10.607-7.119l29.117-18.456C490.069,783.714,487.646,794.106,479.714,799.134z"/>
	<path fill="#CF5D55" d="M473.261,810.443c-0.133-1.787-3.306-3.85-7.498-4.776c-4.194-0.926-7.938-0.39-8.811,1.175
		L473.261,810.443z"/>
	<path fill="#FFFFFF" d="M483.025,785.36c1.285-2.171,2.169-4.499,2.65-6.953c-0.214-0.513-0.456-1.02-0.727-1.519
		c-0.439,3.336-1.626,6.437-3.464,9.135c-1.736-1.374-3.273-3.034-4.557-4.944l7.646-4.846c-0.075-0.127-0.155-0.254-0.237-0.381
		l-27.834,17.642c0.083,0.128,0.166,0.252,0.249,0.375l7.291-4.624c1.174,1.913,2.026,3.94,2.554,6.024
		c-3.112,0.439-6.306,0.182-9.404-0.786c0.34,0.454,0.701,0.886,1.082,1.293c2.443,0.599,4.941,0.783,7.463,0.542
		c0.358-0.037,0.712-0.08,1.067-0.132c0.31,1.508,0.452,3.039,0.424,4.576c0.314,0.064,0.631,0.114,0.949,0.16
		c0.019-0.889-0.015-1.786-0.105-2.683c-0.074-0.739-0.189-1.476-0.338-2.208c2.657-0.499,5.23-1.483,7.556-2.89l3.612,5.619
		c0.137-0.082,0.273-0.166,0.409-0.25c0.137-0.088,0.27-0.173,0.402-0.263l-3.609-5.619c2.153-1.43,4.05-3.225,5.587-5.274
		c0.567,0.407,1.152,0.793,1.754,1.145c0.861,0.504,1.747,0.947,2.655,1.33c0.099-0.301,0.19-0.606,0.272-0.912
		c-1.462-0.619-2.846-1.4-4.131-2.325C482.515,786.186,482.778,785.777,483.025,785.36z M467.529,795.113
		c-0.557-2.239-1.459-4.4-2.675-6.381l5.404-3.425l4.515,7.025C472.491,793.714,470.043,794.641,467.529,795.113z M475.582,791.819
		l-4.515-7.025l5.05-3.201c1.327,1.975,2.964,3.73,4.824,5.192C479.492,788.72,477.691,790.421,475.582,791.819z"/>
	<path fill="#FFFFFF" d="M484.319,775.827c-0.086-0.139-0.175-0.27-0.265-0.401l-7.646,4.847c-1.24-2.024-2.125-4.178-2.642-6.39
		c3.201-0.503,6.497-0.266,9.693,0.728c-0.355-0.458-0.732-0.892-1.126-1.304c-2.421-0.583-4.892-0.76-7.392-0.522
		c-0.456,0.045-0.915,0.105-1.369,0.175c-0.275-1.482-0.392-2.985-0.342-4.493c-0.315-0.055-0.633-0.1-0.947-0.141
		c-0.035,0.98-0.005,1.966,0.096,2.956c0.062,0.619,0.15,1.236,0.266,1.847c-2.548,0.52-5.016,1.478-7.254,2.833l-3.487-5.427
		c-0.138,0.083-0.273,0.164-0.41,0.254c-0.134,0.085-0.269,0.171-0.4,0.26l3.487,5.425c-2.286,1.52-4.286,3.446-5.871,5.655
		c-0.549-0.393-1.119-0.764-1.702-1.106c-0.781-0.459-1.584-0.867-2.404-1.224c-0.094,0.306-0.18,0.614-0.256,0.924
		c1.352,0.593,2.636,1.325,3.834,2.185c-0.181,0.274-0.357,0.554-0.525,0.836c-1.271,2.15-2.15,4.451-2.633,6.874
		c0.209,0.531,0.448,1.051,0.716,1.564c0.42-3.161,1.513-6.112,3.197-8.706c1.75,1.376,3.296,3.043,4.589,4.965l-7.291,4.622
		c0.081,0.137,0.167,0.27,0.252,0.408c0.005,0.008,0.011,0.017,0.017,0.024l27.834-17.642
		C484.33,775.843,484.325,775.835,484.319,775.827z M464.334,787.925c-1.339-1.988-2.99-3.758-4.869-5.229
		c1.495-2.092,3.389-3.926,5.633-5.415l4.641,7.219L464.334,787.925z M470.549,783.987l-4.64-7.221
		c2.189-1.322,4.526-2.231,6.927-2.719c0.548,2.365,1.482,4.65,2.761,6.736L470.549,783.987z"/>
</g>
<g>
	
		<rect x="394.878" y="746.475" transform="matrix(0.811 0.585 -0.585 0.811 513.4827 -95.7219)" fill="#F0C82F" width="20.07" height="1.005"/>
	
		<rect x="403.985" y="743.245" transform="matrix(0.811 0.585 -0.585 0.811 513.4021 -95.8314)" fill="#CF5D55" width="2.114" height="7.107"/>
	<path fill="#CF5D55" d="M419.359,726.949c-0.533-0.385-1.244-0.311-1.588,0.165l-2.432,3.372l1.932,1.393l2.432-3.372
		C420.047,728.032,419.893,727.334,419.359,726.949z"/>
	<g>
		<g>
			<polygon fill="#25405A" points="386.474,755.015 386.18,754.7 388.121,752.787 388.696,753.403 			"/>
			<polygon fill="#CF5D55" points="388.699,754.203 387.288,752.69 389.193,750.739 390.957,752.63 			"/>
			<polygon fill="#CF5D55" points="390.577,752.896 412.976,735.959 410.604,733.416 388.842,751.036 			"/>
			<path fill="#F0C82F" d="M391.391,752.696c0.667-0.564,0.672-1.596,0.011-2.305c-0.661-0.708-1.737-0.825-2.404-0.26
				c-0.667,0.565-0.672,1.596-0.011,2.305C389.648,753.144,390.724,753.261,391.391,752.696z"/>
			<path fill="#FFFFFF" d="M390.79,752.052c0.332-0.281,0.334-0.795,0.006-1.147c-0.329-0.352-0.864-0.411-1.197-0.129
				c-0.332,0.281-0.334,0.795-0.006,1.147C389.923,752.275,390.458,752.333,390.79,752.052z"/>
		</g>
		<g>
			<polygon fill="#25405A" points="402.585,766.636 402.977,766.815 404.18,764.37 403.414,764.018 			"/>
			<polygon fill="#CF5D55" points="403.174,764.643 405.054,765.505 406.305,763.081 403.954,762.004 			"/>
			<polygon fill="#CF5D55" points="403.822,762.449 412.824,735.849 415.986,737.297 406.133,763.508 			"/>
			<path fill="#F0C82F" d="M403.754,761.613c0.325-0.811,1.303-1.141,2.183-0.738c0.88,0.403,1.331,1.388,1.005,2.199
				c-0.325,0.811-1.303,1.141-2.183,0.738C403.879,763.409,403.429,762.424,403.754,761.613z"/>
			<path fill="#FFFFFF" d="M404.554,761.98c0.162-0.404,0.649-0.568,1.087-0.367c0.438,0.201,0.662,0.691,0.5,1.095
				c-0.162,0.404-0.648,0.568-1.087,0.367C404.617,762.874,404.393,762.384,404.554,761.98z"/>
		</g>
	</g>
	<path fill="#F0C82F" d="M414.294,727.922l-3.193,4.43l-1.39,2.969c-0.179,0.299-0.066,0.73,0.25,0.958l3.51,2.531
		c0.316,0.228,0.761,0.199,0.988-0.065l2.381-2.255l3.195-4.429L414.294,727.922z"/>
	<g>
		<polygon fill="#CF5D55" points="391.702,748.247 391.175,747.67 393.067,746.107 393.595,746.683 		"/>
		<polygon fill="#CF5D55" points="393.649,749.043 392.093,747.326 392.598,746.913 394.154,748.63 		"/>
	</g>
</g>
<path fill="#F0F1F1" d="M148.621,764.178c-0.793,0.35-1.735-0.053-2.108-0.903l-2.672-6.076l-16.901,0.049
	c-0.643-0.001-1.242-0.407-1.516-1.032l-3.566-8.114c-0.18-0.409-0.201-0.869-0.058-1.281c0.145-0.408,0.438-0.737,0.821-0.905
	l5.362-2.38c0.002-0.001,0.003-0.001,0.004-0.002c0.793-0.35,1.738,0.057,2.11,0.907c0.373,0.855,0.031,1.831-0.764,2.183
	l-3.919,1.739l2.432,5.536l16.903-0.048c0.643-0.002,1.241,0.405,1.514,1.028l3.125,7.11c0.374,0.852,0.035,1.832-0.761,2.185
	C148.625,764.176,148.623,764.177,148.621,764.178z"/>
<polygon fill="#CE5D54" points="159.068,780.234 153.413,782.761 143.917,761.158 149.575,758.63 "/>
<path fill="#F3F3F3" d="M156.617,737.27c0.402,0.927-0.022,2.014-0.95,2.423l-24.915,10.978c-0.928,0.409-2.008-0.015-2.41-0.942
	l-3.286-7.57c-0.402-0.927,0.023-2.012,0.951-2.421l24.915-10.978c0.928-0.409,2.007,0.013,2.409,0.94L156.617,737.27z"/>
<path fill="#81C7C4" d="M124.88,741.09c0.013,1.635,1.823,2.681,3.332,2.899c1.508,0.216,2.3-0.535,4.081,0.998
	c1.783,1.532,2.133,2.338,2.565,2.307c0.433-0.031,0.527-1.142,0.096-3.51c-0.433-2.369,0.978-4.479,2.346-4.76
	c1.369-0.282,2.996-0.647,5.344-0.557c2.082,0.082,3.062-1.775,3.355-2.218c1.251-1.9,2.883-2.753,4.584-3.097
	c1.515-0.308,3.194-2.96,2.888-3.703c-0.288-0.701-1.333-1.225-2.345-1.093C150.113,728.486,124.849,737.357,124.88,741.09z"/>
<g>
	<path fill-rule="evenodd" clip-rule="evenodd" fill="#D48D28" d="M44.798,797.316l34.103,7.136l-0.47,2.247
		c-0.118,0.565,0.248,1.125,0.818,1.244l7.107,1.487c0.569,0.119,1.131-0.246,1.249-0.811l0.47-2.247l33.972,7.109
		c0.289,0.061,0.48,0.346,0.419,0.635l-1.823,8.712c-0.06,0.288-0.349,0.473-0.638,0.413l-77.248-16.165
		c-0.291-0.061-0.478-0.345-0.418-0.634l1.823-8.712C44.222,797.441,44.508,797.255,44.798,797.316z"/>
	<path fill-rule="evenodd" clip-rule="evenodd" fill="#EAAB2D" d="M42.756,807.076l77.248,16.165
		c0.289,0.061,0.578-0.124,0.638-0.413l0.173-0.825l-78.304-16.385l-0.173,0.825C42.278,806.73,42.465,807.015,42.756,807.076z"/>
	<path fill-rule="evenodd" clip-rule="evenodd" fill="#EAAB2D" d="M44.798,797.316l34.103,7.136l-0.282,1.347l-34.63-7.246
		l0.172-0.823C44.222,797.441,44.508,797.255,44.798,797.316L44.798,797.316z M88.074,806.372l33.972,7.109
		c0.289,0.061,0.48,0.346,0.419,0.635l-0.172,0.823l-34.501-7.219L88.074,806.372z"/>
	<path fill-rule="evenodd" clip-rule="evenodd" fill="#363636" d="M89.043,806.574l-0.47,2.247c-0.229,1.095-1.318,1.803-2.42,1.572
		l-7.107-1.487c-1.102-0.231-1.815-1.316-1.586-2.41l0.47-2.247l0.969,0.203l-0.47,2.247c-0.118,0.565,0.248,1.125,0.818,1.244
		l7.107,1.487c0.569,0.119,1.131-0.246,1.249-0.811l0.47-2.247L89.043,806.574z"/>
	
		<ellipse transform="matrix(0.2048 -0.9788 0.9788 0.2048 -711.9186 755.3436)" fill-rule="evenodd" clip-rule="evenodd" fill="#363636" cx="108.922" cy="815.827" rx="3.051" ry="3.069"/>
	
		<ellipse transform="matrix(0.2048 -0.9788 0.9788 0.2048 -711.9194 755.344)" fill-rule="evenodd" clip-rule="evenodd" fill="#FFFFFF" cx="108.922" cy="815.828" rx="2.195" ry="2.21"/>
	<path fill-rule="evenodd" clip-rule="evenodd" fill="#E3E3E3" d="M109.372,813.679c0.237,0.049,0.458,0.135,0.657,0.25
		l-0.854,4.082c-0.229,0.024-0.466,0.015-0.702-0.034c-0.19-0.04-0.368-0.102-0.534-0.184l0.87-4.158
		C108.994,813.625,109.181,813.639,109.372,813.679z"/>
	<path fill-rule="evenodd" clip-rule="evenodd" fill="#A6C945" d="M108.916,813.763l-0.827,3.954c0.134,0.057,0.27,0.101,0.411,0.13
		c0.187,0.039,0.374,0.053,0.565,0.04l0.246-1.175c-0.166-0.035-0.273-0.198-0.238-0.363l0.22-1.053
		c0.035-0.165,0.197-0.272,0.364-0.237l0.223-1.064c-0.17-0.087-0.347-0.149-0.534-0.188
		C109.204,813.778,109.061,813.763,108.916,813.763z"/>
	
		<ellipse transform="matrix(0.2048 -0.9788 0.9788 0.2048 -743.4233 694.2301)" fill-rule="evenodd" clip-rule="evenodd" fill="#363636" cx="55.557" cy="804.66" rx="3.051" ry="3.069"/>
	
		<ellipse transform="matrix(0.2048 -0.9788 0.9788 0.2048 -743.4241 694.2305)" fill-rule="evenodd" clip-rule="evenodd" fill="#FFFFFF" cx="55.557" cy="804.661" rx="2.195" ry="2.211"/>
	<path fill-rule="evenodd" clip-rule="evenodd" fill="#E3E3E3" d="M56.007,802.512c0.238,0.05,0.458,0.135,0.656,0.249l-0.854,4.082
		c-0.227,0.025-0.463,0.016-0.701-0.034c-0.189-0.04-0.368-0.102-0.534-0.184l0.87-4.158
		C55.629,802.458,55.817,802.473,56.007,802.512z"/>
	<path fill-rule="evenodd" clip-rule="evenodd" fill="#A6C945" d="M55.552,802.596l-0.827,3.954c0.131,0.057,0.27,0.101,0.41,0.13
		c0.187,0.039,0.375,0.054,0.566,0.041l0.246-1.175c-0.166-0.035-0.276-0.199-0.241-0.364l0.22-1.053
		c0.035-0.165,0.2-0.271,0.367-0.237l0.223-1.064c-0.17-0.087-0.348-0.15-0.535-0.189C55.84,802.612,55.694,802.596,55.552,802.596z
		"/>
	
		<rect x="78.484" y="806.305" transform="matrix(-0.9788 -0.2048 0.2048 -0.9788 -0.6974 1613.7843)" fill-rule="evenodd" clip-rule="evenodd" fill="#E3E3E3" width="9.372" height="1.246"/>
	<path fill-rule="evenodd" clip-rule="evenodd" fill="#A6C945" d="M78.483,806.451l9.173,1.92l0.202-0.965l-3.01-0.63
		c-0.035,0.166-0.199,0.273-0.364,0.239l-2.352-0.492c-0.166-0.035-0.274-0.198-0.239-0.365l-3.202-0.67l-0.012,0.026
		L78.483,806.451z"/>
	<path fill-rule="evenodd" clip-rule="evenodd" fill="#363636" d="M44.798,797.316l1.089,0.228l-2.042,9.76l-1.089-0.228
		c-0.291-0.061-0.478-0.345-0.418-0.634l1.823-8.712C44.222,797.441,44.508,797.255,44.798,797.316z"/>
	<path fill-rule="evenodd" clip-rule="evenodd" fill="#4E4E4E" d="M44.798,797.316l1.089,0.228l-0.282,1.347l-1.616-0.338
		l0.172-0.823C44.222,797.441,44.508,797.255,44.798,797.316z"/>
	<path fill-rule="evenodd" clip-rule="evenodd" fill="#4E4E4E" d="M42.756,807.076l1.089,0.228l0.282-1.348l-1.616-0.338
		l-0.173,0.825C42.278,806.73,42.465,807.015,42.756,807.076z"/>
	<path fill-rule="evenodd" clip-rule="evenodd" fill="#363636" d="M122.046,813.48l-1.087-0.227l-2.042,9.76l1.087,0.227
		c0.289,0.061,0.578-0.124,0.638-0.413l1.823-8.712C122.526,813.827,122.336,813.541,122.046,813.48z"/>
	<path fill-rule="evenodd" clip-rule="evenodd" fill="#4E4E4E" d="M122.046,813.48l-1.087-0.227l-0.282,1.347l1.616,0.338
		l0.172-0.823C122.526,813.827,122.336,813.541,122.046,813.48z"/>
	<path fill-rule="evenodd" clip-rule="evenodd" fill="#4E4E4E" d="M120.004,823.24l-1.087-0.227l0.282-1.348l1.616,0.338
		l-0.173,0.825C120.582,823.116,120.293,823.301,120.004,823.24z"/>
</g>
<g>
	<g>
		<g>
			<path fill-rule="evenodd" clip-rule="evenodd" fill="#BFB397" d="M46.849,839.824h0.928h9.503v6.806H46.849V839.824
				L46.849,839.824z M57.28,865.348H46.849v-8.18H57.28V865.348z"/>
			<path fill-rule="evenodd" clip-rule="evenodd" fill="#62A2BB" d="M47.777,838.82h9.503v1.004h-9.503
				c-0.276,0-0.5-0.225-0.5-0.501l0,0C47.277,839.047,47.502,838.82,47.777,838.82z"/>
			<path fill-rule="evenodd" clip-rule="evenodd" fill="#B5AA91" d="M57.28,865.348v-8.18h10.43v8.18H57.28L57.28,865.348z
				 M57.28,846.63v-6.806h9.503h0.928v6.806H57.28z"/>
			<path fill-rule="evenodd" clip-rule="evenodd" fill="#53899D" d="M57.28,839.824v-1.004h9.503c0.274,0,0.499,0.227,0.499,0.503
				l0,0c0,0.276-0.225,0.501-0.499,0.501H57.28z"/>
			<rect x="46.849" y="846.199" fill-rule="evenodd" clip-rule="evenodd" fill="#62A2BB" width="10.431" height="11.4"/>
			<rect x="57.28" y="846.199" fill-rule="evenodd" clip-rule="evenodd" fill="#53899D" width="10.43" height="11.4"/>
			<path fill-rule="evenodd" clip-rule="evenodd" fill="#B5AA91" d="M46.849,842.041h-0.688c-0.094,0-0.171,0.099-0.171,0.221v1.859
				c0,0.121,0.077,0.22,0.171,0.22h0.688V842.041z"/>
			<path fill-rule="evenodd" clip-rule="evenodd" fill="#AB9F81" d="M67.71,842.041h0.688c0.094,0,0.171,0.099,0.171,0.221v1.859
				c0,0.121-0.078,0.22-0.171,0.22H67.71V842.041z"/>
			<rect x="48.429" y="839.824" fill-rule="evenodd" clip-rule="evenodd" fill="#FFFFFF" width="4.678" height="25.524"/>
			<rect x="48.429" y="846.199" fill-rule="evenodd" clip-rule="evenodd" fill="#8ABACC" width="4.678" height="11.4"/>
			<path fill-rule="evenodd" clip-rule="evenodd" fill="#6B5731" d="M45.99,843.55h-0.78c0.613,2.831,1.91,4.948,3.844,6.399
				c2.041,1.53,4.801,2.332,8.226,2.462v0.715l-0.013-0.001c-3.578-0.134-6.478-0.982-8.639-2.603
				c-2.17-1.626-3.588-4.019-4.197-7.237c-0.008-0.031-0.012-0.062-0.012-0.093c0-0.199,0.161-0.359,0.357-0.359h1.214V843.55z"/>
			<rect x="61.708" y="839.824" fill-rule="evenodd" clip-rule="evenodd" fill="#AB9F81" width="4.677" height="25.524"/>
			<rect x="61.708" y="846.199" fill-rule="evenodd" clip-rule="evenodd" fill="#4C7F83" width="4.677" height="11.4"/>
			<path fill-rule="evenodd" clip-rule="evenodd" fill="#4F4125" d="M68.569,843.555h0.777c-0.613,2.832-1.908,4.95-3.844,6.399
				c-2.041,1.53-4.8,2.333-8.223,2.463v0.715h0.012c3.578-0.134,6.478-0.983,8.638-2.605c2.17-1.626,3.589-4.019,4.198-7.237
				c0.008-0.03,0.012-0.062,0.012-0.093c0-0.198-0.16-0.359-0.359-0.359h-1.212V843.555z"/>
		</g>
		<g>
			<path fill-rule="evenodd" clip-rule="evenodd" fill="#BFB397" d="M32.568,848.297h0.928H43v6.805H32.568V848.297L32.568,848.297z
				 M43,873.82H32.568v-8.179H43V873.82z"/>
			<path fill-rule="evenodd" clip-rule="evenodd" fill="#8FAC3C" d="M33.497,847.292H43v1.005h-9.503
				c-0.274,0-0.498-0.226-0.498-0.502l0,0C32.998,847.519,33.222,847.292,33.497,847.292z"/>
			<path fill-rule="evenodd" clip-rule="evenodd" fill="#B5AA91" d="M43,873.82v-8.179h10.431v8.179H43L43,873.82z M43,855.102
				v-6.805h9.503h0.929v6.805H43z"/>
			<path fill-rule="evenodd" clip-rule="evenodd" fill="#7A9134" d="M43,848.297v-1.005h9.503c0.275,0,0.501,0.227,0.501,0.502l0,0
				c0,0.276-0.225,0.502-0.501,0.502H43z"/>
			<rect x="32.568" y="854.672" fill-rule="evenodd" clip-rule="evenodd" fill="#8FAC3C" width="10.432" height="11.401"/>
			<rect x="43" y="854.672" fill-rule="evenodd" clip-rule="evenodd" fill="#7A9134" width="10.431" height="11.401"/>
			<path fill-rule="evenodd" clip-rule="evenodd" fill="#B5AA91" d="M32.568,850.513H31.88c-0.091,0-0.17,0.1-0.17,0.222v1.858
				c0,0.121,0.079,0.22,0.17,0.22h0.688V850.513z"/>
			<path fill-rule="evenodd" clip-rule="evenodd" fill="#AB9F81" d="M53.431,850.513h0.686c0.095,0,0.171,0.1,0.171,0.222v1.858
				c0,0.121-0.076,0.22-0.171,0.22h-0.686V850.513z"/>
			<rect x="34.149" y="848.297" fill-rule="evenodd" clip-rule="evenodd" fill="#FFFFFF" width="4.679" height="25.524"/>
			<rect x="34.149" y="854.672" fill-rule="evenodd" clip-rule="evenodd" fill="#A6C945" width="4.679" height="11.401"/>
			<path fill-rule="evenodd" clip-rule="evenodd" fill="#6B5731" d="M31.71,852.022h-0.777c0.61,2.832,1.907,4.948,3.842,6.398
				c2.042,1.53,4.803,2.333,8.225,2.462v0.715h-0.013c-3.577-0.134-6.477-0.982-8.638-2.604c-2.17-1.625-3.588-4.019-4.196-7.236
				c-0.009-0.029-0.013-0.063-0.013-0.094c0-0.198,0.159-0.359,0.356-0.359h1.214V852.022z"/>
			<rect x="47.428" y="848.297" fill-rule="evenodd" clip-rule="evenodd" fill="#AB9F81" width="4.679" height="25.524"/>
			<rect x="47.428" y="854.672" fill-rule="evenodd" clip-rule="evenodd" fill="#718730" width="4.679" height="11.401"/>
			<path fill-rule="evenodd" clip-rule="evenodd" fill="#4F4125" d="M54.289,852.027h0.779c-0.611,2.832-1.909,4.948-3.844,6.399
				c-2.04,1.53-4.8,2.332-8.224,2.463v0.714h0.013c3.578-0.134,6.477-0.982,8.639-2.603c2.169-1.627,3.588-4.02,4.196-7.237
				c0.008-0.029,0.013-0.061,0.013-0.094c0-0.199-0.161-0.359-0.357-0.359h-1.215V852.027z"/>
		</g>
	</g>
</g>
<rect x="206.065" y="764.146" fill="#E8B767" width="76.647" height="2.954"/>
<path fill="#E29A31" d="M244.902,729.335c-18.497,0-33.494,15.395-33.494,34.383c0,0.192,0.003,0.381,0.003,0.567h66.979
	c0.005-0.187,0.016-0.376,0.016-0.567C278.406,744.729,263.406,729.335,244.902,729.335z"/>
<path opacity="0.5" fill="#E1721B" d="M255.294,730.502c-3.233-1.065-6.674-1.646-10.247-1.646c-3.573,0-7.012,0.581-10.24,1.644
	c0.434,5.421,4.85,9.68,10.243,9.68C250.439,740.179,254.858,735.92,255.294,730.502z"/>
</svg>
