<?xml version="1.0" encoding="utf-8"?>
<!-- Generator: Adobe Illustrator 18.1.1, SVG Export Plug-In . SVG Version: 6.00 Build 0)  -->
<svg version="1.1" id="Layer_2" xmlns="http://www.w3.org/2000/svg" xmlns:xlink="http://www.w3.org/1999/xlink" x="0px" y="0px"
	 width="492.489px" height="1289.18px" viewBox="0 0 492.489 1289.18" enable-background="new 0 0 492.489 1289.18"
	 xml:space="preserve">
<g>
	<g>
		<path fill="#FFFFFF" stroke="#CDCDCD" stroke-miterlimit="10" d="M394.911,822.334c13.582-35.002,21.42-76.354,21.408-119.287l0,0
			c0.007-48.574-9.986-99.103-32.349-145.195l0,0c-22.393-46.115-56.975-87.869-106.998-119.777l0,0l19.258-30.221
			c55.775,35.516,95.011,82.795,119.984,134.361l0,0c25.006,51.59,35.933,107.391,35.939,160.832l0,0
			c-0.011,47.27-8.531,92.744-23.832,132.24l0,0L394.911,822.334L394.911,822.334z M276.973,438.074L276.973,438.074
			L276.973,438.074v0.002V438.074L276.973,438.074z"/>
	</g>
	<g>
		<path fill="#FFFFFF" stroke="#CDCDCD" stroke-miterlimit="10" d="M55.802,743.816c0.825-14.336,1.574-35.893,4.207-61.525l0,0
			c2.639-25.664,7.172-55.535,15.664-87.117l0,0c16.94-63.084,49.987-133.447,115.505-189.203l0,0l23.227,27.287
			c-43.941,37.422-71.626,82.082-89.447,126.824l0,0c-17.803,44.713-25.56,89.4-29.301,125.873l0,0
			c-2.501,24.344-3.223,44.91-4.077,59.908l0,0L55.802,743.816L55.802,743.816z"/>
	</g>
	<g>
		<path fill="#DDB98E" d="M335.568,454.201c-13.061-43.615-44.815-74.416-81.938-74.416h-16.186
			c-37.428,0-69.42,31.32-82.256,75.508c-3.889,13.373-6.042,27.906-6.042,43.142v264.871c0,65.523,39.537,118.65,88.298,118.65
			h16.186c48.774,0,88.29-53.127,88.29-118.65V498.435C341.92,482.795,339.654,467.875,335.568,454.201z"/>
	</g>
	<g>
		<path fill="#36162D" d="M207.4,908.556v311.836c0,18.238-10.896,33.023-24.339,33.023c-13.455,0-24.354-14.785-24.354-33.023
			V908.556H207.4z"/>
	</g>
	<g>
		<path fill="#36162D" d="M283.674,908.556v311.836c0,18.238,10.915,33.023,24.358,33.023c13.446,0,24.347-14.785,24.347-33.023
			V908.556H283.674z"/>
	</g>
	<path fill="#563305" d="M211.872,2.943c-44.949,7.952-87.451,32-113.091,71.932c-23.511,36.623-40.233,80.912-47.073,125.1
		c-1.688,10.955-2.74,132.836,4.487,131.273c116.176-24.969,250.547-52.752,366.751-17.592
		c22.494-101.457,1.648-226.818-82.612-285.633C304.831,3.234,257.105-5.056,211.872,2.943z"/>
	<path fill="#DDB98E" d="M409.62,199.654c0,89.73-72.754,162.482-162.482,162.482c-89.748,0-162.481-72.752-162.481-162.482
		c0-89.74,72.733-162.482,162.481-162.482C336.866,37.172,409.62,109.914,409.62,199.654z"/>
	<path fill="#563305" d="M247.138,11.761c-82.501,0-150.586,72.563-161.052,166.538h226.028l-19.839-56.459l-12.659-18.541
		l12.659,18.541l-4.508-12.771l4.508,12.771l38.464,56.459h77.451C397.725,84.324,329.639,11.761,247.138,11.761z"/>
	<g>
		<path fill="#F0262B" d="M205.934,291.691c3.198,25.053,21.337,44.281,43.329,44.281c21.989,0,40.132-19.229,43.334-44.281H205.934
			z"/>
		<path fill="#FFFFFF" d="M205.934,291.193c3.198,19.291,21.337,34.107,43.329,34.107c21.989,0,40.132-14.816,43.334-34.107H205.934
			z"/>
		<path fill="#F0262B" d="M205.557,291.691c11.522-9.6,31.248-12.096,43.634-2.607c9.751-9.271,35.01-8.103,43.406,2.607H205.557z"
			/>
	</g>
	<g>
		<g>
			<path fill="#36162D" d="M146.329,226.42l0.002,0.002c-1.931-0.922-2.748-3.23-1.826-5.158l0,0
				c0.919-1.928,3.229-2.748,5.156-1.826l0,0l6.34,3.025c6.481-9.639,17.306-14.564,27.843-14.553l0,0
				c11.762-0.068,23.734,6.305,28.672,19.189l0,0c0.767,1.994-0.224,4.234-2.218,5.002l0,0c-1.996,0.77-4.232-0.225-5.002-2.217l0,0
				c-3.748-9.639-12.258-14.172-21.452-14.238l0,0c-9.084,0.012-18.286,4.67-22.885,13.604l0,0l-1.721,3.33L146.329,226.42
				L146.329,226.42z"/>
		</g>
	</g>
	<g>
		<g>
			<path fill="#36162D" d="M332.658,229.25c-4.602-8.932-13.801-13.594-22.889-13.604l0,0c-9.199,0.068-17.715,4.602-21.47,14.24
				l0,0c-0.771,1.992-3.01,2.982-5.003,2.215l0,0c-1.994-0.771-2.985-3.012-2.214-5.004l0,0
				c4.945-12.883,16.924-19.254,28.688-19.189l0,0c10.539-0.008,21.363,4.918,27.846,14.555l0,0l6.339-3.025
				c1.927-0.92,4.237-0.104,5.157,1.826l0,0c0.919,1.93,0.104,4.236-1.824,5.158l0,0l-12.91,6.16L332.658,229.25L332.658,229.25z"/>
		</g>
	</g>
	<g>
		<g>
			<g>
				<g>
					<path fill="#36162D" d="M184.721,265.801c-17.046-0.022-31.509-4.283-41.947-11.568l0,0
						c-10.422-7.236-16.793-17.74-16.772-29.402l0,0c-0.105-11.527,6.062-20.639,15.274-25.965l0,0
						c9.188-5.422,21.168-7.719,34.242-7.729l0,0c12.723,0.01,26.934,1.516,38.548,5.799l0,0
						c11.426,4.094,21.365,11.934,21.365,24.309l0,0c0,0.293,0,0.555,0,0.801l0,0l-4.668-0.084l4.668,0.168
						c-0.94,25.939-23.559,43.672-50.392,43.672l0,0C184.938,265.801,184.834,265.801,184.721,265.801L184.721,265.801z
						 M146.181,206.422c-6.994,4.252-10.787,9.779-10.88,18.408l0,0c0.028,8.518,4.468,16.254,12.957,22.223l0,0
						c8.493,5.938,21.048,9.861,36.463,9.852l0,0c22.936-0.141,40.561-14.209,41.394-35.084l0,0l0,0
						c0-0.217,0.008-0.406,0.008-0.576l0,0c0.008-7.199-5.363-12.186-15.428-16.037l0,0c-9.851-3.67-23.266-5.205-35.177-5.195l0,0
						c-0.056,0-0.105,0-0.153,0l0,0C163.536,200.012,153.135,202.262,146.181,206.422L146.181,206.422z"/>
				</g>
				<path fill="#36162D" d="M190.302,192.795c-3.174-3.287-40.124-1.328-45.825-1.328l-11.888,1.279
					c-9.598,0-17.384,5.986-17.384,13.385c0,6.418,5.91,11.781,13.769,13.053C134.115,207.297,147.583,196.107,190.302,192.795z"/>
			</g>
			<g>
				<g>
					<path fill="#36162D" d="M260.106,222.129L260.106,222.129c-0.036-0.375-0.036-0.658-0.036-0.885l0,0
						c0.017-12.375,9.506-20.215,20.405-24.309l0,0c11.105-4.283,24.684-5.789,36.854-5.799l0,0
						c12.462,0.01,23.904,2.307,32.679,7.729l0,0c8.807,5.326,14.7,14.438,14.596,25.965l0,0c0.028,11.662-6.07,22.166-16.01,29.402
						l0,0c-9.976,7.285-23.792,11.547-40.055,11.568l0,0c-0.121,0-0.226,0-0.318,0l0,0
						C282.581,265.779,260.975,248.068,260.106,222.129L260.106,222.129z M308.539,256.904c14.72,0.01,26.712-3.914,34.804-9.852
						l0,0c8.131-5.969,12.366-13.705,12.378-22.223l0,0c-0.096-8.629-3.708-14.156-10.373-18.408l0,0
						c-6.681-4.17-16.669-6.42-28.019-6.41l0,0c-11.386-0.01-24.214,1.525-33.635,5.195l0,0c-9.602,3.852-14.72,8.838-14.72,16.037
						l0,0c0,0.246,0,0.369,0,0.443l0,0l-4.436,0.273l4.443-0.141C269.773,242.695,286.619,256.764,308.539,256.904L308.539,256.904z
						"/>
				</g>
				<path fill="#36162D" d="M303.211,192.795c3.013-3.287,38.295-1.328,43.763-1.328l11.353,1.279
					c9.176,0,16.601,5.986,16.601,13.385c0,6.418-5.648,11.781-13.157,13.053C356.87,207.297,343.981,196.107,303.211,192.795z"/>
			</g>
			<path fill="#36162D" d="M231.232,217.998c0.623,4.357-1.338,10.73-3.436,15.539c0.724-0.574,5.26,0.264,5.975-0.613
				c16.256-19.576,30.856,2.656,30.856,2.656l0.329-17.902L231.232,217.998z"/>
		</g>
	</g>
	<g>
		<path fill="#FFFFFF" stroke="#CDCDCD" stroke-miterlimit="10" d="M296.06,478.021c16.971-2.822,25.994-24.902,29.899-47.492
			c-4.641-8.902-10.145-16.94-16.384-23.83c-10.401,25.449-28.313,39.08-47.669,42.297
			C267.362,467.01,280.371,480.639,296.06,478.021z"/>
		<path fill="#FFFFFF" stroke="#CDCDCD" stroke-miterlimit="10" d="M341.92,498.435c0-15.641-2.266-30.56-6.352-44.234
			c-2.531-8.422-5.789-16.34-9.609-23.672c-3.905,22.59-12.929,44.67-29.899,47.492c-15.689,2.617-28.697-11.012-34.153-29.025
			c-9.442,1.572-19.22,0.621-28.641-2.607c-16.95,43.191-55.849,23.398-66.953-18.098c-4.52,8.264-8.304,17.299-11.125,27.002
			c-3.889,13.373-6.042,27.906-6.042,43.142v153.317H341.92V498.435z"/>
		<path fill="#FFFFFF" stroke="#CDCDCD" stroke-miterlimit="10" d="M233.266,446.389c-18.674-6.398-35.961-21.881-46.287-45.307
			c-7.963,7.473-14.917,16.707-20.666,27.209C177.417,469.787,216.315,489.58,233.266,446.389z"/>
	</g>
	<g>
		<path d="M246.244,612.687C110.246,612.687,0,730.484,0,875.836c0,8.547,0.402,16.998,1.165,25.336
			c68.592,26.25,153.335,41.76,245.079,41.76c91.745,0,176.488-15.51,245.088-41.76c0.743-8.338,1.157-16.789,1.157-25.336
			C492.489,730.484,382.243,612.687,246.244,612.687z"/>
	</g>
	<g>
		<rect x="149.146" y="602.68" fill="#36162D" width="192.774" height="30.775"/>
	</g>
	<path fill="#36162D" d="M256.278,479.234c0,3.596-2.909,6.516-6.525,6.516c-3.596,0-6.512-2.92-6.512-6.516
		c0-3.604,2.916-6.52,6.512-6.52C253.369,472.715,256.278,475.631,256.278,479.234z"/>
	<path fill="#36162D" d="M256.278,512.422c0,3.594-2.909,6.514-6.525,6.514c-3.596,0-6.512-2.92-6.512-6.514
		c0-3.596,2.916-6.521,6.512-6.521C253.369,505.9,256.278,508.826,256.278,512.422z"/>
	<path fill="#36162D" d="M256.278,545.598c0,3.603-2.909,6.531-6.525,6.531c-3.596,0-6.512-2.928-6.512-6.531
		c0-3.596,2.916-6.514,6.512-6.514C253.369,539.084,256.278,542.002,256.278,545.598z"/>
	<rect x="221.125" y="356.67" fill="#DDB98E" width="46.334" height="33.965"/>
	<g>
		<path fill="#36162D" d="M122.754,1240.156c-1.92,2.305-8.039,9.092-6.363,12.328c1.546,2.982,14.889,3.879,17.693,3.371
			c18.469-4.209,36.612-10.006,49.368-13.949c-11.559-9.008-24.295-16.311-37.67-21.072
			C137.462,1226.256,128.796,1232.881,122.754,1240.156z"/>
		<path fill="#36162D" d="M89.115,1251.976c1.96-0.281,3.881-0.801,5.762-1.582c9.714-3.988,16.901-12.732,24.246-19.82
			c3.8-3.689,9.252-9.881,14.378-13.365c-1.984-0.461-4.01-0.725-6.015-1.082C110.669,1224.24,97.407,1236.965,89.115,1251.976z"/>
		<path fill="#36162D" d="M207.4,1217.22c-18.851-10.297-42.313-13.197-65.39-6.599c19.971,5.498,38.85,12.648,52.518,27.594
			c4.198-1.627,8.967-3.725,12.872-5.59V1217.22z"/>
		<g>
			<path fill="#F0812B" d="M192.25,1239.082c0.751-0.271,1.486-0.555,2.278-0.867c-13.668-14.945-32.547-22.096-52.518-27.594
				c-1.213,0.349-2.438,0.613-3.652,1.008c-3.785,1.26-7.381,2.815-10.872,4.498c2.005,0.357,4.03,0.621,6.015,1.082h0.02
				c-5.139,3.475-10.579,9.668-14.398,13.365c-7.345,7.088-14.532,15.832-24.246,19.82c-1.881,0.781-3.802,1.301-5.762,1.582
				c-1.523,2.758-2.904,5.582-4.094,8.48c3.21,0.441,3.21,0.441,0,0c-3.736,9.139-5.769,18.871-5.729,28.723l128.108-42.522v-14.033
				C202.752,1234.838,196.878,1237.398,192.25,1239.082z M122.754,1240.156c6.042-7.275,14.708-13.9,23.041-19.322
				c13.362,4.762,26.098,12.064,37.657,21.072c-12.765,3.953-30.899,9.74-49.377,13.949c-2.832,0.508-16.138-0.389-17.685-3.371
				C114.715,1249.248,120.834,1242.461,122.754,1240.156z"/>
		</g>
	</g>
	<g>
		<path fill="#36162D" d="M368.332,1240.156c1.908,2.305,8.026,9.092,6.352,12.328c-1.543,2.982-14.89,3.879-17.701,3.371
			c-18.456-4.209-36.604-10.006-49.348-13.949c11.559-9.008,24.294-16.311,37.656-21.072
			C353.619,1226.256,362.298,1232.881,368.332,1240.156z"/>
		<path fill="#36162D" d="M401.959,1251.976c-1.94-0.281-3.877-0.801-5.77-1.582c-9.702-3.988-16.874-12.732-24.218-19.82
			c-3.829-3.689-9.269-9.881-14.399-13.365c1.998-0.461,4.011-0.725,6.022-1.082C380.417,1224.24,393.675,1236.965,401.959,1251.976
			z"/>
		<path fill="#36162D" d="M283.674,1217.22c18.862-10.297,42.333-13.197,65.39-6.599c-19.971,5.498-38.838,12.648-52.513,27.594
			c-4.19-1.627-8.96-3.725-12.876-5.59V1217.22z"/>
		<g>
			<path fill="#F0812B" d="M283.674,1232.625v14.033l128.128,42.522c0.021-9.852-2.013-19.584-5.749-28.723
				c-3.19,0.441-3.19,0.441,0,0c-1.177-2.898-2.56-5.723-4.094-8.48c-1.94-0.281-3.877-0.801-5.77-1.582
				c-9.702-3.988-16.874-12.732-24.218-19.82c-3.829-3.697-9.276-9.891-14.415-13.365h0.016c1.998-0.461,4.011-0.725,6.022-1.082
				c-3.499-1.684-7.074-3.238-10.879-4.498c-1.201-0.394-2.427-0.658-3.652-1.008c-19.971,5.498-38.838,12.648-52.513,27.594
				c0.787,0.313,1.535,0.596,2.278,0.867C294.196,1237.398,288.322,1234.838,283.674,1232.625z M374.684,1252.484
				c-1.543,2.982-14.853,3.879-17.685,3.371c-18.465-4.209-36.6-9.996-49.363-13.949c11.559-9.008,24.294-16.311,37.656-21.072
				c8.328,5.422,17.007,12.047,23.041,19.322C370.24,1242.461,376.358,1249.248,374.684,1252.484z"/>
		</g>
	</g>
</g>
</svg>
