<?xml version="1.0" encoding="utf-8"?>
<!-- Generator: Adobe Illustrator 18.1.1, SVG Export Plug-In . SVG Version: 6.00 Build 0)  -->
<svg version="1.2" baseProfile="tiny" id="Слой_1" xmlns:ev="http://www.w3.org/2001/xml-events"
	 xmlns="http://www.w3.org/2000/svg" xmlns:xlink="http://www.w3.org/1999/xlink" x="0px" y="0px" width="27px" height="27px"
	 viewBox="-266 467 27 27" xml:space="preserve">
<path fill="#FFFFFF" d="M-262.57,490.64c-0.64-0.64-1.15-1.32-1.54-2c-1.77-3.1-0.78-6.65,2.37-8.17c0.62-0.3,1.32-0.53,2.09-0.68
	c0.05-0.01,0.11-0.03,0.16-0.03l0.06-0.01c0.39-0.07,0.56-0.11,0.7-0.34c0.17-0.31,0.36-0.64,0.56-0.96l0.01-0.01h-0.01
	c0.22-0.34,0.46-0.68,0.74-1.01c0.68-0.8,1.52-1.43,2.58-1.58c0.87-0.13,1.85,0.07,2.96,0.77l4.26-4.27
	c0.01-0.05,0.02-0.11,0.03-0.15l0.03-0.09c0.07-0.24,0.19-0.45,0.37-0.63l0.03-0.03c0.95-1.01,1.93-2,2.9-2.99l0.02-0.03l0.03-0.02
	c0.28-0.26,0.63-0.4,0.98-0.4c0.38-0.01,0.75,0.12,1.05,0.41l0.01,0.01l0.01,0.01h0.01h0.01l0,0l0,0l1.79,1.8
	c0.29,0.28,0.43,0.66,0.43,1.04s-0.14,0.76-0.43,1.05l-0.08,0.07c-0.99,0.97-1.99,1.95-3,2.91c-0.2,0.19-0.45,0.32-0.7,0.37
	l-0.1,0.01l-0.03,0.01l-4.26,4.27c0.69,1.11,0.89,2.09,0.77,2.97c-0.16,1.07-0.79,1.9-1.58,2.59c-0.31,0.27-0.66,0.52-1.01,0.73
	l0.01,0.01c-0.26,0.16-0.58,0.35-0.91,0.53l-0.05,0.04l0,0c-0.25,0.14-0.28,0.3-0.35,0.69l-0.03,0.13l0,0l0,0
	c-0.15,0.82-0.39,1.55-0.69,2.19c-1.57,3.25-5.15,4.11-8.18,2.36C-261.26,491.78-261.93,491.27-262.57,490.64L-262.57,490.64z
	 M-252.27,482.66c0,1.28-1.05,2.33-2.33,2.33c-1.28,0-2.33-1.05-2.33-2.33c0-1.28,1.05-2.33,2.33-2.33
	C-253.31,480.33-252.27,481.38-252.27,482.66L-252.27,482.66z M-253.38,482.66c0-0.67-0.54-1.22-1.22-1.22
	c-0.31,0-0.63,0.12-0.86,0.35l0,0l0,0c-0.24,0.24-0.35,0.55-0.35,0.86c0,0.68,0.55,1.22,1.22,1.22
	C-253.92,483.88-253.38,483.33-253.38,482.66L-253.38,482.66z M-262.51,487.72c0.31,0.54,0.73,1.08,1.25,1.61
	c0.53,0.53,1.07,0.94,1.6,1.25c2.11,1.21,4.48,0.75,5.6-1.57c0.24-0.5,0.43-1.08,0.55-1.72l0,0l0.03-0.13
	c0.18-1,0.25-1.41,1.24-1.97l0,0l0.01-0.01c0.26-0.14,0.52-0.29,0.88-0.52l0,0l0,0c0.27-0.18,0.55-0.37,0.8-0.57
	c0.49-0.43,0.88-0.9,0.95-1.45c0.09-0.57-0.14-1.28-0.83-2.21c-0.31-0.36-0.3-0.91,0.05-1.26l5.09-5.1h0.01
	c0.18-0.18,0.44-0.29,0.71-0.26c0.88-0.85,1.76-1.7,2.64-2.55l-1.27-1.27l-0.68,0.7c-0.63,0.64-1.24,1.29-1.86,1.93
	c0.01,0.26-0.07,0.53-0.27,0.73l-5.1,5.1l0,0c-0.32,0.32-0.84,0.36-1.21,0.08c-0.95-0.73-1.68-0.96-2.26-0.86
	c-0.54,0.08-1.02,0.46-1.44,0.95c-0.21,0.24-0.41,0.52-0.58,0.8h-0.01c-0.18,0.3-0.35,0.6-0.52,0.88c-0.56,1-0.99,1.08-1.97,1.26
	l-0.08,0.01l-0.04,0.01c-0.65,0.12-1.22,0.31-1.72,0.54C-263.22,483.23-263.77,485.52-262.51,487.72L-262.51,487.72z"/>
</svg>
