<svg baseProfile="full" xmlns="http://www.w3.org/2000/svg" height="28" width="25"><path fill="rgb( 93, 193, 232 )" d="M17.995 15.48c.239 0 .443.087.612.261.168.174.252.385.252.633s-.084.459-.252.633c-.169.174-.373.261-.612.261-.24 0-.444-.087-.612-.261-.169-.174-.253-.385-.253-.633s.084-.459.253-.633c.168-.174.372-.261.612-.261zm-1.544-6.024c-.087.21-.131.437-.131.68 0 .093-.017.179-.051.259l-.137.21c-.057.061-.125.109-.201.142-.078.034-.161.051-.25.051-.183 0-.334-.063-.454-.189-.119-.126-.179-.284-.179-.473 0-.419.078-.814.234-1.184.156-.369.368-.693.636-.97s.581-.495.938-.655c.357-.159.737-.239 1.139-.239.401 0 .781.082 1.138.245.357.164.67.385.938.662.268.277.48.6.636.97.156.369.235.76.235 1.171 0 .831-.291 1.554-.871 2.167l-.956.913c-.325.336-.487.704-.487 1.102 0 .189-.06.346-.18.469-.12.124-.271.186-.453.186-.183 0-.335-.062-.457-.186-.122-.123-.183-.28-.183-.469 0-.756.29-1.433.871-2.034l.956-.92c.324-.348.487-.758.487-1.228 0-.235-.045-.457-.134-.667-.089-.21-.21-.394-.363-.552-.151-.157-.329-.282-.532-.374-.203-.092-.418-.139-.645-.139-.232 0-.449.045-.652.135-.203.091-.38.214-.533.369-.152.156-.272.338-.359.548zm-3.951 7.509h-7.06c-.352 0-.637-.295-.637-.658 0-.364.285-.659.637-.659h7.06c.352 0 .637.295.637.659 0 .363-.285.658-.637.658zm-7.06-8.146c-.352 0-.637-.295-.637-.659 0-.364.285-.659.637-.659h7.06c.352 0 .637.295.637.659 0 .364-.285.659-.637.659h-7.06zm7.06 4.073h-7.06c-.352 0-.637-.295-.637-.659 0-.364.285-.659.637-.659h7.06c.352 0 .637.296.637.659 0 .364-.285.659-.637.659zm.551 11.418c-.102.021-.21.021-.321-.005l-.039-.009c-.391-.091-.656-.469-.617-.883.038-.413.368-.732.769-.744 5.924-.176 10.564-4.792 10.564-10.507 0-5.798-4.893-10.515-10.907-10.515-6.015 0-10.908 4.717-10.908 10.515 0 3.829 2.164 7.359 5.646 9.212.327.174.496.556.409.926l-.026.091-1.155 3.967c.818.017 2.23-.188 3.901-1.48.352-.272.851-.198 1.114.166.263.365.191.881-.161 1.153-1.913 1.479-3.618 1.803-4.744 1.803-.833 0-1.349-.177-1.397-.195-.403-.144-.625-.592-.502-1.015l1.247-4.283c-3.671-2.211-5.924-6.116-5.924-10.345 0-6.706 5.607-12.162 12.5-12.162 6.892 0 12.5 5.456 12.5 12.162 0 6.56-5.236 11.865-11.949 12.148z"/></svg>