<?xml version="1.0" encoding="utf-8"?>
<!-- Generator: Adobe Illustrator 18.1.1, SVG Export Plug-In . SVG Version: 6.00 Build 0)  -->
<svg version="1.1" id="Слой_1" xmlns:ev="http://www.w3.org/2001/xml-events"
	 xmlns="http://www.w3.org/2000/svg" xmlns:xlink="http://www.w3.org/1999/xlink" x="0px" y="0px" width="25px" height="22px"
	 viewBox="-267 470 25 22" enable-background="new -267 470 25 22" xml:space="preserve">
<path fill="#FFFFFF" d="M-266.03,471h0.02h23.04c0.53,0,0.96,0.44,0.96,0.97v0.02v16.7c0,0.54-0.43,0.97-0.96,0.97h-0.02h-10.54
	v1.07l-0.01,0.1h5.33c0.32,0,0.58,0.26,0.58,0.58s-0.26,0.58-0.58,0.58h-12.58c-0.32,0-0.58-0.26-0.58-0.58s0.26-0.58,0.58-0.58
	h5.33l-0.01-0.1v-1.07h-10.57c-0.53,0-0.96-0.43-0.96-0.97v-0.02v-16.7C-266.99,471.43-266.56,471-266.03,471L-266.03,471z
	 M-245.66,485.01L-245.66,485.01c-0.53,0-0.96,0.43-0.96,0.97c0,0.53,0.43,0.97,0.96,0.97c0.53,0,0.96-0.43,0.96-0.97
	C-244.7,485.45-245.13,485.01-245.66,485.01L-245.66,485.01z M-243.93,472.94L-243.93,472.94h-21.14c0,4.93,0,9.85,0,14.78
	c7.04,0,14.1,0,21.14,0C-243.93,482.79-243.93,477.87-243.93,472.94L-243.93,472.94z"/>
</svg>
