<?xml version="1.0" encoding="utf-8"?>
<!DOCTYPE svg PUBLIC "-//W3C//DTD SVG 1.1//EN" "http://www.w3.org/Graphics/SVG/1.1/DTD/svg11.dtd">
<svg version="1.1" baseProfile="full"
 xmlns="http://www.w3.org/2000/svg"
 xmlns:xlink="http://www.w3.org/1999/xlink"
 xmlns:ev="http://www.w3.org/2001/xml-events" 
  height="22px" 
  width="25px" 
>
<path fill="rgb( 93, 193, 232 )"
 d="M0.971,0.99599999999998 C0.971,0.99599999999998 0.99400000000003,0.99599999999998 0.99400000000003,0.99599999999998 C0.99400000000003,0.99599999999998 24.029,0.99599999999998 24.029,0.99599999999998 C24.561,0.99599999999998 24.991,1.43200000000002 24.991,1.96899999999999 C24.991,1.96899999999999 24.991,1.99000000000001 24.991,1.99000000000001 C24.991,1.99000000000001 24.991,18.692 24.991,18.692 C24.991,19.232 24.561,19.662 24.029,19.662 C24.029,19.662 24.005,19.662 24.005,19.662 C24.005,19.662 13.463,19.662 13.463,19.662 C13.463,19.662 13.463,20.729 13.463,20.729 C13.463,20.729 13.456,20.828 13.456,20.828 C13.456,20.828 18.789,20.828 18.789,20.828 C19.1130000000001,20.828 19.369,21.086 19.369,21.406 C19.369,21.726 19.1130000000001,21.991 18.789,21.991 C18.789,21.991 6.21100000000001,21.991 6.21100000000001,21.991 C5.89400000000001,21.991 5.63499999999999,21.726 5.63499999999999,21.406 C5.63499999999999,21.086 5.89400000000001,20.828 6.21100000000001,20.828 C6.21100000000001,20.828 11.544,20.828 11.544,20.828 C11.544,20.828 11.537,20.729 11.537,20.729 C11.537,20.729 11.537,19.662 11.537,19.662 C11.537,19.662 0.971,19.662 0.971,19.662 C0.43899999999996,19.662 0.00900000000001,19.232 0.00900000000001,18.692 C0.00900000000001,18.692 0.00900000000001,18.668 0.00900000000001,18.668 C0.00900000000001,18.668 0.00900000000001,1.96899999999999 0.00900000000001,1.96899999999999 C0.00900000000001,1.43200000000002 0.43899999999996,0.99599999999998 0.971,0.99599999999998 C0.971,0.99599999999998 0.971,0.99599999999998 0.971,0.99599999999998 ZM21.343,15.012 C21.343,15.012 21.343,15.012 21.343,15.012 C20.814,15.012 20.381,15.446 20.381,15.982 C20.381,16.515 20.814,16.948 21.343,16.948 C21.871,16.948 22.304,16.515 22.304,15.982 C22.304,15.446 21.871,15.012 21.343,15.012 C21.343,15.012 21.343,15.012 21.343,15.012 ZM23.068,2.93900000000002 C23.068,2.93900000000002 23.068,2.93900000000002 23.068,2.93900000000002 C23.068,2.93900000000002 1.93200000000002,2.93900000000002 1.93200000000002,2.93900000000002 C1.93200000000002,7.868 1.93200000000002,12.793 1.93200000000002,17.722 C8.976,17.722 16.027,17.722 23.068,17.722 C23.068,12.793 23.068,7.868 23.068,2.93900000000002 C23.068,2.93900000000002 23.068,2.93900000000002 23.068,2.93900000000002 Z "/>
</svg>
