<?xml version="1.0" encoding="utf-8"?>
<!DOCTYPE svg PUBLIC "-//W3C//DTD SVG 1.1//EN" "http://www.w3.org/Graphics/SVG/1.1/DTD/svg11.dtd">
<svg version="1.1" baseProfile="full"
 xmlns="http://www.w3.org/2000/svg"
 xmlns:xlink="http://www.w3.org/1999/xlink"
 xmlns:ev="http://www.w3.org/2001/xml-events" 
  height="27px" 
  width="21px" 
>
<path fill="rgb( 93, 193, 232 )"
 d="M12.851,16.164 C12.974,16.235 13.097,16.307 13.2190000000001,16.37 C13.2190000000001,16.37 13.2569999999999,16.384 13.2569999999999,16.384 C13.65,16.569 14.068,16.661 14.48,16.661 C14.904,16.661 15.335,16.561 15.741,16.37 C15.741,16.37 15.765,16.356 15.765,16.356 C16.141,16.172 16.491,15.895 16.799,15.555 C17.112,15.186 17.352,14.775 17.5119999999999,14.321 C17.5119999999999,14.321 17.524,14.293 17.524,14.293 C17.684,13.832 17.758,13.357 17.758,12.875 C17.758,12.379 17.678,11.89 17.5119999999999,11.422 C17.5119999999999,11.422 17.5,11.401 17.5,11.401 C17.45,11.258 17.389,11.132 17.328,11.004 C17.328,11.004 19.7380000000001,8.22499999999999 19.7380000000001,8.22499999999999 C20.0700000000001,7.83500000000001 20.0700000000001,7.20400000000001 19.7380000000001,6.81399999999999 C19.603,6.66499999999999 19.437,6.566 19.258,6.53800000000001 C19.258,6.53800000000001 16.245,5.857 16.245,5.857 C16.245,5.857 16.202,5.84299999999999 16.202,5.84299999999999 C16.202,5.84299999999999 13.447,5.233 13.447,5.233 C13.447,5.233 11.818,3.34700000000001 11.818,3.34700000000001 C11.818,3.34700000000001 9.99699999999996,1.249 9.99699999999996,1.249 C9.65899999999999,0.852 9.11199999999997,0.852 8.774,1.24199999999999 C8.774,1.24199999999999 8.76700000000005,1.249 8.76700000000005,1.249 C8.76700000000005,1.249 8.76700000000005,1.24199999999999 8.76700000000005,1.24199999999999 C8.76700000000005,1.24199999999999 6.57899999999995,3.76499999999999 6.57899999999995,3.76499999999999 C6.57899999999995,3.76499999999999 6.54100000000005,3.816 6.54100000000005,3.816 C6.54100000000005,3.816 4.38900000000001,6.28899999999999 4.38900000000001,6.28899999999999 C4.05700000000002,6.679 4.05700000000002,7.303 4.38900000000001,7.69999999999999 C4.38900000000001,7.69999999999999 5.601,9.10400000000001 5.601,9.10400000000001 C5.601,9.10400000000001 2.32899999999995,12.875 2.32899999999995,12.875 C2.32899999999995,12.875 2.28599999999994,12.925 2.28599999999994,12.925 C2.13199999999995,12.875 1.96600000000001,12.847 1.79399999999998,12.847 C1.30200000000002,12.847 0.86000000000001,13.073 0.53999999999996,13.442 C0.21400000000006,13.811 0.01099999999997,14.328 0.01099999999997,14.895 C0.01099999999997,15.456 0.21400000000006,15.973 0.53999999999996,16.349 C0.86000000000001,16.718 1.30200000000002,16.944 1.79399999999998,16.944 C1.96600000000001,16.944 2.12599999999998,16.916 2.28599999999994,16.866 C2.28599999999994,16.866 2.32299999999998,16.916 2.32299999999998,16.916 C2.32299999999998,16.916 7.24199999999996,22.587 7.24199999999996,22.587 C7.09500000000003,22.644 6.96000000000004,22.715 6.82399999999996,22.786 C5.69299999999998,23.36 4.68399999999997,24.21 3.86699999999996,25.253 C3.553,25.657 3.577,26.288 3.928,26.656 C4.10599999999999,26.834 4.322,26.919 4.53599999999994,26.912 C4.53599999999994,26.912 4.54899999999998,26.912 4.54899999999998,26.912 C4.54899999999998,26.912 4.56700000000001,26.912 4.56700000000001,26.912 C4.56700000000001,26.912 16.184,26.912 16.184,26.912 C16.184,26.912 16.202,26.912 16.202,26.912 C16.202,26.912 16.2089999999999,26.912 16.2089999999999,26.912 C16.43,26.919 16.651,26.834 16.823,26.656 C17.174,26.288 17.199,25.657 16.885,25.253 C16.067,24.21 15.058,23.36 13.933,22.786 C12.838,22.226 11.633,21.907 10.379,21.907 C9.97299999999996,21.907 9.57899999999995,21.949 9.18600000000004,22.006 C9.18600000000004,22.006 3.553,15.512 3.553,15.512 C3.553,15.512 3.50400000000002,15.456 3.50400000000002,15.456 C3.553,15.285 3.577,15.087 3.577,14.895 C3.577,14.697 3.553,14.506 3.50400000000002,14.328 C3.50400000000002,14.328 3.54700000000003,14.279 3.54700000000003,14.279 C3.54700000000003,14.279 6.82399999999996,10.507 6.82399999999996,10.507 C6.82399999999996,10.507 7.84500000000003,11.684 7.84500000000003,11.684 C7.84500000000003,11.684 8.38599999999997,14.903 8.38599999999997,14.903 C8.38599999999997,14.903 8.98900000000003,18.419 8.98900000000003,18.419 C9.07500000000005,18.958 9.52999999999997,19.312 9.99699999999996,19.213 C10.175,19.17 10.33,19.071 10.446,18.929 C10.446,18.929 12.851,16.164 12.851,16.164 C12.851,16.164 12.851,16.164 12.851,16.164 ZM12.045,6.43100000000001 C12.045,6.43100000000001 12.045,6.43100000000001 12.045,6.43100000000001 C12.045,6.43100000000001 8.88999999999999,10.068 8.88999999999999,10.068 C8.88999999999999,10.068 7.45100000000002,8.416 7.45100000000002,8.416 C7.45100000000002,8.416 7.43899999999996,8.39500000000001 7.43899999999996,8.39500000000001 C7.43899999999996,8.39500000000001 7.43899999999996,8.39500000000001 7.43899999999996,8.39500000000001 C7.43899999999996,8.39500000000001 7.42700000000002,8.381 7.42700000000002,8.381 C7.42700000000002,8.381 7.40200000000004,8.35300000000001 7.40200000000004,8.35300000000001 C7.40200000000004,8.35300000000001 6.22199999999998,6.99799999999999 6.22199999999998,6.99799999999999 C6.22199999999998,6.99799999999999 7.75900000000001,5.226 7.75900000000001,5.226 C7.75900000000001,5.226 7.80799999999999,5.17699999999999 7.80799999999999,5.17699999999999 C7.80799999999999,5.17699999999999 9.38300000000004,3.36199999999999 9.38300000000004,3.36199999999999 C9.38300000000004,3.36199999999999 10.5940000000001,4.751 10.5940000000001,4.751 C10.5940000000001,4.751 12.045,6.43100000000001 12.045,6.43100000000001 C12.045,6.43100000000001 12.045,6.43100000000001 12.045,6.43100000000001 ZM9.505,11.06 C9.505,11.06 9.505,11.06 9.505,11.06 C9.505,11.06 12.9,7.13999999999999 12.9,7.13999999999999 C12.9,7.13999999999999 15.8819999999999,7.80699999999999 15.8819999999999,7.80699999999999 C15.8819999999999,7.80699999999999 15.907,7.81299999999999 15.907,7.81299999999999 C15.907,7.81299999999999 17.352,8.13999999999999 17.352,8.13999999999999 C17.352,8.13999999999999 13.872,12.166 13.872,12.166 C13.872,12.166 10.372,16.193 10.372,16.193 C10.372,16.193 10.0839999999999,14.52 10.0839999999999,14.52 C10.0839999999999,14.52 9.505,11.06 9.505,11.06 C9.505,11.06 9.505,11.06 9.505,11.06 ZM5.94500000000005,25.714 C5.94500000000005,25.714 5.94500000000005,25.714 5.94500000000005,25.714 C6.42399999999998,25.267 6.95299999999997,24.884 7.51300000000003,24.6 C8.38599999999997,24.161 9.35199999999998,23.906 10.379,23.906 C11.4,23.906 12.371,24.161 13.232,24.6 C13.797,24.884 14.326,25.267 14.806,25.714 C14.806,25.714 5.94500000000005,25.714 5.94500000000005,25.714 C5.94500000000005,25.714 5.94500000000005,25.714 5.94500000000005,25.714 ZM13.626,15.272 C13.626,15.272 13.626,15.272 13.626,15.272 C13.626,15.272 15.0890000000001,13.584 15.0890000000001,13.584 C15.0890000000001,13.584 16.559,11.89 16.559,11.89 C16.669,12.195 16.725,12.535 16.725,12.875 C16.725,13.201 16.669,13.542 16.5650000000001,13.839 C16.5650000000001,13.839 16.552,13.867 16.552,13.867 C16.442,14.165 16.282,14.449 16.067,14.705 C16.067,14.705 16.067,14.705 16.067,14.705 C15.8579999999999,14.946 15.6180000000001,15.129 15.366,15.257 C15.366,15.257 15.341,15.272 15.341,15.272 C15.064,15.399 14.769,15.456 14.48,15.456 C14.191,15.456 13.902,15.399 13.638,15.272 C13.638,15.272 13.626,15.272 13.626,15.272 C13.626,15.272 13.626,15.272 13.626,15.272 ZM1.27099999999996,14.293 C1.27099999999996,14.293 1.27099999999996,14.293 1.27099999999996,14.293 C1.40099999999995,14.137 1.59100000000001,14.038 1.79399999999998,14.038 C2.00300000000004,14.038 2.18100000000004,14.137 2.32299999999998,14.293 C2.452,14.442 2.53800000000001,14.662 2.53800000000001,14.895 C2.53800000000001,15.129 2.452,15.342 2.32299999999998,15.498 C2.18100000000004,15.654 2.00300000000004,15.754 1.79399999999998,15.754 C1.59100000000001,15.754 1.40700000000004,15.654 1.27099999999996,15.498 C1.14200000000005,15.342 1.05600000000004,15.129 1.05600000000004,14.895 C1.05600000000004,14.662 1.14200000000005,14.442 1.27099999999996,14.293 C1.27099999999996,14.293 1.27099999999996,14.293 1.27099999999996,14.293 Z "/>
</svg>
