<?xml version="1.0" encoding="utf-8"?>
<!-- Generator: Adobe Illustrator 18.1.1, SVG Export Plug-In . SVG Version: 6.00 Build 0)  -->
<svg version="1.1" id="Layer_1" xmlns="http://www.w3.org/2000/svg" xmlns:xlink="http://www.w3.org/1999/xlink" x="0px" y="0px"
	 width="845px" height="148.639px" viewBox="0 0 845 148.639" enable-background="new 0 0 845 148.639" xml:space="preserve">
<g opacity="0.75">
	<path fill="#E4E7E9" d="M225.084,146.518v-1.598h-0.294c-23.078-8.268-38.643-21.854-46.326-40.41v-8.721h1.542v-1.651h-1.542
		v-4.32h0.593V88.83h-0.593l-2.707-5.414v-3.99h1.204v-1.009h-1.204v-1.365h-1.009v1.365h-1.204v1.009h1.204v3.99l-2.707,5.414
		h-0.07l-2.707-10.002V68.538h1.204v-1.009h-1.204v-1.365h-1.009v1.365h-1.204v1.009h1.204v10.289l-2.707,10.002h-0.07l-2.74-5.481
		v-3.923h1.204v-1.009h-1.204v-1.365h-1.01v1.365h-1.204v1.009h1.204v4.057l-2.673,5.347h-0.682v0.988h0.682v4.32h-1.542v1.651
		h1.542v3.635h-17.619v-1.303c0-0.641-0.519-1.16-1.16-1.16c-0.641,0-1.16,0.52-1.16,1.16v1.303h-9.954v-2.858
		c0-0.641-0.519-1.16-1.16-1.16c-0.641,0-1.16,0.52-1.16,1.16v2.858h-9.976v-1.303c0-0.641-0.52-1.16-1.16-1.16
		c-0.641,0-1.16,0.52-1.16,1.16v1.303H98.284v-3.635h1.542v-1.651h-1.542v-4.32h0.593V88.83h-0.593l-2.707-5.414v-3.99h1.204v-1.009
		h-1.204v-1.365h-1.009v1.365h-1.204v1.009h1.204v3.99l-2.707,5.414h-0.07l-2.707-10.002V68.538h1.204v-1.009h-1.204v-1.365h-1.009
		v1.365h-1.204v1.009h1.204v10.289L85.368,88.83h-0.07l-2.741-5.481v-3.923h1.204v-1.009h-1.204v-1.365h-1.009v1.365h-1.204v1.009
		h1.204v4.057l-2.673,5.347h-0.682v0.988h0.682v4.32h-1.542v1.651h1.542v5.599l-0.116-0.041
		c-7.179,20.183-23.177,34.842-47.549,43.574h-0.294v1.598h45.387v2.155H30.916v0.8h45.387v7.915h24.617v-9.214h0v-1.656h55.529
		v1.656h0.032v9.214h24.586v-7.915h44.016v-0.8h-44.016v-2.155H225.084z M214.84,142.523c1.801,0.838,3.662,1.635,5.571,2.397
		h-5.571V142.523z M210.031,140.123c1.262,0.674,2.554,1.328,3.876,1.96v2.837h-3.876V140.123z M205.221,137.367
		c1.258,0.775,2.55,1.527,3.877,2.255v5.298h-3.877V137.367z M200.41,134.164c1.252,0.899,2.546,1.77,3.877,2.614v8.141h-3.877
		V134.164z M195.601,130.411c1.245,1.055,2.537,2.079,3.876,3.071v11.438h-3.876V130.411z M190.791,125.941
		c1.234,1.261,2.528,2.482,3.877,3.666v15.313h-3.877V125.941z M185.981,120.454c1.217,1.552,2.51,3.055,3.876,4.508v19.957h-3.876
		V120.454z M170.941,90.423h1.099v3.714h-1.099V90.423z M170.941,95.788h1.099v4.196h-1.099V95.788z M169.105,90.423h1.145v3.714
		h-1.145V90.423z M169.105,95.788h1.145v4.196h-1.145V95.788z M167.268,90.423h1.145v3.714h-1.145V90.423z M167.268,95.788h1.145
		v4.196h-1.145V95.788z M165.478,90.423h1.099v3.714h-1.099V90.423z M165.478,95.788h1.099v4.196h-1.099V95.788z M141.435,100.354
		h17.619v1.018h-17.619V100.354z M141.435,102.302h17.619v3.29h-17.619V102.302z M131.471,100.354h7.643v1.018h-7.643V100.354z
		 M131.471,102.302h7.643v3.29h-7.643V102.302z M129.16,100.354h1.339v1.018h-1.339V100.354z M129.16,102.302h1.339v3.29h-1.339
		V102.302z M125.31,100.354h1.529v1.018h-1.529V100.354z M125.31,102.302h1.529v3.29h-1.529V102.302z M116.864,100.354h7.475v1.018
		h-7.475V100.354z M116.864,102.302h7.475v3.29h-7.475V102.302z M98.284,100.354h16.259v1.018H98.284V100.354z M98.284,102.302
		h16.259v3.29H98.284V102.302z M90.762,90.423h1.099v3.714h-1.099V90.423z M90.762,95.788h1.099v4.196h-1.099V95.788z
		 M88.925,90.423h1.145v3.714h-1.145V90.423z M88.925,95.788h1.145v4.196h-1.145V95.788z M87.089,90.423h1.145v3.714h-1.145V90.423z
		 M87.089,95.788h1.145v4.196h-1.145V95.788z M85.298,90.423h1.099v3.714h-1.099V90.423z M85.298,95.788h1.099v4.196h-1.099V95.788z
		 M41.16,144.92h-5.571c1.909-0.762,3.77-1.559,5.571-2.397V144.92z M45.969,144.92h-3.876v-2.837
		c1.323-0.632,2.614-1.286,3.876-1.96V144.92z M50.779,144.92h-3.877v-5.298c1.327-0.728,2.619-1.48,3.877-2.255V144.92z
		 M55.59,144.92h-3.877v-8.141c1.331-0.845,2.625-1.715,3.877-2.614V144.92z M60.399,144.92h-3.876v-11.438
		c1.339-0.992,2.631-2.016,3.876-3.071V144.92z M65.209,144.92h-3.877v-15.313c1.349-1.184,2.643-2.405,3.877-3.666V144.92z
		 M70.019,144.92h-3.876v-19.957c1.367-1.453,2.659-2.956,3.876-4.508V144.92z M177.315,144.92v-3.99h-17.111v3.99H97.135v-3.99
		H80.024v3.99h-9.071v-25.68c3.196-4.277,5.834-8.92,7.922-13.912v2.353h99.288c1.906,4.104,4.197,7.961,6.884,11.559v25.68H177.315
		z M100.921,151.734v1.119c5.969-2.682,16.461-4.463,28.418-4.463c11.125,0,20.985,1.542,27.111,3.916v-1.118
		c-6.126-2.375-15.986-3.916-27.111-3.916C117.382,147.271,106.89,149.052,100.921,151.734z M177.315,108.644h-17.111v5.097h-1.149
		v1.101h19.409v-1.101h-1.149V108.644z M163.855,113.741h-1.571v-2.944c0-0.434,0.352-0.786,0.786-0.786s0.786,0.352,0.786,0.786
		V113.741z M167.986,113.741h-1.571v-2.944c0-0.434,0.352-0.786,0.786-0.786c0.434,0,0.786,0.352,0.786,0.786V113.741z
		 M171.103,113.741h-1.571v-2.944c0-0.434,0.352-0.786,0.786-0.786c0.434,0,0.786,0.352,0.786,0.786V113.741z M175.234,113.741
		h-1.571v-2.944c0-0.434,0.352-0.786,0.786-0.786s0.786,0.352,0.786,0.786V113.741z M97.135,129.993H80.024v1.441h-1.149v1.1h19.409
		v-1.1h-1.149V129.993z M97.135,115.876H80.024v1.441h-1.149v1.101h19.409v-1.101h-1.149V115.876z M97.135,108.644H80.024v5.097
		h-1.149v1.101h19.409v-1.101h-1.149V108.644z M83.676,113.741h-1.571v-2.944c0-0.434,0.352-0.786,0.786-0.786
		c0.434,0,0.786,0.352,0.786,0.786V113.741z M87.807,113.741h-1.571v-2.944c0-0.434,0.352-0.786,0.786-0.786
		c0.434,0,0.785,0.352,0.785,0.786V113.741z M90.924,113.741h-1.571v-2.944c0-0.434,0.352-0.786,0.786-0.786
		c0.434,0,0.786,0.352,0.786,0.786V113.741z M95.054,113.741h-1.571v-2.944c0-0.434,0.352-0.786,0.786-0.786
		s0.786,0.352,0.786,0.786V113.741z M97.135,119.453H80.024v8.404h-1.149v1.101h19.409v-1.101h-1.149V119.453z M83.676,127.775
		h-1.571v-2.944c0-0.434,0.352-0.786,0.786-0.786c0.434,0,0.786,0.352,0.786,0.786V127.775z M87.807,127.775h-1.571v-2.944
		c0-0.434,0.352-0.786,0.786-0.786c0.434,0,0.785,0.352,0.785,0.786V127.775z M90.924,127.775h-1.571v-2.944
		c0-0.434,0.352-0.786,0.786-0.786c0.434,0,0.786,0.352,0.786,0.786V127.775z M95.054,127.775h-1.571v-2.944
		c0-0.434,0.352-0.786,0.786-0.786s0.786,0.352,0.786,0.786V127.775z M97.135,133.57H80.024v5.225h-1.149v1.1h19.409v-1.1h-1.149
		V133.57z M83.676,138.77h-1.571v-2.944c0-0.434,0.352-0.786,0.786-0.786c0.434,0,0.786,0.352,0.786,0.786V138.77z M87.807,138.77
		h-1.571v-2.944c0-0.434,0.352-0.786,0.786-0.786c0.434,0,0.785,0.352,0.785,0.786V138.77z M90.924,138.77h-1.571v-2.944
		c0-0.434,0.352-0.786,0.786-0.786c0.434,0,0.786,0.352,0.786,0.786V138.77z M95.054,138.77h-1.571v-2.944
		c0-0.434,0.352-0.786,0.786-0.786s0.786,0.352,0.786,0.786V138.77z M177.315,129.993h-17.111v1.441h-1.149v1.1h19.409v-1.1h-1.149
		V129.993z M177.315,133.57h-17.111v5.225h-1.149v1.1h19.409v-1.1h-1.149V133.57z M163.855,138.77h-1.571v-2.944
		c0-0.434,0.352-0.786,0.786-0.786s0.786,0.352,0.786,0.786V138.77z M167.986,138.77h-1.571v-2.944c0-0.434,0.352-0.786,0.786-0.786
		c0.434,0,0.786,0.352,0.786,0.786V138.77z M171.103,138.77h-1.571v-2.944c0-0.434,0.352-0.786,0.786-0.786
		c0.434,0,0.786,0.352,0.786,0.786V138.77z M175.234,138.77h-1.571v-2.944c0-0.434,0.352-0.786,0.786-0.786s0.786,0.352,0.786,0.786
		V138.77z M177.315,119.453h-17.111v8.404h-1.149v1.101h19.409v-1.101h-1.149V119.453z M163.855,127.775h-1.571v-2.944
		c0-0.434,0.352-0.786,0.786-0.786s0.786,0.352,0.786,0.786V127.775z M167.986,127.775h-1.571v-2.944
		c0-0.434,0.352-0.786,0.786-0.786c0.434,0,0.786,0.352,0.786,0.786V127.775z M171.103,127.775h-1.571v-2.944
		c0-0.434,0.352-0.786,0.786-0.786c0.434,0,0.786,0.352,0.786,0.786V127.775z M175.234,127.775h-1.571v-2.944
		c0-0.434,0.352-0.786,0.786-0.786s0.786,0.352,0.786,0.786V127.775z M177.315,115.876h-17.111v1.441h-1.149v1.101h19.409v-1.101
		h-1.149V115.876z"/>
	<defs>
		<filter id="Adobe_OpacityMaskFilter" filterUnits="userSpaceOnUse" x="46.182" y="34.643" width="26.413" height="130.903">
			<feFlood  style="flood-color:white;flood-opacity:1" result="back"/>
			<feBlend  in="SourceGraphic" in2="back" mode="normal"/>
		</filter>
	</defs>
	<mask maskUnits="userSpaceOnUse" x="46.182" y="34.643" width="26.413" height="130.903" id="SVGID_1_">
		<g filter="url(#Adobe_OpacityMaskFilter)">
			<path d="M153.482,160.546V154.6c-6.043-1.925-14.862-3.052-24.143-3.052c-9.958,0-19.434,1.317-25.419,3.487v5.512H73.303v-7.915
				H27.917v-10.553h2.77c23.144-8.41,38.347-22.343,45.189-41.418v-1.714h-1.541v-7.651h0.859v-5.308h1.829l1.527-3.055v-0.349
				h-1.204v-7.01h1.204V74.21h6.526v-2.514h-1.204v-7.01h1.204v-1.365h7.01v1.365h1.204v7.01h-1.204v2.514h6.493v1.364h1.204v7.01
				h-1.204v0.282l1.561,3.122h1.74v5.308h0.948v5.286h9.079c0.651-1.451,2.109-2.463,3.799-2.463c1.69,0,3.148,1.013,3.798,2.463
				h4.34c0.075-2.229,1.911-4.018,4.158-4.018c2.247,0,4.083,1.79,4.158,4.018h4.319c0.65-1.451,2.108-2.463,3.798-2.463
				s3.148,1.013,3.799,2.463h10.439v-5.286h0.859v-5.308h1.828l1.527-3.055v-0.349h-1.204v-7.01h1.204V74.21h6.527v-2.514h-1.204
				v-7.01h1.204v-1.365h7.009v1.365h1.204v7.01h-1.204v2.514h6.493v1.364h1.204v7.01h-1.204v0.282l1.561,3.122h1.739v5.308h0.948
				v7.651h-1.542v5.117c7.369,17.332,22.118,30.119,43.85,38.015h2.77v10.553h-44.016v7.915H153.482z M182.047,142.078v-21.696
				c-0.196-0.271-0.391-0.544-0.583-0.819v2.014h-1.149v3.439h1.149v10.677h-1.149v0.259h1.149v6.126H182.047z M156.055,142.078
				v-6.126h1.149v-0.259h-1.149v-10.677h1.149v-3.439h-1.149v-10.677h1.149v-0.061h-57.068v0.061h1.149v10.677h-1.149v3.439h1.149
				v10.677h-1.149v0.259h1.149v6.126H156.055z M75.875,142.078v-6.126h1.149v-0.259h-1.149v-10.677h1.149v-3.439h-1.149v-3.999
				c-0.618,0.952-1.259,1.887-1.922,2.804v21.696H75.875z"/>
		</g>
	</mask>
	<path mask="url(#SVGID_1_)" fill="#E4E7E9" d="M69.024,60.836v-5.784c0-0.555-0.45-1.004-1.004-1.004h-1.894l-2.376-5.436h0.007
		v-5.086l-4.871-8.882l-4.393,8.882v5.086l-2.376,5.436h-1.395c-0.554,0-1.004,0.449-1.004,1.004v5.784h-3.538v26.413h2.123v2.298
		c0,0.554,0.45,1.004,1.004,1.004h0.411v10.988h-1.415v1.817h1.415v2.476h-1.415v1.817h1.415v13.267h-1.415v1.817h1.415v2.476
		h-1.415v1.817h1.415v14.899h-1.415v1.817h1.415v3.878h-1.415v17.923h22.168v-17.923h-1.415v-3.878h1.415v-1.817h-1.415v-14.899
		h1.415v-1.817h-1.415v-2.476h1.415v-1.817h-1.415V107.65h1.415v-1.817h-1.415v-2.476h1.415v-1.817h-1.415V90.551h0.411
		c0.554,0,1.004-0.45,1.004-1.004v-2.298h2.122V60.836H69.024z M61.505,65.944c0.947,0.248,1.832,0.65,2.618,1.191l-1.392,2.028
		c-0.555-0.381-1.178-0.665-1.846-0.84L61.505,65.944z M65.307,74.041c0-0.71-0.132-1.389-0.363-2.02l2.31-0.842
		c0.324,0.887,0.51,1.84,0.513,2.838L65.307,74.041z M67.68,75.193c-0.135,0.976-0.434,1.9-0.876,2.74l-2.178-1.144
		c0.312-0.592,0.522-1.243,0.618-1.931L67.68,75.193z M64.617,71.275c-0.321-0.605-0.747-1.144-1.25-1.602l1.656-1.816
		c0.71,0.647,1.312,1.409,1.767,2.264L64.617,71.275z M54.725,74.043c0-2.572,2.092-4.664,4.664-4.664
		c2.572,0,4.664,2.092,4.664,4.664c0,2.571-2.092,4.664-4.664,4.664C56.817,78.706,54.725,76.614,54.725,74.043z M59.296,79.956
		l-0.046,2.459c-0.992-0.016-1.94-0.209-2.821-0.543l0.87-2.3C57.923,79.809,58.594,79.945,59.296,79.956z M53.504,74.668
		l-2.448,0.256c-0.03-0.29-0.047-0.583-0.047-0.881c0-0.685,0.092-1.347,0.248-1.985l2.389,0.581
		c-0.11,0.451-0.175,0.919-0.175,1.404C53.47,74.254,53.482,74.462,53.504,74.668z M53.651,75.469
		c0.167,0.67,0.442,1.298,0.816,1.856l-2.045,1.368c-0.53-0.792-0.921-1.682-1.158-2.633L53.651,75.469z M53.891,71.862
		l-2.286-0.907c0.36-0.904,0.873-1.729,1.507-2.447l1.843,1.626C54.508,70.642,54.146,71.224,53.891,71.862z M59.389,65.662
		c0.333,0,0.659,0.025,0.982,0.063l-0.286,2.444c-0.229-0.027-0.46-0.045-0.696-0.045c-0.459,0-0.905,0.058-1.334,0.157
		l-0.552-2.397C58.11,65.744,58.74,65.662,59.389,65.662z M56.398,66.223l0.879,2.297c-0.642,0.246-1.23,0.599-1.742,1.04
		l-1.604-1.864C54.657,67.072,55.49,66.572,56.398,66.223z M49.754,64.407h4.569c-1.944,1.027-3.542,2.624-4.569,4.568V64.407z
		 M49.754,79.109c1.027,1.944,2.624,3.542,4.568,4.568h-4.568V79.109z M54.467,147.623h-2.389v-3.878h2.389V147.623z
		 M54.467,141.927h-2.389v-14.899h2.389V141.927z M54.467,125.211h-2.389v-2.476h2.389V125.211z M54.467,120.917h-2.389V107.65
		h2.389V120.917z M54.467,105.833h-2.389v-2.476h2.389V105.833z M54.467,101.539h-2.389V90.551h2.389V101.539z M53.133,79.6
		l1.837-1.632c0.452,0.508,0.985,0.941,1.585,1.27l-1.179,2.16C54.527,80.932,53.773,80.319,53.133,79.6z M57.344,147.623h-1.666
		v-3.878h1.666V147.623z M57.344,141.927h-1.666v-14.899h1.666V141.927z M57.344,125.211h-1.666v-2.476h1.666V125.211z
		 M57.344,120.917h-1.666V107.65h1.666V120.917z M57.344,105.833h-1.666v-2.476h1.666V105.833z M57.344,101.539h-1.666V90.551h1.666
		V101.539z M60.222,147.623h-1.666v-3.878h1.666V147.623z M60.222,141.927h-1.666v-14.899h1.666V141.927z M60.222,125.211h-1.666
		v-2.476h1.666V125.211z M60.222,120.917h-1.666V107.65h1.666V120.917z M60.222,105.833h-1.666v-2.476h1.666V105.833z
		 M60.222,101.539h-1.666V90.551h1.666V101.539z M63.099,147.623h-1.666v-3.878h1.666V147.623z M63.099,141.927h-1.666v-14.899
		h1.666V141.927z M63.099,125.211h-1.666v-2.476h1.666V125.211z M63.099,120.917h-1.666V107.65h1.666V120.917z M63.099,105.833
		h-1.666v-2.476h1.666V105.833z M63.099,101.539h-1.666V90.551h1.666V101.539z M60.405,82.355l-0.297-2.442
		c0.69-0.084,1.342-0.288,1.938-0.589l1.11,2.194C62.311,81.946,61.385,82.236,60.405,82.355z M62.75,78.908
		c0.561-0.389,1.049-0.873,1.447-1.427l1.998,1.433c-0.562,0.783-1.252,1.468-2.045,2.017L62.75,78.908z M66.7,147.623h-2.389
		v-3.878H66.7V147.623z M66.7,141.927h-2.389v-14.899H66.7V141.927z M66.7,125.211h-2.389v-2.476H66.7V125.211z M66.7,120.917
		h-2.389V107.65H66.7V120.917z M66.7,105.833h-2.389v-2.476H66.7V105.833z M66.7,101.539h-2.389V90.551H66.7V101.539z
		 M69.024,83.678h-4.568c1.944-1.027,3.542-2.624,4.568-4.568V83.678z M69.024,68.976c-1.027-1.944-2.624-3.542-4.569-4.568h4.569
		V68.976z M60.902,74.043c0-0.836-0.678-1.514-1.513-1.514c-0.836,0-1.514,0.678-1.514,1.514c0,0.836,0.678,1.513,1.514,1.513
		C60.225,75.556,60.902,74.878,60.902,74.043z"/>
</g>
<path fill="#E4E7E9" d="M287.519,130.375c-4.057,10.942-7.535,18.8-8.923,21.843h3.624l2.691-1.187
	c-0.189,0.455-0.354,0.848-0.498,1.187h1.56c0.192-0.458,0.413-0.989,0.662-1.595l2.153,1.595h3.612
	c0.937-2.454,2.661-7.126,4.73-13.461c1.287-1.735,4.719-5.12,12.109-5.541h5.027c7.389,0.421,10.821,3.805,12.108,5.541
	c2.069,6.335,3.793,11.006,4.73,13.461h3.612l2.153-1.595c0.249,0.607,0.47,1.138,0.662,1.595h1.56
	c-0.144-0.339-0.309-0.732-0.498-1.187l2.691,1.187h3.624c-1.388-3.042-4.866-10.9-8.923-21.843v-4.124h1.026v-5.468h-4.439
	c-2.807-8.229-5.685-17.589-8.204-27.586h0.783v-1.814h0.817v-2.675h-0.817v-0.767h-2.057c-0.446-1.938-0.863-3.892-1.253-5.852
	l0.029-0.026l-0.043-0.045c-4.951-24.884-5.564-50.568-5.622-53.734l0.895-0.874v-4.534l-2.261-2.209h-0.516l-1.804-19.731
	L311.753,0l-0.765,0.936l-1.804,19.731h-0.516l-2.261,2.209v4.534l0.895,0.874c-0.057,3.166-0.671,28.85-5.622,53.734l-0.043,0.045
	l0.029,0.026c-0.391,1.959-0.807,3.914-1.253,5.852h-2.057v0.767h-0.817v2.675h0.817v1.814h0.783
	c-2.52,9.997-5.398,19.358-8.204,27.586h-4.439v5.468h1.026V130.375z M285.766,138.646l4.656-2.296
	c-0.579,1.649-1.134,3.196-1.662,4.638l-3.03-2.247C285.741,138.71,285.754,138.678,285.766,138.646z M285.135,140.263l2.468,1.83
	l-4.024,2.064C284.069,142.952,284.589,141.653,285.135,140.263z M280.583,151.287c0.466-1.068,1.042-2.409,1.706-3.999l2.668,2.024
	L280.583,151.287z M286.025,148.212l-2.783-2.11l4.473-2.294C287.091,145.469,286.523,146.943,286.025,148.212z M290.96,151.954
	l-3.043-2.308l4.641-2.095C291.893,149.433,291.348,150.918,290.96,151.954z M287.612,148.113c0.53-1.361,1.131-2.93,1.786-4.689
	l3.255,2.414L287.612,148.113z M293.59,144.571l-3.011-2.233l4.529-2.323C294.571,141.667,294.062,143.19,293.59,144.571z
	 M296.069,137.021l-2.645-2.151l3.908-1.927C296.901,134.363,296.479,135.723,296.069,137.021z M297.075,131.578l-4.191,2.067
	c0.23-0.675,0.464-1.365,0.699-2.067H297.075z M294.887,119.854l1.107-0.63c-0.063,0.212-0.127,0.42-0.19,0.63H294.887z
	 M297.357,114.579c-0.108,0.377-0.216,0.75-0.324,1.123l-1.31-1.123H297.357z M295.785,113.412l2.356-1.604
	c-0.15,0.538-0.3,1.073-0.45,1.604H295.785z M297.31,119.854c0.165-0.55,0.331-1.103,0.496-1.662l0.046-0.026l1.969,1.688H297.31z
	 M300.933,107.01h1.878l-2.292,1.561C300.657,108.053,300.796,107.533,300.933,107.01z M299.201,99.987h2.022
	c-0.125,0.514-0.25,1.026-0.376,1.536L299.201,99.987z M306.196,97.702c-0.074,0.374-0.15,0.746-0.225,1.118h-2.985
	c0.089-0.372,0.177-0.744,0.264-1.118H306.196z M303.489,96.682c0.372-1.606,0.735-3.231,1.089-4.873h2.732
	c-0.295,1.642-0.6,3.267-0.914,4.873H303.489z M304.454,99.987l-2.065,1.308c0.107-0.434,0.213-0.87,0.319-1.308H304.454z
	 M305.55,100.876c-0.295,1.416-0.596,2.814-0.902,4.196l-2.314-2.16L305.55,100.876z M303.515,105.843h-2.277
	c0.148-0.568,0.294-1.14,0.44-1.714L303.515,105.843z M304.034,107.795c-0.351,1.53-0.707,3.035-1.066,4.513l-2.346-2.19
	L304.034,107.795z M302.191,113.412h-3.003c0.207-0.735,0.414-1.476,0.62-2.224L302.191,113.412z M299.749,105.843h-2.045
	l2.445-1.548C300.016,104.814,299.883,105.33,299.749,105.843z M299.442,107.01c-0.142,0.539-0.285,1.075-0.429,1.608l-1.723-1.608
	H299.442z M301.45,114.579l-3.103,1.767c0.17-0.584,0.339-1.173,0.509-1.767H301.45z M302.117,115.738
	c-0.304,1.2-0.608,2.382-0.914,3.54l-2.117-1.815L302.117,115.738z M298.116,135.306c0.37-1.197,0.748-2.439,1.132-3.727h7.557
	C302.702,132.215,299.923,133.783,298.116,135.306z M302.492,120.044c0.455-1.719,0.909-3.485,1.36-5.294l0.068-0.039l-0.041-0.071
	c1.151-4.628,2.279-9.534,3.327-14.653h9.093c1.048,5.118,2.176,10.025,3.327,14.653l-0.041,0.071l0.068,0.039
	c0.451,1.809,0.905,3.575,1.36,5.294H302.492z M310.459,58.534H307.1l1.679-1.996L310.459,58.534z M309.5,55.682l1.45-1.723
	c-0.035,1.088-0.076,2.19-0.121,3.303L309.5,55.682z M310.669,60.797c-0.053,1.064-0.111,2.134-0.175,3.21l-1.387-1.51
	L310.669,60.797z M312.677,57.261c-0.045-1.113-0.086-2.215-0.121-3.303l1.45,1.723L312.677,57.261z M314.726,56.538l1.679,1.996
	h-3.359L314.726,56.538z M314.398,62.497l-1.387,1.51c-0.064-1.075-0.122-2.146-0.175-3.21L314.398,62.497z M314.145,77.791
	c-0.141-1.288-0.271-2.586-0.392-3.888l2.23,2.131L314.145,77.791z M316.873,76.884l2.073,1.982H314.8L316.873,76.884z
	 M317.006,83.123l-1.951,1.821c-0.18-1.225-0.349-2.466-0.507-3.722L317.006,83.123z M313.503,71.037
	c-0.099-1.214-0.19-2.43-0.275-3.644l1.917,1.962L313.503,71.037z M315.976,70.206l1.839,1.882h-3.678L315.976,70.206z
	 M315.18,63.349l1.802,1.963h-3.605L315.18,63.349z M312.95,80.033c0.259,2.174,0.548,4.314,0.871,6.397h-4.136
	c0.323-2.083,0.613-4.223,0.871-6.397H312.95z M310.128,65.311h-3.605l1.802-1.963L310.128,65.311z M310.277,67.394
	c-0.084,1.214-0.175,2.429-0.275,3.644l-1.642-1.681L310.277,67.394z M309.368,72.089h-3.678l1.839-1.882L309.368,72.089z
	 M309.752,73.903c-0.121,1.303-0.251,2.6-0.391,3.888l-1.838-1.757L309.752,73.903z M308.706,78.866h-4.147l2.073-1.982
	L308.706,78.866z M308.958,81.222c-0.158,1.256-0.327,2.498-0.507,3.722l-1.951-1.821L308.958,81.222z M308.776,91.809h5.954
	c0.294,1.641,0.597,3.266,0.909,4.873h-7.773C308.179,95.075,308.482,93.45,308.776,91.809z M315.84,97.702
	c0.074,0.374,0.148,0.746,0.223,1.118h-8.62c0.075-0.372,0.149-0.744,0.223-1.118H315.84z M322.572,107.01
	c0.138,0.523,0.276,1.043,0.414,1.561l-2.292-1.561H322.572z M322.283,99.987h2.022l-1.646,1.536
	C322.533,101.013,322.408,100.501,322.283,99.987z M322.055,114.579h2.594c0.17,0.593,0.339,1.183,0.509,1.767L322.055,114.579z
	 M324.419,117.463l-2.117,1.815c-0.305-1.159-0.61-2.34-0.914-3.54L324.419,117.463z M324.492,108.618
	c-0.143-0.533-0.286-1.069-0.429-1.608h2.151L324.492,108.618z M323.757,105.843c-0.134-0.513-0.267-1.03-0.4-1.548l2.445,1.548
	H323.757z M323.698,111.188c0.206,0.748,0.413,1.489,0.62,2.224h-3.003L323.698,111.188z M320.538,112.308
	c-0.359-1.478-0.715-2.983-1.066-4.513l3.413,2.324L320.538,112.308z M319.99,105.843l1.836-1.714
	c0.146,0.574,0.293,1.146,0.44,1.714H319.99z M318.858,105.071c-0.306-1.381-0.607-2.779-0.902-4.196l3.216,2.036L318.858,105.071z
	 M319.052,99.987h1.747c0.106,0.437,0.212,0.873,0.319,1.308L319.052,99.987z M317.534,98.82c-0.075-0.372-0.15-0.744-0.225-1.118
	h2.945c0.088,0.374,0.176,0.746,0.264,1.118H317.534z M317.109,96.682c-0.314-1.606-0.619-3.231-0.914-4.873h2.732
	c0.354,1.641,0.718,3.266,1.089,4.873H317.109z M316.701,131.578h7.557c0.384,1.288,0.762,2.531,1.132,3.727
	C323.582,133.783,320.804,132.215,316.701,131.578z M323.684,119.854l1.969-1.688l0.046,0.026c0.166,0.559,0.331,1.112,0.497,1.662
	H323.684z M329.923,131.578c0.235,0.702,0.468,1.392,0.699,2.067l-4.191-2.067H329.923z M327.512,119.224l1.107,0.63h-0.917
	C327.639,119.644,327.575,119.435,327.512,119.224z M326.149,114.579h1.634l-1.31,1.123
	C326.365,115.329,326.257,114.955,326.149,114.579z M325.816,113.412c-0.15-0.531-0.301-1.066-0.45-1.604l2.356,1.604H325.816z
	 M326.173,132.942l3.908,1.927l-2.645,2.151C327.027,135.723,326.605,134.363,326.173,132.942z M328.397,140.015l4.529,2.323
	l-3.011,2.233C329.444,143.19,328.935,141.667,328.397,140.015z M332.546,151.954c-0.388-1.036-0.934-2.521-1.598-4.404l4.641,2.095
	L332.546,151.954z M330.853,145.838l3.254-2.414c0.655,1.759,1.255,3.329,1.786,4.689L330.853,145.838z M342.923,151.287
	l-4.375-1.975l2.668-2.024C341.881,148.878,342.457,150.219,342.923,151.287z M337.481,148.212c-0.498-1.269-1.066-2.743-1.69-4.404
	l4.472,2.294L337.481,148.212z M339.926,144.157l-4.024-2.064l2.468-1.83C338.917,141.653,339.437,142.952,339.926,144.157z
	 M337.776,138.741l-3.03,2.247c-0.528-1.443-1.083-2.99-1.662-4.638l4.656,2.296C337.752,138.678,337.764,138.71,337.776,138.741z
	 M337.031,136.806l-4.49-2.214l2.804-2.28C335.923,133.88,336.486,135.38,337.031,136.806z M334.129,131.578l-2.105,1.712
	c-0.191-0.561-0.385-1.132-0.58-1.712H334.129z M333.087,140.649l-4.902-2.514l3.111-2.53
	C331.919,137.397,332.518,139.081,333.087,140.649z M330.913,119.622l-3.952-2.25c-0.026-0.087-0.051-0.174-0.077-0.262l2.517-2.158
	C329.905,116.543,330.41,118.101,330.913,119.622z M328.6,112.393l-3.581-2.438l2.217-2.069
	C327.688,109.413,328.143,110.916,328.6,112.393z M326.268,104.556l-2.919-1.848l1.904-1.777
	C325.589,102.151,325.927,103.361,326.268,104.556z M324.384,97.702c0.099,0.374,0.198,0.746,0.297,1.118h-2.68
	c-0.089-0.372-0.178-0.744-0.266-1.118H324.384z M322.883,91.809c0.402,1.641,0.814,3.266,1.233,4.873h-2.618
	c-0.373-1.606-0.738-3.231-1.094-4.873H322.883z M315.423,86.43l2.655-2.478l3.204,2.478H315.423z M321.24,84.707l-2.171-1.679
	l1.53-1.428C320.805,82.638,321.019,83.674,321.24,84.707z M320.296,80.053l-2.3,2.146l-2.801-2.166h5.097
	C320.294,80.039,320.295,80.046,320.296,80.053z M319.932,78.107l-2.169-2.073l1.545-1.477
	C319.507,75.739,319.715,76.923,319.932,78.107z M316.873,75.183l-2.017-1.928h4.035L316.873,75.183z M318.794,71.391l-1.988-2.034
	l1.459-1.493C318.433,69.033,318.609,70.209,318.794,71.391z M315.976,68.506l-1.981-2.028h3.962L315.976,68.506z M317.8,64.499
	l-1.838-2.001l1.391-1.515C317.494,62.143,317.643,63.316,317.8,64.499z M315.18,61.646l-1.787-1.945h3.573L315.18,61.646z
	 M316.943,57.461l-1.497-1.779l1.159-1.378C316.712,55.341,316.825,56.395,316.943,57.461z M314.726,54.825l-1.6-1.902h3.2
	L314.726,54.825z M312.739,51.757l1.607-2.021l1.607,2.021H312.739z M316.225,50.376l-1.194-1.502l0.956-1.203
	C316.062,48.557,316.141,49.458,316.225,50.376z M314.346,48.013l-1.484-1.867h2.969L314.346,48.013z M312.625,36.187
	c-0.003-0.541-0.007-1.066-0.011-1.575l0.561,0.795L312.625,36.187z M313.793,36.283l1.354,1.919h-2.515c0-0.091,0-0.181,0-0.272
	L313.793,36.283z M312.626,41.039l0.79,1.055l-0.804,1.074C312.618,42.443,312.623,41.734,312.626,41.039z M314.066,42.962
	l1.511,2.018h-2.984c0-0.017,0.001-0.034,0.001-0.05L314.066,42.962z M315.645,43.335l-0.929-1.241l0.769-1.027
	C315.535,41.805,315.588,42.56,315.645,43.335z M315.38,39.471l-1.314,1.755l-1.391-1.858h2.699
	C315.376,39.402,315.378,39.437,315.38,39.471z M315.205,36.533l-0.794-1.126l0.683-0.968
	C315.127,35.109,315.164,35.806,315.205,36.533z M315.015,32.8l-1.222,1.732l-1.197-1.697c-0.001-0.08-0.002-0.164-0.003-0.244
	h2.412C315.008,32.66,315.011,32.73,315.015,32.8z M312.702,31.425l0.99-1.538l0.99,1.538H312.702z M314.896,29.976l-0.631-0.98
	l0.566-0.88C314.849,28.669,314.87,29.291,314.896,29.976z M314.573,26.736l-0.881,1.369l-0.881-1.369H314.573z M313.118,28.996
	l-0.569,0.883c-0.013-0.668-0.026-1.282-0.038-1.826L313.118,28.996z M312.554,47.482l1.107,1.392l-1.168,1.469
	C312.517,49.374,312.538,48.418,312.554,47.482z M311.753,66.928c0.116,1.718,0.246,3.442,0.393,5.161h-0.785
	C311.507,70.37,311.636,68.646,311.753,66.928z M312.247,73.255c0.169,1.883,0.357,3.758,0.567,5.611h-2.123
	c0.21-1.853,0.398-3.727,0.567-5.611H312.247z M309.844,48.874l1.107-1.392c0.017,0.936,0.037,1.892,0.061,2.861L309.844,48.874z
	 M310.767,51.757h-3.214l1.607-2.021L310.767,51.757z M310.875,37.93c0,0.091,0,0.181,0,0.272h-2.515l1.354-1.919L310.875,37.93z
	 M310.331,35.408l0.561-0.795c-0.004,0.509-0.008,1.034-0.011,1.575L310.331,35.408z M310.879,41.039
	c0.003,0.695,0.008,1.404,0.014,2.129l-0.804-1.074L310.879,41.039z M310.913,44.929c0,0.017,0,0.034,0.001,0.05h-2.984l1.511-2.018
	L310.913,44.929z M310.994,28.053c-0.013,0.544-0.026,1.158-0.038,1.826l-0.569-0.883L310.994,28.053z M310.804,31.425h-1.98
	l0.99-1.538L310.804,31.425z M310.695,26.736l-0.881,1.369l-0.881-1.369H310.695z M308.674,28.116l0.566,0.88l-0.631,0.98
	C308.635,29.291,308.656,28.669,308.674,28.116z M308.5,32.591h2.412c-0.001,0.079-0.002,0.163-0.003,0.244l-1.197,1.697
	l-1.222-1.732C308.494,32.73,308.497,32.66,308.5,32.591z M308.412,34.439l0.683,0.968l-0.794,1.126
	C308.342,35.806,308.378,35.109,308.412,34.439z M308.132,39.369h2.699l-1.391,1.858l-1.314-1.755
	C308.127,39.437,308.13,39.402,308.132,39.369z M308.02,41.067l0.769,1.027l-0.929,1.241
	C307.917,42.56,307.971,41.805,308.02,41.067z M310.644,46.146l-1.484,1.867l-1.484-1.867H310.644z M307.518,47.671l0.956,1.203
	l-1.194,1.502C307.364,49.458,307.443,48.557,307.518,47.671z M310.38,52.923l-1.6,1.902l-1.6-1.902H310.38z M306.9,54.304
	l1.159,1.378l-1.497,1.779C306.681,56.395,306.793,55.341,306.9,54.304z M310.112,59.701l-1.787,1.945l-1.786-1.945H310.112z
	 M306.152,60.982l1.391,1.515l-1.838,2.001C305.863,63.316,306.011,62.143,306.152,60.982z M309.511,66.478l-1.981,2.028
	l-1.981-2.028H309.511z M305.24,67.863l1.459,1.493l-1.987,2.034C304.896,70.209,305.072,69.033,305.24,67.863z M308.65,73.255
	l-2.017,1.928l-2.017-1.928H308.65z M304.197,74.557l1.545,1.477l-2.169,2.073C303.79,76.923,303.998,75.739,304.197,74.557z
	 M303.213,80.033h5.097l-2.801,2.166l-2.3-2.146C303.211,80.046,303.212,80.039,303.213,80.033z M302.907,81.6l1.53,1.428
	l-2.172,1.679C302.487,83.674,302.701,82.638,302.907,81.6z M305.427,83.952l2.655,2.478h-5.859L305.427,83.952z M300.623,91.809
	h2.48c-0.356,1.642-0.721,3.267-1.094,4.873h-2.618C299.809,95.075,300.221,93.45,300.623,91.809z M299.121,97.702h2.649
	c-0.088,0.374-0.177,0.746-0.266,1.118h-2.68C298.923,98.449,299.022,98.076,299.121,97.702z M298.252,100.931l1.904,1.777
	l-2.919,1.848C297.579,103.361,297.917,102.151,298.252,100.931z M296.269,107.885l2.217,2.069l-3.581,2.438
	C295.363,110.916,295.818,109.413,296.269,107.885z M294.104,114.952l2.517,2.158c-0.026,0.087-0.051,0.175-0.077,0.262l-3.952,2.25
	C293.095,118.101,293.6,116.543,294.104,114.952z M295.32,138.135l-4.902,2.514c0.569-1.568,1.169-3.252,1.791-5.044L295.32,138.135
	z M292.061,131.578c-0.195,0.579-0.389,1.151-0.58,1.712l-2.105-1.712H292.061z M290.964,134.592l-4.49,2.214
	c0.545-1.426,1.108-2.926,1.685-4.495L290.964,134.592z"/>
<defs>
	<filter id="Adobe_OpacityMaskFilter_1_" filterUnits="userSpaceOnUse" x="231.584" y="91.146" width="61.323" height="61.072">
		<feFlood  style="flood-color:white;flood-opacity:1" result="back"/>
		<feBlend  in="SourceGraphic" in2="back" mode="normal"/>
	</filter>
</defs>
<mask maskUnits="userSpaceOnUse" x="231.584" y="91.146" width="61.323" height="61.072" id="SVGID_2_">
	<g filter="url(#Adobe_OpacityMaskFilter_1_)">
		<path d="M336.096,154.358l-0.156-0.381l-0.503,0.381h-5.819l-0.519-1.392c-1.044-2.801-2.692-7.402-4.653-13.529
			c-1.29-1.644-4.226-4.161-10.244-4.528h-4.899c-6.019,0.367-8.954,2.885-10.244,4.528c-1.961,6.126-3.609,10.729-4.653,13.529
			l-0.519,1.392h-5.818l-0.502-0.38l-0.156,0.38h-12.112l1.342-3.012c1.3-2.917,4.735-10.846,8.737-21.861v-1.704h-1.026v-9.877
			h5.034c2.66-8.088,5.012-16.127,7.008-23.955h-0.18v-1.856h-0.817v-7.019h0.817v-0.785h2.477c0.217-1.005,0.431-2.034,0.64-3.078
			l-0.701-0.638l1.06-1.191c4.503-23.492,5.32-47.622,5.452-53.145l-0.876-0.876v-6.413l2.905-2.906l1.742-19.495l2.841-3.556
			l2.839,3.556l1.742,19.495l2.905,2.906v6.413l-0.875,0.876c0.131,5.518,0.944,29.625,5.45,53.133l1.038,1.139l-0.686,0.661
			c0.212,1.059,0.428,2.101,0.647,3.118h2.478v0.785h0.816v7.019h-0.816v1.856h-0.18c1.998,7.833,4.349,15.872,7.008,23.955h5.034
			v9.877h-1.026v1.704c4.007,11.028,7.439,18.947,8.738,21.861l1.343,3.012H336.096z M318.244,117.904
			c-0.148-0.576-0.296-1.157-0.443-1.742l-1.064-0.602l0.617-1.191c-1.01-4.1-1.949-8.206-2.797-12.241h-5.609
			c-0.843,4.014-1.778,8.107-2.787,12.199l0.631,1.117l-1.075,0.668c-0.151,0.603-0.304,1.2-0.456,1.792H318.244z M313.053,94.541
			c-0.036-0.197-0.073-0.395-0.11-0.592h-2.381c-0.037,0.198-0.073,0.395-0.11,0.592H313.053z"/>
	</g>
</mask>
<path mask="url(#SVGID_2_)" fill="#E4E7E9" d="M234.079,128.913h0.03v23.305h18.757v-23.364l1.951-2.155h-23.16L234.079,128.913z
	 M239.319,136.859c0-2.164,1.754-3.919,3.919-3.919c2.164,0,3.919,1.755,3.919,3.919v7.306h-7.837V136.859z M290.38,106.398
	l2.526-3.688h-61.323l2.526,3.688H290.38z M234.11,101.983h56.271v-6.382H234.11V101.983z M288.074,94.833l2.319-3.688h-56.297
	l2.319,3.688H288.074z M290.38,125.906v-18.685H234.11v18.685h18.761c0.039-5.146,4.22-9.306,9.375-9.306
	c5.155,0,9.335,4.16,9.375,9.306H290.38z M273.923,111.999h13.19v7.8h-13.19V111.999z M250.38,119.799h-13.19v-7.8h13.19V119.799z
	 M271.623,128.829v23.389h18.757v-23.311l1.991-2.208h-23.068L271.623,128.829z M276.919,136.859c0-2.164,1.754-3.919,3.919-3.919
	c2.164,0,3.919,1.755,3.919,3.919v7.306h-7.837V136.859z M249.292,118.821h-10.98v-5.89h10.98V118.821z M286.036,118.821h-10.98
	v-5.89h10.98V118.821z"/>
<defs>
	<filter id="Adobe_OpacityMaskFilter_2_" filterUnits="userSpaceOnUse" x="335.76" y="59.528" width="65.157" height="92.689">
		<feFlood  style="flood-color:white;flood-opacity:1" result="back"/>
		<feBlend  in="SourceGraphic" in2="back" mode="normal"/>
	</filter>
</defs>
<mask maskUnits="userSpaceOnUse" x="335.76" y="59.528" width="65.157" height="92.689" id="SVGID_3_">
	<g filter="url(#Adobe_OpacityMaskFilter_2_)">
		<path d="M173.098,446l-0.146-0.356l-0.47,0.356h-5.437l-0.485-1.301c-0.976-2.617-2.515-6.917-4.348-12.642
			c-1.206-1.536-3.949-3.889-9.572-4.231h-4.578c-5.624,0.343-8.367,2.695-9.573,4.231c-1.833,5.725-3.372,10.025-4.348,12.642
			L133.656,446h-5.437l-0.469-0.355L127.604,446h-11.318l1.254-2.815c1.215-2.725,4.424-10.135,8.165-20.428v-1.593h-0.959v-9.23
			h4.704c2.486-7.558,4.683-15.069,6.548-22.385h-0.168v-1.734h-0.763v-6.559h0.763v-0.733h2.315c0.203-0.939,0.402-1.9,0.598-2.876
			l-0.655-0.596l0.99-1.113c4.208-21.952,4.971-44.5,5.095-49.661l-0.818-0.818v-5.992l2.714-2.716l1.628-18.217l2.654-3.323
			l2.653,3.323l1.628,18.217l2.714,2.716v5.992l-0.818,0.818c0.123,5.156,0.882,27.683,5.092,49.649l0.97,1.064l-0.641,0.618
			c0.198,0.989,0.4,1.963,0.605,2.914h2.315v0.733h0.763v6.559h-0.763v1.734h-0.168c1.867,7.319,4.064,14.831,6.548,22.385h4.704
			v9.23h-0.959v1.593c3.745,10.305,6.952,17.705,8.165,20.428l1.255,2.815H173.098z M156.416,411.935
			c-0.139-0.538-0.276-1.081-0.414-1.628l-0.994-0.563l0.577-1.113c-0.944-3.831-1.821-7.668-2.613-11.438h-5.242
			c-0.788,3.751-1.662,7.575-2.604,11.399l0.59,1.044l-1.004,0.624c-0.142,0.563-0.284,1.121-0.426,1.675H156.416z M151.565,390.104
			c-0.034-0.185-0.068-0.369-0.103-0.554h-2.225c-0.034,0.185-0.068,0.369-0.103,0.554H151.565z"/>
	</g>
</mask>
<path mask="url(#SVGID_3_)" fill="#E4E7E9" d="M400.417,124.802v-9.508h-1.613v-24.27h-1.473V70.822h-1.824v-5.813
	c0-0.586-0.475-1.061-1.061-1.061h-0.623l-1.368-4.419l-1.368,4.419h-13.6c-0.586,0-1.061,0.475-1.061,1.061v5.813h-1.613v20.202
	h-5.657l-0.819-12.964l-0.819,12.964h-5.657V70.822h-1.613v-5.813c0-0.586-0.475-1.061-1.061-1.061h-13.599l-1.368-4.419
	l-1.368,4.419h-0.623c-0.586,0-1.061,0.475-1.061,1.061v5.813h-1.824v20.202h-1.473v24.27h-1.613v9.508h-0.499v27.416h10.589v-8.582
	h2.797v8.582h3.153v-8.582h2.797v8.582h9.806v-9.679h2.797v9.679h1.279v-9.679h2.797v9.679h9.806v-8.582h2.797v8.582h3.153v-8.582
	h2.797v8.582h10.589v-27.416H400.417z M349.191,120.908h-2.977v-5.339c0-0.822,0.666-1.488,1.488-1.488
	c0.822,0,1.488,0.666,1.488,1.488V120.908z M349.587,91.024h-3.507V74.75c0-0.968,0.785-1.754,1.754-1.754
	c0.969,0,1.754,0.785,1.754,1.754V91.024z M355.252,120.908h-2.977v-5.339c0-0.822,0.666-1.488,1.488-1.488s1.488,0.666,1.488,1.488
	V120.908z M355.479,91.024h-3.507V74.75c0-0.968,0.785-1.754,1.754-1.754c0.969,0,1.754,0.785,1.754,1.754V91.024z M361.862,93.476
	h5.502l-0.293,4.64l-5.209,6.616V93.476z M368.338,120.652c-3.165,0-5.732-2.566-5.732-5.732s2.566-5.732,5.732-5.732
	s5.732,2.566,5.732,5.732S371.504,120.652,368.338,120.652z M374.814,104.732l-5.209-6.616l-0.293-4.64h5.502V104.732z
	 M384.4,120.908h-2.977v-5.339c0-0.822,0.666-1.488,1.488-1.488c0.822,0,1.488,0.666,1.488,1.488V120.908z M384.704,91.024h-3.507
	V74.75c0-0.968,0.785-1.754,1.754-1.754c0.969,0,1.754,0.785,1.754,1.754V91.024z M390.462,120.908h-2.977v-5.339
	c0-0.822,0.666-1.488,1.488-1.488c0.822,0,1.488,0.666,1.488,1.488V120.908z M390.597,91.024h-3.507V74.75
	c0-0.968,0.785-1.754,1.754-1.754c0.968,0,1.754,0.785,1.754,1.754V91.024z M371.197,110.971c0.014-0.162,0.003-0.324-0.057-0.48
	c-0.103-0.269-0.305-0.482-0.568-0.599c-0.413-0.183-0.897-0.067-1.21,0.257c-0.145-0.424-0.536-0.734-1.008-0.734
	c-0.466,0-0.855,0.301-1.004,0.729c-0.307-0.32-0.799-0.448-1.217-0.263c-0.263,0.117-0.465,0.33-0.568,0.599
	c-0.058,0.152-0.071,0.312-0.056,0.474c-0.41-0.163-0.913-0.079-1.215,0.257c-0.193,0.213-0.291,0.489-0.275,0.777
	c0.008,0.162,0.061,0.313,0.139,0.454c-0.444,0.013-0.862,0.294-1.004,0.731c-0.089,0.274-0.066,0.566,0.065,0.823
	c0.073,0.143,0.182,0.259,0.31,0.356c-0.402,0.19-0.666,0.61-0.617,1.078c0.049,0.465,0.391,0.816,0.828,0.919
	c-0.295,0.338-0.368,0.831-0.132,1.241c0.192,0.333,0.55,0.539,0.934,0.539h0c0.063,0,0.126-0.014,0.19-0.026
	c-0.046,0.153-0.066,0.312-0.041,0.474c0.045,0.284,0.198,0.535,0.431,0.703c0.186,0.135,0.404,0.206,0.633,0.206
	c0.217,0,0.423-0.073,0.603-0.197c0.02,0.159,0.066,0.313,0.156,0.452c0.157,0.242,0.398,0.408,0.68,0.467
	c0.074,0.016,0.15,0.024,0.226,0.024c0.371,0,0.707-0.197,0.903-0.507c0.193,0.31,0.536,0.512,0.915,0.512
	c0.076,0,0.151-0.008,0.225-0.024c0.282-0.059,0.523-0.225,0.68-0.466c0.087-0.134,0.133-0.284,0.154-0.442
	c0.178,0.123,0.388,0.197,0.609,0.197c0.229,0,0.447-0.071,0.633-0.206c0.374-0.272,0.513-0.739,0.388-1.17
	c0.066,0.013,0.133,0.026,0.201,0.026c0.384,0,0.742-0.207,0.935-0.539c0.233-0.403,0.165-0.891-0.131-1.235
	c0.441-0.1,0.788-0.453,0.837-0.922c0.048-0.462-0.207-0.878-0.613-1.073c0.129-0.097,0.241-0.214,0.317-0.362
	c0.131-0.257,0.154-0.549,0.065-0.823c-0.141-0.435-0.538-0.726-0.992-0.74c0.21-0.39,0.174-0.881-0.138-1.228
	C372.105,110.897,371.619,110.798,371.197,110.971z M369.293,111.512l0.272-0.889c0.135-0.303,0.513-0.45,0.821-0.315
	c0.152,0.068,0.268,0.19,0.328,0.345c0.059,0.155,0.055,0.325,0.001,0.448l-0.506,0.819l-1.149,1.319L369.293,111.512z
	 M368.353,109.871c0.343,0,0.621,0.279,0.624,0.591l-0.129,0.951l-0.514,1.675l-0.49-1.672l-0.113-0.924
	C367.731,110.15,368.01,109.871,368.353,109.871z M365.989,110.643c0.06-0.155,0.176-0.277,0.328-0.345
	c0.081-0.036,0.165-0.054,0.253-0.054c0.245,0,0.469,0.145,0.558,0.341l0.27,0.923l0.212,1.738l-1.127-1.328l-0.479-0.799
	C365.935,110.968,365.93,110.799,365.989,110.643z M364.631,111.516c0.118-0.13,0.287-0.205,0.462-0.205
	c0.154,0,0.301,0.056,0.395,0.138l0.623,0.734l0.899,1.5l-1.569-0.754l-0.764-0.535c-0.123-0.111-0.196-0.264-0.205-0.43
	C364.464,111.799,364.52,111.64,364.631,111.516z M363.587,113.315c0.083-0.257,0.32-0.43,0.591-0.43c0.065,0,0.13,0.011,0.164,0.02
	l0.867,0.418l1.432,1.005l-1.738-0.051l-0.916-0.178c-0.158-0.051-0.286-0.16-0.361-0.307
	C363.548,113.642,363.535,113.474,363.587,113.315z M363.363,115.383c-0.036-0.341,0.213-0.647,0.523-0.682l0.962,0.029l1.716,0.335
	l-1.609,0.661l-0.909,0.21C363.695,115.978,363.399,115.722,363.363,115.383z M364.85,117.59c-0.095,0.054-0.201,0.084-0.31,0.084
	c-0.222,0-0.429-0.119-0.539-0.311c-0.172-0.297-0.07-0.677,0.2-0.835l0.892-0.366l1.703-0.391l-1.203,1.261L364.85,117.59z
	 M366.257,118.775c-0.193,0.267-0.599,0.332-0.869,0.137c-0.134-0.097-0.222-0.242-0.248-0.406
	c-0.026-0.164,0.013-0.328,0.091-0.439l0.664-0.694l1.4-1.053l-0.588,1.644L366.257,118.775z M368.024,119.285
	c-0.07,0.328-0.402,0.548-0.738,0.479c-0.162-0.035-0.301-0.13-0.392-0.27c-0.091-0.139-0.121-0.306-0.095-0.438l0.323-0.901
	l0.852-1.533l0.131,1.738L368.024,119.285z M368.339,116.007l-0.46-0.098l-0.382-0.278l-0.235-0.407l-0.049-0.469l0.145-0.448
	l0.317-0.352l0.43-0.191h0.471l0.431,0.192l0.315,0.349l0.146,0.45l-0.049,0.468l-0.236,0.409l-0.382,0.277L368.339,116.007z
	 M369.759,119.499c-0.09,0.139-0.229,0.234-0.392,0.269c-0.331,0.069-0.668-0.155-0.733-0.448l-0.072-0.957l0.154-1.746l0.826,1.533
	l0.303,0.881C369.88,119.194,369.849,119.36,369.759,119.499z M371.269,118.928c-0.268,0.195-0.685,0.11-0.852-0.111l-0.455-0.847
	l-0.568-1.656l1.382,1.067l0.631,0.677C371.608,118.336,371.546,118.727,371.269,118.928z M372.665,117.386
	c-0.111,0.192-0.318,0.311-0.539,0.311c-0.108,0-0.216-0.029-0.285-0.066l-0.759-0.587l-1.194-1.283l1.696,0.413l0.853,0.362
	C372.734,116.707,372.836,117.089,372.665,117.386z M373.313,115.409c-0.033,0.318-0.299,0.557-0.617,0.557
	c-0.022,0-0.044-0.002-0.036,0.002l-0.932-0.228l-1.614-0.686l1.716-0.312l0.93-0.016
	C373.1,114.762,373.348,115.068,373.313,115.409z M373.101,113.34c0.052,0.159,0.038,0.327-0.037,0.475
	c-0.075,0.147-0.204,0.257-0.332,0.3l-0.946,0.172l-1.75,0.029l1.441-0.983l0.842-0.393
	C372.641,112.841,372.998,113.022,373.101,113.34z M372.066,111.536c0.229,0.255,0.209,0.649-0.022,0.859l-0.794,0.542l-1.588,0.739
	l0.916-1.484l0.611-0.702C371.433,111.268,371.845,111.292,372.066,111.536z"/>
<path fill="#DBDFE1" d="M534.155,113.972h-7.827v26.881h7.827V113.972z M507.462,113.972h-7.827v26.881h7.827V113.972z
	 M539.096,88.904c0-0.993-0.803-1.798-1.794-1.798h-8.079c0.248-0.595,0.565-1.168,0.968-1.718c0.482-0.658,1.302-1.278,1.659-2.063
	c0.659-1.45-0.787-2.392-0.543-3.979c0.145-0.936,0.714-1.346,1.209-2.065c0.52-0.755,0.826-2.982,0.425-3.837
	c-0.803-1.711-2.914,1.886-3.175,2.807c-0.257,0.904,0.016,1.945-0.34,2.788c-0.313,0.739-1.042,1.477-1.638,1.94
	c-1.166,0.907-2.364,2.295-2.905,3.724c-0.271,0.716-0.298,1.571-0.288,2.403h-1.799c0.207-1.222,0.548-2.369,0.612-3.674
	c0.076-1.547,0.419-3.009-0.367-4.321c-0.726-1.211-0.32-2.396-0.32-3.806c0-0.52,0.13-1.891-0.601-2.052
	c-0.866-0.191-0.627,1.173-0.683,1.704c-0.096,0.911-0.016,3.904-1.376,3.537c-1.312-0.353-1.43-3.683-2.814-2.695
	c-1.384-0.988-1.502,2.342-2.814,2.695c-1.36,0.367-1.28-2.626-1.376-3.537c-0.056-0.531,0.184-1.895-0.683-1.704
	c-0.731,0.161-0.601,1.532-0.601,2.052c0,1.41,0.406,2.595-0.32,3.806c-0.786,1.312-0.443,2.774-0.367,4.321
	c0.063,1.305,0.405,2.452,0.612,3.674h-1.8c0.013-0.859-0.006-1.748-0.287-2.489c-0.541-1.429-1.739-2.817-2.905-3.724
	c-0.596-0.463-1.325-1.201-1.638-1.94c-0.356-0.843-0.083-1.884-0.34-2.788c-0.261-0.921-2.372-4.518-3.175-2.807
	c-0.401,0.855-0.095,3.082,0.425,3.837c0.495,0.719,1.064,1.129,1.209,2.065c0.244,1.587-1.202,2.529-0.543,3.979
	c0.357,0.785,1.177,1.405,1.659,2.063c0.422,0.576,0.754,1.177,1.007,1.804h-6.602c-0.991,0-1.794,0.805-1.794,1.798v1.653h42.182
	V88.904z M573.902,95.269l4.218-3.576H458.727l3.375,3.576H573.902z M573.694,99.834v-3.387H462.316v3.387H573.694z
	 M550.978,113.972h-7.827v26.881h7.827V113.972z M490.639,113.972h-7.827v26.881h7.827V113.972z M575.663,110.313h1.027l7.57-8.105
	h-8.597v-1.25H459.708v1.25h-7.958l6.594,8.105h1.364v31.72h-0.854v6.605h118.302v-4.403h-1.493V110.313z M562.218,142.034h-2.967
	v0.065h-32.923v2.137h-18.866v-2.137h-34.309v-29.374h89.065V142.034z M606.189,123.873h0.664l4.892-5.237h-5.556v-0.808h-27.693
	v7.604h19.005v18.939h-1.917v0.042h-15.595v4.226h27.165v-2.846h-0.965V123.873z M578.496,117.101h26.421v-2.188h-26.421V117.101z
	 M578.496,139.74h0.871v-13.503h-0.871V139.74z M607.777,111.84h-28.02l-1.261,1.35v0.961h26.556L607.777,111.84z M585.181,126.237
	v17.37h5.057v-17.37H585.181z M429.577,117.101h26.421v-2.188h-26.421V117.101z M426.717,111.84l2.725,2.311h26.556v-0.961
	l-1.261-1.35H426.717z M428.305,118.636h-5.556l4.892,5.237h0.664v21.92h-0.965v2.846h27.165v-4.226H438.91v-0.042h-1.917v-18.939
	h19.005v-7.604h-27.693V118.636z M449.313,143.607v-17.37h-5.057v17.37H449.313z M455.127,139.74h0.871v-13.503h-0.871V139.74z"/>
<path fill="#DBDFE1" d="M682.355,142.088c0-2.153-1.883-3.935-4.346-4.27c1.152-0.803,1.887-2.019,1.887-3.379
	c0-2.418-2.32-4.378-5.183-4.378c-0.086,0-0.171,0.007-0.256,0.011c0.247-0.694,0.385-1.459,0.385-2.265
	c0-3.129-2.064-5.666-4.61-5.666s-4.61,2.537-4.61,5.666c0,0.739,0.119,1.443,0.328,2.09c-0.181-0.017-0.364-0.026-0.55-0.026
	c-2.862,0-5.183,2.045-5.183,4.569c0,0.028,0.005,0.055,0.006,0.083c-0.842-0.876-2.111-1.447-3.551-1.447
	c-0.077,0-0.151,0.007-0.227,0.01c0.219-0.615,0.341-1.293,0.341-2.007c0-2.772-1.828-5.02-4.084-5.02
	c-2.255,0-4.084,2.248-4.084,5.02c0,0.655,0.105,1.278,0.291,1.852c-0.16-0.015-0.322-0.023-0.487-0.023
	c-2.536,0-4.592,1.812-4.592,4.048c0,0.707,0.207,1.371,0.568,1.949c-1.74,0.544-2.98,1.938-2.98,3.577
	c0,2.112,2.056,3.824,4.592,3.824c0.256,0,0.503-0.026,0.748-0.059c0.009,0.037,0.012,0.075,0.022,0.112
	c0.162,0.546,0.38,1.071,0.673,1.534c0.295,0.458,0.625,0.881,1.001,1.216c0.364,0.351,0.763,0.619,1.143,0.845
	c0.389,0.213,0.765,0.371,1.108,0.484c0.174,0.049,0.337,0.095,0.488,0.137c0.014,0.003,0.026,0.005,0.04,0.007l-0.203,5.908h2.802
	l-0.231-6.742c0.127-0.033,0.261-0.068,0.406-0.106c0.315-0.098,0.661-0.236,1.021-0.424c0.352-0.2,0.723-0.44,1.064-0.756
	c0.351-0.304,0.658-0.691,0.935-1.111c0.018-0.027,0.03-0.059,0.047-0.087c0.548,0.194,1.147,0.306,1.779,0.306
	c2.022,0,3.719-1.099,4.332-2.615c0.112-0.011,0.227-0.012,0.337-0.027c0.01,0.042,0.013,0.084,0.025,0.127
	c0.183,0.617,0.429,1.209,0.76,1.732c0.333,0.517,0.705,0.994,1.13,1.373c0.41,0.396,0.861,0.699,1.29,0.953
	c0.439,0.24,0.863,0.419,1.251,0.547c0.197,0.055,0.381,0.107,0.551,0.155c0.015,0.003,0.029,0.005,0.045,0.008l-0.229,6.669h3.163
	l-0.261-7.61c0.144-0.038,0.295-0.077,0.458-0.12c0.356-0.11,0.747-0.266,1.153-0.479c0.397-0.226,0.816-0.496,1.201-0.853
	c0.396-0.343,0.742-0.78,1.055-1.254c0.02-0.031,0.033-0.067,0.053-0.098c0.618,0.219,1.295,0.345,2.008,0.345
	C680.035,146.419,682.355,144.48,682.355,142.088z M649.477,135.707c0.611,0,1.106,0.495,1.106,1.106s-0.495,1.106-1.106,1.106
	c-0.611,0-1.106-0.495-1.106-1.106S648.866,135.707,649.477,135.707z M646.568,142.068c-0.611,0-1.106-0.495-1.106-1.106
	c0-0.611,0.495-1.106,1.106-1.106s1.106,0.495,1.106,1.106C647.675,141.573,647.179,142.068,646.568,142.068z M651.274,149.419
	c-0.081-0.019-0.159-0.036-0.248-0.057c-0.283-0.078-0.596-0.192-0.925-0.35c-0.32-0.171-0.663-0.374-0.98-0.652
	c-0.329-0.263-0.62-0.604-0.89-0.977c-0.267-0.378-0.472-0.814-0.636-1.273c-0.005-0.015-0.007-0.032-0.012-0.048
	c0.561-0.172,1.074-0.426,1.508-0.754c0.572,0.73,1.362,1.276,2.269,1.555L651.274,149.419z M652.217,131.921
	c0-0.611,0.495-1.106,1.106-1.106s1.106,0.495,1.106,1.106c0,0.611-0.495,1.106-1.106,1.106S652.217,132.532,652.217,131.921z
	 M653.084,143.03c0-0.611,0.495-1.106,1.106-1.106c0.611,0,1.106,0.495,1.106,1.106c0,0.611-0.495,1.106-1.106,1.106
	C653.579,144.137,653.084,143.641,653.084,143.03z M655.382,147.666c-0.276,0.254-0.579,0.442-0.862,0.602
	c-0.291,0.148-0.569,0.256-0.823,0.333c-0.048,0.012-0.089,0.022-0.134,0.034l-0.056-1.638c0.682-0.122,1.313-0.39,1.856-0.776
	c0.229,0.224,0.492,0.424,0.776,0.599C655.909,147.14,655.662,147.435,655.382,147.666z M657.528,140.947
	c-0.573-0.041-1.029-0.507-1.029-1.091c0-0.611,0.495-1.106,1.106-1.106c0.141,0,0.273,0.032,0.397,0.08
	c-0.321,0.56-0.506,1.184-0.506,1.847C657.495,140.769,657.521,140.856,657.528,140.947z M666.589,133.032
	c0.69,0,1.249,0.559,1.249,1.249c0,0.69-0.559,1.249-1.249,1.249c-0.69,0-1.249-0.559-1.249-1.249
	C665.341,133.591,665.9,133.032,666.589,133.032z M663.307,140.212c-0.69,0-1.249-0.559-1.249-1.248c0-0.69,0.559-1.249,1.249-1.249
	c0.69,0,1.248,0.559,1.248,1.249C664.555,139.653,663.997,140.212,663.307,140.212z M668.618,148.509
	c-0.092-0.021-0.18-0.041-0.28-0.064c-0.32-0.088-0.673-0.217-1.044-0.395c-0.362-0.193-0.749-0.423-1.106-0.736
	c-0.372-0.297-0.7-0.682-1.005-1.103c-0.301-0.426-0.533-0.918-0.718-1.437c-0.006-0.017-0.008-0.036-0.013-0.054
	c0.633-0.194,1.212-0.481,1.702-0.851c0.646,0.823,1.537,1.44,2.561,1.755L668.618,148.509z M669.683,128.758
	c0-0.689,0.559-1.249,1.249-1.249c0.689,0,1.248,0.559,1.248,1.249c0,0.69-0.559,1.249-1.248,1.249
	C670.242,130.006,669.683,129.447,669.683,128.758z M670.661,141.298c0-0.689,0.559-1.249,1.248-1.249
	c0.69,0,1.249,0.559,1.249,1.249c0,0.69-0.559,1.249-1.249,1.249C671.22,142.546,670.661,141.987,670.661,141.298z M673.256,146.53
	c-0.312,0.286-0.653,0.499-0.973,0.679c-0.329,0.167-0.643,0.289-0.929,0.375c-0.054,0.014-0.1,0.025-0.151,0.038l-0.064-1.848
	c0.77-0.137,1.482-0.44,2.094-0.876c0.259,0.253,0.555,0.479,0.876,0.677C673.85,145.937,673.571,146.27,673.256,146.53z
	 M675.764,138.964c-0.689,0-1.249-0.559-1.249-1.249c0-0.69,0.559-1.249,1.249-1.249c0.69,0,1.249,0.559,1.249,1.249
	C677.012,138.404,676.453,138.964,675.764,138.964z M695.308,85.005h48.176v-0.018l1.829-1.829l-1.779-1.779v-4.166h-8.03
	l-5.947-5.947V52.973l-4.118-4.118V39.5l1.528-1.528v-1.009l-3.811-2.693l-1.125-2.033V30.11l-1.111-1.111l-1.118-0.319V6.802
	l-0.407-0.406l-0.406,0.406V28.68l-1.118,0.319l-1.111,1.111v2.127l-1.125,2.033l-3.811,2.693v1.009l1.528,1.528v9.355l-4.118,4.118
	v18.293l-5.947,5.947h-8.03v4.166l-1.779,1.779l1.829,1.829V85.005z M719.397,39.324c2.373,0,4.296,1.923,4.296,4.296
	s-1.923,4.296-4.296,4.296c-2.373,0-4.296-1.923-4.296-4.296S717.024,39.324,719.397,39.324z M783.037,142.481
	c0-1.65,0.797-3.178,2.107-4.257c-0.826-0.323-1.581-0.619-2.473-0.968c0.71-0.665,1.288-1.218,1.879-1.757
	c0.597-0.545,0.734-0.982,0.351-1.672c-0.771-1.391-1.591-2.755-2.404-4.153c-0.257,0.107-0.475,0.196-0.835,0.346
	c0-0.763-0.006-1.446,0.001-2.129c0.01-0.981,0.482-1.727,1.26-2.268c0.737-0.512,1.502-0.987,2.274-1.445
	c0.589-0.349,0.595-0.382,0.15-0.934c-0.868-1.077-2.013-1.564-3.357-1.725c-0.341-0.041-0.716-0.227-0.974-0.459
	c-0.655-0.587-1.239-1.252-1.877-1.859c-0.755-0.72-1.622-0.782-2.525-0.25c-0.261,0.154-0.3,0.298-0.198,0.587
	c0.687,1.935,0.766,3.929,0.473,5.94c-0.164,1.125-0.901,1.89-1.781,2.538c-0.141,0.103-0.226,0.278-0.354,0.402
	c-0.349,0.337-0.703,0.671-1.069,0.99c-0.043,0.038-0.172-0.014-0.259-0.034c-0.247-0.057-0.497-0.108-0.74-0.181
	c-0.207-0.063-0.459-0.1-0.599-0.24c-0.448-0.448-0.608-1.877-0.26-2.428c0.667-1.055,0.726-2.139,0.259-3.275
	c-0.048-0.117-0.079-0.242-0.12-0.369c0.159-0.118,0.302-0.208,0.427-0.318c1.587-1.4,2.483-3.085,2.116-5.264
	c-0.167-0.989-0.619-1.862-1.096-2.742c-0.394-0.726-0.865-1.59-0.797-2.348c0.136-1.517-0.172-2.906-0.613-4.301
	c-0.115-0.362-0.036-0.517,0.29-0.698c0.698-0.386,0.972-1.393,0.663-2.031c-0.17-0.351-0.265-0.751-0.327-1.139
	c-0.08-0.498-0.074-1.01-0.14-1.511c-0.176-1.334-1.282-2.177-2.598-1.93c-0.658,0.124-1.304,0.346-1.929,0.59
	c-0.184,0.072-0.347,0.353-0.403,0.569c-0.215,0.822-0.388,1.656-0.564,2.487c-0.031,0.147-0.05,0.418,0.008,0.443
	c0.473,0.206,0.502,0.711,0.516,1.039c0.024,0.564,0.361,0.639,0.732,0.812c0.2,0.093,0.341,0.315,0.508,0.478
	c-0.052,0.064-0.104,0.127-0.156,0.191c-0.294-0.142-0.628-0.236-0.875-0.436c-0.61-0.496-1.186-1.033-1.759-1.572
	c-0.102-0.096-0.201-0.299-0.17-0.418c0.476-1.851,0.944-3.704,1.479-5.538c0.222-0.76,0.911-1.142,1.73-1.136
	c0.178,0.002,0.356,0,0.533,0c0.034-0.337,0.06-0.592,0.092-0.901c5.506,0.165,10.98,0.33,16.6,0.498
	c-0.45-0.486-0.812-0.834-1.122-1.224c-0.295-0.372-0.643-0.49-1.112-0.501c-4.463-0.108-8.924-0.239-13.386-0.363
	c-0.942-0.026-0.941-0.024-1.038-0.923c-0.003-0.032-0.041-0.06-0.057-0.081h-0.882c-0.028,0.204-0.05,0.367-0.073,0.531
	c-1.001-0.204-1.846,0.157-2.642,0.659c-0.292,0.185-0.385,0.46-0.402,0.866c-0.029,0.705-0.161,1.451-0.447,2.093
	c-0.865,1.948-1.997,3.773-2.561,5.861c-0.134,0.497-0.1,0.837,0.195,1.235c1.09,1.474,2.339,2.783,3.831,3.854
	c0.142,0.102,0.275,0.215,0.46,0.36c-0.566,0.33-1.072,0.582-1.53,0.902c-0.618,0.431-1.125,1.029-0.985,1.806
	c0.132,0.733,0.054,1.272-0.51,1.786c-0.861,0.785-1.195,1.954-1.285,2.97c-0.155,1.756,0.535,3.366,1.789,4.703
	c0.297,0.317,0.461,0.858,0.482,1.306c0.02,0.422-0.223,0.858-0.361,1.284c-1.055,3.274-2.431,6.46-2.689,9.952
	c-0.042,0.575-0.297,1.155-0.24,1.71c0.065,0.635-0.216,0.942-0.696,1.105c-0.378,0.128-0.807,0.105-1.376,0.166
	c-0.085,1.464-0.178,3.073-0.277,4.768h-3.102c-0.168,1.753-0.162,3.417,0.064,5.181h2.536c-0.243,3.007-0.477,5.913-0.708,8.779
	h28.621c-0.229-2.966-0.45-5.834-0.676-8.775c0.244,0,0.471,0.001,0.696,0.001C784.555,146.77,783.037,144.78,783.037,142.481z
	 M719.397,44.804c0.617,0,1.117-0.5,1.117-1.117s-0.5-1.117-1.117-1.117c-0.617,0-1.117,0.5-1.117,1.117
	S718.78,44.804,719.397,44.804z M754.184,147.977c-0.239-1.872-0.261-3.668-0.071-5.65l0.184-1.913h3.027l0.128-2.199h-9.292
	l-4.675-4.188V86.199h-48.176v47.828l-4.675,4.188h-7.779c0.942,1.074,1.501,2.415,1.501,3.873c0,3.402-3.062,6.178-6.884,6.318
	v8.083h78.516l0.538-6.664h-2.105L754.184,147.977z M702.149,138.511h-2.205v-5.479h2.205V138.511z M702.149,130.365h-2.205v-5.479
	h2.205V130.365z M702.149,122.219h-2.205v-5.479h2.205V122.219z M702.149,114.074h-2.205v-5.479h2.205V114.074z M702.149,105.928
	h-2.205v-5.479h2.205V105.928z M702.796,97.207h-3.5v-7.914h3.5V97.207z M709.898,138.511h-2.205v-5.479h2.205V138.511z
	 M709.898,130.365h-2.205v-5.479h2.205V130.365z M709.898,122.219h-2.205v-5.479h2.205V122.219z M709.898,114.074h-2.205v-5.479
	h2.205V114.074z M709.898,105.928h-2.205v-5.479h2.205V105.928z M710.545,97.207h-3.5v-7.914h3.5V97.207z M715.204,138.511h-2.205
	v-5.479h2.205V138.511z M715.204,130.365h-2.205v-5.479h2.205V130.365z M715.204,122.219h-2.205v-5.479h2.205V122.219z
	 M715.204,114.074h-2.205v-5.479h2.205V114.074z M715.204,105.928h-2.205v-5.479h2.205V105.928z M715.851,97.207h-3.5v-7.914h3.5
	V97.207z M720.488,138.511h-2.184v-5.479h2.184V138.511z M720.488,130.365h-2.184v-5.479h2.184V130.365z M720.488,122.219h-2.184
	v-5.479h2.184V122.219z M720.488,114.074h-2.184v-5.479h2.184V114.074z M720.488,105.928h-2.184v-5.479h2.184V105.928z
	 M721.136,97.207h-3.479v-7.914h3.479V97.207z M725.794,138.511h-2.205v-5.479h2.205V138.511z M725.794,130.365h-2.205v-5.479h2.205
	V130.365z M725.794,122.219h-2.205v-5.479h2.205V122.219z M725.794,114.074h-2.205v-5.479h2.205V114.074z M725.794,105.928h-2.205
	v-5.479h2.205V105.928z M726.442,97.207h-3.5v-7.914h3.5V97.207z M731.101,138.511h-2.205v-5.479h2.205V138.511z M731.101,130.365
	h-2.205v-5.479h2.205V130.365z M731.101,122.219h-2.205v-5.479h2.205V122.219z M731.101,114.074h-2.205v-5.479h2.205V114.074z
	 M731.101,105.928h-2.205v-5.479h2.205V105.928z M731.748,97.207h-3.5v-7.914h3.5V97.207z M738.85,138.511h-2.205v-5.479h2.205
	V138.511z M738.85,130.365h-2.205v-5.479h2.205V130.365z M738.85,122.219h-2.205v-5.479h2.205V122.219z M738.85,114.074h-2.205
	v-5.479h2.205V114.074z M738.85,105.928h-2.205v-5.479h2.205V105.928z M739.497,97.207h-3.5v-7.914h3.5V97.207z M803.211,139.948
	c1.021-0.712,1.672-1.788,1.672-2.994c0-2.142-2.056-3.879-4.592-3.879c-0.077,0-0.151,0.007-0.227,0.01
	c0.219-0.615,0.341-1.293,0.341-2.007c0-2.772-1.828-5.02-4.084-5.02s-4.084,2.248-4.084,5.02c0,0.655,0.105,1.278,0.29,1.852
	c-0.16-0.015-0.322-0.023-0.487-0.023c-2.536,0-4.592,1.812-4.592,4.048c0,0.707,0.206,1.371,0.568,1.949
	c-1.74,0.544-2.98,1.938-2.98,3.577c0,2.112,2.056,3.824,4.592,3.824c0.256,0,0.503-0.026,0.748-0.059
	c0.009,0.037,0.012,0.075,0.022,0.112c0.162,0.546,0.38,1.071,0.673,1.534c0.295,0.458,0.625,0.881,1.001,1.216
	c0.363,0.351,0.763,0.619,1.143,0.845c0.389,0.213,0.765,0.371,1.108,0.484c0.174,0.049,0.337,0.095,0.488,0.137
	c0.014,0.003,0.026,0.005,0.039,0.007l-0.203,5.908h2.802l-0.231-6.742c0.127-0.033,0.261-0.068,0.406-0.106
	c0.315-0.098,0.661-0.236,1.021-0.424c0.352-0.2,0.723-0.44,1.064-0.756c0.351-0.304,0.657-0.691,0.934-1.111
	c0.018-0.027,0.03-0.059,0.047-0.087c0.548,0.194,1.147,0.306,1.779,0.306c2.536,0,4.592-1.718,4.592-3.837
	C807.062,141.823,805.394,140.245,803.211,139.948z M793.094,135.707c0.611,0,1.106,0.495,1.106,1.106s-0.495,1.106-1.106,1.106
	s-1.106-0.495-1.106-1.106S792.483,135.707,793.094,135.707z M790.186,142.068c-0.611,0-1.106-0.495-1.106-1.106
	c0-0.611,0.495-1.106,1.106-1.106s1.106,0.495,1.106,1.106C791.292,141.573,790.797,142.068,790.186,142.068z M794.891,149.419
	c-0.081-0.019-0.159-0.036-0.248-0.057c-0.283-0.078-0.596-0.192-0.925-0.35c-0.32-0.171-0.663-0.374-0.98-0.652
	c-0.329-0.263-0.62-0.604-0.89-0.977c-0.267-0.378-0.472-0.814-0.636-1.273c-0.005-0.015-0.007-0.032-0.012-0.048
	c0.561-0.172,1.074-0.426,1.508-0.754c0.572,0.73,1.362,1.276,2.269,1.555L794.891,149.419z M795.835,131.921
	c0-0.611,0.495-1.106,1.106-1.106s1.106,0.495,1.106,1.106c0,0.611-0.495,1.106-1.106,1.106S795.835,132.532,795.835,131.921z
	 M796.701,143.03c0-0.611,0.495-1.106,1.106-1.106s1.106,0.495,1.106,1.106c0,0.611-0.495,1.106-1.106,1.106
	S796.701,143.641,796.701,143.03z M799,147.666c-0.276,0.254-0.579,0.442-0.862,0.602c-0.291,0.148-0.57,0.256-0.823,0.333
	c-0.048,0.012-0.089,0.022-0.134,0.034l-0.056-1.638c0.682-0.122,1.313-0.39,1.855-0.776c0.229,0.224,0.491,0.424,0.776,0.599
	C799.527,147.14,799.28,147.435,799,147.666z M801.222,140.962c-0.611,0-1.106-0.495-1.106-1.106s0.495-1.106,1.106-1.106
	s1.106,0.495,1.106,1.106S801.833,140.962,801.222,140.962z M639.264,143.373c0.809-0.564,1.326-1.418,1.326-2.374
	c0-1.699-1.63-3.076-3.641-3.076c-0.061,0-0.12,0.005-0.18,0.008c0.173-0.487,0.271-1.025,0.271-1.591c0-2.198-1.45-3.98-3.238-3.98
	s-3.238,1.782-3.238,3.98c0,0.519,0.083,1.014,0.23,1.468c-0.127-0.012-0.256-0.018-0.386-0.018c-2.011,0-3.641,1.437-3.641,3.21
	c0,0.561,0.164,1.087,0.45,1.546c-1.38,0.431-2.363,1.537-2.363,2.836c0,1.674,1.63,3.032,3.641,3.032
	c0.203,0,0.399-0.02,0.593-0.047c0.007,0.029,0.009,0.059,0.017,0.089c0.129,0.433,0.302,0.849,0.534,1.217
	c0.234,0.363,0.495,0.699,0.794,0.965c0.288,0.278,0.605,0.491,0.906,0.67c0.308,0.169,0.606,0.294,0.879,0.384
	c0.138,0.039,0.267,0.075,0.387,0.109c0.011,0.002,0.021,0.004,0.031,0.006l-0.161,4.685h2.222l-0.184-5.346
	c0.101-0.026,0.207-0.054,0.322-0.084c0.25-0.077,0.524-0.187,0.81-0.337c0.279-0.159,0.573-0.349,0.843-0.599
	c0.278-0.241,0.521-0.548,0.741-0.881c0.014-0.022,0.023-0.047,0.037-0.069c0.434,0.154,0.909,0.242,1.411,0.242
	c2.011,0,3.641-1.362,3.641-3.042C642.317,144.86,640.995,143.608,639.264,143.373z M631.242,140.01
	c0.484,0,0.877,0.393,0.877,0.877c0,0.484-0.393,0.877-0.877,0.877c-0.484,0-0.877-0.393-0.877-0.877
	C630.365,140.403,630.757,140.01,631.242,140.01z M628.936,145.054c-0.484,0-0.877-0.393-0.877-0.877
	c0-0.484,0.393-0.877,0.877-0.877s0.877,0.393,0.877,0.877C629.813,144.662,629.42,145.054,628.936,145.054z M632.667,150.883
	c-0.064-0.015-0.126-0.029-0.196-0.045c-0.225-0.062-0.473-0.152-0.733-0.278c-0.254-0.135-0.526-0.297-0.777-0.517
	c-0.261-0.208-0.492-0.479-0.706-0.775c-0.212-0.299-0.374-0.645-0.504-1.009c-0.004-0.012-0.005-0.026-0.009-0.038
	c0.445-0.136,0.851-0.338,1.196-0.598c0.454,0.578,1.08,1.012,1.799,1.233L632.667,150.883z M633.415,137.008
	c0-0.484,0.393-0.877,0.877-0.877s0.877,0.393,0.877,0.877c0,0.484-0.393,0.877-0.877,0.877S633.415,137.492,633.415,137.008z
	 M634.102,145.817c0-0.484,0.393-0.877,0.877-0.877c0.484,0,0.877,0.393,0.877,0.877c0,0.484-0.393,0.877-0.877,0.877
	C634.495,146.694,634.102,146.302,634.102,145.817z M635.925,149.493c-0.219,0.201-0.459,0.35-0.684,0.477
	c-0.231,0.117-0.452,0.203-0.653,0.264c-0.038,0.01-0.07,0.018-0.106,0.027l-0.045-1.299c0.541-0.096,1.041-0.309,1.471-0.615
	c0.182,0.178,0.39,0.336,0.615,0.475C636.343,149.076,636.146,149.31,635.925,149.493z M637.687,144.177
	c-0.484,0-0.877-0.393-0.877-0.877c0-0.484,0.393-0.877,0.877-0.877c0.484,0,0.877,0.393,0.877,0.877
	C638.564,143.785,638.171,144.177,637.687,144.177z"/>
</svg>
