<?xml version="1.0" encoding="utf-8"?>
<!-- Generator: Adobe Illustrator 18.1.1, SVG Export Plug-In . SVG Version: 6.00 Build 0)  -->
<svg version="1.2" baseProfile="tiny" id="Слой_1" xmlns:ev="http://www.w3.org/2001/xml-events"
	 xmlns="http://www.w3.org/2000/svg" xmlns:xlink="http://www.w3.org/1999/xlink" x="0px" y="0px" width="25px" height="19px"
	 viewBox="-267 471 25 19" xml:space="preserve">
<path fill="#FFFFFF" d="M-247.44,485.23c0.53,0,0.97,0.43,0.97,0.98c0,0.53-0.43,0.97-0.97,0.97c-0.53,0-0.96-0.44-0.96-0.97
	C-248.4,485.66-247.97,485.23-247.44,485.23L-247.44,485.23z M-250.09,480.92h5.3l-1.55-3.15h-3.75V480.92L-250.09,480.92z
	 M-244.21,482.08h-5.88v3.15c0.47,0.06,0.83,0.47,0.83,0.97c0,0.5,0.2,0.97,0.54,1.3l0,0.01h0c0.33,0.34,0.78,0.54,1.29,0.54
	c0.49,0,0.93-0.19,1.26-0.5l0.04-0.04c0.32-0.32,0.53-0.78,0.54-1.28v-0.02c0-0.55,0.43-0.98,0.96-0.98h0.73v-2.57L-244.21,482.08
	L-244.21,482.08z M-243.82,487.17c-0.17,0.65-0.51,1.24-0.97,1.71l-0.06,0.06c-0.67,0.65-1.59,1.06-2.59,1.06
	c-1.03,0-1.97-0.42-2.64-1.11h0c-0.46-0.47-0.8-1.05-0.97-1.71h-0.02h-5.63c-0.17,0.66-0.52,1.24-0.98,1.71
	c-0.68,0.69-1.62,1.11-2.65,1.11c-1.04,0-1.97-0.42-2.65-1.11c-0.46-0.47-0.8-1.05-0.97-1.71h-2.08c-0.53,0-0.96-0.44-0.96-0.97
	v-0.03v-14.2c0-0.54,0.43-0.97,0.96-0.97h0.02h14.96c0.53,0,0.96,0.43,0.96,0.97V472v3.82h4.34c0.4,0,0.75,0.26,0.9,0.61l2.75,5.57
	c0.07,0.14,0.1,0.28,0.1,0.43h0v3.77c0,0.53-0.43,0.97-0.96,0.97h-0.02H-243.82L-243.82,487.17z M-252.01,472.96h-13.06v12.27h1.93
	h0.02c0.53,0,0.96,0.43,0.96,0.98c0,0.5,0.2,0.97,0.54,1.3c0.33,0.33,0.79,0.55,1.29,0.55c0.5,0,0.96-0.21,1.29-0.55
	c0.32-0.32,0.53-0.78,0.53-1.28v-0.02c0-0.55,0.43-0.98,0.96-0.98h5.53v-8.43v-0.03V472.96L-252.01,472.96z M-260.33,485.23
	c0.53,0,0.96,0.43,0.96,0.98c0,0.53-0.43,0.97-0.96,0.97c-0.53,0-0.96-0.44-0.96-0.97C-261.29,485.66-260.86,485.23-260.33,485.23
	L-260.33,485.23z"/>
</svg>
