<?xml version="1.0" encoding="utf-8"?>
<!-- Generator: Adobe Illustrator 18.1.1, SVG Export Plug-In . SVG Version: 6.00 Build 0)  -->
<svg version="1.2" baseProfile="tiny" id="Слой_1" xmlns:ev="http://www.w3.org/2001/xml-events"
	 xmlns="http://www.w3.org/2000/svg" xmlns:xlink="http://www.w3.org/1999/xlink" x="0px" y="0px" width="27px" height="21px"
	 viewBox="-266 470 27 21" xml:space="preserve">
<path fill="#FFFFFF" d="M-240,477.79c0,0.72-0.12,1.43-0.34,2.11c-1.07,4.86-10.25,10.73-10.64,10.98c-0.12,0.08-0.26,0.12-0.4,0.12
	c-0.14,0-0.28-0.04-0.4-0.12c-0.11-0.07-2.69-1.72-5.32-3.99c-0.31-0.27-0.35-0.75-0.08-1.06c0.27-0.31,0.74-0.35,1.05-0.08
	c1.96,1.69,3.93,3.05,4.75,3.6c2.76-1.82,8.85-6.44,9.6-9.85c0.2-0.6,0.28-1.15,0.28-1.71c0-1.94-1.04-3.72-2.72-4.66
	c-2.14-1.2-5.02-0.65-6.58,1.26c-0.28,0.35-0.86,0.35-1.15,0c-1.57-1.91-4.44-2.46-6.59-1.27c-1.68,0.94-2.73,2.72-2.73,4.65
	c0,0.55,0.09,1.1,0.26,1.64c0.11,0.5,0.32,0.98,0.59,1.49h4.35l1.49-3.47c0.13-0.3,0.43-0.48,0.75-0.45
	c0.32,0.03,0.59,0.26,0.66,0.58l1.1,4.7l1.42-2.36c0.13-0.22,0.38-0.36,0.64-0.36h2.7c0.41,0,0.75,0.34,0.75,0.75
	c0,0.42-0.34,0.75-0.75,0.75h-2.28l-2.14,3.56c-0.14,0.23-0.38,0.36-0.63,0.36c-0.04,0-0.08,0-0.12-0.01
	c-0.3-0.05-0.54-0.27-0.61-0.57l-1-4.28l-0.79,1.85c-0.12,0.28-0.39,0.45-0.68,0.45h-8.69c-0.41,0-0.75-0.34-0.75-0.75
	c0-0.42,0.34-0.75,0.75-0.75h2.18c-0.15-0.37-0.28-0.74-0.36-1.09c-0.21-0.61-0.32-1.32-0.32-2.04c0-2.48,1.34-4.77,3.5-5.97
	c2.5-1.4,5.81-0.96,7.88,1.01c2.06-1.96,5.37-2.4,7.88-1.01C-241.34,473.02-240,475.31-240,477.79z"/>
</svg>
