<?xml version="1.0" encoding="utf-8"?>
<!-- Generator: Adobe Illustrator 18.1.1, SVG Export Plug-In . SVG Version: 6.00 Build 0)  -->
<svg version="1.1" id="Layer_2" xmlns="http://www.w3.org/2000/svg" xmlns:xlink="http://www.w3.org/1999/xlink" x="0px" y="0px"
	 width="469.625px" height="1415.906px" viewBox="0 0 469.625 1415.906" enable-background="new 0 0 469.625 1415.906"
	 xml:space="preserve">
<pattern  x="-4482.31" y="3089.217" width="31.188" height="31.188" patternUnits="userSpaceOnUse" id="New_Pattern_Swatch_11" viewBox="0 -31.189 31.188 31.188" overflow="visible">
	<g>
		<polygon fill="none" points="0,-31.189 31.189,-31.189 31.189,0 0,0 		"/>
		<g>
			<defs>
				<rect id="SVGID_1_" x="0" y="-31.189" width="31.188" height="31.188"/>
			</defs>
			<defs>
				<rect id="SVGID_2_" x="0" y="-31.189" width="31.188" height="31.188"/>
			</defs>
			<use xlink:href="#SVGID_1_"  overflow="visible" fill="#FFFFFF"/>
			<clipPath id="SVGID_3_">
				<use xlink:href="#SVGID_1_"  overflow="visible"/>
			</clipPath>
			<clipPath id="SVGID_4_" clip-path="url(#SVGID_3_)">
				<use xlink:href="#SVGID_2_"  overflow="visible"/>
			</clipPath>
			<g clip-path="url(#SVGID_4_)">
				<polygon fill="#CCCCCC" points="14.108,-31.189 13.57,-31.189 13.57,0 14.108,0 				"/>
				<polygon fill="#444444" points="16.319,-31.189 14.379,-31.189 14.379,0 16.319,0 				"/>
				<polygon fill="#444444" points="30.406,-31.189 28.463,-31.189 28.463,0 30.406,0 				"/>
				<polygon fill="#444444" points="27.842,-31.189 27.682,-31.189 27.682,0 27.842,0 				"/>
				<polygon fill="#444444" points="31.189,-31.189 31.025,-31.189 31.025,0 31.189,0 				"/>
				<polygon fill="#B2B1B1" points="17.859,-31.189 16.319,-31.189 16.319,0 17.859,0 				"/>
				<polygon fill="#777677" points="21.529,-31.189 17.859,-31.189 17.859,0 21.529,0 				"/>
				<polygon fill="#CCCCCC" points="27.682,-31.189 21.529,-31.189 21.529,0 27.682,0 				"/>
				<polygon fill="#CCCCCC" points="6.152,-31.189 0,-31.189 0,0 6.152,0 				"/>
				<polygon fill="#777677" points="9.819,-31.189 6.152,-31.189 6.152,0 9.819,0 				"/>
				<polygon fill="#B2B1B1" points="11.356,-31.189 9.819,-31.189 9.819,0 11.356,0 				"/>
				<polygon fill="#444444" points="13.3,-31.189 11.356,-31.189 11.356,0 13.3,0 				"/>
				<polygon fill="#B2B1B1" points="13.57,-31.189 13.3,-31.189 13.3,0 13.57,0 				"/>
				<polygon fill="#B2B1B1" points="14.379,-31.189 14.108,-31.189 14.108,0 14.379,0 				"/>
				<polygon fill="#CCCCCC" points="27.842,-31.189 28.463,-31.189 28.463,0 27.842,0 				"/>
				<polygon fill="#CCCCCC" points="30.406,-31.189 31.025,-31.189 31.025,0 30.406,0 				"/>
			</g>
			<g opacity="0.5" clip-path="url(#SVGID_4_)">
				<polygon fill="#CCCCCC" points="31.189,-17.078 31.189,-17.619 0,-17.619 0,-17.078 				"/>
				<polygon fill="#444444" points="31.189,-14.867 31.189,-16.809 0,-16.809 0,-14.867 				"/>
				<polygon fill="#444444" points="31.189,-0.782 31.189,-2.726 0,-2.726 0,-0.782 				"/>
				<polygon fill="#444444" points="31.189,-3.346 31.189,-3.507 0,-3.507 0,-3.346 				"/>
				<polygon fill="#444444" points="31.189,0 31.189,-0.163 0,-0.163 0,0 				"/>
				<polygon fill="#F4F0E9" points="31.189,-13.329 31.189,-14.867 0,-14.867 0,-13.329 				"/>
				<polygon fill="#2B1F22" points="31.189,-9.66 31.189,-13.329 0,-13.329 0,-9.66 				"/>
				<polygon fill="#CCCCCC" points="31.189,-3.507 31.189,-9.66 0,-9.66 0,-3.507 				"/>
				<polygon fill="#2B1F22" points="31.189,-21.37 31.189,-25.039 0,-25.039 0,-21.37 				"/>
				<polygon fill="#F4F0E9" points="31.189,-19.83 31.189,-21.37 0,-21.37 0,-19.83 				"/>
				<polygon fill="#444444" points="31.189,-17.888 31.189,-19.83 0,-19.83 0,-17.888 				"/>
				<polygon fill="#CCCCCC" points="31.333,-24.989 31.333,-31.141 0.145,-31.141 0.145,-24.989 				"/>
				<polygon fill="#F4F0E9" points="31.189,-17.619 31.189,-17.888 0,-17.888 0,-17.619 				"/>
				<polygon fill="#F4F0E9" points="31.189,-16.809 31.189,-17.078 0,-17.078 0,-16.809 				"/>
				<polygon fill="#CCCCCC" points="31.189,-3.346 31.189,-2.726 0,-2.726 0,-3.346 				"/>
				<polygon fill="#CCCCCC" points="31.189,-0.782 31.189,-0.163 0,-0.163 0,-0.782 				"/>
			</g>
		</g>
	</g>
</pattern>
<g>
	<path fill="#FBFAFF" d="M468.934,1373.845c-0.96-6.52-5.118-1.42-14.387-7.236c-23.84-14.992-61.903-29.543-87.406-46.674
		c-15.926,0.576-31.53-0.742-47.484-1.76c-10.096-0.629-25.27-3.16-34.735-5.701c-6.729,32.809,5.609,50.541,38.886,58.98
		c37.103,9.414,73.035,43.408,111.512,44.434C457.17,1416.472,473.201,1402.89,468.934,1373.845z"/>
	<path fill="#A965A5" d="M454.631,1353.31c-0.594-0.404-1.072-0.818-1.695-1.213c-37.629-23.643-110.66-46.213-113.89-79.51
		c-3.23-33.326-50.514,2.145-50.514,2.145c-7.359,45.705-8.931,71.406,33.655,82.211c24.981,6.344,49.449,23.793,74.506,34.852
		C405.296,1366.902,430.366,1356.953,454.631,1353.31z"/>
	<path fill="#A965A5" d="M454.631,1353.31c-24.266,3.643-49.335,13.592-57.938,38.484c12.149,5.365,24.439,9.252,37.006,9.582
		C463.695,1402.175,484.466,1373.667,454.631,1353.31z"/>
	<path fill="#FBFAFF" d="M434.921,1397.818l-1.121-0.027c-9.814-0.246-20.224-2.787-32.526-7.926
		c7.465-17.393,25.082-28.402,52.47-32.799c9.638,7,13.591,15.191,11.097,23.236
		C461.707,1390.449,449.136,1397.818,434.921,1397.818L434.921,1397.818z"/>
	<path fill="#FBFAFF" d="M317.041,1318.656c0,5.629-4.563,10.203-10.212,10.203c-5.637,0-10.201-4.574-10.201-10.203
		c0-5.637,4.564-10.211,10.201-10.211C312.478,1308.445,317.041,1313.019,317.041,1318.656z"/>
	<g>
		<path fill="#FBFAFF" d="M343.686,1312.916c0,2.664-2.156,4.818-4.816,4.818c-2.656,0-4.821-2.154-4.821-4.818
			c0-2.645,2.165-4.809,4.821-4.809C341.53,1308.107,343.686,1310.271,343.686,1312.916z"/>
		<path fill="#FBFAFF" d="M359.569,1325.166c0,2.664-2.157,4.82-4.817,4.82c-2.655,0-4.818-2.156-4.818-4.82
			c0-2.643,2.163-4.809,4.818-4.809C357.412,1320.357,359.569,1322.523,359.569,1325.166z"/>
		<path fill="#FBFAFF" d="M375.452,1337.417c0,2.664-2.157,4.82-4.819,4.82c-2.653,0-4.815-2.156-4.815-4.82
			c0-2.642,2.162-4.809,4.815-4.809C373.294,1332.609,375.452,1334.775,375.452,1337.417z"/>
		<path fill="#FBFAFF" d="M391.333,1349.67c0,2.664-2.157,4.818-4.82,4.818c-2.652,0-4.811-2.154-4.811-4.818
			c0-2.643,2.159-4.809,4.811-4.809C389.176,1344.861,391.333,1347.027,391.333,1349.67z"/>
		<path fill="#FBFAFF" d="M407.216,1361.921c0,2.664-2.157,4.818-4.821,4.818c-2.651,0-4.809-2.154-4.809-4.818
			c0-2.642,2.157-4.809,4.809-4.809C405.059,1357.113,407.216,1359.279,407.216,1361.921z"/>
	</g>
	<g>
		<g>
			<path fill="#FFFFFF" d="M401.961,1362.751c-1.157-0.641-1.551-2.092-0.92-3.229l0,0c6.597-11.803,18.163-16.451,27.661-16.416
				l0,0c1.892,0,3.745,0.172,5.504,0.539l0,0c1.27,0.281,2.089,1.533,1.808,2.813l0,0c-0.273,1.289-1.526,2.098-2.805,1.816l0,0
				c-1.394-0.293-2.9-0.451-4.507-0.434l0,0c-8.046,0.01-17.875,3.869-23.519,13.986l0,0l0.017,0.02
				c-0.45,0.771-1.262,1.203-2.077,1.203l0,0C402.716,1363.05,402.319,1362.959,401.961,1362.751L401.961,1362.751z"/>
		</g>
		<g>
			<path fill="#FFFFFF" d="M386.096,1350.505c-1.13-0.668-1.507-2.127-0.827-3.246l0,0c6.086-10.307,16.375-14.531,25.222-14.504
				l0,0c1.724,0,3.427,0.15,5.042,0.471l0,0c1.302,0.254,2.109,1.506,1.864,2.785l0,0c-0.254,1.281-1.507,2.119-2.765,1.863l0,0
				c-1.309-0.264-2.712-0.387-4.142-0.387l0,0c-7.445,0.012-16.002,3.467-21.157,12.18l0,0l0.017,0.01
				c-0.45,0.744-1.241,1.158-2.041,1.158l0,0C386.887,1350.835,386.469,1350.732,386.096,1350.505L386.096,1350.505z"/>
		</g>
		<g>
			<path fill="#FFFFFF" d="M370.207,1338.251c-1.101-0.715-1.419-2.184-0.716-3.275l0,0c5.573-8.781,14.588-12.592,22.816-12.574
				l0,0c1.522,0,3.069,0.123,4.584,0.404l0,0c1.29,0.256,2.133,1.479,1.892,2.768l0,0c-0.244,1.291-1.47,2.137-2.768,1.883l0,0
				c-1.185-0.207-2.431-0.31-3.708-0.31l0,0c-6.834,0.01-14.166,3.068-18.822,10.371l0,0h0.008
				c-0.442,0.717-1.226,1.102-2.013,1.102l0,0C371.046,1338.619,370.604,1338.505,370.207,1338.251L370.207,1338.251z"/>
		</g>
		<g>
			<path fill="#FFFFFF" d="M354.321,1325.978c-1.08-0.762-1.337-2.229-0.603-3.313l0,0c5.082-7.227,12.801-10.635,20.425-10.615l0,0
				c1.334,0,2.701,0.094,4.095,0.328l0,0c1.277,0.217,2.133,1.451,1.928,2.748l0,0c-0.225,1.279-1.45,2.149-2.728,1.92l0,0
				c-1.093-0.188-2.178-0.262-3.295-0.252l0,0c-6.272,0.018-12.341,2.672-16.527,8.602l0,0l0.008,0.01
				c-0.458,0.658-1.193,1.006-1.949,1.006l0,0C355.197,1326.412,354.727,1326.271,354.321,1325.978L354.321,1325.978z"/>
		</g>
		<g>
			<path fill="#FFFFFF" d="M338.379,1313.67c-1.028-0.828-1.186-2.324-0.357-3.342l0,0c4.516-5.629,10.916-8.639,17.967-8.631l0,0
				c1.137,0,2.334,0.066,3.575,0.274l0,0c1.309,0.188,2.173,1.392,1.985,2.672l0,0c-0.198,1.309-1.41,2.195-2.692,1.996l0,0
				c-0.961-0.141-1.921-0.197-2.868-0.197l0,0c-5.733,0.027-10.551,2.307-14.279,6.869l0,0c-0.47,0.586-1.148,0.885-1.844,0.885l0,0
				C339.339,1314.195,338.809,1314.027,338.379,1313.67L338.379,1313.67z"/>
		</g>
	</g>
</g>
<g>
	<path fill="#FBFAFF" d="M0.687,1373.845c0.952-6.52,5.123-1.42,14.383-7.236c23.848-14.992,61.919-29.543,87.414-46.674
		c15.925,0.576,31.522-0.742,47.471-1.76c10.108-0.629,25.131-4.902,34.6-7.443c6.717,32.809-5.46,52.283-38.75,60.723
		c-37.082,9.414-73.043,43.408-111.499,44.434C12.442,1416.472-3.564,1402.89,0.687,1373.845z"/>
	<path fill="#A965A5" d="M14.985,1353.31c0.59-0.404,1.072-0.818,1.703-1.213c37.616-23.643,110.66-46.213,113.878-79.51
		c3.238-33.326,50.525,2.144,50.525,2.144c7.368,45.705,8.919,71.406-33.659,82.211c-24.978,6.344-49.437,23.793-74.502,34.852
		C64.329,1366.902,39.247,1356.953,14.985,1353.31z"/>
	<path fill="#A965A5" d="M14.985,1353.31c24.262,3.643,49.344,13.592,57.945,38.484c-12.157,5.365-24.451,9.252-37.014,9.582
		C5.93,1402.175-14.85,1373.667,14.985,1353.31z"/>
	<path fill="#FBFAFF" d="M34.703,1397.818l1.117-0.027c9.808-0.246,20.229-2.787,32.526-7.926
		c-7.453-17.393-25.082-28.402-52.478-32.799c-9.646,7-13.58,15.191-11.076,23.236C7.919,1390.449,20.489,1397.818,34.703,1397.818
		L34.703,1397.818z"/>
	<path fill="#FBFAFF" d="M152.583,1318.656c0,5.629,4.571,10.203,10.212,10.203c5.625,0,10.201-4.574,10.201-10.203
		c0-5.637-4.576-10.211-10.201-10.211C157.154,1308.445,152.583,1313.019,152.583,1318.656z"/>
	<g>
		<path fill="#FBFAFF" d="M125.939,1312.916c0,2.664,2.146,4.818,4.817,4.818c2.656,0,4.801-2.154,4.801-4.818
			c0-2.645-2.146-4.809-4.801-4.809C128.084,1308.107,125.939,1310.271,125.939,1312.916z"/>
		<path fill="#FBFAFF" d="M110.056,1325.166c0,2.664,2.145,4.82,4.815,4.82c2.657,0,4.803-2.156,4.803-4.82
			c0-2.643-2.146-4.809-4.803-4.809C112.201,1320.357,110.056,1322.523,110.056,1325.166z"/>
		<path fill="#FBFAFF" d="M94.174,1337.417c0,2.664,2.146,4.82,4.813,4.82c2.66,0,4.806-2.156,4.806-4.82
			c0-2.642-2.146-4.809-4.806-4.809C96.319,1332.609,94.174,1334.775,94.174,1337.417z"/>
		<path fill="#FBFAFF" d="M78.291,1349.669c0,2.664,2.146,4.818,4.811,4.818c2.662,0,4.808-2.154,4.808-4.818
			c0-2.643-2.146-4.809-4.808-4.809C80.437,1344.861,78.291,1347.027,78.291,1349.669z"/>
		<path fill="#FBFAFF" d="M62.409,1361.921c0,2.664,2.146,4.818,4.809,4.818c2.664,0,4.809-2.154,4.809-4.818
			c0-2.642-2.145-4.809-4.809-4.809C64.554,1357.113,62.409,1359.279,62.409,1361.921z"/>
	</g>
	<g>
		<g>
			<path fill="#FFFFFF" d="M67.659,1362.751c1.149-0.641,1.563-2.092,0.924-3.229l0,0c-6.609-11.803-18.164-16.451-27.661-16.416
				l0,0c-1.909,0-3.757,0.172-5.504,0.539l0,0c-1.282,0.281-2.09,1.533-1.808,2.813l0,0c0.261,1.289,1.522,2.098,2.804,1.816l0,0
				c1.374-0.293,2.896-0.451,4.508-0.434l0,0c8.047,0.01,17.862,3.869,23.518,13.986l0,0l-0.017,0.02
				c0.431,0.771,1.25,1.203,2.078,1.203l0,0C66.888,1363.05,67.294,1362.959,67.659,1362.751L67.659,1362.751z"/>
		</g>
		<g>
			<path fill="#FFFFFF" d="M83.528,1350.505c1.129-0.668,1.507-2.127,0.84-3.246l0,0c-6.091-10.307-16.388-14.531-25.226-14.504l0,0
				c-1.74,0-3.435,0.15-5.055,0.471l0,0c-1.298,0.254-2.117,1.506-1.86,2.785l0,0c0.241,1.281,1.502,2.119,2.776,1.863l0,0
				c1.306-0.264,2.68-0.387,4.139-0.387l0,0c7.428,0.012,15.99,3.467,21.14,12.18l0,0l-0.008,0.01
				c0.442,0.744,1.229,1.158,2.049,1.158l0,0C82.73,1350.835,83.143,1350.732,83.528,1350.505L83.528,1350.505z"/>
		</g>
		<g>
			<path fill="#FFFFFF" d="M99.415,1338.251c1.113-0.715,1.414-2.184,0.715-3.275l0,0c-5.568-8.781-14.587-12.592-22.812-12.574l0,0
				c-1.535,0-3.078,0.123-4.592,0.404l0,0c-1.29,0.256-2.129,1.479-1.885,2.768l0,0c0.238,1.291,1.479,2.137,2.769,1.883l0,0
				c1.177-0.207,2.427-0.31,3.709-0.31l0,0c6.834,0.01,14.154,3.068,18.822,10.371l0,0h-0.02c0.462,0.717,1.245,1.102,2.017,1.102
				l0,0C98.587,1338.619,99.021,1338.505,99.415,1338.251L99.415,1338.251z"/>
		</g>
		<g>
			<path fill="#FFFFFF" d="M115.312,1325.978c1.065-0.762,1.326-2.229,0.575-3.313l0,0c-5.054-7.227-12.78-10.635-20.413-10.615l0,0
				c-1.325,0-2.699,0.094-4.093,0.328l0,0c-1.282,0.217-2.137,1.451-1.929,2.748l0,0c0.233,1.279,1.446,2.149,2.748,1.92l0,0
				c1.061-0.188,2.153-0.262,3.274-0.252l0,0c6.275,0.018,12.358,2.672,16.536,8.602l0,0l-0.02,0.01
				c0.471,0.658,1.213,1.006,1.957,1.006l0,0C114.42,1326.412,114.89,1326.271,115.312,1325.978L115.312,1325.978z"/>
		</g>
		<g>
			<path fill="#FFFFFF" d="M131.245,1313.669c1.017-0.828,1.186-2.324,0.358-3.342l0,0c-4.528-5.629-10.928-8.639-17.966-8.631l0,0
				c-1.148,0-2.342,0.066-3.584,0.274l0,0c-1.301,0.188-2.165,1.392-1.977,2.672l0,0c0.185,1.309,1.39,2.195,2.691,1.996l0,0
				c0.96-0.141,1.909-0.197,2.869-0.197l0,0c5.721,0.027,10.55,2.307,14.278,6.869l0,0c0.47,0.586,1.148,0.885,1.844,0.885l0,0
				C130.285,1314.195,130.812,1314.027,131.245,1313.669L131.245,1313.669z"/>
		</g>
	</g>
</g>
<path fill="#DDB98E" d="M324.796,405.738c-22.72-13.023-48.901-20.525-75.917-20.525h-25.916c-28.951,0-56.961,8.631-80.754,23.436
	l100.086,145.211L324.796,405.738z"/>
<path fill="#F9F9F9" d="M324.796,405.738l-90.501,37.121l0,0l-56.283,5.357l45.569,139.205l18.714-33.563L142.21,408.648
	c-40.355,25.092-68.563,67.887-68.563,116.486v305.727h324.552V525.135C398.198,474.603,367.711,430.322,324.796,405.738z"/>
<pattern  id="SVGID_5_" xlink:href="#New_Pattern_Swatch_11" patternTransform="matrix(5.309 0 0 5.309 -3231.9829 55115.9375)">
</pattern>
<polygon display="none" fill="url(#SVGID_5_)" points="143.065,399.848 116.526,428.156 183.772,560.881 215.624,511.336 "/>
<pattern  id="SVGID_6_" xlink:href="#New_Pattern_Swatch_11" patternTransform="matrix(5.309 0 0 5.309 -3231.9829 55115.9375)">
</pattern>
<polygon display="none" fill="url(#SVGID_6_)" points="326.338,402.098 359.195,431.01 295.262,560.881 263.915,515.779 "/>
<path fill="#36162D" d="M241.487,574.81c0,3.811-3.086,6.898-6.91,6.898c-3.801,0-6.887-3.088-6.887-6.898
	c0-3.803,3.086-6.9,6.887-6.9C238.401,567.91,241.487,571.008,241.487,574.81z"/>
<path fill="#36162D" d="M241.487,628.605c0,3.822-3.086,6.908-6.91,6.908c-3.801,0-6.887-3.086-6.887-6.908
	c0-3.82,3.086-6.898,6.887-6.898C238.401,621.707,241.487,624.785,241.487,628.605z"/>
<path fill="#36162D" d="M241.487,682.394c0,3.82-3.086,6.906-6.91,6.906c-3.801,0-6.887-3.086-6.887-6.906
	c0-3.803,3.086-6.891,6.887-6.891C238.401,675.504,241.487,678.592,241.487,682.394z"/>
<path fill="#36162D" d="M241.487,736.199c0,3.813-3.086,6.898-6.91,6.898c-3.801,0-6.887-3.086-6.887-6.898s3.086-6.898,6.887-6.898
	C238.401,729.301,241.487,732.387,241.487,736.199z"/>
<path display="none" fill="#36162D" d="M241.487,789.986c0,3.822-3.086,6.908-6.91,6.908c-3.801,0-6.887-3.086-6.887-6.908
	c0-3.803,3.086-6.897,6.887-6.897C238.401,783.09,241.487,786.183,241.487,789.986z"/>
<g>
	<g>
		<polygon fill="#423429" points="221.33,462.635 193.826,752.273 233.773,784.784 275.405,751.994 247.067,462.635 		"/>
	</g>
</g>
<g>
	<g>
		<path fill="#382B23" d="M242.184,470.736h-15.122c-5.22,0-9.451-4.232-9.451-9.452v-8.34c0-5.22,4.232-9.451,9.451-9.451h15.122
			c5.22,0,9.451,4.232,9.451,9.451v8.34C251.636,466.504,247.404,470.736,242.184,470.736z"/>
	</g>
</g>
<polygon fill="#E5E5E5" points="159.377,391.217 115.526,428.156 199.793,493.645 234.624,441.336 "/>
<polygon fill="#E5E5E5" points="310.169,391.217 354.02,428.156 269.752,493.645 234.922,441.336 "/>
<g>
	<g>
		<polygon fill="#36162D" points="398.161,820.234 73.61,815.699 75.727,847.566 396.285,847.566 		"/>
		<path fill="#1B3352" d="M75.727,847.566l19.124,413.5h108.554l10.615-214.152c0-12.074,9.791-21.863,21.855-21.863
			c12.085,0,21.871,9.789,21.871,21.863l10.619,214.152h108.551l19.368-413.5H75.727z"/>
	</g>
</g>
<path fill="#DDB98E" d="M414.797,227.115c0,97.309-78.855,176.178-176.154,176.178c-97.309,0-176.186-78.869-176.186-176.178
	c0-97.297,78.877-176.165,176.186-176.165C335.942,50.95,414.797,129.818,414.797,227.115z"/>
<g>
	<g>
		<path fill="#36162D" d="M181.721,240.365c-4.075-10.447-13.309-15.367-23.283-15.438l0,0c-9.855,0.012-19.835,5.061-24.836,14.744
			l0,0h0.002c-1.067,2.055-3.6,2.861-5.654,1.795l0,0c-2.059-1.066-2.861-3.598-1.796-5.654l0,0
			c6.62-12.752,19.642-19.285,32.284-19.273l0,0c12.756-0.072,25.739,6.834,31.107,20.801l0,0c0.836,2.16-0.238,4.59-2.398,5.424
			l0,0c-0.498,0.193-1.011,0.285-1.514,0.285l0,0C183.952,243.047,182.365,242.029,181.721,240.365L181.721,240.365z"/>
	</g>
</g>
<g>
	<path fill="#36162D" d="M335.171,240.367c-4.08-10.451-13.313-15.367-23.281-15.439l0,0c-9.85,0.012-19.821,5.061-24.818,14.742
		l0,0c-1.063,2.057-3.598,2.863-5.653,1.799l0,0c-2.058-1.067-2.862-3.6-1.796-5.654l0,0c6.612-12.752,19.63-19.287,32.268-19.277
		l0,0c12.754-0.07,25.736,6.836,31.105,20.803l0,0c0.837,2.16-0.237,4.588-2.397,5.426l0,0c-0.497,0.191-1.009,0.283-1.512,0.283
		l0,0C337.402,243.049,335.813,242.029,335.171,240.367L335.171,240.367z"/>
</g>
<g>
	<g>
		<path fill="#553305" d="M102.918,212.256l12.225,10.268c0.885,0.734,2.202,0.621,2.953-0.254c0.735-0.895,0.623-2.221-0.261-2.975
			l-12.218-10.258c-0.893-0.736-2.209-0.621-2.965,0.264C101.91,210.185,102.042,211.512,102.918,212.256L102.918,212.256z"/>
		<path fill="#553305" d="M108.499,205.619l10.369,12.123c0.764,0.885,2.081,0.988,2.965,0.236c0.875-0.754,0.973-2.082,0.237-2.965
			l-10.382-12.123c-0.751-0.875-2.068-0.979-2.957-0.227C107.86,203.418,107.747,204.744,108.499,205.619L108.499,205.619z"/>
		<path fill="#553305" d="M115.227,200.726l8.791,13.326c0.639,0.961,1.938,1.234,2.896,0.592c0.973-0.639,1.246-1.938,0.596-2.906
			l-8.791-13.309c-0.631-0.979-1.929-1.242-2.9-0.602C114.862,198.459,114.588,199.765,115.227,200.726L115.227,200.726z"/>
		<path fill="#553305" d="M122.146,196.152l7.124,14.287c0.518,1.033,1.779,1.449,2.815,0.949c1.032-0.525,1.446-1.787,0.94-2.822
			l-7.135-14.277c-0.507-1.035-1.76-1.459-2.805-0.941C122.049,193.865,121.635,195.107,122.146,196.152L122.146,196.152z"/>
		<path fill="#553305" d="M129.675,192.943l5.571,14.945c0.395,1.092,1.6,1.639,2.693,1.232c1.08-0.396,1.635-1.609,1.221-2.691
			l-5.561-14.963c-0.406-1.084-1.619-1.629-2.703-1.225C129.807,190.646,129.27,191.851,129.675,192.943L129.675,192.943z"/>
		<path fill="#553305" d="M137.317,190.092l3.973,15.473c0.281,1.109,1.418,1.787,2.539,1.496c1.129-0.273,1.809-1.42,1.516-2.551
			l-3.962-15.465c-0.281-1.107-1.431-1.795-2.56-1.504C137.71,187.832,137.036,188.971,137.317,190.092L137.317,190.092z"/>
		<path fill="#553305" d="M145.344,188.473l2.297,15.783c0.17,1.156,1.234,1.939,2.383,1.777c1.145-0.158,1.936-1.23,1.768-2.379
			l-2.298-15.795c-0.169-1.139-1.241-1.938-2.378-1.77C145.975,186.262,145.174,187.324,145.344,188.473L145.344,188.473z"/>
		<path fill="#553305" d="M153.448,187.314l0.566,15.953c0.035,1.146,1.004,2.061,2.164,2.016c1.166-0.049,2.07-1.01,2.033-2.176
			l-0.566-15.943c-0.035-1.168-1.016-2.063-2.174-2.023C154.315,185.168,153.411,186.146,153.448,187.314L153.448,187.314z"/>
		<path fill="#553305" d="M161.747,187.447l-1.361,15.894c-0.105,1.16,0.764,2.176,1.908,2.27c1.148,0.104,2.166-0.752,2.27-1.902
			l1.367-15.904c0.092-1.158-0.764-2.166-1.913-2.279C162.86,185.431,161.844,186.289,161.747,187.447L161.747,187.447z"/>
		<path fill="#553305" d="M170.032,188.246l-3.387,15.596c-0.245,1.129,0.486,2.248,1.607,2.494c1.129,0.234,2.249-0.48,2.494-1.609
			l3.387-15.605c0.238-1.129-0.49-2.238-1.607-2.494C171.385,186.385,170.276,187.107,170.032,188.246L170.032,188.246z"/>
		<path fill="#553305" d="M178.227,190.496l-5.616,14.936c-0.405,1.074,0.147,2.297,1.222,2.701
			c1.092,0.406,2.297-0.141,2.711-1.223l5.609-14.945c0.414-1.084-0.141-2.289-1.222-2.703
			C179.846,188.859,178.633,189.412,178.227,190.496L178.227,190.496z"/>
		<path fill="#553305" d="M186.098,193.668l-7.814,13.918c-0.57,1.01-0.213,2.279,0.804,2.854c0.996,0.564,2.274,0.207,2.841-0.801
			l7.83-13.91c0.553-1.016,0.196-2.295-0.809-2.871C187.95,192.303,186.661,192.662,186.098,193.668L186.098,193.668z"/>
		<path fill="#553305" d="M193.409,198.346l-10.031,12.422c-0.715,0.904-0.574,2.223,0.318,2.945
			c0.903,0.727,2.221,0.596,2.957-0.318l10.016-12.414c0.723-0.902,0.582-2.23-0.322-2.955
			C195.442,197.299,194.133,197.431,193.409,198.346L193.409,198.346z"/>
		<path fill="#553305" d="M199.858,203.916l-11.88,10.654c-0.857,0.781-0.933,2.1-0.161,2.955c0.775,0.877,2.102,0.951,2.977,0.17
			l11.869-10.652c0.855-0.783,0.932-2.1,0.16-2.965C202.051,203.219,200.721,203.144,199.858,203.916L199.858,203.916z"/>
		<path fill="#553305" d="M205.185,210.664l-13.415,8.66c-0.968,0.631-1.24,1.928-0.631,2.898c0.644,0.971,1.934,1.252,2.9,0.631
			l13.412-8.668c0.98-0.621,1.262-1.93,0.622-2.898C207.452,210.306,206.153,210.043,205.185,210.664L205.185,210.664z"/>
		<path fill="#553305" d="M256.374,212.256l12.217,10.268c0.885,0.734,2.21,0.621,2.953-0.254c0.743-0.895,0.631-2.221-0.253-2.975
			l-12.226-10.258c-0.884-0.736-2.201-0.621-2.957,0.264C255.365,210.185,255.469,211.512,256.374,212.256L256.374,212.256z"/>
		<path fill="#553305" d="M261.946,205.619l10.389,12.123c0.744,0.885,2.072,0.988,2.945,0.236c0.888-0.754,0.988-2.082,0.236-2.965
			l-10.373-12.123c-0.752-0.875-2.076-0.979-2.965-0.227C261.307,203.418,261.19,204.744,261.946,205.619L261.946,205.619z"/>
		<path fill="#553305" d="M268.683,200.726l8.79,13.326c0.631,0.961,1.941,1.223,2.9,0.592c0.969-0.639,1.234-1.938,0.604-2.916
			l-8.791-13.299c-0.643-0.979-1.948-1.242-2.908-0.602C268.309,198.459,268.043,199.765,268.683,200.726L268.683,200.726z"/>
		<path fill="#553305" d="M275.601,196.152l7.123,14.287c0.511,1.033,1.772,1.449,2.804,0.949c1.037-0.525,1.463-1.787,0.945-2.822
			l-7.136-14.277c-0.507-1.035-1.76-1.459-2.804-0.941C275.497,193.865,275.083,195.107,275.601,196.152L275.601,196.152z"/>
		<path fill="#553305" d="M283.122,192.943l5.561,14.945c0.414,1.092,1.611,1.639,2.691,1.232c1.094-0.396,1.648-1.609,1.242-2.691
			l-5.58-14.963c-0.395-1.084-1.6-1.629-2.68-1.225C283.27,190.646,282.708,191.851,283.122,192.943L283.122,192.943z"/>
		<path fill="#553305" d="M290.772,190.092l3.965,15.473c0.281,1.109,1.43,1.787,2.539,1.496c1.129-0.273,1.809-1.42,1.527-2.551
			l-3.975-15.465c-0.281-1.107-1.422-1.795-2.543-1.504C291.157,187.832,290.483,188.971,290.772,190.092L290.772,190.092z"/>
		<path fill="#553305" d="M298.783,188.473l2.314,15.783c0.153,1.156,1.234,1.939,2.375,1.777c1.144-0.158,1.935-1.23,1.767-2.379
			l-2.286-15.795c-0.181-1.139-1.245-1.938-2.39-1.77C299.413,186.262,298.622,187.324,298.783,188.473L298.783,188.473z"/>
		<path fill="#553305" d="M306.894,187.314l0.566,15.953c0.036,1.146,1.017,2.061,2.173,2.016c1.158-0.049,2.061-1.01,2.014-2.176
			l-0.555-15.943c-0.057-1.168-1.017-2.063-2.174-2.023C307.762,185.168,306.858,186.146,306.894,187.314L306.894,187.314z"/>
		<path fill="#553305" d="M315.194,187.447l-1.361,15.894c-0.084,1.16,0.751,2.176,1.908,2.27c1.148,0.104,2.174-0.752,2.27-1.902
			l1.365-15.904c0.102-1.158-0.754-2.166-1.903-2.279C316.307,185.431,315.291,186.289,315.194,187.447L315.194,187.447z"/>
		<path fill="#553305" d="M323.479,188.246l-3.387,15.596c-0.246,1.129,0.478,2.248,1.607,2.494c1.142,0.244,2.25-0.471,2.495-1.609
			l3.387-15.605c0.236-1.121-0.478-2.238-1.607-2.494C324.833,186.392,323.723,187.107,323.479,188.246L323.479,188.246z"/>
		<path fill="#553305" d="M331.674,190.496l-5.617,14.936c-0.414,1.092,0.141,2.297,1.223,2.701
			c1.092,0.406,2.297-0.141,2.703-1.223l5.617-14.945c0.413-1.084-0.141-2.289-1.223-2.703
			C333.286,188.859,332.081,189.412,331.674,190.496L331.674,190.496z"/>
		<path fill="#553305" d="M339.546,193.668l-7.822,13.918c-0.566,1.01-0.205,2.279,0.799,2.854c1.008,0.564,2.286,0.207,2.853-0.801
			l7.821-13.91c0.576-1.006,0.217-2.287-0.791-2.871C341.389,192.303,340.12,192.662,339.546,193.668L339.546,193.668z"/>
		<path fill="#553305" d="M346.848,198.346l-10.023,12.422c-0.715,0.904-0.582,2.223,0.316,2.945
			c0.904,0.727,2.223,0.596,2.958-0.318l10.016-12.414c0.732-0.902,0.583-2.23-0.314-2.955
			C348.889,197.299,347.571,197.431,346.848,198.346L346.848,198.346z"/>
		<path fill="#553305" d="M353.305,203.916l-11.868,10.654c-0.876,0.781-0.944,2.1-0.173,2.955c0.775,0.877,2.094,0.951,2.957,0.17
			l11.875-10.652c0.877-0.783,0.945-2.1,0.174-2.965C355.495,203.219,354.161,203.144,353.305,203.916L353.305,203.916z"/>
		<path fill="#553305" d="M358.62,210.664l-13.402,8.67c-0.977,0.621-1.262,1.918-0.619,2.898c0.619,0.961,1.921,1.26,2.898,0.621
			l13.401-8.668c0.96-0.621,1.241-1.93,0.623-2.898C360.898,210.306,359.592,210.043,358.62,210.664L358.62,210.664z"/>
	</g>
</g>
<path fill="#DDB98E" d="M259.732,277.892c0,14.09-12.169,25.523-27.186,25.523c-15.021,0-27.191-11.434-27.191-25.523
	c0-14.09,12.17-25.506,27.191-25.506C247.563,252.387,259.732,263.803,259.732,277.892z"/>
<path fill="#553305" d="M413.801,96.051C379.592,33.387,264.344-18.066,195.282,6.076c-26.238,9.187-35.66,34.625-57.27,45.298
	c-19.688,9.74-43.49-3.003-61.955,11.04C39.002,90.582,51.249,168.982,56.19,208.058c1.145,9.127,4.082,32.592,7.275,40.967
	c1.571-2.012,12.977,4.623,11.639-5.354c-7.648-57.383,33.234-114.586,67.861-155.969c21.305,33.196,62.465,58.079,100.213,66.944
	c28.236,6.646,119.773,31.953,111.376,89.156c16.376-22.701,18.843-43.951,6.813-63.188c-0.365-0.33-0.393-0.33-0.043,0
	c29.918,18.324,50.48,78.022,30.895,109.803c0.273-0.244,0.53-0.498,0.771-0.752c11.172-19.559,23.908-39.086,32.096-60.131
	C441.651,187.004,435.729,136.201,413.801,96.051z"/>
<g>
	<path fill="#FFFFFF" d="M234.557,320.931c-22.607-0.668-47.982,5.439-47.982,5.439c3.465,20.912,23.135,36.969,46.986,36.969
		c23.848,0,43.52-16.057,46.982-36.969C280.543,326.371,257.823,321.609,234.557,320.931z"/>
</g>
<path fill="#DDB98E" d="M410.604,221.582l-2.873,38.354C444.982,254.183,435.364,215.398,410.604,221.582z"/>
<path fill="#DDB98E" d="M68.878,260.049l-3.049-38.24C40.227,214.467,30.063,254.797,68.878,260.049z"/>
<polygon fill="#7992AD" points="84.196,1242.902 90.862,1296.736 213.542,1294.129 211.453,1248.982 "/>
<polygon fill="#7992AD" points="258.84,1246.799 265.071,1292.738 379.391,1295.09 387.309,1246.988 "/>
<g>
	<path fill="#F9F9F9" d="M10.394,676.164c-0.06-79.049,27.734-163.5,95.308-234.285l0,0v0.01l21.771,20.772
		c-62.035,65.121-86.916,141.344-86.984,213.504l0,0c-0.056,72.072,25.318,139.875,63.462,185.84l0,0l-23.189,19.182
		C37.761,829.148,10.466,755.25,10.394,676.164L10.394,676.164z"/>
</g>
<g>
	<path fill="#F9F9F9" d="M463.559,676.164c0.068-79.049-27.734-163.5-95.301-234.285l0,0v0.01l-21.779,20.772
		c62.031,65.121,86.916,141.344,86.973,213.504l0,0c0.076,72.072-25.307,139.875-63.462,185.84l0,0l23.188,19.182
		C436.2,829.148,463.495,755.25,463.559,676.164L463.559,676.164z"/>
</g>
</svg>
