<?xml version="1.0" encoding="utf-8"?>
<!-- Generator: Adobe Illustrator 18.1.1, SVG Export Plug-In . SVG Version: 6.00 Build 0)  -->
<svg version="1.2" baseProfile="tiny" id="Слой_1" xmlns:ev="http://www.w3.org/2001/xml-events"
	 xmlns="http://www.w3.org/2000/svg" xmlns:xlink="http://www.w3.org/1999/xlink" x="0px" y="0px" width="20px" height="26px"
	 viewBox="-269 468 20 26" xml:space="preserve">
<path fill="#FFFFFF" d="M-258.4,469.26c-0.27-0.37-0.93-0.37-1.19,0c-0.34,0.48-8.41,11.77-8.41,16.24c0,4.68,4.04,8.5,9.01,8.5
	c4.97,0,9.01-3.81,9.01-8.5C-249.99,481.03-258.06,469.74-258.4,469.26z M-259,492.64c-4.17,0-7.57-3.2-7.57-7.14
	c0-3.11,5.01-10.95,7.57-14.64c2.56,3.69,7.57,11.53,7.57,14.64C-251.43,489.44-254.83,492.64-259,492.64z M-258.28,490.6
	c0,0.38-0.32,0.68-0.72,0.68c-3.38,0-6.13-2.59-6.13-5.78c0-0.38,0.32-0.68,0.72-0.68c0.4,0,0.72,0.3,0.72,0.68
	c0,2.44,2.1,4.42,4.68,4.42C-258.6,489.92-258.28,490.22-258.28,490.6z"/>
</svg>
