<svg baseProfile="full" xmlns="http://www.w3.org/2000/svg" height="15" width="10"><path fill="rgb( 191, 191, 191 )" d="M8.88 7.969c-.19-.372-.717-.682-1.416-.144-.946.726-2.464.726-2.464.726s-1.519 0-2.464-.726c-.7-.538-1.226-.228-1.416.144-.331.65.043.964.888 1.493.721.451 1.712.621 2.353.684l-.535.521-1.983 1.936c-.302.294-.302.771 0 1.065l.091.089c.15.147.347.22.544.221h.003c.197-.001.394-.074.544-.221l1.984-1.936 1.983 1.936c.302.294.79.294 1.092 0l.091-.089c.301-.294.301-.771 0-1.065l-1.984-1.936-.536-.523c.641-.064 1.622-.234 2.337-.682.845-.529 1.219-.843.888-1.493zm-3.88-5.302c.914 0 1.656.724 1.656 1.617 0 .892-.742 1.615-1.656 1.615-.915 0-1.656-.723-1.656-1.615 0-.893.741-1.617 1.656-1.617zm0 4.901c1.859 0 3.366-1.471 3.366-3.284 0-1.814-1.507-3.285-3.366-3.285-1.859 0-3.366 1.471-3.366 3.285 0 1.813 1.507 3.284 3.366 3.284z"/></svg>