<svg baseProfile="full" xmlns="http://www.w3.org/2000/svg" height="17" width="19"><path fill="rgb( 159, 178, 184 )" d="M2.429 13.197c0-.227.184-.415.407-.415.223 0 .407.188.407.415v.958l.81-.479c.193-.113.44-.044.548.151.113.196.048.45-.146.562l-.812.479.812.479c.194.112.259.366.146.561-.11.196-.359.264-.548.152l-.81-.479v.957c0 .227-.184.411-.407.411-.223 0-.407-.184-.407-.411v-.957l-.81.479c-.194.112-.443.044-.55-.154-.115-.196-.046-.447.146-.559l.814-.479-.814-.481c-.192-.113-.261-.364-.146-.565.11-.193.359-.259.55-.146l.81.479v-.958zm3.925-9.097v-.857c0-.88.355-1.688.927-2.274.572-.587 1.365-.945 2.232-.945h.003c.869 0 1.661.358 2.231.945l.039.044c.548.578.891 1.368.891 2.23v.855c.239.078.45.215.62.389l.045.053c.257.281.412.655.412 1.065v2.836c0 .437-.177.835-.457 1.121-.28.283-.671.464-1.1.464h-5.366c-.426 0-.815-.181-1.095-.464l-.004-.002-.015-.017c-.27-.286-.443-.675-.443-1.102v-2.836c0-.435.179-.83.458-1.117.174-.175.383-.312.622-.388zm4.974-.08v-.777c0-.491-.194-.943-.502-1.273l-.034-.026c-.328-.338-.781-.545-1.276-.545h-.003c-.496 0-.951.207-1.279.545l-.002-.003v.003c-.324.332-.53.793-.53 1.299v.777h3.626zm.869 1.38h-5.3660000000000005l-.144.056-.06.149v2.836l.06.149.144.061h5.366l.147-.063.057-.147v-2.836l-.043-.13-.014-.017-.147-.058zm5.619 9.947c.192.112.259.366.149.561-.113.196-.359.264-.551.152l-.814-.479v.957c0 .227-.18.411-.405.411-.223 0-.407-.184-.407-.411v-.957l-.81.479c-.191.112-.44.044-.551-.154-.11-.196-.045-.447.146-.559l.815-.479-.817-.481c-.191-.113-.256-.364-.144-.565.111-.193.36-.259.551-.146l.81.479v-.958c0-.227.184-.415.407-.415.225 0 .405.188.405.415v.958l.814-.479c.192-.113.438-.044.551.151.107.196.04.45-.149.562l-.814.479.814.479zm-4.452 0c.192.112.256.366.146.561-.112.196-.359.264-.551.152l-.814-.479v.957c0 .227-.179.411-.402.411-.225 0-.407-.184-.407-.411v-.957l-.813.479c-.193.112-.438.044-.55-.154-.11-.196-.043-.447.151-.559l.814-.479-.817-.481c-.191-.113-.258-.364-.148-.565.115-.193.362-.259.553-.146l.81.473v-.952c0-.227.182-.415.407-.415.223 0 .402.188.402.415v.958l.814-.479c.192-.113.439-.044.551.151.11.196.043.45-.149.562l-.814.479.817.479zm-4.455 0c.195.112.259.366.146.561-.11.196-.359.264-.55.152l-.812-.479v.957c0 .227-.18.411-.403.411-.225 0-.407-.184-.407-.411v-.957l-.812.479c-.193.112-.438.044-.55-.154-.111-.196-.046-.447.148-.559l.81-.479-.812-.481c-.192-.113-.257-.364-.146-.565.112-.193.357-.259.553-.146l.809.473v-.952c0-.227.182-.415.407-.415.223 0 .403.188.403.415v.958l.814-.479c.192-.113.441-.044.548.151.113.196.044.45-.146.562l-.814.479.814.479z"/></svg>