<?xml version="1.0" encoding="utf-8"?>
<!DOCTYPE svg PUBLIC "-//W3C//DTD SVG 1.1//EN" "http://www.w3.org/Graphics/SVG/1.1/DTD/svg11.dtd">
<svg version="1.1" baseProfile="full"
 xmlns="http://www.w3.org/2000/svg"
 xmlns:xlink="http://www.w3.org/1999/xlink"
 xmlns:ev="http://www.w3.org/2001/xml-events" 
  height="59px" 
  width="326px" 
>
<path fill="rgb( 93, 193, 232 )"
 d="M325.001,58.004 C325.001,58.004 252.492,58.004 252.492,58.004 C252.492,58.004 205.206,58.004 205.206,58.004 C205.206,58.004 166.019,58.004 166.019,58.004 C166.019,58.004 153.914,58.004 153.914,58.004 C153.914,58.004 114.726,58.004 114.726,58.004 C114.726,58.004 67.441,58.004 67.441,58.004 C67.441,58.004 0.99900000000002,58.004 0.99900000000002,58.004 C0.99900000000002,58.004 11.652,29.5 11.652,29.5 C11.652,29.5 0.99900000000002,0.99600000000001 0.99900000000002,0.99600000000001 C0.99900000000002,0.99600000000001 67.441,0.99600000000001 67.441,0.99600000000001 C67.441,0.99600000000001 114.726,0.99600000000001 114.726,0.99600000000001 C114.726,0.99600000000001 153.914,0.99600000000001 153.914,0.99600000000001 C153.914,0.99600000000001 166.019,0.99600000000001 166.019,0.99600000000001 C166.019,0.99600000000001 205.206,0.99600000000001 205.206,0.99600000000001 C205.206,0.99600000000001 252.492,0.99600000000001 252.492,0.99600000000001 C252.492,0.99600000000001 325.001,0.99600000000001 325.001,0.99600000000001 C325.001,0.99600000000001 314.348,29.5 314.348,29.5 C314.348,29.5 325.001,58.004 325.001,58.004 Z "/>
<path fill="rgb( 255, 255, 255 )"
 d="M321.967,58.004 C321.967,58.004 255.525,58.004 255.525,58.004 C255.525,58.004 208.24,58.004 208.24,58.004 C208.24,58.004 169.052,58.004 169.052,58.004 C169.052,58.004 156.947,58.004 156.947,58.004 C156.947,58.004 117.76,58.004 117.76,58.004 C117.76,58.004 70.474,58.004 70.474,58.004 C70.474,58.004 4.03300000000002,58.004 4.03300000000002,58.004 C4.03300000000002,58.004 14.6849999999999,29.5 14.6849999999999,29.5 C14.6849999999999,29.5 4.03300000000002,0.99600000000001 4.03300000000002,0.99600000000001 C4.03300000000002,0.99600000000001 70.474,0.99600000000001 70.474,0.99600000000001 C70.474,0.99600000000001 117.76,0.99600000000001 117.76,0.99600000000001 C117.76,0.99600000000001 156.947,0.99600000000001 156.947,0.99600000000001 C156.947,0.99600000000001 169.052,0.99600000000001 169.052,0.99600000000001 C169.052,0.99600000000001 208.24,0.99600000000001 208.24,0.99600000000001 C208.24,0.99600000000001 255.525,0.99600000000001 255.525,0.99600000000001 C255.525,0.99600000000001 321.967,0.99600000000001 321.967,0.99600000000001 C321.967,0.99600000000001 311.314,29.5 311.314,29.5 C311.314,29.5 321.967,58.004 321.967,58.004 Z "/>
</svg>
