<?xml version="1.0" encoding="utf-8"?>
<!DOCTYPE svg PUBLIC "-//W3C//DTD SVG 1.1//EN" "http://www.w3.org/Graphics/SVG/1.1/DTD/svg11.dtd">
<svg version="1.1" baseProfile="full"
 xmlns="http://www.w3.org/2000/svg"
 xmlns:xlink="http://www.w3.org/1999/xlink"
 xmlns:ev="http://www.w3.org/2001/xml-events" 
  height="25px" 
  width="32px" 
>
<path fill="rgb( 97, 194, 232 )"
 d="M30.47,17.271 C30.47,17.271 30.47,23.89 30.47,23.89 C30.7629999999999,23.899 30.9970000000001,24.143 30.9970000000001,24.444 C30.9970000000001,24.751 30.7539999999999,25 30.453,25 C30.453,25 29.9259999999999,25 29.9259999999999,25 C29.9259999999999,25 21.261,25 21.261,25 C21.261,25 14.125,25 14.125,25 C14.125,25 1.09099999999989,25 1.09099999999989,25 C1.09099999999989,25 0.54700000000003,25 0.54700000000003,25 C0.24600000000009,25 0.00199999999995,24.751 0.00199999999995,24.444 C0.00199999999995,24.138 0.24600000000009,23.889 0.54700000000003,23.889 C0.54700000000003,23.889 0.54700000000003,11.708 0.54700000000003,11.708 C0.37699999999995,11.7 0.221,11.613 0.12400000000002,11.469 C0.02199999999993,11.319 0,11.127 0.06400000000008,10.956 C0.06400000000008,10.956 1.10200000000009,8.18799999999999 1.10200000000009,8.18799999999999 C1.18200000000002,7.97300000000001 1.38400000000001,7.83100000000002 1.6099999999999,7.83100000000002 C1.6099999999999,7.83100000000002 3.28500000000008,7.83100000000002 3.28500000000008,7.83100000000002 C3.28500000000008,7.83100000000002 3.28500000000008,0.55599999999998 3.28500000000008,0.55599999999998 C3.28500000000008,0.24900000000002 3.529,0 3.82899999999995,0 C3.82899999999995,0 6.00700000000006,0 6.00700000000006,0 C6.30799999999999,0 6.55199999999991,0.24900000000002 6.55199999999991,0.55599999999998 C6.55199999999991,0.55599999999998 6.55199999999991,7.83100000000002 6.55199999999991,7.83100000000002 C6.55199999999991,7.83100000000002 7.64100000000008,7.83100000000002 7.64100000000008,7.83100000000002 C7.64100000000008,7.83100000000002 7.64100000000008,0.55599999999998 7.64100000000008,0.55599999999998 C7.64100000000008,0.24900000000002 7.88499999999999,0 8.18599999999992,0 C8.18599999999992,0 10.364,0 10.364,0 C10.664,0 10.9079999999999,0.24900000000002 10.9079999999999,0.55599999999998 C10.9079999999999,0.55599999999998 10.9079999999999,7.83100000000002 10.9079999999999,7.83100000000002 C10.9079999999999,7.83100000000002 13.5799999999999,7.83100000000002 13.5799999999999,7.83100000000002 C13.5799999999999,7.83100000000002 13.5799999999999,2.30000000000001 13.5799999999999,2.30000000000001 C13.5799999999999,1.99400000000003 13.8240000000001,1.745 14.125,1.745 C14.125,1.745 21.182,1.745 21.182,1.745 C21.482,1.745 21.7260000000001,1.99400000000003 21.7260000000001,2.30000000000001 C21.7260000000001,2.30000000000001 21.7260000000001,13.394 21.7260000000001,13.394 C21.7260000000001,13.394 29.4059999999999,13.394 29.4059999999999,13.394 C29.6310000000001,13.394 29.8330000000001,13.536 29.914,13.751 C29.914,13.751 30.952,16.519 30.952,16.519 C31.0160000000001,16.69 30.9929999999999,16.882 30.8920000000001,17.032 C30.7950000000001,17.175 30.6389999999999,17.263 30.47,17.271 ZM5.96599999999989,23.889 C5.96599999999989,23.889 9.25,23.889 9.25,23.889 C9.25,23.889 9.25,20.57 9.25,20.57 C9.25,20.57 5.96599999999989,20.57 5.96599999999989,20.57 C5.96599999999989,20.57 5.96599999999989,23.889 5.96599999999989,23.889 ZM5.96599999999989,19.459 C5.96599999999989,19.459 9.25,19.459 9.25,19.459 C9.25,19.459 9.25,16.108 9.25,16.108 C9.25,16.108 5.96599999999989,16.108 5.96599999999989,16.108 C5.96599999999989,16.108 5.96599999999989,19.459 5.96599999999989,19.459 ZM5.96599999999989,14.997 C5.96599999999989,14.997 9.25,14.997 9.25,14.997 C9.25,14.997 9.25,11.698 9.25,11.698 C9.25,11.698 5.96599999999989,11.698 5.96599999999989,11.698 C5.96599999999989,11.698 5.96599999999989,14.997 5.96599999999989,14.997 ZM1.63599999999997,23.889 C1.63599999999997,23.889 4.87799999999993,23.889 4.87799999999993,23.889 C4.87799999999993,23.889 4.87799999999993,20.57 4.87799999999993,20.57 C4.87799999999993,20.57 1.63599999999997,20.57 1.63599999999997,20.57 C1.63599999999997,20.57 1.63599999999997,23.889 1.63599999999997,23.889 ZM1.63599999999997,19.459 C1.63599999999997,19.459 4.87799999999993,19.459 4.87799999999993,19.459 C4.87799999999993,19.459 4.87799999999993,16.108 4.87799999999993,16.108 C4.87799999999993,16.108 1.63599999999997,16.108 1.63599999999997,16.108 C1.63599999999997,16.108 1.63599999999997,19.459 1.63599999999997,19.459 ZM1.63599999999997,14.997 C1.63599999999997,14.997 4.87799999999993,14.997 4.87799999999993,14.997 C4.87799999999993,14.997 4.87799999999993,11.698 4.87799999999993,11.698 C4.87799999999993,11.698 1.721,11.698 1.721,11.698 C1.69299999999998,11.704 1.66499999999996,11.707 1.63599999999997,11.709 C1.63599999999997,11.709 1.63599999999997,14.997 1.63599999999997,14.997 ZM5.46299999999997,1.11099999999999 C5.46299999999997,1.11099999999999 4.37400000000002,1.11099999999999 4.37400000000002,1.11099999999999 C4.37400000000002,1.11099999999999 4.37400000000002,2.23099999999999 4.37400000000002,2.23099999999999 C4.37400000000002,2.23099999999999 5.46299999999997,2.23099999999999 5.46299999999997,2.23099999999999 C5.46299999999997,2.23099999999999 5.46299999999997,1.11099999999999 5.46299999999997,1.11099999999999 ZM5.46299999999997,3.34199999999998 C5.46299999999997,3.34199999999998 4.37400000000002,3.34199999999998 4.37400000000002,3.34199999999998 C4.37400000000002,3.34199999999998 4.37400000000002,7.81 4.37400000000002,7.81 C4.37400000000002,7.81 5.46299999999997,7.81 5.46299999999997,7.81 C5.46299999999997,7.81 5.46299999999997,3.34199999999998 5.46299999999997,3.34199999999998 ZM9.81899999999996,1.11099999999999 C9.81899999999996,1.11099999999999 8.73000000000002,1.11099999999999 8.73000000000002,1.11099999999999 C8.73000000000002,1.11099999999999 8.73000000000002,2.23099999999999 8.73000000000002,2.23099999999999 C8.73000000000002,2.23099999999999 9.81899999999996,2.23099999999999 9.81899999999996,2.23099999999999 C9.81899999999996,2.23099999999999 9.81899999999996,1.11099999999999 9.81899999999996,1.11099999999999 ZM9.81899999999996,3.34199999999998 C9.81899999999996,3.34199999999998 8.73000000000002,3.34199999999998 8.73000000000002,3.34199999999998 C8.73000000000002,3.34199999999998 8.73000000000002,7.81 8.73000000000002,7.81 C8.73000000000002,7.81 9.81899999999996,7.81 9.81899999999996,7.81 C9.81899999999996,7.81 9.81899999999996,3.34199999999998 9.81899999999996,3.34199999999998 ZM13.5799999999999,8.94200000000001 C13.5799999999999,8.94200000000001 1.9849999999999,8.94200000000001 1.9849999999999,8.94200000000001 C1.9849999999999,8.94200000000001 1.36799999999994,10.587 1.36799999999994,10.587 C1.36799999999994,10.587 5.31999999999994,10.587 5.31999999999994,10.587 C5.35300000000007,10.581 5.38699999999994,10.577 5.42200000000003,10.577 C5.45700000000011,10.577 5.49099999999999,10.581 5.52399999999989,10.587 C5.52399999999989,10.587 9.69200000000001,10.587 9.69200000000001,10.587 C9.72499999999991,10.581 9.75900000000001,10.577 9.7940000000001,10.577 C9.82899999999995,10.577 9.86300000000006,10.581 9.89599999999996,10.587 C9.89599999999996,10.587 13.5799999999999,10.587 13.5799999999999,10.587 C13.5799999999999,10.587 13.5799999999999,8.94200000000001 13.5799999999999,8.94200000000001 ZM13.5799999999999,11.698 C13.5799999999999,11.698 10.338,11.698 10.338,11.698 C10.338,11.698 10.338,14.997 10.338,14.997 C10.338,14.997 13.5799999999999,14.997 13.5799999999999,14.997 C13.5799999999999,14.997 13.5799999999999,11.698 13.5799999999999,11.698 ZM13.5799999999999,16.108 C13.5799999999999,16.108 10.338,16.108 10.338,16.108 C10.338,16.108 10.338,19.459 10.338,19.459 C10.338,19.459 13.5799999999999,19.459 13.5799999999999,19.459 C13.5799999999999,19.459 13.5799999999999,16.108 13.5799999999999,16.108 ZM13.5799999999999,20.57 C13.5799999999999,20.57 10.338,20.57 10.338,20.57 C10.338,20.57 10.338,23.889 10.338,23.889 C10.338,23.889 13.5799999999999,23.889 13.5799999999999,23.889 C13.5799999999999,23.889 13.5799999999999,20.57 13.5799999999999,20.57 ZM20.6369999999999,2.85599999999999 C20.6369999999999,2.85599999999999 14.6690000000001,2.85599999999999 14.6690000000001,2.85599999999999 C14.6690000000001,2.85599999999999 14.6690000000001,11.143 14.6690000000001,11.143 C14.6690000000001,11.143 14.6690000000001,23.889 14.6690000000001,23.889 C14.6690000000001,23.889 20.6369999999999,23.889 20.6369999999999,23.889 C20.6369999999999,23.889 20.6369999999999,2.85599999999999 20.6369999999999,2.85599999999999 ZM23.9090000000001,23.889 C23.9090000000001,23.889 27.1869999999999,23.889 27.1869999999999,23.889 C27.1869999999999,23.889 27.1869999999999,21.131 27.1869999999999,21.131 C27.1869999999999,21.131 23.9090000000001,21.131 23.9090000000001,21.131 C23.9090000000001,21.131 23.9090000000001,23.889 23.9090000000001,23.889 ZM21.806,23.889 C21.806,23.889 22.8209999999999,23.889 22.8209999999999,23.889 C22.8209999999999,23.889 22.8209999999999,20.576 22.8209999999999,20.576 C22.8209999999999,20.269 23.0640000000001,20.02 23.365,20.02 C23.365,20.02 27.731,20.02 27.731,20.02 C28.0319999999999,20.02 28.2760000000001,20.269 28.2760000000001,20.576 C28.2760000000001,20.576 28.2760000000001,23.889 28.2760000000001,23.889 C28.2760000000001,23.889 29.3810000000001,23.889 29.3810000000001,23.889 C29.3810000000001,23.889 29.3810000000001,17.273 29.3810000000001,17.273 C29.3810000000001,17.273 21.806,17.273 21.806,17.273 C21.806,17.273 21.806,23.889 21.806,23.889 ZM29.0309999999999,14.505 C29.0309999999999,14.505 21.7260000000001,14.505 21.7260000000001,14.505 C21.7260000000001,14.505 21.7260000000001,16.162 21.7260000000001,16.162 C21.7260000000001,16.162 29.4059999999999,16.162 29.4059999999999,16.162 C29.4059999999999,16.162 29.652,16.162 29.652,16.162 C29.652,16.162 29.0309999999999,14.505 29.0309999999999,14.505 ZM16.8920000000001,4.51400000000001 C17.193,4.51400000000001 17.4359999999999,4.76299999999998 17.4359999999999,5.06900000000002 C17.4359999999999,5.06900000000002 17.4359999999999,6.16300000000001 17.4359999999999,6.16300000000001 C17.4359999999999,6.47000000000003 17.193,6.71899999999999 16.8920000000001,6.71899999999999 C16.5909999999999,6.71899999999999 16.348,6.47000000000003 16.348,6.16300000000001 C16.348,6.16300000000001 16.348,5.06900000000002 16.348,5.06900000000002 C16.348,4.76299999999998 16.5909999999999,4.51400000000001 16.8920000000001,4.51400000000001 ZM16.8920000000001,8.43700000000001 C17.193,8.43700000000001 17.4359999999999,8.68599999999998 17.4359999999999,8.99200000000002 C17.4359999999999,8.99200000000002 17.4359999999999,10.086 17.4359999999999,10.086 C17.4359999999999,10.393 17.193,10.642 16.8920000000001,10.642 C16.5909999999999,10.642 16.348,10.393 16.348,10.086 C16.348,10.086 16.348,8.99200000000002 16.348,8.99200000000002 C16.348,8.68599999999998 16.5909999999999,8.43700000000001 16.8920000000001,8.43700000000001 ZM16.8920000000001,12.3 C17.193,12.3 17.4359999999999,12.549 17.4359999999999,12.856 C17.4359999999999,12.856 17.4359999999999,13.95 17.4359999999999,13.95 C17.4359999999999,14.256 17.193,14.505 16.8920000000001,14.505 C16.5909999999999,14.505 16.348,14.256 16.348,13.95 C16.348,13.95 16.348,12.856 16.348,12.856 C16.348,12.549 16.5909999999999,12.3 16.8920000000001,12.3 ZM16.8920000000001,16.223 C17.193,16.223 17.4359999999999,16.472 17.4359999999999,16.779 C17.4359999999999,16.779 17.4359999999999,17.872 17.4359999999999,17.872 C17.4359999999999,18.179 17.193,18.428 16.8920000000001,18.428 C16.5909999999999,18.428 16.348,18.179 16.348,17.872 C16.348,17.872 16.348,16.779 16.348,16.779 C16.348,16.472 16.5909999999999,16.223 16.8920000000001,16.223 ZM16.8920000000001,20.089 C17.193,20.089 17.4359999999999,20.338 17.4359999999999,20.644 C17.4359999999999,20.644 17.4359999999999,21.738 17.4359999999999,21.738 C17.4359999999999,22.045 17.193,22.294 16.8920000000001,22.294 C16.5909999999999,22.294 16.348,22.045 16.348,21.738 C16.348,21.738 16.348,20.644 16.348,20.644 C16.348,20.338 16.5909999999999,20.089 16.8920000000001,20.089 ZM18.4939999999999,4.51400000000001 C18.7950000000001,4.51400000000001 19.038,4.76299999999998 19.038,5.06900000000002 C19.038,5.06900000000002 19.038,6.16300000000001 19.038,6.16300000000001 C19.038,6.47000000000003 18.7950000000001,6.71899999999999 18.4939999999999,6.71899999999999 C18.193,6.71899999999999 17.95,6.47000000000003 17.95,6.16300000000001 C17.95,6.16300000000001 17.95,5.06900000000002 17.95,5.06900000000002 C17.95,4.76299999999998 18.193,4.51400000000001 18.4939999999999,4.51400000000001 ZM18.4939999999999,8.43700000000001 C18.7950000000001,8.43700000000001 19.038,8.68599999999998 19.038,8.99200000000002 C19.038,8.99200000000002 19.038,10.086 19.038,10.086 C19.038,10.393 18.7950000000001,10.642 18.4939999999999,10.642 C18.193,10.642 17.95,10.393 17.95,10.086 C17.95,10.086 17.95,8.99200000000002 17.95,8.99200000000002 C17.95,8.68599999999998 18.193,8.43700000000001 18.4939999999999,8.43700000000001 ZM18.4939999999999,12.3 C18.7950000000001,12.3 19.038,12.549 19.038,12.856 C19.038,12.856 19.038,13.95 19.038,13.95 C19.038,14.256 18.7950000000001,14.505 18.4939999999999,14.505 C18.193,14.505 17.95,14.256 17.95,13.95 C17.95,13.95 17.95,12.856 17.95,12.856 C17.95,12.549 18.193,12.3 18.4939999999999,12.3 ZM18.4939999999999,16.223 C18.7950000000001,16.223 19.038,16.472 19.038,16.779 C19.038,16.779 19.038,17.872 19.038,17.872 C19.038,18.179 18.7950000000001,18.428 18.4939999999999,18.428 C18.193,18.428 17.95,18.179 17.95,17.872 C17.95,17.872 17.95,16.779 17.95,16.779 C17.95,16.472 18.193,16.223 18.4939999999999,16.223 ZM18.4939999999999,20.089 C18.7950000000001,20.089 19.038,20.338 19.038,20.644 C19.038,20.644 19.038,21.738 19.038,21.738 C19.038,22.045 18.7950000000001,22.294 18.4939999999999,22.294 C18.193,22.294 17.95,22.045 17.95,21.738 C17.95,21.738 17.95,20.644 17.95,20.644 C17.95,20.338 18.193,20.089 18.4939999999999,20.089 Z "/>
</svg>
