<?xml version="1.0" encoding="utf-8"?>
<!-- Generator: Adobe Illustrator 18.1.1, SVG Export Plug-In . SVG Version: 6.00 Build 0)  -->
<svg version="1.2" baseProfile="tiny" id="Слой_1" xmlns:ev="http://www.w3.org/2001/xml-events"
	 xmlns="http://www.w3.org/2000/svg" xmlns:xlink="http://www.w3.org/1999/xlink" x="0px" y="0px" width="32px" height="25px"
	 viewBox="-263 468 32 25" xml:space="preserve">
<path fill="#FFFFFF" d="M-232.53,485.27v6.62c0.29,0.01,0.53,0.25,0.53,0.55c0,0.31-0.24,0.56-0.54,0.56h-0.53h-8.66h-7.14h-13.03
	h-0.54c-0.3,0-0.54-0.25-0.54-0.56c0-0.31,0.24-0.55,0.54-0.55v-12.18c-0.17-0.01-0.33-0.1-0.42-0.24c-0.1-0.15-0.12-0.34-0.06-0.51
	l1.04-2.77c0.08-0.21,0.28-0.36,0.51-0.36h1.68v-7.27c0-0.31,0.24-0.56,0.54-0.56h2.18c0.3,0,0.55,0.25,0.55,0.56v7.27h1.09v-7.27
	c0-0.31,0.24-0.56,0.54-0.56h2.18c0.3,0,0.54,0.25,0.54,0.56v7.27h2.67v-5.53c0-0.31,0.24-0.55,0.54-0.55h7.06
	c0.3,0,0.54,0.25,0.54,0.55v11.09h7.68c0.22,0,0.43,0.14,0.51,0.36l1.04,2.77c0.06,0.17,0.04,0.36-0.06,0.51
	C-232.21,485.17-232.36,485.26-232.53,485.27z M-257.03,491.89h3.28v-3.32h-3.28V491.89z M-257.03,487.46h3.28v-3.35h-3.28V487.46z
	 M-257.03,483h3.28v-3.3h-3.28V483z M-261.36,491.89h3.24v-3.32h-3.24V491.89z M-261.36,487.46h3.24v-3.35h-3.24V487.46z
	 M-261.36,483h3.24v-3.3h-3.16c-0.03,0.01-0.06,0.01-0.09,0.01V483z M-257.54,469.11h-1.09v1.12h1.09V469.11z M-257.54,471.34h-1.09
	v4.47h1.09V471.34z M-253.18,469.11h-1.09v1.12h1.09V469.11z M-253.18,471.34h-1.09v4.47h1.09V471.34z M-249.42,476.94h-11.6
	l-0.62,1.65h3.95c0.03-0.01,0.07-0.01,0.1-0.01s0.07,0,0.1,0.01h4.17c0.03-0.01,0.07-0.01,0.1-0.01c0.03,0,0.07,0,0.1,0.01h3.68
	V476.94z M-249.42,479.7h-3.24v3.3h3.24V479.7z M-249.42,484.11h-3.24v3.35h3.24V484.11z M-249.42,488.57h-3.24v3.32h3.24V488.57z
	 M-242.36,470.86h-5.97v8.29v12.75h5.97V470.86z M-239.09,491.89h3.28v-2.76h-3.28V491.89z M-241.19,491.89h1.01v-3.31
	c0-0.31,0.24-0.56,0.54-0.56h4.37c0.3,0,0.54,0.25,0.54,0.56v3.31h1.1v-6.62h-7.57V491.89z M-233.97,482.51h-7.31v1.66h7.68h0.25
	L-233.97,482.51z M-246.11,472.51c0.3,0,0.54,0.25,0.54,0.55v1.09c0,0.31-0.24,0.56-0.54,0.56s-0.54-0.25-0.54-0.56v-1.09
	C-246.65,472.76-246.41,472.51-246.11,472.51z M-246.11,476.44c0.3,0,0.54,0.25,0.54,0.55v1.09c0,0.31-0.24,0.56-0.54,0.56
	s-0.54-0.25-0.54-0.56v-1.09C-246.65,476.69-246.41,476.44-246.11,476.44z M-246.11,480.3c0.3,0,0.54,0.25,0.54,0.56v1.09
	c0,0.31-0.24,0.55-0.54,0.55s-0.54-0.25-0.54-0.55v-1.09C-246.65,480.55-246.41,480.3-246.11,480.3z M-246.11,484.22
	c0.3,0,0.54,0.25,0.54,0.56v1.09c0,0.31-0.24,0.56-0.54,0.56s-0.54-0.25-0.54-0.56v-1.09
	C-246.65,484.47-246.41,484.22-246.11,484.22z M-246.11,488.09c0.3,0,0.54,0.25,0.54,0.56v1.09c0,0.31-0.24,0.56-0.54,0.56
	s-0.54-0.25-0.54-0.56v-1.09C-246.65,488.34-246.41,488.09-246.11,488.09z M-244.51,472.51c0.3,0,0.54,0.25,0.54,0.55v1.09
	c0,0.31-0.24,0.56-0.54,0.56c-0.3,0-0.54-0.25-0.54-0.56v-1.09C-245.05,472.76-244.81,472.51-244.51,472.51z M-244.51,476.44
	c0.3,0,0.54,0.25,0.54,0.55v1.09c0,0.31-0.24,0.56-0.54,0.56c-0.3,0-0.54-0.25-0.54-0.56v-1.09
	C-245.05,476.69-244.81,476.44-244.51,476.44z M-244.51,480.3c0.3,0,0.54,0.25,0.54,0.56v1.09c0,0.31-0.24,0.55-0.54,0.55
	c-0.3,0-0.54-0.25-0.54-0.55v-1.09C-245.05,480.55-244.81,480.3-244.51,480.3z M-244.51,484.22c0.3,0,0.54,0.25,0.54,0.56v1.09
	c0,0.31-0.24,0.56-0.54,0.56c-0.3,0-0.54-0.25-0.54-0.56v-1.09C-245.05,484.47-244.81,484.22-244.51,484.22z M-244.51,488.09
	c0.3,0,0.54,0.25,0.54,0.56v1.09c0,0.31-0.24,0.56-0.54,0.56c-0.3,0-0.54-0.25-0.54-0.56v-1.09
	C-245.05,488.34-244.81,488.09-244.51,488.09z"/>
</svg>
