<?xml version="1.0" encoding="utf-8"?>
<!-- Generator: Adobe Illustrator 18.1.1, SVG Export Plug-In . SVG Version: 6.00 Build 0)  -->
<svg version="1.2" baseProfile="tiny" id="Слой_1" xmlns:ev="http://www.w3.org/2001/xml-events"
	 xmlns="http://www.w3.org/2000/svg" xmlns:xlink="http://www.w3.org/1999/xlink" x="0px" y="0px" width="27px" height="26px"
	 viewBox="-266 468 27 26" xml:space="preserve">
<path fill="#FFFFFF" d="M-256.4,491.03v-1h-4.04c-0.33,0-0.59-0.27-0.59-0.59c0-0.34,0.26-0.6,0.59-0.6h4.04v-1.19h-4.04
	c-0.33,0-0.59-0.27-0.59-0.59c0-0.34,0.26-0.6,0.59-0.6h4.04v-1.19h-4.04c-0.33,0-0.59-0.27-0.59-0.59c0-0.34,0.26-0.61,0.59-0.61
	h4.04v-1.19h-4.04c-0.33,0-0.59-0.27-0.59-0.59c0-0.34,0.26-0.6,0.59-0.6c5.27,0,10.55,0,15.82,0c0.32,0,0.58,0.26,0.58,0.6
	c0,0.33-0.26,0.59-0.58,0.59h-4.04v1.19h4.04c0.32,0,0.58,0.27,0.58,0.61c0,0.32-0.26,0.59-0.58,0.59h-4.04v1.19h4.04
	c0.32,0,0.58,0.26,0.58,0.6c0,0.33-0.26,0.59-0.58,0.59h-4.04v1.19h4.04c0.32,0,0.58,0.26,0.58,0.6c0,0.32-0.26,0.59-0.58,0.59
	h-4.04v1h5.36c0.53,0,0.96,0.45,0.96,1s-0.44,0.99-0.96,0.99h-18.46c-0.53,0-0.96-0.44-0.96-0.99s0.43-1,0.96-1H-256.4
	L-256.4,491.03z M-258.61,480.48L-258.61,480.48c-0.31,0-0.57-0.27-0.57-0.6s0.26-0.6,0.57-0.6h12.17c0.31,0,0.57,0.27,0.57,0.6
	s-0.26,0.6-0.57,0.6H-258.61L-258.61,480.48z M-256.3,478.1L-256.3,478.1c-0.32,0-0.57-0.27-0.57-0.6c0-0.33,0.26-0.6,0.57-0.6h7.55
	c0.32,0,0.57,0.27,0.57,0.6c0,0.33-0.26,0.6-0.57,0.6H-256.3L-256.3,478.1z M-253.99,475.71L-253.99,475.71
	c-0.31,0-0.57-0.27-0.57-0.6c0-0.33,0.26-0.6,0.57-0.6h2.93c0.32,0,0.58,0.27,0.58,0.6c0,0.33-0.26,0.6-0.58,0.6H-253.99
	L-253.99,475.71z M-255.24,491.03L-255.24,491.03h5.44c0-2.72,0-5.44,0-8.16h-5.44V491.03L-255.24,491.03z M-263.39,482.6
	L-263.39,482.6l10.85-11.22l10.87,11.22c0.37,0.39,0.98,0.39,1.36,0c0.38-0.38,0.38-1.02,0-1.4l-11.52-11.92l-0.02-0.02
	c-0.38-0.38-0.98-0.38-1.36,0l-11.54,11.94c-0.38,0.38-0.38,1.02,0,1.4C-264.37,482.99-263.76,482.99-263.39,482.6L-263.39,482.6z"
	/>
</svg>
