<?xml version="1.0" encoding="utf-8"?>
<!-- Generator: Adobe Illustrator 18.1.1, SVG Export Plug-In . SVG Version: 6.00 Build 0)  -->
<svg version="1.2" baseProfile="tiny" id="Слой_1" xmlns:ev="http://www.w3.org/2001/xml-events"
	 xmlns="http://www.w3.org/2000/svg" xmlns:xlink="http://www.w3.org/1999/xlink" x="0px" y="0px" width="25px" height="25px"
	 viewBox="-267 468 25 25" xml:space="preserve">
<path fill="#FFFFFF" d="M-244.76,489.73c0,0.61-0.22,1.17-0.57,1.58c-0.38,0.43-0.91,0.7-1.51,0.7c-0.58,0-1.11-0.27-1.5-0.7
	c-0.36-0.41-0.58-0.97-0.58-1.58l0.01-0.07l0.44-6.92v-0.05v-0.02l0,0c0-0.47,0.18-0.9,0.45-1.22c0.08-0.08,0.16-0.15,0.24-0.22
	v-3.56c-0.7-0.2-1.32-0.63-1.8-1.19c-0.67-0.79-1.09-1.88-1.09-3.07c0-1.19,0.42-2.28,1.09-3.07c0.69-0.82,1.67-1.33,2.74-1.33
	c1.08,0,2.05,0.51,2.75,1.33l0.03,0.04c0.66,0.79,1.07,1.86,1.07,3.03c0,1.19-0.42,2.28-1.09,3.07v0c-0.49,0.57-1.11,0.99-1.8,1.19
	v3.56c0.09,0.06,0.17,0.14,0.24,0.22c0.28,0.32,0.45,0.75,0.45,1.22v0.06l0.45,6.97V489.73L-244.76,489.73L-244.76,489.73z
	 M-255.15,477.01v4.23c0.09,0.06,0.16,0.14,0.24,0.22c0.28,0.32,0.45,0.75,0.45,1.22l-0.01,0.06l0.44,6.97l0.01,0.03l0,0
	c0,0.61-0.22,1.17-0.58,1.58c-0.38,0.43-0.92,0.7-1.5,0.7c-0.59,0-1.13-0.27-1.5-0.7c-0.36-0.41-0.59-0.97-0.59-1.58l0.01-0.07
	l0.45-6.92v-0.05v-0.01l0,0c0-0.47,0.17-0.9,0.44-1.22c0.07-0.08,0.15-0.15,0.23-0.22v-4.23h-0.36c-0.44,0-0.84-0.18-1.13-0.46
	c-0.29-0.28-0.47-0.68-0.47-1.11v-5.07c0-0.31,0.25-0.56,0.57-0.56c0.31,0,0.57,0.25,0.57,0.56v5.07c0,0.13,0.05,0.24,0.14,0.32
	c0.08,0.08,0.18,0.13,0.29,0.14v-5.53c0-0.31,0.25-0.56,0.57-0.56c0.31,0,0.57,0.25,0.57,0.56v5.53h0.19h0.03h0.03h0.18v-5.53
	c0-0.31,0.26-0.56,0.57-0.56c0.31,0,0.57,0.25,0.57,0.56v5.53c0.11-0.01,0.22-0.06,0.29-0.13v-0.01c0.08-0.08,0.14-0.19,0.14-0.32
	v-5.07c0-0.31,0.25-0.56,0.57-0.56c0.31,0,0.57,0.25,0.57,0.56v5.07c0,0.43-0.18,0.82-0.47,1.11v0c-0.3,0.28-0.7,0.46-1.13,0.46
	H-255.15L-255.15,477.01z M-262.57,481.57c0.2,0.26,0.31,0.59,0.31,0.93v7.91c0,0.44-0.18,0.83-0.48,1.13l-0.01,0.01l-0.01,0.01
	c-0.3,0.28-0.7,0.45-1.14,0.45h-1.44c-0.45,0-0.86-0.18-1.16-0.47v-0.01l-0.01-0.01c-0.3-0.29-0.47-0.68-0.47-1.11v-0.16v-0.02
	c0-5.53,0-11.06,0-16.59c0-1.44,1.86-4.36,1.86-4.36c0.16-0.26,0.53-0.34,0.78-0.18c0.07,0.04,0.12,0.09,0.16,0.15l0,0
	c0,0.01,2.29,2.95,2.29,5.36v6.17c0,0.2-0.11,0.38-0.27,0.47L-262.57,481.57L-262.57,481.57z M-265.84,480.9c0.76,0,1.53,0,2.29,0
	l0.52-0.39v-5.9c0-1.39-0.96-3.07-1.58-4c-0.49,0.87-1.24,2.28-1.24,3.04V480.9L-265.84,480.9z M-244.97,471.06
	c-0.49-0.57-1.15-0.92-1.88-0.92c-0.72,0-1.38,0.36-1.87,0.92c-0.51,0.6-0.82,1.43-0.82,2.36c0,0.93,0.31,1.76,0.82,2.36
	c0.49,0.57,1.15,0.92,1.87,0.92c0.73,0,1.39-0.35,1.88-0.92l0,0l0,0c0.51-0.6,0.82-1.43,0.82-2.36c0-0.91-0.3-1.73-0.8-2.33
	L-244.97,471.06L-244.97,471.06z M-255.46,490.59c0.18-0.21,0.3-0.52,0.3-0.86l-0.45-6.95l0,0v-0.04v-0.03v-0.04
	c0-0.2-0.07-0.38-0.17-0.49c-0.09-0.1-0.2-0.16-0.31-0.16h-0.01h-0.01c-0.12,0-0.23,0.06-0.31,0.16c-0.11,0.12-0.18,0.3-0.18,0.49
	l0,0v0.04v0.08l-0.45,6.94v0c0,0.34,0.12,0.64,0.3,0.86c0.17,0.19,0.4,0.31,0.64,0.31C-255.85,490.89-255.62,490.77-255.46,490.59
	L-255.46,490.59z M-256.59,482.71v0.03V482.71L-256.59,482.71z M-246.21,490.59c0.19-0.21,0.31-0.52,0.31-0.86l-0.44-6.95l0,0v-0.04
	v-0.03v-0.03c0-0.2-0.07-0.38-0.18-0.49c-0.08-0.1-0.19-0.16-0.31-0.16h-0.01h-0.01c-0.11,0-0.22,0.06-0.3,0.16
	c-0.12,0.12-0.18,0.3-0.18,0.49h-0.01l0.01,0.04c0,0.02,0,0.05,0,0.08l-0.45,6.94v0c0,0.34,0.12,0.64,0.31,0.86
	c0.16,0.19,0.38,0.31,0.63,0.31C-246.6,490.89-246.37,490.77-246.21,490.59L-246.21,490.59z M-264.16,482.75h-0.92v7.4h0.92V482.75
	L-264.16,482.75z"/>
</svg>
