<?xml version="1.0" encoding="utf-8"?>
<!DOCTYPE svg PUBLIC "-//W3C//DTD SVG 1.1//EN" "http://www.w3.org/Graphics/SVG/1.1/DTD/svg11.dtd">
<svg version="1.1" baseProfile="full"
 xmlns="http://www.w3.org/2000/svg"
 xmlns:xlink="http://www.w3.org/1999/xlink"
 xmlns:ev="http://www.w3.org/2001/xml-events" 
  height="24px" 
  width="24px" 
>
<path fill="rgb( 97, 194, 232 )"
 d="M22.1590000000001,0.993 C22.1590000000001,0.993 12.4960000000001,0.993 12.4960000000001,0.993 C12.4960000000001,0.993 12.4659999999999,0.993 12.4659999999999,0.993 C12.2439999999999,0.993 12.009,1.096 11.8499999999999,1.25400000000002 C11.8499999999999,1.25400000000002 1.24900000000002,11.851 1.24900000000002,11.851 C1.24900000000002,11.851 1.2349999999999,11.869 1.2349999999999,11.869 C0.90100000000007,12.2 0.90100000000007,12.734 1.2349999999999,13.062 C1.2349999999999,13.062 10.9059999999999,22.731 10.9059999999999,22.731 C10.9059999999999,22.731 10.921,22.749 10.921,22.749 C11.252,23.079 11.79,23.079 12.1210000000001,22.749 C12.1210000000001,22.749 22.739,12.137 22.739,12.137 C22.9100000000001,11.974 23.0029999999999,11.756 23.0029999999999,11.521 C23.0029999999999,11.521 23.0029999999999,1.83699999999999 23.0029999999999,1.83699999999999 C23.0029999999999,1.36900000000003 22.625,0.993 22.1590000000001,0.993 C22.1590000000001,0.993 22.1590000000001,0.993 22.1590000000001,0.993 ZM21.308,11.172 C21.308,11.172 21.308,11.172 21.308,11.172 C21.308,11.172 11.5229999999999,20.953 11.5229999999999,20.953 C11.5229999999999,20.953 3.02600000000007,12.464 3.02600000000007,12.464 C3.02600000000007,12.464 12.8150000000001,2.68099999999998 12.8150000000001,2.68099999999998 C12.8150000000001,2.68099999999998 21.308,2.68099999999998 21.308,2.68099999999998 C21.308,2.68099999999998 21.308,11.172 21.308,11.172 C21.308,11.172 21.308,11.172 21.308,11.172 ZM17.675,8.85399999999999 C17.675,8.85399999999999 17.675,8.85399999999999 17.675,8.85399999999999 C19.066,8.85399999999999 20.211,7.71499999999998 20.211,6.31900000000002 C20.211,4.92500000000001 19.069,3.78399999999999 17.675,3.78399999999999 C16.277,3.78399999999999 15.135,4.92200000000003 15.135,6.31900000000002 C15.135,7.71199999999999 16.28,8.85399999999999 17.675,8.85399999999999 C17.675,8.85399999999999 17.675,8.85399999999999 17.675,8.85399999999999 ZM17.675,4.79899999999998 C17.675,4.79899999999998 17.675,4.79899999999998 17.675,4.79899999999998 C18.5129999999999,4.79899999999998 19.193,5.48000000000002 19.193,6.31900000000002 C19.193,7.154 18.51,7.83800000000002 17.675,7.83800000000002 C16.836,7.83800000000002 16.154,7.154 16.154,6.31900000000002 C16.154,5.48000000000002 16.836,4.79899999999998 17.675,4.79899999999998 C17.675,4.79899999999998 17.675,4.79899999999998 17.675,4.79899999999998 Z "/>
</svg>
