<?xml version="1.0" encoding="utf-8"?>
<!-- Generator: Adobe Illustrator 18.1.1, SVG Export Plug-In . SVG Version: 6.00 Build 0)  -->
<svg version="1.1" id="Слой_1" xmlns:ev="http://www.w3.org/2001/xml-events"
	 xmlns="http://www.w3.org/2000/svg" xmlns:xlink="http://www.w3.org/1999/xlink" x="0px" y="0px" width="22.02px" height="22px"
	 viewBox="-266.02 469.99 22.02 22" enable-background="new -266.02 469.99 22.02 22" xml:space="preserve">
<path fill="#FFFFFF" d="M-244.84,469.99h-9.66h-0.03c-0.22,0-0.46,0.1-0.62,0.26l-10.6,10.6l-0.01,0.02c-0.33,0.33-0.33,0.86,0,1.19
	l9.67,9.67l0.01,0.02c0.33,0.33,0.87,0.33,1.2,0l10.62-10.61c0.17-0.16,0.26-0.38,0.26-0.62v-9.68
	C-244,470.37-244.38,469.99-244.84,469.99L-244.84,469.99z M-245.69,480.17L-245.69,480.17l-9.79,9.78l-8.5-8.49l9.79-9.78h8.49
	V480.17L-245.69,480.17z M-249.32,477.85L-249.32,477.85c1.39,0,2.54-1.14,2.54-2.54c0-1.39-1.14-2.54-2.54-2.54
	c-1.4,0-2.54,1.14-2.54,2.54C-251.87,476.71-250.72,477.85-249.32,477.85L-249.32,477.85z M-249.32,473.8L-249.32,473.8
	c0.84,0,1.52,0.68,1.52,1.52c0,0.84-0.68,1.52-1.52,1.52c-0.84,0-1.52-0.68-1.52-1.52C-250.85,474.48-250.16,473.8-249.32,473.8
	L-249.32,473.8z"/>
</svg>
