<?xml version="1.0" encoding="utf-8"?>
<!-- Generator: Adobe Illustrator 18.1.1, SVG Export Plug-In . SVG Version: 6.00 Build 0)  -->
<svg version="1.1" id="Слой_1" xmlns:ev="http://www.w3.org/2001/xml-events"
	 xmlns="http://www.w3.org/2000/svg" xmlns:xlink="http://www.w3.org/1999/xlink" x="0px" y="0px" width="26px" height="20px"
	 viewBox="-266 471 26 20" enable-background="new -266 471 26 20" xml:space="preserve">
<path fill="#FFFFFF" d="M-254.6,480.82l0.13,0.13c0.64,0.62,1.51,0.97,2.41,0.97c0.33,0,0.59-0.26,0.59-0.57
	c0-0.32-0.26-0.57-0.59-0.57c-0.6,0-1.16-0.22-1.58-0.64c-0.15-0.14-0.28-0.3-0.37-0.47h3.75v1.71c0,0.38-0.16,0.73-0.41,0.97l0,0
	c-0.25,0.26-0.6,0.4-0.99,0.4h-3.44L-254.6,480.82L-254.6,480.82z M-242.11,471.96c0-0.52-0.44-0.95-0.98-0.95
	c-0.53,0-0.97,0.42-0.97,0.95v0.23h-5.79c-0.54,0-0.98,0.42-0.98,0.94v0.03v0.27h-3.44v-0.3c0-0.52-0.44-0.94-0.98-0.94h-0.02h-6.02
	c-0.4,0-0.75,0.23-0.89,0.57h-2.24c-0.32,0-0.58,0.25-0.58,0.56c0,0.08,0.01,0.15,0.04,0.22l1.17,3.71
	c0.01,0.05,0.03,0.09,0.06,0.15c-0.01,0.73,0.33,1.36,0.66,1.99l0.03,0.05c0.21,0.37,0.4,0.73,0.36,0.95
	c-0.66,1.82-2.26,7.14-2.26,7.16c-0.15,0.5,0.14,1.03,0.66,1.18c0.06,0.02,0.11,0.03,0.16,0.03l6.19,1.26
	c0.51,0.09,0.99-0.22,1.11-0.7h0.01l1.4-5.4h3.73c0.71,0,1.35-0.28,1.82-0.74l0,0c0.47-0.46,0.76-1.09,0.76-1.78v-1.71h4.09
	c0.3,0,0.55-0.12,0.74-0.32l1.67-1.63h1.6c0.54,0,0.98-0.43,0.98-0.95v-0.02v-3.63c0-0.52-0.44-0.94-0.98-0.94h-0.02h-1.1V471.96
	L-242.11,471.96z M-262.58,473.89l-0.55,1.54l-0.49-1.54H-262.58L-262.58,473.89z M-248.89,474.08c2.31,0,4.62,0,6.93,0v1.76h-1.03
	l0,0c-0.24,0-0.49,0.09-0.68,0.27l-1.72,1.68h-9.67l0,0c-0.44,0-0.83,0.29-0.95,0.72l-2.46,9.49l-4.28-0.93
	c0.49-1.63,1.47-4.79,1.95-6.09l0,0l0.02-0.08c0.26-0.91-0.12-1.62-0.51-2.35l-0.02-0.05c-0.26-0.48-0.54-0.98-0.37-1.33l0.03-0.07
	l1.08-3.01h4.39c0.12,0.71,0.76,1.24,1.51,1.24h4.29C-249.65,475.32-249.01,474.78-248.89,474.08L-248.89,474.08z"/>
</svg>
