<?xml version="1.0" encoding="utf-8"?>
<!DOCTYPE svg PUBLIC "-//W3C//DTD SVG 1.1//EN" "http://www.w3.org/Graphics/SVG/1.1/DTD/svg11.dtd">
<svg version="1.1" baseProfile="full"
 xmlns="http://www.w3.org/2000/svg"
 xmlns:xlink="http://www.w3.org/1999/xlink"
 xmlns:ev="http://www.w3.org/2001/xml-events" 
  height="25px" 
  width="15px" 
>
<path fill="rgb( 47, 90, 113 )"
 d="M0,0 C0,0 15,0 15,0 C15,0 15,25 15,25 C15,25 0,25 0,25 C0,25 0,0 0,0 Z "/>
<path fill="rgb( 255, 255, 255 )"
 d="M10.726,10.773 C10.395,11.114 9.85900000000001,11.114 9.52799999999999,10.773 C9.52799999999999,10.773 6.99100000000001,8.157 6.99100000000001,8.157 C6.99100000000001,8.157 4.43700000000001,10.791 4.43700000000001,10.791 C4.10599999999999,11.132 3.56999999999999,11.132 3.239,10.791 C2.90799999999999,10.45 2.90799999999999,9.897 3.239,9.557 C3.239,9.557 6.14400000000001,6.562 6.14400000000001,6.562 C6.185,6.447 6.24600000000001,6.339 6.33500000000001,6.246 C6.52500000000001,6.051 6.78,5.981 7.02799999999999,6.01 C7.24600000000001,6.009 7.464,6.093 7.63,6.265 C7.69999999999999,6.337 7.74700000000001,6.422 7.78700000000001,6.509 C7.78700000000001,6.509 10.726,9.538 10.726,9.538 C11.057,9.879 11.057,10.432 10.726,10.773 Z "/>
<path fill="rgb( 255, 255, 255 )"
 d="M10.736,17.421 C10.736,17.421 7.83099999999999,20.415 7.83099999999999,20.415 C7.78999999999999,20.53 7.72900000000001,20.639 7.63999999999999,20.731 C7.44999999999999,20.927 7.19499999999999,20.997 6.947,20.968 C6.72900000000001,20.969 6.511,20.884 6.345,20.713 C6.27500000000001,20.641 6.22800000000001,20.555 6.18799999999999,20.468 C6.18799999999999,20.468 3.249,17.439 3.249,17.439 C2.91800000000001,17.098 2.91800000000001,16.545 3.249,16.205 C3.58000000000001,15.864 4.11600000000001,15.864 4.447,16.205 C4.447,16.205 6.98400000000001,18.82 6.98400000000001,18.82 C6.98400000000001,18.82 9.53899999999999,16.186 9.53899999999999,16.186 C9.869,15.846 10.405,15.846 10.736,16.186 C11.067,16.527 11.067,17.08 10.736,17.421 Z "/>
</svg>
