<svg baseProfile="full" xmlns="http://www.w3.org/2000/svg" height="27" width="26"><path fill="rgb( 93, 193, 232 )" d="M13.436 7.568c3.25 0 5.938 2.691 5.938 5.949 0 3.257-2.688 5.935-5.938 5.935-3.259 0-5.946-2.678-5.946-5.935 0-3.271 2.67-5.949 5.946-5.949zm3.104-3.907c.286.096.57.192.843.315.281.109.553.239.82.376l1.202-1.202c.372-.376.983-.376 1.359-.007l.003.007.014.013 3.019 3.026c.372.369.372.983-.003 1.352l-1.203 1.202c.141.273.267.54.383.82.116.273.219.56.311.846h1.7c.53 0 .96.431.96.963v.089l-.003 4.201c0 .525-.431.956-.96.956v.007h-1.7c-.089.286-.195.559-.308.847-.116.272-.242.546-.383.818l1.203 1.203c.375.369.375.977.003 1.352h-.003l-.014.02-3.023 3.013c-.375.382-.983.375-1.355 0l-1.202-1.203c-.263.144-.537.274-.816.383l-.048.02c-.263.103-.53.205-.799.287v1.701c0 .533-.434.97-.963.97l-.086-.014h-4.204c-.529 0-.96-.423-.96-.956h-.003v-1.701c-.287-.089-.567-.198-.844-.307h-.006c-.277-.109-.547-.246-.813-.383l-1.202 1.203c-.376.375-.984.382-1.36 0h-.003l-.013-.015-3.019-3.018c-.376-.375-.376-.983.003-1.359l1.202-1.196c-.14-.272-.27-.546-.386-.818-.113-.281-.215-.561-.307-.847h-1.701c-.532 0-.963-.438-.963-.97l.003-.082.004-4.207c0-.52.427-.957.96-.957h1.7c.093-.286.195-.573.311-.846.113-.28.243-.554.379-.82l-1.202-1.202c-.379-.369-.379-.983-.003-1.359l.003-.007.014-.013 3.018-3.019c.376-.369.984-.369 1.36.007l1.202 1.202c.533-.281 1.089-.506 1.663-.691v-1.707c0-.526.431-.956.963-.956h4.29c.529 0 .963.43.963.956v1.707zm.106 2.084c-.397-.171-.816-.301-1.247-.403-.447-.082-.786-.478-.786-.943v-1.475h-2.363v1.475c0 .43-.304.834-.744.929-.885.205-1.728.56-2.496 1.038h-.004c-.373.233-.868.192-1.185-.137l-1.042-1.044-1.676 1.673 1.007 1.011c.341.3.423.819.174 1.215-.239.39-.448.8-.622 1.216-.163.396-.3.82-.406 1.25-.082.444-.474.786-.946.786h-1.475v2.363h1.475c.437 0 .833.3.936.744.106.444.246.881.413 1.284.175.417.386.826.625 1.209.229.376.181.874-.143 1.188l-1.038 1.045 1.676 1.673 1.005-1.011c.307-.341.822-.416 1.222-.17.383.239.789.451 1.209.621.393.164.812.3 1.246.41.451.082.789.471.789.942v1.476h2.363v-1.476h.004c0-.437.297-.833.741-.936.434-.102.847-.238 1.24-.388l.051-.028c.42-.17.823-.382 1.209-.615.372-.232.864-.191 1.188.137l1.042 1.038 1.673-1.673-1.01-1.004c-.339-.314-.417-.826-.168-1.229.236-.383.444-.785.618-1.202.164-.397.304-.82.406-1.25.082-.444.475-.785.943-.785h1.479v-2.363h-1.475c-.437 0-.834-.301-.936-.752-.106-.437-.246-.874-.417-1.284-.171-.409-.372-.812-.601-1.182-.253-.375-.212-.887.12-1.222l1.041-1.038-1.673-1.673-1.011 1.01c-.304.335-.82.417-1.223.171-.382-.232-.788-.45-1.208-.621zm-3.21 2.985c-2.641 0-4.792 2.151-4.792 4.787 0 2.629 2.162 4.787 4.792 4.787 2.619 0 4.781-2.165 4.781-4.787 0-2.63-2.159-4.787-4.781-4.787z"/></svg>