<?xml version="1.0" encoding="utf-8"?>
<!-- Generator: Adobe Illustrator 18.1.1, SVG Export Plug-In . SVG Version: 6.00 Build 0)  -->
<svg version="1.1" id="Слой_1" xmlns="http://www.w3.org/2000/svg" xmlns:xlink="http://www.w3.org/1999/xlink" x="0px" y="0px"
	 width="545.71px" height="96.56px" viewBox="-84.03 1205.94 545.71 96.56" enable-background="new -84.03 1205.94 545.71 96.56"
	 xml:space="preserve">
<path fill="#90C53B" d="M-84.03,1302.53c52.36-69.57,137.88-59.92,204.79-53.52c56.18,5.38,123.34,32.65,193.73,31.42
	c99.48-1.75,144.86,18.62,147.19,24.44"/>
<path fill="#70992E" d="M49.78,1250.75c26.99,0,48.87,5.6,48.87,12.51c0,6.91-21.88,12.51-48.87,12.51
	c-26.99,0-48.87-5.6-48.87-12.51C0.91,1256.35,22.79,1250.75,49.78,1250.75z M219.66,1260.64h1.75v32.58h-1.75V1260.64z
	 M270.85,1272.85h1.16v24.44h-1.16V1272.85z M247.58,1236.78h1.16v45.96h-1.16V1236.78z"/>
<path fill="#90C53B" d="M220.24,1242.02c1.61,0,2.91,1.3,2.91,2.91c0,1.61-1.3,2.91-2.91,2.91c-1.61,0-2.91-1.3-2.91-2.91
	C217.33,1243.32,218.63,1242.02,220.24,1242.02z"/>
<path fill="#5DC1E8" d="M228.96,1247.84c-1.61,0-2.91-1.3-2.91-2.91c0-1.61,1.3-2.91,2.91-2.91c1.61,0,2.91,1.3,2.91,2.91
	C231.87,1246.54,230.57,1247.84,228.96,1247.84z M226.06,1242.02c-1.61,0-2.91-1.3-2.91-2.91s1.3-2.91,2.91-2.91
	c1.61,0,2.91,1.3,2.91,2.91S227.66,1242.02,226.06,1242.02z M220.24,1239.11c-1.61,0-2.91-1.3-2.91-2.91s1.3-2.91,2.91-2.91
	c1.61,0,2.91,1.3,2.91,2.91C223.15,1237.81,221.84,1239.11,220.24,1239.11z M214.42,1242.02c-1.61,0-2.91-1.3-2.91-2.91
	s1.3-2.91,2.91-2.91c1.61,0,2.91,1.3,2.91,2.91S216.02,1242.02,214.42,1242.02z M214.42,1244.93c0,1.61-1.3,2.91-2.91,2.91
	c-1.61,0-2.91-1.3-2.91-2.91c0-1.61,1.3-2.91,2.91-2.91C213.12,1242.02,214.42,1243.32,214.42,1244.93z M214.42,1247.84
	c1.61,0,2.91,1.3,2.91,2.91s-1.3,2.91-2.91,2.91c-1.61,0-2.91-1.3-2.91-2.91S212.81,1247.84,214.42,1247.84z M220.24,1250.75
	c1.61,0,2.91,1.3,2.91,2.91s-1.3,2.91-2.91,2.91c-1.61,0-2.91-1.3-2.91-2.91S218.63,1250.75,220.24,1250.75z M226.06,1247.84
	c1.61,0,2.91,1.3,2.91,2.91s-1.3,2.91-2.91,2.91c-1.61,0-2.91-1.3-2.91-2.91S224.45,1247.84,226.06,1247.84z"/>
<path fill="#70992E" d="M137.63,1247.84h1.75v32.58h-1.75V1247.84z"/>
<path fill="#90C53B" d="M138.21,1229.22c1.61,0,2.91,1.3,2.91,2.91s-1.3,2.91-2.91,2.91c-1.61,0-2.91-1.3-2.91-2.91
	S136.6,1229.22,138.21,1229.22z"/>
<path fill="#5DC1E8" d="M146.93,1235.04c-1.61,0-2.91-1.3-2.91-2.91s1.3-2.91,2.91-2.91c1.61,0,2.91,1.3,2.91,2.91
	S148.54,1235.04,146.93,1235.04z M144.02,1229.22c-1.61,0-2.91-1.3-2.91-2.91s1.3-2.91,2.91-2.91c1.61,0,2.91,1.3,2.91,2.91
	S145.63,1229.22,144.02,1229.22z M138.21,1226.31c-1.61,0-2.91-1.3-2.91-2.91s1.3-2.91,2.91-2.91c1.61,0,2.91,1.3,2.91,2.91
	S139.81,1226.31,138.21,1226.31z M132.39,1229.22c-1.61,0-2.91-1.3-2.91-2.91s1.3-2.91,2.91-2.91c1.61,0,2.91,1.3,2.91,2.91
	S133.99,1229.22,132.39,1229.22z M132.39,1232.13c0,1.61-1.3,2.91-2.91,2.91c-1.61,0-2.91-1.3-2.91-2.91s1.3-2.91,2.91-2.91
	C131.09,1229.22,132.39,1230.52,132.39,1232.13z M132.39,1235.04c1.61,0,2.91,1.3,2.91,2.91s-1.3,2.91-2.91,2.91
	c-1.61,0-2.91-1.3-2.91-2.91S130.78,1235.04,132.39,1235.04z M138.21,1237.95c1.61,0,2.91,1.3,2.91,2.91s-1.3,2.91-2.91,2.91
	c-1.61,0-2.91-1.3-2.91-2.91S136.6,1237.95,138.21,1237.95z M144.02,1235.04c1.61,0,2.91,1.3,2.91,2.91s-1.3,2.91-2.91,2.91
	c-1.61,0-2.91-1.3-2.91-2.91S142.42,1235.04,144.02,1235.04z"/>
<path fill="#70992E" d="M271.73,1259.55c1.08,0,1.97,0.88,1.97,1.97c0,1.09-0.88,1.97-1.97,1.97c-1.09,0-1.97-0.88-1.97-1.97
	C269.76,1260.43,270.64,1259.55,271.73,1259.55z"/>
<path fill="#EF5155" d="M277.62,1263.48c-1.08,0-1.97-0.88-1.97-1.97c0-1.09,0.88-1.97,1.97-1.97s1.97,0.88,1.97,1.97
	S278.7,1263.48,277.62,1263.48z M275.65,1259.55c-1.08,0-1.97-0.88-1.97-1.97c0-1.09,0.88-1.97,1.97-1.97
	c1.09,0,1.97,0.88,1.97,1.97S276.73,1259.55,275.65,1259.55z M271.73,1257.58c-1.08,0-1.97-0.88-1.97-1.97s0.88-1.97,1.97-1.97
	c1.09,0,1.97,0.88,1.97,1.97S272.81,1257.58,271.73,1257.58z M267.8,1259.55c-1.08,0-1.97-0.88-1.97-1.97
	c0-1.09,0.88-1.97,1.97-1.97c1.09,0,1.97,0.88,1.97,1.97S268.88,1259.55,267.8,1259.55z M267.8,1261.51c0,1.08-0.88,1.97-1.97,1.97
	c-1.09,0-1.97-0.88-1.97-1.97c0-1.09,0.88-1.97,1.97-1.97C266.92,1259.54,267.8,1260.43,267.8,1261.51z M267.8,1263.48
	c1.08,0,1.97,0.88,1.97,1.97c0,1.09-0.88,1.97-1.97,1.97c-1.09,0-1.97-0.88-1.97-1.97S266.72,1263.48,267.8,1263.48z
	 M271.73,1265.44c1.08,0,1.97,0.88,1.97,1.97s-0.88,1.97-1.97,1.97c-1.09,0-1.97-0.88-1.97-1.97S270.64,1265.44,271.73,1265.44z
	 M275.65,1263.48c1.08,0,1.97,0.88,1.97,1.97c0,1.09-0.88,1.97-1.97,1.97c-1.09,0-1.97-0.88-1.97-1.97
	C273.69,1264.35,274.57,1263.48,275.65,1263.48z"/>
<path fill="#70992E" d="M174.86,1225.15h1.16v41.31h-1.16V1225.15z M175.73,1211.84c1.08,0,1.97,0.88,1.97,1.97
	s-0.88,1.97-1.97,1.97s-1.97-0.88-1.97-1.97S174.65,1211.84,175.73,1211.84z"/>
<path fill="#EF5155" d="M181.62,1215.77c-1.08,0-1.97-0.88-1.97-1.97s0.88-1.97,1.97-1.97c1.09,0,1.97,0.88,1.97,1.97
	S182.71,1215.77,181.62,1215.77z M179.66,1211.84c-1.08,0-1.97-0.88-1.97-1.97s0.88-1.97,1.97-1.97c1.09,0,1.97,0.88,1.97,1.97
	S180.74,1211.84,179.66,1211.84z M175.73,1209.88c-1.08,0-1.97-0.88-1.97-1.97c0-1.09,0.88-1.97,1.97-1.97
	c1.09,0,1.97,0.88,1.97,1.97S176.81,1209.88,175.73,1209.88z M171.8,1211.84c-1.08,0-1.97-0.88-1.97-1.97s0.88-1.97,1.97-1.97
	s1.97,0.88,1.97,1.97S172.89,1211.84,171.8,1211.84z M171.8,1213.8c0,1.08-0.88,1.97-1.97,1.97c-1.09,0-1.97-0.88-1.97-1.97
	s0.88-1.97,1.97-1.97C170.93,1211.84,171.8,1212.72,171.8,1213.8z M171.8,1215.77c1.08,0,1.97,0.88,1.97,1.97s-0.88,1.97-1.97,1.97
	c-1.09,0-1.97-0.88-1.97-1.97S170.72,1215.77,171.8,1215.77z M175.73,1217.73c1.08,0,1.97,0.88,1.97,1.97
	c0,1.09-0.88,1.97-1.97,1.97s-1.97-0.88-1.97-1.97C173.76,1218.61,174.65,1217.73,175.73,1217.73z M179.66,1215.77
	c1.08,0,1.97,0.88,1.97,1.97s-0.88,1.97-1.97,1.97c-1.09,0-1.97-0.88-1.97-1.97S178.58,1215.77,179.66,1215.77z"/>
<path fill="#5DC1E8" d="M248.16,1218.75c1.29,0,2.33,1.04,2.33,2.33c0,1.29-1.04,2.33-2.33,2.33s-2.33-1.04-2.33-2.33
	C245.84,1219.79,246.88,1218.75,248.16,1218.75z"/>
<path fill="#FB8E19" d="M255.14,1223.4c-1.29,0-2.33-1.04-2.33-2.33c0-1.29,1.04-2.33,2.33-2.33c1.29,0,2.33,1.04,2.33,2.33
	C257.47,1222.36,256.43,1223.4,255.14,1223.4z M252.82,1218.75c-1.29,0-2.33-1.04-2.33-2.33c0-1.29,1.04-2.33,2.33-2.33
	c1.29,0,2.33,1.04,2.33,2.33C255.14,1217.71,254.1,1218.75,252.82,1218.75z M248.16,1216.42c-1.29,0-2.33-1.04-2.33-2.33
	c0-1.29,1.04-2.33,2.33-2.33s2.33,1.04,2.33,2.33C250.49,1215.38,249.45,1216.42,248.16,1216.42z M243.51,1218.75
	c-1.29,0-2.33-1.04-2.33-2.33c0-1.29,1.04-2.33,2.33-2.33s2.33,1.04,2.33,2.33C245.84,1217.71,244.79,1218.75,243.51,1218.75z
	 M243.51,1221.08c0,1.29-1.04,2.33-2.33,2.33c-1.29,0-2.33-1.04-2.33-2.33c0-1.29,1.04-2.33,2.33-2.33
	C242.47,1218.75,243.51,1219.79,243.51,1221.08z M243.51,1223.4c1.29,0,2.33,1.04,2.33,2.33s-1.04,2.33-2.33,2.33
	s-2.33-1.04-2.33-2.33S242.22,1223.4,243.51,1223.4z M248.16,1225.73c1.29,0,2.33,1.04,2.33,2.33c0,1.29-1.04,2.33-2.33,2.33
	s-2.33-1.04-2.33-2.33C245.84,1226.77,246.88,1225.73,248.16,1225.73z M252.82,1223.4c1.29,0,2.33,1.04,2.33,2.33
	s-1.04,2.33-2.33,2.33c-1.29,0-2.33-1.04-2.33-2.33S251.53,1223.4,252.82,1223.4z"/>
<path fill="#70992E" d="M308.67,1261.22h0.58v32.58h-0.58V1261.22z M352.88,1274.6h0.58v9.89h-0.58V1274.6z"/>
<path fill="#FB8E19" d="M308.96,1249.37c0.92,0,1.68,0.75,1.68,1.68c0,0.92-0.75,1.68-1.68,1.68c-0.92,0-1.68-0.75-1.68-1.68
	C307.28,1250.12,308.03,1249.37,308.96,1249.37z"/>
<path fill="#5DC1E8" d="M313.98,1252.71c-0.92,0-1.68-0.75-1.68-1.68c0-0.92,0.75-1.68,1.68-1.68c0.92,0,1.68,0.75,1.68,1.68
	C315.65,1251.96,314.9,1252.71,313.98,1252.71z M312.3,1249.37c-0.92,0-1.68-0.75-1.68-1.68s0.75-1.68,1.68-1.68
	s1.68,0.75,1.68,1.68S313.23,1249.37,312.3,1249.37z M308.96,1247.69c-0.92,0-1.68-0.75-1.68-1.68c0-0.92,0.75-1.68,1.68-1.68
	c0.92,0,1.68,0.75,1.68,1.68C310.63,1246.94,309.88,1247.69,308.96,1247.69z M305.61,1249.37c-0.92,0-1.68-0.75-1.68-1.68
	s0.75-1.68,1.68-1.68c0.92,0,1.68,0.75,1.68,1.68S306.54,1249.37,305.61,1249.37z M305.61,1251.04c0,0.92-0.75,1.68-1.68,1.68
	s-1.68-0.75-1.68-1.68c0-0.92,0.75-1.68,1.68-1.68S305.61,1250.11,305.61,1251.04z M305.61,1252.71c0.92,0,1.68,0.75,1.68,1.68
	s-0.75,1.68-1.68,1.68c-0.92,0-1.68-0.75-1.68-1.68C303.94,1253.46,304.69,1252.71,305.61,1252.71z M308.96,1254.38
	c0.92,0,1.68,0.75,1.68,1.68c0,0.92-0.75,1.68-1.68,1.68c-0.92,0-1.68-0.75-1.68-1.68C307.28,1255.13,308.03,1254.38,308.96,1254.38
	z M312.3,1252.71c0.92,0,1.68,0.75,1.68,1.68s-0.75,1.68-1.68,1.68s-1.68-0.75-1.68-1.68S311.38,1252.71,312.3,1252.71z
	 M353.46,1266.46c0.64,0,1.16,0.52,1.16,1.16c0,0.65-0.52,1.16-1.16,1.16c-0.64,0-1.16-0.52-1.16-1.16
	C352.3,1266.97,352.82,1266.46,353.46,1266.46z"/>
<path fill="#EF5155" d="M356.95,1268.78c-0.64,0-1.16-0.52-1.16-1.16c0-0.65,0.52-1.16,1.16-1.16c0.64,0,1.16,0.52,1.16,1.16
	C358.12,1268.27,357.59,1268.78,356.95,1268.78z M355.79,1266.46c-0.64,0-1.16-0.52-1.16-1.16s0.52-1.16,1.16-1.16
	c0.64,0,1.16,0.52,1.16,1.16S356.43,1266.46,355.79,1266.46z M353.46,1265.29c-0.64,0-1.16-0.52-1.16-1.16
	c0-0.65,0.52-1.16,1.16-1.16c0.64,0,1.16,0.52,1.16,1.16C354.63,1264.77,354.1,1265.29,353.46,1265.29z M351.14,1266.46
	c-0.64,0-1.16-0.52-1.16-1.16s0.52-1.16,1.16-1.16c0.64,0,1.16,0.52,1.16,1.16S351.78,1266.46,351.14,1266.46z M351.14,1267.62
	c0,0.65-0.52,1.16-1.16,1.16c-0.64,0-1.16-0.52-1.16-1.16c0-0.65,0.52-1.16,1.16-1.16C350.61,1266.46,351.14,1266.97,351.14,1267.62
	z M351.14,1268.78c0.64,0,1.16,0.52,1.16,1.16s-0.52,1.16-1.16,1.16c-0.64,0-1.16-0.52-1.16-1.16S350.5,1268.78,351.14,1268.78z
	 M353.46,1269.95c0.64,0,1.16,0.52,1.16,1.16c0,0.65-0.52,1.16-1.16,1.16c-0.64,0-1.16-0.52-1.16-1.16
	C352.3,1270.46,352.82,1269.95,353.46,1269.95z M355.79,1268.78c0.64,0,1.16,0.52,1.16,1.16s-0.52,1.16-1.16,1.16
	c-0.64,0-1.16-0.52-1.16-1.16S355.15,1268.78,355.79,1268.78z"/>
</svg>
