<svg baseProfile="full" xmlns="http://www.w3.org/2000/svg" height="170" width="938"><path fill="rgb( 144, 197, 59 )" d="M0 166c90-119.594 237-103 352-92 96.564 9.237 212.014 56.123 333 54 171-3 249 32 253 42"/><path fill="rgb( 112, 153, 46 )" d="M230 77c46.392 0 84 9.626 84 21.5s-37.608 21.5-84 21.5-84-9.626-84-21.5 37.608-21.5 84-21.5zM522 94h3v56h-3v-56zM610 115h2v42h-2v-42zM570 53h2v79h-2v-79z"/><path fill="rgb( 144, 197, 59 )" d="M523 62c2.761 0 5 2.239 5 5s-2.239 5-5 5c-2.762 0-5-2.239-5-5s2.238-5 5-5z"/><path fill="rgb( 93, 193, 232 )" d="M538 72c-2.762 0-5-2.239-5-5s2.238-5 5-5c2.761 0 5 2.239 5 5s-2.239 5-5 5zm-5-10c-2.762 0-5-2.239-5-5s2.238-5 5-5c2.761 0 5 2.239 5 5s-2.239 5-5 5zm-10-5c-2.762 0-5-2.239-5-5s2.238-5 5-5c2.761 0 5 2.239 5 5s-2.239 5-5 5zm-10 5c-2.762 0-5-2.239-5-5s2.238-5 5-5c2.761 0 5 2.239 5 5s-2.239 5-5 5zm0 5c0 2.761-2.239 5-5 5s-5-2.239-5-5 2.239-5 5-5 5 2.239 5 5zm0 5c2.761 0 5 2.239 5 5s-2.239 5-5 5c-2.762 0-5-2.239-5-5s2.238-5 5-5zm10 5c2.761 0 5 2.239 5 5s-2.239 5-5 5c-2.762 0-5-2.239-5-5s2.238-5 5-5zm10-5c2.761 0 5 2.239 5 5s-2.239 5-5 5c-2.762 0-5-2.239-5-5s2.238-5 5-5z"/><path fill="rgb( 112, 153, 46 )" d="M381 72h3v56h-3v-56z"/><path fill="rgb( 144, 197, 59 )" d="M382 40c2.761 0 5 2.239 5 5s-2.239 5-5 5-5-2.239-5-5 2.239-5 5-5z"/><path fill="rgb( 93, 193, 232 )" d="M397 50c-2.761 0-5-2.239-5-5s2.239-5 5-5 5 2.239 5 5-2.239 5-5 5zm-5-10c-2.761 0-5-2.239-5-5s2.239-5 5-5 5 2.239 5 5-2.239 5-5 5zm-10-5c-2.761 0-5-2.239-5-5s2.239-5 5-5 5 2.239 5 5-2.239 5-5 5zm-10 5c-2.762 0-5-2.239-5-5s2.238-5 5-5c2.761 0 5 2.239 5 5s-2.239 5-5 5zm0 5c0 2.761-2.239 5-5 5-2.762 0-5-2.239-5-5s2.238-5 5-5c2.761 0 5 2.239 5 5zm0 5c2.761 0 5 2.239 5 5s-2.239 5-5 5c-2.762 0-5-2.239-5-5s2.238-5 5-5zm10 5c2.761 0 5 2.239 5 5s-2.239 5-5 5-5-2.239-5-5 2.239-5 5-5zm10-5c2.761 0 5 2.239 5 5s-2.239 5-5 5-5-2.239-5-5 2.239-5 5-5z"/><path fill="rgb( 112, 153, 46 )" d="M611.5 92.125c1.864 0 3.375 1.511 3.375 3.375s-1.511 3.375-3.375 3.375-3.375-1.511-3.375-3.375 1.511-3.375 3.375-3.375z"/><path fill="rgb( 239, 81, 85 )" d="M621.625 98.875c-1.864 0-3.375-1.511-3.375-3.375s1.511-3.375 3.375-3.375 3.375 1.511 3.375 3.375-1.511 3.375-3.375 3.375zm-3.375-6.75c-1.864 0-3.375-1.511-3.375-3.375s1.511-3.375 3.375-3.375 3.375 1.511 3.375 3.375-1.511 3.375-3.375 3.375zm-6.75-3.375c-1.864 0-3.375-1.511-3.375-3.375s1.511-3.375 3.375-3.375 3.375 1.511 3.375 3.375-1.511 3.375-3.375 3.375zm-6.75 3.375c-1.864 0-3.375-1.511-3.375-3.375s1.511-3.375 3.375-3.375 3.375 1.511 3.375 3.375-1.511 3.375-3.375 3.375zm0 3.375c0 1.864-1.511 3.375-3.375 3.375s-3.375-1.511-3.375-3.375 1.511-3.375 3.375-3.375 3.375 1.511 3.375 3.375zm0 3.375c1.864 0 3.375 1.511 3.375 3.375s-1.511 3.375-3.375 3.375-3.375-1.511-3.375-3.375 1.511-3.375 3.375-3.375zm6.75 3.375c1.864 0 3.375 1.511 3.375 3.375s-1.511 3.375-3.375 3.375-3.375-1.511-3.375-3.375 1.511-3.375 3.375-3.375zm6.75-3.375c1.864 0 3.375 1.511 3.375 3.375s-1.511 3.375-3.375 3.375-3.375-1.511-3.375-3.375 1.511-3.375 3.375-3.375z"/><path fill="rgb( 112, 153, 46 )" d="M445 33h2v71h-2v-71zM446.5 10.125c1.864 0 3.375 1.511 3.375 3.375s-1.511 3.375-3.375 3.375-3.375-1.511-3.375-3.375 1.511-3.375 3.375-3.375z"/><path fill="rgb( 239, 81, 85 )" d="M456.625 16.875c-1.864 0-3.375-1.511-3.375-3.375s1.511-3.375 3.375-3.375 3.375 1.511 3.375 3.375-1.511 3.375-3.375 3.375zm-3.375-6.75c-1.864 0-3.375-1.511-3.375-3.375s1.511-3.375 3.375-3.375 3.375 1.511 3.375 3.375-1.511 3.375-3.375 3.375zm-6.75-3.375c-1.864 0-3.375-1.511-3.375-3.375s1.511-3.375 3.375-3.375 3.375 1.511 3.375 3.375-1.511 3.375-3.375 3.375zm-6.75 3.375c-1.864 0-3.375-1.511-3.375-3.375s1.511-3.375 3.375-3.375 3.375 1.511 3.375 3.375-1.511 3.375-3.375 3.375zm0 3.375c0 1.864-1.511 3.375-3.375 3.375s-3.375-1.511-3.375-3.375 1.511-3.375 3.375-3.375 3.375 1.511 3.375 3.375zm0 3.375c1.864 0 3.375 1.511 3.375 3.375s-1.511 3.375-3.375 3.375-3.375-1.511-3.375-3.375 1.511-3.375 3.375-3.375zm6.75 3.375c1.864 0 3.375 1.511 3.375 3.375s-1.511 3.375-3.375 3.375-3.375-1.511-3.375-3.375 1.511-3.375 3.375-3.375zm6.75-3.375c1.864 0 3.375 1.511 3.375 3.375s-1.511 3.375-3.375 3.375-3.375-1.511-3.375-3.375 1.511-3.375 3.375-3.375z"/><path fill="rgb( 93, 193, 232 )" d="M571 22c2.209 0 4 1.791 4 4s-1.791 4-4 4-4-1.791-4-4 1.791-4 4-4z"/><path fill="rgb( 251, 142, 25 )" d="M583 30c-2.209 0-4-1.791-4-4s1.791-4 4-4 4 1.791 4 4-1.791 4-4 4zm-4-8c-2.209 0-4-1.791-4-4s1.791-4 4-4 4 1.791 4 4-1.791 4-4 4zm-8-4c-2.209 0-4-1.791-4-4s1.791-4 4-4 4 1.791 4 4-1.791 4-4 4zm-8 4c-2.209 0-4-1.791-4-4s1.791-4 4-4 4 1.791 4 4-1.791 4-4 4zm0 4c0 2.209-1.791 4-4 4s-4-1.791-4-4 1.791-4 4-4 4 1.791 4 4zm0 4c2.209 0 4 1.791 4 4s-1.791 4-4 4-4-1.791-4-4 1.791-4 4-4zm8 4c2.209 0 4 1.791 4 4s-1.791 4-4 4-4-1.791-4-4 1.791-4 4-4zm8-4c2.209 0 4 1.791 4 4s-1.791 4-4 4-4-1.791-4-4 1.791-4 4-4z"/><path fill="rgb( 112, 153, 46 )" d="M675 95h1v56h-1v-56zM751 118h1v17h-1v-17z"/><path fill="rgb( 251, 142, 25 )" d="M675.5 74.625c1.588 0 2.875 1.287 2.875 2.875s-1.287 2.875-2.875 2.875-2.875-1.287-2.875-2.875 1.287-2.875 2.875-2.875z"/><path fill="rgb( 93, 193, 232 )" d="M684.125 80.375c-1.588 0-2.875-1.287-2.875-2.875s1.287-2.875 2.875-2.875 2.875 1.287 2.875 2.875-1.287 2.875-2.875 2.875zm-2.875-5.75c-1.588 0-2.875-1.287-2.875-2.875s1.287-2.875 2.875-2.875 2.875 1.287 2.875 2.875-1.287 2.875-2.875 2.875zm-5.75-2.875c-1.588 0-2.875-1.287-2.875-2.875s1.287-2.875 2.875-2.875 2.875 1.287 2.875 2.875-1.287 2.875-2.875 2.875zm-5.75 2.875c-1.588 0-2.875-1.287-2.875-2.875s1.287-2.875 2.875-2.875 2.875 1.287 2.875 2.875-1.287 2.875-2.875 2.875zm0 2.875c0 1.588-1.287 2.875-2.875 2.875s-2.875-1.287-2.875-2.875 1.287-2.875 2.875-2.875 2.875 1.287 2.875 2.875zm0 2.875c1.588 0 2.875 1.287 2.875 2.875s-1.287 2.875-2.875 2.875-2.875-1.287-2.875-2.875 1.287-2.875 2.875-2.875zm5.75 2.875c1.588 0 2.875 1.287 2.875 2.875s-1.287 2.875-2.875 2.875-2.875-1.287-2.875-2.875 1.287-2.875 2.875-2.875zm5.75-2.875c1.588 0 2.875 1.287 2.875 2.875s-1.287 2.875-2.875 2.875-2.875-1.287-2.875-2.875 1.287-2.875 2.875-2.875zM752 104c1.105 0 2 .895 2 2s-.895 2-2 2-2-.895-2-2 .895-2 2-2z"/><path fill="rgb( 239, 81, 85 )" d="M758 108c-1.105 0-2-.895-2-2s.895-2 2-2c1.104 0 2 .895 2 2s-.896 2-2 2zm-2-4c-1.105 0-2-.895-2-2s.895-2 2-2c1.104 0 2 .895 2 2s-.896 2-2 2zm-4-2c-1.105 0-2-.895-2-2s.895-2 2-2 2 .895 2 2-.895 2-2 2zm-4 2c-1.105 0-2-.895-2-2s.895-2 2-2c1.104 0 2 .895 2 2s-.896 2-2 2zm0 2c0 1.105-.896 2-2 2-1.105 0-2-.895-2-2s.895-2 2-2c1.104 0 2 .895 2 2zm0 2c1.104 0 2 .895 2 2s-.896 2-2 2c-1.105 0-2-.895-2-2s.895-2 2-2zm4 2c1.105 0 2 .895 2 2s-.895 2-2 2-2-.895-2-2 .895-2 2-2zm4-2c1.104 0 2 .895 2 2s-.896 2-2 2c-1.105 0-2-.895-2-2s.895-2 2-2z"/></svg>