<?xml version="1.0" encoding="utf-8"?>
<!-- Generator: Adobe Illustrator 18.1.1, SVG Export Plug-In . SVG Version: 6.00 Build 0)  -->
<svg version="1.1" id="Слой_1" xmlns="http://www.w3.org/2000/svg" xmlns:xlink="http://www.w3.org/1999/xlink" x="0px" y="0px"
	 viewBox="189 396 938 175" enable-background="new 189 396 938 175" xml:space="preserve">
<path fill="#90C53B" d="M189,562c90-119.59,237-103,352-92c96.56,9.24,212.01,56.12,333,54c171-3,249,32,253,42"/>
<path fill="#70992E" d="M419,473c46.39,0,84,9.63,84,21.5S465.39,516,419,516s-84-9.63-84-21.5S372.61,473,419,473z M711,490h3v56
	h-3V490z M799,511h2v42h-2V511z M759,449h2v79h-2V449z"/>
<path fill="#90C53B" d="M712,458c2.76,0,5,2.24,5,5s-2.24,5-5,5c-2.76,0-5-2.24-5-5S709.24,458,712,458z"/>
<path fill="#5DC1E8" d="M727,468c-2.76,0-5-2.24-5-5s2.24-5,5-5c2.76,0,5,2.24,5,5S729.76,468,727,468z M722,458c-2.76,0-5-2.24-5-5
	s2.24-5,5-5c2.76,0,5,2.24,5,5S724.76,458,722,458z M712,453c-2.76,0-5-2.24-5-5s2.24-5,5-5c2.76,0,5,2.24,5,5S714.76,453,712,453z
	 M702,458c-2.76,0-5-2.24-5-5s2.24-5,5-5c2.76,0,5,2.24,5,5S704.76,458,702,458z M702,463c0,2.76-2.24,5-5,5s-5-2.24-5-5s2.24-5,5-5
	S702,460.24,702,463z M702,468c2.76,0,5,2.24,5,5s-2.24,5-5,5c-2.76,0-5-2.24-5-5S699.24,468,702,468z M712,473c2.76,0,5,2.24,5,5
	s-2.24,5-5,5c-2.76,0-5-2.24-5-5S709.24,473,712,473z M722,468c2.76,0,5,2.24,5,5s-2.24,5-5,5c-2.76,0-5-2.24-5-5
	S719.24,468,722,468z"/>
<path fill="#70992E" d="M570,468h3v56h-3V468z"/>
<path fill="#90C53B" d="M571,436c2.76,0,5,2.24,5,5s-2.24,5-5,5s-5-2.24-5-5S568.24,436,571,436z"/>
<path fill="#5DC1E8" d="M586,446c-2.76,0-5-2.24-5-5s2.24-5,5-5s5,2.24,5,5S588.76,446,586,446z M581,436c-2.76,0-5-2.24-5-5
	s2.24-5,5-5s5,2.24,5,5S583.76,436,581,436z M571,431c-2.76,0-5-2.24-5-5s2.24-5,5-5s5,2.24,5,5S573.76,431,571,431z M561,436
	c-2.76,0-5-2.24-5-5s2.24-5,5-5c2.76,0,5,2.24,5,5S563.76,436,561,436z M561,441c0,2.76-2.24,5-5,5c-2.76,0-5-2.24-5-5s2.24-5,5-5
	C558.76,436,561,438.24,561,441z M561,446c2.76,0,5,2.24,5,5s-2.24,5-5,5c-2.76,0-5-2.24-5-5S558.24,446,561,446z M571,451
	c2.76,0,5,2.24,5,5s-2.24,5-5,5s-5-2.24-5-5S568.24,451,571,451z M581,446c2.76,0,5,2.24,5,5s-2.24,5-5,5s-5-2.24-5-5
	S578.24,446,581,446z"/>
<path fill="#70992E" d="M800.5,488.13c1.86,0,3.38,1.51,3.38,3.38s-1.51,3.38-3.38,3.38s-3.38-1.51-3.38-3.38
	S798.64,488.13,800.5,488.13z"/>
<path fill="#EF5155" d="M810.63,494.88c-1.86,0-3.38-1.51-3.38-3.38s1.51-3.38,3.38-3.38s3.38,1.51,3.38,3.38
	S812.49,494.88,810.63,494.88z M807.25,488.13c-1.86,0-3.38-1.51-3.38-3.38s1.51-3.38,3.38-3.38s3.38,1.51,3.38,3.38
	S809.11,488.13,807.25,488.13z M800.5,484.75c-1.86,0-3.38-1.51-3.38-3.38s1.51-3.38,3.38-3.38s3.38,1.51,3.38,3.38
	S802.36,484.75,800.5,484.75z M793.75,488.13c-1.86,0-3.38-1.51-3.38-3.38s1.51-3.38,3.38-3.38s3.38,1.51,3.38,3.38
	S795.61,488.13,793.75,488.13z M793.75,491.5c0,1.86-1.51,3.38-3.38,3.38s-3.38-1.51-3.38-3.38s1.51-3.38,3.38-3.38
	S793.75,489.64,793.75,491.5z M793.75,494.88c1.86,0,3.38,1.51,3.38,3.38s-1.51,3.38-3.38,3.38s-3.38-1.51-3.38-3.38
	S791.89,494.88,793.75,494.88z M800.5,498.25c1.86,0,3.38,1.51,3.38,3.38s-1.51,3.38-3.38,3.38s-3.38-1.51-3.38-3.38
	S798.64,498.25,800.5,498.25z M807.25,494.88c1.86,0,3.38,1.51,3.38,3.38s-1.51,3.38-3.38,3.38s-3.38-1.51-3.38-3.38
	S805.39,494.88,807.25,494.88z"/>
<path fill="#70992E" d="M634,429h2v71h-2V429z M635.5,406.13c1.86,0,3.38,1.51,3.38,3.38s-1.51,3.38-3.38,3.38s-3.38-1.51-3.38-3.38
	S633.64,406.13,635.5,406.13z"/>
<path fill="#EF5155" d="M645.63,412.88c-1.86,0-3.38-1.51-3.38-3.38s1.51-3.38,3.38-3.38s3.38,1.51,3.38,3.38
	S647.49,412.88,645.63,412.88z M642.25,406.13c-1.86,0-3.38-1.51-3.38-3.38s1.51-3.38,3.38-3.38s3.38,1.51,3.38,3.38
	S644.11,406.13,642.25,406.13z M635.5,402.75c-1.86,0-3.38-1.51-3.38-3.38s1.51-3.38,3.38-3.38s3.38,1.51,3.38,3.38
	S637.36,402.75,635.5,402.75z M628.75,406.13c-1.86,0-3.38-1.51-3.38-3.38s1.51-3.38,3.38-3.38s3.38,1.51,3.38,3.38
	S630.61,406.13,628.75,406.13z M628.75,409.5c0,1.86-1.51,3.38-3.38,3.38s-3.38-1.51-3.38-3.38s1.51-3.38,3.38-3.38
	S628.75,407.64,628.75,409.5z M628.75,412.88c1.86,0,3.38,1.51,3.38,3.38s-1.51,3.38-3.38,3.38s-3.38-1.51-3.38-3.38
	S626.89,412.88,628.75,412.88z M635.5,416.25c1.86,0,3.38,1.51,3.38,3.38s-1.51,3.38-3.38,3.38s-3.38-1.51-3.38-3.38
	S633.64,416.25,635.5,416.25z M642.25,412.88c1.86,0,3.38,1.51,3.38,3.38s-1.51,3.38-3.38,3.38s-3.38-1.51-3.38-3.38
	S640.39,412.88,642.25,412.88z"/>
<path fill="#5DC1E8" d="M760,418c2.21,0,4,1.79,4,4s-1.79,4-4,4s-4-1.79-4-4S757.79,418,760,418z"/>
<path fill="#FB8E19" d="M772,426c-2.21,0-4-1.79-4-4s1.79-4,4-4s4,1.79,4,4S774.21,426,772,426z M768,418c-2.21,0-4-1.79-4-4
	s1.79-4,4-4s4,1.79,4,4S770.21,418,768,418z M760,414c-2.21,0-4-1.79-4-4s1.79-4,4-4s4,1.79,4,4S762.21,414,760,414z M752,418
	c-2.21,0-4-1.79-4-4s1.79-4,4-4s4,1.79,4,4S754.21,418,752,418z M752,422c0,2.21-1.79,4-4,4s-4-1.79-4-4s1.79-4,4-4
	S752,419.79,752,422z M752,426c2.21,0,4,1.79,4,4s-1.79,4-4,4s-4-1.79-4-4S749.79,426,752,426z M760,430c2.21,0,4,1.79,4,4
	s-1.79,4-4,4s-4-1.79-4-4S757.79,430,760,430z M768,426c2.21,0,4,1.79,4,4s-1.79,4-4,4s-4-1.79-4-4S765.79,426,768,426z"/>
<path fill="#70992E" d="M864,491h1v56h-1V491z M940,514h1v17h-1V514z"/>
<path fill="#FB8E19" d="M864.5,470.63c1.59,0,2.88,1.29,2.88,2.88s-1.29,2.88-2.88,2.88s-2.88-1.29-2.88-2.88
	S862.91,470.63,864.5,470.63z"/>
<path fill="#5DC1E8" d="M873.13,476.38c-1.59,0-2.88-1.29-2.88-2.88s1.29-2.88,2.88-2.88s2.88,1.29,2.88,2.88
	S874.71,476.38,873.13,476.38z M870.25,470.63c-1.59,0-2.88-1.29-2.88-2.88s1.29-2.88,2.88-2.88s2.88,1.29,2.88,2.88
	S871.84,470.63,870.25,470.63z M864.5,467.75c-1.59,0-2.88-1.29-2.88-2.88s1.29-2.88,2.88-2.88s2.88,1.29,2.88,2.88
	S866.09,467.75,864.5,467.75z M858.75,470.63c-1.59,0-2.88-1.29-2.88-2.88s1.29-2.88,2.88-2.88s2.88,1.29,2.88,2.88
	S860.34,470.63,858.75,470.63z M858.75,473.5c0,1.59-1.29,2.88-2.88,2.88s-2.88-1.29-2.88-2.88s1.29-2.88,2.88-2.88
	S858.75,471.91,858.75,473.5z M858.75,476.38c1.59,0,2.88,1.29,2.88,2.88s-1.29,2.88-2.88,2.88s-2.88-1.29-2.88-2.88
	S857.16,476.38,858.75,476.38z M864.5,479.25c1.59,0,2.88,1.29,2.88,2.88s-1.29,2.88-2.88,2.88s-2.88-1.29-2.88-2.88
	S862.91,479.25,864.5,479.25z M870.25,476.38c1.59,0,2.88,1.29,2.88,2.88s-1.29,2.88-2.88,2.88s-2.88-1.29-2.88-2.88
	S868.66,476.38,870.25,476.38z M941,500c1.1,0,2,0.89,2,2s-0.9,2-2,2s-2-0.89-2-2S939.9,500,941,500z"/>
<path fill="#EF5155" d="M947,504c-1.1,0-2-0.89-2-2s0.9-2,2-2c1.1,0,2,0.89,2,2S948.1,504,947,504z M945,500c-1.1,0-2-0.89-2-2
	s0.9-2,2-2c1.1,0,2,0.89,2,2S946.1,500,945,500z M941,498c-1.1,0-2-0.89-2-2s0.9-2,2-2s2,0.89,2,2S942.1,498,941,498z M937,500
	c-1.1,0-2-0.89-2-2s0.9-2,2-2c1.1,0,2,0.89,2,2S938.1,500,937,500z M937,502c0,1.11-0.9,2-2,2c-1.1,0-2-0.89-2-2s0.9-2,2-2
	C936.1,500,937,500.89,937,502z M937,504c1.1,0,2,0.89,2,2s-0.9,2-2,2c-1.1,0-2-0.89-2-2S935.9,504,937,504z M941,506
	c1.1,0,2,0.89,2,2s-0.9,2-2,2s-2-0.89-2-2S939.9,506,941,506z M945,504c1.1,0,2,0.89,2,2s-0.9,2-2,2c-1.1,0-2-0.89-2-2
	S943.9,504,945,504z"/>
</svg>
