<?xml version="1.0" encoding="utf-8"?>
<!-- Generator: Adobe Illustrator 18.1.1, SVG Export Plug-In . SVG Version: 6.00 Build 0)  -->
<svg version="1.1" id="Слой_1" xmlns="http://www.w3.org/2000/svg" xmlns:xlink="http://www.w3.org/1999/xlink" x="0px" y="0px"
	 viewBox="182 823.755 574.667 99.245" enable-background="new 182 823.755 574.667 99.245" xml:space="preserve">
<path fill="#90C53B" d="M189,922.866c53.731-71.397,141.493-61.493,210.149-54.925c57.648,5.516,126.573,33.505,198.806,32.239
	c102.09-1.791,148.657,19.104,151.045,25.075"/>
<path fill="#70992E" d="M326.313,869.731c27.696,0,50.149,5.749,50.149,12.836s-22.454,12.836-50.149,12.836
	c-27.696,0-50.149-5.749-50.149-12.836S298.618,869.731,326.313,869.731z M500.642,879.881h1.791v33.433h-1.791V879.881z
	 M553.179,892.418h1.194v25.075h-1.194V892.418z M529.299,855.403h1.194v47.164h-1.194V855.403z"/>
<path fill="#90C53B" d="M501.239,860.776c1.648,0,2.985,1.337,2.985,2.985s-1.337,2.985-2.985,2.985s-2.985-1.337-2.985-2.985
	S499.591,860.776,501.239,860.776z"/>
<path fill="#5DC1E8" d="M510.194,866.746c-1.648,0-2.985-1.337-2.985-2.985s1.337-2.985,2.985-2.985s2.985,1.337,2.985,2.985
	S511.842,866.746,510.194,866.746z M507.209,860.776c-1.648,0-2.985-1.337-2.985-2.985s1.337-2.985,2.985-2.985
	s2.985,1.337,2.985,2.985S508.857,860.776,507.209,860.776z M501.239,857.791c-1.648,0-2.985-1.337-2.985-2.985
	c0-1.648,1.337-2.985,2.985-2.985s2.985,1.337,2.985,2.985C504.224,856.454,502.887,857.791,501.239,857.791z M495.269,860.776
	c-1.648,0-2.985-1.337-2.985-2.985s1.337-2.985,2.985-2.985s2.985,1.337,2.985,2.985S496.916,860.776,495.269,860.776z
	 M495.269,863.761c0,1.648-1.337,2.985-2.985,2.985s-2.985-1.337-2.985-2.985s1.337-2.985,2.985-2.985
	S495.269,862.113,495.269,863.761z M495.269,866.746c1.648,0,2.985,1.337,2.985,2.985s-1.337,2.985-2.985,2.985
	s-2.985-1.337-2.985-2.985S493.621,866.746,495.269,866.746z M501.239,869.731c1.648,0,2.985,1.337,2.985,2.985
	s-1.337,2.985-2.985,2.985s-2.985-1.337-2.985-2.985S499.591,869.731,501.239,869.731z M507.209,866.746
	c1.648,0,2.985,1.337,2.985,2.985s-1.337,2.985-2.985,2.985s-2.985-1.337-2.985-2.985S505.561,866.746,507.209,866.746z"/>
<path fill="#70992E" d="M416.463,866.746h1.791v33.433h-1.791V866.746z"/>
<path fill="#90C53B" d="M417.06,847.642c1.648,0,2.985,1.337,2.985,2.985s-1.337,2.985-2.985,2.985s-2.985-1.337-2.985-2.985
	S415.412,847.642,417.06,847.642z"/>
<path fill="#5DC1E8" d="M426.015,853.612c-1.648,0-2.985-1.337-2.985-2.985s1.337-2.985,2.985-2.985s2.985,1.337,2.985,2.985
	S427.663,853.612,426.015,853.612z M423.03,847.642c-1.648,0-2.985-1.337-2.985-2.985s1.337-2.985,2.985-2.985
	s2.985,1.337,2.985,2.985S424.678,847.642,423.03,847.642z M417.06,844.657c-1.648,0-2.985-1.337-2.985-2.985
	s1.337-2.985,2.985-2.985s2.985,1.337,2.985,2.985S418.707,844.657,417.06,844.657z M411.09,847.642
	c-1.648,0-2.985-1.337-2.985-2.985s1.337-2.985,2.985-2.985s2.985,1.337,2.985,2.985S412.737,847.642,411.09,847.642z
	 M411.09,850.627c0,1.648-1.337,2.985-2.985,2.985s-2.985-1.337-2.985-2.985s1.337-2.985,2.985-2.985S411.09,848.979,411.09,850.627
	z M411.09,853.612c1.648,0,2.985,1.337,2.985,2.985s-1.337,2.985-2.985,2.985s-2.985-1.337-2.985-2.985
	S409.442,853.612,411.09,853.612z M417.06,856.597c1.648,0,2.985,1.337,2.985,2.985s-1.337,2.985-2.985,2.985
	s-2.985-1.337-2.985-2.985S415.412,856.597,417.06,856.597z M423.03,853.612c1.648,0,2.985,1.337,2.985,2.985
	s-1.337,2.985-2.985,2.985s-2.985-1.337-2.985-2.985S421.382,853.612,423.03,853.612z"/>
<path fill="#70992E" d="M554.075,878.764c1.11,0,2.018,0.901,2.018,2.018c0,1.116-0.901,2.018-2.018,2.018
	c-1.116,0-2.018-0.901-2.018-2.018C552.057,879.666,552.964,878.764,554.075,878.764z"/>
<path fill="#EF5155" d="M560.122,882.794c-1.11,0-2.018-0.901-2.018-2.018c0-1.116,0.901-2.018,2.018-2.018s2.018,0.901,2.018,2.018
	C562.14,881.893,561.233,882.794,560.122,882.794z M558.104,878.764c-1.11,0-2.018-0.901-2.018-2.018
	c0-1.116,0.901-2.018,2.018-2.018c1.116,0,2.018,0.901,2.018,2.018C560.122,877.863,559.215,878.764,558.104,878.764z
	 M554.075,876.746c-1.11,0-2.018-0.901-2.018-2.018s0.901-2.018,2.018-2.018c1.116,0,2.018,0.902,2.018,2.018
	S555.185,876.746,554.075,876.746z M550.045,878.764c-1.11,0-2.018-0.901-2.018-2.018c0-1.116,0.901-2.018,2.018-2.018
	c1.116,0,2.018,0.901,2.018,2.018C552.063,877.863,551.155,878.764,550.045,878.764z M550.045,880.776
	c0,1.11-0.901,2.018-2.018,2.018s-2.018-0.901-2.018-2.018c0-1.116,0.902-2.018,2.018-2.018S550.045,879.666,550.045,880.776z
	 M550.045,882.794c1.11,0,2.018,0.901,2.018,2.018c0,1.116-0.901,2.018-2.018,2.018c-1.116,0-2.018-0.901-2.018-2.018
	C548.027,883.695,548.934,882.794,550.045,882.794z M554.075,884.806c1.11,0,2.018,0.902,2.018,2.018s-0.901,2.018-2.018,2.018
	c-1.116,0-2.018-0.901-2.018-2.018S552.964,884.806,554.075,884.806z M558.104,882.794c1.11,0,2.018,0.901,2.018,2.018
	c0,1.116-0.901,2.018-2.018,2.018c-1.116,0-2.018-0.901-2.018-2.018C556.087,883.695,556.994,882.794,558.104,882.794z"/>
<path fill="#70992E" d="M454.672,843.463h1.194v42.388h-1.194V843.463z M455.567,829.809c1.11,0,2.018,0.902,2.018,2.018
	s-0.902,2.018-2.018,2.018c-1.116,0-2.018-0.901-2.018-2.018S454.457,829.809,455.567,829.809z"/>
<path fill="#EF5155" d="M461.615,833.839c-1.11,0-2.018-0.902-2.018-2.018s0.901-2.018,2.018-2.018c1.116,0,2.018,0.901,2.018,2.018
	S462.725,833.839,461.615,833.839z M459.597,829.809c-1.11,0-2.018-0.901-2.018-2.018s0.901-2.018,2.018-2.018
	c1.116,0,2.018,0.902,2.018,2.018S460.707,829.809,459.597,829.809z M455.567,827.791c-1.11,0-2.018-0.901-2.018-2.018
	c0-1.116,0.901-2.018,2.018-2.018c1.116,0,2.018,0.901,2.018,2.018C457.585,826.89,456.678,827.791,455.567,827.791z
	 M451.537,829.809c-1.11,0-2.018-0.901-2.018-2.018s0.902-2.018,2.018-2.018c1.116,0,2.018,0.902,2.018,2.018
	S452.648,829.809,451.537,829.809z M451.537,831.821c0,1.11-0.901,2.018-2.018,2.018c-1.116,0-2.018-0.902-2.018-2.018
	s0.902-2.018,2.018-2.018C450.636,829.803,451.537,830.71,451.537,831.821z M451.537,833.839c1.11,0,2.018,0.901,2.018,2.018
	s-0.901,2.018-2.018,2.018c-1.116,0-2.018-0.902-2.018-2.018S450.427,833.839,451.537,833.839z M455.567,835.851
	c1.11,0,2.018,0.901,2.018,2.018c0,1.116-0.902,2.018-2.018,2.018c-1.116,0-2.018-0.901-2.018-2.018
	C453.549,836.752,454.457,835.851,455.567,835.851z M459.597,833.839c1.11,0,2.018,0.901,2.018,2.018s-0.902,2.018-2.018,2.018
	c-1.116,0-2.018-0.902-2.018-2.018S458.487,833.839,459.597,833.839z"/>
<path fill="#5DC1E8" d="M529.896,836.896c1.319,0,2.388,1.069,2.388,2.388s-1.069,2.388-2.388,2.388s-2.388-1.069-2.388-2.388
	S528.576,836.896,529.896,836.896z"/>
<path fill="#FB8E19" d="M537.06,841.672c-1.319,0-2.388-1.069-2.388-2.388s1.069-2.388,2.388-2.388s2.388,1.069,2.388,2.388
	S538.379,841.672,537.06,841.672z M534.672,836.896c-1.319,0-2.388-1.069-2.388-2.388s1.069-2.388,2.388-2.388
	s2.388,1.069,2.388,2.388S535.991,836.896,534.672,836.896z M529.896,834.507c-1.319,0-2.388-1.069-2.388-2.388
	s1.069-2.388,2.388-2.388s2.388,1.069,2.388,2.388S531.215,834.507,529.896,834.507z M525.119,836.896
	c-1.319,0-2.388-1.069-2.388-2.388s1.069-2.388,2.388-2.388s2.388,1.069,2.388,2.388S526.439,836.896,525.119,836.896z
	 M525.119,839.284c0,1.319-1.069,2.388-2.388,2.388s-2.388-1.069-2.388-2.388s1.069-2.388,2.388-2.388
	S525.119,837.964,525.119,839.284z M525.119,841.672c1.319,0,2.388,1.069,2.388,2.388s-1.069,2.388-2.388,2.388
	s-2.388-1.069-2.388-2.388S523.8,841.672,525.119,841.672z M529.896,844.06c1.319,0,2.388,1.069,2.388,2.388
	s-1.069,2.388-2.388,2.388s-2.388-1.069-2.388-2.388S528.576,844.06,529.896,844.06z M534.672,841.672
	c1.319,0,2.388,1.069,2.388,2.388s-1.069,2.388-2.388,2.388s-2.388-1.069-2.388-2.388S533.352,841.672,534.672,841.672z"/>
<path fill="#70992E" d="M591.985,880.478h0.597v33.433h-0.597V880.478z M637.358,894.209h0.597v10.149h-0.597V894.209z"/>
<path fill="#FB8E19" d="M592.284,868.316c0.949,0,1.719,0.77,1.719,1.719c0,0.949-0.77,1.719-1.719,1.719s-1.719-0.77-1.719-1.719
	C590.564,869.087,591.334,868.316,592.284,868.316z"/>
<path fill="#5DC1E8" d="M597.436,871.749c-0.949,0-1.719-0.77-1.719-1.719c0-0.949,0.77-1.719,1.719-1.719s1.719,0.77,1.719,1.719
	C599.155,870.979,598.379,871.749,597.436,871.749z M595.716,868.316c-0.949,0-1.719-0.77-1.719-1.719s0.77-1.719,1.719-1.719
	c0.949,0,1.719,0.77,1.719,1.719S596.666,868.316,595.716,868.316z M592.284,866.597c-0.949,0-1.719-0.77-1.719-1.719
	c0-0.949,0.77-1.719,1.719-1.719s1.719,0.77,1.719,1.719C594.003,865.827,593.233,866.597,592.284,866.597z M588.851,868.316
	c-0.949,0-1.719-0.77-1.719-1.719s0.77-1.719,1.719-1.719c0.949,0,1.719,0.77,1.719,1.719S589.8,868.316,588.851,868.316z
	 M588.851,870.03c0,0.949-0.77,1.719-1.719,1.719s-1.719-0.77-1.719-1.719c0-0.949,0.77-1.719,1.719-1.719
	S588.851,869.081,588.851,870.03z M588.851,871.749c0.949,0,1.719,0.77,1.719,1.719c0,0.949-0.77,1.719-1.719,1.719
	c-0.949,0-1.719-0.77-1.719-1.719C587.131,872.519,587.901,871.749,588.851,871.749z M592.284,873.463
	c0.949,0,1.719,0.77,1.719,1.719c0,0.949-0.77,1.719-1.719,1.719s-1.719-0.77-1.719-1.719
	C590.564,874.233,591.334,873.463,592.284,873.463z M595.716,871.749c0.949,0,1.719,0.77,1.719,1.719
	c0,0.949-0.77,1.719-1.719,1.719c-0.949,0-1.719-0.77-1.719-1.719C593.997,872.519,594.767,871.749,595.716,871.749z
	 M637.955,885.851c0.657,0,1.194,0.531,1.194,1.194s-0.537,1.194-1.194,1.194c-0.657,0-1.194-0.531-1.194-1.194
	S637.299,885.851,637.955,885.851z"/>
<path fill="#EF5155" d="M641.537,888.239c-0.657,0-1.194-0.531-1.194-1.194s0.537-1.194,1.194-1.194
	c0.657,0,1.194,0.531,1.194,1.194S642.194,888.239,641.537,888.239z M640.343,885.851c-0.657,0-1.194-0.531-1.194-1.194
	s0.537-1.194,1.194-1.194c0.657,0,1.194,0.531,1.194,1.194S641,885.851,640.343,885.851z M637.955,884.657
	c-0.657,0-1.194-0.531-1.194-1.194s0.537-1.194,1.194-1.194c0.657,0,1.194,0.531,1.194,1.194S638.612,884.657,637.955,884.657z
	 M635.567,885.851c-0.657,0-1.194-0.531-1.194-1.194s0.537-1.194,1.194-1.194c0.657,0,1.194,0.531,1.194,1.194
	S636.224,885.851,635.567,885.851z M635.567,887.045c0,0.663-0.537,1.194-1.194,1.194c-0.657,0-1.194-0.531-1.194-1.194
	s0.537-1.194,1.194-1.194C635.03,885.851,635.567,886.382,635.567,887.045z M635.567,888.239c0.657,0,1.194,0.531,1.194,1.194
	s-0.537,1.194-1.194,1.194c-0.657,0-1.194-0.531-1.194-1.194S634.91,888.239,635.567,888.239z M637.955,889.433
	c0.657,0,1.194,0.531,1.194,1.194s-0.537,1.194-1.194,1.194c-0.657,0-1.194-0.531-1.194-1.194S637.299,889.433,637.955,889.433z
	 M640.343,888.239c0.657,0,1.194,0.531,1.194,1.194s-0.537,1.194-1.194,1.194c-0.657,0-1.194-0.531-1.194-1.194
	S639.687,888.239,640.343,888.239z"/>
</svg>
