<?xml version="1.0" encoding="utf-8"?>
<!-- Generator: Adobe Illustrator 18.1.1, SVG Export Plug-In . SVG Version: 6.00 Build 0)  -->
<svg version="1.1" id="Слой_1" xmlns:ev="http://www.w3.org/2001/xml-events"
	 xmlns="http://www.w3.org/2000/svg" xmlns:xlink="http://www.w3.org/1999/xlink" x="0px" y="0px" width="973px" height="112.751px"
	 viewBox="207 429.99899 973 112.751" enable-background="new 207 429.99899 973 112.751" xml:space="preserve">
<pattern  x="207" y="533" width="31.1885" height="31.1885" patternUnits="userSpaceOnUse" id="New_Pattern_Swatch_11" viewBox="0 -31.18898 31.1885 31.1885" overflow="visible">
	<g>
		<polygon fill="none" points="0,-31.18898 31.1885,-31.18898 31.1885,-0.00048 0,-0.00048 		"/>
		<g>
			<defs>
				<rect id="SVGID_1_" x="-0.00001" y="-31.18898" width="31.1885" height="31.1885"/>
			</defs>
			<defs>
				<rect id="SVGID_2_" x="-0.00001" y="-31.18898" width="31.1885" height="31.1885"/>
			</defs>
			<use xlink:href="#SVGID_1_"  overflow="visible" fill="#FFFFFF"/>
			<clipPath id="SVGID_3_">
				<use xlink:href="#SVGID_1_"  overflow="visible"/>
			</clipPath>
			<clipPath id="SVGID_4_" clip-path="url(#SVGID_3_)">
				<use xlink:href="#SVGID_2_"  overflow="visible"/>
			</clipPath>
			<g clip-path="url(#SVGID_4_)">
				<polygon fill="#CCCCCC" points="14.1084,-31.18898 13.5703,-31.18898 13.5703,-0.00048 14.1084,-0.00048 				"/>
				<polygon fill="#444444" points="16.3193,-31.18898 14.3789,-31.18898 14.3789,-0.00048 16.3193,-0.00048 				"/>
				<polygon fill="#444444" points="30.4063,-31.18898 28.4629,-31.18898 28.4629,-0.00048 30.4063,-0.00048 				"/>
				<polygon fill="#444444" points="27.8418,-31.18898 27.6816,-31.18898 27.6816,-0.00048 27.8418,-0.00048 				"/>
				<polygon fill="#444444" points="31.1885,-31.18898 31.0254,-31.18898 31.0254,-0.00048 31.1885,-0.00048 				"/>
				<polygon fill="#B2B1B1" points="17.8594,-31.18898 16.3193,-31.18898 16.3193,-0.00048 17.8594,-0.00048 				"/>
				<polygon fill="#777677" points="21.5293,-31.18898 17.8594,-31.18898 17.8594,-0.00048 21.5293,-0.00048 				"/>
				<polygon fill="#CCCCCC" points="27.6816,-31.18898 21.5293,-31.18898 21.5293,-0.00048 27.6816,-0.00048 				"/>
				<polygon fill="#CCCCCC" points="6.15234,-31.18898 0,-31.18898 0,-0.00048 6.15234,-0.00048 				"/>
				<polygon fill="#777677" points="9.81934,-31.18898 6.15234,-31.18898 6.15234,-0.00048 9.81934,-0.00048 				"/>
				<polygon fill="#B2B1B1" points="11.3564,-31.18898 9.81934,-31.18898 9.81934,-0.00048 11.3564,-0.00048 				"/>
				<polygon fill="#444444" points="13.2998,-31.18898 11.3564,-31.18898 11.3564,-0.00048 13.2998,-0.00048 				"/>
				<polygon fill="#B2B1B1" points="13.5703,-31.18898 13.2998,-31.18898 13.2998,-0.00048 13.5703,-0.00048 				"/>
				<polygon fill="#B2B1B1" points="14.3789,-31.18898 14.1084,-31.18898 14.1084,-0.00048 14.3789,-0.00048 				"/>
				<polygon fill="#CCCCCC" points="27.8418,-31.18898 28.4629,-31.18898 28.4629,-0.00048 27.8418,-0.00048 				"/>
				<polygon fill="#CCCCCC" points="30.4063,-31.18898 31.0254,-31.18898 31.0254,-0.00048 30.4063,-0.00048 				"/>
			</g>
			<g opacity="0.5" clip-path="url(#SVGID_4_)">
				<polygon fill="#CCCCCC" points="31.1885,-17.07758 31.1885,-17.61868 0,-17.61868 0,-17.07758 				"/>
				<polygon fill="#444444" points="31.1885,-14.86668 31.1885,-16.80908 0,-16.80908 0,-14.86668 				"/>
				<polygon fill="#444444" points="31.1885,-0.78221 31.1885,-2.72607 0,-2.72607 0,-0.78221 				"/>
				<polygon fill="#444444" points="31.1885,-3.34569 31.1885,-3.50732 0,-3.50732 0,-3.34569 				"/>
				<polygon fill="#444444" points="31.1885,-0.00048 31.1885,-0.16259 0,-0.16259 0,-0.00048 				"/>
				<polygon fill="#F4F0E9" points="31.1885,-13.32858 31.1885,-14.86668 0,-14.86668 0,-13.32858 				"/>
				<polygon fill="#2B1F22" points="31.1885,-9.65966 31.1885,-13.32858 0,-13.32858 0,-9.65966 				"/>
				<polygon fill="#CCCCCC" points="31.1885,-3.50732 31.1885,-9.65966 0,-9.65966 0,-3.50732 				"/>
				<polygon fill="#2B1F22" points="31.1885,-21.36958 31.1885,-25.03858 0,-25.03858 0,-21.36958 				"/>
				<polygon fill="#F4F0E9" points="31.1885,-19.83008 31.1885,-21.36958 0,-21.36958 0,-19.83008 				"/>
				<polygon fill="#444444" points="31.1885,-17.88768 31.1885,-19.83008 0,-19.83008 0,-17.88768 				"/>
				<polygon fill="#CCCCCC" points="31.333,-24.98878 31.333,-31.14108 0.14453,-31.14108 0.14453,-24.98878 				"/>
				<polygon fill="#F4F0E9" points="31.1885,-17.61868 31.1885,-17.88768 0,-17.88768 0,-17.61868 				"/>
				<polygon fill="#F4F0E9" points="31.1885,-16.80908 31.1885,-17.07758 0,-17.07758 0,-16.80908 				"/>
				<polygon fill="#CCCCCC" points="31.1885,-3.34569 31.1885,-2.72607 0,-2.72607 0,-3.34569 				"/>
				<polygon fill="#CCCCCC" points="31.1885,-0.78221 31.1885,-0.16259 0,-0.16259 0,-0.78221 				"/>
			</g>
		</g>
	</g>
</pattern>
<path opacity="0.102" fill="#4C5E6B" enable-background="new    " d="M548.14697,532.85797v-5.99695h2.82007V481.375h6.51196
	h16.18896h6.51099v45.48602H583v5.99695H548.14697z M557.67401,486.17801h-2.31305v4.10098h2.31305V486.17801z M557.67401,491.55701
	h-2.31305v4.10199h2.31305V491.55701z M557.67401,496.93698h-2.31305v4.10101h2.31305V496.93698z M557.67401,502.31699h-2.31305
	v4.10101h2.31305V502.31699z M557.67401,507.69501h-2.31305v4.103h2.31305V507.69501z M557.67401,513.07501h-2.31305v4.10199
	h2.31305V513.07501z M560.85303,486.17801h-2.31201v4.10098h2.31201V486.17801z M560.85303,491.55701h-2.31201v4.10199h2.31201
	V491.55701z M560.85303,496.93698h-2.31201v4.10101h2.31201V496.93698z M560.85303,502.31699h-2.31201v4.10101h2.31201V502.31699z
	 M560.85303,507.69501h-2.31201v4.103h2.31201V507.69501z M560.85303,513.07501h-2.31201v4.10199h2.31201V513.07501z
	 M564.03198,486.17801h-2.31299v4.10098h2.31299V486.17801z M564.03198,491.55701h-2.31299v4.10199h2.31299V491.55701z
	 M564.03198,496.93698h-2.31299v4.10101h2.31299V496.93698z M564.03198,502.31699h-2.31299v4.10101h2.31299V502.31699z
	 M564.03198,507.69501h-2.31299v4.103h2.31299V507.69501z M564.03198,513.07501h-2.31299v4.10199h2.31299V513.07501z
	 M567.06201,521.742h-3.09802v1.07098h-2.21301v4.41302h7.64502v-4.41302h-2.33398V521.742z M569.427,486.17801h-2.31201v4.10098
	h2.31201V486.17801z M569.427,491.55701h-2.31201v4.10199h2.31201V491.55701z M569.427,496.93698h-2.31201v4.10101h2.31201
	V496.93698z M569.427,502.31699h-2.31201v4.10101h2.31201V502.31699z M569.427,507.69501h-2.31201v4.103h2.31201V507.69501z
	 M569.427,513.07501h-2.31201v4.10199h2.31201V513.07501z M572.60596,486.17801h-2.31195v4.10098h2.31195V486.17801z
	 M572.60596,491.55701h-2.31195v4.10199h2.31195V491.55701z M572.60596,496.93698h-2.31195v4.10101h2.31195V496.93698z
	 M572.60596,502.31699h-2.31195v4.10101h2.31195V502.31699z M572.60596,507.69501h-2.31195v4.103h2.31195V507.69501z
	 M572.60596,513.07501h-2.31195v4.10199h2.31195V513.07501z M575.78601,486.17801h-2.31299v4.10098h2.31299V486.17801z
	 M575.78601,491.55701h-2.31299v4.10199h2.31299V491.55701z M575.78601,496.93698h-2.31299v4.10101h2.31299V496.93698z
	 M575.78601,502.31699h-2.31299v4.10101h2.31299V502.31699z M575.78601,507.69501h-2.31299v4.103h2.31299V507.69501z
	 M575.78601,513.07501h-2.31299v4.10199h2.31299V513.07501z M500.634,525.38599h3.51498v-56.67999h8.11401h20.172h8.11401v56.67999
	h3.51495v7.47198H500.634V525.38599z M527.15198,474.69101h-2.88196v5.10999h2.88196V474.69101z M527.15198,481.39301h-2.88196
	v5.112h2.88196V481.39301z M527.15198,488.09698h-2.88196v5.11002h2.88196V488.09698z M527.15198,494.79999h-2.88196v5.11102
	h2.88196V494.79999z M527.15198,501.50299h-2.88196v5.112h2.88196V501.50299z M532.19299,513.31799h2.88098V508.207h-2.88098
	V513.31799z M532.19299,506.61499h2.88098v-5.112h-2.88098V506.61499z M532.19299,499.91101h2.88098v-5.11102h-2.88098V499.91101z
	 M532.19299,493.207h2.88098v-5.11002h-2.88098V493.207z M532.19299,486.505h2.88098v-5.112h-2.88098V486.505z M532.19299,479.80099
	h2.88098v-5.10999h-2.88098V479.80099z M528.23199,513.31799h2.88104V508.207h-2.88104V513.31799z M528.23199,506.61499h2.88104
	v-5.112h-2.88104V506.61499z M528.23199,499.91101h2.88104v-5.11102h-2.88104V499.91101z M528.23199,493.207h2.88104v-5.11002
	h-2.88104V493.207z M528.23199,486.505h2.88104v-5.112h-2.88104V486.505z M528.23199,479.80099h2.88104v-5.10999h-2.88104V479.80099
	z M527.15198,508.207h-2.88196v5.11099h2.88196V508.207z M517.586,525.83997h9.526V520.341h-2.90704v-1.33398h-3.86096v1.33398
	h-2.758V525.83997z M517.547,513.31799h2.88098V508.207H517.547V513.31799z M517.547,506.61499h2.88098v-5.112H517.547V506.61499z
	 M517.547,499.91101h2.88098v-5.11102H517.547V499.91101z M517.547,493.207h2.88098v-5.11002H517.547V493.207z M517.547,486.505
	h2.88098v-5.112H517.547V486.505z M517.547,479.80099h2.88098v-5.10999H517.547V479.80099z M513.58496,513.31799h2.88208V508.207
	h-2.88208V513.31799z M513.58496,506.61499h2.88208v-5.112h-2.88208V506.61499z M513.58496,499.91101h2.88208v-5.11102h-2.88208
	V499.91101z M513.58496,493.207h2.88208v-5.11002h-2.88208V493.207z M513.58496,486.505h2.88208v-5.112h-2.88208V486.505z
	 M513.58496,479.80099h2.88208v-5.10999h-2.88208V479.80099z M509.62399,513.31799h2.88101V508.207h-2.88101V513.31799z
	 M509.62399,506.61499h2.88101v-5.112h-2.88101V506.61499z M509.62399,499.91101h2.88101v-5.11102h-2.88101V499.91101z
	 M509.62399,493.207h2.88101v-5.11002h-2.88101V493.207z M509.62399,486.505h2.88101v-5.112h-2.88101V486.505z M509.62399,479.80099
	h2.88101v-5.10999h-2.88101V479.80099z M445.26898,533h-52.00699v-8.94702h4.20901v-67.87399h5.66199v-17.78598h5.67603
	l10.45599-8.39401l10.45697,8.39401h5.67603v17.78598H441.06v67.87399h1.66901v-0.14301h4.20801v-67.87399h9.716l12.07898-9.69598
	l12.078,9.69598h9.716v67.87399h4.20898v8.948h-49.466V533z M413.51401,509.60098h3.45099v-6.12h-3.45099V509.60098z
	 M413.51401,501.57498h3.45099V495.453h-3.45099V501.57498z M413.51401,493.547h3.45099v-6.12h-3.45099V493.547z
	 M413.51401,485.51999h3.45099v-6.12h-3.45099V485.51999z M413.51401,477.49298h3.45099v-6.12097h-3.45099V477.49298z
	 M407.479,463.34601h-3.45203v6.11899h3.45203V463.34601z M407.479,471.37201h-3.45203v6.12097h3.45203V471.37201z
	 M407.479,479.39999h-3.45203v6.12h3.45203V479.39999z M407.479,487.427h-3.45203v6.12h3.45203V487.427z M407.479,495.453h-3.45203
	v6.12198h3.45203V495.453z M407.479,503.48099h-3.45203v6.12h3.45203V503.48099z M412.22101,463.34601H408.771v6.11899h3.45001
	V463.34601z M412.22101,471.37201H408.771v6.12097h3.45001V471.37201z M412.22101,479.39999H408.771v6.12h3.45001V479.39999z
	 M412.22101,487.427H408.771v6.12h3.45001V487.427z M412.22101,495.453H408.771v6.12198h3.45001V495.453z M412.22101,503.48099
	H408.771v6.12h3.45001V503.48099z M413.51401,469.465h3.45099v-6.11899h-3.45099V469.465z M418.401,442.86899h-4.621v4.60501h4.621
	V442.86899z M418.401,448.565h-4.621v4.60599h4.621V448.565z M416.86499,516.414v1.59698h-3.30298v6.586h11.40698v-6.586H421.487
	V516.414H416.86499z M424.75101,442.86899h-4.61899v4.60501h4.61899V442.86899z M424.75101,448.565h-4.61899v4.60599h4.61899
	V448.565z M425.017,463.34601h-3.45102v6.11899h3.45102V463.34601z M425.017,471.37201h-3.45102v6.12097h3.45102V471.37201z
	 M425.017,479.39999h-3.45102v6.12h3.45102V479.39999z M425.017,487.427h-3.45102v6.12h3.45102V487.427z M425.017,495.453h-3.45102
	v6.12198h3.45102V495.453z M425.017,503.48099h-3.45102v6.12h3.45102V503.48099z M429.76001,463.34601h-3.45099v6.11899h3.45099
	V463.34601z M429.76001,471.37201h-3.45099v6.12097h3.45099V471.37201z M429.76001,479.39999h-3.45099v6.12h3.45099V479.39999z
	 M429.76001,487.427h-3.45099v6.12h3.45099V487.427z M429.76001,495.453h-3.45099v6.12198h3.45099V495.453z M429.76001,503.48099
	h-3.45099v6.12h3.45099V503.48099z M434.50299,463.34601H431.052v6.11899h3.45099V463.34601z M434.50299,471.37201H431.052v6.12097
	h3.45099V471.37201z M434.50299,479.39999H431.052v6.12h3.45099V479.39999z M434.50299,487.427H431.052v6.12h3.45099V487.427z
	 M434.50299,495.453H431.052v6.12198h3.45099V495.453z M434.50299,503.48099H431.052v6.12h3.45099V503.48099z M474.483,463.203
	h-3.45099v6.12h3.45099V463.203z M474.483,471.22998h-3.45099v6.12003h3.45099V471.22998z M474.483,479.258h-3.45099v6.11899
	h3.45099V479.258z M474.483,487.284h-3.45099v6.12h3.45099V487.284z M474.483,495.311h-3.45099v6.121h3.45099V495.311z
	 M480.51901,509.45898H483.97v-6.12h-3.45099V509.45898z M480.51901,501.43201H483.97v-6.121h-3.45099V501.43201z
	 M480.51901,493.40399H483.97v-6.12h-3.45099V493.40399z M480.51901,485.37698H483.97V479.258h-3.45099V485.37698z
	 M480.51901,477.35001H483.97v-6.12003h-3.45099V477.35001z M480.51901,469.323H483.97v-6.12h-3.45099V469.323z M475.776,509.45898
	h3.45001v-6.12H475.776V509.45898z M475.776,501.43201h3.45001v-6.121H475.776V501.43201z M475.776,493.40399h3.45001v-6.12H475.776
	V493.40399z M475.776,485.37698h3.45001V479.258H475.776V485.37698z M475.776,477.35001h3.45001v-6.12003H475.776V477.35001z
	 M475.776,469.323h3.45001v-6.12H475.776V469.323z M474.483,503.33899h-3.45099v6.12h3.45099V503.33899z M463.02802,524.45398
	H474.436v-6.58496h-3.48199V516.271h-4.62302v1.59802h-3.30298V524.45398z M462.98199,509.45898h3.45001v-6.12h-3.45001V509.45898z
	 M462.98199,501.43201h3.45001v-6.121h-3.45001V501.43201z M462.98199,493.40399h3.45001v-6.12h-3.45001V493.40399z
	 M462.98199,485.37698h3.45001V479.258h-3.45001V485.37698z M462.98199,477.35001h3.45001v-6.12003h-3.45001V477.35001z
	 M462.98199,469.323h3.45001v-6.12h-3.45001V469.323z M458.237,509.45898h3.45099v-6.12H458.237V509.45898z M458.237,501.43201
	h3.45099v-6.121H458.237V501.43201z M458.237,493.40399h3.45099v-6.12H458.237V493.40399z M458.237,485.37698h3.45099V479.258
	H458.237V485.37698z M458.237,477.35001h3.45099v-6.12003H458.237V477.35001z M458.237,469.323h3.45099v-6.12H458.237V469.323z
	 M453.49402,509.45898h3.45099v-6.12h-3.45099V509.45898z M453.49402,501.43201h3.45099v-6.121h-3.45099V501.43201z
	 M453.49402,493.40399h3.45099v-6.12h-3.45099V493.40399z M453.49402,485.37698h3.45099V479.258h-3.45099V485.37698z
	 M453.49402,477.35001h3.45099v-6.12003h-3.45099V477.35001z M453.49402,469.323h3.45099v-6.12h-3.45099V469.323z"/>
<path opacity="0.102" fill="#4C5E6B" enable-background="new    " d="M344.73102,533v-0.14203h-49.466v-8.948h4.20898v-67.87399
	h9.715l12.07901-9.69598l12.07898,9.69598h9.71503v67.87399h4.20898v0.14301H348.94v-67.87399h5.66199v-17.78598h5.67603
	l10.45697-8.39401l10.45599,8.39401h5.67603v17.78598h5.66199v67.87399h4.20901V533H344.73102z M309.48001,463.203H306.03v6.12
	h3.45001V463.203z M309.48001,471.22998H306.03v6.12003h3.45001V471.22998z M309.48001,479.258H306.03v6.11899h3.45001V479.258z
	 M309.48001,487.284H306.03v6.12h3.45001V487.284z M309.48001,495.311H306.03v6.121h3.45001V495.311z M309.48001,503.33899H306.03
	v6.12h3.45001V503.33899z M314.224,463.203h-3.45099v6.12h3.45099V463.203z M314.224,471.22998h-3.45099v6.12003h3.45099V471.22998z
	 M314.224,479.258h-3.45099v6.11899h3.45099V479.258z M314.224,487.284h-3.45099v6.12h3.45099V487.284z M314.224,495.311h-3.45099
	v6.121h3.45099V495.311z M314.224,503.33899h-3.45099v6.12h3.45099V503.33899z M318.96802,463.203H315.517v6.12h3.45102V463.203z
	 M318.96802,471.22998H315.517v6.12003h3.45102V471.22998z M318.96802,479.258H315.517v6.11899h3.45102V479.258z M318.96802,487.284
	H315.517v6.12h3.45102V487.284z M318.96802,495.311H315.517v6.121h3.45102V495.311z M318.96802,503.33899H315.517v6.12h3.45102
	V503.33899z M319.04599,516.271v1.59802H315.564v6.58496h11.40701v-6.58496h-3.302V516.271H319.04599z M327.01801,463.203h-3.45001
	v6.12h3.45001V463.203z M327.01801,471.22998h-3.45001v6.12003h3.45001V471.22998z M327.01801,479.258h-3.45001v6.11899h3.45001
	V479.258z M327.01801,487.284h-3.45001v6.12h3.45001V487.284z M327.01801,495.311h-3.45001v6.121h3.45001V495.311z
	 M327.01801,503.33899h-3.45001v6.12h3.45001V503.33899z M331.763,463.203h-3.45099v6.12h3.45099V463.203z M331.763,471.22998
	h-3.45099v6.12003h3.45099V471.22998z M331.763,479.258h-3.45099v6.11899h3.45099V479.258z M331.763,487.284h-3.45099v6.12h3.45099
	V487.284z M331.763,495.311h-3.45099v6.121h3.45099V495.311z M331.763,503.33899h-3.45099v6.12h3.45099V503.33899z
	 M336.50598,463.203h-3.45099v6.12h3.45099V463.203z M336.50598,471.22998h-3.45099v6.12003h3.45099V471.22998z M336.50598,479.258
	h-3.45099v6.11899h3.45099V479.258z M336.50598,487.284h-3.45099v6.12h3.45099V487.284z M336.50598,495.311h-3.45099v6.121h3.45099
	V495.311z M336.50598,503.33899h-3.45099v6.12h3.45099V503.33899z M364.983,509.60098h3.45102v-6.12H364.983V509.60098z
	 M364.983,501.57498h3.45102V495.453H364.983V501.57498z M364.983,493.547h3.45102v-6.12H364.983V493.547z M364.983,485.51999
	h3.45102v-6.12H364.983V485.51999z M364.983,477.49298h3.45102v-6.12097H364.983V477.49298z M358.948,463.34601h-3.452v6.11899
	h3.452V463.34601z M358.948,471.37201h-3.452v6.12097h3.452V471.37201z M358.948,479.39999h-3.452v6.12h3.452V479.39999z
	 M358.948,487.427h-3.452v6.12h3.452V487.427z M358.948,495.453h-3.452v6.12198h3.452V495.453z M358.948,503.48099h-3.452v6.12
	h3.452V503.48099z M363.69098,463.34601h-3.45099v6.11899h3.45099V463.34601z M363.69098,471.37201h-3.45099v6.12097h3.45099
	V471.37201z M363.69098,479.39999h-3.45099v6.12h3.45099V479.39999z M363.69098,487.427h-3.45099v6.12h3.45099V487.427z
	 M363.69098,495.453h-3.45099v6.12198h3.45099V495.453z M363.69098,503.48099h-3.45099v6.12h3.45099V503.48099z M364.983,469.465
	h3.45102v-6.11899H364.983V469.465z M369.86798,442.86899h-4.61899v4.60501h4.61899V442.86899z M369.86798,448.565h-4.61899v4.60599
	h4.61899V448.565z M368.513,516.414v1.59698h-3.48199v6.586h11.40698v-6.586h-3.30298V516.414H368.513z M376.22,442.86899h-4.621
	v4.60501h4.621V442.86899z M376.22,448.565h-4.621v4.60599h4.621V448.565z M376.48599,463.34601H373.035v6.11899h3.45099V463.34601z
	 M376.48599,471.37201H373.035v6.12097h3.45099V471.37201z M376.48599,479.39999H373.035v6.12h3.45099V479.39999z
	 M376.48599,487.427H373.035v6.12h3.45099V487.427z M376.48599,495.453H373.035v6.12198h3.45099V495.453z M376.48599,503.48099
	H373.035v6.12h3.45099V503.48099z M381.229,463.34601h-3.45099v6.11899h3.45099V463.34601z M381.229,471.37201h-3.45099v6.12097
	h3.45099V471.37201z M381.229,479.39999h-3.45099v6.12h3.45099V479.39999z M381.229,487.427h-3.45099v6.12h3.45099V487.427z
	 M381.229,495.453h-3.45099v6.12198h3.45099V495.453z M381.229,503.48099h-3.45099v6.12h3.45099V503.48099z M385.97302,463.34601
	H382.521v6.11899h3.45203V463.34601z M385.97302,471.37201H382.521v6.12097h3.45203V471.37201z M385.97302,479.39999H382.521v6.12
	h3.45203V479.39999z M385.97302,487.427H382.521v6.12h3.45203V487.427z M385.97302,495.453H382.521v6.12198h3.45203V495.453z
	 M385.97302,503.48099H382.521v6.12h3.45203V503.48099z M245.936,525.38599h3.515v-56.67999h8.114h20.172h8.11401v56.67999h3.51498
	v7.47198H245.936V525.38599z M272.453,474.69101h-2.88101v5.10999h2.88101V474.69101z M272.453,481.39301h-2.88101v5.112h2.88101
	V481.39301z M272.453,488.09698h-2.88101v5.11002h2.88101V488.09698z M272.453,494.79999h-2.88101v5.11102h2.88101V494.79999z
	 M272.453,501.50299h-2.88101v5.112h2.88101V501.50299z M277.49402,513.31799h2.88199V508.207h-2.88199V513.31799z
	 M277.49402,506.61499h2.88199v-5.112h-2.88199V506.61499z M277.49402,499.91101h2.88199v-5.11102h-2.88199V499.91101z
	 M277.49402,493.207h2.88199v-5.11002h-2.88199V493.207z M277.49402,486.505h2.88199v-5.112h-2.88199V486.505z M277.49402,479.80099
	h2.88199v-5.10999h-2.88199V479.80099z M273.53299,513.31799h2.88202V508.207h-2.88202V513.31799z M273.53299,506.61499h2.88202
	v-5.112h-2.88202V506.61499z M273.53299,499.91101h2.88202v-5.11102h-2.88202V499.91101z M273.53299,493.207h2.88202v-5.11002
	h-2.88202V493.207z M273.53299,486.505h2.88202v-5.112h-2.88202V486.505z M273.53299,479.80099h2.88202v-5.10999h-2.88202V479.80099
	z M272.453,508.207h-2.88101v5.11099h2.88101V508.207z M262.888,525.83997h9.526V520.341h-2.758v-1.33398h-3.86102v1.33398H262.888
	V525.83997z M262.84799,513.31799h2.88202V508.207h-2.88202V513.31799z M262.84799,506.61499h2.88202v-5.112h-2.88202V506.61499z
	 M262.84799,499.91101h2.88202v-5.11102h-2.88202V499.91101z M262.84799,493.207h2.88202v-5.11002h-2.88202V493.207z
	 M262.84799,486.505h2.88202v-5.112h-2.88202V486.505z M262.84799,479.80099h2.88202v-5.10999h-2.88202V479.80099z
	 M258.88699,513.31799h2.88101V508.207h-2.88101V513.31799z M258.88699,506.61499h2.88101v-5.112h-2.88101V506.61499z
	 M258.88699,499.91101h2.88101v-5.11102h-2.88101V499.91101z M258.88699,493.207h2.88101v-5.11002h-2.88101V493.207z
	 M258.88699,486.505h2.88101v-5.112h-2.88101V486.505z M258.88699,479.80099h2.88101v-5.10999h-2.88101V479.80099z
	 M254.92599,513.31799h2.88101V508.207h-2.88101V513.31799z M254.92599,506.61499h2.88101v-5.112h-2.88101V506.61499z
	 M254.92599,499.91101h2.88101v-5.11102h-2.88101V499.91101z M254.92599,493.207h2.88101v-5.11002h-2.88101V493.207z
	 M254.92599,486.505h2.88101v-5.112h-2.88101V486.505z M254.92599,479.80099h2.88101v-5.10999h-2.88101V479.80099z M207,526.86102
	h2.821V481.375h6.511h16.189h6.51201v45.48602h2.81999v5.99695H207V526.86102z M228.28101,486.17801H225.967v4.10098h2.31401
	V486.17801z M228.28101,491.55701H225.967v4.10199h2.31401V491.55701z M228.28101,496.93698H225.967v4.10101h2.31401V496.93698z
	 M228.28101,502.31699H225.967v4.10101h2.31401V502.31699z M228.28101,507.69501H225.967v4.103h2.31401V507.69501z M232.326,517.177
	h2.313v-4.10199h-2.313V517.177z M232.326,511.798h2.313v-4.103h-2.313V511.798z M232.326,506.418h2.313v-4.10101h-2.313V506.418z
	 M232.326,501.03799h2.313v-4.10101h-2.313V501.03799z M232.326,495.659h2.313v-4.10199h-2.313V495.659z M232.326,490.27899h2.313
	v-4.10098h-2.313V490.27899z M229.147,517.177h2.312v-4.10199h-2.312V517.177z M229.147,511.798h2.312v-4.103h-2.312V511.798z
	 M229.147,506.418h2.312v-4.10101h-2.312V506.418z M229.147,501.03799h2.312v-4.10101h-2.312V501.03799z M229.147,495.659h2.312
	v-4.10199h-2.312V495.659z M229.147,490.27899h2.312v-4.10098h-2.312V490.27899z M228.28101,513.07501H225.967v4.10199h2.31401
	V513.07501z M220.604,527.22601h7.64499v-4.41302h-2.213V521.742h-3.099v1.07098H220.604V527.22601z M220.573,517.177h2.312
	v-4.10199h-2.312V517.177z M220.573,511.798h2.312v-4.103h-2.312V511.798z M220.573,506.418h2.312v-4.10101h-2.312V506.418z
	 M220.573,501.03799h2.312v-4.10101h-2.312V501.03799z M220.573,495.659h2.312v-4.10199h-2.312V495.659z M220.573,490.27899h2.312
	v-4.10098h-2.312V490.27899z M217.39301,517.177h2.31299v-4.10199h-2.31299V517.177z M217.39301,511.798h2.31299v-4.103h-2.31299
	V511.798z M217.39301,506.418h2.31299v-4.10101h-2.31299V506.418z M217.39301,501.03799h2.31299v-4.10101h-2.31299V501.03799z
	 M217.39301,495.659h2.31299v-4.10199h-2.31299V495.659z M217.39301,490.27899h2.31299v-4.10098h-2.31299V490.27899z
	 M214.214,517.177h2.313v-4.10199h-2.313V517.177z M214.214,511.798h2.313v-4.103h-2.313V511.798z M214.214,506.418h2.313v-4.10101
	h-2.313V506.418z M214.214,501.03799h2.313v-4.10101h-2.313V501.03799z M214.214,495.659h2.313v-4.10199h-2.313V495.659z
	 M214.214,490.27899h2.313v-4.10098h-2.313V490.27899z"/>
<path opacity="0.102" fill="#4C5E6B" enable-background="new    " d="M781.97803,530.91901v-3.435h1.62v-26.056h3.74097h9.29999
	h3.74005v26.056H802v3.435H781.97803z M787.45099,504.17999h-1.32898v2.349h1.32898V504.17999z M787.45099,507.26099h-1.32898
	v2.35001h1.32898V507.26099z M787.45099,510.34299h-1.32898v2.34903h1.32898V510.34299z M787.45099,513.42401h-1.32898v2.349
	h1.32898V513.42401z M787.45099,516.505h-1.32898v2.34998h1.32898V516.505z M787.45099,519.58698h-1.32898v2.349h1.32898V519.58698z
	 M789.27698,504.17999h-1.328v2.349h1.328V504.17999z M789.27698,507.26099h-1.328v2.35001h1.328V507.26099z M789.27698,510.34299
	h-1.328v2.34903h1.328V510.34299z M789.27698,513.42401h-1.328v2.349h1.328V513.42401z M789.27698,516.505h-1.328v2.34998h1.328
	V516.505z M789.27698,519.58698h-1.328v2.349h1.328V519.58698z M791.104,504.17999h-1.32898v2.349h1.32898V504.17999z
	 M791.104,507.26099h-1.32898v2.35001h1.32898V507.26099z M791.104,510.34299h-1.32898v2.34903h1.32898V510.34299z
	 M791.104,513.42401h-1.32898v2.349h1.32898V513.42401z M791.104,516.505h-1.32898v2.34998h1.32898V516.505z M791.104,519.58698
	h-1.32898v2.349h1.32898V519.58698z M792.84399,524.55103h-1.77997v0.61395h-1.271v2.52802h4.39197v-2.52802h-1.341V524.55103z
	 M794.203,504.17999h-1.32898v2.349h1.32898V504.17999z M794.203,507.26099h-1.32898v2.35001h1.32898V507.26099z M794.203,510.34299
	h-1.32898v2.34903h1.32898V510.34299z M794.203,513.42401h-1.32898v2.349h1.32898V513.42401z M794.203,516.505h-1.32898v2.34998
	h1.32898V516.505z M794.203,519.58698h-1.32898v2.349h1.32898V519.58698z M796.02899,504.17999h-1.328v2.349h1.328V504.17999z
	 M796.02899,507.26099h-1.328v2.35001h1.328V507.26099z M796.02899,510.34299h-1.328v2.34903h1.328V510.34299z M796.02899,513.42401
	h-1.328v2.349h1.328V513.42401z M796.02899,516.505h-1.328v2.34998h1.328V516.505z M796.02899,519.58698h-1.328v2.349h1.328
	V519.58698z M797.85602,504.17999h-1.32904v2.349h1.32904V504.17999z M797.85602,507.26099h-1.32904v2.35001h1.32904V507.26099z
	 M797.85602,510.34299h-1.32904v2.34903h1.32904V510.34299z M797.85602,513.42401h-1.32904v2.349h1.32904V513.42401z
	 M797.85602,516.505h-1.32904v2.34998h1.32904V516.505z M797.85602,519.58698h-1.32904v2.349h1.32904V519.58698z M754.68402,526.638
	h2.01898v-32.46701h4.66101h11.58801h4.66095V526.638h2.02002v4.28101h-24.94897V526.638z M769.91699,497.60001h-1.65601v2.927
	h1.65601V497.60001z M769.91699,501.439h-1.65601v2.92801h1.65601V501.439z M769.91699,505.27899h-1.65601v2.927h1.65601V505.27899z
	 M769.91699,509.11899h-1.65601v2.92703h1.65601V509.11899z M769.91699,512.95801h-1.65601v2.92798h1.65601V512.95801z
	 M772.81299,519.72601h1.65503v-2.92804h-1.65503V519.72601z M772.81299,515.88599h1.65503v-2.92798h-1.65503V515.88599z
	 M772.81299,512.04602h1.65503v-2.92703h-1.65503V512.04602z M772.81299,508.20599h1.65503v-2.927h-1.65503V508.20599z
	 M772.81299,504.367h1.65503V501.439h-1.65503V504.367z M772.81299,500.52701h1.65503v-2.927h-1.65503V500.52701z
	 M770.53699,519.72601h1.65503v-2.92804h-1.65503V519.72601z M770.53699,515.88599h1.65503v-2.92798h-1.65503V515.88599z
	 M770.53699,512.04602h1.65503v-2.92703h-1.65503V512.04602z M770.53699,508.20599h1.65503v-2.927h-1.65503V508.20599z
	 M770.53699,504.367h1.65503V501.439h-1.65503V504.367z M770.53699,500.52701h1.65503v-2.927h-1.65503V500.52701z
	 M769.91699,516.79797h-1.65601v2.92804h1.65601V516.79797z M764.422,526.89899h5.47198v-3.151H768.224v-0.76398h-2.21802v0.76398
	H764.422V526.89899z M764.39899,519.72601h1.65503v-2.92804h-1.65503V519.72601z M764.39899,515.88599h1.65503v-2.92798h-1.65503
	V515.88599z M764.39899,512.04602h1.65503v-2.92703h-1.65503V512.04602z M764.39899,508.20599h1.65503v-2.927h-1.65503V508.20599z
	 M764.39899,504.367h1.65503V501.439h-1.65503V504.367z M764.39899,500.52701h1.65503v-2.927h-1.65503V500.52701z
	 M762.12402,519.72601h1.65497v-2.92804h-1.65497V519.72601z M762.12402,515.88599h1.65497v-2.92798h-1.65497V515.88599z
	 M762.12402,512.04602h1.65497v-2.92703h-1.65497V512.04602z M762.12402,508.20599h1.65497v-2.927h-1.65497V508.20599z
	 M762.12402,504.367h1.65497V501.439h-1.65497V504.367z M762.12402,500.52701h1.65497v-2.927h-1.65497V500.52701z
	 M759.84802,519.72601h1.65497v-2.92804h-1.65497V519.72601z M759.84802,515.88599h1.65497v-2.92798h-1.65497V515.88599z
	 M759.84802,512.04602h1.65497v-2.92703h-1.65497V512.04602z M759.84802,508.20599h1.65497v-2.927h-1.65497V508.20599z
	 M759.84802,504.367h1.65497V501.439h-1.65497V504.367z M759.84802,500.52701h1.65497v-2.927h-1.65497V500.52701z M722.87799,531
	h-29.87701v-5.125h2.41803v-38.88h3.25299v-10.18701h3.26099L707.94,472l6.00702,4.80798h3.26001V486.995h3.25299v38.88h0.95898
	v-0.08203h2.41699V486.914h5.58203l6.93896-5.55402l6.93799,5.55402h5.58203v38.87897h2.41797v5.12604h-28.41699V531z
	 M704.63599,517.59698h1.98206V514.091h-1.98206V517.59698z M704.63599,512.99902h1.98206v-3.50604h-1.98206V512.99902z
	 M704.63599,508.401h1.98206v-3.50601h-1.98206V508.401z M704.63599,503.802h1.98206v-3.505h-1.98206V503.802z M704.63599,499.20499
	h1.98206v-3.50598h-1.98206V499.20499z M701.16797,491.10098h-1.98193v3.505h1.98193V491.10098z M701.16797,495.69901h-1.98193
	v3.50598h1.98193V495.69901z M701.16797,500.297h-1.98193v3.505h1.98193V500.297z M701.16797,504.89499h-1.98193v3.50601h1.98193
	V504.89499z M701.16797,509.49298h-1.98193v3.50604h1.98193V509.49298z M701.16797,514.091h-1.98193v3.50598h1.98193V514.091z
	 M703.89301,491.10098h-1.98199v3.505h1.98199V491.10098z M703.89301,495.69901h-1.98199v3.50598h1.98199V495.69901z
	 M703.89301,500.297h-1.98199v3.505h1.98199V500.297z M703.89301,504.89499h-1.98199v3.50601h1.98199V504.89499z
	 M703.89301,509.49298h-1.98199v3.50604h1.98199V509.49298z M703.89301,514.091h-1.98199v3.50598h1.98199V514.091z
	 M704.63599,494.60599h1.98206v-3.505h-1.98206V494.60599z M707.44299,479.371H704.789v2.638h2.65399V479.371z M707.44299,482.634
	H704.789v2.63898h2.65399V482.634z M706.56104,521.49902v0.91498h-1.89807v3.77301h6.55304V522.414h-2v-0.91498H706.56104z
	 M711.091,479.371h-2.65399v2.638h2.65399V479.371z M711.091,482.634h-2.65399v2.63898h2.65399V482.634z M711.24402,491.10098
	h-1.98303v3.505h1.98303V491.10098z M711.24402,495.69901h-1.98303v3.50598h1.98303V495.69901z M711.24402,500.297h-1.98303v3.505
	h1.98303V500.297z M711.24402,504.89499h-1.98303v3.50601h1.98303V504.89499z M711.24402,509.49298h-1.98303v3.50604h1.98303
	V509.49298z M711.24402,514.091h-1.98303v3.50598h1.98303V514.091z M713.96802,491.10098h-1.98206v3.505h1.98206V491.10098z
	 M713.96802,495.69901h-1.98206v3.50598h1.98206V495.69901z M713.96802,500.297h-1.98206v3.505h1.98206V500.297z
	 M713.96802,504.89499h-1.98206v3.50601h1.98206V504.89499z M713.96802,509.49298h-1.98206v3.50604h1.98206V509.49298z
	 M713.96802,514.091h-1.98206v3.50598h1.98206V514.091z M716.69299,491.10098H714.711v3.505h1.98199V491.10098z
	 M716.69299,495.69901H714.711v3.50598h1.98199V495.69901z M716.69299,500.297H714.711v3.505h1.98199V500.297z M716.69299,504.89499
	H714.711v3.50601h1.98199V504.89499z M716.69299,509.49298H714.711v3.50604h1.98199V509.49298z M716.69299,514.091H714.711v3.50598
	h1.98199V514.091z M739.66101,491.01898h-1.98303v3.50601h1.98303V491.01898z M739.66101,495.617h-1.98303v3.50598h1.98303V495.617z
	 M739.66101,500.215h-1.98303v3.50601h1.98303V500.215z M739.66101,504.81299h-1.98303v3.50601h1.98303V504.81299z
	 M739.66101,509.41101h-1.98303v3.50598h1.98303V509.41101z M743.12799,517.51501h1.98303v-3.50604h-1.98303V517.51501z
	 M743.12799,512.91699h1.98303v-3.50598h-1.98303V512.91699z M743.12799,508.319h1.98303v-3.50601h-1.98303V508.319z
	 M743.12799,503.72101h1.98303V500.215h-1.98303V503.72101z M743.12799,499.12299h1.98303V495.617h-1.98303V499.12299z
	 M743.12799,494.52499h1.98303v-3.50601h-1.98303V494.52499z M740.40302,517.51501h1.98199v-3.50604h-1.98199V517.51501z
	 M740.40302,512.91699h1.98199v-3.50598h-1.98199V512.91699z M740.40302,508.319h1.98199v-3.50601h-1.98199V508.319z
	 M740.40302,503.72101h1.98199V500.215h-1.98199V503.72101z M740.40302,499.12299h1.98199V495.617h-1.98199V499.12299z
	 M740.40302,494.52499h1.98199v-3.50601h-1.98199V494.52499z M739.66101,514.00897h-1.98303v3.50604h1.98303V514.00897z
	 M733.08002,526.10498h6.55298v-3.77301h-2v-0.91498h-2.65497v0.91498h-1.89801V526.10498z M733.05298,517.51501h1.98199v-3.50604
	h-1.98199V517.51501z M733.05298,512.91699h1.98199v-3.50598h-1.98199V512.91699z M733.05298,508.319h1.98199v-3.50601h-1.98199
	V508.319z M733.05298,503.72101h1.98199V500.215h-1.98199V503.72101z M733.05298,499.12299h1.98199V495.617h-1.98199V499.12299z
	 M733.05298,494.52499h1.98199v-3.50601h-1.98199V494.52499z M730.328,517.51501H732.31v-3.50604H730.328V517.51501z
	 M730.328,512.91699H732.31v-3.50598H730.328V512.91699z M730.328,508.319H732.31v-3.50601H730.328V508.319z M730.328,503.72101
	H732.31V500.215H730.328V503.72101z M730.328,499.12299H732.31V495.617H730.328V499.12299z M730.328,494.52499H732.31v-3.50601
	H730.328V494.52499z M727.60303,517.51501h1.98199v-3.50604h-1.98199V517.51501z M727.60303,512.91699h1.98199v-3.50598h-1.98199
	V512.91699z M727.60303,508.319h1.98199v-3.50601h-1.98199V508.319z M727.60303,503.72101h1.98199V500.215h-1.98199V503.72101z
	 M727.60303,499.12299h1.98199V495.617h-1.98199V499.12299z M727.60303,494.52499h1.98199v-3.50601h-1.98199V494.52499z"/>
<path opacity="0.102" fill="#4C5E6B" enable-background="new    " d="M1159.97803,530.91901v-3.435h1.62v-26.056h3.74097h9.29993
	h3.74011v26.056H1180v3.435H1159.97803z M1165.45093,504.17999h-1.32886v2.349h1.32886V504.17999z M1165.45093,507.26099h-1.32886
	v2.35001h1.32886V507.26099z M1165.45093,510.34299h-1.32886v2.34903h1.32886V510.34299z M1165.45093,513.42401h-1.32886v2.349
	h1.32886V513.42401z M1165.45093,516.505h-1.32886v2.34998h1.32886V516.505z M1165.45093,519.58698h-1.32886v2.349h1.32886
	V519.58698z M1167.27698,504.17999h-1.328v2.349h1.328V504.17999z M1167.27698,507.26099h-1.328v2.35001h1.328V507.26099z
	 M1167.27698,510.34299h-1.328v2.34903h1.328V510.34299z M1167.27698,513.42401h-1.328v2.349h1.328V513.42401z M1167.27698,516.505
	h-1.328v2.34998h1.328V516.505z M1167.27698,519.58698h-1.328v2.349h1.328V519.58698z M1169.104,504.17999h-1.32898v2.349h1.32898
	V504.17999z M1169.104,507.26099h-1.32898v2.35001h1.32898V507.26099z M1169.104,510.34299h-1.32898v2.34903h1.32898V510.34299z
	 M1169.104,513.42401h-1.32898v2.349h1.32898V513.42401z M1169.104,516.505h-1.32898v2.34998h1.32898V516.505z M1169.104,519.58698
	h-1.32898v2.349h1.32898V519.58698z M1170.84399,524.55103h-1.78003v0.61395h-1.271v2.52802h4.39209v-2.52802h-1.34106V524.55103z
	 M1172.203,504.17999h-1.32898v2.349h1.32898V504.17999z M1172.203,507.26099h-1.32898v2.35001h1.32898V507.26099z
	 M1172.203,510.34299h-1.32898v2.34903h1.32898V510.34299z M1172.203,513.42401h-1.32898v2.349h1.32898V513.42401z
	 M1172.203,516.505h-1.32898v2.34998h1.32898V516.505z M1172.203,519.58698h-1.32898v2.349h1.32898V519.58698z
	 M1174.02905,504.17999h-1.32813v2.349h1.32813V504.17999z M1174.02905,507.26099h-1.32813v2.35001h1.32813V507.26099z
	 M1174.02905,510.34299h-1.32813v2.34903h1.32813V510.34299z M1174.02905,513.42401h-1.32813v2.349h1.32813V513.42401z
	 M1174.02905,516.505h-1.32813v2.34998h1.32813V516.505z M1174.02905,519.58698h-1.32813v2.349h1.32813V519.58698z
	 M1175.85596,504.17999h-1.32898v2.349h1.32898V504.17999z M1175.85596,507.26099h-1.32898v2.35001h1.32898V507.26099z
	 M1175.85596,510.34299h-1.32898v2.34903h1.32898V510.34299z M1175.85596,513.42401h-1.32898v2.349h1.32898V513.42401z
	 M1175.85596,516.505h-1.32898v2.34998h1.32898V516.505z M1175.85596,519.58698h-1.32898v2.349h1.32898V519.58698z
	 M1132.68408,526.638h2.01794v-32.46701h4.66199h11.58801h4.66101V526.638h2.02002v4.28101h-24.94897V526.638z
	 M1147.91699,497.60001h-1.65601v2.927h1.65601V497.60001z M1147.91699,501.439h-1.65601v2.92801h1.65601V501.439z
	 M1147.91699,505.27899h-1.65601v2.927h1.65601V505.27899z M1147.91699,509.11899h-1.65601v2.92703h1.65601V509.11899z
	 M1147.91699,512.95801h-1.65601v2.92798h1.65601V512.95801z M1150.81299,519.72601h1.65503v-2.92804h-1.65503V519.72601z
	 M1150.81299,515.88599h1.65503v-2.92798h-1.65503V515.88599z M1150.81299,512.04602h1.65503v-2.92703h-1.65503V512.04602z
	 M1150.81299,508.20599h1.65503v-2.927h-1.65503V508.20599z M1150.81299,504.367h1.65503V501.439h-1.65503V504.367z
	 M1150.81299,500.52701h1.65503v-2.927h-1.65503V500.52701z M1148.53699,519.72601h1.65503v-2.92804h-1.65503V519.72601z
	 M1148.53699,515.88599h1.65503v-2.92798h-1.65503V515.88599z M1148.53699,512.04602h1.65503v-2.92703h-1.65503V512.04602z
	 M1148.53699,508.20599h1.65503v-2.927h-1.65503V508.20599z M1148.53699,504.367h1.65503V501.439h-1.65503V504.367z
	 M1148.53699,500.52701h1.65503v-2.927h-1.65503V500.52701z M1147.91699,516.79797h-1.65601v2.92804h1.65601V516.79797z
	 M1142.422,526.89899h5.47205v-3.151h-1.67004v-0.76398h-2.21802v0.76398h-1.58398V526.89899z M1142.39893,519.72601h1.65503
	v-2.92804h-1.65503V519.72601z M1142.39893,515.88599h1.65503v-2.92798h-1.65503V515.88599z M1142.39893,512.04602h1.65503v-2.92703
	h-1.65503V512.04602z M1142.39893,508.20599h1.65503v-2.927h-1.65503V508.20599z M1142.39893,504.367h1.65503V501.439h-1.65503
	V504.367z M1142.39893,500.52701h1.65503v-2.927h-1.65503V500.52701z M1140.12305,519.72601h1.65601v-2.92804h-1.65601V519.72601z
	 M1140.12305,515.88599h1.65601v-2.92798h-1.65601V515.88599z M1140.12305,512.04602h1.65601v-2.92703h-1.65601V512.04602z
	 M1140.12305,508.20599h1.65601v-2.927h-1.65601V508.20599z M1140.12305,504.367h1.65601V501.439h-1.65601V504.367z
	 M1140.12305,500.52701h1.65601v-2.927h-1.65601V500.52701z M1137.84802,519.72601h1.65491v-2.92804h-1.65491V519.72601z
	 M1137.84802,515.88599h1.65491v-2.92798h-1.65491V515.88599z M1137.84802,512.04602h1.65491v-2.92703h-1.65491V512.04602z
	 M1137.84802,508.20599h1.65491v-2.927h-1.65491V508.20599z M1137.84802,504.367h1.65491V501.439h-1.65491V504.367z
	 M1137.84802,500.52701h1.65491v-2.927h-1.65491V500.52701z M1100.87793,531h-29.87695v-5.125h2.41797v-38.88h3.25305v-10.18701
	h3.26099L1085.93994,472l6.00708,4.80798h3.26001V486.995h3.25293v38.88h0.95898v-0.08203h2.41699V486.914h5.58203l6.93896-5.55402
	l6.93799,5.55402h5.58203v38.87897h2.41797v5.12604h-28.41699V531z M1082.63599,517.59698h1.98193V514.091h-1.98193V517.59698z
	 M1082.63599,512.99902h1.98193v-3.50604h-1.98193V512.99902z M1082.63599,508.401h1.98193v-3.50601h-1.98193V508.401z
	 M1082.63599,503.802h1.98193v-3.505h-1.98193V503.802z M1082.63599,499.20499h1.98193v-3.50598h-1.98193V499.20499z
	 M1079.16797,491.10098h-1.98193v3.505h1.98193V491.10098z M1079.16797,495.69901h-1.98193v3.50598h1.98193V495.69901z
	 M1079.16797,500.297h-1.98193v3.505h1.98193V500.297z M1079.16797,504.89499h-1.98193v3.50601h1.98193V504.89499z
	 M1079.16797,509.49298h-1.98193v3.50604h1.98193V509.49298z M1079.16797,514.091h-1.98193v3.50598h1.98193V514.091z
	 M1081.89307,491.10098h-1.98206v3.505h1.98206V491.10098z M1081.89307,495.69901h-1.98206v3.50598h1.98206V495.69901z
	 M1081.89307,500.297h-1.98206v3.505h1.98206V500.297z M1081.89307,504.89499h-1.98206v3.50601h1.98206V504.89499z
	 M1081.89307,509.49298h-1.98206v3.50604h1.98206V509.49298z M1081.89307,514.091h-1.98206v3.50598h1.98206V514.091z
	 M1082.63599,494.60599h1.98193v-3.505h-1.98193V494.60599z M1085.44299,479.371h-2.65393v2.638h2.65393V479.371z
	 M1085.44299,482.634h-2.65393v2.63898h2.65393V482.634z M1084.56104,521.49902v0.91498h-1.89795v3.77301h6.55298V522.414h-2
	v-0.91498H1084.56104z M1089.09106,479.371h-2.65405v2.638h2.65405V479.371z M1089.09106,482.634h-2.65405v2.63898h2.65405V482.634z
	 M1089.24402,491.10098h-1.98303v3.505h1.98303V491.10098z M1089.24402,495.69901h-1.98303v3.50598h1.98303V495.69901z
	 M1089.24402,500.297h-1.98303v3.505h1.98303V500.297z M1089.24402,504.89499h-1.98303v3.50601h1.98303V504.89499z
	 M1089.24402,509.49298h-1.98303v3.50604h1.98303V509.49298z M1089.24402,514.091h-1.98303v3.50598h1.98303V514.091z
	 M1091.96802,491.10098h-1.98193v3.505h1.98193V491.10098z M1091.96802,495.69901h-1.98193v3.50598h1.98193V495.69901z
	 M1091.96802,500.297h-1.98193v3.505h1.98193V500.297z M1091.96802,504.89499h-1.98193v3.50601h1.98193V504.89499z
	 M1091.96802,509.49298h-1.98193v3.50604h1.98193V509.49298z M1091.96802,514.091h-1.98193v3.50598h1.98193V514.091z
	 M1094.69299,491.10098h-1.98206v3.505h1.98206V491.10098z M1094.69299,495.69901h-1.98206v3.50598h1.98206V495.69901z
	 M1094.69299,500.297h-1.98206v3.505h1.98206V500.297z M1094.69299,504.89499h-1.98206v3.50601h1.98206V504.89499z
	 M1094.69299,509.49298h-1.98206v3.50604h1.98206V509.49298z M1094.69299,514.091h-1.98206v3.50598h1.98206V514.091z
	 M1117.66101,491.01898h-1.98303v3.50601h1.98303V491.01898z M1117.66101,495.617h-1.98303v3.50598h1.98303V495.617z
	 M1117.66101,500.215h-1.98303v3.50601h1.98303V500.215z M1117.66101,504.81299h-1.98303v3.50601h1.98303V504.81299z
	 M1117.66101,509.41101h-1.98303v3.50598h1.98303V509.41101z M1121.12793,517.51501h1.98315v-3.50604h-1.98315V517.51501z
	 M1121.12793,512.91699h1.98315v-3.50598h-1.98315V512.91699z M1121.12793,508.319h1.98315v-3.50601h-1.98315V508.319z
	 M1121.12793,503.72101h1.98315V500.215h-1.98315V503.72101z M1121.12793,499.12299h1.98315V495.617h-1.98315V499.12299z
	 M1121.12793,494.52499h1.98315v-3.50601h-1.98315V494.52499z M1118.40308,517.51501h1.98193v-3.50604h-1.98193V517.51501z
	 M1118.40308,512.91699h1.98193v-3.50598h-1.98193V512.91699z M1118.40308,508.319h1.98193v-3.50601h-1.98193V508.319z
	 M1118.40308,503.72101h1.98193V500.215h-1.98193V503.72101z M1118.40308,499.12299h1.98193V495.617h-1.98193V499.12299z
	 M1118.40308,494.52499h1.98193v-3.50601h-1.98193V494.52499z M1117.66101,514.00897h-1.98303v3.50604h1.98303V514.00897z
	 M1111.08008,526.10498h6.55298v-3.77301h-2v-0.91498h-2.65503v0.91498h-1.89795V526.10498z M1111.05298,517.51501h1.98193v-3.50604
	h-1.98193V517.51501z M1111.05298,512.91699h1.98193v-3.50598h-1.98193V512.91699z M1111.05298,508.319h1.98193v-3.50601h-1.98193
	V508.319z M1111.05298,503.72101h1.98193V500.215h-1.98193V503.72101z M1111.05298,499.12299h1.98193V495.617h-1.98193V499.12299z
	 M1111.05298,494.52499h1.98193v-3.50601h-1.98193V494.52499z M1108.328,517.51501h1.98206v-3.50604h-1.98206V517.51501z
	 M1108.328,512.91699h1.98206v-3.50598h-1.98206V512.91699z M1108.328,508.319h1.98206v-3.50601h-1.98206V508.319z
	 M1108.328,503.72101h1.98206V500.215h-1.98206V503.72101z M1108.328,499.12299h1.98206V495.617h-1.98206V499.12299z
	 M1108.328,494.52499h1.98206v-3.50601h-1.98206V494.52499z M1105.60303,517.51501h1.98193v-3.50604h-1.98193V517.51501z
	 M1105.60303,512.91699h1.98193v-3.50598h-1.98193V512.91699z M1105.60303,508.319h1.98193v-3.50601h-1.98193V508.319z
	 M1105.60303,503.72101h1.98193V500.215h-1.98193V503.72101z M1105.60303,499.12299h1.98193V495.617h-1.98193V499.12299z
	 M1105.60303,494.52499h1.98193v-3.50601h-1.98193V494.52499z"/>
<path opacity="0.102" fill="#4C5E6B" enable-background="new    " d="M665.12201,531v-0.08099h-28.41705v-5.12604h2.41803V486.914
	h5.58197l6.93805-5.55402l6.93903,5.55402h5.58197v38.87897h2.41699v0.08203h0.95905v-38.88h3.25293v-10.18701h3.26001L680.06,472
	l6.00702,4.80798h3.26099V486.995h3.25299v38.88h2.41699V531H665.12201z M644.87201,491.01898h-1.98297v3.50601h1.98297V491.01898z
	 M644.87201,495.617h-1.98297v3.50598h1.98297V495.617z M644.87201,500.215h-1.98297v3.50601h1.98297V500.215z M644.87201,504.81299
	h-1.98297v3.50601h1.98297V504.81299z M644.87201,509.41101h-1.98297v3.50598h1.98297V509.41101z M644.87201,514.00897h-1.98297
	v3.50604h1.98297V514.00897z M647.59698,491.01898h-1.98199v3.50601h1.98199V491.01898z M647.59698,495.617h-1.98199v3.50598
	h1.98199V495.617z M647.59698,500.215h-1.98199v3.50601h1.98199V500.215z M647.59698,504.81299h-1.98199v3.50601h1.98199V504.81299z
	 M647.59698,509.41101h-1.98199v3.50598h1.98199V509.41101z M647.59698,514.00897h-1.98199v3.50604h1.98199V514.00897z
	 M650.32202,491.01898h-1.98303v3.50601h1.98303V491.01898z M650.32202,495.617h-1.98303v3.50598h1.98303V495.617z
	 M650.32202,500.215h-1.98303v3.50601h1.98303V500.215z M650.32202,504.81299h-1.98303v3.50601h1.98303V504.81299z
	 M650.32202,509.41101h-1.98303v3.50598h1.98303V509.41101z M650.32202,514.00897h-1.98303v3.50604h1.98303V514.00897z
	 M650.367,521.41699v0.91498h-2v3.77301h6.55304v-3.77301h-1.89807v-0.91498H650.367z M654.94702,491.01898h-1.98303v3.50601
	h1.98303V491.01898z M654.94702,495.617h-1.98303v3.50598h1.98303V495.617z M654.94702,500.215h-1.98303v3.50601h1.98303V500.215z
	 M654.94702,504.81299h-1.98303v3.50601h1.98303V504.81299z M654.94702,509.41101h-1.98303v3.50598h1.98303V509.41101z
	 M654.94702,514.00897h-1.98303v3.50604h1.98303V514.00897z M657.672,491.01898H655.69v3.50601h1.98199V491.01898z M657.672,495.617
	H655.69v3.50598h1.98199V495.617z M657.672,500.215H655.69v3.50601h1.98199V500.215z M657.672,504.81299H655.69v3.50601h1.98199
	V504.81299z M657.672,509.41101H655.69v3.50598h1.98199V509.41101z M657.672,514.00897H655.69v3.50604h1.98199V514.00897z
	 M660.39697,491.01898h-1.98193v3.50601h1.98193V491.01898z M660.39697,495.617h-1.98193v3.50598h1.98193V495.617z
	 M660.39697,500.215h-1.98193v3.50601h1.98193V500.215z M660.39697,504.81299h-1.98193v3.50601h1.98193V504.81299z
	 M660.39697,509.41101h-1.98193v3.50598h1.98193V509.41101z M660.39697,514.00897h-1.98193v3.50604h1.98193V514.00897z
	 M676.75598,517.59698h1.98303V514.091h-1.98303V517.59698z M676.75598,512.99902h1.98303v-3.50604h-1.98303V512.99902z
	 M676.75598,508.401h1.98303v-3.50601h-1.98303V508.401z M676.75598,503.802h1.98303v-3.505h-1.98303V503.802z M676.75598,499.20499
	h1.98303v-3.50598h-1.98303V499.20499z M673.289,491.10098h-1.98297v3.505h1.98297V491.10098z M673.289,495.69901h-1.98297v3.50598
	h1.98297V495.69901z M673.289,500.297h-1.98297v3.505h1.98297V500.297z M673.289,504.89499h-1.98297v3.50601h1.98297V504.89499z
	 M673.289,509.49298h-1.98297v3.50604h1.98297V509.49298z M673.289,514.091h-1.98297v3.50598h1.98297V514.091z M676.01404,491.10098
	h-1.98206v3.505h1.98206V491.10098z M676.01404,495.69901h-1.98206v3.50598h1.98206V495.69901z M676.01404,500.297h-1.98206v3.505
	h1.98206V500.297z M676.01404,504.89499h-1.98206v3.50601h1.98206V504.89499z M676.01404,509.49298h-1.98206v3.50604h1.98206
	V509.49298z M676.01404,514.091h-1.98206v3.50598h1.98206V514.091z M676.75598,494.60599h1.98303v-3.505h-1.98303V494.60599z
	 M679.56299,479.371H676.909v2.638h2.65399V479.371z M679.56299,482.634H676.909v2.63898h2.65399V482.634z M678.784,521.49902
	v0.91498h-2v3.77301h6.55304V522.414h-1.89807v-0.91498H678.784z M683.211,479.371h-2.65399v2.638h2.65399V479.371z
	 M683.211,482.634h-2.65399v2.63898h2.65399V482.634z M683.36401,491.10098h-1.98206v3.505h1.98206V491.10098z M683.36401,495.69901
	h-1.98206v3.50598h1.98206V495.69901z M683.36401,500.297h-1.98206v3.505h1.98206V500.297z M683.36401,504.89499h-1.98206v3.50601
	h1.98206V504.89499z M683.36401,509.49298h-1.98206v3.50604h1.98206V509.49298z M683.36401,514.091h-1.98206v3.50598h1.98206
	V514.091z M686.08899,491.10098h-1.98199v3.505h1.98199V491.10098z M686.08899,495.69901h-1.98199v3.50598h1.98199V495.69901z
	 M686.08899,500.297h-1.98199v3.505h1.98199V500.297z M686.08899,504.89499h-1.98199v3.50601h1.98199V504.89499z
	 M686.08899,509.49298h-1.98199v3.50604h1.98199V509.49298z M686.08899,514.091h-1.98199v3.50598h1.98199V514.091z
	 M688.81396,491.10098h-1.98297v3.505h1.98297V491.10098z M688.81396,495.69901h-1.98297v3.50598h1.98297V495.69901z
	 M688.81396,500.297h-1.98297v3.505h1.98297V500.297z M688.81396,504.89499h-1.98297v3.50601h1.98297V504.89499z
	 M688.81396,509.49298h-1.98297v3.50604h1.98297V509.49298z M688.81396,514.091h-1.98297v3.50598h1.98297V514.091z M608.367,526.638
	h2.01996v-32.46701h4.66101h11.58801h4.66101V526.638h2.01904v4.28101H608.367V526.638z M623.60101,497.60001h-1.65601v2.927
	h1.65601V497.60001z M623.60101,501.439h-1.65601v2.92801h1.65601V501.439z M623.60101,505.27899h-1.65601v2.927h1.65601V505.27899z
	 M623.60101,509.11899h-1.65601v2.92703h1.65601V509.11899z M623.60101,512.95801h-1.65601v2.92798h1.65601V512.95801z
	 M626.49701,519.72601h1.65497v-2.92804h-1.65497V519.72601z M626.49701,515.88599h1.65497v-2.92798h-1.65497V515.88599z
	 M626.49701,512.04602h1.65497v-2.92703h-1.65497V512.04602z M626.49701,508.20599h1.65497v-2.927h-1.65497V508.20599z
	 M626.49701,504.367h1.65497V501.439h-1.65497V504.367z M626.49701,500.52701h1.65497v-2.927h-1.65497V500.52701z
	 M624.22101,519.72601h1.65497v-2.92804h-1.65497V519.72601z M624.22101,515.88599h1.65497v-2.92798h-1.65497V515.88599z
	 M624.22101,512.04602h1.65497v-2.92703h-1.65497V512.04602z M624.22101,508.20599h1.65497v-2.927h-1.65497V508.20599z
	 M624.22101,504.367h1.65497V501.439h-1.65497V504.367z M624.22101,500.52701h1.65497v-2.927h-1.65497V500.52701z
	 M623.60101,516.79797h-1.65601v2.92804h1.65601V516.79797z M618.10596,526.89899h5.47205v-3.151h-1.58398v-0.76398H619.776v0.76398
	h-1.67004V526.89899z M618.08301,519.72601h1.65601v-2.92804h-1.65601V519.72601z M618.08301,515.88599h1.65601v-2.92798h-1.65601
	V515.88599z M618.08301,512.04602h1.65601v-2.92703h-1.65601V512.04602z M618.08301,508.20599h1.65601v-2.927h-1.65601V508.20599z
	 M618.08301,504.367h1.65601V501.439h-1.65601V504.367z M618.08301,500.52701h1.65601v-2.927h-1.65601V500.52701z
	 M615.80798,519.72601h1.65503v-2.92804h-1.65503V519.72601z M615.80798,515.88599h1.65503v-2.92798h-1.65503V515.88599z
	 M615.80798,512.04602h1.65503v-2.92703h-1.65503V512.04602z M615.80798,508.20599h1.65503v-2.927h-1.65503V508.20599z
	 M615.80798,504.367h1.65503V501.439h-1.65503V504.367z M615.80798,500.52701h1.65503v-2.927h-1.65503V500.52701z
	 M613.53198,519.72601h1.65503v-2.92804h-1.65503V519.72601z M613.53198,515.88599h1.65503v-2.92798h-1.65503V515.88599z
	 M613.53198,512.04602h1.65503v-2.92703h-1.65503V512.04602z M613.53198,508.20599h1.65503v-2.927h-1.65503V508.20599z
	 M613.53198,504.367h1.65503V501.439h-1.65503V504.367z M613.53198,500.52701h1.65503v-2.927h-1.65503V500.52701z M586,527.48401
	h1.62097v-26.056h3.73999h9.30005h3.74097v26.056h1.62v3.435H586V527.48401z M598.22498,504.17999H596.896v2.349h1.32898V504.17999z
	 M598.22498,507.26099H596.896v2.35001h1.32898V507.26099z M598.22498,510.34299H596.896v2.34903h1.32898V510.34299z
	 M598.22498,513.42401H596.896v2.349h1.32898V513.42401z M598.22498,516.505H596.896v2.34998h1.32898V516.505z M600.54901,521.93597
	h1.32898v-2.349h-1.32898V521.93597z M600.54901,518.85498h1.32898V516.505h-1.32898V518.85498z M600.54901,515.77301h1.32898
	v-2.349h-1.32898V515.77301z M600.54901,512.69202h1.32898v-2.34903h-1.32898V512.69202z M600.54901,509.61099h1.32898v-2.35001
	h-1.32898V509.61099z M600.54901,506.52899h1.32898v-2.349h-1.32898V506.52899z M598.72302,521.93597h1.328v-2.349h-1.328V521.93597
	z M598.72302,518.85498h1.328V516.505h-1.328V518.85498z M598.72302,515.77301h1.328v-2.349h-1.328V515.77301z M598.72302,512.69202
	h1.328v-2.34903h-1.328V512.69202z M598.72302,509.61099h1.328v-2.35001h-1.328V509.61099z M598.72302,506.52899h1.328v-2.349
	h-1.328V506.52899z M598.22498,519.58698H596.896v2.349h1.32898V519.58698z M593.815,527.69299h4.39203v-2.52802H596.935v-0.61395
	h-1.77899v0.61395h-1.341V527.69299z M593.797,521.93597h1.32898v-2.349H593.797V521.93597z M593.797,518.85498h1.32898V516.505
	H593.797V518.85498z M593.797,515.77301h1.32898v-2.349H593.797V515.77301z M593.797,512.69202h1.32898v-2.34903H593.797V512.69202z
	 M593.797,509.61099h1.32898v-2.35001H593.797V509.61099z M593.797,506.52899h1.32898v-2.349H593.797V506.52899z
	 M591.97101,521.93597h1.328v-2.349h-1.328V521.93597z M591.97101,518.85498h1.328V516.505h-1.328V518.85498z M591.97101,515.77301
	h1.328v-2.349h-1.328V515.77301z M591.97101,512.69202h1.328v-2.34903h-1.328V512.69202z M591.97101,509.61099h1.328v-2.35001
	h-1.328V509.61099z M591.97101,506.52899h1.328v-2.349h-1.328V506.52899z M590.14404,521.93597h1.32898v-2.349h-1.32898V521.93597z
	 M590.14404,518.85498h1.32898V516.505h-1.32898V518.85498z M590.14404,515.77301h1.32898v-2.349h-1.32898V515.77301z
	 M590.14404,512.69202h1.32898v-2.34903h-1.32898V512.69202z M590.14404,509.61099h1.32898v-2.35001h-1.32898V509.61099z
	 M590.14404,506.52899h1.32898v-2.349h-1.32898V506.52899z"/>
<path fill="#80A446" d="M1042.24707,479.11301c0,0-1.29614-0.95502-1.24109-1.71701c0.04199-0.763,1.43909-1.54401,1.43909-1.54401
	s-1.01404-1.24899-0.78003-1.97598c0.2229-0.72202,1.76794-1.12402,1.76794-1.12402s-0.68005-1.46899-0.271-2.11899
	c0.40002-0.64301,1.98804-0.64099,1.98804-0.64099s-0.29407-1.591,0.25403-2.11502c0.54297-0.521,2.08496-0.11798,2.08496-0.11798
	s0.09998-1.62302,0.755-1.992c0.65906-0.36401,2.04993,0.41901,2.04993,0.41901s0.49609-1.54401,1.21997-1.73502
	c0.7301-0.19501,1.88501,0.927,1.88501,0.927s0.8551-1.37399,1.59509-1.37399c0.75598,0,1.60901,1.37399,1.60901,1.37399
	s1.16296-1.12201,1.88306-0.927c0.73193,0.19101,1.22095,1.73502,1.22095,1.73502s1.39697-0.78302,2.04797-0.41901
	c0.66101,0.36899,0.75403,1.992,0.75403,1.992s1.54797-0.40302,2.09302,0.11798c0.54895,0.52402,0.24902,2.11502,0.24902,2.11502
	s1.58984-0.00201,1.98901,0.64099c0.40283,0.64999-0.27515,2.11899-0.27515,2.11899s1.54004,0.40201,1.77307,1.12402
	c0.23206,0.72699-0.78406,1.97598-0.78406,1.97598s1.39697,0.78101,1.44409,1.54401c0.052,0.76199-1.24207,1.71701-1.24207,1.71701
	s1.16699,1.108,1.01794,1.85699c-0.13391,0.75299-1.61292,1.349-1.61292,1.349s0.84802,1.36798,0.53101,2.05701
	c-0.32104,0.69598-1.89709,0.89099-1.89709,0.89099s0.48901,1.543,0.01416,2.134c-0.48315,0.59-2.05505,0.383-2.05505,0.383
	s0.09595,1.621-0.50903,2.069c-0.604,0.45001-2.08606-0.146-2.08606-0.146s-0.2959,1.59299-0.9939,1.87
	c-0.69702,0.284-1.98901-0.67001-1.98901-0.67001s-0.66895,1.46701-1.41699,1.56c-0.15002,0.02002-0.30396-0.01599-0.45605-0.07999
	l0.22998,12.306L1057.42407,511h-4.88708l0.89099-6.30701l0.2251-12.285c-0.14307,0.052-0.28003,0.07901-0.41113,0.05899
	c-0.74194-0.09299-1.41895-1.56-1.41895-1.56s-1.28906,0.95401-1.98291,0.67001c-0.70007-0.27701-0.99805-1.87-0.99805-1.87
	s-1.4751,0.59601-2.09106,0.146c-0.599-0.448-0.5-2.069-0.5-2.069s-1.58105,0.207-2.05591-0.383
	c-0.47607-0.591,0.01489-2.134,0.01489-2.134s-1.57996-0.19501-1.89404-0.89099c-0.32495-0.68903,0.5321-2.05701,0.5321-2.05701
	s-1.48108-0.59601-1.6261-1.349C1041.08301,480.22101,1042.24707,479.11301,1042.24707,479.11301z"/>
<path fill="#80A446" d="M261.24701,479.11301c0,0-1.29602-0.95502-1.241-1.71701c0.04199-0.763,1.439-1.54401,1.439-1.54401
	s-1.01401-1.24899-0.78-1.97598c0.22299-0.72202,1.76797-1.12402,1.76797-1.12402s-0.67999-1.46899-0.271-2.11899
	c0.40002-0.64301,1.98801-0.64099,1.98801-0.64099s-0.29401-1.591,0.254-2.11502c0.543-0.521,2.08502-0.11798,2.08502-0.11798
	s0.09998-1.62302,0.75497-1.992c0.65903-0.36401,2.05002,0.41901,2.05002,0.41901s0.49701-1.54401,1.22-1.73502
	c0.73001-0.19501,1.88498,0.927,1.88498,0.927s0.85501-1.37399,1.59503-1.37399c0.75598,0,1.60898,1.37399,1.60898,1.37399
	s1.16299-1.12201,1.883-0.927c0.73203,0.19101,1.22101,1.73502,1.22101,1.73502s1.397-0.78302,2.048-0.41901
	c0.66101,0.36899,0.754,1.992,0.754,1.992s1.548-0.40302,2.09299,0.11798c0.54901,0.52402,0.24902,2.11502,0.24902,2.11502
	s1.59-0.00201,1.98999,0.64099c0.40198,0.64999-0.276,2.11899-0.276,2.11899s1.54001,0.40201,1.77301,1.12402
	c0.23199,0.72699-0.784,1.97598-0.784,1.97598s1.39697,0.78101,1.44397,1.54401c0.052,0.76199-1.242,1.71701-1.242,1.71701
	s1.16702,1.108,1.01801,1.85699c-0.13397,0.75299-1.61298,1.349-1.61298,1.349s0.84799,1.36798,0.53101,2.05701
	c-0.32101,0.69598-1.89703,0.89099-1.89703,0.89099s0.48901,1.543,0.01401,2.134c-0.483,0.59-2.05499,0.383-2.05499,0.383
	s0.09601,1.621-0.509,2.069c-0.604,0.45001-2.086-0.146-2.086-0.146s-0.29599,1.59299-0.99298,1.87
	c-0.698,0.284-1.99002-0.67001-1.99002-0.67001s-0.66898,1.46701-1.41699,1.56c-0.14999,0.02002-0.30399-0.01599-0.45599-0.07999
	l0.22998,12.306L276.42401,511h-4.88702l0.89102-6.30701l0.22501-12.285c-0.14301,0.052-0.28003,0.07901-0.41101,0.05899
	c-0.742-0.09299-1.418-1.56-1.418-1.56s-1.29001,0.95401-1.98401,0.67001c-0.69998-0.27701-0.99799-1.87-0.99799-1.87
	s-1.47501,0.59601-2.091,0.146c-0.59799-0.448-0.49899-2.069-0.49899-2.069s-1.58203,0.207-2.05801-0.383
	c-0.47501-0.591,0.01599-2.134,0.01599-2.134s-1.57999-0.19501-1.89398-0.89099c-0.32501-0.68903,0.53198-2.05701,0.53198-2.05701
	s-1.48099-0.59601-1.62601-1.349C260.08301,480.22101,261.24701,479.11301,261.24701,479.11301z"/>
<g>
	<path fill="#FBFAFF" d="M889.22363,511.81357c-0.04187-0.2778-0.22302-0.06052-0.62689-0.30832
		c-1.03876-0.63879-2.69727-1.25876-3.80853-1.98865c-0.69391,0.02454-1.37384-0.03162-2.06897-0.07498
		c-0.43988-0.02679-1.10107-0.13464-1.51349-0.24292c-0.29327,1.39789,0.24438,2.15341,1.69434,2.513
		c1.61664,0.40109,3.18231,1.84952,4.85883,1.89316C888.71106,513.62976,889.40955,513.05109,889.22363,511.81357z"/>
	<path fill="#A965A5" d="M888.6004,510.9386c-0.02588-0.01721-0.04669-0.03485-0.07385-0.05167
		c-1.63959-1.00735-4.82178-1.96899-4.96246-3.38766c-0.14075-1.41995-2.20099,0.09137-2.20099,0.09137
		c-0.32068,1.94736-0.38916,3.04239,1.46643,3.50275c1.0885,0.27029,2.1546,1.01379,3.2464,1.48492
		C886.45074,511.51773,887.54309,511.09381,888.6004,510.9386z"/>
	<path fill="#A965A5" d="M888.6004,510.9386c-1.05731,0.15521-2.14966,0.57913-2.52448,1.63971
		c0.52936,0.22864,1.06488,0.39423,1.61243,0.40826C888.9953,513.02063,889.90039,511.80597,888.6004,510.9386z"/>
	<path fill="#FBFAFF" d="M887.74158,512.83496l-0.04883-0.00116c-0.42767-0.0105-0.88123-0.11877-1.41724-0.33771
		c0.32526-0.74103,1.09283-1.21014,2.28619-1.39746c0.41998,0.29825,0.59222,0.64728,0.48352,0.99005
		C888.90869,512.521,888.36096,512.83496,887.74158,512.83496L887.74158,512.83496z"/>
	<ellipse fill="#FBFAFF" cx="882.16052" cy="509.4621" rx="0.44472" ry="0.43472"/>
	<g>
		<circle fill="#FBFAFF" cx="883.55627" cy="509.21753" r="0.20997"/>
		<circle fill="#FBFAFF" cx="884.24835" cy="509.73947" r="0.20993"/>
		<circle fill="#FBFAFF" cx="884.94043" cy="510.26147" r="0.2099"/>
		<circle fill="#FBFAFF" cx="885.63251" cy="510.78351" r="0.20984"/>
		<circle fill="#FBFAFF" cx="886.32458" cy="511.30551" r="0.2098"/>
	</g>
	<g>
		<g>
			<path fill="#FFFFFF" d="M886.30542,511.34088c-0.05042-0.02728-0.06757-0.08911-0.04004-0.13754l0,0
				c0.28741-0.5029,0.79138-0.70096,1.2052-0.69946l0,0c0.08246,0,0.16321,0.00732,0.23987,0.02298l0,0
				c0.0553,0.01199,0.091,0.06534,0.07874,0.11984l0,0c-0.0119,0.0549-0.06647,0.08936-0.12219,0.07739l0,0
				c-0.06073-0.01248-0.12634-0.01923-0.19641-0.01849l0,0c-0.35059,0.00043-0.77881,0.16486-1.02478,0.59592l0,0l0.00073,0.00085
				c-0.01959,0.03287-0.05499,0.05124-0.09052,0.05124l0,0C886.33832,511.35361,886.32104,511.3497,886.30542,511.34088
				L886.30542,511.34088z"/>
		</g>
		<g>
			<path fill="#FFFFFF" d="M885.61414,510.81912c-0.04919-0.02847-0.06561-0.09064-0.03601-0.13831l0,0
				c0.2652-0.43915,0.7135-0.61914,1.09894-0.61798l0,0c0.07513,0,0.14935,0.00641,0.21973,0.02005l0,0
				c0.0567,0.01083,0.09192,0.06418,0.08124,0.11868l0,0c-0.01111,0.05457-0.06567,0.09027-0.12048,0.07938l0,0
				c-0.05701-0.01123-0.11816-0.01648-0.18048-0.01648l0,0c-0.32434,0.00052-0.6972,0.14771-0.92188,0.51895l0,0l0.00073,0.00043
				c-0.01959,0.03168-0.05408,0.04935-0.08893,0.04935l0,0C885.64862,510.83319,885.63043,510.82877,885.61414,510.81912
				L885.61414,510.81912z"/>
		</g>
		<g>
			<path fill="#FFFFFF" d="M884.92181,510.297c-0.04797-0.03046-0.06183-0.09302-0.03119-0.13956l0,0
				c0.24286-0.37411,0.63562-0.5365,0.99414-0.53574l0,0c0.06635,0,0.13373,0.00525,0.19977,0.01721l0,0
				c0.05615,0.01093,0.0929,0.06302,0.0824,0.11792l0,0c-0.01062,0.05502-0.06403,0.09106-0.12061,0.08023l0,0
				c-0.05164-0.00882-0.1059-0.01321-0.16156-0.01321l0,0c-0.29773,0.0004-0.61725,0.13071-0.82013,0.44186l0,0h0.00037
				c-0.01929,0.03055-0.05341,0.04694-0.08771,0.04694l0,0C884.95837,510.31265,884.93915,510.30783,884.92181,510.297
				L884.92181,510.297z"/>
		</g>
		<g>
			<path fill="#FFFFFF" d="M884.22961,509.77408c-0.04706-0.03247-0.05829-0.09494-0.02625-0.14114l0,0
				c0.22144-0.30789,0.55774-0.45313,0.88995-0.45227l0,0c0.05811,0,0.11768,0.004,0.17841,0.01398l0,0
				c0.05566,0.00922,0.09296,0.06183,0.08398,0.11707l0,0c-0.00977,0.05453-0.06311,0.09155-0.11884,0.08182l0,0
				c-0.04761-0.008-0.09485-0.01114-0.14355-0.01074l0,0c-0.27325,0.00076-0.53772,0.11386-0.72015,0.36649l0,0l0.00037,0.00043
				c-0.01996,0.02805-0.052,0.04285-0.08496,0.04285l0,0C884.26782,509.79254,884.24731,509.78656,884.22961,509.77408
				L884.22961,509.77408z"/>
		</g>
		<g>
			<path fill="#FFFFFF" d="M883.53503,509.24963c-0.0448-0.03528-0.0517-0.09903-0.01556-0.14236l0,0
				c0.19672-0.23984,0.47559-0.36807,0.78284-0.36774l0,0c0.0495,0,0.10168,0.00281,0.15576,0.01163l0,0
				c0.05707,0.008,0.09467,0.05936,0.08649,0.11386l0,0c-0.00861,0.05576-0.0614,0.09354-0.11731,0.08502l0,0
				c-0.04187-0.00598-0.08368-0.00839-0.12494-0.00839l0,0c-0.24982,0.00116-0.45972,0.0983-0.62219,0.29266l0,0
				c-0.02045,0.02499-0.05005,0.03772-0.08032,0.03772l0,0C883.57684,509.27203,883.55377,509.26486,883.53503,509.24963
				L883.53503,509.24963z"/>
		</g>
	</g>
</g>
<g>
	<path fill="#FBFAFF" d="M868.82092,511.81357c0.0415-0.2778,0.22321-0.06052,0.62671-0.30832
		c1.03912-0.63879,2.69794-1.25876,3.80884-1.98865c0.69391,0.02454,1.37347-0.03162,2.06842-0.07498
		c0.44049-0.02679,1.09503-0.20886,1.50763-0.31714c0.29266,1.39789-0.23792,2.22763-1.68848,2.58722
		c-1.61572,0.40109-3.18262,1.84952-4.85828,1.89316C869.33313,513.62976,868.63568,513.05109,868.82092,511.81357z"/>
	<path fill="#A965A5" d="M869.44397,510.9386c0.0257-0.01721,0.04669-0.03485,0.07416-0.05167
		c1.63904-1.00735,4.82178-1.96899,4.96198-3.38766c0.14111-1.41995,2.20154,0.09137,2.20154,0.09137
		c0.32104,1.94736,0.38861,3.04239-1.46661,3.50275c-1.08838,0.27029-2.15411,1.01379-3.24628,1.48492
		C871.59399,511.51773,870.5011,511.09381,869.44397,510.9386z"/>
	<path fill="#A965A5" d="M869.44397,510.9386c1.05713,0.15521,2.15002,0.57913,2.52478,1.63971
		c-0.52972,0.22864-1.06537,0.39423-1.61273,0.40826C869.04938,513.02063,868.14398,511.80597,869.44397,510.9386z"/>
	<path fill="#FBFAFF" d="M870.3031,512.83496l0.04865-0.00116c0.42737-0.0105,0.88141-0.11877,1.4173-0.33771
		c-0.32477-0.74103-1.0929-1.21014-2.28656-1.39746c-0.42035,0.29825-0.59174,0.64728-0.48267,0.99005
		C869.13605,512.521,869.68378,512.83496,870.3031,512.83496L870.3031,512.83496z"/>
	<ellipse fill="#FBFAFF" cx="875.88416" cy="509.4621" rx="0.44472" ry="0.43472"/>
	<g>
		<circle fill="#FBFAFF" cx="874.48798" cy="509.21753" r="0.20954"/>
		<circle fill="#FBFAFF" cx="873.79596" cy="509.73947" r="0.20954"/>
		<circle fill="#FBFAFF" cx="873.10394" cy="510.26147" r="0.20954"/>
		<circle fill="#FBFAFF" cx="872.41187" cy="510.78351" r="0.20954"/>
		<circle fill="#FBFAFF" cx="871.71985" cy="511.30551" r="0.20953"/>
	</g>
	<g>
		<g>
			<path fill="#FFFFFF" d="M871.73907,511.34088c0.05011-0.02728,0.06812-0.08911,0.04028-0.13754l0,0
				c-0.28796-0.5029-0.79144-0.70096-1.20526-0.69946l0,0c-0.08313,0-0.1637,0.00732-0.23981,0.02298l0,0
				c-0.05585,0.01199-0.09106,0.06534-0.0788,0.11984l0,0c0.01141,0.0549,0.06635,0.08936,0.12219,0.07739l0,0
				c0.05988-0.01248,0.12622-0.01923,0.19641-0.01849l0,0c0.35065,0.00043,0.77832,0.16486,1.02478,0.59592l0,0l-0.00073,0.00085
				c0.01874,0.03287,0.05444,0.05124,0.09058,0.05124l0,0C871.70551,511.35361,871.72314,511.3497,871.73907,511.34088
				L871.73907,511.34088z"/>
		</g>
		<g>
			<path fill="#FFFFFF" d="M872.43054,510.81912c0.04919-0.02847,0.06567-0.09064,0.03662-0.13831l0,0
				c-0.26538-0.43915-0.71405-0.61914-1.09918-0.61798l0,0c-0.07581,0-0.14966,0.00641-0.22021,0.02005l0,0
				c-0.05658,0.01083-0.09229,0.06418-0.08105,0.11868l0,0c0.0105,0.05457,0.06543,0.09027,0.12091,0.07938l0,0
				c0.05695-0.01123,0.11676-0.01648,0.18036-0.01648l0,0c0.32367,0.00052,0.69672,0.14771,0.92114,0.51895l0,0l-0.00037,0.00043
				c0.01929,0.03168,0.05359,0.04935,0.08929,0.04935l0,0C872.39575,510.83319,872.41376,510.82877,872.43054,510.81912
				L872.43054,510.81912z"/>
		</g>
		<g>
			<path fill="#FFFFFF" d="M873.12274,510.297c0.04846-0.03046,0.06158-0.09302,0.03113-0.13956l0,0
				c-0.24261-0.37411-0.63562-0.5365-0.99396-0.53574l0,0c-0.06683,0-0.13409,0.00525-0.20007,0.01721l0,0
				c-0.05621,0.01093-0.09277,0.06302-0.08215,0.11792l0,0c0.01038,0.05502,0.06445,0.09106,0.12067,0.08023l0,0
				c0.05127-0.00882,0.10571-0.01321,0.16156-0.01321l0,0c0.29779,0.0004,0.61676,0.13071,0.82013,0.44186l0,0h-0.00085
				c0.02014,0.03055,0.05426,0.04694,0.08789,0.04694l0,0C873.08667,510.31265,873.10559,510.30783,873.12274,510.297
				L873.12274,510.297z"/>
		</g>
		<g>
			<path fill="#FFFFFF" d="M873.81543,509.77408c0.04639-0.03247,0.05774-0.09494,0.02502-0.14114l0,0
				c-0.22021-0.30789-0.55682-0.45313-0.88947-0.45227l0,0c-0.05774,0-0.11761,0.004-0.17834,0.01398l0,0
				c-0.05585,0.00922-0.09314,0.06183-0.08405,0.11707l0,0c0.01013,0.05453,0.06299,0.09155,0.11969,0.08182l0,0
				c0.0462-0.008,0.09381-0.01114,0.1427-0.01074l0,0c0.27344,0.00076,0.53845,0.11386,0.72052,0.36649l0,0l-0.00085,0.00043
				c0.02051,0.02805,0.05286,0.04285,0.08527,0.04285l0,0C873.77655,509.79254,873.797,509.78656,873.81543,509.77408
				L873.81543,509.77408z"/>
		</g>
		<g>
			<path fill="#FFFFFF" d="M874.50964,509.24963c0.04437-0.03528,0.0517-0.09903,0.01563-0.14236l0,0
				c-0.19727-0.23984-0.4762-0.36807-0.78284-0.36774l0,0c-0.05005,0-0.10205,0.00281-0.15619,0.01163l0,0
				c-0.05664,0.008-0.0943,0.05936-0.08612,0.11386l0,0c0.00806,0.05576,0.06061,0.09354,0.11731,0.08502l0,0
				c0.04181-0.00598,0.08313-0.00839,0.125-0.00839l0,0c0.24927,0.00116,0.45966,0.0983,0.62213,0.29266l0,0
				c0.02045,0.02499,0.05005,0.03772,0.08032,0.03772l0,0C874.46783,509.27203,874.49078,509.26486,874.50964,509.24963
				L874.50964,509.24963z"/>
		</g>
	</g>
</g>
<path fill="#DDB98E" d="M882.94318,470.56528c-0.98993-0.55487-2.13074-0.87451-3.30786-0.87451h-1.12927
	c-1.26147,0-2.48193,0.36774-3.51862,0.9985l4.36096,6.18704L882.94318,470.56528z"/>
<pattern  id="SVGID_5_" xlink:href="#New_Pattern_Swatch_11" patternTransform="matrix(5.30898 0 0 5.30898 33378.44531 35160.79297)">
</pattern>
<path fill="url(#SVGID_5_)" d="M882.94318,470.56528l-3.59479,6.31104l0.68884,0.97763l-0.68884-0.97763l-0.81537,1.42999
	l0.81537-1.42999l-4.36096-6.18704c-1.75842,1.06909-2.98749,2.89246-2.98749,4.96317v13.02612h14.14154v-13.02612
	C886.14148,473.49942,884.81311,471.61273,882.94318,470.56528z"/>
<pattern  id="SVGID_6_" xlink:href="#New_Pattern_Swatch_11" patternTransform="matrix(5.30898 0 0 5.30898 33378.44531 35160.79297)">
</pattern>
<polygon fill="url(#SVGID_6_)" points="875.02472,470.3143 873.86829,471.52045 876.7984,477.17548 878.18622,475.06448 "/>
<pattern  id="SVGID_7_" xlink:href="#New_Pattern_Swatch_11" patternTransform="matrix(5.30898 0 0 5.30898 33378.44531 35160.79297)">
</pattern>
<polygon fill="url(#SVGID_7_)" points="883.01038,470.41016 884.44202,471.64203 881.65631,477.17548 880.29041,475.25381 "/>
<pattern  id="SVGID_8_" xlink:href="#New_Pattern_Swatch_11" patternTransform="matrix(5.30898 0 0 5.30898 33378.44531 35160.79297)">
</pattern>
<polygon fill="url(#SVGID_8_)" points="875.02472,470.3143 873.86829,471.52045 876.7984,477.17548 878.18622,475.06448 "/>
<pattern  id="SVGID_9_" xlink:href="#New_Pattern_Swatch_11" patternTransform="matrix(5.30898 0 0 5.30898 33378.44531 35160.79297)">
</pattern>
<polygon fill="url(#SVGID_9_)" points="883.01038,470.41016 884.44202,471.64203 881.65631,477.17548 880.29041,475.25381 "/>
<g>
	<g>
		<polygon fill="#36162D" points="886.13983,488.22577 871.99835,488.03253 872.09064,489.39032 886.05811,489.39032 		"/>
		<path fill="#1B3352" d="M872.09064,489.39032l0.83325,17.61804h4.72998l0.46252-9.12442
			c0-0.51443,0.42657-0.93152,0.95227-0.93152c0.52661,0,0.953,0.41708,0.953,0.93152l0.46271,9.12442h4.7298l0.84393-17.61804
			H872.09064z"/>
	</g>
</g>
<ellipse fill="#DDB98E" cx="879.1886" cy="462.95468" rx="7.67616" ry="7.50643"/>
<g>
	<g>
		<path fill="#36162D" d="M876.70905,463.51923c-0.17755-0.44513-0.5799-0.65475-1.01453-0.65778l0,0
			c-0.42944,0.00052-0.86426,0.21564-1.08215,0.62823l0,0h0.00006c-0.04651,0.08752-0.1568,0.12189-0.24634,0.07648l0,0
			c-0.08972-0.04544-0.12469-0.15329-0.07825-0.24094l0,0c0.28845-0.5433,0.85583-0.82169,1.40668-0.82117l0,0
			c0.55579-0.00308,1.12152,0.29117,1.35547,0.88626l0,0c0.03638,0.09204-0.01044,0.19556-0.10449,0.23108l0,0
			c-0.02173,0.00824-0.04407,0.01215-0.06598,0.01215l0,0C876.80621,463.63348,876.73706,463.59012,876.70905,463.51923
			L876.70905,463.51923z"/>
	</g>
</g>
<g>
	<path fill="#36162D" d="M883.3952,463.51929c-0.1778-0.44528-0.58008-0.65475-1.0144-0.65784l0,0
		c-0.4292,0.00052-0.86371,0.21564-1.08142,0.62814l0,0c-0.04626,0.08762-0.15674,0.12198-0.24634,0.07663l0,0
		c-0.08966-0.04544-0.12469-0.15335-0.07825-0.24091l0,0c0.28815-0.54333,0.85535-0.82178,1.40601-0.82135l0,0
		c0.55573-0.00299,1.1214,0.29126,1.35529,0.88635l0,0c0.03644,0.09204-0.01038,0.19547-0.10449,0.23117l0,0
		c-0.02161,0.00815-0.04395,0.01205-0.06586,0.01205l0,0C883.49243,463.63354,883.42322,463.59012,883.3952,463.51929
		L883.3952,463.51929z"/>
</g>
<g>
	<g>
		<path fill="#553305" d="M873.27539,462.32156l0.53265,0.43747c0.03857,0.03128,0.09595,0.02646,0.12872-0.01083
			c0.03198-0.03812,0.0271-0.0946-0.01141-0.12674l-0.53235-0.43704c-0.03888-0.03137-0.09625-0.02646-0.12915,0.01123
			C873.23145,462.23334,873.23718,462.28986,873.27539,462.32156L873.27539,462.32156z"/>
		<path fill="#553305" d="M873.51855,462.03879l0.45178,0.51651c0.03326,0.03772,0.0907,0.04211,0.12921,0.01007
			c0.03815-0.0321,0.04236-0.08868,0.01031-0.12631l-0.45233-0.51654c-0.03271-0.03726-0.09015-0.04169-0.12885-0.00964
			C873.49072,461.94501,873.48578,462.0015,873.51855,462.03879L873.51855,462.03879z"/>
		<path fill="#553305" d="M873.81171,461.83032l0.38306,0.56778c0.02783,0.04095,0.08441,0.05261,0.12622,0.02524
			c0.04236-0.02722,0.05426-0.08255,0.02594-0.12384l-0.38306-0.56705c-0.02747-0.04169-0.08405-0.05292-0.12634-0.02563
			C873.79584,461.7337,873.78387,461.78937,873.81171,461.83032L873.81171,461.83032z"/>
		<path fill="#553305" d="M874.11322,461.63544l0.31036,0.60873c0.02258,0.04401,0.07758,0.06174,0.12268,0.04044
			c0.04498-0.0224,0.06305-0.07614,0.04102-0.12024l-0.31091-0.60834c-0.02209-0.0441-0.07666-0.06216-0.12219-0.0401
			C874.10901,461.53799,874.09094,461.59091,874.11322,461.63544L874.11322,461.63544z"/>
		<path fill="#553305" d="M874.44128,461.49872l0.24274,0.63675c0.01721,0.04654,0.0697,0.06982,0.11737,0.05252
			c0.04706-0.01691,0.07123-0.06857,0.05316-0.11469l-0.24225-0.63751c-0.0177-0.04617-0.07056-0.0694-0.1178-0.05219
			C874.44702,461.40085,874.42358,461.45218,874.44128,461.49872L874.44128,461.49872z"/>
		<path fill="#553305" d="M874.77423,461.3772l0.1731,0.65924c0.01227,0.04727,0.06177,0.07617,0.11066,0.06375
			c0.04919-0.01166,0.0788-0.06049,0.06604-0.10867l-0.17267-0.65891c-0.01221-0.04718-0.06232-0.07648-0.11151-0.06409
			C874.79132,461.28091,874.76196,461.32944,874.77423,461.3772L874.77423,461.3772z"/>
		<path fill="#553305" d="M875.12402,461.30823l0.10004,0.67245c0.00745,0.04929,0.05383,0.08264,0.10382,0.07574
			c0.04993-0.00674,0.08441-0.05243,0.07703-0.10135l-0.1001-0.67297c-0.00739-0.04852-0.05408-0.08258-0.10364-0.07541
			C875.15149,461.21402,875.11658,461.25928,875.12402,461.30823L875.12402,461.30823z"/>
		<path fill="#553305" d="M875.47711,461.25888l0.02466,0.67972c0.00153,0.04883,0.04376,0.08777,0.0943,0.08588
			c0.05078-0.00208,0.09021-0.04303,0.08856-0.09271l-0.02466-0.67929c-0.00153-0.04977-0.04425-0.08789-0.09473-0.08621
			C875.51489,461.16742,875.47546,461.20911,875.47711,461.25888L875.47711,461.25888z"/>
		<path fill="#553305" d="M875.83868,461.26453l-0.05933,0.67722c-0.00458,0.04944,0.03333,0.09271,0.08319,0.09671
			c0.04999,0.00439,0.09436-0.03204,0.09888-0.08105l0.05957-0.67764c0.00397-0.04935-0.03326-0.09229-0.08337-0.09711
			C875.88721,461.17865,875.84296,461.21518,875.83868,461.26453L875.83868,461.26453z"/>
		<path fill="#553305" d="M876.19971,461.29855l-0.14758,0.66449c-0.01068,0.0481,0.02118,0.09579,0.07007,0.10626
			c0.04919,0.01001,0.09796-0.02045,0.10864-0.06854l0.14758-0.66492c0.01038-0.0481-0.02136-0.09537-0.07007-0.10626
			C876.25867,461.21927,876.21033,461.25006,876.19971,461.29855L876.19971,461.29855z"/>
		<path fill="#553305" d="M876.55676,461.39444l-0.24469,0.63635c-0.01764,0.04578,0.00641,0.09787,0.05322,0.11508
			c0.04761,0.0173,0.1001-0.00598,0.11816-0.05209l0.24438-0.63678c0.01807-0.04617-0.0061-0.09753-0.05322-0.11517
			C876.62732,461.32471,876.57446,461.34824,876.55676,461.39444L876.55676,461.39444z"/>
		<path fill="#553305" d="M876.89978,461.52957l-0.34052,0.59302c-0.02484,0.04303-0.00928,0.09711,0.03503,0.12158
			c0.0434,0.02405,0.09906,0.00882,0.12378-0.03412l0.34119-0.59268c0.02405-0.04327,0.00854-0.09778-0.03528-0.12234
			C876.98041,461.47141,876.92426,461.48672,876.89978,461.52957L876.89978,461.52957z"/>
		<path fill="#553305" d="M877.21832,461.72888l-0.43713,0.52927c-0.03113,0.03851-0.02502,0.0947,0.01392,0.12549
			c0.03931,0.03094,0.09674,0.02539,0.12885-0.01358l0.4364-0.5289c0.03149-0.03845,0.02533-0.09506-0.01404-0.12592
			C877.30688,461.68427,877.24988,461.68994,877.21832,461.72888L877.21832,461.72888z"/>
		<path fill="#553305" d="M877.49933,461.96622l-0.51764,0.45395c-0.03735,0.03329-0.04065,0.08945-0.00702,0.12592
			c0.03375,0.03735,0.09155,0.04053,0.12964,0.00723l0.51721-0.45386c0.03723-0.03339,0.04059-0.08948,0.00696-0.12634
			C877.59485,461.93652,877.53693,461.93335,877.49933,461.96622L877.49933,461.96622z"/>
		<path fill="#553305" d="M877.73145,462.25372l-0.58453,0.36899c-0.04218,0.02689-0.05408,0.08215-0.02753,0.1235
			c0.02808,0.04135,0.08429,0.05334,0.1264,0.02689l0.58441-0.36932c0.04272-0.02646,0.05493-0.08221,0.0271-0.1235
			C877.8302,462.23849,877.77356,462.22726,877.73145,462.25372L877.73145,462.25372z"/>
		<path fill="#553305" d="M879.96185,462.32156l0.53229,0.43747c0.03857,0.03128,0.09631,0.02646,0.12866-0.01083
			c0.03241-0.03812,0.02753-0.0946-0.01099-0.12674l-0.53271-0.43704c-0.03851-0.03137-0.09589-0.02646-0.12885,0.01123
			C879.91785,462.23334,879.92242,462.28986,879.96185,462.32156L879.96185,462.32156z"/>
		<path fill="#553305" d="M880.20465,462.03879l0.45264,0.51651c0.03241,0.03772,0.09027,0.04211,0.12836,0.01007
			c0.03864-0.0321,0.04303-0.08868,0.01025-0.12631l-0.45197-0.51654c-0.03278-0.03726-0.09045-0.04169-0.12921-0.00964
			C880.17682,461.94501,880.17169,462.0015,880.20465,462.03879L880.20465,462.03879z"/>
		<path fill="#553305" d="M880.49817,461.83032l0.383,0.56778c0.02753,0.04095,0.08459,0.05209,0.1264,0.02524
			c0.04218-0.02722,0.05377-0.08255,0.02631-0.12427l-0.38306-0.56662c-0.02802-0.04169-0.0849-0.05292-0.12671-0.02563
			C880.48187,461.7337,880.47034,461.78937,880.49817,461.83032L880.49817,461.83032z"/>
		<path fill="#553305" d="M880.79962,461.63544l0.31036,0.60873c0.02228,0.04401,0.07721,0.06174,0.12219,0.04044
			c0.04517-0.0224,0.06372-0.07614,0.04114-0.12024l-0.31091-0.60834c-0.02209-0.0441-0.07666-0.06216-0.12213-0.0401
			C880.79504,461.53799,880.77704,461.59091,880.79962,461.63544L880.79962,461.63544z"/>
		<path fill="#553305" d="M881.12732,461.49872l0.24225,0.63675c0.01807,0.04654,0.07025,0.06982,0.11731,0.05252
			c0.04767-0.01691,0.07184-0.06857,0.05414-0.11469l-0.24316-0.63751c-0.01721-0.04617-0.0697-0.0694-0.11676-0.05219
			C881.13379,461.40085,881.10925,461.45218,881.12732,461.49872L881.12732,461.49872z"/>
		<path fill="#553305" d="M881.46063,461.3772l0.17279,0.65924c0.01227,0.04727,0.06226,0.07617,0.1106,0.06375
			c0.04919-0.01166,0.07886-0.06049,0.06659-0.10867l-0.17322-0.65891c-0.01221-0.04718-0.06195-0.07648-0.11078-0.06409
			C881.47742,461.28091,881.44806,461.32944,881.46063,461.3772L881.46063,461.3772z"/>
		<path fill="#553305" d="M881.80969,461.30823l0.10083,0.67245c0.00665,0.04929,0.05377,0.08264,0.10345,0.07574
			c0.04987-0.00674,0.08435-0.05243,0.07703-0.10135l-0.09961-0.67297c-0.00787-0.04852-0.05426-0.08258-0.10413-0.07541
			C881.83716,461.21402,881.80267,461.25928,881.80969,461.30823L881.80969,461.30823z"/>
		<path fill="#553305" d="M882.16315,461.25888l0.02466,0.67972c0.00159,0.04883,0.04431,0.08777,0.09467,0.08588
			c0.05048-0.00208,0.08984-0.04303,0.08777-0.09271l-0.02417-0.67929c-0.0025-0.04977-0.04437-0.08789-0.09473-0.08621
			C882.20099,461.16742,882.16156,461.20911,882.16315,461.25888L882.16315,461.25888z"/>
		<path fill="#553305" d="M882.52478,461.26453l-0.05933,0.67722c-0.00366,0.04944,0.03271,0.09271,0.08313,0.09671
			c0.05005,0.00439,0.09473-0.03204,0.09888-0.08105l0.05951-0.67764c0.00446-0.04935-0.03284-0.09229-0.08295-0.09711
			C882.5733,461.17865,882.52899,461.21518,882.52478,461.26453L882.52478,461.26453z"/>
		<path fill="#553305" d="M882.8858,461.29855l-0.14758,0.66449c-0.01074,0.0481,0.02081,0.09579,0.07001,0.10626
			c0.04974,0.01041,0.09802-0.02005,0.1087-0.06854l0.14758-0.66492c0.01025-0.04776-0.02087-0.09537-0.07007-0.10626
			C882.94476,461.2196,882.89642,461.25006,882.8858,461.29855L882.8858,461.29855z"/>
		<path fill="#553305" d="M883.24286,461.39444l-0.24475,0.63635c-0.01807,0.04651,0.0061,0.09787,0.05328,0.11508
			c0.04755,0.0173,0.1001-0.00598,0.1178-0.05209l0.24475-0.63678c0.01801-0.04617-0.00616-0.09753-0.05328-0.11517
			C883.31305,461.32471,883.26056,461.34824,883.24286,461.39444L883.24286,461.39444z"/>
		<path fill="#553305" d="M883.58582,461.52957l-0.34082,0.59302c-0.02466,0.04303-0.00891,0.09711,0.03479,0.12158
			c0.04395,0.02405,0.09961,0.00882,0.12433-0.03412l0.34076-0.59268c0.02515-0.04285,0.00946-0.09744-0.03448-0.12234
			C883.66614,461.47141,883.61084,461.48672,883.58582,461.52957L883.58582,461.52957z"/>
		<path fill="#553305" d="M883.90405,461.72888l-0.43677,0.52927c-0.03113,0.03851-0.02539,0.0947,0.01379,0.12549
			c0.03937,0.03094,0.09686,0.02539,0.12891-0.01358l0.4364-0.5289c0.03186-0.03845,0.02539-0.09506-0.01367-0.12592
			C883.99298,461.68427,883.93555,461.68994,883.90405,461.72888L883.90405,461.72888z"/>
		<path fill="#553305" d="M884.18536,461.96622l-0.51709,0.45395c-0.03821,0.03329-0.0412,0.08945-0.00757,0.12592
			c0.03381,0.03735,0.09125,0.04053,0.12885,0.00723l0.51746-0.45386c0.03821-0.03339,0.0412-0.08948,0.00757-0.12634
			C884.28076,461.93652,884.22266,461.93335,884.18536,461.96622L884.18536,461.96622z"/>
		<path fill="#553305" d="M884.41693,462.25372l-0.58398,0.36942c-0.04254,0.02646-0.05493,0.08173-0.02698,0.12347
			c0.02698,0.04095,0.08374,0.05368,0.12628,0.02649l0.58398-0.36932c0.04181-0.02646,0.05408-0.08221,0.0271-0.1235
			C884.51624,462.23849,884.45935,462.22726,884.41693,462.25372L884.41693,462.25372z"/>
	</g>
</g>
<ellipse fill="#DDB98E" cx="878.92346" cy="465.11816" rx="1.18469" ry="1.08748"/>
<path fill="#553305" d="M886.82135,457.37039c-1.4906-2.66992-6.51221-4.86218-9.52142-3.83359
	c-1.14331,0.39142-1.55383,1.47528-2.49542,1.93002c-0.85779,0.41501-1.89496-0.12796-2.69952,0.47037
	c-1.61456,1.2002-1.08093,4.54059-0.86566,6.20554c0.04987,0.38885,0.17786,1.38864,0.31702,1.74545
	c0.06848-0.08569,0.56543,0.19699,0.50714-0.22809c-0.33325-2.44492,1.44806-4.88217,2.95685-6.64539
	c0.92834,1.41437,2.72174,2.47455,4.36658,2.85226c1.23029,0.2832,5.21881,1.36145,4.85291,3.79871
	c0.71356-0.96722,0.82104-1.87265,0.29688-2.69223c-0.01593-0.01407-0.01709-0.01407-0.00189,0
	c1.30359,0.78073,2.19958,3.32425,1.34619,4.67838c0.0119-0.01041,0.02307-0.02124,0.03357-0.03204
	c0.48682-0.83334,1.04175-1.66534,1.3985-2.56201C888.03479,461.24564,887.77679,459.08109,886.82135,457.37039z"/>
<g>
	<path fill="#FFFFFF" d="M879.01123,466.9519c-0.98505-0.02844-2.0907,0.23178-2.0907,0.23178
		c0.15094,0.89099,1.008,1.57513,2.0473,1.57513c1.03912,0,1.89624-0.68414,2.04712-1.57513
		C881.01495,467.18369,880.02496,466.9808,879.01123,466.9519z"/>
</g>
<path fill="#DDB98E" d="M886.68201,462.7189l-0.12518,1.63416C888.17993,464.10797,887.76086,462.45544,886.68201,462.7189z"/>
<path fill="#DDB98E" d="M871.79218,464.35788l-0.13287-1.6293C870.54376,462.41574,870.10089,464.13409,871.79218,464.35788z"/>
<polygon fill="#7992AD" points="872.45959,506.23444 872.75006,508.52817 878.09552,508.41705 878.00452,506.4935 "/>
<polygon fill="#7992AD" points="880.06934,506.40045 880.34076,508.35782 885.32202,508.45801 885.66699,506.40854 "/>
<g>
	
		<pattern  id="SVGID_10_" xlink:href="#New_Pattern_Swatch_11" patternTransform="matrix(5.30898 0 0 5.30898 33378.44531 35160.79297)">
	</pattern>
	<path fill="url(#SVGID_10_)" d="M869.2439,482.08734c-0.00262-3.36804,1.20844-6.96625,4.15277-9.98221l0,0v0.00043
		l0.94867,0.88501c-2.70306,2.77463-3.78717,6.02225-3.79016,9.09677l0,0c-0.00238,3.0708,1.10321,5.95969,2.7652,7.91812l0,0
		l-1.01044,0.81726C870.43634,488.60559,869.24701,485.45697,869.2439,482.08734L869.2439,482.08734z"/>
</g>
<g>
	
		<pattern  id="SVGID_11_" xlink:href="#New_Pattern_Swatch_11" patternTransform="matrix(5.30898 0 0 5.30898 33378.44531 35160.79297)">
	</pattern>
	<path fill="url(#SVGID_11_)" d="M888.98944,482.08734c0.00293-3.36804-1.2085-6.96625-4.15253-9.98221l0,0v0.00043
		l-0.94897,0.88501c2.70288,2.77463,3.78717,6.02225,3.78961,9.09677l0,0c0.0033,3.0708-1.10266,5.95969-2.7652,7.91812l0,0
		l1.01038,0.81726C887.7973,488.60559,888.98663,485.45697,888.98944,482.08734L888.98944,482.08734z"/>
</g>
<ellipse fill="#36162D" cx="879.31763" cy="477.76898" rx="0.30058" ry="0.29393"/>
<ellipse fill="#36162D" cx="879.31763" cy="480.061" rx="0.30058" ry="0.29434"/>
<ellipse fill="#36162D" cx="879.31763" cy="482.35281" rx="0.30058" ry="0.29426"/>
<ellipse fill="#36162D" cx="879.31763" cy="484.64529" rx="0.30058" ry="0.29393"/>
<ellipse fill="#36162D" cx="879.31763" cy="486.93698" rx="0.30058" ry="0.29434"/>
<g>
	<g>
		<path fill="#DDCB45" d="M925.19403,491.63196c0.62708-1.63257,0.98889-3.56128,0.98834-5.56378l0,0
			c0.00037-2.26556-0.461-4.62234-1.49341-6.77216l0,0c-1.03387-2.15088-2.63037-4.09836-4.93982-5.58661l0,0l0.88904-1.40955
			c2.57501,1.65649,4.38641,3.86169,5.53937,6.26685l0,0c1.15448,2.40622,1.65894,5.00888,1.65924,7.50146l0,0
			c-0.00049,2.20474-0.39386,4.32578-1.10028,6.16794l0,0L925.19403,491.63196L925.19403,491.63196z M919.74915,473.70941
			L919.74915,473.70941L919.74915,473.70941v0.00009V473.70941L919.74915,473.70941z"/>
	</g>
	<g>
		<path fill="#DDCB45" d="M909.53827,487.96976c0.03809-0.66867,0.07269-1.6741,0.19421-2.86966l0,0
			c0.12183-1.19702,0.33112-2.59024,0.72314-4.06329l0,0c0.7821-2.94235,2.3078-6.22421,5.33258-8.82477l0,0l1.07233,1.27271
			c-2.02869,1.74542-3.30682,3.82846-4.12958,5.91531l0,0c-0.8219,2.08548-1.17999,4.1698-1.35272,5.87094l0,0
			c-0.11548,1.13544-0.1488,2.0947-0.18823,2.79422l0,0L909.53827,487.96976L909.53827,487.96976z"/>
	</g>
	<g>
		<path fill="#DDB98E" d="M922.45435,474.46158c-0.60297-2.03427-2.06903-3.47089-3.7829-3.47089h-0.74725
			c-1.72797,0-3.20496,1.46085-3.79755,3.52182c-0.17957,0.62375-0.27893,1.30161-0.27893,2.01224v12.35406
			c0,3.05612,1.82532,5.53406,4.07648,5.53406h0.74725c2.25177,0,4.07611-2.47794,4.07611-5.53406v-12.35406
			C922.74756,475.79526,922.64301,475.09937,922.45435,474.46158z"/>
	</g>
	<g>
		<path fill="#36162D" d="M916.53717,495.65353v14.54456c0,0.85068-0.50305,1.54028-1.12366,1.54028
			c-0.62122,0-1.12433-0.68961-1.12433-1.54028v-14.54456H916.53717z"/>
	</g>
	<g>
		<path fill="#36162D" d="M920.05853,495.65353v14.54456c0,0.85068,0.50391,1.54028,1.12451,1.54028
			c0.62079,0,1.12402-0.68961,1.12402-1.54028v-14.54456H920.05853z"/>
	</g>
	<path fill="#563305" d="M916.74359,453.41412c-2.0752,0.37088-4.03735,1.49255-5.22107,3.35501
		c-1.08545,1.70816-1.85742,3.7739-2.17328,5.83487c-0.07794,0.51099-0.12646,6.19571,0.20715,6.12283
		c5.36359-1.16458,11.56714-2.46045,16.93195-0.8205c1.03851-4.73215,0.07605-10.57922-3.81396-13.32245
		C921.03528,453.42767,918.83191,453.04102,916.74359,453.41412z"/>
	<ellipse fill="#DDB98E" cx="918.37177" cy="462.58908" rx="7.50136" ry="7.57846"/>
	<path fill="#563305" d="M918.3717,453.82541c-3.80884,0-6.95215,3.38446-7.4353,7.76761h10.43512l-0.91589-2.63336
		l-0.58447-0.86478l0.58447,0.86478l-0.20813-0.59567l0.20813,0.59567l1.77576,2.63336h3.57574
		C925.32391,457.20987,922.1806,453.82541,918.3717,453.82541z"/>
	<g>
		<path fill="#F0262B" d="M916.46942,466.88184c0.14771,1.16852,0.98511,2.06537,2.00043,2.06537
			c1.01514,0,1.85278-0.89685,2.00061-2.06537H916.46942z"/>
		<path fill="#FFFFFF" d="M916.46942,466.85861c0.14771,0.89978,0.98511,1.59085,2.00043,1.59085
			c1.01514,0,1.85278-0.69107,2.00061-1.59085H916.46942z"/>
		<path fill="#F0262B" d="M916.45203,466.88184c0.53198-0.44772,1.44263-0.56415,2.01447-0.12161
			c0.4502-0.43243,1.61633-0.37796,2.00397,0.12161H916.45203z"/>
	</g>
	<g>
		<g>
			<path fill="#36162D" d="M913.71765,463.83746l0.00012,0.00009c-0.08917-0.043-0.12689-0.15067-0.08435-0.24057l0,0
				c0.04242-0.08994,0.14905-0.12817,0.2381-0.08517l0,0l0.29266,0.14108c0.29926-0.44955,0.79901-0.67929,1.28546-0.67874l0,0
				c0.54303-0.0032,1.09576,0.29404,1.32373,0.89502l0,0c0.0354,0.09302-0.01031,0.19751-0.10242,0.23331l0,0
				c-0.09216,0.03589-0.19537-0.01047-0.2309-0.10339l0,0c-0.17303-0.44958-0.56592-0.66101-0.99042-0.66409l0,0
				c-0.41937,0.00052-0.84418,0.2178-1.05652,0.63449l0,0l-0.07941,0.1553L913.71765,463.83746L913.71765,463.83746z"/>
		</g>
	</g>
	<g>
		<g>
			<path fill="#36162D" d="M922.32001,463.96948c-0.21246-0.4166-0.63715-0.63403-1.05676-0.63449l0,0
				c-0.42468,0.00317-0.81787,0.2146-0.99121,0.66418l0,0c-0.03558,0.0929-0.13898,0.1391-0.23102,0.1033l0,0
				c-0.09204-0.03598-0.13776-0.14047-0.10223-0.2334l0,0c0.22833-0.60089,0.78137-0.89804,1.32446-0.89502l0,0
				c0.48657-0.00037,0.98627,0.22937,1.28558,0.67883l0,0l0.29266-0.14108c0.08899-0.04291,0.19562-0.00485,0.2381,0.08517l0,0
				c0.04242,0.09,0.00476,0.19757-0.08423,0.24057l0,0l-0.59601,0.28732L922.32001,463.96948L922.32001,463.96948z"/>
		</g>
	</g>
	<g>
		<g>
			<g>
				<g>
					<path fill="#36162D" d="M915.49011,465.67426c-0.78699-0.00101-1.45471-0.19977-1.93658-0.53955l0,0
						c-0.48114-0.33752-0.77533-0.82745-0.77435-1.3714l0,0c-0.00488-0.53766,0.27985-0.96262,0.7052-1.21103l0,0
						c0.42419-0.2529,0.97729-0.36002,1.58081-0.36047l0,0c0.5874,0.00046,1.24347,0.07068,1.77966,0.27045l0,0
						c0.52753,0.19095,0.98639,0.55661,0.98639,1.13382l0,0c0,0.01367,0,0.02585,0,0.03735l0,0l-0.21552-0.00394l0.21552,0.00784
						c-0.0434,1.20987-1.08765,2.03693-2.32642,2.03693l0,0C915.50012,465.67426,915.49536,465.67426,915.49011,465.67426
						L915.49011,465.67426z M913.71082,462.90472c-0.32288,0.19833-0.49799,0.45612-0.50232,0.85858l0,0
						c0.00134,0.39728,0.2063,0.75812,0.59821,1.0365l0,0c0.39209,0.27695,0.97174,0.45996,1.68341,0.4595l0,0
						c1.0589-0.00656,1.87262-0.66272,1.91101-1.63638l0,0l0,0c0-0.0101,0.00037-0.01892,0.00037-0.02686l0,0
						c0.00037-0.33578-0.24762-0.56836-0.71228-0.74802l0,0c-0.45477-0.17117-1.0741-0.24277-1.62402-0.24231l0,0
						c-0.00256,0-0.00482,0-0.00702,0l0,0C914.51208,462.60574,914.03186,462.71069,913.71082,462.90472L913.71082,462.90472z"/>
				</g>
				<path fill="#36162D" d="M915.74774,462.26913c-0.14648-0.15332-1.85242-0.06195-2.1156-0.06195l-0.54883,0.05969
					c-0.44312,0-0.80255,0.27921-0.80255,0.62427c0,0.29935,0.27283,0.5495,0.63562,0.60883
					C913.15381,462.94553,913.77557,462.42365,915.74774,462.26913z"/>
			</g>
			<g>
				<g>
					<path fill="#36162D" d="M918.97046,463.63733L918.97046,463.63733c-0.00165-0.01749-0.00165-0.0307-0.00165-0.04126l0,0
						c0.00073-0.57721,0.43884-0.94287,0.94202-1.13382l0,0c0.5127-0.19977,1.13959-0.26999,1.70148-0.27045l0,0
						c0.57532,0.00046,1.10358,0.10757,1.50867,0.36047l0,0c0.40656,0.24841,0.67865,0.67337,0.67383,1.21103l0,0
						c0.00134,0.54395-0.28021,1.03387-0.73914,1.3714l0,0c-0.46051,0.33978-1.09839,0.53854-1.84918,0.53955l0,0
						c-0.00562,0-0.01044,0-0.01471,0l0,0C920.00806,465.67325,919.01056,464.8472,918.97046,463.63733L918.97046,463.63733z
						 M921.20648,465.25931c0.67957,0.00046,1.23322-0.18256,1.60681-0.4595l0,0c0.37537-0.27838,0.57086-0.63922,0.57141-1.0365
						l0,0c-0.00439-0.40247-0.1712-0.66025-0.47888-0.85858l0,0c-0.30841-0.19449-0.76953-0.29944-1.29352-0.29898l0,0
						c-0.5257-0.00046-1.11792,0.07114-1.55286,0.24231l0,0c-0.4433,0.17966-0.67963,0.41223-0.67963,0.74802l0,0
						c0,0.01147,0,0.01721,0,0.02066l0,0l-0.20477,0.01276l0.20514-0.00656
						C919.41675,464.59659,920.19446,465.25275,921.20648,465.25931L921.20648,465.25931z"/>
				</g>
				<path fill="#36162D" d="M920.96051,462.26913c0.1391-0.15332,1.76801-0.06195,2.02045-0.06195l0.52411,0.05969
					c0.42365,0,0.76642,0.27921,0.76642,0.62427c0,0.29935-0.26074,0.5495-0.60742,0.60883
					C923.43781,462.94553,922.84277,462.42365,920.96051,462.26913z"/>
			</g>
			<path fill="#36162D" d="M917.63745,463.44467c0.02875,0.20322-0.06177,0.50049-0.15863,0.72476
				c0.03339-0.02679,0.2428,0.0123,0.27582-0.02863c0.75049-0.91306,1.4245,0.1239,1.4245,0.1239l0.0152-0.83499
				L917.63745,463.44467z"/>
		</g>
	</g>
	<g>
		<path fill="#DDCB45" d="M918.14581,481.94696c-6.27869,0-11.36847,5.49423-11.36847,12.27368
			c0,0.39865,0.01855,0.79285,0.05383,1.18173c3.16669,1.22433,7.07904,1.94775,11.31464,1.94775s8.14801-0.72342,11.31506-1.94775
			c0.0343-0.38889,0.05341-0.78308,0.05341-1.18173C929.51428,487.44119,924.4245,481.94696,918.14581,481.94696z"/>
	</g>
	<g>
		<path fill="#FFFFFF" d="M920.63031,475.5726c0.78351-0.13162,1.20007-1.16147,1.38037-2.21512
			c-0.21423-0.41522-0.46832-0.79007-0.75635-1.11148c-0.48022,1.18701-1.30713,1.82278-2.20081,1.97281
			C919.30542,475.05899,919.90601,475.69467,920.63031,475.5726z"/>
		<path fill="#DDCB45" d="M922.74756,476.52475c0-0.72949-0.10455-1.42538-0.29321-2.06317
			c-0.11688-0.39279-0.26727-0.76212-0.44366-1.1041c-0.1803,1.05365-0.59686,2.0835-1.38037,2.21512
			c-0.7243,0.12207-1.32489-0.51361-1.57678-1.35379c-0.43585,0.07333-0.88727,0.02896-1.32227-0.12161
			c-0.78253,2.01453-2.57837,1.09134-3.091-0.84412c-0.20868,0.38544-0.38342,0.80685-0.51361,1.25943
			c-0.17957,0.62375-0.27893,1.30161-0.27893,2.01224v7.15097h8.89984V476.52475z"/>
		<path fill="#FFFFFF" d="M917.73126,474.0972c-0.86206-0.29843-1.66022-1.02057-2.1369-2.11319
			c-0.36768,0.34854-0.68872,0.77927-0.9541,1.26907C915.15289,475.18854,916.94873,476.11172,917.73126,474.0972z"/>
	</g>
	<g>
		<rect x="913.84766" y="481.38687" fill="#36162D" width="8.89988" height="1.43542"/>
	</g>
	<circle fill="#36162D" cx="918.4928" cy="475.62918" r="0.30094"/>
	<circle fill="#36162D" cx="918.4928" cy="477.17709" r="0.30094"/>
	<circle fill="#36162D" cx="918.4928" cy="478.72449" r="0.30094"/>
	<rect x="917.17078" y="469.91257" fill="#DDB98E" width="2.13912" height="1.58418"/>
	<g>
		<path fill="#36162D" d="M912.62927,511.1199c-0.08862,0.10751-0.37115,0.42407-0.29376,0.57501
			c0.07135,0.1391,0.68732,0.18094,0.81683,0.15723c0.85266-0.19629,1.69031-0.46667,2.27917-0.6506
			c-0.53363-0.42014-1.12164-0.76074-1.73907-0.98285C913.30829,510.47159,912.9082,510.78058,912.62927,511.1199z"/>
		<path fill="#36162D" d="M911.07623,511.67123c0.09052-0.01312,0.1792-0.03735,0.26605-0.07379
			c0.44843-0.186,0.78027-0.59387,1.11932-0.92444c0.17548-0.17209,0.42719-0.46088,0.66382-0.62338
			c-0.09161-0.02151-0.18512-0.03381-0.27771-0.05048C912.07135,510.37756,911.45905,510.97107,911.07623,511.67123z"/>
		<path fill="#36162D" d="M916.53717,510.05017c-0.8703-0.48029-1.95349-0.61557-3.01892-0.30783
			c0.92206,0.25644,1.79364,0.58994,2.42462,1.28702c0.19385-0.07587,0.414-0.17371,0.5943-0.26071V510.05017z"/>
		<g>
			<path fill="#F0812B" d="M915.83771,511.06982c0.03467-0.01266,0.0686-0.02588,0.10516-0.04047
				c-0.63098-0.69708-1.50256-1.03058-2.42462-1.28702c-0.05597,0.0163-0.11255,0.02859-0.16858,0.047
				c-0.17474,0.05878-0.34076,0.13129-0.50195,0.20981c0.09259,0.01666,0.1861,0.02896,0.27771,0.05048h0.00092
				c-0.23718,0.16205-0.4884,0.45093-0.66473,0.62338c-0.33905,0.33057-0.6709,0.73843-1.11932,0.92444
				c-0.08685,0.03644-0.17554,0.06067-0.26605,0.07379c-0.07031,0.12863-0.13409,0.26035-0.18903,0.39554
				c0.14825,0.02057,0.14825,0.02057,0,0c-0.17249,0.42627-0.2663,0.88019-0.26447,1.33966l5.91443-1.98325v-0.65454
				C916.32257,510.87186,916.05139,510.99127,915.83771,511.06982z M912.62927,511.1199
				c0.27893-0.33932,0.67902-0.64832,1.06372-0.90121c0.61688,0.22211,1.2049,0.56271,1.73853,0.98285
				c-0.58929,0.18439-1.42651,0.45432-2.2796,0.6506c-0.13074,0.02371-0.74506-0.01813-0.81641-0.15723
				C912.25812,511.54398,912.54065,511.22742,912.62927,511.1199z"/>
		</g>
	</g>
	<g>
		<path fill="#36162D" d="M923.96692,511.1199c0.08813,0.10751,0.37061,0.42407,0.29327,0.57501
			c-0.07123,0.1391-0.68744,0.18094-0.8172,0.15723c-0.85211-0.19629-1.68994-0.46667-2.27826-0.6506
			c0.53363-0.42014,1.12158-0.76074,1.73846-0.98285C923.28772,510.47159,923.68835,510.78058,923.96692,511.1199z"/>
		<path fill="#36162D" d="M925.51941,511.67123c-0.0896-0.01312-0.17896-0.03735-0.26636-0.07379
			c-0.44794-0.186-0.77905-0.59387-1.11804-0.92444c-0.17676-0.17209-0.42792-0.46088-0.66479-0.62338
			c0.09222-0.02151,0.18518-0.03381,0.27802-0.05048C924.5249,510.37756,925.13696,510.97107,925.51941,511.67123z"/>
		<path fill="#36162D" d="M920.05853,510.05017c0.87079-0.48029,1.95435-0.61557,3.01886-0.30783
			c-0.92206,0.25644-1.79309,0.58994-2.42444,1.28702c-0.19342-0.07587-0.41364-0.17371-0.59442-0.26071V510.05017z"/>
		<g>
			<path fill="#F0812B" d="M920.05853,510.76865v0.65454l5.91528,1.98325c0.00098-0.45947-0.0929-0.91339-0.26538-1.33966
				c-0.14734,0.02057-0.14734,0.02057,0,0c-0.05432-0.13519-0.11816-0.26691-0.18903-0.39554
				c-0.0896-0.01312-0.17896-0.03735-0.26636-0.07379c-0.44794-0.186-0.77905-0.59387-1.11804-0.92444
				c-0.17676-0.17245-0.42828-0.46133-0.66553-0.62338h0.00073c0.09222-0.02151,0.18518-0.03381,0.27802-0.05048
				c-0.1615-0.07852-0.3266-0.15103-0.50226-0.20981c-0.05542-0.0184-0.112-0.0307-0.16858-0.047
				c-0.92206,0.25644-1.79309,0.58994-2.42444,1.28702c0.03632,0.01459,0.07086,0.0278,0.10516,0.04047
				C920.54431,510.99127,920.27313,510.87186,920.05853,510.76865z M924.26019,511.69492
				c-0.07123,0.1391-0.68573,0.18094-0.81653,0.15723c-0.85242-0.19629-1.6897-0.46622-2.27893-0.6506
				c0.53363-0.42014,1.12158-0.76074,1.73846-0.98285c0.38452,0.2529,0.78516,0.56189,1.06372,0.90121
				C924.05505,511.22742,924.33752,511.54398,924.26019,511.69492z"/>
		</g>
	</g>
</g>
<path fill="#606C78" d="M366.42398,454.20822l21.77121-14.94177c1.21884-0.83624,2.80618-0.83624,4.02502,0.00021l21.77084,14.94156
	H366.42398z"/>
<polygon fill="#4F5A66" points="465.03802,468.63962 414.63358,468.63962 412.12558,462.73779 467.54681,462.73779 "/>
<rect x="412.00525" y="469.86908" fill="#56626E" width="52.31595" height="43.03322"/>
<rect x="423.35281" y="493.72165" fill="#505B67" width="8.59973" height="12.78704"/>
<rect x="435.53552" y="493.72165" fill="#505B67" width="8.60015" height="12.78704"/>
<rect x="447.71863" y="493.72165" fill="#505B67" width="8.60015" height="12.78704"/>
<rect x="423.35281" y="476.50842" fill="#505B67" width="8.59973" height="12.787"/>
<rect x="435.53552" y="476.50842" fill="#505B67" width="8.60015" height="12.787"/>
<rect x="447.71863" y="476.50842" fill="#505B67" width="8.60015" height="12.787"/>
<polygon fill="#56626E" points="315.37698,468.63962 365.78146,468.63962 368.2894,462.73779 312.86865,462.73779 "/>
<rect x="316.09384" y="469.86908" fill="#56626E" width="52.31511" height="43.03322"/>
<rect x="348.46207" y="493.72165" fill="#505B67" width="8.60015" height="12.78704"/>
<rect x="336.27936" y="493.72165" fill="#505B67" width="8.59973" height="12.78704"/>
<rect x="324.09625" y="493.72165" fill="#505B67" width="8.60011" height="12.78704"/>
<rect x="348.46207" y="476.50842" fill="#505B67" width="8.60015" height="12.787"/>
<rect x="336.27936" y="476.50842" fill="#505B67" width="8.59973" height="12.787"/>
<rect x="324.09625" y="476.50842" fill="#505B67" width="8.60011" height="12.787"/>
<polygon fill="#4F5A66" points="415.66876,461.50827 365.26385,461.50827 362.75632,455.60666 418.1767,455.60666 "/>
<rect x="365.98111" y="462.73779" fill="#606C78" width="48.97081" height="50.16452"/>
<rect x="373.98355" y="468.1478" fill="#505B67" width="8.59969" height="20.16409"/>
<rect x="386.16626" y="468.1478" fill="#505B67" width="8.60011" height="20.16409"/>
<rect x="398.3494" y="468.1478" fill="#505B67" width="8.60015" height="20.16409"/>
<rect x="373.98355" y="493.72165" fill="#505B67" width="8.59969" height="12.78704"/>
<rect x="386.16626" y="493.72165" fill="#505B67" width="8.60011" height="12.78704"/>
<rect x="398.3494" y="493.72165" fill="#505B67" width="8.60015" height="12.78704"/>
</svg>
