<?xml version="1.0" encoding="utf-8"?>
<!-- Generator: Adobe Illustrator 18.1.1, SVG Export Plug-In . SVG Version: 6.00 Build 0)  -->
<svg version="1.1" id="Layer_2" xmlns="http://www.w3.org/2000/svg" xmlns:xlink="http://www.w3.org/1999/xlink" x="0px" y="0px"
	 width="538.315px" height="1432.707px" viewBox="-10 -239.707 538.315 1432.707"
	 enable-background="new -10 -239.707 538.315 1432.707" xml:space="preserve">
<g>
	<g>
		<path fill="#DDB98E" d="M170.333,1133.651l0.008-9.609c-15.962-10.297-44.148-7.832-64.928-2.58
			c-2.193,0.547-4.379,1.271-6.581,2.092l6.749,19.34L170.333,1133.651z"/>
		<path fill="#F0812B" d="M105.589,1142.893l2.721,7.84L105.589,1142.893l-3.801,0.547L105.589,1142.893l-6.736-19.34
			c-28.858,10.756-74.578,47.902-59.388,69.447l130.868-45.855l0.008-13.494L105.589,1142.893z"/>
		<rect x="133.175" y="1064.908" fill="#DDB98E" width="37.166" height="65.945"/>
	</g>
	<g>
		<path fill="#DDB98E" d="M299.604,1133.099l-0.02-9.609c15.963-10.297,44.158-7.832,64.939-2.58
			c2.183,0.547,4.389,1.271,6.57,2.092l-6.738,19.34L299.604,1133.099z"/>
		<path fill="#F0812B" d="M364.356,1142.342l-2.732,7.84L364.356,1142.342l3.793,0.547L364.356,1142.342l6.729-19.34
			c28.867,10.756,74.588,47.902,59.389,69.447l-130.869-45.855l-0.02-13.494L364.356,1142.342z"/>
		<rect x="299.584" y="1064.357" fill="#DDB98E" width="37.176" height="65.945"/>
	</g>
	<g>
		<path fill="#F4EFED" d="M314.033,141.313H155.524c-46.391,0-83.988,35.512-83.988,79.303v333.98l319.296,26.354l7.2-360.334
			C398.032,176.825,360.432,141.313,314.033,141.313z"/>
		<path display="none" fill="#DDB98E" d="M314.033,141.313H155.524c-46.391,0-83.988,35.512-83.988,79.303v333.98l319.296,26.354
			l7.2-360.334C398.032,176.825,360.432,141.313,314.033,141.313z"/>
		<g>
			<g>
				<g>
					<path fill="#F4EFED" d="M295.877,405.239c-45.088,9.365-89,9.243-131.78,0V148.233l141.78,1L295.877,405.239z"/>
				</g>
			</g>
			<g>
				<g>
					<g>
						<polygon fill="#F0262B" points="220.265,189.857 184.064,339.46 229.987,398.33 273.194,344.321 236.468,189.857 						"/>
					</g>
				</g>
				<g>
					<g>
						<path fill="#C11623" d="M236.198,197.959h-15.122c-5.22,0-9.451-4.232-9.451-9.452v-8.341c0-5.22,4.231-9.451,9.451-9.451
							h15.122c5.22,0,9.451,4.232,9.451,9.451v8.341C245.649,193.727,241.418,197.959,236.198,197.959z"/>
					</g>
				</g>
				<g>
					<g>
						<polygon fill="#E2DCD9" points="136.062,141.678 184.098,210.036 228.717,158.498 274.847,208.146 329.708,141.978 						"/>
					</g>
				</g>
			</g>
		</g>
		<path fill="#53A8AE" d="M341.638,145.786L235.087,267.364l0,0l0,0L121.68,148.063c-29.514,12.291-50.144,40.129-50.144,72.553
			l1.109,360.334h318.186l7.2-360.334C398.032,185.964,374.436,156.571,341.638,145.786z"/>
		<polygon fill="#FFFFFF" points="146.186,381.827 108.41,339.815 146.186,297.809 183.964,339.815 		"/>
		<polygon fill="#FFFFFF" points="237.064,381.827 199.287,339.815 237.064,297.809 274.846,339.815 		"/>
		<polygon fill="#FFFFFF" points="327.925,381.827 290.164,339.815 327.925,297.809 365.715,339.815 		"/>
		<g>
			<polygon fill="#A965A5" points="285.191,300.489 190.259,390.245 98.239,298.229 102.71,293.758 190.38,381.428 285.502,291.497 
				372.829,386.294 368.179,390.573 			"/>
		</g>
		<g>
			<polygon fill="#A965A5" points="188.847,300.466 104.842,388.536 100.269,384.173 188.643,291.52 285.186,383.905 365.05,295.95 
				369.73,300.198 285.504,392.96 			"/>
		</g>
	</g>
	<g>
		<g>
			<path fill="#36162D" d="M369.307,872.069c6.826-80.525,11.382-161.324,16.954-241.963c1.277-18.512,2.707-37.008,4.005-55.518
				H69.708c4.998,57.682,42.129,506.625,43.876,530.635h69.894c2.314-5.27,23.065-315.514,24.515-331.279
				c0-12.084,9.799-21.871,21.863-21.871c12.077,0,21.864,9.787,21.864,21.871c5.034,41.607,28.412,311.439,30.858,331.279h71.436
				C356.028,1076.481,366.872,900.774,369.307,872.069z"/>
		</g>
	</g>
	<g>
		<path fill="#DDB98E" d="M388.386-45.854c0,97.287-71.557,176.166-159.827,176.166c-88.274,0-159.838-78.879-159.838-176.166
			c0-97.298,71.564-176.166,159.838-176.166C316.829-222.02,388.386-143.152,388.386-45.854z"/>
		<g>
			<g>
				<path fill="#36162D" d="M311.438-23.22c-3.52-8.986-11.446-13.203-20.02-13.279l0,0c-8.461,0.01-17.035,4.348-21.338,12.678l0,0
					h0.021c-0.932,1.779-3.105,2.477-4.865,1.553l0,0c-1.771-0.922-2.467-3.086-1.555-4.877l0,0
					c5.677-10.953,16.866-16.563,27.737-16.553l0,0c10.956-0.075,22.124,5.863,26.737,17.871l0,0
					c0.715,1.865-0.206,3.943-2.049,4.668l0,0c-0.434,0.172-0.888,0.246-1.318,0.246l0,0
					C313.338-20.913,311.984-21.79,311.438-23.22L311.438-23.22z"/>
			</g>
		</g>
		<g>
			<g>
				<path fill="#36162D" d="M181.931-23.22c-3.5-8.986-11.442-13.203-20.015-13.279l0,0c-8.462,0.01-17.027,4.348-21.338,12.678l0,0
					h0.021c-0.924,1.779-3.09,2.477-4.87,1.553l0,0c-1.768-0.922-2.462-3.086-1.542-4.877l0,0
					c5.677-10.953,16.857-16.563,27.73-16.553l0,0c10.963-0.075,22.124,5.863,26.744,17.871l0,0
					c0.707,1.865-0.196,3.943-2.061,4.668l0,0c-0.43,0.172-0.864,0.246-1.318,0.246l0,0C183.835-20.913,182.477-21.79,181.931-23.22
					L181.931-23.22z"/>
			</g>
		</g>
		<path fill="#DDB98E" d="M253.697,4.921c0,14.09-12.161,25.506-27.191,25.506c-15.001,0-27.179-11.416-27.179-25.506
			c0-14.088,12.177-25.516,27.179-25.516C241.536-20.595,253.697-9.167,253.697,4.921z"/>
		<path fill="#DDB98E" d="M383.267-51.407l-2.873,38.362C417.638-18.804,408.02-57.581,383.267-51.407z"/>
		<path fill="#DDB98E" d="M76.788-12.933l-3.049-38.239C48.139-58.522,37.961-18.195,76.788-12.933z"/>
		<path fill="#36162D" d="M137.247,49.694c15.003,29.522,60.231,48.195,83.047,19.463c18.051-22.74,3.098-42.721-24.149-30.023
			c-22.446,10.465-42.41,23.266-62.843-0.246C134.15,42.596,135.496,46.227,137.247,49.694z"/>
		<path fill="#36162D" d="M321.826,49.694c-15.001,29.522-60.235,48.195-83.047,19.463c-18.051-22.74-3.098-42.721,24.15-30.023
			c22.454,10.465,42.41,23.266,62.851-0.246C324.933,42.596,323.578,46.227,321.826,49.694z"/>
		<g>
			<g>
				<g>
					<path fill="#36162D" d="M205.309-34.372c8.847-3.68,15.588-6.73,22.872-6.73l0,0c6.926-0.008,14.174,2.871,21.814,6.843l0,0
						l-2.896,5.609c-7.135-3.67-12.688-5.215-18.372-5.232l0,0c-5.995,0-12.443,1.787-20.988,5.346l0,0L205.309-34.372
						L205.309-34.372z"/>
				</g>
				<g>
					<g>
						<path fill="#F4E8D9" d="M205.566-31.033c0.16,0.859,0.253,1.752,0.253,2.684c0,0.17-0.021,0.377-0.021,0.604
							C204.923-5.618,186.241,9.298,161.931,9.45c-16.348,0-29.645-4.142-38.653-10.449c-9.007-6.305-13.704-14.531-13.72-23.557
							c0.016-1.902,0.245-3.623,0.603-5.25l-9.875-0.869c-0.346,1.969-0.611,3.983-0.591,6.119
							c-0.021,12.359,6.718,23.49,17.766,31.162c11.068,7.727,26.411,12.234,44.471,12.271c0.113,0,0.217,0,0.342,0
							c28.44,0,52.413-18.803,53.389-46.293l-4.93-0.18l4.93,0.092c0.021-0.262,0.021-0.543,0.021-0.846
							c0-0.941-0.169-1.797-0.281-2.684h-9.837V-31.033z"/>
						<path fill="#36162D" d="M121.077-44.067c7.381-4.402,18.388-6.793,30.947-6.793c0.036,0,0.092,0,0.148,0
							c12.632-0.02,26.842,1.627,37.287,5.506c9.377,3.586,14.909,8.101,16.107,14.322h9.835
							c-1.346-11.545-11.125-19.066-22.362-23.104c-12.31-4.518-27.372-6.117-40.867-6.137c-13.853,0.02-26.548,2.467-36.291,8.198
							c-8.075,4.659-13.853,12.094-15.596,21.4l9.875,0.869C111.495-36.038,115.204-40.489,121.077-44.067z"/>
					</g>
					<path fill="#36162D" d="M167.854-58.522c-3.371-3.463-42.521-1.394-48.585-1.394l-12.602,1.366
						c-10.165,0-18.416,6.333-18.416,14.164c0,6.813,6.267,12.497,14.587,13.853C108.285-43.142,122.563-55.003,167.854-58.522z"/>
				</g>
				<g>
					<g>
						<path fill="#36162D" d="M266.826-45.354c10.004-3.879,23.595-5.526,35.668-5.506c12.028-0.02,22.606,2.37,29.686,6.793
							c5.315,3.39,8.79,7.55,10.24,13.291l9.57-0.133c-1.724-9.204-7.22-16.544-14.853-21.166
							c-9.305-5.731-21.43-8.178-34.644-8.198c-12.9,0.02-27.304,1.619-39.066,6.137c-10.72,4.038-20.056,11.559-21.354,23.104
							h9.401C252.632-37.253,257.903-41.768,266.826-45.354z"/>
						<path fill="#F4E8D9" d="M342.421-30.777c0.478,1.883,0.731,3.953,0.772,6.221c-0.04,9.025-4.52,17.252-13.122,23.557
							C321.478,5.308,308.762,9.45,293.178,9.45c-23.226-0.152-41.092-15.068-41.928-37.195l-4.717,0.15l4.705-0.283
							c0-0.084,0-0.225,0-0.471c0-0.932,0.076-1.824,0.237-2.684h-9.401c-0.113,0.887-0.265,1.742-0.265,2.684
							c0,0.227,0,0.545,0.028,0.934c0.912,27.49,23.832,46.275,50.991,46.293c0.104,0,0.217,0,0.35,0
							c17.231-0.037,31.887-4.545,42.445-12.271c10.563-7.672,16.999-18.803,16.979-31.162c0.02-2.221-0.245-4.32-0.611-6.354
							L342.421-30.777z"/>
					</g>
					<path fill="#36162D" d="M287.521-58.522c3.21-3.463,40.594-1.394,46.391-1.394l12.029,1.366c9.73,0,17.597,6.333,17.597,14.164
						c0,6.813-5.982,12.497-13.945,13.853C344.397-43.142,330.75-55.003,287.521-58.522z"/>
				</g>
			</g>
		</g>
		<path fill="#36162D" d="M78.093-88.836c-2.72,19.369,3.174,42.192,8.095,60.3c-50.079-43.097-5.664-207.414,56.872-163.64
			c38.035-125.702,221.437,43.219,290.876-4.97c-47.262,110.963-178.074,96.263-256.991,23.287
			c8.679,23.199,26.259,42.361,46.33,55.677C157.264-140.036,94.027-202.133,78.093-88.836z"/>
		<path fill="#36162D" d="M352.649-126.756c18.871,29.589,29.336,70.219,21.149,104.704c28.798-29.919,24.828-88.931,0.02-119.688
			L352.649-126.756z"/>
		<path fill="#36162D" d="M71.111-49.563c15.612,77.074,36.563,196.761,126.296,219.546
			c90.219,22.889,151.752-58.221,175.431-126.482c9.324-26.9,11.105-53.459,5.705-81.308c-4.669,32.102-11.237,76.204-37.424,98.632
			c-20.12,17.225-55.527,20.764-71.34-5.316c-14.391,38.088-54.313,43.566-78.134,13.203
			c-50.878,20.416-91.536-45.578-105.807-84.26c-3.303-8.969-6.022-18.184-8.863-27.313L71.111-49.563z"/>
	</g>
	<g>
		<path fill="#36162D" d="M490.472,619.68l-163.129,70.773c-8.216,3.566-17.806-0.217-21.365-8.441L254.344,563
			c-3.556-8.197,0.229-17.777,8.433-21.354l163.141-70.766c8.208-3.568,17.79,0.217,21.365,8.422l51.622,119.01
			C502.473,606.522,498.688,616.112,490.472,619.68L490.472,619.68z"/>
		<path fill="#FFFFFF" d="M492.328,601.174c1.993,4.594-0.112,9.94-4.708,11.934l-163.122,70.766
			c-4.6,1.998-9.947-0.111-11.932-4.705l-51.634-119.01c-2.005-4.592,0.112-9.938,4.709-11.934l163.122-70.775
			c4.592-1.996,9.939,0.123,11.932,4.717L492.328,601.174z"/>
		<path fill="#36162D" d="M458.766,543.35c1.45,3.379-0.093,7.285-3.455,8.744c-3.379,1.469-7.292-0.084-8.75-3.455
			c-1.47-3.359,0.085-7.273,3.452-8.734C453.382,538.438,457.299,539.981,458.766,543.35z"/>
	</g>
	
		<rect x="237.461" y="535.42" transform="matrix(-0.9649 0.2626 -0.2626 -0.9649 898.0436 1128.9233)" fill="#F0812B" width="272.247" height="178.102"/>
	<g>
		<path fill="#53A8AE" d="M490.444,514.051c-0.112-121.607-27.706-252.844-114.236-346.15l-30.758,21.553h-0.02
			c77.815,83.303,109.269,209.07,109.177,324.598c0,25.705-1.659,50.775-4.52,74.795l35.387,5.957
			C488.637,568.854,490.444,541.798,490.444,514.051z"/>
	</g>
	<g>
		<polygon fill="#F0812B" points="106.168,157.096 262.438,606.362 245.537,612.282 89.442,169.042 		"/>
	</g>
	<path fill="#DDB98E" d="M453.017,586.936c-11.755,14.258-12.897,36.195-13.009,54.352c4.528-7.482,9.799-15.295,13.053-23.633
		c-4.065,18.982-6.605,39.19-1.06,58.041c4.403-9.617,7.706-20.715,10.907-29.975c-2.579,7.867-0.939,16.506-0.582,24.045
		c18.256-16.912,21.173-51.377,20.043-75.742L453.017,586.936z"/>
	<path fill="#DDB98E" d="M214.883,613.249c12.997-7.887,60.565-6.541,71.573,4.756c-9.128,2.125-18.509-0.547-27.733,0.629
		c-0.349-0.02-0.33-0.02,0.007-0.029c10.43,0.924,22.944,1.451,32.245,6.457c-12.217,3.371-27.01-0.225-39.887-0.029
		c10.965,0.123,27.022,2.412,34.861,10.383c-11.322,1.176-24.849-0.604-36.388-1.393c11.125,3.746,26.308,3.369,35.503,10.295
		c-5.894,1.762-73.083-7.387-73.674-2.492c1.089-9.047,2.559-19.061,3.254-28.434C214.723,613.337,214.807,613.298,214.883,613.249z
		"/>
	<g>
		<path fill="#53A8AE" d="M113.576,577.741c-36.15-22.703-63.859-55.85-76.828-100.656c-7.059-24.557-10.907-52.623-10.907-81.441
			c-0.028-45.578,9.646-92.947,29.975-131.611c6.862-13.025,14.861-25.025,24.029-35.781l21.655-67.867
			c-40.948,27.293-63.707,60.713-77.427,87C0.466,292.512-9.96,345.094-10,395.643c0.013,31.973,4.21,63.172,12.322,91.35
			c15.416,53.713,49.597,94.512,92.235,121.129c38.697,24.197,74.068,36.422,120.286,38.652l1.949-35.84
			C179.653,607.708,143.636,596.6,113.576,577.741z"/>
	</g>
	<rect x="105.135" y="1079.212" fill="#542D4D" width="88.335" height="30.727"/>
	<rect x="274.89" y="1079.212" fill="#542D4D" width="88.35" height="30.727"/>
</g>
</svg>
