<?xml version="1.0" encoding="utf-8"?>
<!-- Generator: Adobe Illustrator 18.1.1, SVG Export Plug-In . SVG Version: 6.00 Build 0)  -->
<svg version="1.1" id="Layer_2" xmlns="http://www.w3.org/2000/svg" xmlns:xlink="http://www.w3.org/1999/xlink" x="0px" y="0px"
	 width="538.281px" height="1426.223px" viewBox="0 0 538.281 1426.223" enable-background="new 0 0 538.281 1426.223"
	 xml:space="preserve">
<g>
	<g>
		<path fill="#DDB98E" d="M180.333,1366.874l0.008-9.609c-15.962-10.297-44.148-7.832-64.928-2.58
			c-2.193,0.547-4.379,1.271-6.581,2.092l6.749,19.34L180.333,1366.874z"/>
		<path fill="#F0812B" d="M115.589,1376.116l2.721,7.84L115.589,1376.116l-3.801,0.547L115.589,1376.116l-6.736-19.34
			c-28.858,10.756-74.578,47.902-59.388,69.447l130.868-45.855l0.008-13.494L115.589,1376.116z"/>
		<rect x="143.175" y="1298.131" fill="#DDB98E" width="37.166" height="65.945"/>
	</g>
	<g>
		<path fill="#DDB98E" d="M309.604,1366.322l-0.02-9.609c15.963-10.297,44.158-7.832,64.939-2.58
			c2.183,0.547,4.389,1.271,6.57,2.092l-6.738,19.34L309.604,1366.322z"/>
		<path fill="#F0812B" d="M374.356,1375.565l-2.732,7.84L374.356,1375.565l3.793,0.547L374.356,1375.565l6.729-19.34
			c28.867,10.756,74.588,47.902,59.389,69.447l-130.869-45.855l-0.02-13.494L374.356,1375.565z"/>
		<rect x="309.584" y="1297.58" fill="#DDB98E" width="37.176" height="65.945"/>
	</g>
	<g>
		<path fill="#F4EFED" d="M324.033,374.536H165.524c-46.391,0-83.988,35.512-83.988,79.303v333.98l319.296,26.354l7.2-360.334
			C408.032,410.048,370.432,374.536,324.033,374.536z"/>
		<path display="none" fill="#DDB98E" d="M324.033,374.536H165.524c-46.391,0-83.988,35.512-83.988,79.303v333.98l319.296,26.354
			l7.2-360.334C408.032,410.048,370.432,374.536,324.033,374.536z"/>
		<g>
			<g>
				<g>
					<path fill="#F4EFED" d="M305.877,638.462c-45.088,9.365-89,9.243-131.78,0l0-257.006l141.78,1L305.877,638.462z"/>
				</g>
			</g>
			<g>
				<g>
					<g>
						<polygon fill="#F0262B" points="230.265,423.08 194.064,572.683 239.987,631.553 283.194,577.544 246.468,423.08 						"/>
					</g>
				</g>
				<g>
					<g>
						<path fill="#C11623" d="M246.198,431.182h-15.122c-5.22,0-9.451-4.232-9.451-9.452v-8.341c0-5.22,4.231-9.451,9.451-9.451
							h15.122c5.22,0,9.451,4.232,9.451,9.451v8.341C255.649,426.95,251.418,431.182,246.198,431.182z"/>
					</g>
				</g>
				<g>
					<g>
						<polygon fill="#E2DCD9" points="146.062,374.901 194.098,443.259 238.717,391.721 284.847,441.369 339.708,375.201 						"/>
					</g>
				</g>
			</g>
		</g>
		<path fill="#53A8AE" d="M351.638,379.009L245.087,500.587l0,0l0,0L131.68,381.286c-29.514,12.291-50.144,40.129-50.144,72.553
			l1.109,360.334h318.186l7.2-360.334C408.032,419.187,384.436,389.794,351.638,379.009z"/>
		<polygon fill="#FFFFFF" points="156.186,615.05 118.41,573.038 156.186,531.032 193.964,573.038 		"/>
		<polygon fill="#FFFFFF" points="247.064,615.05 209.287,573.038 247.064,531.032 284.846,573.038 		"/>
		<polygon fill="#FFFFFF" points="337.925,615.05 300.164,573.038 337.925,531.032 375.715,573.038 		"/>
		<g>
			<polygon fill="#A965A5" points="295.191,533.712 200.259,623.468 108.239,531.452 112.71,526.981 200.38,614.651 295.502,524.72 
				382.829,619.517 378.179,623.796 295.191,533.712 			"/>
		</g>
		<g>
			<polygon fill="#A965A5" points="198.847,533.689 114.842,621.759 110.269,617.396 198.643,524.743 295.186,617.128 
				375.05,529.173 379.73,533.421 295.504,626.183 198.847,533.689 			"/>
		</g>
	</g>
	<g>
		<g>
			<path fill="#36162D" d="M379.307,1105.292c6.826-80.525,11.382-161.324,16.954-241.963c1.277-18.512,2.707-37.008,4.005-55.518
				H79.708c4.998,57.682,42.129,506.625,43.876,530.635h69.894c2.314-5.27,23.065-315.514,24.515-331.279
				c0-12.084,9.799-21.871,21.863-21.871c12.077,0,21.864,9.787,21.864,21.871c5.034,41.607,28.412,311.439,30.858,331.279h71.436
				C366.028,1309.704,376.872,1133.997,379.307,1105.292z"/>
		</g>
	</g>
	<g>
		<path fill="#DDB98E" d="M398.386,187.369c0,97.287-71.557,176.166-159.827,176.166c-88.274,0-159.838-78.879-159.838-176.166
			c0-97.298,71.564-176.166,159.838-176.166C326.829,11.203,398.386,90.071,398.386,187.369z"/>
		<g>
			<g>
				<path fill="#36162D" d="M321.438,210.003c-3.52-8.986-11.446-13.203-20.02-13.279l0,0c-8.461,0.01-17.035,4.348-21.338,12.678
					l0,0h0.021c-0.932,1.779-3.105,2.477-4.865,1.553l0,0c-1.771-0.922-2.467-3.086-1.555-4.877l0,0
					c5.677-10.953,16.866-16.563,27.737-16.553l0,0c10.956-0.075,22.124,5.863,26.737,17.871l0,0
					c0.715,1.865-0.206,3.943-2.049,4.668l0,0c-0.434,0.172-0.888,0.246-1.318,0.246l0,0
					C323.338,212.31,321.984,211.433,321.438,210.003L321.438,210.003z"/>
			</g>
		</g>
		<g>
			<g>
				<path fill="#36162D" d="M191.931,210.003c-3.5-8.986-11.442-13.203-20.015-13.279l0,0c-8.462,0.01-17.027,4.348-21.338,12.678
					l0,0h0.021c-0.924,1.779-3.09,2.477-4.87,1.553l0,0c-1.768-0.922-2.462-3.086-1.542-4.877l0,0
					c5.677-10.953,16.857-16.563,27.73-16.553l0,0c10.963-0.075,22.124,5.863,26.744,17.871l0,0
					c0.707,1.865-0.196,3.943-2.061,4.668l0,0c-0.43,0.172-0.864,0.246-1.318,0.246l0,0
					C193.835,212.31,192.477,211.433,191.931,210.003L191.931,210.003z"/>
			</g>
		</g>
		<path fill="#DDB98E" d="M263.697,238.144c0,14.09-12.161,25.506-27.191,25.506c-15.001,0-27.179-11.416-27.179-25.506
			c0-14.088,12.177-25.516,27.179-25.516C251.536,212.628,263.697,224.056,263.697,238.144z"/>
		<path fill="#DDB98E" d="M393.267,181.816l-2.873,38.362C427.638,214.419,418.02,175.642,393.267,181.816z"/>
		<path fill="#DDB98E" d="M86.788,220.29l-3.049-38.239C58.139,174.701,47.961,215.028,86.788,220.29z"/>
		<path fill="#36162D" d="M147.247,282.917c15.003,29.522,60.231,48.195,83.047,19.463c18.051-22.74,3.098-42.721-24.149-30.023
			c-22.446,10.465-42.41,23.266-62.843-0.246C144.15,275.819,145.496,279.45,147.247,282.917z"/>
		<path fill="#36162D" d="M331.826,282.917c-15.001,29.522-60.235,48.195-83.047,19.463c-18.051-22.74-3.098-42.721,24.15-30.023
			c22.454,10.465,42.41,23.266,62.851-0.246C334.933,275.819,333.578,279.45,331.826,282.917z"/>
		<g>
			<g>
				<g>
					<path fill="#36162D" d="M215.309,198.851c8.847-3.68,15.588-6.73,22.872-6.73l0,0c6.926-0.008,14.174,2.871,21.814,6.843l0,0
						l-2.896,5.609c-7.135-3.67-12.688-5.215-18.372-5.232l0,0c-5.995,0-12.443,1.787-20.988,5.346l0,0L215.309,198.851
						L215.309,198.851z"/>
				</g>
				<g>
					<g>
						<path fill="#F4E8D9" d="M215.566,202.19c0.16,0.859,0.253,1.752,0.253,2.684c0,0.17-0.021,0.377-0.021,0.604
							c-0.875,22.127-19.557,37.043-43.867,37.195c-16.348,0-29.645-4.142-38.653-10.449c-9.007-6.305-13.704-14.531-13.72-23.557
							c0.016-1.902,0.245-3.623,0.603-5.25l-9.875-0.869c-0.346,1.969-0.611,3.983-0.591,6.119
							c-0.021,12.359,6.718,23.49,17.766,31.162c11.068,7.727,26.411,12.234,44.471,12.271c0.113,0,0.217,0,0.342,0
							c28.44,0,52.413-18.803,53.389-46.293l-4.93-0.18l4.93,0.092c0.021-0.262,0.021-0.543,0.021-0.846
							c0-0.941-0.169-1.797-0.281-2.684H215.566z"/>
						<path fill="#36162D" d="M131.077,189.156c7.381-4.402,18.388-6.793,30.947-6.793c0.036,0,0.092,0,0.148,0
							c12.632-0.02,26.842,1.627,37.287,5.506c9.377,3.586,14.909,8.101,16.107,14.322h9.835
							c-1.346-11.545-11.125-19.066-22.362-23.104c-12.31-4.518-27.372-6.117-40.867-6.137c-13.853,0.02-26.548,2.467-36.291,8.198
							c-8.075,4.659-13.853,12.094-15.596,21.4l9.875,0.869C121.495,197.185,125.204,192.734,131.077,189.156z"/>
					</g>
					<path fill="#36162D" d="M177.854,174.701c-3.371-3.463-42.521-1.394-48.585-1.394l-12.602,1.366
						c-10.165,0-18.416,6.333-18.416,14.164c0,6.813,6.267,12.497,14.587,13.853C118.285,190.081,132.563,178.22,177.854,174.701z"
						/>
				</g>
				<g>
					<g>
						<path fill="#36162D" d="M276.826,187.869c10.004-3.879,23.595-5.526,35.668-5.506c12.028-0.02,22.606,2.37,29.686,6.793
							c5.315,3.39,8.79,7.55,10.24,13.291l9.57-0.133c-1.724-9.204-7.22-16.544-14.853-21.166
							c-9.305-5.731-21.43-8.178-34.644-8.198c-12.9,0.02-27.304,1.619-39.066,6.137c-10.72,4.038-20.056,11.559-21.354,23.104
							h9.401C262.632,195.97,267.903,191.455,276.826,187.869z"/>
						<path fill="#F4E8D9" d="M352.421,202.446c0.478,1.883,0.731,3.953,0.772,6.221c-0.04,9.025-4.52,17.252-13.122,23.557
							c-8.593,6.307-21.309,10.449-36.893,10.449c-23.226-0.152-41.092-15.068-41.928-37.195l-4.717,0.15l4.705-0.283
							c0-0.084,0-0.225,0-0.471c0-0.932,0.076-1.824,0.237-2.684h-9.401c-0.113,0.887-0.265,1.742-0.265,2.684
							c0,0.227,0,0.545,0.028,0.934c0.912,27.49,23.832,46.275,50.991,46.293c0.104,0,0.217,0,0.35,0
							c17.231-0.037,31.887-4.545,42.445-12.271c10.563-7.672,16.999-18.803,16.979-31.162c0.02-2.221-0.245-4.32-0.611-6.354
							L352.421,202.446z"/>
					</g>
					<path fill="#36162D" d="M297.521,174.701c3.21-3.463,40.594-1.394,46.391-1.394l12.029,1.366
						c9.73,0,17.597,6.333,17.597,14.164c0,6.813-5.982,12.497-13.945,13.853C354.397,190.081,340.75,178.22,297.521,174.701z"/>
				</g>
			</g>
		</g>
		<path fill="#36162D" d="M88.093,150.871c-2.72,19.369,3.174,42.192,8.095,60.3c-50.079-43.097-5.664-207.414,56.872-163.64
			c38.035-125.702,221.437,43.219,290.876-4.97c-47.262,110.963-178.074,96.263-256.991,23.287
			c8.679,23.199,26.259,42.361,46.33,55.677C167.264,99.671,104.027,37.574,88.093,150.871z"/>
		<path fill="#36162D" d="M362.649,106.467c18.871,29.589,29.336,70.219,21.149,104.704c28.798-29.919,24.828-88.931,0.02-119.688
			L362.649,106.467z"/>
		<path fill="#36162D" d="M81.111,183.66c15.612,77.074,36.563,196.761,126.296,219.546
			c90.219,22.889,151.752-58.221,175.431-126.482c9.324-26.9,11.105-53.459,5.705-81.308c-4.669,32.102-11.237,76.204-37.424,98.632
			c-20.12,17.225-55.527,20.764-71.34-5.316c-14.391,38.088-54.313,43.566-78.134,13.203
			c-50.878,20.416-91.536-45.578-105.807-84.26c-3.303-8.969-6.022-18.184-8.863-27.313L81.111,183.66z"/>
	</g>
	<g>
		<path fill="#36162D" d="M500.472,852.903l-163.129,70.773c-8.216,3.566-17.806-0.217-21.365-8.441l-51.634-119.012
			c-3.556-8.197,0.229-17.777,8.433-21.354l163.141-70.766c8.208-3.568,17.79,0.217,21.365,8.422l51.622,119.01
			C512.473,839.745,508.688,849.335,500.472,852.903L500.472,852.903z"/>
		<path fill="#FFFFFF" d="M502.328,834.397c1.993,4.594-0.112,9.94-4.708,11.934l-163.122,70.766
			c-4.6,1.998-9.947-0.111-11.932-4.705l-51.634-119.01c-2.005-4.592,0.112-9.938,4.709-11.934l163.122-70.775
			c4.592-1.996,9.939,0.123,11.932,4.717L502.328,834.397z"/>
		<path fill="#36162D" d="M468.766,776.573c1.45,3.379-0.093,7.285-3.455,8.744c-3.379,1.469-7.292-0.084-8.75-3.455
			c-1.47-3.359,0.085-7.273,3.452-8.734C463.382,771.661,467.299,773.204,468.766,776.573z"/>
	</g>
	
		<rect x="247.429" y="768.674" transform="matrix(0.9649 -0.2626 0.2626 0.9649 -211.7451 130.7962)" fill="#F0812B" width="272.248" height="178.103"/>
	<g>
		<path fill="#53A8AE" d="M500.444,747.274c-0.112-121.607-27.706-252.844-114.236-346.15l-30.758,21.553h-0.02
			c77.815,83.303,109.269,209.07,109.177,324.598c0,25.705-1.659,50.775-4.52,74.795l35.387,5.957
			C498.637,802.077,500.444,775.021,500.444,747.274z"/>
	</g>
	<g>
		<polygon fill="#F0812B" points="116.168,390.319 272.438,839.585 255.537,845.505 99.442,402.265 		"/>
	</g>
	<path fill="#DDB98E" d="M463.017,820.159c-11.755,14.258-12.897,36.195-13.009,54.352c4.528-7.482,9.799-15.295,13.053-23.633
		c-4.065,18.982-6.605,39.19-1.06,58.041c4.403-9.617,7.706-20.715,10.907-29.975c-2.579,7.867-0.939,16.506-0.582,24.045
		c18.256-16.912,21.173-51.377,20.043-75.742L463.017,820.159z"/>
	<path fill="#DDB98E" d="M224.883,846.472c12.997-7.887,60.565-6.541,71.573,4.756c-9.128,2.125-18.509-0.547-27.733,0.629
		c-0.349-0.02-0.33-0.02,0.007-0.029c10.43,0.924,22.944,1.451,32.245,6.457c-12.217,3.371-27.01-0.225-39.887-0.029
		c10.965,0.123,27.022,2.412,34.861,10.383c-11.322,1.176-24.849-0.604-36.388-1.393c11.125,3.746,26.308,3.369,35.503,10.295
		c-5.894,1.762-73.083-7.387-73.674-2.492c1.089-9.047,2.559-19.061,3.254-28.434C224.723,846.56,224.807,846.521,224.883,846.472z"
		/>
	<g>
		<path fill="#53A8AE" d="M123.576,810.964c-36.15-22.703-63.859-55.85-76.828-100.656c-7.059-24.557-10.907-52.623-10.907-81.441
			c-0.028-45.578,9.646-92.947,29.975-131.611c6.862-13.025,14.861-25.025,24.029-35.781l21.655-67.867
			c-40.948,27.293-63.707,60.713-77.427,87C10.466,525.735,0.04,578.317,0,628.866c0.013,31.973,4.21,63.172,12.322,91.35
			c15.416,53.713,49.597,94.512,92.235,121.129c38.697,24.197,74.068,36.422,120.286,38.652l1.949-35.84
			C189.653,840.931,153.636,829.823,123.576,810.964z"/>
	</g>
	<rect x="115.135" y="1312.435" fill="#542D4D" width="88.335" height="30.727"/>
	<rect x="284.89" y="1312.435" fill="#542D4D" width="88.35" height="30.727"/>
</g>
</svg>
