<?xml version="1.0" encoding="utf-8"?>
<!DOCTYPE svg PUBLIC "-//W3C//DTD SVG 1.1//EN" "http://www.w3.org/Graphics/SVG/1.1/DTD/svg11.dtd">
<svg version="1.1" baseProfile="full"
 xmlns="http://www.w3.org/2000/svg"
 xmlns:xlink="http://www.w3.org/1999/xlink"
 xmlns:ev="http://www.w3.org/2001/xml-events" 
  height="71px" 
  width="621px" 
>
<path fill="rgb( 237, 98, 71 )"
 d="M620.001,70.004 C620.001,70.004 481.474,70.004 481.474,70.004 C481.474,70.004 391.135,70.004 391.135,70.004 C391.135,70.004 316.268,70.004 316.268,70.004 C316.268,70.004 293.141,70.004 293.141,70.004 C293.141,70.004 218.273,70.004 218.273,70.004 C218.273,70.004 127.934,70.004 127.934,70.004 C127.934,70.004 0.99900000000002,70.004 0.99900000000002,70.004 C0.99900000000002,70.004 11.797,35.5 11.797,35.5 C11.797,35.5 0.99900000000002,0.995 0.99900000000002,0.995 C0.99900000000002,0.995 127.934,0.995 127.934,0.995 C127.934,0.995 218.273,0.995 218.273,0.995 C218.273,0.995 293.141,0.995 293.141,0.995 C293.141,0.995 316.268,0.995 316.268,0.995 C316.268,0.995 391.135,0.995 391.135,0.995 C391.135,0.995 481.474,0.995 481.474,0.995 C481.474,0.995 620.001,0.995 620.001,0.995 C620.001,0.995 609.202,35.5 609.202,35.5 C609.202,35.5 620.001,70.004 620.001,70.004 Z "/>
</svg>
