<?xml version="1.0" encoding="utf-8"?>
<!-- Generator: Adobe Illustrator 18.1.1, SVG Export Plug-In . SVG Version: 6.00 Build 0)  -->
<svg version="1.1" id="Слой_1" xmlns:ev="http://www.w3.org/2001/xml-events"
	 xmlns="http://www.w3.org/2000/svg" xmlns:xlink="http://www.w3.org/1999/xlink" x="0px" y="0px" width="26px" height="27px"
	 viewBox="-266 467 26 27" enable-background="new -266 467 26 27" xml:space="preserve">
<path fill="#FFFFFF" d="M-252.5,468c3.45,0,6.58,1.41,8.83,3.66v-0.01c2.27,2.26,3.67,5.39,3.67,8.84c0,3.45-1.4,6.58-3.67,8.85
	l-0.05,0.05c-2.26,2.24-5.37,3.62-8.78,3.62c-3.45,0-6.57-1.4-8.83-3.67l-0.01,0.01c-2.26-2.26-3.66-5.39-3.66-8.85
	c0-3.44,1.4-6.57,3.66-8.84l0.05-0.04C-259.03,469.38-255.92,468-252.5,468L-252.5,468z M-254.21,470.06
	c-0.03,0.19-0.08,0.41-0.11,0.63c-0.23,1.23-0.49,2.67-1.19,3.35c-0.28,0.27-1.91,1.46-1.9,1.76c0,0.08,0.37,0.08,1.73,0.08h0.01
	c0.71,0,1.6,0.25,2.36,0.67c0.56,0.31,1.07,0.72,1.4,1.23c0.37,0.55,0.53,1.19,0.37,1.88l0,0l0,0c-0.1,0.44-0.34,0.9-0.75,1.36
	c-1.38,1.55-1.36,1.72-1.27,2.5c0.04,0.33,0.1,0.74,0.1,1.36c0.01,0.32,0.01,0.65,0.03,0.96c0.02,0.74,0.04,1.35-0.02,1.82v0.03
	c-0.35,2.8-2.78,0.82-3.63-0.14c-0.93-1.03-1.81-2.37-2.08-3.01c-0.08-0.21-0.44-0.38-0.82-0.57c-0.91-0.45-1.94-0.96-1.99-2.56
	c-0.03-1.04,0.16-1.8,0.31-2.35c0.08-0.26,0.33-0.34,0.22-0.38c-0.2-0.06-0.55,0.01-0.91,0.09c-0.2,0.04-0.4,0.08-0.61,0.11
	c-0.08,0.53-0.12,1.08-0.12,1.62c0,2.93,1.19,5.57,3.1,7.49l0,0l0,0c1.12,1.12,2.5,1.99,4.02,2.52c0.9-0.16,1.83-0.59,2.69-0.76
	c1.92-0.36,3.83-0.71,5.92,0c0.85-0.46,1.61-1.05,2.29-1.72l0.05-0.04c0.52-0.53,1-1.12,1.4-1.75c-0.42,0.36-0.83,0.62-1.19,0.78
	c-0.51,0.24-0.98,0.27-1.31,0.09l0,0l0,0c-0.09-0.05-0.17-0.11-0.23-0.18l-0.03-0.05c-0.87-1.01-0.43-2.34,0.02-3.71
	c0.48-1.45,0.98-2.96-0.86-3.51c-0.3-0.1-0.59-0.22-0.86-0.35c-0.73-0.4-1.3-0.96-1.65-1.53c-0.9-1.45-0.3-2.28,0.66-3.34
	c0.16-0.16,0.31-0.33,0.42-0.46c-0.76,0.04-1.75,0.09-2.21-1.17v-0.01v0.01c-0.07-0.19-0.12-0.38-0.14-0.59l-0.01-0.04
	c-0.11-1.05-0.7-1.5-1.42-2.26h-0.08C-253.08,469.92-253.65,469.96-254.21,470.06L-254.21,470.06z M-262.69,477.66l0.1-0.03
	c0.5-0.11,1.02-0.22,1.51-0.05c0.92,0.31,0.78,0.83,0.53,1.77c-0.13,0.48-0.31,1.15-0.29,2.01c0.03,0.91,0.74,1.26,1.36,1.58
	c0.59,0.29,1.13,0.56,1.37,1.15c0.23,0.55,1.04,1.75,1.88,2.69c0.23,0.25,1.51,1.83,1.64,0.76c0.06-0.55,0.03-1.12,0.02-1.66
	c-0.01-0.3-0.03-0.63-0.03-0.98c-0.01-0.52-0.06-0.92-0.1-1.23c-0.14-1.21-0.17-1.45,1.56-3.41c0.27-0.3,0.42-0.59,0.49-0.85l0,0
	c0.08-0.36-0.01-0.7-0.2-0.98c-0.23-0.34-0.6-0.64-1.01-0.87c-0.59-0.33-1.27-0.51-1.8-0.51h-0.01c-2.25,0-2.84,0-2.89-1.21
	c-0.03-1.09,1.54-1.91,2.24-2.61c0.44-0.43,0.67-1.68,0.86-2.74l0.03-0.15c-1.73,0.49-3.27,1.42-4.52,2.65l-0.04,0.04
	C-261.25,474.29-262.19,475.88-262.69,477.66L-262.69,477.66z M-249.13,490.53c-1.32-0.15-2.62,0.1-3.93,0.34
	c-0.19,0.04-0.39,0.08-0.59,0.14c0.38,0.03,0.75,0.06,1.14,0.06C-251.32,491.08-250.19,490.88-249.13,490.53L-249.13,490.53z
	 M-242.29,482.74c0.04-0.08,0.1-0.15,0.17-0.19c0.13-0.67,0.2-1.35,0.2-2.06c0-2.92-1.19-5.56-3.1-7.47l0,0l0,0
	c-1.53-1.53-3.53-2.59-5.77-2.96c0.48,0.59,0.85,1.2,0.93,2.01v0.01c0.02,0.12,0.04,0.24,0.08,0.33l0,0
	c0.17,0.46,0.68,0.44,1.08,0.41c0.63-0.03,1.13-0.05,1.32,0.63c0.18,0.65-0.29,1.17-0.83,1.76c-0.64,0.71-1.1,1.05-0.54,1.96
	c0.25,0.41,0.68,0.82,1.22,1.11c0.2,0.11,0.42,0.21,0.65,0.27c2.96,0.9,2.28,2.97,1.61,4.98c-0.33,1.02-0.66,2.02-0.27,2.55
	l0.26-0.11c0.3-0.14,0.67-0.4,1.06-0.75C-243.57,484.65-242.88,483.81-242.29,482.74L-242.29,482.74z M-248.57,473.89
	c0.06-0.07,0.09-0.12,0.08-0.13C-248.53,473.62-248.53,473.77-248.57,473.89L-248.57,473.89z"/>
</svg>
