<?xml version="1.0" encoding="utf-8"?>
<!-- Generator: Adobe Illustrator 18.1.1, SVG Export Plug-In . SVG Version: 6.00 Build 0)  -->
<svg version="1.1" id="Слой_1" xmlns:ev="http://www.w3.org/2001/xml-events"
	 xmlns="http://www.w3.org/2000/svg" xmlns:xlink="http://www.w3.org/1999/xlink" x="0px" y="0px" width="28px" height="26px"
	 viewBox="-265 468 28 26" enable-background="new -265 468 28 26" xml:space="preserve">
<path fill="#FFFFFF" d="M-246.307,491.805l-0.028,0.015c-1.475,1.539-3.923,1.531-5.39-0.015c-0.71-0.747-1.859-0.747-2.568-0.015
	l-0.021,0.015l-0.021,0.015c-1.475,1.539-3.922,1.531-5.391-0.015c-0.708-0.747-1.879-0.747-2.58,0
	c-0.398,0.419-1.029,0.419-1.419,0c-0.391-0.403-0.391-1.075,0-1.494c1.085-1.135,2.752-1.493,4.17-0.866l0.057,0.03
	c0.439,0.194,0.829,0.47,1.156,0.807c-0.022-1.509-0.086-2.682-0.327-3.803c-0.29-1.337-0.844-2.666-1.872-4.556
	c-0.277-0.5-0.106-1.143,0.362-1.434l0.057-0.038l1.893-1.15v-4.452c0-0.343,0.27-0.627,0.603-0.627h0.015h2.673v-2.009
	c0-0.351,0.263-0.635,0.595-0.635h0.022h2.695v-2.921c0-0.351,0.277-0.635,0.61-0.635c0.326,0,0.596,0.284,0.596,0.635v2.921h2.723
	c0.326,0,0.596,0.284,0.596,0.635v0.014v1.995h2.687c0.334,0,0.603,0.284,0.603,0.627v0.015v4.437l1.943,1.188
	c0.482,0.291,0.639,0.926,0.369,1.426l-0.014,0.03c-0.865,1.584-1.404,2.794-1.716,3.959c-0.298,1.091-0.411,2.166-0.454,3.496
	c0.51,0.194,0.972,0.501,1.376,0.911c0.702,0.747,1.865,0.755,2.581,0c0.383-0.403,1.022-0.403,1.412,0
	c0.39,0.419,0.39,1.091,0,1.494c-1.085,1.143-2.752,1.494-4.17,0.867l0,0c-0.476-0.202-0.894-0.493-1.241-0.867
	c-0.71-0.747-1.859-0.747-2.568-0.015L-246.307,491.805L-246.307,491.805z M-250.42,477.702v12.505l0.106,0.104
	c0.702,0.74,1.851,0.755,2.574,0.03l0.015-0.03c0.574-0.597,1.305-0.971,2.056-1.105c0.057-1.457,0.185-2.645,0.525-3.885
	c0.298-1.083,0.737-2.188,1.432-3.533L-250.42,477.702L-250.42,477.702z M-251.626,489.415v-11.713l-6.695,4.086
	c0.823,1.621,1.305,2.906,1.596,4.235c0.305,1.405,0.361,2.824,0.376,4.721c0.22-0.089,0.425-0.224,0.603-0.403l0.021-0.03
	l0.014-0.015C-254.647,489.191-253.023,488.832-251.626,489.415L-251.626,489.415z M-257.03,478.569l5.517-3.346
	c0.313-0.195,0.695-0.179,0.993,0l0,0l5.503,3.346v-3.093h-2.666h-0.014c-0.333,0-0.596-0.276-0.596-0.627v-2.001
	c-1.815,0-3.631,0-5.446,0v1.986v0.015c0,0.351-0.27,0.627-0.604,0.627h-2.687V478.569L-257.03,478.569z"/>
</svg>
