<svg baseProfile="full" xmlns="http://www.w3.org/2000/svg" height="26" width="22"><path fill="rgb( 93, 193, 232 )" d="M11.489.01h3.437c.316 0 .572.266.572.605 0 .187-.081.353-.202.461l-.646.692.68.728c.222.238.222.627 0 .857-.108.116-.262.174-.404.174h-2.865v.504l.101.087.013.029 4.911 5.26h3.955c.524 0 .954.447.954 1.009v14.571c0 .555-.43 1.009-.954 1.009h-19.104000000000003c-.524 0-.941-.454-.941-1.009v-14.571c0-.562.417-1.009.941-1.009h3.956l4.923-5.289.108-.087v-3.4159999999999995c0-.339.255-.605.565-.605zm-5.199 11.422h-3.404v12.532h3.599v-10.622c0-.339.262-.606.578-.606.31 0 .565.267.565.606v10.622h7.722v-10.622c0-.339.255-.606.578-.606.31 0 .565.267.565.606v10.622h3.599v-12.532h-3.3970000000000002c-.242 0-.484-.101-.672-.296l-4.534-4.857-4.534 4.857c-.168.18-.403.296-.665.296zm-2.032 2.515h.948c.31 0 .566-.274.566-.605 0-.339-.256-.606-.566-.606h-.948c-.316 0-.572.267-.572.606 0 .331.256.605.572.605zm0 2.904h.948c.31 0 .566-.267.566-.605 0-.339-.256-.613-.566-.613h-.948c-.316 0-.572.274-.572.613 0 .338.256.605.572.605zm0 2.904h.948c.31 0 .566-.266.566-.605 0-.332-.256-.606-.566-.606h-.948c-.316 0-.572.274-.572.606 0 .339.256.605.572.605zm0 2.911h.948c.31 0 .566-.273.566-.605 0-.338-.256-.62-.566-.62h-.948c-.316 0-.572.282-.572.62 0 .332.256.605.572.605zm13.52-8.719h.948c.31 0 .566-.274.566-.605 0-.339-.256-.606-.566-.606h-.948c-.316 0-.572.267-.572.606 0 .331.256.605.572.605zm0 2.904h.948c.31 0 .566-.267.566-.605 0-.339-.256-.613-.566-.613h-.948c-.316 0-.572.274-.572.613 0 .338.256.605.572.605zm0 2.904h.948c.31 0 .566-.266.566-.605 0-.332-.256-.606-.566-.606h-.948c-.316 0-.572.274-.572.606 0 .339.256.605.572.605zm0 2.911h.948c.31 0 .566-.273.566-.605 0-.338-.256-.62-.566-.62h-.948c-.316 0-.572.282-.572.62 0 .332.256.605.572.605zm-8.347-8.719h4.117c.316 0 .564-.274.564-.605 0-.339-.248-.606-.564-.606h-4.117c-.31 0-.565.267-.565.606 0 .331.255.605.565.605zm0 2.904h4.117c.316 0 .564-.267.564-.605 0-.339-.248-.613-.564-.613h-4.117c-.31 0-.565.274-.565.613 0 .338.255.605.565.605zm0 2.904h4.117c.316 0 .564-.266.564-.605 0-.332-.248-.606-.564-.606h-4.117c-.31 0-.565.274-.565.606 0 .339.255.605.565.605zm0 2.911h4.117c.316 0 .564-.273.564-.605 0-.338-.248-.62-.564-.62h-4.117c-.31 0-.565.282-.565.62 0 .332.255.605.565.605zm4.13-21.445h-1.5v1.095h1.5l-.115-.115h.007-.007c-.222-.245-.222-.627.007-.865l.108-.115z"/></svg>