<?xml version="1.0" encoding="utf-8"?>
<!DOCTYPE svg PUBLIC "-//W3C//DTD SVG 1.1//EN" "http://www.w3.org/Graphics/SVG/1.1/DTD/svg11.dtd">
<svg version="1.1" baseProfile="full"
 xmlns="http://www.w3.org/2000/svg"
 xmlns:xlink="http://www.w3.org/1999/xlink"
 xmlns:ev="http://www.w3.org/2001/xml-events" 
  height="29px" 
  width="26px" 
>
<path fill="rgb( 97, 194, 232 )"
 d="M13.4860000000001,0.988 C14.0450000000001,0.988 14.5509999999999,1.221 14.9190000000001,1.60199999999998 C15.287,1.98399999999998 15.5129999999999,2.50599999999997 15.5129999999999,3.089 C15.5129999999999,3.47699999999998 15.4100000000001,3.84100000000001 15.2329999999999,4.15199999999999 C17.376,4.529 19.2940000000001,5.60300000000001 20.768,7.13200000000001 C22.6379999999999,9.06700000000001 23.798,11.736 23.798,14.674 C23.798,15.003 23.546,15.271 23.2249999999999,15.271 C23.2249999999999,15.271 23.211,15.271 23.211,15.271 C23.211,15.271 3.74099999999999,15.271 3.74099999999999,15.271 C3.42000000000007,15.271 3.16000000000008,15.003 3.16000000000008,14.674 C3.16000000000008,14.674 3.16000000000008,14.656 3.16000000000008,14.656 C3.16699999999992,11.729 4.33400000000006,9.06299999999999 6.19100000000003,7.13200000000001 C7.67100000000005,5.60300000000001 9.58899999999994,4.529 11.732,4.15199999999999 C11.5550000000001,3.84100000000001 11.452,3.47699999999998 11.452,3.089 C11.452,2.50599999999997 11.6769999999999,1.98399999999998 12.046,1.60199999999998 C12.414,1.221 12.9200000000001,0.988 13.4860000000001,0.988 C13.4860000000001,0.988 13.4860000000001,0.988 13.4860000000001,0.988 ZM6.05400000000009,28.007 C6.05400000000009,28.007 6.05400000000009,28.007 6.05400000000009,28.007 C5.74000000000001,28.052 5.45299999999997,27.827 5.41200000000003,27.502 C5.36500000000001,27.177 5.58300000000008,26.87 5.89699999999993,26.827 C5.89699999999993,26.827 13.8409999999999,25.641 13.8409999999999,25.641 C13.8409999999999,25.641 13.9090000000001,25.634 13.9090000000001,25.634 C14.4680000000001,25.599 14.8989999999999,25.132 15.3489999999999,24.631 C15.3489999999999,24.631 15.3630000000001,24.617 15.3630000000001,24.617 C15.3630000000001,24.617 15.479,24.494 15.479,24.494 C15.479,24.494 20.1669999999999,19.409 20.1669999999999,19.409 C20.3579999999999,19.19 20.4269999999999,18.999 20.3989999999999,18.872 C20.3989999999999,18.872 20.3989999999999,18.869 20.3989999999999,18.869 C20.3989999999999,18.869 20.3989999999999,18.872 20.3989999999999,18.872 C20.3989999999999,18.844 20.385,18.819 20.3720000000001,18.798 C20.345,18.78 20.3240000000001,18.759 20.29,18.752 C20.29,18.752 20.2829999999999,18.749 20.2829999999999,18.749 C20.2829999999999,18.749 20.2760000000001,18.745 20.2760000000001,18.745 C20.1400000000001,18.713 19.9280000000001,18.773 19.682,18.971 C19.682,18.971 15.192,22.604 15.192,22.604 C15.192,22.604 15.192,22.608 15.192,22.608 C14.953,22.799 14.7,22.947 14.421,23.06 C14.1479999999999,23.166 13.855,23.23 13.547,23.244 C13.547,23.244 11.377,23.364 11.377,23.364 C11.377,23.364 11.3630000000001,23.367 11.3630000000001,23.367 C11.3630000000001,23.367 11.336,23.367 11.336,23.367 C11.193,23.367 11.0630000000001,23.339 10.941,23.283 C10.797,23.223 10.681,23.12 10.579,22.993 C10.579,22.993 10.558,22.968 10.558,22.968 C10.558,22.968 10.5509999999999,22.958 10.5509999999999,22.958 C10.4760000000001,22.844 10.415,22.714 10.3879999999999,22.58 C10.3879999999999,22.58 10.3810000000001,22.548 10.3810000000001,22.548 C10.3810000000001,22.548 10.3810000000001,22.538 10.3810000000001,22.538 C10.3599999999999,22.4 10.367,22.259 10.394,22.121 C10.394,22.121 10.394,22.117 10.394,22.117 C10.5309999999999,21.598 10.5930000000001,21.143 10.5719999999999,20.691 C10.5440000000001,20.232 10.4490000000001,19.762 10.251,19.211 C10.1220000000001,18.823 9.91699999999992,18.639 9.72499999999991,18.615 C9.6579999999999,18.608 9.58899999999994,18.618 9.52099999999996,18.643 C9.45299999999997,18.668 9.39799999999991,18.717 9.32999999999993,18.78 C9.15900000000011,18.982 9.08400000000006,19.339 9.24099999999999,19.801 C9.24099999999999,19.801 9.24800000000005,19.829 9.24800000000005,19.829 C9.45299999999997,20.426 9.52099999999996,20.906 9.45299999999997,21.393 C9.37699999999995,21.877 9.17200000000003,22.319 8.81799999999998,22.863 C8.47000000000003,23.41 8.06099999999992,23.748 7.62400000000002,23.978 C7.20000000000005,24.19 6.77800000000002,24.296 6.34099999999989,24.388 C6.02600000000007,24.451 5.72700000000009,24.247 5.6579999999999,23.922 C5.60400000000004,23.604 5.7940000000001,23.29 6.10899999999992,23.226 C6.47000000000003,23.148 6.81799999999998,23.064 7.10500000000002,22.912 C7.37799999999993,22.774 7.63699999999994,22.555 7.86200000000008,22.199 C8.12799999999993,21.799 8.279,21.492 8.31999999999994,21.21 C8.3610000000001,20.938 8.30600000000004,20.634 8.17000000000007,20.232 C8.17000000000007,20.232 8.15599999999995,20.207 8.15599999999995,20.207 C7.82899999999995,19.268 8.04700000000003,18.47 8.48399999999992,17.972 C8.48399999999992,17.972 1.94599999999991,17.972 1.94599999999991,17.972 C1.41300000000001,17.972 0.99000000000001,17.527 0.99000000000001,16.98 C0.99000000000001,16.429 1.41300000000001,15.984 1.94599999999991,15.984 C1.94599999999991,15.984 25.019,15.984 25.019,15.984 C25.559,15.984 25.982,16.429 25.982,16.98 C25.982,17.527 25.559,17.972 25.019,17.972 C25.019,17.972 21.1969999999999,17.972 21.1969999999999,17.972 C21.1969999999999,17.972 21.2180000000001,17.993 21.2180000000001,17.993 C21.3689999999999,18.166 21.4780000000001,18.392 21.5319999999999,18.639 C21.5319999999999,18.639 21.5319999999999,18.639 21.5319999999999,18.639 C21.6279999999999,19.119 21.4780000000001,19.699 21,20.228 C21,20.228 16.318,25.313 16.318,25.313 C16.318,25.313 16.1949999999999,25.443 16.1949999999999,25.443 C16.1949999999999,25.443 16.1949999999999,25.451 16.1949999999999,25.451 C15.568,26.125 15.001,26.756 13.9839999999999,26.824 C13.9839999999999,26.824 6.05400000000009,28.007 6.05400000000009,28.007 C6.05400000000009,28.007 6.05400000000009,28.007 6.05400000000009,28.007 ZM10.8579999999999,17.972 C10.8579999999999,17.972 10.8579999999999,17.972 10.8579999999999,17.972 C11.05,18.187 11.213,18.459 11.336,18.805 C11.336,18.805 11.336,18.809 11.336,18.809 C11.568,19.472 11.691,20.055 11.7180000000001,20.634 C11.7460000000001,21.136 11.691,21.63 11.575,22.16 C11.575,22.16 13.4860000000001,22.054 13.4860000000001,22.054 C13.684,22.047 13.855,22.008 14.011,21.944 C14.011,21.944 14.018,21.944 14.018,21.944 C14.1759999999999,21.884 14.3320000000001,21.789 14.489,21.665 C14.489,21.665 14.489,21.669 14.489,21.669 C14.489,21.669 18.98,18.032 18.98,18.032 C18.98,18.032 19.048,17.972 19.048,17.972 C19.048,17.972 10.8579999999999,17.972 10.8579999999999,17.972 C10.8579999999999,17.972 10.8579999999999,17.972 10.8579999999999,17.972 ZM13.8879999999999,25.638 C13.8879999999999,25.638 13.8879999999999,25.638 13.8879999999999,25.638 C13.8879999999999,25.638 13.9090000000001,25.634 13.9090000000001,25.634 C13.9090000000001,25.634 13.8879999999999,25.638 13.8879999999999,25.638 C13.8879999999999,25.638 13.8879999999999,25.638 13.8879999999999,25.638 ZM15.356,24.631 C15.356,24.631 15.356,24.631 15.356,24.631 C15.356,24.631 15.3630000000001,24.617 15.3630000000001,24.617 C15.3630000000001,24.617 15.356,24.631 15.356,24.631 C15.356,24.631 15.356,24.631 15.356,24.631 ZM20.2760000000001,18.745 C20.2760000000001,18.745 20.2760000000001,18.745 20.2760000000001,18.745 C20.2760000000001,18.745 19.9079999999999,18.011 19.9079999999999,18.011 C19.8119999999999,18.321 19.9760000000001,18.647 20.2760000000001,18.745 C20.2760000000001,18.745 20.2760000000001,18.745 20.2760000000001,18.745 ZM19.963,7.976 C19.963,7.976 19.963,7.976 19.963,7.976 C18.297,6.25599999999997 16.0039999999999,5.19 13.4860000000001,5.19 C10.9680000000001,5.19 8.67399999999998,6.25599999999997 7.00999999999999,7.976 C5.47399999999993,9.56099999999998 4.48399999999992,11.708 4.33400000000006,14.073 C4.33400000000006,14.073 22.6310000000001,14.073 22.6310000000001,14.073 C22.4870000000001,11.708 21.491,9.56099999999998 19.963,7.976 C19.963,7.976 19.963,7.976 19.963,7.976 ZM14.107,2.44600000000003 C14.107,2.44600000000003 14.107,2.44600000000003 14.107,2.44600000000003 C13.944,2.27999999999997 13.7249999999999,2.18099999999998 13.4860000000001,2.18099999999998 C13.2470000000001,2.18099999999998 13.0219999999999,2.27999999999997 12.865,2.44600000000003 C12.701,2.60899999999998 12.605,2.83800000000002 12.605,3.089 C12.605,3.33999999999998 12.701,3.565 12.865,3.72800000000001 C13.0150000000001,3.887 13.2329999999999,3.98899999999998 13.4649999999999,3.99599999999998 C13.4649999999999,3.99599999999998 13.472,3.99599999999998 13.472,3.99599999999998 C13.472,3.99599999999998 13.4860000000001,3.99599999999998 13.4860000000001,3.99599999999998 C13.4860000000001,3.99599999999998 13.4929999999999,3.99599999999998 13.4929999999999,3.99599999999998 C13.4929999999999,3.99599999999998 13.5070000000001,3.99599999999998 13.5070000000001,3.99599999999998 C13.739,3.98899999999998 13.95,3.887 14.107,3.72800000000001 C14.2570000000001,3.565 14.3589999999999,3.33999999999998 14.3589999999999,3.089 C14.3589999999999,2.83800000000002 14.2570000000001,2.60899999999998 14.107,2.44600000000003 C14.107,2.44600000000003 14.107,2.44600000000003 14.107,2.44600000000003 Z "/>
</svg>
