<?xml version="1.0" encoding="utf-8"?>
<!-- Generator: Adobe Illustrator 18.1.1, SVG Export Plug-In . SVG Version: 6.00 Build 0)  -->
<svg version="1.1" id="Слой_1" xmlns:ev="http://www.w3.org/2001/xml-events"
	 xmlns="http://www.w3.org/2000/svg" xmlns:xlink="http://www.w3.org/1999/xlink" x="0px" y="0px" width="26px" height="29px"
	 viewBox="-266 466 26 29" enable-background="new -266 466 26 29" xml:space="preserve">
<path fill="#FFFFFF" d="M-252.51,466.99c0.56,0,1.07,0.23,1.43,0.61c0.37,0.38,0.59,0.9,0.59,1.49c0,0.39-0.1,0.75-0.28,1.06
	c2.14,0.38,4.06,1.45,5.54,2.98c1.87,1.93,3.03,4.6,3.03,7.54c0,0.33-0.25,0.6-0.57,0.6h-0.01h-19.47c-0.32,0-0.58-0.27-0.58-0.6
	v-0.02c0.01-2.93,1.17-5.59,3.03-7.52c1.48-1.53,3.4-2.6,5.54-2.98c-0.18-0.31-0.28-0.68-0.28-1.06c0-0.58,0.23-1.1,0.59-1.49
	C-253.59,467.22-253.08,466.99-252.51,466.99L-252.51,466.99z M-259.95,494.01L-259.95,494.01c-0.31,0.05-0.6-0.18-0.64-0.5
	c-0.05-0.33,0.17-0.63,0.49-0.68l7.94-1.19l0.07-0.01c0.56-0.04,0.99-0.5,1.44-1l0.01-0.01l0.12-0.12l4.69-5.08
	c0.19-0.22,0.26-0.41,0.23-0.54v0v0c0-0.03-0.01-0.05-0.03-0.07c-0.03-0.02-0.05-0.04-0.08-0.05l-0.01,0l-0.01,0
	c-0.14-0.03-0.35,0.03-0.59,0.23l-4.49,3.63v0c-0.24,0.19-0.49,0.34-0.77,0.45c-0.27,0.11-0.57,0.17-0.87,0.18l-2.17,0.12l-0.01,0
	h-0.03c-0.14,0-0.27-0.03-0.4-0.08c-0.14-0.06-0.26-0.16-0.36-0.29l-0.02-0.03l-0.01-0.01c-0.07-0.11-0.14-0.24-0.16-0.38
	l-0.01-0.03v-0.01c-0.02-0.14-0.01-0.28,0.01-0.42v0c0.14-0.52,0.2-0.97,0.18-1.43c-0.03-0.46-0.12-0.93-0.32-1.48
	c-0.13-0.39-0.33-0.57-0.53-0.6c-0.07-0.01-0.14,0-0.2,0.03s-0.12,0.07-0.19,0.14c-0.17,0.2-0.25,0.56-0.09,1.02l0.01,0.03
	c0.21,0.6,0.27,1.08,0.21,1.56c-0.08,0.48-0.28,0.93-0.64,1.47c-0.35,0.55-0.76,0.88-1.19,1.11c-0.42,0.21-0.85,0.32-1.28,0.41
	c-0.32,0.06-0.61-0.14-0.68-0.47c-0.05-0.32,0.14-0.63,0.45-0.7c0.36-0.08,0.71-0.16,1-0.31c0.27-0.14,0.53-0.36,0.76-0.71
	c0.27-0.4,0.42-0.71,0.46-0.99c0.04-0.27-0.01-0.58-0.15-0.98l-0.01-0.02c-0.33-0.94-0.11-1.74,0.33-2.24h-6.54
	c-0.53,0-0.96-0.44-0.96-0.99c0-0.55,0.42-1,0.96-1h23.07c0.54,0,0.96,0.45,0.96,1c0,0.55-0.42,0.99-0.96,0.99h-3.82l0.02,0.02
	c0.15,0.17,0.26,0.4,0.31,0.65l0,0c0.1,0.48-0.05,1.06-0.53,1.59l-4.68,5.08l-0.12,0.13v0.01c-0.63,0.67-1.19,1.31-2.21,1.37
	L-259.95,494.01L-259.95,494.01z M-255.14,483.97L-255.14,483.97c0.19,0.22,0.35,0.49,0.48,0.83v0c0.23,0.66,0.35,1.25,0.38,1.83
	c0.03,0.5-0.03,1-0.14,1.53l1.91-0.11c0.2-0.01,0.37-0.05,0.53-0.11h0.01c0.16-0.06,0.31-0.15,0.47-0.28v0l4.49-3.64l0.07-0.06
	H-255.14L-255.14,483.97z M-252.11,491.64L-252.11,491.64l0.02,0L-252.11,491.64L-252.11,491.64z M-250.64,490.63L-250.64,490.63
	l0.01-0.01L-250.64,490.63L-250.64,490.63z M-245.72,484.74L-245.72,484.74l-0.37-0.73C-246.19,484.32-246.02,484.65-245.72,484.74
	L-245.72,484.74z M-246.04,473.98L-246.04,473.98c-1.67-1.72-3.96-2.79-6.48-2.79c-2.52,0-4.81,1.07-6.48,2.79
	c-1.54,1.58-2.53,3.73-2.68,6.1h18.3C-243.51,477.71-244.51,475.56-246.04,473.98L-246.04,473.98z M-251.89,468.45L-251.89,468.45
	c-0.16-0.17-0.38-0.27-0.62-0.27c-0.24,0-0.46,0.1-0.62,0.27c-0.16,0.16-0.26,0.39-0.26,0.64c0,0.25,0.1,0.48,0.26,0.64
	c0.15,0.16,0.37,0.26,0.6,0.27h0.01h0.01h0.01h0.01c0.23-0.01,0.44-0.11,0.6-0.27c0.15-0.16,0.25-0.39,0.25-0.64
	C-251.64,468.84-251.74,468.61-251.89,468.45L-251.89,468.45z"/>
</svg>
