<?xml version="1.0" encoding="utf-8"?>
<!DOCTYPE svg PUBLIC "-//W3C//DTD SVG 1.1//EN" "http://www.w3.org/Graphics/SVG/1.1/DTD/svg11.dtd">
<svg version="1.1" baseProfile="full"
 xmlns="http://www.w3.org/2000/svg"
 xmlns:xlink="http://www.w3.org/1999/xlink"
 xmlns:ev="http://www.w3.org/2001/xml-events" 
  height="23px" 
  width="25px" 
>
<path fill="rgb( 93, 193, 232 )"
 d="M19.4880000000001,1.64699999999999 C19.365,1.18900000000002 18.918,0.911 18.471,1.029 C18.471,1.029 13.567,2.41399999999999 13.567,2.41399999999999 C13.414,2.17899999999997 13.167,2.01799999999997 12.873,2.01799999999997 C12.873,2.01799999999997 0.83000000000004,2.01799999999997 0.83000000000004,2.01799999999997 C0.37199999999996,2.01799999999997 0.00099999999998,2.41399999999999 0.00099999999998,2.89600000000002 C0.00099999999998,2.89600000000002 0.00099999999998,21.129 0.00099999999998,21.129 C0.00099999999998,21.618 0.37199999999996,22.007 0.83000000000004,22.007 C0.83000000000004,22.007 12.873,22.007 12.873,22.007 C13.332,22.007 13.702,21.618 13.702,21.129 C13.702,21.129 13.702,10.126 13.702,10.126 C13.702,10.126 16.5599999999999,21.364 16.5599999999999,21.364 C16.678,21.822 17.131,22.094 17.577,21.97 C17.577,21.97 23.3869999999999,20.337 23.3869999999999,20.337 C23.833,20.214 24.092,19.731 23.975,19.273 C23.975,19.273 19.4880000000001,1.64699999999999 19.4880000000001,1.64699999999999 C19.4880000000001,1.64699999999999 19.4880000000001,1.64699999999999 19.4880000000001,1.64699999999999 ZM6.35199999999998,20.263 C6.35199999999998,20.263 6.35199999999998,20.263 6.35199999999998,20.263 C6.35199999999998,20.263 1.65300000000002,20.263 1.65300000000002,20.263 C1.65300000000002,20.263 1.65300000000002,3.762 1.65300000000002,3.762 C1.65300000000002,3.762 6.35199999999998,3.762 6.35199999999998,3.762 C6.35199999999998,3.762 6.35199999999998,20.263 6.35199999999998,20.263 C6.35199999999998,20.263 6.35199999999998,20.263 6.35199999999998,20.263 ZM12.044,20.263 C12.044,20.263 12.044,20.263 12.044,20.263 C12.044,20.263 7.346,20.263 7.346,20.263 C7.346,20.263 7.346,3.762 7.346,3.762 C7.346,3.762 12.044,3.762 12.044,3.762 C12.044,3.762 12.044,20.263 12.044,20.263 C12.044,20.263 12.044,20.263 12.044,20.263 ZM17.942,20.071 C17.942,20.071 17.942,20.071 17.942,20.071 C17.942,20.071 13.884,4.13299999999998 13.884,4.13299999999998 C13.884,4.13299999999998 18.1,2.93900000000002 18.1,2.93900000000002 C18.1,2.93900000000002 22.164,18.877 22.164,18.877 C22.164,18.877 17.942,20.071 17.942,20.071 C17.942,20.071 17.942,20.071 17.942,20.071 ZM2.77099999999996,18.074 C2.77099999999996,18.074 2.77099999999996,18.074 2.77099999999996,18.074 C2.77099999999996,18.074 2.80600000000004,18.11 2.80600000000004,18.11 C3.10599999999999,18.426 3.52300000000002,18.624 3.98800000000006,18.624 C4.44100000000003,18.624 4.85199999999998,18.432 5.15800000000002,18.123 C5.15800000000002,18.123 5.15800000000002,18.123 5.15800000000002,18.123 C5.15800000000002,18.123 5.17600000000004,18.11 5.17600000000004,18.11 C5.48199999999997,17.789 5.66399999999999,17.344 5.66399999999999,16.861 C5.66399999999999,16.367 5.48199999999997,15.927 5.17600000000004,15.612 C5.17600000000004,15.612 5.16999999999996,15.612 5.16999999999996,15.612 C5.16999999999996,15.612 5.16999999999996,15.612 5.16999999999996,15.612 C4.87599999999998,15.29 4.452,15.093 3.98800000000006,15.093 C3.52300000000002,15.093 3.10599999999999,15.29 2.80600000000004,15.612 C2.80600000000004,15.612 2.80600000000004,15.612 2.80600000000004,15.612 C2.5,15.927 2.31200000000001,16.373 2.31200000000001,16.861 C2.31200000000001,17.331 2.48800000000006,17.765 2.77099999999996,18.074 C2.77099999999996,18.074 2.77099999999996,18.074 2.77099999999996,18.074 ZM3.5,16.348 C3.5,16.348 3.5,16.348 3.5,16.348 C3.62900000000002,16.218 3.79999999999995,16.138 3.98800000000006,16.138 C4.17600000000004,16.138 4.35299999999995,16.218 4.476,16.342 C4.476,16.342 4.476,16.348 4.476,16.348 C4.59299999999996,16.478 4.67600000000004,16.658 4.67600000000004,16.861 C4.67600000000004,17.059 4.59299999999996,17.238 4.476,17.369 C4.476,17.369 4.476,17.369 4.476,17.369 C4.34699999999998,17.504 4.17600000000004,17.579 3.98800000000006,17.579 C3.79999999999995,17.579 3.62900000000002,17.499 3.5,17.369 C3.5,17.369 3.48199999999997,17.344 3.48199999999997,17.344 C3.37099999999998,17.22 3.29999999999995,17.047 3.29999999999995,16.861 C3.29999999999995,16.658 3.37599999999998,16.478 3.5,16.348 C3.5,16.348 3.5,16.348 3.5,16.348 ZM3.84100000000001,12.606 C3.84100000000001,12.606 3.84100000000001,12.606 3.84100000000001,12.606 C4.11099999999999,12.606 4.33500000000004,12.371 4.33500000000004,12.087 C4.33500000000004,12.087 4.33500000000004,5.77800000000002 4.33500000000004,5.77800000000002 C4.33500000000004,5.49400000000003 4.11099999999999,5.25799999999998 3.84100000000001,5.25799999999998 C3.56399999999996,5.25799999999998 3.34699999999998,5.49400000000003 3.34699999999998,5.77800000000002 C3.34699999999998,5.77800000000002 3.34699999999998,12.087 3.34699999999998,12.087 C3.34699999999998,12.371 3.56399999999996,12.606 3.84100000000001,12.606 C3.84100000000001,12.606 3.84100000000001,12.606 3.84100000000001,12.606 ZM16.366,4.98700000000002 C16.366,4.98700000000002 16.366,4.98700000000002 16.366,4.98700000000002 C16.101,5.05500000000001 15.942,5.34500000000003 16.013,5.618 C16.013,5.618 17.5650000000001,11.709 17.5650000000001,11.709 C17.636,11.987 17.901,12.148 18.171,12.074 C18.436,12 18.588,11.716 18.518,11.431 C18.518,11.431 16.971,5.35199999999998 16.971,5.35199999999998 C16.895,5.07299999999998 16.625,4.90600000000001 16.366,4.98700000000002 C16.366,4.98700000000002 16.366,4.98700000000002 16.366,4.98700000000002 ZM8.36900000000003,18.074 C8.36900000000003,18.074 8.36900000000003,18.074 8.36900000000003,18.074 C8.36900000000003,18.074 8.39800000000002,18.11 8.39800000000002,18.11 C8.69799999999998,18.426 9.12099999999998,18.624 9.58600000000001,18.624 C10.038,18.624 10.45,18.432 10.756,18.123 C10.756,18.123 10.756,18.123 10.756,18.123 C10.756,18.123 10.768,18.11 10.768,18.11 C11.074,17.789 11.261,17.344 11.261,16.861 C11.261,16.367 11.074,15.927 10.768,15.612 C10.768,15.612 10.768,15.612 10.768,15.612 C10.768,15.612 10.768,15.612 10.768,15.612 C10.468,15.29 10.051,15.093 9.58600000000001,15.093 C9.12099999999998,15.093 8.69799999999998,15.29 8.39800000000002,15.612 C8.39800000000002,15.612 8.404,15.612 8.404,15.612 C8.09199999999998,15.927 7.90999999999997,16.373 7.90999999999997,16.861 C7.90999999999997,17.331 8.08600000000001,17.765 8.36900000000003,18.074 C8.36900000000003,18.074 8.36900000000003,18.074 8.36900000000003,18.074 ZM9.09799999999996,16.348 C9.09799999999996,16.348 9.09799999999996,16.348 9.09799999999996,16.348 C9.22699999999998,16.218 9.39200000000005,16.138 9.58600000000001,16.138 C9.77999999999997,16.138 9.94500000000005,16.218 10.068,16.342 C10.068,16.342 10.068,16.348 10.068,16.348 C10.192,16.478 10.274,16.658 10.274,16.861 C10.274,17.059 10.192,17.238 10.074,17.369 C10.074,17.369 10.068,17.369 10.068,17.369 C9.94500000000005,17.504 9.77999999999997,17.579 9.58600000000001,17.579 C9.39200000000005,17.579 9.22699999999998,17.499 9.09799999999996,17.369 C9.09799999999996,17.369 9.07399999999996,17.344 9.07399999999996,17.344 C8.96900000000005,17.22 8.89800000000002,17.047 8.89800000000002,16.861 C8.89800000000002,16.658 8.97500000000002,16.478 9.09799999999996,16.348 C9.09799999999996,16.348 9.09799999999996,16.348 9.09799999999996,16.348 ZM9.86199999999997,12.606 C9.86199999999997,12.606 9.86199999999997,12.606 9.86199999999997,12.606 C10.133,12.606 10.356,12.371 10.356,12.087 C10.356,12.087 10.356,5.77800000000002 10.356,5.77800000000002 C10.356,5.49400000000003 10.133,5.25799999999998 9.86199999999997,5.25799999999998 C9.58600000000001,5.25799999999998 9.36199999999997,5.49400000000003 9.36199999999997,5.77800000000002 C9.36199999999997,5.77800000000002 9.36199999999997,12.087 9.36199999999997,12.087 C9.36199999999997,12.371 9.58600000000001,12.606 9.86199999999997,12.606 C9.86199999999997,12.606 9.86199999999997,12.606 9.86199999999997,12.606 ZM18.095,14.932 C18.095,14.932 18.095,14.932 18.095,14.932 C17.789,15.247 17.601,15.686 17.601,16.181 C17.601,16.651 17.777,17.078 18.071,17.393 C18.071,17.393 18.095,17.424 18.095,17.424 C18.4,17.74 18.818,17.944 19.283,17.944 C19.729,17.944 20.141,17.752 20.446,17.443 C20.446,17.443 20.452,17.436 20.452,17.436 C20.452,17.436 20.47,17.418 20.47,17.418 C20.77,17.103 20.958,16.663 20.958,16.181 C20.958,15.686 20.77,15.247 20.47,14.925 C20.47,14.925 20.47,14.932 20.47,14.932 C20.47,14.932 20.47,14.925 20.47,14.925 C20.165,14.61 19.741,14.406 19.283,14.406 C18.818,14.406 18.4,14.61 18.095,14.932 C18.095,14.932 18.095,14.932 18.095,14.932 C18.095,14.932 18.095,14.932 18.095,14.932 ZM18.794,15.661 C18.794,15.661 18.794,15.661 18.794,15.661 C18.918,15.538 19.0890000000001,15.451 19.283,15.451 C19.47,15.451 19.647,15.538 19.765,15.661 C19.765,15.661 19.765,15.661 19.765,15.661 C19.888,15.798 19.965,15.977 19.965,16.181 C19.965,16.373 19.888,16.552 19.765,16.688 C19.765,16.688 19.765,16.688 19.765,16.688 C19.641,16.812 19.47,16.898 19.283,16.898 C19.0890000000001,16.898 18.918,16.812 18.794,16.688 C18.794,16.688 18.777,16.663 18.777,16.663 C18.665,16.533 18.5940000000001,16.36 18.5940000000001,16.181 C18.5940000000001,15.977 18.671,15.798 18.794,15.661 C18.794,15.661 18.794,15.661 18.794,15.661 Z "/>
</svg>
