<?xml version="1.0" encoding="utf-8"?>
<!DOCTYPE svg PUBLIC "-//W3C//DTD SVG 1.1//EN" "http://www.w3.org/Graphics/SVG/1.1/DTD/svg11.dtd">
<svg version="1.1" baseProfile="full"
 xmlns="http://www.w3.org/2000/svg"
 xmlns:xlink="http://www.w3.org/1999/xlink"
 xmlns:ev="http://www.w3.org/2001/xml-events" 
  height="30px" 
  width="26px" 
>
<path fill="rgb( 93, 193, 232 )"
 d="M25.835,24.366 C25.835,24.366 22.4930000000001,18.733 22.4930000000001,18.733 C23.968,16.87 24.842,14.537 24.842,12.008 C24.842,8.95800000000003 23.567,6.19600000000003 21.516,4.20100000000002 C19.4640000000001,2.20299999999997 16.62,0.96800000000002 13.487,0.96800000000002 C10.361,0.96800000000002 7.50900000000001,2.20299999999997 5.45699999999999,4.20100000000002 C3.40599999999995,6.19600000000003 2.13199999999995,8.95800000000003 2.13199999999995,12.008 C2.13199999999995,14.537 3.005,16.87 4.47900000000004,18.733 C4.47900000000004,18.733 1.13800000000003,24.366 1.13800000000003,24.366 C1.02599999999995,24.514 0.98500000000001,24.712 1.04200000000003,24.907 C1.13800000000003,25.258 1.50699999999995,25.465 1.86699999999996,25.372 C1.86699999999996,25.372 6.38599999999997,24.195 6.38599999999997,24.195 C6.38599999999997,24.195 7.58900000000006,28.577 7.58900000000006,28.577 C7.63699999999994,28.745 7.74099999999999,28.889 7.90899999999999,28.983 C8.22900000000004,29.158 8.64599999999996,29.053 8.83100000000002,28.741 C8.83100000000002,28.741 12.244,22.979 12.244,22.979 C12.653,23.026 13.0700000000001,23.049 13.487,23.049 C13.903,23.049 14.319,23.026 14.721,22.979 C14.721,22.979 18.15,28.737 18.15,28.737 C18.326,29.053 18.7430000000001,29.158 19.064,28.983 C19.224,28.889 19.336,28.741 19.384,28.577 C19.384,28.577 20.5940000000001,24.195 20.5940000000001,24.195 C20.5940000000001,24.195 25.106,25.372 25.106,25.372 C25.466,25.465 25.842,25.258 25.923,24.907 C25.987,24.712 25.939,24.514 25.835,24.366 C25.835,24.366 25.835,24.366 25.835,24.366 ZM8.47000000000003,26.707 C8.47000000000003,26.707 8.47000000000003,26.707 8.47000000000003,26.707 C8.47000000000003,26.707 7.50900000000001,23.216 7.50900000000001,23.216 C7.41200000000003,22.87 7.04399999999998,22.66 6.68299999999999,22.753 C6.68299999999999,22.753 6.66700000000003,22.761 6.66700000000003,22.761 C6.66700000000003,22.761 3.101,23.688 3.101,23.688 C3.101,23.688 5.41700000000003,19.777 5.41700000000003,19.777 C5.41700000000003,19.777 5.45699999999999,19.816 5.45699999999999,19.816 C6.91600000000005,21.226 8.75800000000004,22.262 10.827,22.745 C10.827,22.745 8.47000000000003,26.707 8.47000000000003,26.707 C8.47000000000003,26.707 8.47000000000003,26.707 8.47000000000003,26.707 ZM13.487,20.852 C13.487,20.852 13.487,20.852 13.487,20.852 C10.978,20.852 8.70299999999997,19.858 7.05999999999995,18.261 C5.40899999999999,16.661 4.39200000000005,14.447 4.39200000000005,12.008 C4.39200000000005,9.56599999999997 5.40899999999999,7.35300000000001 7.05999999999995,5.75200000000001 C8.70299999999997,4.15100000000001 10.978,3.16199999999998 13.487,3.16199999999998 C16.002,3.16199999999998 18.279,4.15100000000001 19.92,5.75200000000001 C21.563,7.35300000000001 22.5890000000001,9.56599999999997 22.5890000000001,12.008 C22.5890000000001,14.447 21.563,16.661 19.92,18.261 C18.279,19.858 16.002,20.852 13.487,20.852 C13.487,20.852 13.487,20.852 13.487,20.852 ZM20.297,22.761 C20.297,22.761 20.297,22.761 20.297,22.761 C20.297,22.761 20.282,22.753 20.282,22.753 C19.929,22.66 19.552,22.87 19.456,23.216 C19.456,23.216 18.503,26.707 18.503,26.707 C18.503,26.707 16.138,22.745 16.138,22.745 C18.2140000000001,22.262 20.057,21.226 21.516,19.816 C21.516,19.816 21.556,19.777 21.556,19.777 C21.556,19.777 23.88,23.688 23.88,23.688 C23.88,23.688 20.297,22.761 20.297,22.761 C20.297,22.761 20.297,22.761 20.297,22.761 ZM18.27,7.35300000000001 C18.27,7.35300000000001 18.27,7.35300000000001 18.27,7.35300000000001 C17.045,6.16500000000002 15.345,5.42899999999997 13.487,5.42899999999997 C11.627,5.42899999999997 9.92899999999997,6.16500000000002 8.71000000000004,7.35300000000001 C7.476,8.54599999999999 6.72400000000005,10.189 6.72400000000005,12.008 C6.72400000000005,13.82 7.476,15.468 8.71000000000004,16.657 C9.92899999999997,17.849 11.627,18.581 13.487,18.581 C15.345,18.581 17.045,17.849 18.27,16.657 C19.4880000000001,15.468 20.25,13.82 20.25,12.008 C20.25,10.189 19.4880000000001,8.54599999999999 18.27,7.35300000000001 C18.27,7.35300000000001 18.27,7.35300000000001 18.27,7.35300000000001 ZM17.309,15.726 C17.309,15.726 17.309,15.726 17.309,15.726 C16.3390000000001,16.676 14.977,17.264 13.487,17.264 C11.996,17.264 10.634,16.676 9.65599999999995,15.726 C8.68600000000004,14.77 8.06899999999996,13.458 8.06899999999996,12.008 C8.06899999999996,10.552 8.68600000000004,9.23899999999998 9.65599999999995,8.28399999999999 C10.634,7.33800000000002 11.996,6.74599999999998 13.487,6.74599999999998 C14.977,6.74599999999998 16.3390000000001,7.33800000000002 17.309,8.28399999999999 C18.2859999999999,9.23899999999998 18.895,10.552 18.895,12.008 C18.895,13.458 18.2859999999999,14.77 17.309,15.726 C17.309,15.726 17.309,15.726 17.309,15.726 Z "/>
</svg>
