<?xml version="1.0" encoding="utf-8"?>
<!DOCTYPE svg PUBLIC "-//W3C//DTD SVG 1.1//EN" "http://www.w3.org/Graphics/SVG/1.1/DTD/svg11.dtd">
<svg version="1.1" baseProfile="full"
 xmlns="http://www.w3.org/2000/svg"
 xmlns:xlink="http://www.w3.org/1999/xlink"
 xmlns:ev="http://www.w3.org/2001/xml-events" 
  height="20px" 
  width="28px" 
>
<path fill="rgb( 93, 193, 232 )"
 d="M19.502,14.328 C19.502,14.902 19.95,15.372 20.504,15.372 C21.057,15.372 21.504,14.902 21.504,14.328 C21.504,13.769 21.057,13.299 20.504,13.299 C19.95,13.299 19.502,13.769 19.502,14.328 C19.502,14.328 19.502,14.328 19.502,14.328 ZM26.008,6.60700000000003 C26.008,6.60700000000003 26.008,6.60700000000003 26.008,6.60700000000003 C26.008,6.60700000000003 21.864,6.60700000000003 21.864,6.60700000000003 C21.864,6.60700000000003 19.115,0.60599999999999 19.115,0.60599999999999 C18.9450000000001,0.23099999999999 18.59,0.01100000000002 18.213,0.01100000000002 C18.213,0.01100000000002 18.213,0.00400000000002 18.213,0.00400000000002 C18.213,0.00400000000002 5.92600000000004,0.00400000000002 5.92600000000004,0.00400000000002 C5.50400000000002,0.00400000000002 5.14099999999996,0.28300000000002 4.99199999999996,0.66500000000002 C4.99199999999996,0.66500000000002 2.27200000000005,6.60700000000003 2.27200000000005,6.60700000000003 C2.27200000000005,6.60700000000003 1.995,6.60700000000003 1.995,6.60700000000003 C1.44399999999996,6.60700000000003 0.99699999999996,7.077 0.99699999999996,7.64400000000001 C0.99699999999996,7.64400000000001 0.99699999999996,14.247 0.99699999999996,14.247 C0.99699999999996,14.814 1.44399999999996,15.284 1.995,15.284 C1.995,15.284 2.81899999999996,15.284 2.81899999999996,15.284 C3.00400000000002,16.195 3.43700000000001,17.005 4.048,17.637 C4.048,17.637 4.10500000000002,17.696 4.10500000000002,17.696 C4.91800000000001,18.505 6.02200000000005,19.005 7.24000000000001,19.005 C8.47900000000004,19.005 9.60900000000004,18.483 10.425,17.637 C10.425,17.637 10.45,17.615 10.45,17.615 C11.047,16.99 11.48,16.181 11.657,15.284 C11.657,15.284 16.082,15.284 16.082,15.284 C16.263,16.195 16.7,17.005 17.311,17.637 C17.311,17.637 17.364,17.696 17.364,17.696 C18.181,18.505 19.2859999999999,19.005 20.504,19.005 C21.7430000000001,19.005 22.8680000000001,18.483 23.692,17.637 C23.692,17.637 23.7140000000001,17.615 23.7140000000001,17.615 C24.3099999999999,16.99 24.74,16.181 24.925,15.284 C24.925,15.284 26.008,15.284 26.008,15.284 C26.562,15.284 27.005,14.814 27.005,14.247 C27.005,14.247 27.005,7.64400000000001 27.005,7.64400000000001 C27.005,7.077 26.562,6.60700000000003 26.008,6.60700000000003 C26.008,6.60700000000003 26.008,6.60700000000003 26.008,6.60700000000003 ZM25.003,13.211 C25.003,13.211 25.003,13.211 25.003,13.211 C25.003,13.211 24.016,13.211 24.016,13.211 C24.016,13.211 24.016,13.217 24.016,13.217 C24.016,13.217 24.005,13.217 24.005,13.217 C23.458,13.225 23.014,13.681 23.018,14.254 C23.018,14.254 23.014,14.328 23.014,14.328 C23.014,15.056 22.73,15.71 22.275,16.181 C21.828,16.644 21.196,16.931 20.504,16.931 C19.825,16.931 19.211,16.659 18.763,16.21 C18.763,16.21 18.724,16.166 18.724,16.166 C18.273,15.71 17.989,15.049 17.989,14.328 C17.989,14.328 17.9930000000001,14.247 17.9930000000001,14.247 C17.9930000000001,13.666 17.545,13.211 16.9880000000001,13.211 C16.9880000000001,13.211 10.748,13.211 10.748,13.211 C10.748,13.211 10.748,13.217 10.748,13.217 C10.748,13.217 10.742,13.217 10.742,13.217 C10.191,13.225 9.75,13.681 9.75400000000002,14.254 C9.75400000000002,14.254 9.75,14.328 9.75,14.328 C9.75,15.056 9.46699999999998,15.71 9.01599999999996,16.181 C8.56100000000004,16.644 7.93200000000002,16.931 7.24000000000001,16.931 C6.55799999999999,16.931 5.947,16.659 5.5,16.21 C5.5,16.21 5.46100000000001,16.166 5.46100000000001,16.166 C5.00999999999999,15.71 4.726,15.049 4.726,14.328 C4.726,14.328 4.726,14.247 4.726,14.247 C4.726,13.666 4.28200000000004,13.211 3.72799999999995,13.211 C3.72799999999995,13.211 2.99300000000005,13.211 2.99300000000005,13.211 C2.99300000000005,13.211 2.99300000000005,12.43 2.99300000000005,12.43 C2.99300000000005,12.43 10.529,12.43 10.529,12.43 C11.451,12.43 12.29,12.041 12.9,11.409 C12.9,11.409 12.904,11.409 12.904,11.409 C13.377,10.916 13.707,10.284 13.838,9.577 C13.838,9.577 14.85,9.577 14.85,9.577 C15.2329999999999,9.577 15.5890000000001,9.40100000000001 15.848,9.13600000000002 C15.848,9.13600000000002 15.851,9.13600000000002 15.851,9.13600000000002 C16.107,8.87200000000001 16.2670000000001,8.50400000000002 16.2670000000001,8.10700000000003 C16.2670000000001,8.10700000000003 16.2670000000001,6.03300000000002 16.2670000000001,6.03300000000002 C16.2670000000001,5.68099999999998 15.997,5.40800000000002 15.667,5.40800000000002 C15.667,5.40800000000002 15.3150000000001,5.40800000000002 15.3150000000001,5.40800000000002 C15.3150000000001,5.40800000000002 15.3150000000001,3.46699999999998 15.3150000000001,3.46699999999998 C15.3150000000001,3.12900000000002 15.046,2.84199999999998 14.712,2.84199999999998 C14.3819999999999,2.84199999999998 14.111,3.12900000000002 14.111,3.46699999999998 C14.111,3.46699999999998 14.111,5.40800000000002 14.111,5.40800000000002 C14.111,5.40800000000002 12.4640000000001,5.40800000000002 12.4640000000001,5.40800000000002 C12.4640000000001,5.40800000000002 12.4640000000001,3.46699999999998 12.4640000000001,3.46699999999998 C12.4640000000001,3.12900000000002 12.194,2.84199999999998 11.864,2.84199999999998 C11.53,2.84199999999998 11.263,3.12900000000002 11.263,3.46699999999998 C11.263,3.46699999999998 11.263,5.40800000000002 11.263,5.40800000000002 C11.263,5.40800000000002 10.908,5.40800000000002 10.908,5.40800000000002 C10.582,5.40800000000002 10.308,5.68099999999998 10.308,6.03300000000002 C10.308,6.03300000000002 10.308,8.10700000000003 10.308,8.10700000000003 C10.308,8.50400000000002 10.472,8.87200000000001 10.723,9.13600000000002 C10.9829999999999,9.40100000000001 11.338,9.577 11.725,9.577 C11.725,9.577 12.606,9.577 12.606,9.577 C12.499,9.94600000000003 12.311,10.269 12.055,10.534 C11.665,10.931 11.121,11.188 10.529,11.188 C10.529,11.188 2.99300000000005,11.188 2.99300000000005,11.188 C2.99300000000005,11.188 2.99300000000005,9.06299999999999 2.99300000000005,9.06299999999999 C2.99300000000005,9.06299999999999 6.55499999999995,2.077 6.55499999999995,2.077 C6.55499999999995,2.077 17.581,2.077 17.581,2.077 C17.581,2.077 20.3579999999999,8.15899999999999 20.3579999999999,8.15899999999999 C20.504,8.48899999999998 20.805,8.68099999999998 21.153,8.68099999999998 C21.153,8.68099999999998 25.003,8.68099999999998 25.003,8.68099999999998 C25.003,8.68099999999998 25.003,13.211 25.003,13.211 C25.003,13.211 25.003,13.211 25.003,13.211 ZM11.725,8.327 C11.725,8.327 11.725,8.327 11.725,8.327 C11.665,8.327 11.615,8.298 11.572,8.25400000000002 C11.534,8.22500000000002 11.508,8.166 11.508,8.10700000000003 C11.508,8.10700000000003 11.508,6.65100000000001 11.508,6.65100000000001 C11.508,6.65100000000001 15.067,6.65100000000001 15.067,6.65100000000001 C15.067,6.65100000000001 15.067,8.10700000000003 15.067,8.10700000000003 C15.067,8.166 15.046,8.22500000000002 15.003,8.25400000000002 C15.003,8.25400000000002 15.003,8.26100000000002 15.003,8.26100000000002 C14.963,8.298 14.907,8.327 14.85,8.327 C14.85,8.327 11.725,8.327 11.725,8.327 C11.725,8.327 11.725,8.327 11.725,8.327 ZM7.24000000000001,13.299 C7.24000000000001,13.299 7.24000000000001,13.299 7.24000000000001,13.299 C6.68600000000004,13.299 6.23800000000006,13.769 6.23800000000006,14.328 C6.23800000000006,14.902 6.68600000000004,15.372 7.24000000000001,15.372 C7.78999999999996,15.372 8.23800000000006,14.902 8.23800000000006,14.328 C8.23800000000006,13.769 7.78999999999996,13.299 7.24000000000001,13.299 C7.24000000000001,13.299 7.24000000000001,13.299 7.24000000000001,13.299 Z "/>
</svg>
