<?xml version="1.0" encoding="utf-8"?>
<!DOCTYPE svg PUBLIC "-//W3C//DTD SVG 1.1//EN" "http://www.w3.org/Graphics/SVG/1.1/DTD/svg11.dtd">
<svg version="1.1" baseProfile="full"
 xmlns="http://www.w3.org/2000/svg"
 xmlns:xlink="http://www.w3.org/1999/xlink"
 xmlns:ev="http://www.w3.org/2001/xml-events" 
  height="30px" 
  width="20px" 
>
<path fill="rgb( 93, 193, 232 )"
 d="M10,0 C14.226,0 17.677,3.66900000000001 17.677,8.15199999999999 C17.677,10.391 16.818,12.432 15.431,13.904 C15.431,13.904 15.427,13.904 15.427,13.904 C15.427,13.904 15.423,13.909 15.423,13.909 C15.423,13.909 15.423,13.913 15.423,13.913 C15.423,13.913 15.375,13.963 15.375,13.963 C16.854,15.536 18.552,17.033 19.367,19.141 C19.367,19.141 19.371,19.141 19.371,19.141 C19.788,20.2 19.999,21.351 19.999,22.57 C19.999,22.57 19.999,25.088 19.999,25.088 C19.999,25.678 19.824,26.298 19.498,26.783 C19.1559999999999,27.289 18.659,27.656 18.022,27.732 C17.975,27.74 17.931,27.744 17.891,27.744 C17.891,27.744 15.697,27.744 15.697,27.744 C15.697,27.744 15.697,28.807 15.697,28.807 C15.697,29.46 15.192,29.992 14.576,29.992 C14.576,29.992 14.548,29.992 14.548,29.992 C14.548,29.992 5.41899999999998,29.992 5.41899999999998,29.992 C4.79899999999998,29.992 4.30200000000002,29.46 4.30200000000002,28.807 C4.30200000000002,28.807 4.30200000000002,28.773 4.30200000000002,28.773 C4.30200000000002,28.773 4.30200000000002,27.744 4.30200000000002,27.744 C4.30200000000002,27.744 2.10799999999995,27.744 2.10799999999995,27.744 C2.02800000000002,27.744 1.952,27.735 1.87300000000005,27.719 C1.28399999999999,27.618 0.82000000000005,27.26 0.49699999999996,26.783 C0.17600000000004,26.298 0,25.678 0,25.088 C0,25.088 0,22.57 0,22.57 C0,21.351 0.20699999999999,20.209 0.62800000000004,19.141 C1.447,17.038 3.14099999999996,15.536 4.62800000000004,13.963 C4.62800000000004,13.963 4.572,13.909 4.572,13.909 C4.572,13.909 4.56899999999996,13.904 4.56899999999996,13.904 C3.13300000000004,12.381 2.31799999999998,10.298 2.31799999999998,8.15199999999999 C2.31799999999998,3.66499999999999 5.77700000000004,0 10,0 C10,0 10,0 10,0 ZM5.19299999999998,25.37 C5.19299999999998,25.37 5.19299999999998,25.37 5.19299999999998,25.37 C5.19299999999998,25.37 5.19299999999998,22.228 5.19299999999998,22.228 C5.19299999999998,21.836 5.49099999999999,21.515 5.86099999999999,21.515 C6.23800000000006,21.515 6.53700000000003,21.836 6.53700000000003,22.228 C6.53700000000003,22.228 6.53700000000003,26.445 6.53700000000003,26.445 C6.53700000000003,26.445 6.54100000000005,26.555 6.54100000000005,26.555 C6.54100000000005,26.555 6.54100000000005,27.618 6.54100000000005,27.618 C6.54100000000005,27.618 13.454,27.618 13.454,27.618 C13.454,27.618 13.454,26.584 13.454,26.584 C13.454,26.584 13.454,26.555 13.454,26.555 C13.454,26.555 13.462,26.445 13.462,26.445 C13.462,26.445 13.462,22.228 13.462,22.228 C13.462,21.836 13.761,21.515 14.134,21.515 C14.508,21.515 14.806,21.836 14.806,22.228 C14.806,22.228 14.806,25.37 14.806,25.37 C14.806,25.37 17.701,25.37 17.701,25.37 C17.7329999999999,25.298 17.756,25.193 17.756,25.088 C17.756,25.088 17.756,22.57 17.756,22.57 C17.756,21.654 17.606,20.816 17.308,20.048 C17.308,20.048 17.311,20.048 17.311,20.048 C17.311,20.048 17.308,20.044 17.308,20.044 C16.611,18.256 14.774,16.683 13.542,15.371 C12.477,15.962 11.276,16.295 10,16.295 C8.72400000000005,16.295 7.51900000000001,15.962 6.45699999999999,15.371 C5.197,16.708 3.39599999999996,18.234 2.69100000000003,20.044 C2.39400000000001,20.812 2.24300000000005,21.654 2.24300000000005,22.57 C2.24300000000005,22.57 2.24300000000005,25.088 2.24300000000005,25.088 C2.24300000000005,25.193 2.26199999999994,25.298 2.298,25.37 C2.298,25.37 5.19299999999998,25.37 5.19299999999998,25.37 C5.19299999999998,25.37 5.19299999999998,25.37 5.19299999999998,25.37 ZM10,2.37899999999999 C10,2.37899999999999 10,2.37899999999999 10,2.37899999999999 C7.00099999999998,2.37899999999999 4.55600000000004,4.97200000000001 4.55600000000004,8.15199999999999 C4.55600000000004,11.365 7.02200000000005,13.916 10,13.916 C12.973,13.916 15.439,11.365 15.439,8.15199999999999 C15.439,4.96799999999999 12.998,2.37899999999999 10,2.37899999999999 C10,2.37899999999999 10,2.37899999999999 10,2.37899999999999 Z "/>
</svg>
