<?xml version="1.0" encoding="utf-8"?>
<!DOCTYPE svg PUBLIC "-//W3C//DTD SVG 1.1//EN" "http://www.w3.org/Graphics/SVG/1.1/DTD/svg11.dtd">
<svg version="1.1" baseProfile="full"
 xmlns="http://www.w3.org/2000/svg"
 xmlns:xlink="http://www.w3.org/1999/xlink"
 xmlns:ev="http://www.w3.org/2001/xml-events" 
  height="19px" 
  width="19px" 
>
<path fill="rgb( 52, 177, 226 )"
 d="M16.222,16.213 C16.222,16.213 16.162,16.266 16.162,16.266 C14.451,17.949 12.0940000000001,18.9930000000001 9.50900000000001,18.9930000000001 C6.88900000000001,18.9930000000001 4.51999999999998,17.927 2.803,16.213 C2.803,16.213 2.79899999999998,16.2089999999999 2.79899999999998,16.2089999999999 C2.79899999999998,16.2089999999999 2.79600000000005,16.213 2.79600000000005,16.213 C1.08199999999999,14.492 0.01499999999999,12.119 0.01499999999999,9.5 C0.01499999999999,6.88 1.08199999999999,4.50800000000004 2.79600000000005,2.79399999999998 C2.79600000000005,2.79399999999998 2.85500000000002,2.73400000000004 2.85500000000002,2.73400000000004 C4.56899999999996,1.05399999999997 6.91499999999996,0.01099999999997 9.50900000000001,0.01099999999997 C12.12,0.01099999999997 14.497,1.077 16.218,2.79399999999998 C16.218,2.79399999999998 16.222,2.79399999999998 16.222,2.79399999999998 C17.9349999999999,4.50800000000004 18.998,6.88 18.998,9.5 C18.998,12.119 17.9349999999999,14.492 16.222,16.213 ZM14.728,4.28399999999999 C14.728,4.28399999999999 14.728,4.27999999999997 14.728,4.27999999999997 C13.396,2.94399999999996 11.548,2.12099999999998 9.50900000000001,2.12099999999998 C7.49199999999996,2.12099999999998 5.66499999999996,2.92899999999997 4.33000000000004,4.23500000000001 C4.33000000000004,4.23500000000001 4.28800000000001,4.28399999999999 4.28800000000001,4.28399999999999 C2.95600000000002,5.61599999999999 2.13,7.46400000000006 2.13,9.5 C2.13,11.54 2.95600000000002,13.388 4.28800000000001,14.72 C5.625,16.052 7.46900000000005,16.8869999999999 9.50900000000001,16.8869999999999 C11.522,16.8869999999999 13.355,16.075 14.68,14.765 C14.68,14.765 14.728,14.72 14.728,14.72 C16.0650000000001,13.388 16.888,11.54 16.888,9.5 C16.888,7.46400000000006 16.0650000000001,5.61599999999999 14.728,4.28399999999999 ZM13.329,10.1609999999999 C13.329,10.1609999999999 7.11199999999997,10.1609999999999 7.11199999999997,10.1609999999999 C7.11199999999997,10.1609999999999 8.21400000000006,11.453 8.21400000000006,11.453 C8.48500000000001,11.761 8.48500000000001,12.282 8.21400000000006,12.61 C7.94299999999998,12.918 7.50699999999995,12.918 7.23599999999999,12.61 C7.23599999999999,12.61 4.95000000000005,9.92999999999995 4.95000000000005,9.92999999999995 C4.67899999999997,9.60299999999995 4.67899999999997,9.08299999999997 4.95000000000005,8.774 C4.95000000000005,8.774 7.23599999999999,6.09400000000005 7.23599999999999,6.09400000000005 C7.50699999999995,5.77599999999995 7.94299999999998,5.77599999999995 8.21400000000006,6.09400000000005 C8.48500000000001,6.40300000000002 8.48500000000001,6.923 8.21400000000006,7.25099999999998 C8.21400000000006,7.25099999999998 7.11199999999997,8.54300000000001 7.11199999999997,8.54300000000001 C7.11199999999997,8.54300000000001 13.329,8.54300000000001 13.329,8.54300000000001 C13.707,8.54300000000001 14.019,8.90899999999999 14.019,9.35199999999998 C14.019,9.79499999999996 13.707,10.1609999999999 13.329,10.1609999999999 Z "/>
</svg>
