<?xml version="1.0" encoding="utf-8"?>
<!DOCTYPE svg PUBLIC "-//W3C//DTD SVG 1.1//EN" "http://www.w3.org/Graphics/SVG/1.1/DTD/svg11.dtd">
<svg version="1.1" baseProfile="full"
 xmlns="http://www.w3.org/2000/svg"
 xmlns:xlink="http://www.w3.org/1999/xlink"
 xmlns:ev="http://www.w3.org/2001/xml-events" 
  height="21px" 
  width="16px" 
>
<path opacity="0.8" fill="rgb( 165, 183, 188 )"
 d="M5.79700000000003,1.19799999999998 C5.79700000000003,1.19799999999998 7.43200000000002,5.07600000000002 7.43200000000002,5.07600000000002 C7.43200000000002,5.07600000000002 7.45100000000002,5.13499999999999 7.45100000000002,5.13499999999999 C7.52599999999995,5.32799999999997 7.56299999999999,5.52199999999999 7.56500000000005,5.72000000000003 C7.56399999999996,5.935 7.51800000000003,6.14999999999998 7.42899999999997,6.36200000000002 C7.33699999999999,6.56900000000002 7.21400000000006,6.75200000000001 7.05700000000002,6.90300000000002 C7.05700000000002,6.90300000000002 7.02599999999995,6.93700000000001 7.02599999999995,6.93700000000001 C6.875,7.072 6.70100000000002,7.17599999999999 6.505,7.25200000000001 C6.505,7.25200000000001 6.45699999999999,7.267 6.45699999999999,7.267 C6.45699999999999,7.267 5.00699999999995,7.82900000000001 5.00699999999995,7.82900000000001 C4.88599999999997,7.98399999999998 4.69000000000005,8.34500000000003 4.89599999999996,8.91000000000003 C5.22500000000002,9.822 5.63099999999997,10.69 6.10900000000004,11.521 C6.10900000000004,11.521 6.11099999999999,11.524 6.11099999999999,11.524 C6.11099999999999,11.524 6.11099999999999,11.522 6.11099999999999,11.522 C6.59199999999998,12.356 7.14400000000001,13.143 7.76599999999996,13.879 C8.154,14.341 8.56299999999999,14.352 8.75800000000004,14.325 C8.75800000000004,14.325 10.008,13.319 10.008,13.319 C10.008,13.319 10.003,13.317 10.003,13.317 C10.18,13.174 10.373,13.07 10.587,13.011 C10.587,13.011 10.585,13.008 10.585,13.008 C10.794,12.95 11.014,12.933 11.239,12.96 C11.239,12.96 11.263,12.964 11.263,12.964 C11.482,12.996 11.682,13.062 11.862,13.167 C11.862,13.167 11.894,13.186 11.894,13.186 C12.068,13.292 12.222,13.431 12.351,13.603 C12.351,13.603 12.352,13.6 12.352,13.6 C12.352,13.6 14.896,16.954 14.896,16.954 C14.896,16.954 14.9349999999999,17.012 14.9349999999999,17.012 C15.0599999999999,17.191 15.145,17.39 15.189,17.597 C15.189,17.597 15.191,17.598 15.191,17.598 C15.241,17.826 15.241,18.064 15.187,18.304 C15.135,18.543 15.035,18.759 14.897,18.944 C14.755,19.132 14.5700000000001,19.287 14.353,19.403 C14.0940000000001,19.541 13.789,19.672 13.432,19.774 C13.432,19.774 13.3869999999999,19.784 13.3869999999999,19.784 C13.045,19.878 12.653,19.949 12.212,19.977 C10.2910000000001,20.091 8.43299999999999,19.479 6.78700000000003,18.392 C5.04100000000005,17.241 3.52999999999997,15.557 2.42499999999995,13.65 C1.32600000000002,11.74 0.62099999999998,9.58800000000002 0.49900000000002,7.50400000000002 C0.37900000000002,5.53199999999998 0.78099999999995,3.618 1.84000000000003,2.01100000000002 C2.09199999999998,1.62299999999999 2.36000000000001,1.31400000000002 2.62400000000002,1.06 C2.62400000000002,1.06 2.62699999999995,1.05700000000002 2.62699999999995,1.05700000000002 C2.62699999999995,1.05700000000002 2.625,1.05599999999998 2.625,1.05599999999998 C2.89200000000005,0.798 3.15800000000002,0.59699999999998 3.40499999999997,0.44299999999998 C3.61599999999999,0.31099999999998 3.84100000000001,0.23099999999999 4.07399999999996,0.20100000000002 C4.07399999999996,0.20100000000002 4.13199999999995,0.197 4.13199999999995,0.197 C4.346,0.17500000000001 4.56399999999996,0.202 4.77599999999995,0.26799999999997 C5.01099999999997,0.34199999999998 5.21600000000001,0.46300000000002 5.38999999999999,0.618 C5.38999999999999,0.618 5.41899999999998,0.649 5.41899999999998,0.649 C5.41899999999998,0.649 5.79700000000003,1.19799999999998 5.79700000000003,1.19799999999998 C5.79700000000003,1.19799999999998 5.79700000000003,1.19799999999998 5.79700000000003,1.19799999999998 ZM6.19299999999998,5.60000000000002 C6.19299999999998,5.60000000000002 6.19299999999998,5.60000000000002 6.19299999999998,5.60000000000002 C6.19299999999998,5.60000000000002 4.55700000000002,1.72199999999998 4.55700000000002,1.72199999999998 C4.55700000000002,1.72199999999998 4.55999999999995,1.72300000000001 4.55999999999995,1.72300000000001 C4.54100000000005,1.68299999999999 4.524,1.65100000000001 4.49900000000002,1.62400000000002 C4.49900000000002,1.62400000000002 4.48699999999997,1.61399999999998 4.48699999999997,1.61399999999998 C4.45699999999999,1.58600000000001 4.41800000000001,1.56599999999997 4.37400000000002,1.54899999999998 C4.33199999999999,1.53800000000001 4.29600000000005,1.53300000000002 4.26400000000001,1.53399999999999 C4.26400000000001,1.53399999999999 4.24000000000001,1.53800000000001 4.24000000000001,1.53800000000001 C4.20000000000005,1.54199999999997 4.16099999999994,1.55900000000003 4.11900000000003,1.58199999999999 C3.94399999999996,1.69099999999997 3.75400000000002,1.83800000000002 3.55700000000002,2.02800000000002 C3.35699999999997,2.22000000000003 3.15300000000002,2.45699999999999 2.96000000000004,2.74900000000002 C2.07000000000005,4.09699999999998 1.73500000000001,5.73200000000003 1.83799999999997,7.42700000000002 C1.95100000000002,9.28899999999999 2.58799999999997,11.234 3.59100000000001,12.975 C4.59699999999998,14.717 5.96400000000006,16.244 7.52099999999996,17.27 C8.94100000000003,18.205 10.519,18.734 12.134,18.635 C12.468,18.618 12.764,18.563 13.027,18.49 C13.027,18.49 13.056,18.481 13.056,18.481 C13.321,18.406 13.543,18.309 13.721,18.216 C13.765,18.193 13.799,18.165 13.822,18.134 C13.822,18.134 13.822,18.137 13.822,18.137 C13.822,18.137 13.825,18.132 13.825,18.132 C13.848,18.104 13.865,18.059 13.875,18.012 C13.8869999999999,17.966 13.886,17.921 13.88,17.883 C13.88,17.883 13.88,17.88 13.88,17.88 C13.88,17.88 13.88,17.88 13.88,17.88 C13.873,17.851 13.862,17.82 13.84,17.79 C13.84,17.79 13.819,17.767 13.819,17.767 C13.819,17.767 11.278,14.414 11.278,14.414 C11.278,14.414 11.2809999999999,14.412 11.2809999999999,14.412 C11.2809999999999,14.412 11.279,14.409 11.279,14.409 C11.2569999999999,14.381 11.231,14.357 11.206,14.34 C11.206,14.34 11.191,14.334 11.191,14.334 C11.1609999999999,14.313 11.127,14.304 11.086,14.298 C11.086,14.298 11.077,14.295 11.077,14.295 C11.034,14.291 10.9930000000001,14.293 10.956,14.303 C10.956,14.303 10.957,14.3 10.957,14.3 C10.957,14.3 10.956,14.303 10.956,14.303 C10.924,14.311 10.8869999999999,14.331 10.852,14.359 C10.852,14.359 10.85,14.358 10.85,14.358 C10.85,14.358 10.85,14.358 10.85,14.358 C10.85,14.358 9.50800000000004,15.441 9.50800000000004,15.441 C9.43600000000004,15.506 9.34500000000003,15.559 9.24199999999996,15.585 C9.24099999999999,15.587 7.87699999999995,16.096 6.73800000000006,14.741 C6.05399999999997,13.932 5.45799999999997,13.082 4.94600000000003,12.195 C4.94600000000003,12.195 4.94600000000003,12.193 4.94600000000003,12.193 C4.43100000000004,11.299 3.99099999999999,10.357 3.63199999999995,9.368 C3.03300000000002,7.70800000000003 4.15499999999997,6.779 4.15800000000002,6.77699999999999 C4.21900000000005,6.71699999999998 4.29399999999998,6.66500000000002 4.38300000000004,6.63200000000001 C4.38300000000004,6.63200000000001 5.96699999999998,6.01900000000001 5.96699999999998,6.01900000000001 C5.96699999999998,6.01900000000001 6.02499999999998,5.99799999999999 6.02499999999998,5.99799999999999 C6.05799999999999,5.98500000000001 6.09000000000003,5.96600000000001 6.11000000000001,5.94900000000001 C6.11000000000001,5.94900000000001 6.12599999999998,5.93299999999999 6.12599999999998,5.93299999999999 C6.14999999999998,5.90800000000002 6.17399999999998,5.87400000000002 6.19299999999998,5.83300000000003 C6.20899999999995,5.79199999999997 6.21400000000006,5.75200000000001 6.21799999999996,5.71800000000002 C6.21900000000005,5.68900000000002 6.21500000000003,5.65800000000002 6.20299999999997,5.62900000000002 C6.20299999999997,5.62900000000002 6.19299999999998,5.60000000000002 6.19299999999998,5.60000000000002 C6.19299999999998,5.60000000000002 6.19299999999998,5.60000000000002 6.19299999999998,5.60000000000002 ZM5.79600000000005,1.19999999999999 C5.79600000000005,1.19999999999999 5.79600000000005,1.19999999999999 5.79600000000005,1.19999999999999 C5.79600000000005,1.19999999999999 5.79700000000003,1.19799999999998 5.79700000000003,1.19799999999998 C5.79700000000003,1.19799999999998 5.79600000000005,1.19999999999999 5.79600000000005,1.19999999999999 C5.79600000000005,1.19999999999999 5.79600000000005,1.19999999999999 5.79600000000005,1.19999999999999 ZM5.79399999999998,1.197 C5.79399999999998,1.197 5.79399999999998,1.197 5.79399999999998,1.197 C5.79399999999998,1.197 5.79600000000005,1.19999999999999 5.79600000000005,1.19999999999999 C5.79600000000005,1.19999999999999 5.79399999999998,1.197 5.79399999999998,1.197 C5.79399999999998,1.197 5.79399999999998,1.197 5.79399999999998,1.197 Z "/>
</svg>
