<?xml version="1.0" encoding="utf-8"?>
<!DOCTYPE svg PUBLIC "-//W3C//DTD SVG 1.1//EN" "http://www.w3.org/Graphics/SVG/1.1/DTD/svg11.dtd">
<svg version="1.1" baseProfile="full"
 xmlns="http://www.w3.org/2000/svg"
 xmlns:xlink="http://www.w3.org/1999/xlink"
 xmlns:ev="http://www.w3.org/2001/xml-events" 
  height="26px" 
  width="22px" 
>
<path fill="rgb( 93, 193, 232 )"
 d="M20.952,21.112 C20.952,21.112 18.688,17.063 18.688,17.063 C19.067,16.907 19.367,16.628 19.5599999999999,16.285 C19.5599999999999,16.285 19.556,16.285 19.556,16.285 C19.556,16.285 19.5599999999999,16.282 19.5599999999999,16.282 C19.772,15.9 19.852,15.438 19.753,14.979 C19.753,14.979 19.434,13.533 19.434,13.533 C19.434,13.533 19.431,13.513 19.431,13.513 C19.431,13.513 20.367,12.473 20.367,12.473 C20.367,12.473 20.412,12.422 20.412,12.422 C20.727,12.071 20.885,11.628 20.885,11.186 C20.885,10.747 20.727,10.302 20.412,9.953 C20.412,9.953 20.412,9.953 20.412,9.953 C20.412,9.953 19.431,8.85900000000001 19.431,8.85900000000001 C19.431,8.85900000000001 19.753,7.39699999999999 19.753,7.39699999999999 C19.852,6.93799999999999 19.772,6.47200000000001 19.5599999999999,6.09399999999999 C19.3440000000001,5.708 18.996,5.40600000000001 18.555,5.26599999999999 C18.555,5.26599999999999 17.176,4.82400000000001 17.176,4.82400000000001 C17.176,4.82400000000001 16.748,3.398 16.748,3.398 C16.748,3.398 16.748,3.398 16.748,3.398 C16.609,2.94200000000001 16.3200000000001,2.57599999999999 15.95,2.36000000000001 C15.95,2.36000000000001 15.95,2.36000000000001 15.95,2.36000000000001 C15.95,2.36000000000001 15.947,2.36000000000001 15.947,2.36000000000001 C15.58,2.14099999999999 15.13,2.05799999999999 14.686,2.161 C14.686,2.161 13.2859999999999,2.48699999999999 13.2859999999999,2.48699999999999 C13.2859999999999,2.48699999999999 13.27,2.493 13.27,2.493 C13.27,2.493 12.2569999999999,1.52600000000001 12.2569999999999,1.52600000000001 C12.2569999999999,1.52600000000001 12.2089999999999,1.476 12.2089999999999,1.476 C11.874,1.154 11.446,0.99100000000001 11.019,0.99100000000001 C10.591,0.99100000000001 10.163,1.154 9.82500000000005,1.476 C9.82500000000005,1.476 8.79200000000003,2.46700000000001 8.79200000000003,2.46700000000001 C8.79200000000003,2.46700000000001 8.76300000000003,2.493 8.76300000000003,2.493 C8.76300000000003,2.493 7.35199999999998,2.161 7.35199999999998,2.161 C6.904,2.05799999999999 6.45699999999999,2.14099999999999 6.08699999999999,2.36000000000001 C5.71699999999998,2.58000000000001 5.42100000000005,2.94499999999999 5.28599999999994,3.398 C5.28599999999994,3.398 4.86400000000003,4.81100000000001 4.86400000000003,4.81100000000001 C4.86400000000003,4.81100000000001 4.85799999999995,4.82400000000001 4.85799999999995,4.82400000000001 C4.85799999999995,4.82400000000001 3.47799999999995,5.26599999999999 3.47799999999995,5.26599999999999 C3.04100000000005,5.40600000000001 2.68600000000004,5.708 2.47400000000005,6.09399999999999 C2.25900000000001,6.47200000000001 2.18200000000002,6.93799999999999 2.28099999999995,7.39699999999999 C2.28099999999995,7.39699999999999 2.60599999999999,8.85900000000001 2.60599999999999,8.85900000000001 C2.60599999999999,8.85900000000001 1.66700000000003,9.90600000000001 1.66700000000003,9.90600000000001 C1.66700000000003,9.90600000000001 1.62199999999996,9.953 1.62199999999996,9.953 C1.30700000000002,10.298 1.149,10.744 1.149,11.186 C1.149,11.628 1.30700000000002,12.074 1.62199999999996,12.422 C1.62199999999996,12.422 1.625,12.422 1.625,12.422 C1.625,12.422 2.577,13.487 2.577,13.487 C2.577,13.487 2.60599999999999,13.517 2.60599999999999,13.517 C2.60599999999999,13.517 2.29100000000005,14.943 2.29100000000005,14.943 C2.29100000000005,14.943 2.28099999999995,14.975 2.28099999999995,14.975 C2.18200000000002,15.438 2.25900000000001,15.9 2.47400000000005,16.282 C2.66700000000003,16.628 2.96600000000001,16.907 3.346,17.063 C3.346,17.063 1.08100000000002,21.112 1.08100000000002,21.112 C0.93299999999999,21.378 1.02300000000002,21.723 1.28099999999995,21.873 C1.36800000000005,21.93 1.46400000000006,21.953 1.55499999999995,21.95 C1.55499999999995,21.95 1.55499999999995,21.953 1.55499999999995,21.953 C1.55499999999995,21.953 4.63,21.92 4.63,21.92 C4.63,21.92 6.13499999999999,24.682 6.13499999999999,24.682 C6.28300000000002,24.955 6.61400000000003,25.051 6.875,24.901 C6.971,24.842 7.04300000000001,24.765 7.08699999999999,24.673 C7.08699999999999,24.673 9.41600000000005,20.507 9.41600000000005,20.507 C9.41600000000005,20.507 9.82500000000005,20.9 9.82500000000005,20.9 C10.163,21.222 10.591,21.384 11.015,21.384 C11.443,21.384 11.8680000000001,21.222 12.2089999999999,20.9 C12.2089999999999,20.9 12.617,20.507 12.617,20.507 C12.617,20.507 14.943,24.673 14.943,24.673 C14.991,24.765 15.062,24.842 15.159,24.901 C15.42,25.051 15.751,24.955 15.895,24.682 C15.895,24.682 17.404,21.92 17.404,21.92 C17.404,21.92 20.476,21.953 20.476,21.953 C20.476,21.953 20.476,21.95 20.476,21.95 C20.569,21.953 20.6660000000001,21.93 20.753,21.873 C21.01,21.723 21.101,21.378 20.952,21.112 C20.952,21.112 20.952,21.112 20.952,21.112 ZM6.61800000000005,23.28 C6.61800000000005,23.28 6.61800000000005,23.28 6.61800000000005,23.28 C6.61800000000005,23.28 5.41800000000001,21.082 5.41800000000001,21.082 C5.41800000000001,21.082 5.41800000000001,21.082 5.41800000000001,21.082 C5.32100000000003,20.909 5.14400000000001,20.793 4.93799999999999,20.796 C4.93799999999999,20.796 2.49400000000003,20.823 2.49400000000003,20.823 C2.49400000000003,20.823 4.40499999999997,17.409 4.40499999999997,17.409 C4.40499999999997,17.409 4.85799999999995,17.552 4.85799999999995,17.552 C4.85799999999995,17.552 5.28599999999994,18.978 5.28599999999994,18.978 C5.28599999999994,18.978 5.28599999999994,18.978 5.28599999999994,18.978 C5.42100000000005,19.433 5.71699999999998,19.793 6.08699999999999,20.015 C6.45699999999999,20.235 6.904,20.318 7.35199999999998,20.211 C7.35199999999998,20.211 8.47400000000005,19.945 8.47400000000005,19.945 C8.47400000000005,19.945 6.61800000000005,23.28 6.61800000000005,23.28 C6.61800000000005,23.28 6.61800000000005,23.28 6.61800000000005,23.28 ZM12.727,18.087 C12.727,18.087 12.727,18.087 12.727,18.087 C12.479,18.17 12.254,18.307 12.061,18.492 C12.061,18.492 12.016,18.539 12.016,18.539 C12.016,18.539 11.015,19.497 11.015,19.497 C11.015,19.497 9.97000000000003,18.496 9.97000000000003,18.496 C9.97000000000003,18.496 9.97299999999996,18.492 9.97299999999996,18.492 C9.76099999999997,18.287 9.50999999999999,18.144 9.23599999999999,18.067 C9.23599999999999,18.067 9.23000000000002,18.067 9.23000000000002,18.067 C9.23000000000002,18.067 9.23000000000002,18.067 9.23000000000002,18.067 C8.96000000000004,17.991 8.67600000000004,17.987 8.38999999999999,18.051 C8.38999999999999,18.051 6.99699999999996,18.383 6.99699999999996,18.383 C6.99699999999996,18.383 6.57899999999995,16.974 6.57899999999995,16.974 C6.57899999999995,16.974 6.57600000000002,16.97 6.57600000000002,16.97 C6.57600000000002,16.97 6.57899999999995,16.97 6.57899999999995,16.97 C6.48900000000003,16.677 6.34100000000001,16.425 6.14499999999998,16.222 C5.952,16.02 5.70100000000002,15.867 5.41800000000001,15.777 C5.41800000000001,15.777 4.05700000000002,15.341 4.05700000000002,15.341 C4.05700000000002,15.341 4.37199999999996,13.902 4.37199999999996,13.902 C4.43700000000001,13.606 4.42999999999995,13.31 4.36000000000001,13.035 C4.36000000000001,13.035 4.33699999999999,12.951 4.33699999999999,12.951 C4.25599999999997,12.699 4.12800000000004,12.469 3.94799999999998,12.267 C3.94799999999998,12.267 3.899,12.22 3.899,12.22 C3.899,12.22 2.98000000000002,11.19 2.98000000000002,11.19 C2.98000000000002,11.19 2.99199999999996,11.17 2.99199999999996,11.17 C2.99199999999996,11.17 3.94799999999998,10.109 3.94799999999998,10.109 C3.94799999999998,10.109 3.94799999999998,10.109 3.94799999999998,10.109 C4.14400000000001,9.88999999999999 4.28200000000004,9.631 4.35699999999997,9.34800000000001 C4.35699999999997,9.34800000000001 4.36000000000001,9.33799999999999 4.36000000000001,9.33799999999999 C4.36000000000001,9.33799999999999 4.36000000000001,9.34100000000001 4.36000000000001,9.34100000000001 C4.42999999999995,9.06200000000001 4.43700000000001,8.76900000000001 4.37199999999996,8.47399999999999 C4.37199999999996,8.47399999999999 4.05700000000002,7.03399999999999 4.05700000000002,7.03399999999999 C4.05700000000002,7.03399999999999 5.41800000000001,6.59899999999999 5.41800000000001,6.59899999999999 C5.70100000000002,6.50899999999999 5.952,6.35599999999999 6.14499999999998,6.15299999999999 C6.34100000000001,5.95099999999999 6.48900000000003,5.69499999999999 6.57899999999995,5.40600000000001 C6.57899999999995,5.40600000000001 6.58900000000006,5.369 6.58900000000006,5.369 C6.58900000000006,5.369 6.99699999999996,3.99600000000001 6.99699999999996,3.99600000000001 C6.99699999999996,3.99600000000001 8.38999999999999,4.322 8.38999999999999,4.322 C8.67600000000004,4.38800000000001 8.96000000000004,4.38200000000001 9.23000000000002,4.31200000000001 C9.23000000000002,4.31200000000001 9.23299999999995,4.31200000000001 9.23299999999995,4.31200000000001 C9.50300000000004,4.232 9.75800000000004,4.089 9.97299999999996,3.88300000000001 C9.97299999999996,3.88300000000001 10.021,3.833 10.021,3.833 C10.021,3.833 11.015,2.88300000000001 11.015,2.88300000000001 C11.015,2.88300000000001 11.0309999999999,2.892 11.0309999999999,2.892 C11.0309999999999,2.892 12.061,3.88 12.061,3.88 C12.061,3.88 12.061,3.88300000000001 12.061,3.88300000000001 C12.276,4.09200000000001 12.527,4.232 12.801,4.31200000000001 C13.071,4.38200000000001 13.357,4.38800000000001 13.647,4.322 C13.647,4.322 13.672,4.31200000000001 13.672,4.31200000000001 C13.672,4.31200000000001 15.037,3.99600000000001 15.037,3.99600000000001 C15.037,3.99600000000001 15.454,5.399 15.454,5.399 C15.454,5.399 15.458,5.40199999999999 15.458,5.40199999999999 C15.458,5.40199999999999 15.454,5.40199999999999 15.454,5.40199999999999 C15.6319999999999,5.98699999999999 16.056,6.41900000000001 16.616,6.59899999999999 C16.616,6.59899999999999 17.98,7.03399999999999 17.98,7.03399999999999 C17.98,7.03399999999999 17.6609999999999,8.47399999999999 17.6609999999999,8.47399999999999 C17.6609999999999,8.47399999999999 17.6609999999999,8.47399999999999 17.6609999999999,8.47399999999999 C17.597,8.76900000000001 17.6,9.065 17.674,9.345 C17.745,9.624 17.883,9.88 18.086,10.102 C18.086,10.102 19.058,11.186 19.058,11.186 C19.058,11.186 19.042,11.203 19.042,11.203 C19.042,11.203 18.086,12.267 18.086,12.267 C18.086,12.267 18.086,12.267 18.086,12.267 C17.8869999999999,12.489 17.745,12.749 17.674,13.028 C17.674,13.028 17.658,13.088 17.658,13.088 C17.6,13.354 17.6,13.63 17.6609999999999,13.905 C17.6609999999999,13.905 17.668,13.932 17.668,13.932 C17.668,13.932 17.98,15.341 17.98,15.341 C17.98,15.341 16.616,15.777 16.616,15.777 C16.329,15.867 16.085,16.02 15.889,16.222 C15.693,16.425 15.545,16.677 15.454,16.97 C15.454,16.97 15.4450000000001,17.007 15.4450000000001,17.007 C15.4450000000001,17.007 15.037,18.379 15.037,18.379 C15.037,18.379 13.643,18.051 13.643,18.051 C13.357,17.987 13.074,17.991 12.804,18.067 C12.804,18.067 12.727,18.087 12.727,18.087 C12.727,18.087 12.727,18.087 12.727,18.087 ZM17.095,20.796 C17.095,20.796 17.095,20.796 17.095,20.796 C16.889,20.793 16.713,20.909 16.616,21.082 C16.616,21.082 16.616,21.082 16.616,21.082 C16.616,21.082 15.4160000000001,23.28 15.4160000000001,23.28 C15.4160000000001,23.28 13.556,19.945 13.556,19.945 C13.556,19.945 14.654,20.205 14.654,20.205 C14.654,20.205 14.68,20.211 14.68,20.211 C15.097,20.314 15.522,20.245 15.876,20.055 C15.876,20.055 15.95,20.015 15.95,20.015 C16.301,19.809 16.5839999999999,19.467 16.729,19.041 C16.729,19.041 16.748,18.978 16.748,18.978 C16.748,18.978 17.173,17.565 17.173,17.565 C17.173,17.565 17.176,17.552 17.176,17.552 C17.176,17.552 17.633,17.409 17.633,17.409 C17.633,17.409 19.54,20.823 19.54,20.823 C19.54,20.823 17.095,20.796 17.095,20.796 C17.095,20.796 17.095,20.796 17.095,20.796 ZM14.377,14.66 C14.377,14.66 14.377,14.66 14.377,14.66 C15.239,13.769 15.77,12.542 15.77,11.186 C15.77,9.83000000000001 15.239,8.60300000000001 14.377,7.71600000000001 C13.518,6.82499999999999 12.328,6.27600000000001 11.015,6.27600000000001 C9.70600000000002,6.27600000000001 8.51599999999996,6.82499999999999 7.65599999999995,7.71600000000001 C6.79499999999996,8.60300000000001 6.26099999999997,9.83000000000001 6.26099999999997,11.186 C6.26099999999997,12.523 6.78200000000004,13.739 7.625,14.627 C7.625,14.627 7.65599999999995,14.66 7.65599999999995,14.66 C8.51599999999996,15.551 9.70600000000002,16.103 11.015,16.103 C12.328,16.103 13.518,15.551 14.377,14.66 C14.377,14.66 14.377,14.66 14.377,14.66 ZM13.612,13.868 C13.612,13.868 13.612,13.868 13.612,13.868 C13.612,13.868 13.6079999999999,13.866 13.6079999999999,13.866 C12.946,14.553 12.028,14.979 11.015,14.979 C10.005,14.979 9.08799999999997,14.553 8.42499999999995,13.866 C8.42499999999995,13.866 8.39599999999996,13.842 8.39599999999996,13.842 C7.75,13.16 7.35199999999998,12.223 7.35199999999998,11.186 C7.35199999999998,10.143 7.76300000000003,9.19499999999999 8.42499999999995,8.50999999999999 C9.08799999999997,7.82499999999999 10.005,7.40000000000001 11.015,7.40000000000001 C12.028,7.40000000000001 12.946,7.82499999999999 13.6079999999999,8.50999999999999 C14.27,9.19499999999999 14.682,10.143 14.682,11.186 C14.682,12.237 14.274,13.184 13.612,13.866 C13.612,13.866 13.612,13.868 13.612,13.868 C13.612,13.868 13.612,13.868 13.612,13.868 Z "/>
</svg>
