<?xml version="1.0" encoding="utf-8"?>
<!DOCTYPE svg PUBLIC "-//W3C//DTD SVG 1.1//EN" "http://www.w3.org/Graphics/SVG/1.1/DTD/svg11.dtd">
<svg version="1.1" baseProfile="full"
 xmlns="http://www.w3.org/2000/svg"
 xmlns:xlink="http://www.w3.org/1999/xlink"
 xmlns:ev="http://www.w3.org/2001/xml-events" 
  height="28px" 
  width="19px" 
>
<path fill="rgb( 93, 193, 232 )"
 d="M6.38800000000003,0.12200000000001 C6.38800000000003,0.12200000000001 12.726,0.12200000000001 12.726,0.12200000000001 C15.199,0.12200000000001 17.23,2.17899999999997 17.23,4.685 C17.23,4.685 17.23,7.08300000000003 17.23,7.08300000000003 C17.23,9.584 15.199,11.642 12.726,11.642 C12.726,11.642 10.755,11.642 10.755,11.642 C10.755,11.642 10.755,15.046 10.755,15.046 C10.755,15.046 17.807,15.046 17.807,15.046 C18.462,15.046 18.997,15.596 18.997,16.261 C18.997,16.928 18.462,17.473 17.807,17.473 C17.807,17.473 10.755,17.473 10.755,17.473 C10.755,17.473 10.755,19.313 10.755,19.313 C10.755,19.313 10.755,19.335 10.755,19.335 C10.755,19.335 11.264,19.335 11.264,19.335 C11.672,19.335 11.987,19.657 11.987,20.056 C11.987,20.056 11.987,20.073 11.987,20.073 C11.987,20.073 11.987,22.948 11.987,22.948 C11.987,22.948 15.793,22.948 15.793,22.948 C15.793,22.948 15.836,22.948 15.836,22.948 C15.836,22.948 15.861,22.948 15.861,22.948 C15.861,22.948 15.87,22.948 15.87,22.948 C15.87,22.948 15.8869999999999,22.948 15.8869999999999,22.948 C15.8869999999999,22.948 15.8869999999999,22.948 15.8869999999999,22.948 C15.8869999999999,22.948 15.921,22.953 15.921,22.953 C15.921,22.953 15.921,22.953 15.921,22.953 C15.921,22.953 15.955,22.953 15.955,22.953 C15.955,22.953 15.955,22.953 15.955,22.953 C15.955,22.953 15.971,22.957 15.971,22.957 C15.971,22.957 15.989,22.957 15.989,22.957 C15.989,22.957 16.005,22.961 16.005,22.961 C16.005,22.961 16.014,22.961 16.014,22.961 C16.014,22.961 16.04,22.966 16.04,22.966 C16.04,22.966 16.04,22.966 16.04,22.966 C16.04,22.966 16.074,22.974 16.074,22.974 C16.074,22.974 16.099,22.978 16.099,22.978 C16.099,22.978 16.125,22.987 16.125,22.987 C16.125,22.987 16.133,22.987 16.133,22.987 C16.133,22.987 16.159,22.996 16.159,22.996 C16.159,22.996 16.1849999999999,23.004 16.1849999999999,23.004 C16.1849999999999,23.004 16.21,23.013 16.21,23.013 C16.21,23.013 16.2190000000001,23.013 16.2190000000001,23.013 C16.2190000000001,23.013 16.235,23.021 16.235,23.021 C16.702,23.193 17.025,23.64 17.025,24.16 C17.025,24.16 17.025,24.238 17.025,24.238 C17.025,24.238 17.025,25.845 17.025,25.845 C17.025,26.515 16.481,27.056 15.836,27.056 C15.165,27.056 14.629,26.515 14.629,25.845 C14.629,25.845 14.629,25.368 14.629,25.368 C14.629,25.368 10.755,25.368 10.755,25.368 C10.755,25.368 10.755,25.845 10.755,25.845 C10.755,26.515 10.211,27.056 9.54899999999998,27.056 C8.88599999999997,27.056 8.35799999999995,26.515 8.35799999999995,25.845 C8.35799999999995,25.845 8.35799999999995,25.368 8.35799999999995,25.368 C8.35799999999995,25.368 4.47500000000002,25.368 4.47500000000002,25.368 C4.47500000000002,25.368 4.47500000000002,25.845 4.47500000000002,25.845 C4.47500000000002,26.515 3.94000000000005,27.056 3.27800000000002,27.056 C2.61500000000001,27.056 2.08000000000004,26.515 2.08000000000004,25.845 C2.08000000000004,25.845 2.08000000000004,24.238 2.08000000000004,24.238 C2.08000000000004,24.238 2.08000000000004,24.16 2.08000000000004,24.16 C2.08000000000004,23.64 2.41099999999994,23.193 2.87,23.021 C2.87,23.021 2.88599999999997,23.013 2.88599999999997,23.013 C2.88599999999997,23.013 2.88599999999997,23.013 2.88599999999997,23.013 C2.88599999999997,23.013 2.91999999999996,23.004 2.91999999999996,23.004 C2.91999999999996,23.004 2.95399999999995,22.996 2.95399999999995,22.996 C2.95399999999995,22.996 2.97199999999998,22.987 2.97199999999998,22.987 C2.97199999999998,22.987 2.98000000000002,22.987 2.98000000000002,22.987 C2.98000000000002,22.987 3.00599999999997,22.978 3.00599999999997,22.978 C3.00599999999997,22.978 3.00599999999997,22.978 3.00599999999997,22.978 C3.00599999999997,22.978 3.03999999999996,22.974 3.03999999999996,22.974 C3.03999999999996,22.974 3.05700000000002,22.966 3.05700000000002,22.966 C3.05700000000002,22.966 3.05700000000002,22.966 3.05700000000002,22.966 C3.05700000000002,22.966 3.09100000000001,22.961 3.09100000000001,22.961 C3.09100000000001,22.961 3.09900000000005,22.961 3.09900000000005,22.961 C3.09900000000005,22.961 3.125,22.957 3.125,22.957 C3.125,22.957 3.125,22.957 3.125,22.957 C3.125,22.957 3.14999999999998,22.953 3.14999999999998,22.953 C3.14999999999998,22.953 3.15899999999999,22.953 3.15899999999999,22.953 C3.15899999999999,22.953 3.18399999999997,22.953 3.18399999999997,22.953 C3.18399999999997,22.953 3.18399999999997,22.953 3.18399999999997,22.953 C3.18399999999997,22.953 3.20899999999995,22.948 3.20899999999995,22.948 C3.20899999999995,22.948 3.21799999999996,22.948 3.21799999999996,22.948 C3.21799999999996,22.948 3.24300000000005,22.948 3.24300000000005,22.948 C3.24300000000005,22.948 3.24300000000005,22.948 3.24300000000005,22.948 C3.24300000000005,22.948 3.27800000000002,22.948 3.27800000000002,22.948 C3.27800000000002,22.948 3.303,22.948 3.303,22.948 C3.303,22.948 7.11900000000003,22.948 7.11900000000003,22.948 C7.11900000000003,22.948 7.11900000000003,20.056 7.11900000000003,20.056 C7.11900000000003,19.657 7.43299999999999,19.335 7.83199999999999,19.335 C7.83199999999999,19.335 7.85699999999997,19.335 7.85699999999997,19.335 C7.85699999999997,19.335 8.35799999999995,19.335 8.35799999999995,19.335 C8.35799999999995,19.335 8.35799999999995,19.313 8.35799999999995,19.313 C8.35799999999995,19.313 8.35799999999995,17.473 8.35799999999995,17.473 C8.35799999999995,17.473 1.30600000000004,17.473 1.30600000000004,17.473 C0.64300000000003,17.473 0.10000000000002,16.928 0.10000000000002,16.261 C0.10000000000002,15.596 0.64300000000003,15.046 1.30600000000004,15.046 C1.30600000000004,15.046 8.35799999999995,15.046 8.35799999999995,15.046 C8.35799999999995,15.046 8.35799999999995,11.642 8.35799999999995,11.642 C8.35799999999995,11.642 6.38800000000003,11.642 6.38800000000003,11.642 C3.89700000000005,11.642 1.86699999999996,9.584 1.86699999999996,7.08300000000003 C1.86699999999996,7.08300000000003 1.86699999999996,4.685 1.86699999999996,4.685 C1.86699999999996,2.18400000000003 3.90599999999995,0.12200000000001 6.38800000000003,0.12200000000001 C6.38800000000003,0.12200000000001 6.38800000000003,0.12200000000001 6.38800000000003,0.12200000000001 ZM16.5839999999999,11.075 C16.5839999999999,11.075 16.5839999999999,11.075 16.5839999999999,11.075 C16.5839999999999,11.075 16.5839999999999,13.701 16.5839999999999,13.701 C16.5839999999999,14.1 16.907,14.427 17.306,14.427 C17.705,14.427 18.02,14.1 18.02,13.701 C18.02,13.701 18.02,11.075 18.02,11.075 C18.02,10.676 17.705,10.349 17.306,10.349 C16.907,10.349 16.5839999999999,10.676 16.5839999999999,11.075 C16.5839999999999,11.075 16.5839999999999,11.075 16.5839999999999,11.075 ZM1.08500000000004,11.075 C1.08500000000004,11.075 1.08500000000004,11.075 1.08500000000004,11.075 C1.08500000000004,11.075 1.08500000000004,13.701 1.08500000000004,13.701 C1.08500000000004,14.1 1.40800000000002,14.427 1.79899999999998,14.427 C2.20699999999999,14.427 2.52099999999996,14.1 2.52099999999996,13.701 C2.52099999999996,13.701 2.52099999999996,11.075 2.52099999999996,11.075 C2.52099999999996,10.676 2.20699999999999,10.349 1.79899999999998,10.349 C1.40800000000002,10.349 1.08500000000004,10.676 1.08500000000004,11.075 C1.08500000000004,11.075 1.08500000000004,11.075 1.08500000000004,11.075 ZM10.551,20.787 C10.551,20.787 10.551,20.787 10.551,20.787 C10.551,20.787 8.55399999999997,20.787 8.55399999999997,20.787 C8.55399999999997,20.787 8.55399999999997,22.948 8.55399999999997,22.948 C9.21699999999998,22.948 9.88800000000003,22.948 10.551,22.948 C10.551,22.948 10.551,20.787 10.551,20.787 C10.551,20.787 10.551,20.787 10.551,20.787 ZM12.726,2.541 C12.726,2.541 12.726,2.541 12.726,2.541 C12.726,2.541 6.38800000000003,2.541 6.38800000000003,2.541 C5.23199999999997,2.541 4.26300000000003,3.51600000000002 4.26300000000003,4.685 C4.26300000000003,4.685 4.26300000000003,7.08300000000003 4.26300000000003,7.08300000000003 C4.26300000000003,8.25599999999997 5.21500000000003,9.22300000000001 6.38800000000003,9.22300000000001 C6.38800000000003,9.22300000000001 12.726,9.22300000000001 12.726,9.22300000000001 C13.89,9.22300000000001 14.833,8.25599999999997 14.833,7.08300000000003 C14.833,7.08300000000003 14.833,4.685 14.833,4.685 C14.833,3.512 13.89,2.541 12.726,2.541 C12.726,2.541 12.726,2.541 12.726,2.541 Z "/>
</svg>
