<?xml version="1.0" encoding="utf-8"?>
<!DOCTYPE svg PUBLIC "-//W3C//DTD SVG 1.1//EN" "http://www.w3.org/Graphics/SVG/1.1/DTD/svg11.dtd">
<svg version="1.1" baseProfile="full"
 xmlns="http://www.w3.org/2000/svg"
 xmlns:xlink="http://www.w3.org/1999/xlink"
 xmlns:ev="http://www.w3.org/2001/xml-events" 
  height="26px" 
  width="19px" 
>
<path fill="rgb( 52, 177, 226 )"
 d="M15.034,7.34299999999996 C14.671,6.96799999999996 14.671,6.35699999999997 15.034,5.98199999999997 C15.4,5.60699999999997 15.996,5.60699999999997 16.359,5.98199999999997 C16.768,6.39499999999998 17.141,6.85900000000004 17.461,7.35299999999995 C17.778,7.83100000000002 18.061,8.35599999999999 18.287,8.91600000000005 C18.52,9.476 18.696,10.063 18.816,10.673 C18.936,11.277 19,11.891 19,12.505 C19,15.047 17.99,17.353 16.356,19.025 C16.356,19.025 16.359,19.029 16.359,19.029 C14.941,20.486 13.042,21.455 10.932,21.683 C10.932,21.683 10.932,23.9930000000001 10.932,23.9930000000001 C10.9450000000001,24.255 10.855,24.518 10.658,24.7190000000001 C10.292,25.092 9.70299999999997,25.092 9.33299999999997,24.723 C9.33299999999997,24.723 7.78099999999995,23.133 7.78099999999995,23.133 C7.78099999999995,23.133 7.73500000000001,23.086 7.73500000000001,23.086 C7.73500000000001,23.086 6.15700000000004,21.468 6.15700000000004,21.468 C6.15700000000004,21.468 6.13699999999994,21.455 6.13699999999994,21.455 C5.774,21.073 5.774,20.465 6.13699999999994,20.087 C6.13699999999994,20.087 7.73500000000001,18.456 7.73500000000001,18.456 C7.73500000000001,18.456 7.73500000000001,18.4589999999999 7.73500000000001,18.4589999999999 C7.73500000000001,18.4589999999999 9.33299999999997,16.825 9.33299999999997,16.825 C9.5,16.651 9.73299999999995,16.5410000000001 9.99300000000005,16.5410000000001 C10.5119999999999,16.5410000000001 10.932,16.968 10.932,17.496 C10.932,17.496 10.932,19.745 10.932,19.745 C12.52,19.537 13.955,18.777 15.034,17.668 C15.034,17.668 15.034,17.674 15.034,17.674 C15.034,17.674 15.04,17.668 15.04,17.668 C16.326,16.351 17.125,14.525 17.125,12.505 C17.125,11.997 17.075,11.509 16.985,11.052 C16.8920000000001,10.564 16.749,10.1 16.5650000000001,9.65700000000004 C16.389,9.23699999999997 16.172,8.82399999999996 15.909,8.428 C15.653,8.04200000000003 15.36,7.678 15.034,7.34299999999996 C15.034,7.34299999999996 15.034,7.34299999999996 15.034,7.34299999999996 ZM13.559,4.91999999999996 C13.559,4.91999999999996 13.559,4.91999999999996 13.559,4.91999999999996 C13.559,4.91999999999996 13.562,4.91399999999999 13.562,4.91399999999999 C13.925,4.53899999999999 13.925,3.93100000000004 13.559,3.55899999999997 C13.559,3.55899999999997 12.011,1.97299999999996 12.011,1.97299999999996 C12.011,1.97299999999996 11.9640000000001,1.92100000000005 11.9640000000001,1.92100000000005 C11.9640000000001,1.92100000000005 10.372,0.28800000000001 10.372,0.28800000000001 C10.372,0.28800000000001 10.366,0.29399999999998 10.366,0.29399999999998 C10.196,0.11699999999996 9.96299999999997,0.00800000000004 9.70299999999997,0.00800000000004 C9.19000000000005,0.00800000000004 8.77099999999996,0.43700000000001 8.77099999999996,0.97000000000003 C8.77099999999996,0.97000000000003 8.77099999999996,3.36500000000001 8.77099999999996,3.36500000000001 C6.65300000000002,3.65800000000002 4.77099999999996,4.70899999999995 3.38999999999999,6.245 C1.90099999999995,7.88900000000001 0.99000000000001,10.086 0.99000000000001,12.505 C0.99000000000001,13.75 1.23599999999999,14.9450000000001 1.67499999999995,16.037 C2.13400000000001,17.162 2.79700000000003,18.183 3.62599999999998,19.029 C3.99599999999998,19.401 4.58900000000006,19.401 4.95500000000004,19.029 C5.32100000000003,18.654 5.32100000000003,18.043 4.95500000000004,17.668 C4.29499999999996,16.995 3.76300000000003,16.1900000000001 3.40599999999995,15.296 C3.06100000000004,14.439 2.86699999999996,13.498 2.86699999999996,12.505 C2.86699999999996,10.588 3.58600000000001,8.84500000000003 4.75800000000004,7.54100000000005 C5.79999999999995,6.39499999999998 7.19200000000001,5.58299999999997 8.77099999999996,5.30999999999995 C8.77099999999996,5.30999999999995 8.77099999999996,7.42499999999995 8.77099999999996,7.42499999999995 C8.74800000000005,7.69799999999998 8.83699999999999,7.98400000000004 9.04399999999998,8.19299999999998 C9.40599999999995,8.56799999999998 9.99900000000002,8.56799999999998 10.372,8.19299999999998 C10.372,8.19299999999998 11.9640000000001,6.55499999999995 11.9640000000001,6.55499999999995 C11.9640000000001,6.55499999999995 13.546,4.93399999999997 13.546,4.93399999999997 C13.546,4.93399999999997 13.559,4.91999999999996 13.559,4.91999999999996 C13.559,4.91999999999996 13.559,4.91999999999996 13.559,4.91999999999996 ZM10.645,5.197 C10.645,5.197 10.645,5.197 10.645,5.197 C10.645,5.197 10.639,5.197 10.639,5.197 C10.639,5.197 10.639,4.23800000000006 10.639,4.23800000000006 C10.639,4.23800000000006 10.639,3.28300000000002 10.639,3.28300000000002 C10.639,3.28300000000002 10.682,3.327 10.682,3.327 C10.682,3.327 11.578,4.23800000000006 11.578,4.23800000000006 C11.578,4.23800000000006 10.645,5.197 10.645,5.197 C10.645,5.197 10.645,5.197 10.645,5.197 ZM9.05700000000002,20.854 C9.05700000000002,20.854 9.05700000000002,20.854 9.05700000000002,20.854 C9.05700000000002,20.854 9.05700000000002,20.772 9.05700000000002,20.772 C9.05700000000002,20.772 9.05700000000002,20.683 9.05700000000002,20.683 C9.05700000000002,20.683 9.05700000000002,19.817 9.05700000000002,19.817 C9.05700000000002,19.817 8.13099999999997,20.772 8.13099999999997,20.772 C8.13099999999997,20.772 9.05700000000002,21.727 9.05700000000002,21.727 C9.05700000000002,21.727 9.05700000000002,20.854 9.05700000000002,20.854 C9.05700000000002,20.854 9.05700000000002,20.854 9.05700000000002,20.854 Z "/>
</svg>
