<svg baseProfile="full" xmlns="http://www.w3.org/2000/svg" height="22" width="26"><path fill="rgb( 144, 197, 59 )" d="M10.126 22l-.2-.008c-1.094-.087-2.023-.871-2.332-1.971-1.142-4.068-5.482-7.511-5.525-7.545-1.171-.905-1.418-2.631-.552-3.854.866-1.224 2.517-1.482 3.688-.577.06.046 1.478 1.148 3.068 2.923.715.798 1.353 1.604 1.913 2.413.386-.663.811-1.367 1.274-2.089 3.176-4.964 6.455-8.332 9.745-10.012 1.309-.668 2.888-.101 3.527 1.267.639 1.367.097 3.018-1.212 3.686-2.393 1.221-5.033 4.007-7.633 8.056-2.069 3.223-3.359 6.092-3.372 6.12-.435.975-1.371 1.591-2.389 1.591z"/></svg>