<?xml version="1.0" encoding="utf-8"?>
<!DOCTYPE svg PUBLIC "-//W3C//DTD SVG 1.1//EN" "http://www.w3.org/Graphics/SVG/1.1/DTD/svg11.dtd">
<svg version="1.1" baseProfile="full"
 xmlns="http://www.w3.org/2000/svg"
 xmlns:xlink="http://www.w3.org/1999/xlink"
 xmlns:ev="http://www.w3.org/2001/xml-events" 
  height="25px" 
  width="24px" 
>
<path fill="rgb( 93, 193, 232 )"
 d="M11.52,0.965 C14.689,0.965 17.564,2.256 19.6420000000001,4.34100000000001 C19.6420000000001,4.34100000000001 19.686,4.39500000000001 19.686,4.39500000000001 C21.739,6.477 23.002,9.34100000000001 23.002,12.493 C23.002,15.674 21.717,18.556 19.6420000000001,20.642 C19.6420000000001,20.642 19.588,20.686 19.588,20.686 C17.5170000000001,22.747 14.664,24.021 11.52,24.021 C8.35400000000004,24.021 5.48299999999995,22.728 3.40099999999995,20.639 C3.40099999999995,20.639 3.40099999999995,20.642 3.40099999999995,20.642 C1.32299999999998,18.556 0.03800000000001,15.674 0.03800000000001,12.493 C0.03800000000001,9.316 1.32000000000005,6.43299999999999 3.40099999999995,4.345 C3.40099999999995,4.345 3.40099999999995,4.345 3.40099999999995,4.345 C3.40099999999995,4.345 3.40499999999997,4.34100000000001 3.40499999999997,4.34100000000001 C3.40499999999997,4.34100000000001 3.40800000000002,4.34100000000001 3.40800000000002,4.34100000000001 C5.48599999999999,2.256 8.35400000000004,0.965 11.52,0.965 C11.52,0.965 11.52,0.965 11.52,0.965 ZM16.535,11.606 C16.535,11.606 16.535,11.606 16.535,11.606 C16.535,11.606 12.404,11.606 12.404,11.606 C12.404,11.606 12.404,4.54900000000001 12.404,4.54900000000001 C12.404,4.06100000000001 12.01,3.66499999999999 11.52,3.66499999999999 C11.034,3.66499999999999 10.636,4.06100000000001 10.636,4.54900000000001 C10.636,4.54900000000001 10.636,12.468 10.636,12.468 C10.636,12.468 10.636,12.493 10.636,12.493 C10.636,12.981 11.034,13.38 11.52,13.38 C11.52,13.38 16.535,13.38 16.535,13.38 C17.021,13.38 17.4160000000001,12.981 17.4160000000001,12.493 C17.4160000000001,12.002 17.021,11.606 16.535,11.606 C16.535,11.606 16.535,11.606 16.535,11.606 ZM18.391,5.59700000000001 C18.391,5.59700000000001 18.391,5.59700000000001 18.391,5.59700000000001 C16.633,3.83199999999999 14.203,2.743 11.52,2.743 C8.83699999999999,2.743 6.40499999999997,3.83199999999999 4.649,5.59299999999999 C4.649,5.59299999999999 4.64599999999996,5.59700000000001 4.64599999999996,5.59700000000001 C2.88999999999999,7.36199999999999 1.803,9.797 1.803,12.493 C1.803,15.183 2.88999999999999,17.621 4.649,19.39 C4.649,19.39 4.649,19.39 4.649,19.39 C4.649,19.39 4.649,19.393 4.649,19.393 C6.40499999999997,21.155 8.83699999999999,22.247 11.52,22.247 C14.181,22.247 16.598,21.167 18.353,19.431 C18.353,19.431 18.391,19.39 18.391,19.39 C20.149,17.621 21.2380000000001,15.183 21.2380000000001,12.493 C21.2380000000001,9.816 20.1660000000001,7.393 18.432,5.63399999999999 C18.432,5.63399999999999 18.391,5.59700000000001 18.391,5.59700000000001 C18.391,5.59700000000001 18.391,5.59700000000001 18.391,5.59700000000001 Z "/>
</svg>
