<?xml version="1.0" encoding="utf-8"?>
<!DOCTYPE svg PUBLIC "-//W3C//DTD SVG 1.1//EN" "http://www.w3.org/Graphics/SVG/1.1/DTD/svg11.dtd">
<svg version="1.1" baseProfile="full"
 xmlns="http://www.w3.org/2000/svg"
 xmlns:xlink="http://www.w3.org/1999/xlink"
 xmlns:ev="http://www.w3.org/2001/xml-events" 
  height="9px" 
  width="9px" 
>
<path fill="rgb( 237, 98, 71 )"
 d="M8.19500000000005,6.56600000000003 C8.19500000000005,6.399 8.12800000000004,6.23099999999999 8.00699999999995,6.11000000000001 C8.00699999999995,6.11000000000001 6.03800000000001,4.14099999999996 6.03800000000001,4.14099999999996 C6.03800000000001,4.14099999999996 8.00699999999995,2.17200000000003 8.00699999999995,2.17200000000003 C8.12800000000004,2.05100000000004 8.19500000000005,1.88300000000004 8.19500000000005,1.71600000000001 C8.19500000000005,1.54899999999998 8.12800000000004,1.38099999999997 8.00699999999995,1.26099999999997 C8.00699999999995,1.26099999999997 7.096,0.35000000000002 7.096,0.35000000000002 C6.97500000000002,0.22900000000004 6.80799999999999,0.16200000000003 6.63999999999999,0.16200000000003 C6.47299999999996,0.16200000000003 6.30600000000004,0.22900000000004 6.18499999999995,0.35000000000002 C6.18499999999995,0.35000000000002 4.21600000000001,2.31899999999996 4.21600000000001,2.31899999999996 C4.21600000000001,2.31899999999996 2.24599999999998,0.35000000000002 2.24599999999998,0.35000000000002 C2.12599999999998,0.22900000000004 1.95799999999997,0.16200000000003 1.79100000000005,0.16200000000003 C1.62300000000005,0.16200000000003 1.45600000000002,0.22900000000004 1.33500000000004,0.35000000000002 C1.33500000000004,0.35000000000002 0.42399999999998,1.26099999999997 0.42399999999998,1.26099999999997 C0.30399999999997,1.38099999999997 0.23699999999997,1.54899999999998 0.23699999999997,1.71600000000001 C0.23699999999997,1.88300000000004 0.30399999999997,2.05100000000004 0.42399999999998,2.17200000000003 C0.42399999999998,2.17200000000003 2.39300000000003,4.14099999999996 2.39300000000003,4.14099999999996 C2.39300000000003,4.14099999999996 0.42399999999998,6.11000000000001 0.42399999999998,6.11000000000001 C0.30399999999997,6.23099999999999 0.23699999999997,6.399 0.23699999999997,6.56600000000003 C0.23699999999997,6.73299999999995 0.30399999999997,6.90099999999995 0.42399999999998,7.02200000000005 C0.42399999999998,7.02200000000005 1.33500000000004,7.93299999999999 1.33500000000004,7.93299999999999 C1.45600000000002,8.053 1.62300000000005,8.12 1.79100000000005,8.12 C1.95799999999997,8.12 2.12599999999998,8.053 2.24599999999998,7.93299999999999 C2.24599999999998,7.93299999999999 4.21600000000001,5.96299999999997 4.21600000000001,5.96299999999997 C4.21600000000001,5.96299999999997 6.18499999999995,7.93299999999999 6.18499999999995,7.93299999999999 C6.30600000000004,8.053 6.47299999999996,8.12 6.63999999999999,8.12 C6.80799999999999,8.12 6.97500000000002,8.053 7.096,7.93299999999999 C7.096,7.93299999999999 8.00699999999995,7.02200000000005 8.00699999999995,7.02200000000005 C8.12800000000004,6.90099999999995 8.19500000000005,6.73299999999995 8.19500000000005,6.56600000000003 Z "/>
</svg>
