<?xml version="1.0" encoding="utf-8"?>
<!DOCTYPE svg PUBLIC "-//W3C//DTD SVG 1.1//EN" "http://www.w3.org/Graphics/SVG/1.1/DTD/svg11.dtd">
<svg version="1.1" baseProfile="full"
 xmlns="http://www.w3.org/2000/svg"
 xmlns:xlink="http://www.w3.org/1999/xlink"
 xmlns:ev="http://www.w3.org/2001/xml-events" 
  height="23px" 
  width="23px" 
>
<path fill="rgb( 93, 193, 232 )"
 d="M22.112,0.00599999999997 C22.112,0.00599999999997 0.89300000000003,0.00599999999997 0.89300000000003,0.00599999999997 C0.40700000000004,0.00599999999997 0.01199999999994,0.40499999999997 0.01199999999994,0.89100000000002 C0.01199999999994,0.89100000000002 0.01199999999994,22.109 0.01199999999994,22.109 C0.01199999999994,22.594 0.40700000000004,22.993 0.89300000000003,22.993 C0.89300000000003,22.993 22.112,22.993 22.112,22.993 C22.599,22.993 22.997,22.594 22.997,22.109 C22.997,22.109 22.997,0.89100000000002 22.997,0.89100000000002 C22.997,0.40499999999997 22.599,0.00599999999997 22.112,0.00599999999997 C22.112,0.00599999999997 22.112,0.00599999999997 22.112,0.00599999999997 ZM5.87599999999998,21.224 C5.87599999999998,21.224 5.87599999999998,21.224 5.87599999999998,21.224 C5.87599999999998,21.224 1.77800000000002,21.224 1.77800000000002,21.224 C1.77800000000002,21.224 1.77800000000002,19.483 1.77800000000002,19.483 C1.77800000000002,19.483 3.096,19.483 3.096,19.483 C3.58500000000004,19.483 3.98000000000002,19.087 3.98000000000002,18.598 C3.98000000000002,18.112 3.58500000000004,17.716 3.096,17.716 C3.096,17.716 1.77800000000002,17.716 1.77800000000002,17.716 C1.77800000000002,17.716 1.77800000000002,14.751 1.77800000000002,14.751 C1.77800000000002,14.751 3.096,14.751 3.096,14.751 C3.58500000000004,14.751 3.98000000000002,14.356 3.98000000000002,13.864 C3.98000000000002,13.378 3.58500000000004,12.982 3.096,12.982 C3.096,12.982 1.77800000000002,12.982 1.77800000000002,12.982 C1.77800000000002,12.982 1.77800000000002,10.017 1.77800000000002,10.017 C1.77800000000002,10.017 3.096,10.017 3.096,10.017 C3.58500000000004,10.017 3.98000000000002,9.62200000000001 3.98000000000002,9.13299999999998 C3.98000000000002,8.64600000000002 3.58500000000004,8.24799999999999 3.096,8.24799999999999 C3.096,8.24799999999999 1.77800000000002,8.24799999999999 1.77800000000002,8.24799999999999 C1.77800000000002,8.24799999999999 1.77800000000002,5.28300000000002 1.77800000000002,5.28300000000002 C1.77800000000002,5.28300000000002 3.096,5.28300000000002 3.096,5.28300000000002 C3.58500000000004,5.28300000000002 3.98000000000002,4.88799999999998 3.98000000000002,4.40199999999999 C3.98000000000002,3.91199999999998 3.58500000000004,3.51400000000001 3.096,3.51400000000001 C3.096,3.51400000000001 1.77800000000002,3.51400000000001 1.77800000000002,3.51400000000001 C1.77800000000002,3.51400000000001 1.77800000000002,1.77600000000001 1.77800000000002,1.77600000000001 C1.77800000000002,1.77600000000001 5.87599999999998,1.77600000000001 5.87599999999998,1.77600000000001 C5.87599999999998,1.77600000000001 5.87599999999998,21.224 5.87599999999998,21.224 C5.87599999999998,21.224 5.87599999999998,21.224 5.87599999999998,21.224 ZM21.228,21.224 C21.228,21.224 21.228,21.224 21.228,21.224 C21.228,21.224 6.93899999999996,21.224 6.93899999999996,21.224 C6.93899999999996,21.224 6.93899999999996,1.77600000000001 6.93899999999996,1.77600000000001 C6.93899999999996,1.77600000000001 21.228,1.77600000000001 21.228,1.77600000000001 C21.228,1.77600000000001 21.228,21.224 21.228,21.224 C21.228,21.224 21.228,21.224 21.228,21.224 ZM10.4690000000001,16.634 C10.4690000000001,16.634 10.4690000000001,16.634 10.4690000000001,16.634 C10.4690000000001,16.634 17.6950000000001,16.634 17.6950000000001,16.634 C17.99,16.634 18.225,16.395 18.225,16.104 C18.225,16.104 18.225,15.326 18.225,15.326 C18.225,14.946 18.15,14.579 18.008,14.243 C17.864,13.898 17.654,13.581 17.393,13.321 C17.133,13.063 16.8200000000001,12.85 16.471,12.706 C16.471,12.706 16.346,12.656 16.346,12.656 C16.346,12.656 16.43,12.574 16.43,12.574 C17.027,11.978 17.4,11.147 17.4,10.231 C17.4,9.31799999999998 17.027,8.48599999999999 16.43,7.887 C15.828,7.28500000000003 15,6.91500000000002 14.0839999999999,6.91500000000002 C13.167,6.91500000000002 12.3390000000001,7.28500000000003 11.737,7.887 C11.1369999999999,8.48599999999999 10.764,9.31799999999998 10.764,10.231 C10.764,11.147 11.1369999999999,11.978 11.737,12.574 C11.737,12.574 11.822,12.656 11.822,12.656 C11.423,12.8 11.0650000000001,13.026 10.774,13.321 C10.513,13.581 10.303,13.898 10.159,14.243 C10.0170000000001,14.579 9.93899999999996,14.946 9.93899999999996,15.326 C9.93899999999996,15.326 9.93899999999996,16.104 9.93899999999996,16.104 C9.93899999999996,16.395 10.177,16.634 10.4690000000001,16.634 C10.4690000000001,16.634 10.4690000000001,16.634 10.4690000000001,16.634 ZM12.487,8.63400000000001 C12.487,8.63400000000001 12.487,8.63400000000001 12.487,8.63400000000001 C12.894,8.22899999999999 13.462,7.97500000000002 14.0839999999999,7.97500000000002 C14.708,7.97500000000002 15.273,8.22899999999999 15.68,8.63400000000001 C16.088,9.04199999999997 16.34,9.60899999999998 16.34,10.231 C16.34,10.855 16.088,11.42 15.68,11.828 C15.279,12.229 14.724,12.48 14.112,12.49 C14.112,12.49 14.055,12.49 14.055,12.49 C13.4400000000001,12.48 12.888,12.229 12.487,11.828 C12.079,11.42 11.827,10.855 11.827,10.231 C11.827,9.60899999999998 12.079,9.04199999999997 12.487,8.63400000000001 C12.487,8.63400000000001 12.487,8.63400000000001 12.487,8.63400000000001 ZM11.002,15.326 C11.002,15.326 11.002,15.326 11.002,15.326 C11.002,15.084 11.049,14.855 11.134,14.651 C11.222,14.435 11.357,14.237 11.524,14.071 C11.8440000000001,13.751 12.289,13.55 12.778,13.55 C12.778,13.55 15.389,13.55 15.389,13.55 C15.63,13.55 15.86,13.6 16.067,13.685 C16.28,13.773 16.481,13.908 16.644,14.071 C16.8099999999999,14.237 16.942,14.435 17.033,14.651 C17.1180000000001,14.855 17.165,15.084 17.165,15.326 C17.165,15.326 17.165,15.574 17.165,15.574 C17.165,15.574 11.002,15.574 11.002,15.574 C11.002,15.574 11.002,15.326 11.002,15.326 C11.002,15.326 11.002,15.326 11.002,15.326 Z "/>
</svg>
