<svg baseProfile="full" xmlns="http://www.w3.org/2000/svg" height="17" width="16"><path fill="rgb( 159, 200, 93 )" d="M12.049 5.972c-.325-.335-.852-.335-1.18 0l-4.701 4.775-1.938-1.964c-.324-.329-.849-.329-1.17 0-.322.33-.322.863.005 1.185l2.478 2.519.035.048c.33.324.855.324 1.177 0l5.294-5.373c.324-.329.324-.861 0-1.19zm.793-2.849v.012-.012c-1.353-1.37-3.223-2.22-5.285-2.22-2.041 0-3.896.838-5.244 2.185l-.05.035c-1.35 1.376-2.188 3.273-2.188 5.368 0 2.094.838 3.991 2.188 5.367h.006c1.351 1.364 3.224 2.22 5.288 2.22 2.041 0 3.89-.832 5.241-2.185l.044-.035c1.354-1.376 2.195-3.273 2.195-5.367 0-2.095-.841-3.992-2.195-5.368zm-1.171 9.538l-.038.036c-1.047 1.047-2.489 1.699-4.076 1.699-1.607 0-3.067-.67-4.114-1.735-1.053-1.065-1.708-2.537-1.708-4.17 0-1.634.655-3.106 1.708-4.171l.032-.042c1.053-1.047 2.493-1.687 4.082-1.687 1.604 0 3.058.664 4.114 1.723v.006c1.053 1.065 1.699 2.537 1.699 4.171 0 1.633-.646 3.105-1.699 4.17z"/></svg>