<?xml version="1.0" encoding="utf-8"?>
<!DOCTYPE svg PUBLIC "-//W3C//DTD SVG 1.1//EN" "http://www.w3.org/Graphics/SVG/1.1/DTD/svg11.dtd">
<svg version="1.1" baseProfile="full"
 xmlns="http://www.w3.org/2000/svg"
 xmlns:xlink="http://www.w3.org/1999/xlink"
 xmlns:ev="http://www.w3.org/2001/xml-events" 
  height="21px" 
  width="25px" 
>
<path fill="rgb( 93, 193, 232 )"
 d="M24.135,13.191 C24.066,13.19 23.997,13.205 23.9349999999999,13.235 C23.462,13.457 23.046,13.463 22.553,13.234 C22.336,13.129 22.073,13.219 21.967,13.435 C21.861,13.651 21.952,13.912 22.169,14.017 C22.174,14.019 22.178,14.021 22.183,14.023 C22.88,14.346 23.633,14.339 24.309,14.022 C24.53,13.923 24.627,13.665 24.527,13.446 C24.457,13.293 24.304,13.193 24.135,13.191 C24.135,13.191 24.135,13.191 24.135,13.191 C24.135,13.191 24.135,13.191 24.135,13.191 ZM23.245,14.694 C22.3680000000001,14.694 21.491,15.426 21.491,16.599 C21.491,17.397 21.948,17.886 22.277,18.213 C22.6,18.533 22.796,18.7 22.804,19.185 C22.79,19.374 22.902,19.55 23.08,19.62 C23.08,19.62 23.081,19.62 23.081,19.62 C23.083,19.621 23.086,19.622 23.088,19.623 C23.283,19.697 23.504,19.624 23.616,19.449 C23.926,19.13 24.124,18.855 24.228,18.597 C24.341,18.318 24.342,18.068 24.342,17.904 C24.342,17.741 24.341,17.665 24.393,17.536 C24.4450000000001,17.406 24.568,17.207 24.871,16.906 C24.954,16.825 25,16.714 25,16.598 C25,15.426 24.123,14.694 23.245,14.694 C23.245,14.694 23.245,14.694 23.245,14.694 ZM23.245,15.565 C23.654,15.565 24.057,15.786 24.112,16.45 C23.854,16.729 23.672,16.98 23.578,17.213 C23.466,17.491 23.4640000000001,17.741 23.4640000000001,17.905 C23.4640000000001,18.054 23.461,18.133 23.422,18.244 C23.265,17.974 23.0650000000001,17.763 22.897,17.597 C22.568,17.27 22.3680000000001,17.107 22.3680000000001,16.599 C22.3680000000001,15.813 22.807,15.565 23.245,15.565 C23.245,15.565 23.245,15.565 23.245,15.565 ZM23.242,0.37299999999999 C23.014,0.37400000000002 22.826,0.54899999999998 22.808,0.774 C22.808,0.774 21.931,12.092 21.931,12.092 C21.917,12.273 22.0170000000001,12.444 22.183,12.52 C22.88,12.843 23.633,12.836 24.309,12.52 C24.474,12.442 24.573,12.273 24.5599999999999,12.092 C24.5599999999999,12.092 23.682,0.774 23.682,0.774 C23.664,0.54599999999999 23.472,0.37099999999998 23.242,0.37299999999999 C23.242,0.37299999999999 23.242,0.37299999999999 23.242,0.37299999999999 ZM23.245,6.48200000000003 C23.245,6.48200000000003 23.66,11.832 23.66,11.832 C23.383,11.914 23.115,11.914 22.831,11.83 C22.831,11.83 23.245,6.48200000000003 23.245,6.48200000000003 C23.245,6.48200000000003 23.245,6.48200000000003 23.245,6.48200000000003 ZM12.7190000000001,13.056 C11.513,13.056 10.527,14.036 10.527,15.233 C10.527,16.43 11.513,17.409 12.7190000000001,17.409 C13.925,17.409 14.912,16.43 14.912,15.233 C14.912,14.036 13.925,13.056 12.7190000000001,13.056 ZM12.7190000000001,13.927 C13.451,13.927 14.035,14.506 14.035,15.233 C14.035,15.959 13.451,16.539 12.7190000000001,16.539 C11.9880000000001,16.539 11.404,15.959 11.404,15.233 C11.404,14.506 11.9880000000001,13.927 12.7190000000001,13.927 ZM6.57899999999995,12.186 C5.37300000000005,12.186 4.38599999999997,13.165 4.38599999999997,14.362 C4.38599999999997,15.559 5.37300000000005,16.539 6.57899999999995,16.539 C7.78499999999997,16.539 8.77200000000005,15.559 8.77200000000005,14.362 C8.77200000000005,13.165 7.78499999999997,12.186 6.57899999999995,12.186 ZM6.57899999999995,13.056 C7.31100000000004,13.056 7.89499999999998,13.636 7.89499999999998,14.362 C7.89499999999998,15.089 7.31100000000004,15.668 6.57899999999995,15.668 C5.84799999999996,15.668 5.26400000000001,15.089 5.26400000000001,14.362 C5.26400000000001,13.636 5.84799999999996,13.056 6.57899999999995,13.056 ZM3.94799999999998,7.83199999999999 C2.74199999999996,7.83199999999999 1.755,8.81200000000001 1.755,10.009 C1.755,11.206 2.74199999999996,12.186 3.94799999999998,12.186 C5.154,12.186 6.14099999999996,11.206 6.14099999999996,10.009 C6.14099999999996,8.81200000000001 5.154,7.83199999999999 3.94799999999998,7.83199999999999 ZM3.94799999999998,8.70299999999997 C4.67999999999995,8.70299999999997 5.26400000000001,9.28300000000002 5.26400000000001,10.009 C5.26400000000001,10.735 4.67999999999995,11.315 3.94799999999998,11.315 C3.21600000000001,11.315 2.63199999999995,10.735 2.63199999999995,10.009 C2.63199999999995,9.28199999999998 3.21600000000001,8.70299999999997 3.94799999999998,8.70299999999997 ZM7.45699999999999,3.47899999999999 C6.25099999999998,3.47899999999999 5.26400000000001,4.459 5.26400000000001,5.65600000000001 C5.26400000000001,6.85300000000001 6.25099999999998,7.83199999999999 7.45699999999999,7.83199999999999 C8.66200000000003,7.83199999999999 9.649,6.85300000000001 9.649,5.65600000000001 C9.649,4.459 8.66200000000003,3.47899999999999 7.45699999999999,3.47899999999999 ZM7.45699999999999,4.35000000000002 C8.18799999999999,4.35000000000002 8.77200000000005,4.92899999999997 8.77200000000005,5.65600000000001 C8.77200000000005,6.38200000000001 8.18799999999999,6.96199999999999 7.45699999999999,6.96199999999999 C6.72500000000002,6.96199999999999 6.14099999999996,6.38200000000001 6.14099999999996,5.65600000000001 C6.14099999999996,4.92899999999997 6.72500000000002,4.35000000000002 7.45699999999999,4.35000000000002 ZM12.7190000000001,3.47899999999999 C11.513,3.47899999999999 10.527,4.459 10.527,5.65600000000001 C10.527,6.85300000000001 11.513,7.83199999999999 12.7190000000001,7.83199999999999 C13.925,7.83199999999999 14.912,6.85300000000001 14.912,5.65600000000001 C14.912,4.459 13.925,3.47899999999999 12.7190000000001,3.47899999999999 ZM12.7190000000001,4.35000000000002 C13.451,4.35000000000002 14.035,4.92899999999997 14.035,5.65600000000001 C14.035,6.38200000000001 13.451,6.96199999999999 12.7190000000001,6.96199999999999 C11.9880000000001,6.96199999999999 11.404,6.38200000000001 11.404,5.65600000000001 C11.404,4.92899999999997 11.9880000000001,4.35000000000002 12.7190000000001,4.35000000000002 ZM10.157,0 C8.86699999999996,0 7.56799999999998,0.22899999999998 6.36300000000006,0.70400000000001 C2.52300000000002,2.21899999999999 0,5.90899999999999 0.00099999999998,10.012 C0.00199999999995,14.114 2.52599999999995,17.803 6.36800000000005,19.316 C10.2089999999999,20.828 14.595,19.861 17.43,16.875 C17.569,16.728 17.588,16.504 17.475,16.336 C17.475,16.336 17.476,16.336 17.476,16.336 C15.359,13.17 16.025,10.995 16.9,9 C17.338,8.00200000000001 17.849,7.072 18.082,6.11099999999999 C18.3150000000001,5.149 18.218,4.11700000000002 17.449,3.166 C15.79,1.11399999999998 12.995,0.00099999999998 10.157,0 C10.157,0 10.157,0 10.157,0 ZM10.148,0.887 C12.747,0.89999999999998 15.3150000000001,1.91699999999997 16.765,3.70999999999998 C17.377,4.46699999999998 17.422,5.11000000000001 17.229,5.90600000000001 C17.0359999999999,6.702 16.552,7.613 16.096,8.65199999999999 C15.212,10.666 14.523,13.255 16.554,16.51 C13.961,19.051 10.097,19.848 6.69100000000003,18.507 C3.18200000000002,17.124 0.87900000000002,13.759 0.87800000000004,10.011 C0.87699999999995,6.26299999999998 3.178,2.89699999999999 6.68700000000001,1.51299999999998 C7.779,1.08300000000003 8.96699999999998,0.88099999999997 10.148,0.887 Z "/>
</svg>
