<?xml version="1.0" encoding="utf-8"?>
<!DOCTYPE svg PUBLIC "-//W3C//DTD SVG 1.1//EN" "http://www.w3.org/Graphics/SVG/1.1/DTD/svg11.dtd">
<svg version="1.1" baseProfile="full"
 xmlns="http://www.w3.org/2000/svg"
 xmlns:xlink="http://www.w3.org/1999/xlink"
 xmlns:ev="http://www.w3.org/2001/xml-events" 
  height="19px" 
  width="19px" 
>
<path fill="rgb( 143, 164, 170 )"
 d="M8.31899999999996,0.69799999999998 C8.31899999999996,0.31500000000005 8.62900000000002,0.005 9.00999999999999,0.005 C9.39599999999996,0.005 9.70600000000002,0.31500000000005 9.70600000000002,0.69799999999998 C9.70600000000002,0.69799999999998 9.70600000000002,3.95000000000005 9.70600000000002,3.95000000000005 C9.70600000000002,4.33399999999995 9.39599999999996,4.64400000000001 9.00999999999999,4.64400000000001 C8.62900000000002,4.64400000000001 8.31899999999996,4.33399999999995 8.31899999999996,3.95000000000005 C8.31899999999996,3.95000000000005 8.31899999999996,0.69799999999998 8.31899999999996,0.69799999999998 C8.31899999999996,0.69799999999998 8.31899999999996,0.69799999999998 8.31899999999996,0.69799999999998 ZM12.574,1.471 C12.574,1.471 12.574,1.471 12.574,1.471 C12.761,1.13900000000001 13.184,1.02599999999995 13.516,1.21500000000003 C13.846,1.40499999999997 13.962,1.82799999999997 13.77,2.15700000000004 C13.77,2.15700000000004 12.144,4.97400000000005 12.144,4.97400000000005 C11.954,5.30399999999997 11.534,5.41700000000003 11.202,5.22699999999998 C10.872,5.03800000000001 10.759,4.61699999999996 10.948,4.28700000000003 C10.948,4.28700000000003 12.574,1.471 12.574,1.471 C12.574,1.471 12.574,1.471 12.574,1.471 ZM15.8680000000001,4.26099999999997 C15.8680000000001,4.26099999999997 15.8680000000001,4.26099999999997 15.8680000000001,4.26099999999997 C15.8680000000001,4.26099999999997 13.051,5.88400000000001 13.051,5.88400000000001 C12.722,6.07799999999997 12.609,6.50199999999995 12.8,6.83100000000002 C12.992,7.16099999999994 13.418,7.274 13.745,7.08199999999999 C13.745,7.08199999999999 16.562,5.45600000000002 16.562,5.45600000000002 C16.894,5.26400000000001 17.004,4.84100000000001 16.8150000000001,4.51199999999994 C16.623,4.18200000000002 16.197,4.06899999999996 15.8680000000001,4.26099999999997 C15.8680000000001,4.26099999999997 15.8680000000001,4.26099999999997 15.8680000000001,4.26099999999997 ZM17.329,8.322 C17.329,8.322 17.329,8.322 17.329,8.322 C17.713,8.322 18.022,8.63400000000001 18.022,9.01599999999996 C18.022,9.399 17.713,9.70899999999995 17.329,9.70899999999995 C17.329,9.70899999999995 14.077,9.70899999999995 14.077,9.70899999999995 C13.696,9.70899999999995 13.383,9.399 13.383,9.01599999999996 C13.383,8.63400000000001 13.696,8.322 14.077,8.322 C14.077,8.322 17.329,8.322 17.329,8.322 C17.329,8.322 17.329,8.322 17.329,8.322 ZM16.557,12.578 C16.557,12.578 16.557,12.578 16.557,12.578 C16.889,12.7670000000001 17.004,13.1900000000001 16.812,13.52 C16.623,13.849 16.202,13.965 15.872,13.775 C15.872,13.775 13.054,12.15 13.054,12.15 C12.726,11.96 12.609,11.537 12.8,11.208 C12.99,10.878 13.4160000000001,10.7619999999999 13.742,10.952 C13.742,10.952 16.557,12.578 16.557,12.578 C16.557,12.578 16.557,12.578 16.557,12.578 ZM13.77,15.874 C13.77,15.874 13.77,15.874 13.77,15.874 C13.77,15.874 12.144,13.057 12.144,13.057 C11.952,12.727 11.5309999999999,12.615 11.197,12.807 C10.87,12.998 10.756,13.421 10.948,13.751 C10.948,13.751 12.577,16.567 12.577,16.567 C12.766,16.897 13.189,17.01 13.519,16.821 C13.848,16.629 13.962,16.204 13.77,15.874 C13.77,15.874 13.77,15.874 13.77,15.874 ZM9.70299999999997,17.335 C9.70299999999997,17.335 9.70299999999997,17.335 9.70299999999997,17.335 C9.70299999999997,17.717 9.39400000000001,18.026 9.01499999999999,18.026 C8.63300000000004,18.026 8.32399999999996,17.717 8.32399999999996,17.335 C8.32399999999996,17.335 8.32399999999996,14.083 8.32399999999996,14.083 C8.32399999999996,13.702 8.63300000000004,13.3920000000001 9.01499999999999,13.3920000000001 C9.39400000000001,13.3920000000001 9.70299999999997,13.702 9.70299999999997,14.083 C9.70299999999997,14.083 9.70299999999997,17.335 9.70299999999997,17.335 C9.70299999999997,17.335 9.70299999999997,17.335 9.70299999999997,17.335 ZM5.45299999999997,16.5650000000001 C5.45299999999997,16.5650000000001 5.45299999999997,16.5650000000001 5.45299999999997,16.5650000000001 C5.26400000000001,16.895 4.84100000000001,17.01 4.50900000000001,16.821 C4.18100000000004,16.629 4.06299999999999,16.2089999999999 4.255,15.876 C4.255,15.876 5.88099999999997,13.062 5.88099999999997,13.062 C6.07299999999998,12.73 6.49300000000005,12.617 6.82299999999998,12.807 C7.15300000000002,12.996 7.26599999999996,13.417 7.08100000000002,13.749 C7.08100000000002,13.749 5.45299999999997,16.5650000000001 5.45299999999997,16.5650000000001 C5.45299999999997,16.5650000000001 5.45299999999997,16.5650000000001 5.45299999999997,16.5650000000001 ZM2.15700000000004,13.775 C2.15700000000004,13.775 2.15700000000004,13.775 2.15700000000004,13.775 C2.15700000000004,13.775 4.971,12.15 4.971,12.15 C5.303,11.96 5.41600000000005,11.532 5.22500000000002,11.205 C5.03499999999997,10.873 4.60900000000004,10.76 4.27999999999997,10.952 C4.27999999999997,10.952 1.46299999999997,12.578 1.46299999999997,12.578 C1.13099999999997,12.769 1.02099999999996,13.192 1.21000000000004,13.524 C1.40200000000004,13.854 1.82799999999997,13.967 2.15700000000004,13.775 C2.15700000000004,13.775 2.15700000000004,13.775 2.15700000000004,13.775 ZM0.69399999999996,9.70899999999995 C0.69399999999996,9.70899999999995 0.69399999999996,9.70899999999995 0.69399999999996,9.70899999999995 C0.31200000000001,9.70899999999995 0,9.399 0,9.01599999999996 C0,8.63400000000001 0.31200000000001,8.322 0.69399999999996,8.322 C0.69399999999996,8.322 3.94600000000003,8.322 3.94600000000003,8.322 C4.32899999999995,8.322 4.63900000000001,8.63400000000001 4.63900000000001,9.01599999999996 C4.63900000000001,9.399 4.32899999999995,9.70899999999995 3.94600000000003,9.70899999999995 C3.94600000000003,9.70899999999995 0.69399999999996,9.70899999999995 0.69399999999996,9.70899999999995 C0.69399999999996,9.70899999999995 0.69399999999996,9.70899999999995 0.69399999999996,9.70899999999995 ZM1.46299999999997,5.45600000000002 C1.46299999999997,5.45600000000002 1.46299999999997,5.45600000000002 1.46299999999997,5.45600000000002 C1.13099999999997,5.26400000000001 1.01800000000003,4.84100000000001 1.21000000000004,4.51199999999994 C1.40200000000004,4.18200000000002 1.82299999999998,4.06899999999996 2.15700000000004,4.26099999999997 C2.15700000000004,4.26099999999997 4.971,5.88599999999997 4.971,5.88599999999997 C5.303,6.07799999999997 5.41600000000005,6.50199999999995 5.22500000000002,6.83399999999995 C5.03499999999997,7.16099999999994 4.60900000000004,7.274 4.27800000000002,7.08500000000004 C4.27800000000002,7.08500000000004 1.46299999999997,5.45600000000002 1.46299999999997,5.45600000000002 C1.46299999999997,5.45600000000002 1.46299999999997,5.45600000000002 1.46299999999997,5.45600000000002 ZM4.255,2.15700000000004 C4.255,2.15700000000004 4.255,2.15700000000004 4.255,2.15700000000004 C4.255,2.15700000000004 5.88099999999997,4.97400000000005 5.88099999999997,4.97400000000005 C6.06799999999998,5.30399999999997 6.49300000000005,5.41700000000003 6.82299999999998,5.22699999999998 C7.15300000000002,5.03800000000001 7.26599999999996,4.61699999999996 7.07899999999995,4.28700000000003 C7.07899999999995,4.28700000000003 5.45100000000002,1.471 5.45100000000002,1.471 C5.26400000000001,1.13900000000001 4.83799999999997,1.02599999999995 4.50900000000001,1.21500000000003 C4.18100000000004,1.40499999999997 4.06299999999999,1.82799999999997 4.255,2.15700000000004 C4.255,2.15700000000004 4.255,2.15700000000004 4.255,2.15700000000004 Z "/>
</svg>
