<?xml version="1.0" encoding="utf-8"?>
<!DOCTYPE svg PUBLIC "-//W3C//DTD SVG 1.1//EN" "http://www.w3.org/Graphics/SVG/1.1/DTD/svg11.dtd">
<svg version="1.1" baseProfile="full"
 xmlns="http://www.w3.org/2000/svg"
 xmlns:xlink="http://www.w3.org/1999/xlink"
 xmlns:ev="http://www.w3.org/2001/xml-events" 
  height="18px" 
  width="16px" 
>
<path fill="rgb( 93, 193, 232 )"
 d="M3.25300000000004,15.659 C3.25300000000004,15.659 2.51900000000001,15.659 2.51900000000001,15.659 C2.51900000000001,15.659 2.51900000000001,14.3150000000001 2.51900000000001,14.3150000000001 C2.51900000000001,14.3150000000001 1.26199999999994,14.3150000000001 1.26199999999994,14.3150000000001 C1.26199999999994,14.3150000000001 1.26199999999994,13.532 1.26199999999994,13.532 C1.26199999999994,13.532 2.78099999999995,11.908 2.78099999999995,11.908 C2.78099999999995,11.908 4.77300000000002,14.035 4.77300000000002,14.035 C4.77300000000002,14.035 3.25300000000004,15.659 3.25300000000004,15.659 ZM9.01700000000005,5.58100000000002 C9.13499999999999,5.70699999999999 9.12199999999996,5.91700000000003 9.00400000000002,6.04300000000001 C9.00400000000002,6.04300000000001 4.41899999999998,10.942 4.41899999999998,10.942 C4.30100000000004,11.068 4.10400000000004,11.082 3.98699999999997,10.956 C3.86900000000003,10.83 3.88199999999995,10.62 4,10.494 C4,10.494 8.58500000000004,5.59500000000003 8.58500000000004,5.59500000000003 C8.70299999999997,5.46900000000005 8.899,5.45500000000004 9.01700000000005,5.58100000000002 ZM8.80700000000002,3.56500000000005 C8.80700000000002,3.56500000000005 0.00400000000002,12.971 0.00400000000002,12.971 C0.00400000000002,12.971 0.00400000000002,17.003 0.00400000000002,17.003 C0.00400000000002,17.003 3.77700000000004,17.003 3.77700000000004,17.003 C3.77700000000004,17.003 12.58,7.596 12.58,7.596 C12.58,7.596 8.80700000000002,3.56500000000005 8.80700000000002,3.56500000000005 ZM14.624,5.41300000000001 C15.1079999999999,4.89499999999998 15.1079999999999,4.02700000000004 14.624,3.50900000000001 C14.624,3.50900000000001 12.6319999999999,1.38199999999995 12.6319999999999,1.38199999999995 C12.148,0.86400000000003 11.336,0.86400000000003 10.851,1.38199999999995 C10.851,1.38199999999995 9.64599999999996,2.66899999999998 9.64599999999996,2.66899999999998 C9.64599999999996,2.66899999999998 13.419,6.70100000000002 13.419,6.70100000000002 C13.419,6.70100000000002 14.624,5.41300000000001 14.624,5.41300000000001 Z "/>
</svg>
