<?xml version="1.0" encoding="utf-8"?>
<!DOCTYPE svg PUBLIC "-//W3C//DTD SVG 1.1//EN" "http://www.w3.org/Graphics/SVG/1.1/DTD/svg11.dtd">
<svg version="1.1" baseProfile="full"
 xmlns="http://www.w3.org/2000/svg"
 xmlns:xlink="http://www.w3.org/1999/xlink"
 xmlns:ev="http://www.w3.org/2001/xml-events" 
  height="24px" 
  width="25px" 
>
<path fill="rgb( 93, 193, 232 )"
 d="M2.08799999999997,18.469 C0.30399999999997,15.434 1.03300000000002,10.928 2.91700000000003,8.11399999999998 C3.17999999999995,7.70999999999998 3.73400000000004,7.596 4.13599999999997,7.87400000000002 C4.32399999999996,8 4.45000000000005,8.18900000000002 4.5,8.404 C4.5,8.404 4.50599999999997,8.404 4.50599999999997,8.404 C4.54399999999998,8.56799999999998 4.58199999999999,8.71899999999999 4.61900000000003,8.85199999999998 C4.80799999999999,8.214 5.072,7.584 5.41099999999994,6.99099999999999 C6.42200000000003,5.21100000000001 8.05600000000004,3.721 9.80200000000002,3.053 C10.254,2.87599999999998 10.769,3.11000000000001 10.946,3.56400000000002 C11.033,3.791 11.021,4.03100000000001 10.92,4.23899999999998 C10.744,4.63600000000002 10.6,5.03399999999999 10.474,5.41899999999998 C11.775,4.23899999999998 13.42,3.20400000000001 15.104,2.56700000000001 C18.59,1.24799999999999 22.567,1.63900000000001 24.062,5.62700000000001 C24.2380000000001,6.08800000000002 24.0119999999999,6.59899999999999 23.553,6.76999999999998 C23.553,6.76999999999998 23.471,6.80099999999999 23.471,6.80099999999999 C20.5069999999999,7.584 19.401,9.52699999999999 18.346,11.37 C16.895,13.926 15.5309999999999,16.317 10.694,16.242 C11.021,16.393 11.441,16.545 11.995,16.721 C12.453,16.866 12.717,17.365 12.579,17.832 C12.503,18.065 12.34,18.249 12.1319999999999,18.362 C9.90300000000002,19.624 5.995,20.52 3.48199999999997,19.523 C3.13,20.028 2.59000000000003,21.139 2.96699999999998,22.855 C2.96699999999998,22.855 2.96699999999998,22.861 2.96699999999998,22.861 C2.96699999999998,22.861 5.404,22.861 5.404,22.861 C5.69399999999996,22.861 5.93200000000002,23.095 5.93200000000002,23.398 C5.93200000000002,23.688 5.69399999999996,23.928 5.404,23.928 C5.404,23.928 2.76599999999996,23.928 2.76599999999996,23.928 C2.76599999999996,23.928 2.26999999999998,23.928 2.26999999999998,23.928 C2.26999999999998,23.928 2.19399999999996,23.928 2.19399999999996,23.928 C1.74900000000002,23.972 1.32799999999997,23.675 1.23299999999995,23.228 C0.74300000000005,20.912 1.51599999999996,19.296 2.08799999999997,18.469 C2.08799999999997,18.469 2.08799999999997,18.469 2.08799999999997,18.469 ZM8.57000000000005,23.928 C8.57000000000005,23.928 8.57000000000005,23.928 8.57000000000005,23.928 C8.57000000000005,23.928 17.7670000000001,23.928 17.7670000000001,23.928 C18.069,23.928 18.308,23.688 18.308,23.398 C18.308,23.095 18.069,22.861 17.7670000000001,22.861 C17.7670000000001,22.861 8.57000000000005,22.861 8.57000000000005,22.861 C8.27499999999998,22.861 8.04300000000001,23.095 8.04300000000001,23.398 C8.04300000000001,23.688 8.27499999999998,23.928 8.57000000000005,23.928 C8.57000000000005,23.928 8.57000000000005,23.928 8.57000000000005,23.928 ZM3.58299999999997,17.529 C3.58299999999997,17.529 3.58299999999997,17.529 3.58299999999997,17.529 C4.726,18.779 8.10599999999999,17.958 9.48800000000006,17.542 C8.72699999999998,17.062 8.32000000000005,16.563 8.10000000000002,16.141 C7.779,15.516 7.60900000000004,14.159 8.85400000000004,14.323 C14.237,15.03 15.481,12.84 16.819,10.486 C17.919,8.54300000000001 19.08,6.505 22.008,5.40699999999998 C19.212,0.79399999999998 11.146,5.993 9.745,9.17399999999998 C9.62599999999998,9.52699999999999 9.29300000000001,9.77999999999997 8.904,9.77999999999997 C8.41300000000001,9.77999999999997 8.01800000000003,9.38900000000001 8.01800000000003,8.89600000000002 C8.01800000000003,8.88299999999998 8.07500000000005,7.60899999999998 8.48900000000003,5.94299999999998 C7.88599999999997,6.48500000000001 7.35199999999998,7.142 6.95000000000005,7.868 C6.21500000000003,9.161 5.88199999999995,10.625 6.24599999999998,11.957 C6.24599999999998,11.957 6.24599999999998,11.957 6.24599999999998,11.957 C6.34699999999998,12.317 6.20799999999997,12.72 5.88199999999995,12.935 C5.48000000000002,13.2 4.93299999999999,13.086 4.66300000000001,12.682 C4.274,12.077 3.83399999999995,11.496 3.495,10.859 C2.74800000000005,12.891 2.46400000000006,15.585 3.58299999999997,17.529 C3.58299999999997,17.529 3.58299999999997,17.529 3.58299999999997,17.529 Z "/>
</svg>
