<?xml version="1.0" encoding="utf-8"?>
<!DOCTYPE svg PUBLIC "-//W3C//DTD SVG 1.1//EN" "http://www.w3.org/Graphics/SVG/1.1/DTD/svg11.dtd">
<svg version="1.1" baseProfile="full"
 xmlns="http://www.w3.org/2000/svg"
 xmlns:xlink="http://www.w3.org/1999/xlink"
 xmlns:ev="http://www.w3.org/2001/xml-events" 
  height="24px" 
  width="30px" 
>
<path fill="rgb( 52, 177, 226 )"
 d="M13.588,13.17 C14.807,12.758 16.183,12.751 17.402,13.17 C18.523,11.214 20.587,9.97300000000001 22.8,9.97300000000001 C24.849,9.97300000000001 26.771,11.028 27.937,12.751 C27.937,12.751 28.394,12.751 28.394,12.751 C28.394,12.751 26.247,5.06 26.247,5.06 C26.061,4.393 25.836,3.63999999999999 25.477,3.089 C25.163,2.631 24.73,2.298 24.064,2.298 C23.443,2.298 22.86,2.69300000000001 22.419,3.35300000000001 C21.9400000000001,4.07499999999999 21.648,5.07599999999999 21.648,6.20099999999999 C21.648,6.565 21.357,6.85300000000001 21.006,6.85300000000001 C20.6609999999999,6.85300000000001 20.377,6.565 20.377,6.20099999999999 C20.377,4.80500000000001 20.766,3.53200000000001 21.3869999999999,2.59999999999999 C22.053,1.607 22.995,0.98599999999999 24.064,0.98599999999999 C25.223,0.98599999999999 25.986,1.553 26.509,2.352 C26.9880000000001,3.05799999999999 27.242,3.92699999999999 27.452,4.696 C27.452,4.696 29.852,13.286 29.852,13.286 C29.949,13.449 29.994,13.635 29.994,13.837 C29.994,14.443 29.53,14.931 28.947,14.931 C28.947,14.931 28.902,14.931 28.902,14.931 C29.022,15.436 29.081,15.948 29.081,16.491 C29.081,18.284 28.379,19.913 27.242,21.1 C27.242,21.1 27.242,21.1 27.242,21.1 C26.106,22.28 24.535,23.009 22.8,23.009 C19.353,23.009 16.519,20.076 16.519,16.491 C16.519,16.056 16.564,15.622 16.638,15.21 C15.966,15.016 15.009,15.016 14.35,15.21 C14.425,15.622 14.463,16.056 14.463,16.491 C14.463,20.076 11.643,23.009 8.18899999999996,23.009 C6.44600000000003,23.009 4.88400000000001,22.28 3.74000000000001,21.1 C3.74000000000001,21.1 3.68700000000001,21.038 3.68700000000001,21.038 C2.17700000000002,19.424 1.57100000000003,17.089 2.08699999999999,14.931 C2.08699999999999,14.931 2.04200000000003,14.931 2.04200000000003,14.931 C1.45899999999995,14.931 0.995,14.443 0.995,13.837 C0.995,13.542 1.10000000000002,13.294 1.27200000000005,13.092 C1.27200000000005,13.092 3.61300000000006,4.696 3.61300000000006,4.696 C3.82899999999995,3.92699999999999 4.09100000000001,3.05799999999999 4.57000000000005,2.352 C5.09299999999996,1.553 5.84799999999996,0.98599999999999 7.00699999999995,0.98599999999999 C8.077,0.98599999999999 9.01900000000001,1.607 9.69200000000001,2.59999999999999 C10.313,3.53200000000001 10.702,4.80500000000001 10.702,6.20099999999999 C10.702,6.565 10.417,6.85300000000001 10.058,6.85300000000001 C9.71500000000003,6.85300000000001 9.42999999999995,6.565 9.42999999999995,6.20099999999999 C9.42999999999995,5.07599999999999 9.13099999999997,4.07499999999999 8.65300000000002,3.35300000000001 C8.21799999999996,2.69300000000001 7.63599999999997,2.298 7.00699999999995,2.298 C6.34900000000005,2.298 5.90800000000002,2.631 5.601,3.089 C5.24300000000005,3.63999999999999 5.01800000000003,4.393 4.82399999999996,5.06 C4.82399999999996,5.06 2.68499999999995,12.751 2.68499999999995,12.751 C2.68499999999995,12.751 3.04399999999998,12.751 3.04399999999998,12.751 C4.21100000000001,11.028 6.13999999999999,9.97300000000001 8.18899999999996,9.97300000000001 C9.92399999999998,9.97300000000001 11.494,10.702 12.63,11.881 C12.99,12.269 13.319,12.696 13.588,13.17 C13.588,13.17 13.588,13.17 13.588,13.17 ZM4.58399999999995,14.303 C4.58399999999995,14.303 4.58399999999995,14.303 4.58399999999995,14.303 C4.55399999999997,14.349 4.53999999999996,14.396 4.50999999999999,14.435 C3.65700000000004,16.072 3.92600000000004,18.159 5.18299999999999,19.502 C5.18299999999999,19.502 5.23500000000001,19.548 5.23500000000001,19.548 C5.99000000000001,20.339 7.03700000000003,20.821 8.18899999999996,20.821 C10.492,20.821 12.354,18.881 12.354,16.491 C12.354,15.296 11.883,14.21 11.127,13.433 C10.38,12.642 9.34000000000003,12.16 8.18899999999996,12.16 C6.69299999999998,12.16 5.31700000000001,12.999 4.58399999999995,14.303 C4.58399999999995,14.303 4.58399999999995,14.303 4.58399999999995,14.303 ZM22.8,12.16 C22.8,12.16 22.8,12.16 22.8,12.16 C20.497,12.16 18.628,14.101 18.628,16.491 C18.628,18.873 20.497,20.821 22.8,20.821 C23.9589999999999,20.821 24.998,20.339 25.754,19.548 C25.754,19.548 25.754,19.556 25.754,19.556 C25.754,19.556 25.7619999999999,19.548 25.7619999999999,19.548 C26.509,18.772 26.973,17.686 26.973,16.491 C26.973,14.132 25.126,12.16 22.8,12.16 C22.8,12.16 22.8,12.16 22.8,12.16 Z "/>
</svg>
