<?xml version="1.0" encoding="utf-8"?>
<!DOCTYPE svg PUBLIC "-//W3C//DTD SVG 1.1//EN" "http://www.w3.org/Graphics/SVG/1.1/DTD/svg11.dtd">
<svg version="1.1" baseProfile="full"
 xmlns="http://www.w3.org/2000/svg"
 xmlns:xlink="http://www.w3.org/1999/xlink"
 xmlns:ev="http://www.w3.org/2001/xml-events" 
  height="28px" 
  width="26px" 
>
<path fill="rgb( 93, 193, 232 )"
 d="M21.322,1.08900000000006 C21.578,0.85400000000004 22.01,0.85400000000004 22.275,1.08900000000006 C22.538,1.33100000000002 22.538,1.72000000000003 22.275,1.96299999999997 C22.275,1.96299999999997 21.578,2.60199999999998 21.578,2.60199999999998 C22.586,3.62199999999996 23.41,4.80399999999997 23.994,6.096 C24.643,7.53499999999997 25.003,9.10599999999999 25.003,10.751 C25.003,12.395 24.643,13.967 23.994,15.398 C23.323,16.889 22.3390000000001,18.225 21.115,19.341 C21.115,19.341 21.115,19.341 21.115,19.341 C19.898,20.465 18.442,21.3680000000001 16.817,21.984 C16.817,21.984 16.778,21.999 16.778,21.999 C15.553,22.454 14.2329999999999,22.7619999999999 12.857,22.865 C12.873,22.924 12.873,22.968 12.873,23.027 C12.873,23.027 12.873,24.936 12.873,24.936 C12.873,24.936 17.17,24.936 17.17,24.936 C17.794,24.936 18.298,25.4059999999999 18.298,25.978 C18.298,26.551 17.794,27.006 17.17,27.006 C17.17,27.006 11.777,27.006 11.777,27.006 C11.777,27.006 11.753,27.006 11.753,27.006 C11.753,27.006 11.721,27.006 11.721,27.006 C11.721,27.006 6.32899999999995,27.006 6.32899999999995,27.006 C5.70399999999995,27.006 5.20000000000005,26.551 5.20000000000005,25.978 C5.20000000000005,25.4059999999999 5.70399999999995,24.936 6.32899999999995,24.936 C6.32899999999995,24.936 10.625,24.936 10.625,24.936 C10.625,24.936 10.625,23.027 10.625,23.027 C10.625,22.968 10.625,22.9160000000001 10.633,22.865 C9.25699999999995,22.7619999999999 7.92100000000005,22.454 6.68799999999999,21.984 C6.68799999999999,21.984 6.67999999999995,21.984 6.67999999999995,21.984 C5.27300000000002,21.456 3.99199999999996,20.692 2.87199999999996,19.7670000000001 C2.87199999999996,19.7670000000001 2.18399999999997,20.398 2.18399999999997,20.398 C1.91999999999996,20.641 1.49599999999998,20.648 1.23199999999997,20.398 C0.96799999999996,20.163 0.96799999999996,19.7670000000001 1.22400000000005,19.532 C1.22400000000005,19.532 3.68799999999999,17.271 3.68799999999999,17.271 C2.00800000000004,15.538 0.99199999999996,13.247 0.99199999999996,10.751 C0.99199999999996,8.01999999999998 2.20000000000005,5.553 4.15200000000004,3.77599999999995 C4.15200000000004,3.77599999999995 4.15200000000004,3.77599999999995 4.15200000000004,3.77599999999995 C4.15200000000004,3.77599999999995 4.15200000000004,3.76199999999994 4.15200000000004,3.76199999999994 C6.08900000000006,1.98500000000001 8.77700000000004,0.87599999999998 11.753,0.87599999999998 C14.473,0.87599999999998 16.97,1.80799999999999 18.8579999999999,3.35000000000002 C18.8579999999999,3.35000000000002 20.154,2.16099999999994 20.154,2.16099999999994 C20.154,2.16099999999994 20.162,2.14599999999996 20.162,2.14599999999996 C20.162,2.14599999999996 20.17,2.14599999999996 20.17,2.14599999999996 C20.17,2.14599999999996 20.186,2.13199999999995 20.186,2.13199999999995 C20.186,2.13199999999995 21.322,1.08900000000006 21.322,1.08900000000006 C21.322,1.08900000000006 21.322,1.08900000000006 21.322,1.08900000000006 ZM20.634,3.46799999999996 C20.634,3.46799999999996 20.634,3.46799999999996 20.634,3.46799999999996 C20.634,3.46799999999996 19.818,4.21600000000001 19.818,4.21600000000001 C21.498,5.95699999999999 22.5069999999999,8.24000000000001 22.5069999999999,10.751 C22.5069999999999,13.468 21.298,15.942 19.354,17.726 C19.354,17.726 19.29,17.777 19.29,17.777 C17.354,19.532 14.681,20.619 11.753,20.619 C9.02499999999998,20.619 6.53700000000003,19.679 4.63199999999995,18.152 C4.63199999999995,18.152 3.82399999999996,18.901 3.82399999999996,18.901 C4.80799999999999,19.708 5.96000000000004,20.369 7.20000000000005,20.8390000000001 C7.20000000000005,20.8390000000001 7.20000000000005,20.8390000000001 7.20000000000005,20.8390000000001 C8.601,21.3680000000001 10.1369999999999,21.6609999999999 11.753,21.6609999999999 C13.353,21.6609999999999 14.881,21.375 16.273,20.853 C16.273,20.853 16.298,20.8390000000001 16.298,20.8390000000001 C17.754,20.288 19.066,19.473 20.162,18.467 C20.162,18.467 20.17,18.475 20.17,18.475 C20.17,18.475 20.17,18.467 20.17,18.467 C21.258,17.462 22.146,16.2569999999999 22.747,14.921 C23.323,13.643 23.6420000000001,12.234 23.6420000000001,10.751 C23.6420000000001,9.26800000000003 23.323,7.851 22.747,6.56600000000003 C22.235,5.428 21.514,4.37800000000004 20.634,3.46799999999996 C20.634,3.46799999999996 20.634,3.46799999999996 20.634,3.46799999999996 ZM17.754,5.23000000000002 C17.754,5.23000000000002 17.754,5.23000000000002 17.754,5.23000000000002 C16.226,3.82000000000005 14.106,2.93899999999996 11.753,2.93899999999996 C9.40099999999995,2.93899999999996 7.28099999999995,3.82000000000005 5.73599999999999,5.23000000000002 C4.20000000000005,6.63999999999999 3.24000000000001,8.59299999999996 3.24000000000001,10.751 C3.24000000000001,12.902 4.20000000000005,14.855 5.73599999999999,16.265 C7.27200000000005,17.675 9.40099999999995,18.548 11.753,18.548 C14.074,18.548 16.186,17.696 17.706,16.316 C17.706,16.316 17.754,16.265 17.754,16.265 C19.306,14.855 20.25,12.902 20.25,10.751 C20.25,8.59299999999996 19.306,6.63999999999999 17.754,5.23000000000002 C17.754,5.23000000000002 17.769,5.23000000000002 17.769,5.23000000000002 C17.769,5.23000000000002 17.754,5.23000000000002 17.754,5.23000000000002 C17.754,5.23000000000002 17.754,5.23000000000002 17.754,5.23000000000002 Z "/>
</svg>
