<?xml version="1.0" encoding="utf-8"?>
<!DOCTYPE svg PUBLIC "-//W3C//DTD SVG 1.1//EN" "http://www.w3.org/Graphics/SVG/1.1/DTD/svg11.dtd">
<svg version="1.1" baseProfile="full"
 xmlns="http://www.w3.org/2000/svg"
 xmlns:xlink="http://www.w3.org/1999/xlink"
 xmlns:ev="http://www.w3.org/2001/xml-events" 
  height="27px" 
  width="27px" 
>
<path fill="rgb( 97, 194, 232 )"
 d="M3.43200000000002,23.638 C2.78999999999996,22.996 2.27999999999997,22.321 1.88799999999992,21.64 C0.12100000000009,18.542 1.10799999999995,14.992 4.25700000000006,13.466 C4.87200000000007,13.171 5.57199999999989,12.9349999999999 6.35100000000011,12.785 C6.40300000000002,12.772 6.46199999999999,12.759 6.5139999999999,12.752 C6.5139999999999,12.752 6.57300000000009,12.739 6.57300000000009,12.739 C6.96599999999989,12.674 7.13599999999997,12.634 7.27399999999989,12.399 C7.44399999999996,12.091 7.63300000000004,11.7569999999999 7.83600000000001,11.436 C7.83600000000001,11.436 7.8420000000001,11.429 7.8420000000001,11.429 C7.8420000000001,11.429 7.83600000000001,11.429 7.83600000000001,11.429 C8.05199999999991,11.088 8.2940000000001,10.748 8.57600000000002,10.42 C9.25700000000006,9.62099999999998 10.0940000000001,8.99200000000002 11.1600000000001,8.84199999999998 C12.0309999999999,8.71699999999998 13.0129999999999,8.91399999999999 14.125,9.608 C14.125,9.608 18.386,5.33800000000002 18.386,5.33800000000002 C18.3920000000001,5.28500000000003 18.405,5.233 18.412,5.18799999999999 C18.412,5.18799999999999 18.4380000000001,5.10199999999998 18.4380000000001,5.10199999999998 C18.5039999999999,4.86599999999999 18.6279999999999,4.64999999999998 18.8109999999999,4.47300000000001 C18.8109999999999,4.47300000000001 18.837,4.44 18.837,4.44 C19.7919999999999,3.42599999999999 20.7670000000001,2.44299999999998 21.7360000000001,1.447 C21.7360000000001,1.447 21.7560000000001,1.42099999999999 21.7560000000001,1.42099999999999 C21.7560000000001,1.42099999999999 21.7819999999999,1.40100000000001 21.7819999999999,1.40100000000001 C22.057,1.13900000000001 22.4110000000001,1.00200000000001 22.7639999999999,1.00200000000001 C23.143,0.98899999999998 23.5160000000001,1.12599999999998 23.8099999999999,1.40800000000002 C23.8099999999999,1.40800000000002 23.817,1.41500000000002 23.817,1.41500000000002 C23.817,1.41500000000002 23.8240000000001,1.42099999999999 23.8240000000001,1.42099999999999 C23.8240000000001,1.42099999999999 23.8309999999999,1.42099999999999 23.8309999999999,1.42099999999999 C23.8309999999999,1.42099999999999 23.837,1.42099999999999 23.837,1.42099999999999 C23.837,1.42099999999999 23.837,1.42099999999999 23.837,1.42099999999999 C23.837,1.42099999999999 23.837,1.42099999999999 23.837,1.42099999999999 C23.837,1.42099999999999 25.6300000000001,3.22199999999998 25.6300000000001,3.22199999999998 C25.9179999999999,3.50400000000002 26.0619999999999,3.88400000000001 26.0619999999999,4.26400000000001 C26.0619999999999,4.64400000000001 25.9179999999999,5.02300000000002 25.6300000000001,5.31200000000001 C25.6300000000001,5.31200000000001 25.5509999999999,5.37700000000001 25.5509999999999,5.37700000000001 C24.557,6.346 23.5619999999999,7.32900000000001 22.548,8.28500000000003 C22.345,8.47500000000002 22.096,8.60000000000002 21.848,8.65199999999999 C21.848,8.65199999999999 21.749,8.66500000000002 21.749,8.66500000000002 C21.749,8.66500000000002 21.7159999999999,8.67200000000003 21.7159999999999,8.67200000000003 C21.7159999999999,8.67200000000003 17.4559999999999,12.942 17.4559999999999,12.942 C18.1500000000001,14.049 18.346,15.0309999999999 18.222,15.909 C18.0650000000001,16.977 17.4369999999999,17.809 16.6379999999999,18.496 C16.3240000000001,18.765 15.9770000000001,19.014 15.6300000000001,19.223 C15.6300000000001,19.223 15.6369999999999,19.23 15.6369999999999,19.23 C15.3810000000001,19.393 15.0540000000001,19.577 14.7280000000001,19.76 C14.7280000000001,19.76 14.675,19.8 14.675,19.8 C14.675,19.8 14.675,19.8 14.675,19.8 C14.4269999999999,19.944 14.394,20.101 14.3209999999999,20.494 C14.3209999999999,20.494 14.2950000000001,20.625 14.2950000000001,20.625 C14.2950000000001,20.625 14.2950000000001,20.625 14.2950000000001,20.625 C14.2950000000001,20.625 14.2950000000001,20.625 14.2950000000001,20.625 C14.145,21.444 13.903,22.178 13.6020000000001,22.813 C12.0309999999999,26.062 8.452,26.919 5.42100000000005,25.171 C4.74000000000001,24.778 4.06700000000001,24.2670000000001 3.43200000000002,23.638 C3.43200000000002,23.638 3.43200000000002,23.638 3.43200000000002,23.638 ZM13.732,15.66 C13.732,16.944 12.6859999999999,17.992 11.403,17.992 C10.127,17.992 9.07300000000009,16.944 9.07300000000009,15.66 C9.07300000000009,14.377 10.127,13.328 11.403,13.328 C12.6859999999999,13.328 13.732,14.383 13.732,15.66 C13.732,15.66 13.732,15.66 13.732,15.66 ZM12.6199999999999,15.66 C12.6199999999999,14.992 12.077,14.442 11.403,14.442 C11.0889999999999,14.442 10.7739999999999,14.5599999999999 10.539,14.796 C10.539,14.796 10.539,14.796 10.539,14.796 C10.539,14.796 10.539,14.796 10.539,14.796 C10.3030000000001,15.0309999999999 10.1849999999999,15.346 10.1849999999999,15.66 C10.1849999999999,16.341 10.7349999999999,16.878 11.403,16.878 C12.077,16.878 12.6199999999999,16.335 12.6199999999999,15.66 C12.6199999999999,15.66 12.6199999999999,15.66 12.6199999999999,15.66 ZM3.49099999999999,20.723 C3.798,21.26 4.2170000000001,21.804 4.74000000000001,22.328 C5.27099999999996,22.8579999999999 5.80700000000002,23.271 6.33699999999999,23.579 C8.44499999999994,24.7910000000001 10.8209999999999,24.332 11.9400000000001,22.014 C12.182,21.516 12.3710000000001,20.939 12.489,20.298 C12.489,20.298 12.489,20.298 12.489,20.298 C12.489,20.298 12.5150000000001,20.173 12.5150000000001,20.173 C12.6980000000001,19.171 12.7639999999999,18.765 13.758,18.202 C13.758,18.202 13.758,18.202 13.758,18.202 C13.758,18.202 13.7650000000001,18.1950000000001 13.7650000000001,18.1950000000001 C14.02,18.051 14.289,17.901 14.6489999999999,17.671 C14.6489999999999,17.671 14.6489999999999,17.671 14.6489999999999,17.671 C14.6489999999999,17.671 14.6489999999999,17.671 14.6489999999999,17.671 C14.924,17.494 15.1990000000001,17.304 15.4469999999999,17.101 C15.932,16.676 16.3240000000001,16.198 16.396,15.647 C16.481,15.078 16.259,14.3630000000001 15.5650000000001,13.434 C15.251,13.073 15.2639999999999,12.523 15.6110000000001,12.176 C15.6110000000001,12.176 20.702,7.07999999999998 20.702,7.07999999999998 C20.702,7.07999999999998 20.7090000000001,7.07999999999998 20.7090000000001,7.07999999999998 C20.8920000000001,6.89600000000002 21.154,6.79199999999997 21.422,6.81799999999998 C22.3050000000001,5.96699999999998 23.183,5.11500000000001 24.0599999999999,4.26400000000001 C24.0599999999999,4.26400000000001 22.79,2.993 22.79,2.993 C22.79,2.993 22.1089999999999,3.69400000000002 22.1089999999999,3.69400000000002 C21.481,4.33600000000001 20.866,4.98399999999998 20.251,5.62599999999998 C20.2629999999999,5.88799999999998 20.1790000000001,6.15699999999998 19.9829999999999,6.36000000000001 C19.9829999999999,6.36000000000001 14.884,11.455 14.884,11.455 C14.884,11.455 14.884,11.455 14.884,11.455 C14.5640000000001,11.77 14.047,11.8150000000001 13.673,11.534 C12.7239999999999,10.807 11.992,10.578 11.4159999999999,10.669 C10.873,10.748 10.395,11.128 9.97600000000011,11.619 C9.76600000000008,11.855 9.56999999999994,12.1369999999999 9.39400000000001,12.418 C9.39400000000001,12.418 9.38699999999994,12.418 9.38699999999994,12.418 C9.20399999999995,12.713 9.03400000000011,13.021 8.87100000000009,13.302 C8.31400000000008,14.298 7.88200000000006,14.377 6.90000000000009,14.5599999999999 C6.90000000000009,14.5599999999999 6.81500000000005,14.573 6.81500000000005,14.573 C6.81500000000005,14.573 6.77600000000007,14.58 6.77600000000007,14.58 C6.12799999999993,14.697 5.55199999999991,14.888 5.05500000000006,15.123 C2.77800000000002,16.23 2.22700000000009,18.516 3.49099999999999,20.723 C3.49099999999999,20.723 3.49099999999999,20.723 3.49099999999999,20.723 Z "/>
</svg>
