<?xml version="1.0" encoding="utf-8"?>
<!DOCTYPE svg PUBLIC "-//W3C//DTD SVG 1.1//EN" "http://www.w3.org/Graphics/SVG/1.1/DTD/svg11.dtd">
<svg version="1.1" baseProfile="full"
 xmlns="http://www.w3.org/2000/svg"
 xmlns:xlink="http://www.w3.org/1999/xlink"
 xmlns:ev="http://www.w3.org/2001/xml-events" 
  height="22px" 
  width="21px" 
>
<path fill="rgb( 93, 193, 232 )"
 d="M6.32299999999998,9.45600000000002 C5.88900000000001,9.45600000000002 5.53399999999999,9.09199999999998 5.53399999999999,8.64699999999999 C5.53399999999999,8.197 5.88900000000001,7.83600000000001 6.32299999999998,7.83600000000001 C10.948,7.83600000000001 15.571,7.83600000000001 20.202,7.83600000000001 C20.636,7.83600000000001 20.989,8.197 20.989,8.64699999999999 C20.989,9.09199999999998 20.636,9.45600000000002 20.202,9.45600000000002 C15.571,9.45600000000002 10.948,9.45600000000002 6.32299999999998,9.45600000000002 C6.32299999999998,9.45600000000002 6.32299999999998,9.45600000000002 6.32299999999998,9.45600000000002 ZM6.32299999999998,3.75400000000002 C6.32299999999998,3.75400000000002 6.32299999999998,3.75400000000002 6.32299999999998,3.75400000000002 C5.88599999999997,3.75400000000002 5.53399999999999,3.38999999999999 5.53399999999999,2.94600000000003 C5.53399999999999,2.49799999999999 5.88599999999997,2.137 6.32299999999998,2.137 C6.32299999999998,2.137 20.202,2.137 20.202,2.137 C20.636,2.137 20.989,2.49799999999999 20.989,2.94600000000003 C20.989,3.38999999999999 20.636,3.75400000000002 20.202,3.75400000000002 C20.202,3.75400000000002 6.32299999999998,3.75400000000002 6.32299999999998,3.75400000000002 C6.32299999999998,3.75400000000002 6.32299999999998,3.75400000000002 6.32299999999998,3.75400000000002 ZM1.91600000000005,0.99700000000001 C1.91600000000005,0.99700000000001 1.91600000000005,0.99700000000001 1.91600000000005,0.99700000000001 C2.43899999999996,0.99700000000001 2.91700000000003,1.21699999999998 3.26099999999997,1.56700000000001 C3.26099999999997,1.56700000000001 3.26099999999997,1.56999999999999 3.26099999999997,1.56999999999999 C3.60900000000004,1.92500000000001 3.82399999999996,2.41000000000003 3.82399999999996,2.94600000000003 C3.82399999999996,3.48500000000001 3.60900000000004,3.96899999999999 3.26099999999997,4.322 C3.26099999999997,4.322 3.26099999999997,4.32499999999999 3.26099999999997,4.32499999999999 C2.91700000000003,4.67399999999998 2.43899999999996,4.89800000000002 1.91600000000005,4.89800000000002 C1.39200000000005,4.89800000000002 0.91600000000005,4.67399999999998 0.57500000000005,4.32499999999999 C0.57500000000005,4.32499999999999 0.57000000000005,4.322 0.57000000000005,4.322 C0.57000000000005,4.322 0.57000000000005,4.322 0.57000000000005,4.322 C0.22500000000002,3.96899999999999 0.01199999999994,3.47899999999999 0.01199999999994,2.94600000000003 C0.01199999999994,2.41000000000003 0.22500000000002,1.92500000000001 0.57000000000005,1.56999999999999 C0.57000000000005,1.56999999999999 0.57500000000005,1.56700000000001 0.57500000000005,1.56700000000001 C0.57500000000005,1.56700000000001 0.57799999999997,1.56700000000001 0.57799999999997,1.56700000000001 C0.92200000000003,1.21699999999998 1.39499999999998,0.99700000000001 1.91600000000005,0.99700000000001 C1.91600000000005,0.99700000000001 1.91600000000005,0.99700000000001 1.91600000000005,0.99700000000001 ZM2.59500000000003,2.25200000000001 C2.59500000000003,2.25200000000001 2.59500000000003,2.25200000000001 2.59500000000003,2.25200000000001 C2.42200000000003,2.07400000000001 2.18100000000004,1.96499999999998 1.91600000000005,1.96499999999998 C1.65499999999997,1.96499999999998 1.41200000000003,2.07400000000001 1.24099999999999,2.25200000000001 C1.24099999999999,2.25200000000001 1.23800000000006,2.255 1.23800000000006,2.255 C1.06700000000001,2.42700000000002 0.95899999999995,2.673 0.95899999999995,2.94600000000003 C0.95899999999995,3.21800000000002 1.06700000000001,3.46499999999998 1.23800000000006,3.63999999999999 C1.23800000000006,3.63999999999999 1.24099999999999,3.64299999999997 1.24099999999999,3.64299999999997 C1.41200000000003,3.81700000000001 1.65499999999997,3.92899999999997 1.91600000000005,3.92899999999997 C2.18100000000004,3.92899999999997 2.42200000000003,3.81700000000001 2.59500000000003,3.64299999999997 C2.59500000000003,3.64299999999997 2.59500000000003,3.63999999999999 2.59500000000003,3.63999999999999 C2.76599999999996,3.46499999999998 2.87199999999996,3.21800000000002 2.87199999999996,2.94600000000003 C2.87199999999996,2.673 2.76599999999996,2.42700000000002 2.59500000000003,2.255 C2.59500000000003,2.255 2.59500000000003,2.25200000000001 2.59500000000003,2.25200000000001 C2.59500000000003,2.25200000000001 2.59500000000003,2.25200000000001 2.59500000000003,2.25200000000001 ZM6.32299999999998,20.853 C6.32299999999998,20.853 6.32299999999998,20.853 6.32299999999998,20.853 C5.88599999999997,20.853 5.53399999999999,20.492 5.53399999999999,20.047 C5.53399999999999,19.6 5.88599999999997,19.236 6.32299999999998,19.236 C6.32299999999998,19.236 20.202,19.236 20.202,19.236 C20.636,19.236 20.989,19.6 20.989,20.047 C20.989,20.492 20.636,20.853 20.202,20.853 C20.202,20.853 6.32299999999998,20.853 6.32299999999998,20.853 C6.32299999999998,20.853 6.32299999999998,20.853 6.32299999999998,20.853 ZM1.91600000000005,18.098 C1.91600000000005,18.098 1.91600000000005,18.098 1.91600000000005,18.098 C2.43899999999996,18.098 2.91700000000003,18.316 3.26099999999997,18.663 C3.26099999999997,18.663 3.26099999999997,18.668 3.26099999999997,18.668 C3.60900000000004,19.024 3.82399999999996,19.509 3.82399999999996,20.047 C3.82399999999996,20.583 3.60900000000004,21.065 3.26099999999997,21.421 C3.26099999999997,21.421 3.26099999999997,21.421 3.26099999999997,21.421 C2.91700000000003,21.776 2.43899999999996,21.997 1.91600000000005,21.997 C1.39200000000005,21.997 0.91600000000005,21.776 0.57500000000005,21.421 C0.57500000000005,21.421 0.57000000000005,21.421 0.57000000000005,21.421 C0.57000000000005,21.421 0.57000000000005,21.421 0.57000000000005,21.421 C0.22500000000002,21.065 0.01199999999994,20.583 0.01199999999994,20.047 C0.01199999999994,19.509 0.22500000000002,19.024 0.57000000000005,18.668 C0.57000000000005,18.668 0.57500000000005,18.663 0.57500000000005,18.663 C0.57500000000005,18.663 0.57799999999997,18.663 0.57799999999997,18.663 C0.92200000000003,18.316 1.39499999999998,18.098 1.91600000000005,18.098 C1.91600000000005,18.098 1.91600000000005,18.098 1.91600000000005,18.098 ZM2.59500000000003,19.351 C2.59500000000003,19.351 2.59500000000003,19.351 2.59500000000003,19.351 C2.42200000000003,19.173 2.18100000000004,19.067 1.91600000000005,19.067 C1.65499999999997,19.067 1.41200000000003,19.173 1.24099999999999,19.351 C1.24099999999999,19.351 1.23800000000006,19.351 1.23800000000006,19.351 C1.06700000000001,19.526 0.95899999999995,19.775 0.95899999999995,20.047 C0.95899999999995,20.317 1.06700000000001,20.564 1.23800000000006,20.738 C1.23800000000006,20.738 1.24099999999999,20.741 1.24099999999999,20.741 C1.41200000000003,20.916 1.65499999999997,21.028 1.91600000000005,21.028 C2.18100000000004,21.028 2.42200000000003,20.916 2.59500000000003,20.741 C2.59500000000003,20.741 2.59500000000003,20.738 2.59500000000003,20.738 C2.76599999999996,20.564 2.87199999999996,20.317 2.87199999999996,20.047 C2.87199999999996,19.775 2.76599999999996,19.526 2.59500000000003,19.351 C2.59500000000003,19.351 2.59500000000003,19.351 2.59500000000003,19.351 ZM6.32299999999998,15.154 C6.32299999999998,15.154 6.32299999999998,15.154 6.32299999999998,15.154 C5.88900000000001,15.154 5.53399999999999,14.793 5.53399999999999,14.346 C5.53399999999999,13.899 5.88900000000001,13.538 6.32299999999998,13.538 C10.948,13.538 15.571,13.538 20.202,13.538 C20.636,13.538 20.989,13.899 20.989,14.346 C20.989,14.793 20.636,15.154 20.202,15.154 C15.571,15.154 10.948,15.154 6.32299999999998,15.154 C6.32299999999998,15.154 6.32299999999998,15.154 6.32299999999998,15.154 ZM1.91600000000005,12.397 C1.91600000000005,12.397 1.91600000000005,12.397 1.91600000000005,12.397 C2.43899999999996,12.397 2.91700000000003,12.618 3.26099999999997,12.967 C3.26099999999997,12.967 3.26099999999997,12.967 3.26700000000005,12.97 C3.60900000000004,13.323 3.82399999999996,13.807 3.82399999999996,14.346 C3.82399999999996,14.879 3.60900000000004,15.369 3.26700000000005,15.722 C3.26700000000005,15.722 3.26099999999997,15.722 3.26099999999997,15.722 C2.91700000000003,16.074 2.43899999999996,16.295 1.91600000000005,16.295 C1.39499999999998,16.295 0.91600000000005,16.074 0.57500000000005,15.722 C0.57500000000005,15.722 0.57500000000005,15.722 0.57000000000005,15.722 C0.57000000000005,15.722 0.57000000000005,15.719 0.57000000000005,15.719 C0.22799999999995,15.366 0.01199999999994,14.879 0.01199999999994,14.346 C0.01199999999994,13.807 0.22799999999995,13.323 0.57000000000005,12.97 C0.57500000000005,12.967 0.57500000000005,12.967 0.57500000000005,12.967 C0.57500000000005,12.967 0.57799999999997,12.967 0.57799999999997,12.967 C0.92200000000003,12.618 1.39499999999998,12.397 1.91600000000005,12.397 C1.91600000000005,12.397 1.91600000000005,12.397 1.91600000000005,12.397 ZM2.59500000000003,13.65 C2.59500000000003,13.65 2.59500000000003,13.65 2.59500000000003,13.65 C2.42200000000003,13.475 2.18399999999997,13.363 1.91600000000005,13.363 C1.65499999999997,13.363 1.41200000000003,13.475 1.24099999999999,13.65 C1.24099999999999,13.65 1.23800000000006,13.652 1.23800000000006,13.652 C1.06700000000001,13.827 0.95899999999995,14.073 0.95899999999995,14.346 C0.95899999999995,14.618 1.06700000000001,14.865 1.23800000000006,15.037 C1.23800000000006,15.037 1.24099999999999,15.037 1.24099999999999,15.037 C1.41200000000003,15.217 1.65499999999997,15.326 1.91600000000005,15.326 C2.18399999999997,15.326 2.42200000000003,15.217 2.59500000000003,15.043 C2.59500000000003,15.043 2.59500000000003,15.037 2.59500000000003,15.037 C2.76900000000001,14.865 2.87199999999996,14.618 2.87199999999996,14.346 C2.87199999999996,14.073 2.76900000000001,13.827 2.59500000000003,13.652 C2.59500000000003,13.652 2.59500000000003,13.65 2.59500000000003,13.65 C2.59500000000003,13.65 2.59500000000003,13.65 2.59500000000003,13.65 C2.59500000000003,13.65 2.59500000000003,13.65 2.59500000000003,13.65 ZM1.91600000000005,6.69200000000001 C1.91600000000005,6.69200000000001 1.91600000000005,6.69200000000001 1.91600000000005,6.69200000000001 C2.43899999999996,6.69200000000001 2.91700000000003,6.91300000000001 3.26099999999997,7.26799999999997 C3.26099999999997,7.26799999999997 3.26700000000005,7.26799999999997 3.26700000000005,7.26799999999997 C3.60900000000004,7.62700000000001 3.82399999999996,8.108 3.82399999999996,8.64699999999999 C3.82399999999996,9.18000000000001 3.60900000000004,9.66800000000001 3.26700000000005,10.02 C3.26099999999997,10.026 3.26099999999997,10.026 3.26099999999997,10.026 C2.91700000000003,10.376 2.43899999999996,10.596 1.91600000000005,10.596 C1.39499999999998,10.596 0.91600000000005,10.376 0.57500000000005,10.026 C0.57500000000005,10.026 0.57500000000005,10.02 0.57000000000005,10.02 C0.57000000000005,10.02 0.57000000000005,10.02 0.57000000000005,10.02 C0.22799999999995,9.66800000000001 0.01199999999994,9.18000000000001 0.01199999999994,8.64699999999999 C0.01199999999994,8.108 0.22799999999995,7.62700000000001 0.57000000000005,7.26799999999997 C0.57500000000005,7.26799999999997 0.57500000000005,7.26799999999997 0.57500000000005,7.26799999999997 C0.57500000000005,7.26799999999997 0.57799999999997,7.26299999999998 0.57799999999997,7.26299999999998 C0.92200000000003,6.91300000000001 1.39499999999998,6.69200000000001 1.91600000000005,6.69200000000001 C1.91600000000005,6.69200000000001 1.91600000000005,6.69200000000001 1.91600000000005,6.69200000000001 ZM2.59500000000003,7.94799999999998 C2.59500000000003,7.94799999999998 2.59500000000003,7.94799999999998 2.59500000000003,7.94799999999998 C2.42200000000003,7.77600000000001 2.18399999999997,7.661 1.91600000000005,7.661 C1.65499999999997,7.661 1.41200000000003,7.77600000000001 1.24099999999999,7.94799999999998 C1.24099999999999,7.94799999999998 1.23800000000006,7.95299999999997 1.23800000000006,7.95299999999997 C1.06700000000001,8.12799999999999 0.95899999999995,8.37200000000001 0.95899999999995,8.64699999999999 C0.95899999999995,8.91699999999997 1.06700000000001,9.16300000000001 1.23800000000006,9.33800000000002 C1.23800000000006,9.33800000000002 1.24099999999999,9.34100000000001 1.24099999999999,9.34100000000001 C1.41200000000003,9.51600000000002 1.65499999999997,9.62799999999999 1.91600000000005,9.62799999999999 C2.18399999999997,9.62799999999999 2.42200000000003,9.51600000000002 2.59500000000003,9.34100000000001 C2.59500000000003,9.34100000000001 2.59500000000003,9.33800000000002 2.59500000000003,9.33800000000002 C2.76900000000001,9.16300000000001 2.87199999999996,8.91699999999997 2.87199999999996,8.64699999999999 C2.87199999999996,8.37200000000001 2.76900000000001,8.12799999999999 2.59500000000003,7.95299999999997 C2.59500000000003,7.95299999999997 2.59500000000003,7.94799999999998 2.59500000000003,7.94799999999998 C2.59500000000003,7.94799999999998 2.59500000000003,7.94799999999998 2.59500000000003,7.94799999999998 Z "/>
</svg>
