<?xml version="1.0" encoding="utf-8"?>
<!DOCTYPE svg PUBLIC "-//W3C//DTD SVG 1.1//EN" "http://www.w3.org/Graphics/SVG/1.1/DTD/svg11.dtd">
<svg version="1.1" baseProfile="full"
 xmlns="http://www.w3.org/2000/svg"
 xmlns:xlink="http://www.w3.org/1999/xlink"
 xmlns:ev="http://www.w3.org/2001/xml-events" 
  height="27px" 
  width="26px" 
>
<path fill="rgb( 93, 193, 232 )"
 d="M24.6,10.9 C23.807,7.94999999999999 21.898,5.29400000000001 19.039,3.63499999999999 C19.039,3.63499999999999 19,3.60900000000001 19,3.60900000000001 C13.308,0.328 5.93799999999999,2.291 2.63300000000004,7.96600000000001 C2.63300000000004,7.96600000000001 2.60599999999999,8.005 2.60599999999999,8.005 C0.947,10.88 0.60599999999999,14.148 1.39999999999998,17.112 C2.19299999999998,20.062 4.11400000000003,22.721 6.96000000000004,24.38 C6.96000000000004,24.38 7,24.403 7,24.403 C9.87199999999996,26.058 13.1369999999999,26.399 16.1079999999999,25.603 C19.059,24.812 21.715,22.895 23.374,20.049 C23.374,20.049 23.4,20.007 23.4,20.007 C25.059,17.135 25.393,13.864 24.6,10.9 C24.6,10.9 24.6,10.9 24.6,10.9 ZM18.174,5.25800000000001 C18.174,5.25800000000001 18.174,5.25800000000001 18.174,5.25800000000001 C19.852,6.25200000000001 21.144,7.65799999999999 21.997,9.274 C21.997,9.274 20.4880000000001,9.392 20.4880000000001,9.392 C20.4880000000001,9.392 17.734,6.33000000000001 17.734,6.33000000000001 C17.734,6.33000000000001 18.174,5.25800000000001 18.174,5.25800000000001 C18.174,5.25800000000001 18.174,5.25800000000001 18.174,5.25800000000001 ZM6.88199999999995,13.192 C6.88199999999995,13.192 6.88199999999995,13.192 6.88199999999995,13.192 C6.88199999999995,13.192 10.796,12.388 10.796,12.388 C10.796,12.388 13.924,16.152 13.924,16.152 C13.924,16.152 12.599,19.601 12.599,19.601 C11.944,19.888 11.288,20.105 10.639,20.249 C9.97000000000003,20.4 9.29499999999996,20.479 8.63199999999995,20.482 C7.93700000000001,20.069 7.38,19.627 6.89400000000001,19.115 C6.42200000000003,18.617 6.01599999999996,18.046 5.60900000000004,17.368 C5.75999999999999,16.63 5.92399999999998,15.896 6.13400000000001,15.188 C6.33100000000002,14.503 6.58000000000004,13.837 6.88199999999995,13.192 C6.88199999999995,13.192 6.88199999999995,13.192 6.88199999999995,13.192 ZM5.68799999999999,9.12299999999999 C5.68799999999999,9.12299999999999 5.68799999999999,9.12299999999999 5.68799999999999,9.12299999999999 C6.15999999999997,8.56299999999999 7.45799999999997,7.16900000000001 8.928,6.53399999999999 C8.928,6.53399999999999 11.42,7.369 11.42,7.369 C11.42,7.369 10.4690000000001,11.329 10.4690000000001,11.329 C10.4690000000001,11.329 6.84900000000005,12.07 6.84900000000005,12.07 C6.84900000000005,12.07 5.68799999999999,9.12299999999999 5.68799999999999,9.12299999999999 C5.68799999999999,9.12299999999999 5.68799999999999,9.12299999999999 5.68799999999999,9.12299999999999 ZM11.616,11.641 C11.616,11.641 11.616,11.641 11.616,11.641 C11.596,11.615 11.5700000000001,11.588 11.537,11.566 C11.537,11.566 12.521,7.51400000000001 12.521,7.51400000000001 C12.521,7.51400000000001 16.876,7.02799999999999 16.876,7.02799999999999 C16.876,7.02799999999999 19.819,10.303 19.819,10.303 C19.819,10.303 18.607,14.421 18.607,14.421 C18.607,14.421 14.751,15.424 14.751,15.424 C14.751,15.424 11.616,11.641 11.616,11.641 C11.616,11.641 11.616,11.641 11.616,11.641 ZM17.1900000000001,4.74700000000001 C17.1900000000001,4.74700000000001 17.1900000000001,4.74700000000001 17.1900000000001,4.74700000000001 C17.1900000000001,4.74700000000001 16.705,5.934 16.705,5.934 C16.705,5.934 12.127,6.44200000000001 12.127,6.44200000000001 C12.127,6.44200000000001 9.11800000000005,5.435 9.11800000000005,5.435 C9.11800000000005,5.435 8.85500000000002,4.727 8.85500000000002,4.727 C11.485,3.55699999999999 14.554,3.55000000000001 17.1900000000001,4.74700000000001 C17.1900000000001,4.74700000000001 17.1900000000001,4.74700000000001 17.1900000000001,4.74700000000001 ZM7.86599999999999,5.23500000000001 C7.86599999999999,5.23500000000001 7.86599999999999,5.23500000000001 7.86599999999999,5.23500000000001 C7.86599999999999,5.23500000000001 8.04899999999998,5.72999999999999 8.04899999999998,5.72999999999999 C6.55399999999997,6.517 5.30799999999999,7.86099999999999 4.822,8.422 C4.822,8.422 4.54700000000003,8.369 4.54700000000003,8.369 C5.41200000000003,7.048 6.56700000000001,5.99600000000001 7.86599999999999,5.23500000000001 C7.86599999999999,5.23500000000001 7.86599999999999,5.23500000000001 7.86599999999999,5.23500000000001 ZM3.18299999999999,16.637 C3.18299999999999,16.637 3.18299999999999,16.637 3.18299999999999,16.637 C2.55399999999997,14.283 2.76400000000001,11.7 3.94399999999996,9.386 C3.94399999999996,9.386 4.64599999999996,9.51300000000001 4.64599999999996,9.51300000000001 C4.64599999999996,9.51300000000001 5.89800000000002,12.683 5.89800000000002,12.683 C5.55700000000002,13.394 5.29499999999996,14.129 5.072,14.873 C4.86900000000003,15.574 4.70500000000004,16.283 4.55999999999995,16.994 C4.55999999999995,16.994 3.36000000000001,17.23 3.36000000000001,17.23 C3.30100000000004,17.033 3.23599999999999,16.833 3.18299999999999,16.637 C3.18299999999999,16.637 3.18299999999999,16.637 3.18299999999999,16.637 ZM7.45799999999997,22.528 C7.45799999999997,22.528 7.45799999999997,22.528 7.45799999999997,22.528 C5.80600000000004,21.452 4.55999999999995,19.964 3.77300000000002,18.273 C3.77300000000002,18.273 4.75699999999995,18.086 4.75699999999995,18.086 C5.16999999999996,18.767 5.59699999999998,19.358 6.09500000000003,19.879 C6.59299999999996,20.4 7.14999999999998,20.859 7.82600000000002,21.285 C7.82600000000002,21.285 7.45799999999997,22.528 7.45799999999997,22.528 C7.45799999999997,22.528 7.45799999999997,22.528 7.45799999999997,22.528 ZM16.01,23.711 C16.01,23.711 16.01,23.711 16.01,23.711 C15.878,23.75 15.76,23.79 15.629,23.823 C13.301,24.445 10.744,24.248 8.44899999999996,23.095 C8.44899999999996,23.095 8.89499999999998,21.58 8.89499999999998,21.58 C9.55700000000002,21.558 10.213,21.476 10.8819999999999,21.328 C11.59,21.168 12.305,20.934 13.013,20.626 C13.013,20.626 16.18,22.321 16.18,22.321 C16.18,22.321 16.01,23.711 16.01,23.711 C16.01,23.711 16.01,23.711 16.01,23.711 ZM13.728,19.758 C13.728,19.758 13.728,19.758 13.728,19.758 C13.728,19.758 14.974,16.509 14.974,16.509 C14.974,16.509 18.698,15.535 18.698,15.535 C18.698,15.535 19.866,18.774 19.866,18.774 C19.485,19.292 19.046,19.758 18.567,20.167 C18.016,20.633 17.407,21.036 16.77,21.387 C16.77,21.387 13.728,19.758 13.728,19.758 C13.728,19.758 13.728,19.758 13.728,19.758 ZM21.7670000000001,19.157 C21.7670000000001,19.157 21.7670000000001,19.157 21.7670000000001,19.157 C20.659,21.043 19.033,22.439 17.177,23.272 C17.177,23.272 17.282,22.367 17.282,22.367 C17.977,21.99 18.659,21.537 19.275,21.006 C19.852,20.515 20.383,19.958 20.823,19.335 C20.823,19.335 21.8200000000001,19.059 21.8200000000001,19.059 C21.794,19.092 21.78,19.125 21.7670000000001,19.157 C21.7670000000001,19.157 21.7670000000001,19.157 21.7670000000001,19.157 ZM22.462,17.735 C22.462,17.735 22.462,17.735 22.462,17.735 C22.462,17.735 20.836,18.184 20.836,18.184 C20.836,18.184 19.629,14.857 19.629,14.857 C19.629,14.857 20.921,10.471 20.921,10.471 C20.921,10.471 22.482,10.346 22.482,10.346 C22.6130000000001,10.683 22.725,11.028 22.816,11.378 C23.3680000000001,13.434 23.276,15.663 22.462,17.735 C22.462,17.735 22.462,17.735 22.462,17.735 Z "/>
</svg>
