<?xml version="1.0" encoding="utf-8"?>
<!DOCTYPE svg PUBLIC "-//W3C//DTD SVG 1.1//EN" "http://www.w3.org/Graphics/SVG/1.1/DTD/svg11.dtd">
<svg version="1.1" baseProfile="full"
 xmlns="http://www.w3.org/2000/svg"
 xmlns:xlink="http://www.w3.org/1999/xlink"
 xmlns:ev="http://www.w3.org/2001/xml-events" 
  height="25px" 
  width="19px" 
>
<path fill="rgb( 237, 98, 71 )"
 d="M0.90300000000002,2.80600000000001 C0.41200000000003,2.80600000000001 0.01499999999999,2.38999999999999 0.01499999999999,1.87799999999999 C0.01499999999999,1.37 0.41200000000003,0.95400000000001 0.90300000000002,0.95400000000001 C0.90300000000002,0.95400000000001 17.205,0.95400000000001 17.205,0.95400000000001 C17.696,0.95400000000001 18.092,1.37 18.092,1.87799999999999 C18.092,2.38999999999999 17.696,2.80600000000001 17.205,2.80600000000001 C17.205,2.80600000000001 16.475,2.80600000000001 16.475,2.80600000000001 C16.377,5.803 15.754,8.04300000000001 14.835,9.70599999999999 C14.835,9.70599999999999 14.816,9.739 14.816,9.739 C13.885,11.401 12.657,12.481 11.351,13.153 C12.657,13.825 13.885,14.907 14.816,16.57 C14.816,16.57 14.835,16.602 14.835,16.602 C15.7190000000001,18.196 16.327,20.321 16.462,23.135 C16.462,23.135 17.205,23.135 17.205,23.135 C17.696,23.135 18.092,23.548 18.092,24.057 C18.092,24.568 17.696,24.985 17.205,24.985 C17.205,24.985 0.90300000000002,24.985 0.90300000000002,24.985 C0.41200000000003,24.985 0.01499999999999,24.568 0.01499999999999,24.057 C0.01499999999999,23.548 0.41200000000003,23.135 0.90300000000002,23.135 C0.90300000000002,23.135 1.64800000000002,23.135 1.64800000000002,23.135 C1.78399999999999,20.321 2.39200000000005,18.196 3.27300000000002,16.602 C3.27300000000002,16.602 3.29100000000005,16.57 3.29100000000005,16.57 C4.22299999999996,14.907 5.45100000000002,13.825 6.75599999999997,13.153 C5.45100000000002,12.481 4.22299999999996,11.401 3.29100000000005,9.739 C3.29100000000005,9.739 3.27300000000002,9.70599999999999 3.27300000000002,9.70599999999999 C2.35400000000004,8.04300000000001 1.73000000000002,5.803 1.63300000000004,2.80600000000001 C1.63300000000004,2.80600000000001 0.90300000000002,2.80600000000001 0.90300000000002,2.80600000000001 C0.90300000000002,2.80600000000001 0.90300000000002,2.80600000000001 0.90300000000002,2.80600000000001 ZM15.288,23.135 C15.288,23.135 15.288,23.135 15.288,23.135 C14.759,21.19 13.648,19.813 12.299,18.997 C11.307,18.396 10.178,18.095 9.05100000000004,18.095 C7.92100000000005,18.095 6.79399999999998,18.396 5.803,18.997 C4.45299999999997,19.813 3.34500000000003,21.19 2.82000000000005,23.135 C2.82000000000005,23.135 15.288,23.135 15.288,23.135 C15.288,23.135 15.288,23.135 15.288,23.135 ZM3.12400000000002,20.013 C3.12400000000002,20.013 3.12400000000002,20.013 3.12400000000002,20.013 C3.73199999999997,19.187 4.46299999999997,18.528 5.27099999999996,18.039 C6.42899999999997,17.337 7.73900000000003,16.986 9.05100000000004,16.986 C10.36,16.986 11.672,17.337 12.83,18.036 C13.6420000000001,18.528 14.379,19.187 14.9829999999999,20.019 C14.721,18.898 14.357,17.95 13.9160000000001,17.16 C13.9160000000001,17.16 13.904,17.13 13.904,17.13 C12.8339999999999,15.205 11.307,14.179 9.76199999999994,13.684 C9.76199999999994,13.684 9.69299999999998,13.655 9.69299999999998,13.655 C9.69299999999998,13.655 9.68600000000004,13.651 9.68600000000004,13.651 C9.65200000000004,13.634 9.62,13.618 9.59500000000003,13.592 C9.59500000000003,13.592 9.57899999999995,13.582 9.57899999999995,13.582 C9.57899999999995,13.582 9.54499999999996,13.549 9.54499999999996,13.549 C9.54499999999996,13.549 9.53800000000001,13.543 9.53800000000001,13.543 C9.53800000000001,13.543 9.50400000000002,13.503 9.50400000000002,13.503 C9.50400000000002,13.503 9.49400000000003,13.487 9.49400000000003,13.487 C9.47199999999998,13.461 9.45699999999999,13.428 9.43799999999999,13.395 C9.43799999999999,13.395 9.43399999999997,13.385 9.43399999999997,13.385 C9.41600000000005,13.346 9.39999999999998,13.297 9.39400000000001,13.251 C9.39400000000001,13.251 9.39099999999996,13.231 9.39099999999996,13.231 C9.39099999999996,13.231 9.38699999999994,13.199 9.38699999999994,13.199 C9.38699999999994,13.199 9.38400000000001,13.166 9.38400000000001,13.166 C9.38400000000001,13.166 9.38400000000001,13.143 9.38400000000001,13.143 C9.38400000000001,13.143 9.38699999999994,13.11 9.38699999999994,13.11 C9.38699999999994,13.11 9.39099999999996,13.077 9.39099999999996,13.077 C9.39099999999996,13.077 9.39400000000001,13.054 9.39400000000001,13.054 C9.39999999999998,13.008 9.41600000000005,12.966 9.43399999999997,12.92 C9.43399999999997,12.92 9.43799999999999,12.913 9.43799999999999,12.913 C9.45399999999995,12.88 9.47199999999998,12.848 9.49400000000003,12.818 C9.49400000000003,12.818 9.50400000000002,12.802 9.50400000000002,12.802 C9.50400000000002,12.802 9.53800000000001,12.765 9.53800000000001,12.765 C9.53800000000001,12.765 9.54499999999996,12.759 9.54499999999996,12.759 C9.54499999999996,12.759 9.57899999999995,12.726 9.57899999999995,12.726 C9.57899999999995,12.726 9.59500000000003,12.713 9.59500000000003,12.713 C9.62300000000005,12.694 9.65200000000004,12.674 9.68600000000004,12.657 C9.68600000000004,12.657 9.69299999999998,12.651 9.69299999999998,12.651 C9.69299999999998,12.651 9.76199999999994,12.624 9.76199999999994,12.624 C11.307,12.129 12.8339999999999,11.1 13.904,9.17500000000001 C13.904,9.17500000000001 13.9160000000001,9.15199999999999 13.9160000000001,9.15199999999999 C14.753,7.64400000000001 15.3200000000001,5.58000000000001 15.414,2.80600000000001 C15.414,2.80600000000001 2.69299999999998,2.80600000000001 2.69299999999998,2.80600000000001 C2.79100000000005,5.58000000000001 3.35500000000002,7.64400000000001 4.19200000000001,9.15199999999999 C4.19200000000001,9.15199999999999 4.20399999999995,9.17500000000001 4.20399999999995,9.17500000000001 C5.27700000000004,11.1 6.803,12.129 8.34900000000005,12.624 C8.34900000000005,12.624 8.41499999999996,12.651 8.41499999999996,12.651 C8.41499999999996,12.651 8.42399999999998,12.657 8.42399999999998,12.657 C8.45600000000002,12.674 8.48800000000006,12.694 8.51300000000003,12.713 C8.51300000000003,12.713 8.52800000000002,12.726 8.52800000000002,12.726 C8.52800000000002,12.726 8.56299999999999,12.759 8.56299999999999,12.759 C8.56299999999999,12.759 8.56899999999996,12.765 8.56899999999996,12.765 C8.56899999999996,12.765 8.60400000000004,12.802 8.60400000000004,12.802 C8.60400000000004,12.802 8.61300000000006,12.818 8.61300000000006,12.818 C8.63499999999999,12.848 8.654,12.88 8.66999999999996,12.913 C8.66999999999996,12.913 8.67600000000004,12.92 8.67600000000004,12.92 C8.69200000000001,12.966 8.70699999999999,13.008 8.71400000000006,13.054 C8.71400000000006,13.054 8.71699999999998,13.077 8.71699999999998,13.077 C8.71699999999998,13.077 8.72000000000003,13.11 8.72000000000003,13.11 C8.72000000000003,13.11 8.72299999999996,13.143 8.72299999999996,13.143 C8.72299999999996,13.143 8.72299999999996,13.166 8.72299999999996,13.166 C8.72299999999996,13.166 8.72000000000003,13.199 8.72000000000003,13.199 C8.72000000000003,13.199 8.71699999999998,13.231 8.71699999999998,13.231 C8.71699999999998,13.231 8.71400000000006,13.251 8.71400000000006,13.251 C8.70699999999999,13.297 8.69200000000001,13.346 8.67600000000004,13.385 C8.67600000000004,13.385 8.66999999999996,13.395 8.66999999999996,13.395 C8.654,13.428 8.63499999999999,13.461 8.61300000000006,13.487 C8.61300000000006,13.487 8.60400000000004,13.503 8.60400000000004,13.503 C8.60400000000004,13.503 8.56899999999996,13.543 8.56899999999996,13.543 C8.56899999999996,13.543 8.56299999999999,13.549 8.56299999999999,13.549 C8.56299999999999,13.549 8.52800000000002,13.582 8.52800000000002,13.582 C8.52800000000002,13.582 8.51300000000003,13.592 8.51300000000003,13.592 C8.48800000000006,13.618 8.45600000000002,13.634 8.42399999999998,13.651 C8.42399999999998,13.651 8.41499999999996,13.655 8.41499999999996,13.655 C8.41499999999996,13.655 8.34900000000005,13.684 8.34900000000005,13.684 C6.803,14.179 5.27700000000004,15.205 4.20399999999995,17.13 C4.20399999999995,17.13 4.19200000000001,17.16 4.19200000000001,17.16 C3.75400000000002,17.95 3.38599999999997,18.892 3.12400000000002,20.013 C3.12400000000002,20.013 3.12400000000002,20.013 3.12400000000002,20.013 ZM4.41499999999996,7.482 C4.41499999999996,7.482 4.41499999999996,7.482 4.41499999999996,7.482 C4.79899999999998,8.50299999999999 5.33699999999999,9.43100000000001 6.08000000000004,10.188 C6.75,10.873 7.58399999999995,11.411 8.61000000000001,11.742 C8.61000000000001,11.742 8.61599999999999,11.742 8.61599999999999,11.742 C8.61599999999999,11.742 8.63199999999995,11.749 8.63199999999995,11.749 C8.63199999999995,11.749 8.77700000000004,11.808 8.77700000000004,11.808 C8.77700000000004,11.808 8.81200000000001,11.824 8.81200000000001,11.824 C8.83699999999999,11.838 8.86800000000005,11.851 8.89599999999996,11.861 C8.89599999999996,11.861 8.92499999999995,11.867 8.92499999999995,11.867 C9.05700000000002,11.903 9.19200000000001,11.88 9.30899999999997,11.814 C9.30899999999997,11.814 9.322,11.812 9.322,11.812 C9.322,11.812 9.476,11.749 9.476,11.749 C9.476,11.749 9.49099999999999,11.742 9.49099999999999,11.742 C9.49099999999999,11.742 9.49800000000005,11.742 9.49800000000005,11.742 C10.524,11.411 11.3579999999999,10.873 12.028,10.191 C12.028,10.191 12.0309999999999,10.188 12.0309999999999,10.188 C12.77,9.43100000000001 13.312,8.50299999999999 13.696,7.482 C13.8,7.19999999999999 13.664,6.876 13.39,6.768 C13.12,6.65600000000001 12.812,6.797 12.705,7.07900000000001 C12.374,7.96100000000001 11.9109999999999,8.75899999999999 11.288,9.40100000000001 C10.731,9.959 10.045,10.408 9.19200000000001,10.683 C9.19200000000001,10.683 9.19200000000001,10.683 9.19200000000001,10.683 C9.19200000000001,10.683 9.16700000000003,10.69 9.16700000000003,10.69 C9.16700000000003,10.69 9.10799999999995,10.71 9.10799999999995,10.71 C9.10799999999995,10.71 9.05399999999997,10.729 9.05399999999997,10.729 C9.05399999999997,10.729 9.00099999999998,10.71 9.00099999999998,10.71 C9.00099999999998,10.71 8.95899999999995,10.696 8.95899999999995,10.696 C8.95899999999995,10.696 8.91600000000005,10.683 8.91600000000005,10.683 C8.06500000000005,10.408 7.37300000000005,9.96199999999999 6.82299999999998,9.40100000000001 C6.19600000000003,8.762 5.73699999999997,7.96100000000001 5.40599999999995,7.07900000000001 C5.29899999999998,6.797 4.99099999999999,6.65600000000001 4.71699999999998,6.768 C4.44299999999998,6.876 4.31100000000004,7.19999999999999 4.41499999999996,7.482 C4.41499999999996,7.482 4.41499999999996,7.482 4.41499999999996,7.482 ZM9.14499999999998,10.696 C9.14499999999998,10.696 9.14499999999998,10.696 9.14499999999998,10.696 C9.14499999999998,10.696 9.16700000000003,10.69 9.16700000000003,10.69 C9.16700000000003,10.69 9.14499999999998,10.696 9.14499999999998,10.696 C9.14499999999998,10.696 9.14499999999998,10.696 9.14499999999998,10.696 Z "/>
</svg>
