<?xml version="1.0" encoding="utf-8"?>
<!DOCTYPE svg PUBLIC "-//W3C//DTD SVG 1.1//EN" "http://www.w3.org/Graphics/SVG/1.1/DTD/svg11.dtd">
<svg version="1.1" baseProfile="full"
 xmlns="http://www.w3.org/2000/svg"
 xmlns:xlink="http://www.w3.org/1999/xlink"
 xmlns:ev="http://www.w3.org/2001/xml-events" 
  height="20px" 
  width="25px" 
>
<path fill="rgb( 93, 193, 232 )"
 d="M23.958,3.18199999999999 C23.958,3.18199999999999 15.746,3.18199999999999 15.746,3.18199999999999 C15.746,3.18199999999999 15.746,0.53899999999999 15.746,0.53899999999999 C15.746,0.25700000000001 15.486,0.04499999999999 15.17,0.04499999999999 C15.17,0.04499999999999 9.822,0.04499999999999 9.822,0.04499999999999 C9.50699999999995,0.04499999999999 9.24900000000002,0.25700000000001 9.24900000000002,0.53899999999999 C9.24900000000002,0.53899999999999 9.24900000000002,3.18199999999999 9.24900000000002,3.18199999999999 C9.24900000000002,3.18199999999999 1.03399999999999,3.18199999999999 1.03399999999999,3.18199999999999 C0.50900000000001,3.18199999999999 0.08199999999999,3.55199999999999 0.08199999999999,4.011 C0.08199999999999,4.011 0.08199999999999,19.158 0.08199999999999,19.158 C0.08199999999999,19.617 0.50900000000001,19.993 1.03399999999999,19.993 C1.03399999999999,19.993 23.958,19.993 23.958,19.993 C24.4829999999999,19.993 24.91,19.617 24.91,19.158 C24.91,19.158 24.91,4.011 24.91,4.011 C24.91,3.55199999999999 24.4829999999999,3.18199999999999 23.958,3.18199999999999 C23.958,3.18199999999999 23.958,3.18199999999999 23.958,3.18199999999999 ZM10.398,1.03399999999999 C10.398,1.03399999999999 10.398,1.03399999999999 10.398,1.03399999999999 C10.398,1.03399999999999 14.601,1.03399999999999 14.601,1.03399999999999 C14.601,1.03399999999999 14.601,3.18199999999999 14.601,3.18199999999999 C14.601,3.18199999999999 10.398,3.18199999999999 10.398,3.18199999999999 C10.398,3.18199999999999 10.398,1.03399999999999 10.398,1.03399999999999 C10.398,1.03399999999999 10.398,1.03399999999999 10.398,1.03399999999999 ZM6.77200000000005,4.17599999999999 C6.77200000000005,4.17599999999999 6.77200000000005,4.17599999999999 6.77200000000005,4.17599999999999 C6.77200000000005,4.17599999999999 18.22,4.17599999999999 18.22,4.17599999999999 C18.22,4.17599999999999 18.22,5.77600000000001 18.22,5.77600000000001 C18.22,5.77600000000001 6.77200000000005,5.77600000000001 6.77200000000005,5.77600000000001 C6.77200000000005,5.77600000000001 6.77200000000005,4.17599999999999 6.77200000000005,4.17599999999999 C6.77200000000005,4.17599999999999 6.77200000000005,4.17599999999999 6.77200000000005,4.17599999999999 ZM23.002,18.334 C23.002,18.334 23.002,18.334 23.002,18.334 C23.002,18.334 1.99000000000001,18.334 1.99000000000001,18.334 C1.99000000000001,18.334 1.99000000000001,4.84100000000001 1.99000000000001,4.84100000000001 C1.99000000000001,4.84100000000001 5.62599999999998,4.84100000000001 5.62599999999998,4.84100000000001 C5.62599999999998,4.84100000000001 5.62599999999998,6.27099999999999 5.62599999999998,6.27099999999999 C5.62599999999998,6.547 5.88699999999994,6.77099999999999 6.202,6.77099999999999 C6.202,6.77099999999999 18.796,6.77099999999999 18.796,6.77099999999999 C19.1079999999999,6.77099999999999 19.366,6.547 19.366,6.27099999999999 C19.366,6.27099999999999 19.366,4.84100000000001 19.366,4.84100000000001 C19.366,4.84100000000001 23.002,4.84100000000001 23.002,4.84100000000001 C23.002,4.84100000000001 23.002,18.334 23.002,18.334 C23.002,18.334 23.002,18.334 23.002,18.334 ZM20.857,11.414 C20.857,11.414 20.857,11.414 20.857,11.414 C20.857,11.414 14.939,11.414 14.939,11.414 C14.624,11.414 14.3630000000001,11.638 14.3630000000001,11.908 C14.3630000000001,12.191 14.624,12.414 14.939,12.414 C14.939,12.414 20.857,12.414 20.857,12.414 C21.176,12.414 21.433,12.191 21.433,11.908 C21.433,11.638 21.176,11.414 20.857,11.414 C20.857,11.414 20.857,11.414 20.857,11.414 ZM20.857,13.602 C20.857,13.602 20.857,13.602 20.857,13.602 C20.857,13.602 14.939,13.602 14.939,13.602 C14.624,13.602 14.3630000000001,13.827 14.3630000000001,14.097 C14.3630000000001,14.374 14.624,14.603 14.939,14.603 C14.939,14.603 20.857,14.603 20.857,14.603 C21.176,14.603 21.433,14.374 21.433,14.097 C21.433,13.827 21.176,13.602 20.857,13.602 C20.857,13.602 20.857,13.602 20.857,13.602 ZM14.3630000000001,9.71899999999999 C14.3630000000001,9.71899999999999 14.3630000000001,9.71899999999999 14.3630000000001,9.71899999999999 C14.3630000000001,10.002 14.624,10.219 14.939,10.219 C14.939,10.219 20.857,10.219 20.857,10.219 C21.176,10.219 21.433,10.002 21.433,9.71899999999999 C21.433,9.44800000000001 21.176,9.22499999999999 20.857,9.22499999999999 C20.857,9.22499999999999 14.939,9.22499999999999 14.939,9.22499999999999 C14.624,9.22499999999999 14.3630000000001,9.44800000000001 14.3630000000001,9.71899999999999 C14.3630000000001,9.71899999999999 14.3630000000001,9.71899999999999 14.3630000000001,9.71899999999999 ZM11.4589999999999,13.815 C11.4589999999999,13.815 11.4589999999999,13.815 11.4589999999999,13.815 C11.175,13.568 10.8390000000001,13.367 10.463,13.238 C10.463,13.238 10.331,13.191 10.331,13.191 C10.331,13.191 10.419,13.114 10.419,13.114 C11.066,12.555 11.466,11.779 11.466,10.919 C11.466,10.061 11.066,9.28399999999999 10.419,8.71899999999999 C9.76800000000003,8.154 8.87300000000005,7.80099999999999 7.88,7.80099999999999 C6.89400000000001,7.80099999999999 5.99599999999998,8.154 5.34900000000005,8.71899999999999 C4.69799999999998,9.28399999999999 4.298,10.061 4.298,10.919 C4.298,11.779 4.69799999999998,12.555 5.34900000000005,13.114 C5.34900000000005,13.114 5.43700000000001,13.191 5.43700000000001,13.191 C5.00999999999999,13.32 4.62400000000002,13.538 4.30499999999995,13.815 C4.02700000000004,14.056 3.79700000000003,14.35 3.64099999999996,14.68 C3.48800000000006,14.991 3.40300000000002,15.333 3.40300000000002,15.698 C3.40300000000002,15.698 3.40300000000002,16.421 3.40300000000002,16.421 C3.40300000000002,16.698 3.66399999999999,16.921 3.97900000000004,16.921 C3.97900000000004,16.921 11.784,16.921 11.784,16.921 C12.103,16.921 12.357,16.698 12.357,16.421 C12.357,16.421 12.357,15.698 12.357,15.698 C12.357,15.333 12.273,14.991 12.124,14.68 C11.967,14.35 11.737,14.056 11.4589999999999,13.815 C11.4589999999999,13.815 11.4589999999999,13.815 11.4589999999999,13.815 ZM6.15899999999999,9.41300000000001 C6.15899999999999,9.41300000000001 6.15899999999999,9.41300000000001 6.15899999999999,9.41300000000001 C6.60000000000002,9.036 7.21000000000004,8.80099999999999 7.88,8.80099999999999 C8.55499999999995,8.80099999999999 9.16499999999996,9.036 9.60599999999999,9.41300000000001 C10.046,9.80099999999999 10.3200000000001,10.331 10.3200000000001,10.919 C10.3200000000001,11.496 10.046,12.026 9.60599999999999,12.414 C8.65999999999997,13.238 7.10799999999995,13.238 6.15899999999999,12.414 C5.71500000000003,12.026 5.44399999999996,11.496 5.44399999999996,10.919 C5.44399999999996,10.331 5.71500000000003,9.80099999999999 6.15899999999999,9.41300000000001 C6.15899999999999,9.41300000000001 6.15899999999999,9.41300000000001 6.15899999999999,9.41300000000001 ZM11.212,15.921 C11.212,15.921 11.212,15.921 11.212,15.921 C11.212,15.921 4.553,15.921 4.553,15.921 C4.553,15.921 4.553,15.698 4.553,15.698 C4.553,15.468 4.60699999999997,15.251 4.69100000000003,15.062 C4.79300000000001,14.856 4.93899999999996,14.674 5.11800000000005,14.515 C5.46400000000006,14.215 5.94200000000001,14.027 6.47400000000005,14.027 C6.47400000000005,14.027 9.28999999999996,14.027 9.28999999999996,14.027 C9.55799999999999,14.027 9.80499999999995,14.074 10.022,14.156 C10.252,14.238 10.47,14.356 10.649,14.515 C10.826,14.674 10.968,14.856 11.066,15.062 C11.1609999999999,15.251 11.212,15.468 11.212,15.698 C11.212,15.698 11.212,15.921 11.212,15.921 C11.212,15.921 11.212,15.921 11.212,15.921 Z "/>
</svg>
