<?xml version="1.0" encoding="utf-8"?>
<!DOCTYPE svg PUBLIC "-//W3C//DTD SVG 1.1//EN" "http://www.w3.org/Graphics/SVG/1.1/DTD/svg11.dtd">
<svg version="1.1" baseProfile="full"
 xmlns="http://www.w3.org/2000/svg"
 xmlns:xlink="http://www.w3.org/1999/xlink"
 xmlns:ev="http://www.w3.org/2001/xml-events" 
  height="26px" 
  width="26px" 
>
<path fill="rgb( 93, 193, 232 )"
 d="M12.5069999999999,0.989 C15.957,0.989 19.088,2.39099999999999 21.347,4.655 C23.61,6.91800000000001 25.01,10.044 25.01,13.498 C25.01,16.95 23.61,20.076 21.347,22.336 C19.088,24.602 15.957,25.998 12.5069999999999,25.998 C9.05200000000002,25.998 5.92499999999995,24.602 3.66499999999996,22.336 C1.40200000000004,20.076 0.00300000000004,16.95 0.00300000000004,13.498 C0.00300000000004,10.044 1.40200000000004,6.91800000000001 3.66499999999996,4.655 C5.92499999999995,2.39099999999999 9.05200000000002,0.989 12.5069999999999,0.989 C12.5069999999999,0.989 12.5069999999999,0.989 12.5069999999999,0.989 ZM11.929,24.062 C11.929,24.062 11.929,24.062 11.929,24.062 C11.929,24.062 11.929,20.014 11.929,20.014 C10.79,20.069 9.697,20.301 8.68299999999999,20.683 C8.53999999999996,20.735 8.39300000000003,20.793 8.25300000000004,20.847 C8.33500000000004,21.031 8.42700000000002,21.209 8.52200000000005,21.383 C9.154,22.527 9.91600000000005,23.411 10.7619999999999,23.933 C11.144,23.994 11.537,24.039 11.929,24.062 C11.929,24.062 11.929,24.062 11.929,24.062 ZM19.989,6.017 C19.989,6.017 19.989,6.017 19.989,6.017 C19.9,5.93100000000001 19.8150000000001,5.84299999999999 19.726,5.761 C19.2619999999999,6.10900000000001 18.771,6.423 18.2619999999999,6.69999999999999 C18.941,8.48099999999999 19.364,10.621 19.426,12.918 C19.426,12.918 23.075,12.918 23.075,12.918 C22.928,10.225 21.777,7.80500000000001 19.989,6.017 C19.989,6.017 19.989,6.017 19.989,6.017 ZM18.818,5.00299999999999 C18.818,5.00299999999999 18.818,5.00299999999999 18.818,5.00299999999999 C18.153,4.50800000000001 17.432,4.09100000000001 16.6609999999999,3.76400000000001 C16.961,4.15600000000001 17.241,4.58600000000001 17.5,5.06100000000001 C17.603,5.245 17.702,5.44 17.797,5.64099999999999 C18.153,5.44300000000001 18.487,5.232 18.818,5.00299999999999 C18.818,5.00299999999999 18.818,5.00299999999999 18.818,5.00299999999999 ZM14.2569999999999,3.05799999999999 C14.2569999999999,3.05799999999999 14.2569999999999,3.05799999999999 14.2569999999999,3.05799999999999 C13.872,2.99600000000001 13.479,2.95099999999999 13.083,2.93100000000001 C13.083,2.93100000000001 13.083,6.983 13.083,6.983 C14.227,6.92099999999999 15.316,6.68899999999999 16.333,6.31 C16.473,6.256 16.623,6.20099999999999 16.763,6.13999999999999 C16.677,5.959 16.582,5.78100000000001 16.49,5.614 C15.8579999999999,4.46000000000001 15.098,3.58000000000001 14.2569999999999,3.05799999999999 C14.2569999999999,3.05799999999999 14.2569999999999,3.05799999999999 14.2569999999999,3.05799999999999 ZM11.929,2.93100000000001 C11.929,2.93100000000001 11.929,2.93100000000001 11.929,2.93100000000001 C11.537,2.95099999999999 11.144,2.99600000000001 10.7619999999999,3.05799999999999 C9.91600000000005,3.58000000000001 9.154,4.46000000000001 8.52200000000005,5.614 C8.42700000000002,5.78100000000001 8.33500000000004,5.959 8.25,6.13999999999999 C8.39300000000003,6.20099999999999 8.53599999999994,6.256 8.68299999999999,6.31 C9.69299999999998,6.68899999999999 10.79,6.92099999999999 11.929,6.983 C11.929,6.983 11.929,2.93100000000001 11.929,2.93100000000001 C11.929,2.93100000000001 11.929,2.93100000000001 11.929,2.93100000000001 ZM8.35199999999998,3.76400000000001 C8.35199999999998,3.76400000000001 8.35199999999998,3.76400000000001 8.35199999999998,3.76400000000001 C7.58699999999999,4.09100000000001 6.86400000000003,4.50800000000001 6.19399999999996,5.00299999999999 C6.52599999999995,5.232 6.86699999999996,5.44300000000001 7.21500000000003,5.64099999999999 C7.30700000000002,5.44 7.40999999999997,5.245 7.51199999999994,5.06100000000001 C7.76800000000003,4.58600000000001 8.05499999999995,4.15600000000001 8.35199999999998,3.76400000000001 C8.35199999999998,3.76400000000001 8.35199999999998,3.76400000000001 8.35199999999998,3.76400000000001 ZM5.28599999999994,5.761 C5.28599999999994,5.761 5.28599999999994,5.761 5.28599999999994,5.761 C5.20100000000002,5.84299999999999 5.10900000000004,5.93100000000001 5.02099999999996,6.017 C3.23500000000001,7.80500000000001 2.08399999999995,10.225 1.93799999999999,12.918 C1.93799999999999,12.918 5.58699999999999,12.918 5.58699999999999,12.918 C5.64800000000002,10.621 6.07500000000005,8.48099999999999 6.75800000000004,6.69999999999999 C6.24300000000005,6.423 5.75,6.10900000000001 5.28599999999994,5.761 C5.28599999999994,5.761 5.28599999999994,5.761 5.28599999999994,5.761 ZM1.93799999999999,14.072 C1.93799999999999,14.072 1.93799999999999,14.072 1.93799999999999,14.072 C2.08399999999995,16.762 3.23500000000001,19.189 5.02099999999996,20.98 C5.02099999999996,20.98 5.28599999999994,21.233 5.28599999999994,21.233 C5.75,20.885 6.24300000000005,20.567 6.75800000000004,20.294 C6.07500000000005,18.509 5.64800000000002,16.376 5.58699999999999,14.072 C5.58699999999999,14.072 1.93799999999999,14.072 1.93799999999999,14.072 C1.93799999999999,14.072 1.93799999999999,14.072 1.93799999999999,14.072 ZM6.19399999999996,21.991 C6.19399999999996,21.991 6.19399999999996,21.991 6.19399999999996,21.991 C6.86400000000003,22.486 7.58699999999999,22.898 8.35199999999998,23.226 C8.05499999999995,22.84 7.76800000000003,22.403 7.51199999999994,21.936 C7.40999999999997,21.748 7.30700000000002,21.551 7.21500000000003,21.356 C6.86699999999996,21.547 6.52599999999995,21.762 6.19399999999996,21.991 C6.19399999999996,21.991 6.19399999999996,21.991 6.19399999999996,21.991 ZM13.083,24.062 C13.083,24.062 13.083,24.062 13.083,24.062 C13.479,24.039 13.872,23.994 14.2569999999999,23.933 C15.098,23.411 15.8579999999999,22.527 16.49,21.383 C16.582,21.209 16.677,21.031 16.763,20.847 C16.623,20.793 16.473,20.735 16.329,20.683 C15.316,20.301 14.227,20.069 13.083,20.014 C13.083,20.014 13.083,24.062 13.083,24.062 C13.083,24.062 13.083,24.062 13.083,24.062 ZM16.6609999999999,23.226 C16.6609999999999,23.226 16.6609999999999,23.226 16.6609999999999,23.226 C17.432,22.898 18.153,22.486 18.818,21.991 C18.49,21.759 18.153,21.547 17.797,21.356 C17.702,21.551 17.603,21.748 17.5,21.936 C17.241,22.403 16.961,22.84 16.6609999999999,23.226 C16.6609999999999,23.226 16.6609999999999,23.226 16.6609999999999,23.226 ZM19.726,21.233 C19.726,21.233 19.726,21.233 19.726,21.233 C19.726,21.233 19.989,20.98 19.989,20.98 C21.777,19.189 22.928,16.762 23.075,14.072 C23.075,14.072 19.426,14.072 19.426,14.072 C19.364,16.376 18.941,18.509 18.255,20.294 C18.771,20.567 19.2619999999999,20.885 19.726,21.233 C19.726,21.233 19.726,21.233 19.726,21.233 ZM17.2140000000001,7.197 C17.2140000000001,7.197 17.2140000000001,7.197 17.2140000000001,7.197 C17.053,7.26599999999999 16.896,7.327 16.735,7.38900000000001 C15.585,7.815 14.36,8.07499999999999 13.083,8.13300000000001 C13.083,8.13300000000001 13.083,12.918 13.083,12.918 C13.083,12.918 18.272,12.918 18.272,12.918 C18.211,10.799 17.828,8.83600000000001 17.2140000000001,7.197 C17.2140000000001,7.197 17.2140000000001,7.197 17.2140000000001,7.197 ZM11.929,8.13300000000001 C11.929,8.13300000000001 11.929,8.13300000000001 11.929,8.13300000000001 C10.6559999999999,8.07499999999999 9.42700000000002,7.815 8.28099999999995,7.38900000000001 C8.11599999999999,7.327 7.95600000000002,7.26599999999999 7.79899999999998,7.197 C7.18100000000004,8.83600000000001 6.79899999999998,10.799 6.74000000000001,12.918 C6.74000000000001,12.918 11.929,12.918 11.929,12.918 C11.929,12.918 11.929,8.13300000000001 11.929,8.13300000000001 C11.929,8.13300000000001 11.929,8.13300000000001 11.929,8.13300000000001 ZM11.929,18.857 C11.929,18.857 11.929,18.857 11.929,18.857 C11.929,18.857 11.929,14.072 11.929,14.072 C11.929,14.072 6.74000000000001,14.072 6.74000000000001,14.072 C6.79899999999998,16.195 7.18399999999997,18.154 7.79899999999998,19.796 C7.96000000000004,19.728 8.12300000000005,19.666 8.28099999999995,19.608 C9.42700000000002,19.178 10.6559999999999,18.919 11.929,18.857 C11.929,18.857 11.929,18.857 11.929,18.857 ZM13.083,18.857 C13.083,18.857 13.083,18.857 13.083,18.857 C14.36,18.919 15.585,19.178 16.732,19.608 C16.896,19.666 17.053,19.728 17.2140000000001,19.796 C17.828,18.154 18.211,16.195 18.272,14.072 C18.272,14.072 13.083,14.072 13.083,14.072 C13.083,14.072 13.083,18.857 13.083,18.857 C13.083,18.857 13.083,18.857 13.083,18.857 Z "/>
</svg>
