<?xml version="1.0" encoding="utf-8"?>
<!DOCTYPE svg PUBLIC "-//W3C//DTD SVG 1.1//EN" "http://www.w3.org/Graphics/SVG/1.1/DTD/svg11.dtd">
<svg version="1.1" baseProfile="full"
 xmlns="http://www.w3.org/2000/svg"
 xmlns:xlink="http://www.w3.org/1999/xlink"
 xmlns:ev="http://www.w3.org/2001/xml-events" 
  height="36px" 
  width="36px" 
>
<path fill="rgb( 93, 193, 232 )"
 d="M16.1610000000001,2.322 C16.1610000000001,1.59100000000001 16.7719999999999,0.994 17.5170000000001,0.994 C18.2619999999999,0.994 18.864,1.59100000000001 18.864,2.322 C18.864,2.322 18.864,13.65 18.864,13.65 C18.864,13.65 22.597,9.94999999999999 22.597,9.94999999999999 C23.1220000000001,9.41900000000001 23.971,9.41900000000001 24.5060000000001,9.94999999999999 C25.0219999999999,10.463 25.0219999999999,11.317 24.5060000000001,11.838 C24.5060000000001,11.838 18.472,17.835 18.472,17.835 C18.472,17.835 18.443,17.853 18.443,17.853 C18.443,17.853 18.433,17.863 18.433,17.863 C17.8800000000001,18.337 17.155,18.337 16.5909999999999,17.863 C16.5909999999999,17.863 16.5820000000001,17.853 16.5820000000001,17.853 C16.5820000000001,17.853 16.5619999999999,17.835 16.5619999999999,17.835 C16.5619999999999,17.835 16.5440000000001,17.806 16.5440000000001,17.806 C16.5440000000001,17.806 16.5440000000001,17.806 16.5440000000001,17.806 C16.5440000000001,17.806 10.528,11.838 10.528,11.838 C10.002,11.317 10.002,10.463 10.528,9.94999999999999 C11.0540000000001,9.41900000000001 11.912,9.41900000000001 12.4380000000001,9.94999999999999 C12.4380000000001,9.94999999999999 16.1610000000001,13.65 16.1610000000001,13.65 C16.1610000000001,13.65 16.1610000000001,2.322 16.1610000000001,2.322 C16.1610000000001,2.322 16.1610000000001,2.322 16.1610000000001,2.322 ZM28.5550000000001,25.643 C29.3,25.643 29.9010000000001,26.25 29.9010000000001,26.99 C29.9010000000001,27.73 29.3,28.319 28.5550000000001,28.319 C27.8099999999999,28.319 27.2080000000001,27.73 27.2080000000001,26.99 C27.2080000000001,26.25 27.8099999999999,25.643 28.5550000000001,25.643 C28.5550000000001,25.643 28.5550000000001,25.643 28.5550000000001,25.643 ZM5.93499999999995,31.098 C5.4860000000001,31.098 5.12400000000002,30.738 5.12400000000002,30.292 C5.12400000000002,29.856 5.4860000000001,29.495 5.93499999999995,29.495 C5.93499999999995,29.495 29.0899999999999,29.495 29.0899999999999,29.495 C29.548,29.495 29.9010000000001,29.856 29.9010000000001,30.292 C29.9010000000001,30.738 29.548,31.098 29.0899999999999,31.098 C29.0899999999999,31.098 5.93499999999995,31.098 5.93499999999995,31.098 C5.93499999999995,31.098 5.93499999999995,31.098 5.93499999999995,31.098 ZM3.47199999999998,20.728 C3.47199999999998,20.728 31.5619999999999,20.728 31.5619999999999,20.728 C32.508,20.728 33.377,21.118 33.9970000000001,21.743 C34.627,22.36 35.01,23.214 35.01,24.162 C35.01,24.162 35.01,32.55 35.01,32.55 C35.01,33.499 34.627,34.353 33.9970000000001,34.979 C33.377,35.605 32.508,35.984 31.5619999999999,35.984 C31.5619999999999,35.984 3.47199999999998,35.984 3.47199999999998,35.984 C2.51700000000005,35.984 1.64799999999991,35.605 1.02800000000002,34.979 C0.40699999999993,34.353 0.0150000000001,33.499 0.0150000000001,32.55 C0.0150000000001,32.55 0.0150000000001,24.162 0.0150000000001,24.162 C0.0150000000001,23.214 0.40699999999993,22.36 1.02800000000002,21.743 C1.64799999999991,21.118 2.51700000000005,20.728 3.47199999999998,20.728 C3.47199999999998,20.728 3.47199999999998,20.728 3.47199999999998,20.728 ZM31.5619999999999,23.404 C31.5619999999999,23.404 3.47199999999998,23.404 3.47199999999998,23.404 C3.26199999999994,23.404 3.0619999999999,23.499 2.92800000000011,23.631 C2.7940000000001,23.764 2.70800000000008,23.954 2.70800000000008,24.162 C2.70800000000008,24.162 2.70800000000008,32.55 2.70800000000008,32.55 C2.70800000000008,32.759 2.7940000000001,32.948 2.92800000000011,33.081 C3.0619999999999,33.233 3.26199999999994,33.309 3.47199999999998,33.309 C3.47199999999998,33.309 31.5619999999999,33.309 31.5619999999999,33.309 C31.7629999999999,33.309 31.963,33.233 32.097,33.081 C32.24,32.948 32.317,32.759 32.317,32.55 C32.317,32.55 32.317,24.162 32.317,24.162 C32.317,23.954 32.24,23.764 32.097,23.631 C31.963,23.499 31.7629999999999,23.404 31.5619999999999,23.404 C31.5619999999999,23.404 31.5619999999999,23.404 31.5619999999999,23.404 Z "/>
</svg>
