<?xml version="1.0" encoding="utf-8"?>
<!DOCTYPE svg PUBLIC "-//W3C//DTD SVG 1.1//EN" "http://www.w3.org/Graphics/SVG/1.1/DTD/svg11.dtd">
<svg version="1.1" baseProfile="full"
 xmlns="http://www.w3.org/2000/svg"
 xmlns:xlink="http://www.w3.org/1999/xlink"
 xmlns:ev="http://www.w3.org/2001/xml-events" 
  height="19px" 
  width="25px" 
>
<path fill="rgb( 93, 193, 232 )"
 d="M19.562,14.225 C20.093,14.225 20.527,14.659 20.527,15.204 C20.527,15.735 20.093,16.171 19.562,16.171 C19.034,16.171 18.601,15.735 18.601,15.204 C18.601,14.659 19.034,14.225 19.562,14.225 C19.562,14.225 19.562,14.225 19.562,14.225 ZM16.9109999999999,9.91899999999998 C16.9109999999999,9.91899999999998 22.211,9.91899999999998 22.211,9.91899999999998 C22.211,9.91899999999998 20.6559999999999,6.77300000000002 20.6559999999999,6.77300000000002 C20.6559999999999,6.77300000000002 16.9109999999999,6.77300000000002 16.9109999999999,6.77300000000002 C16.9109999999999,6.77300000000002 16.9109999999999,9.91899999999998 16.9109999999999,9.91899999999998 C16.9109999999999,9.91899999999998 16.9109999999999,9.91899999999998 16.9109999999999,9.91899999999998 ZM22.7859999999999,11.085 C22.7859999999999,11.085 16.9109999999999,11.085 16.9109999999999,11.085 C16.9109999999999,11.085 16.9109999999999,14.2380000000001 16.9109999999999,14.2380000000001 C17.378,14.3 17.7380000000001,14.707 17.7380000000001,15.204 C17.7380000000001,15.708 17.943,16.171 18.274,16.501 C18.274,16.501 18.27,16.508 18.27,16.508 C18.27,16.508 18.274,16.508 18.274,16.508 C18.601,16.847 19.058,17.047 19.562,17.047 C20.049,17.047 20.4930000000001,16.86 20.817,16.543 C20.817,16.543 20.854,16.501 20.854,16.501 C21.178,16.177 21.3819999999999,15.722 21.389,15.225 C21.389,15.225 21.389,15.204 21.389,15.204 C21.389,14.659 21.818,14.225 22.35,14.225 C22.35,14.225 23.076,14.225 23.076,14.225 C23.076,14.225 23.076,11.658 23.076,11.658 C23.076,11.658 22.7859999999999,11.085 22.7859999999999,11.085 C22.7859999999999,11.085 22.7859999999999,11.085 22.7859999999999,11.085 ZM23.1849999999999,16.171 C23.015,16.826 22.671,17.412 22.2140000000001,17.8819999999999 C22.2140000000001,17.8819999999999 22.153,17.937 22.153,17.937 C21.481,18.592 20.567,18.9930000000001 19.562,18.9930000000001 C18.533,18.9930000000001 17.595,18.571 16.918,17.8819999999999 C16.918,17.8819999999999 16.914,17.8819999999999 16.914,17.8819999999999 C16.454,17.412 16.1130000000001,16.833 15.942,16.171 C15.942,16.171 15.926,16.171 15.926,16.171 C15.926,16.171 10.295,16.171 10.295,16.171 C10.121,16.833 9.77999999999997,17.412 9.32000000000005,17.8819999999999 C8.64200000000005,18.571 7.70399999999995,18.9930000000001 6.67200000000003,18.9930000000001 C5.63599999999997,18.9930000000001 4.69899999999996,18.571 4.01999999999998,17.8819999999999 C3.55999999999995,17.412 3.22000000000003,16.833 3.04899999999998,16.171 C3.04899999999998,16.171 0.97000000000003,16.171 0.97000000000003,16.171 C0.43799999999999,16.171 0.00900000000001,15.735 0.00900000000001,15.204 C0.00900000000001,15.204 0.00900000000001,15.176 0.00900000000001,15.176 C0.00900000000001,15.176 0.00900000000001,0.97699999999998 0.00900000000001,0.97699999999998 C0.00900000000001,0.43799999999999 0.43799999999999,0.00400000000002 0.97000000000003,0.00400000000002 C0.97000000000003,0.00400000000002 0.99400000000003,0.00400000000002 0.99400000000003,0.00400000000002 C0.99400000000003,0.00400000000002 15.949,0.00400000000002 15.949,0.00400000000002 C16.481,0.00400000000002 16.9109999999999,0.43799999999999 16.9109999999999,0.97699999999998 C16.9109999999999,0.97699999999998 16.9109999999999,1.00400000000002 16.9109999999999,1.00400000000002 C16.9109999999999,1.00400000000002 16.9109999999999,4.827 16.9109999999999,4.827 C16.9109999999999,4.827 21.246,4.827 21.246,4.827 C21.651,4.827 21.999,5.08199999999999 22.1420000000001,5.44100000000003 C22.1420000000001,5.44100000000003 24.89,11.009 24.89,11.009 C24.961,11.147 24.991,11.292 24.991,11.437 C24.991,11.437 24.995,11.437 24.995,11.437 C24.995,11.437 24.995,15.204 24.995,15.204 C24.995,15.735 24.566,16.171 24.037,16.171 C24.037,16.171 24.014,16.171 24.014,16.171 C24.014,16.171 23.1849999999999,16.171 23.1849999999999,16.171 C23.1849999999999,16.171 23.1849999999999,16.171 23.1849999999999,16.171 ZM14.9880000000001,1.95600000000002 C14.9880000000001,1.95600000000002 1.93100000000004,1.95600000000002 1.93100000000004,1.95600000000002 C1.93100000000004,1.95600000000002 1.93100000000004,14.225 1.93100000000004,14.225 C1.93100000000004,14.225 3.86099999999999,14.225 3.86099999999999,14.225 C3.86099999999999,14.225 3.88400000000001,14.225 3.88400000000001,14.225 C4.41499999999996,14.225 4.84500000000003,14.659 4.84500000000003,15.204 C4.84500000000003,15.708 5.04999999999995,16.171 5.38,16.501 C5.71100000000001,16.833 6.16700000000003,17.047 6.67200000000003,17.047 C7.173,17.047 7.63,16.833 7.96100000000001,16.501 C8.28399999999999,16.177 8.48800000000006,15.722 8.495,15.225 C8.495,15.225 8.495,15.204 8.495,15.204 C8.495,14.659 8.928,14.225 9.45600000000002,14.225 C9.45600000000002,14.225 14.9880000000001,14.225 14.9880000000001,14.225 C14.9880000000001,14.225 14.9880000000001,5.79999999999995 14.9880000000001,5.79999999999995 C14.9880000000001,5.79999999999995 14.9880000000001,5.76499999999999 14.9880000000001,5.76499999999999 C14.9880000000001,5.76499999999999 14.9880000000001,1.95600000000002 14.9880000000001,1.95600000000002 C14.9880000000001,1.95600000000002 14.9880000000001,1.95600000000002 14.9880000000001,1.95600000000002 ZM6.67200000000003,14.225 C7.20399999999995,14.225 7.63,14.659 7.63,15.204 C7.63,15.735 7.20399999999995,16.171 6.67200000000003,16.171 C6.13999999999999,16.171 5.71100000000001,15.735 5.71100000000001,15.204 C5.71100000000001,14.659 6.13999999999999,14.225 6.67200000000003,14.225 C6.67200000000003,14.225 6.67200000000003,14.225 6.67200000000003,14.225 Z "/>
</svg>
