<?xml version="1.0" encoding="utf-8"?>
<!DOCTYPE svg PUBLIC "-//W3C//DTD SVG 1.1//EN" "http://www.w3.org/Graphics/SVG/1.1/DTD/svg11.dtd">
<svg version="1.1" baseProfile="full"
 xmlns="http://www.w3.org/2000/svg"
 xmlns:xlink="http://www.w3.org/1999/xlink"
 xmlns:ev="http://www.w3.org/2001/xml-events" 
  height="21px" 
  width="27px" 
>
<path fill="rgb( 93, 193, 232 )"
 d="M26.002,7.79300000000001 C26.002,8.51199999999994 25.885,9.221 25.66,9.90200000000004 C24.595,14.758 15.412,20.633 15.02,20.883 C14.898,20.9589999999999 14.761,21 14.623,21 C14.4829999999999,21 14.345,20.9640000000001 14.222,20.883 C14.116,20.8150000000001 11.529,19.163 8.90499999999997,16.895 C8.59100000000001,16.623 8.55799999999999,16.149 8.82100000000003,15.833 C9.09100000000001,15.52 9.55799999999999,15.482 9.87199999999996,15.749 C11.828,17.438 13.805,18.803 14.624,19.352 C17.384,17.533 23.475,12.91 24.22,9.50099999999998 C24.4160000000001,8.89800000000002 24.504,8.35000000000002 24.504,7.79499999999996 C24.504,5.85900000000004 23.46,4.07399999999996 21.78,3.13900000000001 C19.636,1.93599999999998 16.764,2.49099999999999 15.1950000000001,4.40200000000004 C14.914,4.74699999999996 14.333,4.74699999999996 14.047,4.40200000000004 C12.472,2.49000000000001 9.60299999999995,1.93900000000002 7.46100000000001,3.137 C5.77599999999995,4.07399999999996 4.73299999999995,5.85699999999997 4.73299999999995,7.79100000000005 C4.73299999999995,8.34400000000005 4.82600000000002,8.89400000000001 4.99800000000005,9.42600000000004 C5.10900000000004,9.923 5.32100000000003,10.409 5.59000000000003,10.914 C5.59000000000003,10.914 9.94100000000003,10.914 9.94100000000003,10.914 C9.94100000000003,10.914 11.4349999999999,7.44399999999996 11.4349999999999,7.44399999999996 C11.563,7.14700000000005 11.869,6.96000000000004 12.183,6.99300000000005 C12.504,7.02200000000005 12.771,7.25400000000002 12.842,7.57000000000005 C12.842,7.57000000000005 13.942,12.269 13.942,12.269 C13.942,12.269 15.365,9.91200000000003 15.365,9.91200000000003 C15.499,9.68799999999999 15.741,9.55100000000004 16.001,9.55100000000004 C16.001,9.55100000000004 18.702,9.55100000000004 18.702,9.55100000000004 C19.111,9.55100000000004 19.447,9.88800000000003 19.447,10.304 C19.447,10.7190000000001 19.111,11.057 18.702,11.057 C18.702,11.057 16.419,11.057 16.419,11.057 C16.419,11.057 14.275,14.617 14.275,14.617 C14.139,14.842 13.897,14.979 13.641,14.979 C13.6,14.979 13.562,14.976 13.525,14.968 C13.225,14.92 12.9880000000001,14.696 12.9160000000001,14.399 C12.9160000000001,14.399 11.912,10.119 11.912,10.119 C11.912,10.119 11.117,11.966 11.117,11.966 C10.998,12.244 10.73,12.419 10.433,12.419 C10.433,12.419 1.74000000000001,12.419 1.74000000000001,12.419 C1.33100000000002,12.419 0.99400000000003,12.082 0.99400000000003,11.667 C0.99400000000003,11.251 1.33100000000002,10.914 1.74000000000001,10.914 C1.74000000000001,10.914 3.92499999999995,10.914 3.92499999999995,10.914 C3.76999999999998,10.54 3.64499999999998,10.176 3.56700000000001,9.82600000000002 C3.35900000000004,9.21600000000001 3.24699999999996,8.50599999999997 3.24699999999996,7.79100000000005 C3.24699999999996,5.30700000000002 4.58399999999995,3.01999999999998 6.74400000000003,1.81700000000001 C9.24599999999998,0.41800000000001 12.557,0.858 14.624,2.822 C16.688,0.858 19.996,0.41800000000001 22.502,1.81700000000001 C24.66,3.01799999999997 26.002,5.30700000000002 26.002,7.79300000000001 Z "/>
</svg>
