<?xml version="1.0" encoding="utf-8"?>
<!DOCTYPE svg PUBLIC "-//W3C//DTD SVG 1.1//EN" "http://www.w3.org/Graphics/SVG/1.1/DTD/svg11.dtd">
<svg version="1.1" baseProfile="full"
 xmlns="http://www.w3.org/2000/svg"
 xmlns:xlink="http://www.w3.org/1999/xlink"
 xmlns:ev="http://www.w3.org/2001/xml-events" 
  height="22px" 
  width="22px" 
>
<path fill="rgb( 93, 193, 232 )"
 d="M6.93499999999995,9.036 C7.37900000000002,9.036 7.78099999999995,9.21700000000001 8.072,9.50800000000001 C8.36400000000003,9.80500000000001 8.54399999999998,10.211 8.54399999999998,10.653 C8.54399999999998,11.101 8.36400000000003,11.513 8.072,11.804 C7.78099999999995,12.095 7.37900000000002,12.277 6.93499999999995,12.277 C6.49400000000003,12.277 6.09199999999998,12.095 5.80100000000004,11.804 C5.51300000000003,11.513 5.33299999999997,11.101 5.33299999999997,10.653 C5.33299999999997,10.211 5.51300000000003,9.80500000000001 5.80100000000004,9.50800000000001 C6.09199999999998,9.21700000000001 6.49400000000003,9.036 6.93499999999995,9.036 C6.93499999999995,9.036 6.93499999999995,9.036 6.93499999999995,9.036 ZM10.998,0.99100000000001 C14.01,0.99100000000001 16.7430000000001,2.05699999999999 18.727,3.78299999999999 C20.749,5.535 21.997,7.964 21.997,10.653 C21.997,13.349 20.746,15.778 18.727,17.529 C16.7430000000001,19.255 14.0069999999999,20.322 10.998,20.322 C10.098,20.322 9.21199999999999,20.224 8.36900000000003,20.037 C7.64700000000005,19.885 6.94399999999996,19.667 6.28099999999995,19.382 C6.28099999999995,19.382 3.62900000000002,20.824 3.62900000000002,20.824 C3.37099999999998,20.964 3.09199999999998,21.024 2.81500000000005,21 C2.81500000000005,21 2.81200000000001,21 2.81200000000001,21 C2.53999999999996,20.976 2.27300000000002,20.879 2.03899999999999,20.697 C1.80399999999997,20.521 1.63599999999997,20.285 1.54300000000001,20.018 C1.54300000000001,20.018 1.53999999999996,20.018 1.53999999999996,20.018 C1.44799999999998,19.758 1.42700000000002,19.473 1.48900000000003,19.183 C1.48900000000003,19.183 2.12800000000004,16.366 2.12800000000004,16.366 C1.495,15.608 0.98500000000001,14.772 0.62800000000004,13.876 C0.22000000000003,12.87 0.00099999999998,11.78 0.00099999999998,10.653 C0.00099999999998,7.964 1.25199999999995,5.535 3.27099999999996,3.78299999999999 C5.255,2.05699999999999 7.98800000000006,0.99100000000001 10.998,0.99100000000001 C10.998,0.99100000000001 10.998,0.99100000000001 10.998,0.99100000000001 ZM17.629,5.07400000000001 C15.937,3.614 13.596,2.69900000000001 10.998,2.69900000000001 C8.40200000000004,2.69900000000001 6.05899999999997,3.614 4.37,5.07400000000001 C2.71600000000001,6.50999999999999 1.69299999999998,8.48500000000001 1.69299999999998,10.653 C1.69299999999998,11.562 1.87,12.428 2.19500000000005,13.234 C2.52800000000002,14.07 3.01599999999996,14.839 3.62900000000002,15.512 C3.83799999999997,15.718 3.94000000000005,16.02 3.87199999999996,16.323 C3.87199999999996,16.323 3.245,19.098 3.245,19.098 C3.245,19.098 5.84000000000003,17.687 5.84000000000003,17.687 C5.84000000000003,17.687 5.84000000000003,17.687 5.84000000000003,17.687 C6.06500000000005,17.571 6.34400000000005,17.547 6.59000000000003,17.662 C7.25,17.971 7.96699999999998,18.213 8.721,18.371 C9.44299999999998,18.528 10.2089999999999,18.613 10.998,18.613 C13.593,18.613 15.937,17.705 17.629,16.239 C19.282,14.809 20.305,12.828 20.305,10.653 C20.305,8.48500000000001 19.282,6.50999999999999 17.629,5.07400000000001 C17.629,5.07400000000001 17.629,5.07400000000001 17.629,5.07400000000001 ZM7.35500000000002,10.235 C7.25,10.126 7.10000000000002,10.06 6.93499999999995,10.06 C6.77599999999995,10.06 6.62599999999998,10.126 6.51800000000003,10.235 C6.41300000000001,10.338 6.34699999999998,10.49 6.34699999999998,10.653 C6.34699999999998,10.823 6.41300000000001,10.968 6.51800000000003,11.077 C6.62599999999998,11.186 6.77599999999995,11.253 6.93499999999995,11.253 C7.10000000000002,11.253 7.25,11.186 7.35500000000002,11.077 C7.46000000000004,10.968 7.52599999999995,10.823 7.52599999999995,10.653 C7.52599999999995,10.49 7.46000000000004,10.338 7.35500000000002,10.235 C7.35500000000002,10.235 7.35500000000002,10.235 7.35500000000002,10.235 ZM10.998,9.036 C11.442,9.036 11.8440000000001,9.21700000000001 12.135,9.50800000000001 C12.426,9.80500000000001 12.603,10.211 12.603,10.653 C12.603,11.101 12.426,11.513 12.135,11.804 C11.8440000000001,12.095 11.442,12.277 10.998,12.277 C10.557,12.277 10.155,12.095 9.86400000000003,11.804 C9.57500000000005,11.513 9.39200000000005,11.101 9.39200000000005,10.653 C9.39200000000005,10.211 9.57500000000005,9.80500000000001 9.86400000000003,9.50800000000001 C10.155,9.21700000000001 10.557,9.036 10.998,9.036 C10.998,9.036 10.998,9.036 10.998,9.036 ZM11.415,10.235 C11.3099999999999,10.126 11.163,10.06 10.998,10.06 C10.836,10.06 10.686,10.126 10.581,10.235 C10.476,10.338 10.41,10.49 10.41,10.653 C10.41,10.823 10.476,10.968 10.581,11.077 C10.686,11.186 10.836,11.253 10.998,11.253 C11.163,11.253 11.3099999999999,11.186 11.415,11.077 C11.523,10.968 11.5890000000001,10.823 11.5890000000001,10.653 C11.5890000000001,10.49 11.523,10.338 11.415,10.235 C11.415,10.235 11.415,10.235 11.415,10.235 ZM15.0599999999999,9.036 C15.502,9.036 15.903,9.21700000000001 16.1950000000001,9.50800000000001 C16.485,9.80500000000001 16.665,10.211 16.665,10.653 C16.665,11.101 16.485,11.513 16.1950000000001,11.804 C15.903,12.095 15.502,12.277 15.0599999999999,12.277 C14.616,12.277 14.2140000000001,12.095 13.926,11.804 C13.635,11.513 13.455,11.101 13.455,10.653 C13.455,10.211 13.635,9.80500000000001 13.926,9.50800000000001 C14.2140000000001,9.21700000000001 14.616,9.036 15.0599999999999,9.036 C15.0599999999999,9.036 15.0599999999999,9.036 15.0599999999999,9.036 ZM15.478,10.235 C15.373,10.126 15.222,10.06 15.0599999999999,10.06 C14.898,10.06 14.748,10.126 14.643,10.235 C14.5359999999999,10.338 14.4690000000001,10.49 14.4690000000001,10.653 C14.4690000000001,10.823 14.5359999999999,10.968 14.643,11.077 C14.748,11.186 14.898,11.253 15.0599999999999,11.253 C15.222,11.253 15.373,11.186 15.478,11.077 C15.586,10.968 15.651,10.823 15.651,10.653 C15.651,10.49 15.586,10.338 15.478,10.235 C15.478,10.235 15.478,10.235 15.478,10.235 Z "/>
</svg>
