<?xml version="1.0" encoding="utf-8"?>
<!DOCTYPE svg PUBLIC "-//W3C//DTD SVG 1.1//EN" "http://www.w3.org/Graphics/SVG/1.1/DTD/svg11.dtd">
<svg version="1.1" baseProfile="full"
 xmlns="http://www.w3.org/2000/svg"
 xmlns:xlink="http://www.w3.org/1999/xlink"
 xmlns:ev="http://www.w3.org/2001/xml-events" 
  height="32px" 
  width="33px" 
>
<path fill="rgb( 93, 193, 232 )"
 d="M22.6179999999999,24.648 C22.6179999999999,24.648 22.6179999999999,28.597 22.6179999999999,28.597 C22.6179999999999,29.28 22.05,29.831 21.3520000000001,29.831 C21.3520000000001,29.831 19.711,29.831 19.711,29.831 C19.537,30.26 19.2729999999999,30.663 18.9380000000001,30.996 C18.2850000000001,31.626 17.413,31.994 16.4960000000001,31.994 C15.579,31.994 14.7059999999999,31.635 14.058,30.996 C13.713,30.663 13.454,30.26 13.2750000000001,29.831 C13.2750000000001,29.831 11.6389999999999,29.831 11.6389999999999,29.831 C10.941,29.831 10.373,29.28 10.373,28.597 C10.373,28.597 10.373,24.648 10.373,24.648 C9.88499999999999,24.306 9.42499999999995,23.939 9,23.518 C7.00900000000001,21.575 5.89599999999996,18.948 5.89599999999996,16.181 C5.89599999999996,13.423 7.00900000000001,10.805 9,8.84399999999999 C10.9949999999999,6.90100000000001 13.673,5.815 16.4960000000001,5.815 C19.3130000000001,5.815 21.9960000000001,6.90100000000001 23.9860000000001,8.84399999999999 C25.981,10.805 27.0909999999999,13.423 27.0909999999999,16.181 C27.0909999999999,18.948 25.981,21.575 23.9860000000001,23.518 C23.566,23.939 23.105,24.306 22.6179999999999,24.648 C22.6179999999999,24.648 22.6179999999999,24.648 22.6179999999999,24.648 ZM17.252,4.11600000000001 C17.252,4.518 16.912,4.852 16.4960000000001,4.852 C16.079,4.852 15.7349999999999,4.518 15.7349999999999,4.11600000000001 C15.7349999999999,4.11600000000001 15.7349999999999,1.75200000000001 15.7349999999999,1.75200000000001 C15.7349999999999,1.33199999999999 16.079,0.999 16.4960000000001,0.999 C16.912,0.999 17.252,1.33199999999999 17.252,1.75200000000001 C17.252,1.75200000000001 17.252,4.11600000000001 17.252,4.11600000000001 C17.252,4.11600000000001 17.252,4.11600000000001 17.252,4.11600000000001 ZM23.316,6.09399999999999 C23.105,6.44499999999999 22.645,6.56800000000001 22.2829999999999,6.36600000000001 C21.925,6.16399999999999 21.8,5.71000000000001 22.01,5.35900000000001 C22.01,5.35900000000001 23.2139999999999,3.31100000000001 23.2139999999999,3.31100000000001 C23.423,2.96000000000001 23.8889999999999,2.83699999999999 24.2460000000001,3.048 C24.604,3.249 24.729,3.69499999999999 24.5229999999999,4.04599999999999 C24.5229999999999,4.04599999999999 23.316,6.09399999999999 23.316,6.09399999999999 C23.316,6.09399999999999 23.316,6.09399999999999 23.316,6.09399999999999 ZM27.5509999999999,10.788 C27.193,10.98 26.7329999999999,10.866 26.527,10.516 C26.317,10.157 26.442,9.702 26.8,9.50999999999999 C26.8,9.50999999999999 28.893,8.31900000000002 28.893,8.31900000000002 C29.251,8.12599999999998 29.711,8.24900000000002 29.922,8.59899999999999 C30.127,8.94900000000001 30.0029999999999,9.40499999999997 29.644,9.60500000000002 C29.644,9.60500000000002 27.5509999999999,10.788 27.5509999999999,10.788 C27.5509999999999,10.788 27.5509999999999,10.788 27.5509999999999,10.788 ZM28.8299999999999,16.925 C28.414,16.925 28.0740000000001,16.583 28.0740000000001,16.181 C28.0740000000001,15.778 28.414,15.446 28.8299999999999,15.446 C28.8299999999999,15.446 31.241,15.446 31.241,15.446 C31.6610000000001,15.446 32.001,15.778 32.001,16.181 C32.001,16.583 31.6610000000001,16.925 31.241,16.925 C31.241,16.925 28.8299999999999,16.925 28.8299999999999,16.925 C28.8299999999999,16.925 28.8299999999999,16.925 28.8299999999999,16.925 ZM26.8,22.853 C26.442,22.66 26.317,22.205 26.527,21.854 C26.7329999999999,21.505 27.193,21.382 27.5509999999999,21.584 C27.5509999999999,21.584 29.644,22.765 29.644,22.765 C30.0029999999999,22.958 30.127,23.414 29.922,23.763 C29.711,24.114 29.251,24.245 28.893,24.044 C28.893,24.044 26.8,22.853 26.8,22.853 C26.8,22.853 26.8,22.853 26.8,22.853 ZM5.43499999999995,21.584 C5.798,21.382 6.25800000000004,21.505 6.46399999999994,21.854 C6.67000000000007,22.205 6.5440000000001,22.66 6.1869999999999,22.853 C6.1869999999999,22.853 4.09799999999996,24.044 4.09799999999996,24.044 C3.7360000000001,24.245 3.27500000000009,24.114 3.06899999999996,23.763 C2.86400000000003,23.414 2.98800000000006,22.958 3.34699999999998,22.765 C3.34699999999998,22.765 5.43499999999995,21.584 5.43499999999995,21.584 C5.43499999999995,21.584 5.43499999999995,21.584 5.43499999999995,21.584 ZM4.16100000000006,15.446 C4.577,15.446 4.91599999999994,15.778 4.91599999999994,16.181 C4.91599999999994,16.583 4.577,16.925 4.16100000000006,16.925 C4.16100000000006,16.925 1.74600000000009,16.925 1.74600000000009,16.925 C1.32999999999993,16.925 0.99000000000001,16.583 0.99000000000001,16.181 C0.99000000000001,15.778 1.32999999999993,15.446 1.74600000000009,15.446 C1.74600000000009,15.446 4.16100000000006,15.446 4.16100000000006,15.446 C4.16100000000006,15.446 4.16100000000006,15.446 4.16100000000006,15.446 ZM6.19200000000001,9.50999999999999 C6.54899999999998,9.70999999999998 6.67399999999998,10.157 6.46399999999994,10.525 C6.25800000000004,10.875 5.79299999999989,10.989 5.43000000000006,10.788 C5.43000000000006,10.788 3.3420000000001,9.60500000000002 3.3420000000001,9.60500000000002 C2.9849999999999,9.40499999999997 2.85899999999992,8.94900000000001 3.06899999999996,8.59899999999999 C3.27500000000009,8.24000000000001 3.74000000000001,8.12599999999998 4.10200000000009,8.31900000000002 C4.10200000000009,8.31900000000002 6.19200000000001,9.50999999999999 6.19200000000001,9.50999999999999 C6.19200000000001,9.50999999999999 6.19200000000001,9.50999999999999 6.19200000000001,9.50999999999999 ZM10.981,5.35900000000001 C11.1869999999999,5.71000000000001 11.0619999999999,6.16399999999999 10.6990000000001,6.36600000000001 C10.3420000000001,6.56800000000001 9.88100000000009,6.44499999999999 9.67499999999995,6.09399999999999 C9.67499999999995,6.09399999999999 8.46800000000007,4.04599999999999 8.46800000000007,4.04599999999999 C8.26199999999994,3.69499999999999 8.38699999999994,3.24100000000001 8.74499999999989,3.048 C9.10699999999997,2.83699999999999 9.56799999999998,2.96000000000001 9.77399999999989,3.31100000000001 C9.77399999999989,3.31100000000001 10.981,5.35900000000001 10.981,5.35900000000001 C10.981,5.35900000000001 10.981,5.35900000000001 10.981,5.35900000000001 ZM20.682,22.932 C20.682,22.932 20.7180000000001,22.905 20.7180000000001,22.905 C21.2539999999999,22.59 21.751,22.205 22.1980000000001,21.767 C23.7139999999999,20.279 24.5640000000001,18.282 24.5640000000001,16.181 C24.5640000000001,14.079 23.7139999999999,12.084 22.1980000000001,10.604 C20.682,9.11500000000001 18.6420000000001,8.28399999999999 16.4960000000001,8.28399999999999 C14.3489999999999,8.28399999999999 12.309,9.11500000000001 10.7929999999999,10.604 C9.27299999999991,12.084 8.42699999999991,14.079 8.42699999999991,16.181 C8.42699999999991,18.282 9.27299999999991,20.279 10.7929999999999,21.767 C11.24,22.205 11.732,22.59 12.2639999999999,22.905 C12.2639999999999,22.905 12.3140000000001,22.94 12.3140000000001,22.94 C13.575,23.684 15.0150000000001,24.079 16.4960000000001,24.079 C17.9760000000001,24.079 19.4110000000001,23.693 20.682,22.932 C20.682,22.932 20.682,22.932 20.682,22.932 ZM12.904,25.944 C12.904,25.944 12.904,27.353 12.904,27.353 C12.904,27.353 14.309,27.353 14.309,27.353 C15.0070000000001,27.353 15.5740000000001,27.913 15.5740000000001,28.597 C15.5740000000001,28.597 15.5740000000001,28.614 15.5740000000001,28.614 C15.5740000000001,28.841 15.6679999999999,29.069 15.838,29.245 C15.838,29.245 15.847,29.253 15.847,29.253 C16.0170000000001,29.429 16.25,29.507 16.4960000000001,29.507 C16.732,29.507 16.9690000000001,29.42 17.1479999999999,29.245 C17.1479999999999,29.245 17.1569999999999,29.245 17.1569999999999,29.245 C17.328,29.069 17.4159999999999,28.85 17.4159999999999,28.614 C17.4159999999999,28.614 17.4159999999999,28.597 17.4159999999999,28.597 C17.4159999999999,27.913 17.9849999999999,27.353 18.682,27.353 C18.682,27.353 20.086,27.353 20.086,27.353 C20.086,27.353 20.086,25.944 20.086,25.944 C18.933,26.355 17.721,26.548 16.4960000000001,26.548 C15.2660000000001,26.548 14.058,26.355 12.904,25.944 C12.904,25.944 12.904,25.944 12.904,25.944 Z "/>
</svg>
