<?xml version="1.0" encoding="utf-8"?>
<!DOCTYPE svg PUBLIC "-//W3C//DTD SVG 1.1//EN" "http://www.w3.org/Graphics/SVG/1.1/DTD/svg11.dtd">
<svg version="1.1" baseProfile="full"
 xmlns="http://www.w3.org/2000/svg"
 xmlns:xlink="http://www.w3.org/1999/xlink"
 xmlns:ev="http://www.w3.org/2001/xml-events" 
  height="26px" 
  width="20px" 
>
<path fill="rgb( 93, 193, 232 )"
 d="M10.598,1.25799999999998 C10.33,0.887 9.67100000000005,0.887 9.404,1.25799999999998 C9.06200000000001,1.73700000000002 0.99400000000003,13.026 0.99400000000003,17.5 C0.99400000000003,22.183 5.03599999999994,25.996 10.001,25.996 C14.967,25.996 19.009,22.183 19.009,17.5 C19.009,13.026 10.941,1.73599999999999 10.598,1.25799999999998 ZM10.001,24.638 C5.82899999999995,24.638 2.43499999999995,21.437 2.43499999999995,17.501 C2.43499999999995,14.396 7.44000000000005,6.553 10.001,2.86599999999999 C12.563,6.553 17.568,14.393 17.568,17.501 C17.568,21.437 14.173,24.638 10.001,24.638 ZM10.722,22.599 C10.722,22.975 10.397,23.279 10.001,23.279 C6.62300000000005,23.279 3.87599999999998,20.686 3.87599999999998,17.501 C3.87599999999998,17.125 4.20000000000005,16.821 4.59699999999998,16.821 C4.99300000000005,16.821 5.31700000000001,17.125 5.31700000000001,17.501 C5.31700000000001,19.937 7.41899999999998,21.919 10.001,21.919 C10.397,21.919 10.722,22.222 10.722,22.599 Z "/>
</svg>
