<?xml version="1.0" encoding="utf-8"?>
<!DOCTYPE svg PUBLIC "-//W3C//DTD SVG 1.1//EN" "http://www.w3.org/Graphics/SVG/1.1/DTD/svg11.dtd">
<svg version="1.1" baseProfile="full"
 xmlns="http://www.w3.org/2000/svg"
 xmlns:xlink="http://www.w3.org/1999/xlink"
 xmlns:ev="http://www.w3.org/2001/xml-events" 
  height="21px" 
  width="16px" 
>
<path fill="rgb( 237, 98, 71 )"
 d="M10.725,13.818 C10.725,13.818 5.274,13.818 5.274,13.818 C4.76900000000001,13.818 4.27700000000004,13.925 3.82399999999996,14.124 C2.404,14.743 1.46900000000005,16.212 1.46900000000005,17.832 C1.46900000000005,17.832 1.46900000000005,18.47 1.46900000000005,18.47 C1.46900000000005,18.47 14.532,18.47 14.532,18.47 C14.532,18.47 14.532,17.832 14.532,17.832 C14.532,16.491 13.89,15.232 12.8339999999999,14.492 C12.6319999999999,14.348 12.409,14.22 12.179,14.118 C11.951,14.02 11.715,13.947 11.474,13.895 C11.228,13.845 10.979,13.818 10.725,13.818 C10.725,13.818 10.725,13.818 10.725,13.818 ZM11.179,12.3 C11.179,12.3 11.179,12.3 11.179,12.3 C11.37,12.319 11.562,12.346 11.751,12.388 C12.085,12.456 12.414,12.562 12.7380000000001,12.701 C14.6849999999999,13.551 15.991,15.606 15.991,17.832 C15.991,17.832 15.991,19.237 15.991,19.237 C15.991,19.663 15.662,20.007 15.26,20.007 C15.26,20.007 15.242,20.007 15.242,20.007 C15.242,20.007 0.74199999999996,20.007 0.74199999999996,20.007 C0.33500000000004,20.007 0.01099999999997,19.663 0.01099999999997,19.237 C0.01099999999997,19.237 0.01099999999997,19.218 0.01099999999997,19.218 C0.01099999999997,19.218 0.01099999999997,17.832 0.01099999999997,17.832 C0.01099999999997,15.601 1.30100000000004,13.564 3.26400000000001,12.704 C3.75900000000001,12.488 4.28499999999997,12.352 4.82299999999998,12.303 C2.92499999999995,11.129 1.73599999999999,8.93700000000001 1.73599999999999,6.61000000000001 C1.73599999999999,2.971 4.58000000000004,0.006 8.00099999999998,0.006 C11.453,0.006 14.266,3.00399999999999 14.266,6.61000000000001 C14.266,8.93700000000001 13.087,11.121 11.179,12.3 C11.179,12.3 11.179,12.3 11.179,12.3 ZM8.00099999999998,1.54300000000001 C8.00099999999998,1.54300000000001 8.00099999999998,1.54300000000001 8.00099999999998,1.54300000000001 C6.07100000000003,1.54300000000001 4.29700000000003,2.78299999999999 3.55399999999997,4.667 C3.31799999999998,5.273 3.19100000000003,5.934 3.19100000000003,6.61000000000001 C3.19100000000003,8.63399999999999 4.35900000000004,10.496 6.13099999999997,11.282 C7.32000000000005,11.811 8.67999999999995,11.809 9.86800000000005,11.282 C11.648,10.493 12.808,8.63399999999999 12.808,6.61000000000001 C12.808,3.84200000000001 10.663,1.54300000000001 8.00099999999998,1.54300000000001 C8.00099999999998,1.54300000000001 8.00099999999998,1.54300000000001 8.00099999999998,1.54300000000001 Z "/>
</svg>
