<?xml version="1.0" encoding="utf-8"?>
<!DOCTYPE svg PUBLIC "-//W3C//DTD SVG 1.1//EN" "http://www.w3.org/Graphics/SVG/1.1/DTD/svg11.dtd">
<svg version="1.1" baseProfile="full"
 xmlns="http://www.w3.org/2000/svg"
 xmlns:xlink="http://www.w3.org/1999/xlink"
 xmlns:ev="http://www.w3.org/2001/xml-events" 
  height="26px" 
  width="26px" 
>
<path fill="rgb( 93, 193, 232 )"
 d="M12.505,0 C15.957,0 19.082,1.40600000000001 21.34,3.67000000000002 C21.34,3.67000000000002 21.347,3.67000000000002 21.347,3.67000000000002 C23.605,5.92899999999997 25.011,9.05900000000003 25.011,12.504 C25.011,15.963 23.605,19.086 21.347,21.352 C21.347,21.352 21.292,21.3920000000001 21.292,21.3920000000001 C19.027,23.63 15.93,25.008 12.505,25.008 C9.053,25.008 5.928,23.609 3.66300000000001,21.338 C3.66300000000001,21.338 3.66300000000001,21.352 3.66300000000001,21.352 C1.39800000000002,19.086 0.00599999999997,15.963 0.00599999999997,12.504 C0.00599999999997,9.05900000000003 1.39800000000002,5.92899999999997 3.66300000000001,3.67000000000002 C3.66300000000001,3.67000000000002 3.71699999999998,3.61599999999999 3.71699999999998,3.61599999999999 C5.976,1.37900000000002 9.08000000000004,0 12.505,0 C12.505,0 12.505,0 12.505,0 ZM10.799,2.06 C10.758,2.25900000000001 10.718,2.47000000000003 10.676,2.68799999999999 C10.4589999999999,3.916 10.1849999999999,5.36200000000002 9.49599999999998,6.04500000000002 C9.21600000000001,6.31700000000001 7.59299999999996,7.50400000000002 7.60000000000002,7.80399999999997 C7.60699999999997,7.88600000000002 7.96100000000001,7.88600000000002 9.33900000000006,7.88600000000002 C9.33900000000006,7.88600000000002 9.35299999999995,7.88600000000002 9.35299999999995,7.88600000000002 C10.062,7.88600000000002 10.943,8.13200000000001 11.7,8.55399999999997 C12.2670000000001,8.86900000000003 12.771,9.291 13.112,9.78199999999998 C13.474,10.335 13.644,10.9690000000001 13.474,11.665 C13.474,11.665 13.474,11.672 13.474,11.672 C13.474,11.672 13.474,11.672 13.474,11.672 C13.378,12.115 13.133,12.5650000000001 12.73,13.03 C11.345,14.585 11.365,14.748 11.468,15.526 C11.495,15.854 11.55,16.276 11.564,16.89 C11.564,17.211 11.577,17.532 11.577,17.845 C11.604,18.582 11.6180000000001,19.196 11.564,19.66 C11.564,19.66 11.564,19.687 11.564,19.687 C11.222,22.484 8.78700000000003,20.506 7.91999999999996,19.55 C6.99900000000002,18.521 6.11199999999997,17.177 5.846,16.535 C5.76400000000001,16.345 5.40899999999999,16.167 5.01999999999998,15.976 C4.11300000000006,15.519 3.07600000000002,15.008 3.02200000000005,13.405 C2.99400000000003,12.361 3.19899999999996,11.597 3.34900000000005,11.051 C3.41800000000001,10.792 3.66300000000001,10.71 3.56100000000004,10.683 C3.36199999999997,10.615 3.00800000000004,10.6900000000001 2.65300000000002,10.764 C2.44899999999996,10.806 2.25099999999998,10.847 2.04600000000005,10.874 C1.971,11.4059999999999 1.923,11.952 1.923,12.504 C1.923,15.43 3.11000000000001,18.077 5.01999999999998,19.987 C5.01999999999998,19.987 5.01999999999998,19.987 5.01999999999998,19.987 C5.01999999999998,19.987 5.01999999999998,19.987 5.01999999999998,19.987 C6.13900000000001,21.106 7.51099999999997,21.979 9.04600000000005,22.511 C9.94600000000003,22.347 10.874,21.918 11.734,21.754 C13.665,21.3920000000001 15.561,21.037 17.663,21.747 C18.496,21.283 19.266,20.703 19.942,20.028 C19.942,20.028 19.982,19.987 19.982,19.987 C20.515,19.462 20.986,18.875 21.395,18.241 C20.965,18.602 20.569,18.8680000000001 20.215,19.032 C19.696,19.264 19.232,19.298 18.898,19.114 C18.898,19.114 18.891,19.114 18.891,19.114 C18.891,19.114 18.891,19.114 18.891,19.114 C18.809,19.066 18.727,19.005 18.659,18.937 C18.659,18.937 18.6319999999999,18.896 18.6319999999999,18.896 C17.759,17.886 18.1950000000001,16.549 18.652,15.1849999999999 C19.1369999999999,13.725 19.628,12.224 17.799,11.665 C17.492,11.5700000000001 17.199,11.454 16.933,11.311 C16.203,10.922 15.63,10.362 15.275,9.79599999999999 C14.388,8.33600000000001 14.981,7.50400000000002 15.943,6.45299999999997 C16.101,6.27600000000001 16.251,6.11200000000002 16.353,5.98899999999998 C15.603,6.03100000000001 14.6130000000001,6.07799999999997 14.1420000000001,4.81700000000001 C14.1420000000001,4.81700000000001 14.1420000000001,4.81700000000001 14.1420000000001,4.81700000000001 C14.1420000000001,4.81700000000001 14.1420000000001,4.81700000000001 14.1420000000001,4.81700000000001 C14.074,4.63200000000001 14.033,4.435 14.006,4.23000000000002 C14.006,4.23000000000002 13.999,4.19600000000003 13.999,4.19600000000003 C13.883,3.15199999999999 13.296,2.69499999999999 12.58,1.92399999999998 C12.58,1.92399999999998 12.505,1.92399999999998 12.505,1.92399999999998 C11.919,1.92399999999998 11.352,1.97199999999998 10.799,2.06 C10.799,2.06 10.799,2.06 10.799,2.06 ZM2.31200000000001,9.65899999999999 C2.31200000000001,9.65899999999999 2.41399999999999,9.63900000000001 2.41399999999999,9.63900000000001 C2.92600000000004,9.53699999999998 3.43100000000004,9.42099999999999 3.92200000000003,9.59199999999998 C4.85000000000002,9.89100000000002 4.70699999999999,10.424 4.45399999999995,11.351 C4.33100000000002,11.842 4.14700000000005,12.504 4.17499999999995,13.371 C4.202,14.284 4.904,14.626 5.53200000000004,14.939 C6.11900000000003,15.2329999999999 6.66499999999996,15.499 6.91099999999994,16.099 C7.14300000000003,16.644 7.93399999999997,17.845 8.77999999999997,18.787 C8.99800000000005,19.032 10.288,20.615 10.417,19.544 C10.472,18.991 10.444,18.432 10.431,17.872 C10.424,17.579 10.41,17.258 10.41,16.904 C10.404,16.385 10.356,15.9829999999999 10.3150000000001,15.662 C10.172,14.462 10.144,14.216 11.8630000000001,12.265 C12.1369999999999,11.952 12.294,11.665 12.355,11.4059999999999 C12.355,11.4059999999999 12.355,11.4059999999999 12.355,11.4059999999999 C12.437,11.051 12.348,10.724 12.157,10.424 C11.932,10.083 11.557,9.78899999999999 11.14,9.55700000000002 C10.554,9.23700000000002 9.87900000000002,9.04500000000002 9.35299999999995,9.04500000000002 C9.35299999999995,9.04500000000002 9.33900000000006,9.04500000000002 9.33900000000006,9.04500000000002 C7.08799999999997,9.04500000000002 6.48699999999997,9.04500000000002 6.44600000000003,7.83800000000002 C6.41899999999998,6.74700000000001 7.97500000000002,5.92899999999997 8.69799999999998,5.226 C9.12800000000004,4.803 9.35299999999995,3.54700000000003 9.54399999999998,2.48399999999998 C9.54399999999998,2.48399999999998 9.57100000000003,2.33300000000003 9.57100000000003,2.33300000000003 C7.85199999999998,2.83100000000002 6.303,3.75200000000001 5.06799999999998,4.98000000000002 C5.06799999999998,4.98000000000002 5.01999999999998,5.02800000000002 5.01999999999998,5.02800000000002 C3.75199999999995,6.29000000000002 2.803,7.88600000000002 2.31200000000001,9.65899999999999 C2.31200000000001,9.65899999999999 2.31200000000001,9.65899999999999 2.31200000000001,9.65899999999999 ZM15.876,22.539 C14.559,22.402 13.256,22.64 11.946,22.886 C11.754,22.921 11.564,22.968 11.359,23.03 C11.741,23.071 12.123,23.0839999999999 12.505,23.0839999999999 C13.686,23.0839999999999 14.825,22.893 15.876,22.539 C15.876,22.539 15.876,22.539 15.876,22.539 ZM22.712,14.748 C22.759,14.6660000000001 22.821,14.605 22.889,14.557 C23.011,13.889 23.087,13.206 23.087,12.504 C23.087,9.58499999999998 21.9,6.94499999999999 19.982,5.02800000000002 C19.982,5.02800000000002 19.982,5.02100000000002 19.982,5.02100000000002 C19.982,5.02100000000002 19.982,5.02100000000002 19.982,5.02100000000002 C18.454,3.493 16.462,2.42899999999997 14.224,2.06 C14.6950000000001,2.654 15.063,3.26100000000002 15.146,4.07999999999998 C15.146,4.07999999999998 15.152,4.09399999999999 15.152,4.09399999999999 C15.1660000000001,4.20999999999998 15.186,4.32600000000002 15.227,4.42099999999999 C15.227,4.42099999999999 15.22,4.42099999999999 15.22,4.42099999999999 C15.398,4.88400000000001 15.909,4.85700000000003 16.298,4.84399999999999 C16.926,4.803 17.431,4.78199999999998 17.622,5.45800000000003 C17.799,6.11200000000002 17.335,6.63799999999998 16.797,7.22399999999999 C16.148,7.92700000000002 15.698,8.26799999999997 16.2569999999999,9.18200000000002 C16.5170000000001,9.59800000000001 16.933,10.0069999999999 17.478,10.301 C17.677,10.41 17.895,10.492 18.127,10.567 C21.088,11.467 20.4059999999999,13.5410000000001 19.75,15.539 C19.409,16.563 19.082,17.566 19.4640000000001,18.097 C19.4640000000001,18.097 19.737,17.981 19.737,17.981 C20.037,17.845 20.399,17.593 20.795,17.231 C21.442,16.658 22.1319999999999,15.8200000000001 22.712,14.748 C22.712,14.748 22.712,14.748 22.712,14.748 ZM16.4349999999999,5.89400000000001 C16.489,5.82600000000002 16.5170000000001,5.78500000000003 16.5170000000001,5.76400000000001 C16.476,5.62099999999998 16.476,5.77800000000002 16.4349999999999,5.89400000000001 C16.4349999999999,5.89400000000001 16.4349999999999,5.89400000000001 16.4349999999999,5.89400000000001 Z "/>
</svg>
