<?xml version="1.0" encoding="utf-8"?>
<!DOCTYPE svg PUBLIC "-//W3C//DTD SVG 1.1//EN" "http://www.w3.org/Graphics/SVG/1.1/DTD/svg11.dtd">
<svg version="1.1" baseProfile="full"
 xmlns="http://www.w3.org/2000/svg"
 xmlns:xlink="http://www.w3.org/1999/xlink"
 xmlns:ev="http://www.w3.org/2001/xml-events" 
  height="24px" 
  width="26px" 
>
<path fill="rgb( 93, 193, 232 )"
 d="M5.98099999999999,21.988 C5.98099999999999,21.988 5.98099999999999,17.994 5.98099999999999,17.994 C5.98099999999999,17.994 19.9380000000001,17.994 19.9380000000001,17.994 C19.9380000000001,17.994 19.9380000000001,21.988 19.9380000000001,21.988 C19.9380000000001,21.988 5.98099999999999,21.988 5.98099999999999,21.988 ZM5.98099999999999,12.002 C5.98099999999999,12.002 5.98099999999999,2.01599999999999 5.98099999999999,2.01599999999999 C5.98099999999999,2.01599999999999 15.95,2.01599999999999 15.95,2.01599999999999 C15.95,2.01599999999999 15.95,4.51300000000001 15.95,4.51300000000001 C15.95,5.339 16.6199999999999,6.011 17.4459999999999,6.011 C17.4459999999999,6.011 19.9380000000001,6.011 19.9380000000001,6.011 C19.9380000000001,6.011 19.9380000000001,12.002 19.9380000000001,12.002 C19.9380000000001,12.002 5.98099999999999,12.002 5.98099999999999,12.002 ZM23.9259999999999,13.001 C23.9259999999999,13.547 23.4739999999999,13.999 22.9290000000001,13.999 C22.383,13.999 21.932,13.547 21.932,13.001 C21.932,12.455 22.383,12.002 22.9290000000001,12.002 C23.4739999999999,12.002 23.9259999999999,12.455 23.9259999999999,13.001 ZM25.9190000000001,13.001 C25.9190000000001,11.362 24.5640000000001,10.005 22.9290000000001,10.005 C22.9290000000001,10.005 21.932,10.005 21.932,10.005 C21.932,10.005 21.932,6.011 21.932,6.011 C21.932,5.18299999999999 21.4649999999999,4.04499999999999 20.873,3.45099999999999 C20.873,3.45099999999999 18.5050000000001,1.08000000000001 18.5050000000001,1.08000000000001 C17.913,0.48699999999999 16.7760000000001,0.01900000000001 15.95,0.01900000000001 C15.95,0.01900000000001 5.48299999999995,0.01900000000001 5.48299999999995,0.01900000000001 C4.65699999999993,0.01900000000001 3.98700000000008,0.69 3.98700000000008,1.517 C3.98700000000008,1.517 3.98700000000008,10.005 3.98700000000008,10.005 C3.98700000000008,10.005 2.99000000000001,10.005 2.99000000000001,10.005 C1.35500000000002,10.005 0,11.362 0,13.001 C0,13.001 0,19.492 0,19.492 C0,19.757 0.23299999999995,19.991 0.49800000000005,19.991 C0.49800000000005,19.991 3.98700000000008,19.991 3.98700000000008,19.991 C3.98700000000008,19.991 3.98700000000008,22.488 3.98700000000008,22.488 C3.98700000000008,23.315 4.65699999999993,23.986 5.48299999999995,23.986 C5.48299999999995,23.986 20.4359999999999,23.986 20.4359999999999,23.986 C21.2619999999999,23.986 21.932,23.315 21.932,22.488 C21.932,22.488 21.932,19.991 21.932,19.991 C21.932,19.991 25.421,19.991 25.421,19.991 C25.6859999999999,19.991 25.9190000000001,19.757 25.9190000000001,19.492 C25.9190000000001,19.492 25.9190000000001,13.001 25.9190000000001,13.001 Z "/>
</svg>
