<?xml version="1.0" encoding="utf-8"?>
<!DOCTYPE svg PUBLIC "-//W3C//DTD SVG 1.1//EN" "http://www.w3.org/Graphics/SVG/1.1/DTD/svg11.dtd">
<svg version="1.1" baseProfile="full"
 xmlns="http://www.w3.org/2000/svg"
 xmlns:xlink="http://www.w3.org/1999/xlink"
 xmlns:ev="http://www.w3.org/2001/xml-events" 
  height="26px" 
  width="27px" 
>
<path fill="rgb( 93, 193, 232 )"
 d="M9.60400000000004,23.028 C9.60400000000004,23.028 9.60400000000004,22.026 9.60400000000004,22.026 C9.60400000000004,22.026 5.5630000000001,22.026 5.5630000000001,22.026 C5.2349999999999,22.026 4.97600000000011,21.757 4.97600000000011,21.433 C4.97600000000011,21.094 5.2349999999999,20.833 5.5630000000001,20.833 C5.5630000000001,20.833 9.60400000000004,20.833 9.60400000000004,20.833 C9.60400000000004,20.833 9.60400000000004,19.64 9.60400000000004,19.64 C9.60400000000004,19.64 5.5630000000001,19.64 5.5630000000001,19.64 C5.2349999999999,19.64 4.97600000000011,19.372 4.97600000000011,19.047 C4.97600000000011,18.708 5.2349999999999,18.447 5.5630000000001,18.447 C5.5630000000001,18.447 9.60400000000004,18.447 9.60400000000004,18.447 C9.60400000000004,18.447 9.60400000000004,17.254 9.60400000000004,17.254 C9.60400000000004,17.254 5.5630000000001,17.254 5.5630000000001,17.254 C5.2349999999999,17.254 4.97600000000011,16.986 4.97600000000011,16.661 C4.97600000000011,16.322 5.2349999999999,16.054 5.5630000000001,16.054 C5.5630000000001,16.054 9.60400000000004,16.054 9.60400000000004,16.054 C9.60400000000004,16.054 9.60400000000004,14.869 9.60400000000004,14.869 C9.60400000000004,14.869 5.5630000000001,14.869 5.5630000000001,14.869 C5.2349999999999,14.869 4.97600000000011,14.601 4.97600000000011,14.276 C4.97600000000011,13.937 5.2349999999999,13.676 5.5630000000001,13.676 C10.8330000000001,13.676 16.1099999999999,13.676 21.386,13.676 C21.7070000000001,13.676 21.9659999999999,13.937 21.9659999999999,14.276 C21.9659999999999,14.601 21.7070000000001,14.869 21.386,14.869 C21.386,14.869 17.345,14.869 17.345,14.869 C17.345,14.869 17.345,16.054 17.345,16.054 C17.345,16.054 21.386,16.054 21.386,16.054 C21.7070000000001,16.054 21.9659999999999,16.322 21.9659999999999,16.661 C21.9659999999999,16.986 21.7070000000001,17.254 21.386,17.254 C21.386,17.254 17.345,17.254 17.345,17.254 C17.345,17.254 17.345,18.447 17.345,18.447 C17.345,18.447 21.386,18.447 21.386,18.447 C21.7070000000001,18.447 21.9659999999999,18.708 21.9659999999999,19.047 C21.9659999999999,19.372 21.7070000000001,19.64 21.386,19.64 C21.386,19.64 17.345,19.64 17.345,19.64 C17.345,19.64 17.345,20.833 17.345,20.833 C17.345,20.833 21.386,20.833 21.386,20.833 C21.7070000000001,20.833 21.9659999999999,21.094 21.9659999999999,21.433 C21.9659999999999,21.757 21.7070000000001,22.026 21.386,22.026 C21.386,22.026 17.345,22.026 17.345,22.026 C17.345,22.026 17.345,23.028 17.345,23.028 C17.345,23.028 22.704,23.028 22.704,23.028 C23.229,23.028 23.6659999999999,23.48 23.6659999999999,24.03 C23.6659999999999,24.58 23.229,25.019 22.704,25.019 C22.704,25.019 4.24600000000009,25.019 4.24600000000009,25.019 C3.71299999999997,25.019 3.2829999999999,24.58 3.2829999999999,24.03 C3.2829999999999,23.48 3.71299999999997,23.028 4.24600000000009,23.028 C4.24600000000009,23.028 9.60400000000004,23.028 9.60400000000004,23.028 C9.60400000000004,23.028 9.60400000000004,23.028 9.60400000000004,23.028 ZM7.39200000000005,12.483 C7.39200000000005,12.483 7.39200000000005,12.483 7.39200000000005,12.483 C7.07899999999995,12.483 6.81899999999996,12.215 6.81899999999996,11.883 C6.81899999999996,11.551 7.07899999999995,11.283 7.39200000000005,11.283 C7.39200000000005,11.283 19.557,11.283 19.557,11.283 C19.8710000000001,11.283 20.1310000000001,11.551 20.1310000000001,11.883 C20.1310000000001,12.215 19.8710000000001,12.483 19.557,12.483 C19.557,12.483 7.39200000000005,12.483 7.39200000000005,12.483 C7.39200000000005,12.483 7.39200000000005,12.483 7.39200000000005,12.483 ZM9.70000000000005,10.097 C9.70000000000005,10.097 9.70000000000005,10.097 9.70000000000005,10.097 C9.38499999999999,10.097 9.12599999999998,9.82900000000001 9.12599999999998,9.49700000000001 C9.12599999999998,9.166 9.38499999999999,8.89699999999999 9.70000000000005,8.89699999999999 C9.70000000000005,8.89699999999999 17.249,8.89699999999999 17.249,8.89699999999999 C17.5640000000001,8.89699999999999 17.8230000000001,9.166 17.8230000000001,9.49700000000001 C17.8230000000001,9.82900000000001 17.5640000000001,10.097 17.249,10.097 C17.249,10.097 9.70000000000005,10.097 9.70000000000005,10.097 C9.70000000000005,10.097 9.70000000000005,10.097 9.70000000000005,10.097 ZM12.0070000000001,7.71199999999999 C12.0070000000001,7.71199999999999 12.0070000000001,7.71199999999999 12.0070000000001,7.71199999999999 C11.693,7.71199999999999 11.434,7.44299999999998 11.434,7.11200000000002 C11.434,6.77999999999997 11.693,6.512 12.0070000000001,6.512 C12.0070000000001,6.512 14.9359999999999,6.512 14.9359999999999,6.512 C15.2560000000001,6.512 15.5160000000001,6.77999999999997 15.5160000000001,7.11200000000002 C15.5160000000001,7.44299999999998 15.2560000000001,7.71199999999999 14.9359999999999,7.71199999999999 C14.9359999999999,7.71199999999999 12.0070000000001,7.71199999999999 12.0070000000001,7.71199999999999 C12.0070000000001,7.71199999999999 12.0070000000001,7.71199999999999 12.0070000000001,7.71199999999999 ZM10.758,23.028 C10.758,23.028 10.758,23.028 10.758,23.028 C10.758,23.028 16.1990000000001,23.028 16.1990000000001,23.028 C16.1990000000001,20.31 16.1990000000001,17.593 16.1990000000001,14.869 C16.1990000000001,14.869 10.758,14.869 10.758,14.869 C10.758,14.869 10.758,23.028 10.758,23.028 C10.758,23.028 10.758,23.028 10.758,23.028 ZM2.61400000000003,14.601 C2.61400000000003,14.601 2.61400000000003,14.601 2.61400000000003,14.601 C2.61400000000003,14.601 13.4680000000001,3.37799999999999 13.4680000000001,3.37799999999999 C13.4680000000001,3.37799999999999 24.335,14.601 24.335,14.601 C24.704,14.995 25.318,14.995 25.694,14.601 C26.069,14.219 26.069,13.584 25.694,13.203 C25.694,13.203 14.171,1.28199999999998 14.171,1.28199999999998 C14.171,1.28199999999998 14.1510000000001,1.26100000000002 14.1510000000001,1.26100000000002 C13.7750000000001,0.87900000000002 13.1679999999999,0.87900000000002 12.7919999999999,1.26100000000002 C12.7919999999999,1.26100000000002 1.25600000000009,13.203 1.25600000000009,13.203 C0.88000000000011,13.584 0.88000000000011,14.219 1.25600000000009,14.601 C1.63100000000009,14.995 2.23900000000003,14.995 2.61400000000003,14.601 C2.61400000000003,14.601 2.61400000000003,14.601 2.61400000000003,14.601 Z "/>
</svg>
