<?xml version="1.0" encoding="utf-8"?>
<!DOCTYPE svg PUBLIC "-//W3C//DTD SVG 1.1//EN" "http://www.w3.org/Graphics/SVG/1.1/DTD/svg11.dtd">
<svg version="1.1" baseProfile="full"
 xmlns="http://www.w3.org/2000/svg"
 xmlns:xlink="http://www.w3.org/1999/xlink"
 xmlns:ev="http://www.w3.org/2001/xml-events" 
  height="28px" 
  width="23px" 
>
<path fill="rgb( 52, 177, 226 )"
 d="M16.93,19.71 C16.93,19.71 6.12400000000002,19.71 6.12400000000002,19.71 C5.82100000000003,19.71 5.57100000000003,19.98 5.57100000000003,20.314 C5.57100000000003,20.644 5.82100000000003,20.911 6.12400000000002,20.911 C6.12400000000002,20.911 16.93,20.911 16.93,20.911 C17.2329999999999,20.911 17.491,20.644 17.491,20.314 C17.491,19.98 17.2329999999999,19.71 16.93,19.71 C16.93,19.71 16.93,19.71 16.93,19.71 ZM5.57100000000003,11.854 C5.57100000000003,11.854 5.57100000000003,11.854 5.57100000000003,11.854 C5.57100000000003,12.188 5.82100000000003,12.458 6.12400000000002,12.458 C6.12400000000002,12.458 16.93,12.458 16.93,12.458 C17.2329999999999,12.458 17.491,12.188 17.491,11.854 C17.491,11.524 17.2329999999999,11.254 16.93,11.254 C16.93,11.254 6.12400000000002,11.254 6.12400000000002,11.254 C5.82100000000003,11.254 5.57100000000003,11.524 5.57100000000003,11.854 C5.57100000000003,11.854 5.57100000000003,11.854 5.57100000000003,11.854 ZM21.829,8.52499999999998 C21.829,8.52499999999998 21.829,8.52499999999998 21.829,8.52499999999998 C21.829,8.52499999999998 15.104,1.28800000000001 15.104,1.28800000000001 C14.933,1.10399999999999 14.7089999999999,0.993 14.4450000000001,0.993 C14.4450000000001,0.993 3.44799999999998,0.993 3.44799999999998,0.993 C2.76199999999994,0.993 2.13599999999997,1.29500000000002 1.68799999999999,1.78199999999998 C1.23199999999997,2.26499999999999 0.95600000000002,2.93700000000001 0.95600000000002,3.67200000000003 C0.95600000000002,3.67200000000003 0.95600000000002,24.343 0.95600000000002,24.343 C0.95600000000002,25.078 1.23199999999997,25.754 1.68799999999999,26.237 C1.68799999999999,26.237 1.69399999999996,26.237 1.69399999999996,26.237 C2.14300000000003,26.72 2.76199999999994,27.026 3.44799999999998,27.026 C3.44799999999998,27.026 19.607,27.026 19.607,27.026 C20.273,27.026 20.893,26.73 21.341,26.258 C21.341,26.258 21.361,26.237 21.361,26.237 C21.361,26.237 21.367,26.23 21.367,26.23 C21.816,25.746 22.092,25.075 22.092,24.343 C22.092,24.343 22.092,9.23599999999999 22.092,9.23599999999999 C22.092,8.98000000000002 22.001,8.72399999999999 21.829,8.52499999999998 C21.829,8.52499999999998 21.829,8.52499999999998 21.829,8.52499999999998 ZM14.999,4.00999999999999 C14.999,4.00999999999999 14.999,4.00999999999999 14.999,4.00999999999999 C14.999,4.00999999999999 19.297,8.63200000000001 19.297,8.63200000000001 C19.297,8.63200000000001 16.001,8.63200000000001 16.001,8.63200000000001 C15.731,8.63200000000001 15.48,8.51100000000002 15.302,8.31599999999997 C15.302,8.31599999999997 15.276,8.291 15.276,8.291 C15.104,8.09899999999999 14.999,7.839 14.999,7.55599999999998 C14.999,7.55599999999998 14.999,4.00999999999999 14.999,4.00999999999999 C14.999,4.00999999999999 14.999,4.00999999999999 14.999,4.00999999999999 ZM20.234,24.343 C20.234,24.343 20.234,24.343 20.234,24.343 C20.234,24.528 20.168,24.698 20.056,24.819 C20.056,24.819 20.049,24.822 20.049,24.822 C19.943,24.943 19.785,25.022 19.607,25.022 C19.607,25.022 3.44799999999998,25.022 3.44799999999998,25.022 C3.27599999999995,25.022 3.11800000000005,24.94 2.99900000000002,24.822 C2.99900000000002,24.822 2.99900000000002,24.819 2.99900000000002,24.819 C2.88699999999994,24.698 2.81500000000005,24.528 2.81500000000005,24.343 C2.81500000000005,24.343 2.81500000000005,3.67200000000003 2.81500000000005,3.67200000000003 C2.81500000000005,3.49099999999999 2.88699999999994,3.31999999999999 2.99900000000002,3.19600000000003 C3.11800000000005,3.072 3.27599999999995,2.99700000000001 3.44799999999998,2.99700000000001 C3.44799999999998,2.99700000000001 13.891,2.99700000000001 13.891,2.99700000000001 C13.891,2.99700000000001 13.891,7.55599999999998 13.891,7.55599999999998 C13.891,8.16699999999997 14.115,8.72000000000003 14.478,9.13299999999998 C14.478,9.13299999999998 14.511,9.16899999999998 14.511,9.16899999999998 C14.893,9.577 15.421,9.83699999999999 16.001,9.83699999999999 C16.001,9.83699999999999 20.234,9.83699999999999 20.234,9.83699999999999 C20.234,9.83699999999999 20.234,24.343 20.234,24.343 C20.234,24.343 20.234,24.343 20.234,24.343 ZM16.93,15.485 C16.93,15.485 16.93,15.485 16.93,15.485 C16.93,15.485 6.12400000000002,15.485 6.12400000000002,15.485 C5.82100000000003,15.485 5.57100000000003,15.752 5.57100000000003,16.083 C5.57100000000003,16.417 5.82100000000003,16.687 6.12400000000002,16.687 C6.12400000000002,16.687 16.93,16.687 16.93,16.687 C17.2329999999999,16.687 17.491,16.417 17.491,16.083 C17.491,15.752 17.2329999999999,15.485 16.93,15.485 C16.93,15.485 16.93,15.485 16.93,15.485 Z "/>
</svg>
