<?xml version="1.0" encoding="utf-8"?>
<!DOCTYPE svg PUBLIC "-//W3C//DTD SVG 1.1//EN" "http://www.w3.org/Graphics/SVG/1.1/DTD/svg11.dtd">
<svg version="1.1" baseProfile="full"
 xmlns="http://www.w3.org/2000/svg"
 xmlns:xlink="http://www.w3.org/1999/xlink"
 xmlns:ev="http://www.w3.org/2001/xml-events" 
  height="25px" 
  width="25px" 
>
<path fill="rgb( 97, 194, 232 )"
 d="M22.2349999999999,21.733 C22.2349999999999,22.341 22.019,22.901 21.662,23.308 C21.277,23.739 20.75,24.005 20.1559999999999,24.005 C19.576,24.005 19.0429999999999,23.739 18.6579999999999,23.308 C18.3,22.901 18.077,22.341 18.077,21.733 C18.077,21.733 18.0840000000001,21.661 18.0840000000001,21.661 C18.0840000000001,21.661 18.5229999999999,14.74 18.5229999999999,14.74 C18.5229999999999,14.74 18.5229999999999,14.691 18.5229999999999,14.691 C18.5229999999999,14.691 18.5229999999999,14.671 18.5229999999999,14.671 C18.5229999999999,14.671 18.5229999999999,14.671 18.5229999999999,14.671 C18.5229999999999,14.204 18.6990000000001,13.77 18.9680000000001,13.454 C19.049,13.375 19.124,13.299 19.212,13.237 C19.212,13.237 19.212,9.678 19.212,9.678 C18.509,9.47399999999999 17.895,9.053 17.4159999999999,8.48700000000002 C16.742,7.69400000000002 16.3230000000001,6.61200000000002 16.3230000000001,5.41500000000002 C16.3230000000001,4.22399999999999 16.742,3.13600000000002 17.4159999999999,2.346 C18.104,1.52699999999999 19.0830000000001,1.02100000000002 20.1559999999999,1.02100000000002 C21.2360000000001,1.02100000000002 22.2080000000001,1.52699999999999 22.9100000000001,2.346 C22.9100000000001,2.346 22.9369999999999,2.38299999999998 22.9369999999999,2.38299999999998 C23.598,3.17200000000003 24.0029999999999,4.24400000000003 24.0029999999999,5.41500000000002 C24.0029999999999,6.60599999999999 23.585,7.69400000000002 22.9100000000001,8.48399999999998 C22.9100000000001,8.48399999999998 22.9100000000001,8.48700000000002 22.9100000000001,8.48700000000002 C22.424,9.053 21.8030000000001,9.47399999999999 21.1079999999999,9.67500000000001 C21.1079999999999,9.67500000000001 21.1079999999999,13.237 21.1079999999999,13.237 C21.1959999999999,13.299 21.277,13.375 21.3440000000001,13.454 C21.6279999999999,13.77 21.789,14.204 21.789,14.671 C21.789,14.671 21.789,14.73 21.789,14.73 C21.789,14.73 22.2349999999999,21.7 22.2349999999999,21.7 C22.2349999999999,21.7 22.2349999999999,21.733 22.2349999999999,21.733 C22.2349999999999,21.733 22.2349999999999,21.733 22.2349999999999,21.733 C22.2349999999999,21.733 22.2349999999999,21.733 22.2349999999999,21.733 ZM11.855,9.00700000000001 C11.855,9.00700000000001 11.855,13.237 11.855,13.237 C11.942,13.299 12.0170000000001,13.375 12.0909999999999,13.454 C12.367,13.77 12.5429999999999,14.204 12.5429999999999,14.671 C12.5429999999999,14.671 12.537,14.727 12.537,14.727 C12.537,14.727 12.982,21.7 12.982,21.7 C12.982,21.7 12.989,21.733 12.989,21.733 C12.989,21.733 12.989,21.733 12.989,21.733 C12.989,22.341 12.7660000000001,22.901 12.4079999999999,23.308 C12.03,23.739 11.49,24.005 10.9100000000001,24.005 C10.316,24.005 9.7829999999999,23.739 9.41200000000003,23.308 C9.04700000000003,22.901 8.82400000000007,22.341 8.82400000000007,21.733 C8.82400000000007,21.733 8.8309999999999,21.661 8.8309999999999,21.661 C8.8309999999999,21.661 9.27700000000004,14.737 9.27700000000004,14.737 C9.27700000000004,14.737 9.27700000000004,14.684 9.27700000000004,14.684 C9.27700000000004,14.684 9.27700000000004,14.671 9.27700000000004,14.671 C9.27700000000004,14.671 9.27700000000004,14.671 9.27700000000004,14.671 C9.27700000000004,14.204 9.44599999999991,13.77 9.72199999999998,13.454 C9.78999999999996,13.375 9.87100000000009,13.299 9.95100000000002,13.237 C9.95100000000002,13.237 9.95100000000002,9.00700000000001 9.95100000000002,9.00700000000001 C9.95100000000002,9.00700000000001 9.59400000000005,9.00700000000001 9.59400000000005,9.00700000000001 C9.15499999999997,9.00700000000001 8.75,8.82900000000001 8.46000000000004,8.54599999999999 C8.17000000000007,8.26299999999998 7.98800000000006,7.86900000000003 7.98800000000006,7.43799999999999 C7.98800000000006,7.43799999999999 7.98800000000006,2.36599999999999 7.98800000000006,2.36599999999999 C7.98800000000006,2.06 8.23700000000008,1.81 8.56099999999992,1.81 C8.87200000000007,1.81 9.12799999999993,2.06 9.12799999999993,2.36599999999999 C9.12799999999993,2.36599999999999 9.12799999999993,7.43799999999999 9.12799999999993,7.43799999999999 C9.12799999999993,7.56299999999999 9.18200000000002,7.678 9.26299999999992,7.75700000000001 C9.33799999999997,7.83199999999999 9.43900000000008,7.88200000000001 9.55300000000011,7.892 C9.55300000000011,7.892 9.55300000000011,2.36599999999999 9.55300000000011,2.36599999999999 C9.55300000000011,2.06 9.80300000000011,1.81 10.127,1.81 C10.4369999999999,1.81 10.694,2.06 10.694,2.36599999999999 C10.694,2.36599999999999 10.694,7.89499999999998 10.694,7.89499999999998 C10.694,7.89499999999998 10.883,7.89499999999998 10.883,7.89499999999998 C10.883,7.89499999999998 10.9100000000001,7.89499999999998 10.9100000000001,7.89499999999998 C10.9100000000001,7.89499999999998 10.9369999999999,7.89499999999998 10.9369999999999,7.89499999999998 C10.9369999999999,7.89499999999998 11.1189999999999,7.89499999999998 11.1189999999999,7.89499999999998 C11.1189999999999,7.89499999999998 11.1189999999999,2.36599999999999 11.1189999999999,2.36599999999999 C11.1189999999999,2.06 11.376,1.81 11.693,1.81 C12.0029999999999,1.81 12.26,2.06 12.26,2.36599999999999 C12.26,2.36599999999999 12.26,7.892 12.26,7.892 C12.367,7.88200000000001 12.4760000000001,7.83199999999999 12.55,7.76400000000001 C12.55,7.76400000000001 12.55,7.75700000000001 12.55,7.75700000000001 C12.6310000000001,7.678 12.692,7.56299999999999 12.692,7.43799999999999 C12.692,7.43799999999999 12.692,2.36599999999999 12.692,2.36599999999999 C12.692,2.06 12.941,1.81 13.258,1.81 C13.569,1.81 13.826,2.06 13.826,2.36599999999999 C13.826,2.36599999999999 13.826,7.43799999999999 13.826,7.43799999999999 C13.826,7.86500000000001 13.6500000000001,8.25999999999999 13.3530000000001,8.54300000000001 C13.3530000000001,8.54300000000001 13.3530000000001,8.54599999999999 13.3530000000001,8.54599999999999 C13.057,8.82900000000001 12.652,9.00700000000001 12.22,9.00700000000001 C12.22,9.00700000000001 11.855,9.00700000000001 11.855,9.00700000000001 C11.855,9.00700000000001 11.855,9.00700000000001 11.855,9.00700000000001 ZM4.43100000000004,13.565 C4.62599999999998,13.829 4.74099999999999,14.151 4.74099999999999,14.5 C4.74099999999999,14.5 4.74099999999999,22.407 4.74099999999999,22.407 C4.74099999999999,22.845 4.55899999999997,23.242 4.26199999999994,23.532 C4.26199999999994,23.532 4.25500000000011,23.539 4.25500000000011,23.539 C4.25500000000011,23.539 4.24199999999996,23.551 4.24199999999996,23.551 C3.94499999999994,23.834 3.53999999999996,24.005 3.10100000000011,24.005 C3.10100000000011,24.005 1.66399999999999,24.005 1.66399999999999,24.005 C1.21199999999999,24.005 0.79999999999995,23.828 0.50199999999995,23.539 C0.50199999999995,23.539 0.50199999999995,23.532 0.50199999999995,23.532 C0.50199999999995,23.532 0.48900000000003,23.519 0.48900000000003,23.519 C0.19200000000001,23.229 0.01700000000005,22.838 0.01700000000005,22.407 C0.01700000000005,22.407 0.01700000000005,22.249 0.01700000000005,22.249 C0.01700000000005,22.249 0.01700000000005,22.232 0.01700000000005,22.232 C0.01700000000005,16.703 0.01700000000005,11.174 0.01700000000005,5.64499999999998 C0.01700000000005,4.20499999999998 1.88000000000011,1.28399999999999 1.88000000000011,1.28100000000001 C2.04199999999992,1.02100000000002 2.40599999999995,0.94499999999999 2.66200000000003,1.10599999999999 C2.73000000000002,1.149 2.77700000000004,1.19499999999999 2.82500000000005,1.25099999999998 C2.82500000000005,1.25099999999998 2.82500000000005,1.25099999999998 2.82500000000005,1.25099999999998 C2.82500000000005,1.25799999999998 5.11899999999991,4.19799999999998 5.11899999999991,6.61200000000002 C5.11899999999991,6.61200000000002 5.11899999999991,12.783 5.11899999999991,12.783 C5.11899999999991,12.984 5.01099999999997,13.158 4.84999999999991,13.256 C4.84999999999991,13.256 4.43100000000004,13.565 4.43100000000004,13.565 C4.43100000000004,13.565 4.43100000000004,13.565 4.43100000000004,13.565 ZM1.1579999999999,12.898 C1.92000000000007,12.898 2.69000000000005,12.898 3.452,12.898 C3.452,12.898 3.97199999999998,12.51 3.97199999999998,12.51 C3.97199999999998,12.51 3.97199999999998,6.61200000000002 3.97199999999998,6.61200000000002 C3.97199999999998,5.22399999999999 3.01299999999992,3.54000000000002 2.39300000000003,2.61000000000001 C1.90000000000009,3.47500000000002 1.1579999999999,4.88900000000001 1.1579999999999,5.64499999999998 C1.1579999999999,5.64499999999998 1.1579999999999,12.898 1.1579999999999,12.898 C1.1579999999999,12.898 1.1579999999999,12.898 1.1579999999999,12.898 ZM22.0329999999999,3.05700000000002 C21.547,2.488 20.885,2.13299999999998 20.1559999999999,2.13299999999998 C19.441,2.13299999999998 18.7729999999999,2.488 18.287,3.05399999999997 C17.78,3.65499999999997 17.47,4.488 17.47,5.41500000000002 C17.47,6.34300000000002 17.78,7.178 18.287,7.77600000000001 C18.7729999999999,8.346 19.441,8.70100000000002 20.1559999999999,8.70100000000002 C20.885,8.70100000000002 21.547,8.346 22.0329999999999,7.77600000000001 C22.0329999999999,7.77600000000001 22.0329999999999,7.77600000000001 22.0329999999999,7.77600000000001 C22.0329999999999,7.77600000000001 22.0329999999999,7.77600000000001 22.0329999999999,7.77600000000001 C22.539,7.178 22.856,6.34300000000002 22.856,5.41500000000002 C22.856,4.50400000000002 22.5519999999999,3.68099999999998 22.0599999999999,3.08699999999999 C22.0599999999999,3.08699999999999 22.0329999999999,3.05700000000002 22.0329999999999,3.05700000000002 C22.0329999999999,3.05700000000002 22.0329999999999,3.05700000000002 22.0329999999999,3.05700000000002 ZM11.5440000000001,22.588 C11.7270000000001,22.374 11.8420000000001,22.071 11.8420000000001,21.733 C11.8420000000001,21.733 11.396,14.779 11.396,14.779 C11.396,14.779 11.396,14.779 11.396,14.779 C11.396,14.779 11.396,14.74 11.396,14.74 C11.396,14.74 11.396,14.71 11.396,14.71 C11.396,14.71 11.396,14.671 11.396,14.671 C11.396,14.474 11.329,14.296 11.2270000000001,14.177 C11.1389999999999,14.082 11.0319999999999,14.02 10.9169999999999,14.016 C10.9169999999999,14.016 10.9100000000001,14.016 10.9100000000001,14.016 C10.9100000000001,14.016 10.8969999999999,14.016 10.8969999999999,14.016 C10.7809999999999,14.02 10.6669999999999,14.079 10.586,14.177 C10.4780000000001,14.296 10.4100000000001,14.474 10.4100000000001,14.671 C10.4100000000001,14.671 10.4100000000001,14.671 10.4100000000001,14.671 C10.4100000000001,14.671 10.4100000000001,14.707 10.4100000000001,14.707 C10.4100000000001,14.707 10.4100000000001,14.786 10.4100000000001,14.786 C10.4100000000001,14.786 9.96499999999992,21.729 9.96499999999992,21.729 C9.96499999999992,21.729 9.96499999999992,21.733 9.96499999999992,21.733 C9.96499999999992,22.071 10.087,22.374 10.269,22.588 C10.4369999999999,22.775 10.6669999999999,22.894 10.9100000000001,22.894 C11.153,22.894 11.376,22.775 11.5440000000001,22.588 C11.5440000000001,22.588 11.5440000000001,22.588 11.5440000000001,22.588 ZM10.4100000000001,14.707 C10.4100000000001,14.707 10.4100000000001,14.74 10.4100000000001,14.74 C10.4100000000001,14.74 10.4100000000001,14.707 10.4100000000001,14.707 C10.4100000000001,14.707 10.4100000000001,14.707 10.4100000000001,14.707 ZM20.7909999999999,22.588 C20.979,22.374 21.1010000000001,22.071 21.1010000000001,21.733 C21.1010000000001,21.733 20.6559999999999,14.779 20.6559999999999,14.779 C20.6559999999999,14.779 20.6559999999999,14.779 20.6559999999999,14.779 C20.6559999999999,14.779 20.6559999999999,14.734 20.6559999999999,14.734 C20.6559999999999,14.734 20.6559999999999,14.701 20.6559999999999,14.701 C20.6559999999999,14.701 20.6559999999999,14.671 20.6559999999999,14.671 C20.6559999999999,14.474 20.588,14.296 20.481,14.177 C20.4000000000001,14.082 20.2909999999999,14.02 20.1690000000001,14.016 C20.1690000000001,14.016 20.1559999999999,14.016 20.1559999999999,14.016 C20.1559999999999,14.016 20.1489999999999,14.016 20.1489999999999,14.016 C20.0350000000001,14.02 19.9269999999999,14.079 19.846,14.177 C19.731,14.296 19.6700000000001,14.474 19.6700000000001,14.671 C19.6700000000001,14.671 19.664,14.671 19.664,14.671 C19.664,14.671 19.6700000000001,14.707 19.6700000000001,14.707 C19.6700000000001,14.73 19.6700000000001,14.76 19.6700000000001,14.786 C19.6700000000001,14.786 19.2190000000001,21.729 19.2190000000001,21.729 C19.2190000000001,21.729 19.2190000000001,21.733 19.2190000000001,21.733 C19.2190000000001,22.071 19.3389999999999,22.374 19.529,22.588 C19.6900000000001,22.775 19.913,22.894 20.1559999999999,22.894 C20.4000000000001,22.894 20.6289999999999,22.775 20.7909999999999,22.588 C20.7909999999999,22.588 20.7909999999999,22.588 20.7909999999999,22.588 ZM2.83799999999997,14.753 C2.83799999999997,14.753 1.92000000000007,14.753 1.92000000000007,14.753 C1.92000000000007,14.753 1.92000000000007,22.15 1.92000000000007,22.15 C1.92000000000007,22.15 2.83799999999997,22.15 2.83799999999997,22.15 C2.83799999999997,22.15 2.83799999999997,14.753 2.83799999999997,14.753 C2.83799999999997,14.753 2.83799999999997,14.753 2.83799999999997,14.753 Z "/>
</svg>
