<?xml version="1.0" encoding="utf-8"?>
<!DOCTYPE svg PUBLIC "-//W3C//DTD SVG 1.1//EN" "http://www.w3.org/Graphics/SVG/1.1/DTD/svg11.dtd">
<svg version="1.1" baseProfile="full"
 xmlns="http://www.w3.org/2000/svg"
 xmlns:xlink="http://www.w3.org/1999/xlink"
 xmlns:ev="http://www.w3.org/2001/xml-events" 
  height="24px" 
  width="25px" 
>
<path fill="rgb( 93, 193, 232 )"
 d="M6.06600000000003,21.988 C6.06600000000003,21.988 6.06600000000003,15.997 6.06600000000003,15.997 C6.06600000000003,15.997 18.029,15.997 18.029,15.997 C18.029,15.997 18.029,21.988 18.029,21.988 C18.029,21.988 6.06600000000003,21.988 6.06600000000003,21.988 ZM20.0229999999999,21.988 C20.0229999999999,21.988 20.0229999999999,15.497 20.0229999999999,15.497 C20.0229999999999,14.671 19.3530000000001,13.999 18.527,13.999 C18.527,13.999 5.56700000000001,13.999 5.56700000000001,13.999 C4.74199999999996,13.999 4.07199999999989,14.671 4.07199999999989,15.497 C4.07199999999989,15.497 4.07199999999989,21.988 4.07199999999989,21.988 C4.07199999999989,21.988 2.07799999999997,21.988 2.07799999999997,21.988 C2.07799999999997,21.988 2.07799999999997,2.01599999999999 2.07799999999997,2.01599999999999 C2.07799999999997,2.01599999999999 4.07199999999989,2.01599999999999 4.07199999999989,2.01599999999999 C4.07199999999989,2.01599999999999 4.07199999999989,8.50700000000001 4.07199999999989,8.50700000000001 C4.07199999999989,9.334 4.74199999999996,10.005 5.56700000000001,10.005 C5.56700000000001,10.005 14.54,10.005 14.54,10.005 C15.365,10.005 16.0350000000001,9.334 16.0350000000001,8.50700000000001 C16.0350000000001,8.50700000000001 16.0350000000001,2.01599999999999 16.0350000000001,2.01599999999999 C16.347,2.01599999999999 16.954,2.26499999999999 17.172,2.48400000000001 C17.172,2.48400000000001 21.549,6.868 21.549,6.868 C21.752,7.071 22.0170000000001,7.71100000000001 22.0170000000001,8.00800000000001 C22.0170000000001,8.00800000000001 22.0170000000001,21.988 22.0170000000001,21.988 C22.0170000000001,21.988 20.0229999999999,21.988 20.0229999999999,21.988 ZM14.0409999999999,7.50800000000001 C14.0409999999999,7.774 13.808,8.00800000000001 13.5429999999999,8.00800000000001 C13.5429999999999,8.00800000000001 10.5519999999999,8.00800000000001 10.5519999999999,8.00800000000001 C10.287,8.00800000000001 10.0540000000001,7.774 10.0540000000001,7.50800000000001 C10.0540000000001,7.50800000000001 10.0540000000001,2.51499999999999 10.0540000000001,2.51499999999999 C10.0540000000001,2.25 10.287,2.01599999999999 10.5519999999999,2.01599999999999 C10.5519999999999,2.01599999999999 13.5429999999999,2.01599999999999 13.5429999999999,2.01599999999999 C13.808,2.01599999999999 14.0409999999999,2.25 14.0409999999999,2.51499999999999 C14.0409999999999,2.51499999999999 14.0409999999999,7.50800000000001 14.0409999999999,7.50800000000001 ZM24.011,8.00800000000001 C24.011,7.18100000000001 23.5429999999999,6.041 22.951,5.44800000000001 C22.951,5.44800000000001 18.5899999999999,1.08000000000001 18.5899999999999,1.08000000000001 C17.998,0.48699999999999 16.8610000000001,0.01900000000001 16.0350000000001,0.01900000000001 C16.0350000000001,0.01900000000001 1.57999999999993,0.01900000000001 1.57999999999993,0.01900000000001 C0.75399999999991,0.01900000000001 0.08400000000006,0.69 0.08400000000006,1.517 C0.08400000000006,1.517 0.08400000000006,22.488 0.08400000000006,22.488 C0.08400000000006,23.315 0.75399999999991,23.986 1.57999999999993,23.986 C1.57999999999993,23.986 22.5150000000001,23.986 22.5150000000001,23.986 C23.3409999999999,23.986 24.011,23.315 24.011,22.488 C24.011,22.488 24.011,8.00800000000001 24.011,8.00800000000001 Z "/>
</svg>
