<?xml version="1.0" encoding="utf-8"?>
<!DOCTYPE svg PUBLIC "-//W3C//DTD SVG 1.1//EN" "http://www.w3.org/Graphics/SVG/1.1/DTD/svg11.dtd">
<svg version="1.1" baseProfile="full"
 xmlns="http://www.w3.org/2000/svg"
 xmlns:xlink="http://www.w3.org/1999/xlink"
 xmlns:ev="http://www.w3.org/2001/xml-events" 
  height="20px" 
  width="26px" 
>
<path fill="rgb( 97, 194, 232 )"
 d="M11.3969999999999,9.822 C11.3969999999999,9.822 11.528,9.95600000000002 11.528,9.95600000000002 C12.165,10.575 13.037,10.924 13.943,10.924 C14.268,10.924 14.5319999999999,10.669 14.5319999999999,10.359 C14.5319999999999,10.043 14.268,9.78800000000001 13.943,9.78800000000001 C13.3409999999999,9.78800000000001 12.7809999999999,9.56599999999997 12.3579999999999,9.149 C12.2059999999999,9.00799999999998 12.0820000000001,8.85300000000001 11.9849999999999,8.678 C11.9849999999999,8.678 15.7360000000001,8.678 15.7360000000001,8.678 C15.7360000000001,8.678 15.7360000000001,10.386 15.7360000000001,10.386 C15.7360000000001,10.77 15.577,11.113 15.3209999999999,11.354 C15.3209999999999,11.354 15.3209999999999,11.354 15.3209999999999,11.354 C15.0709999999999,11.61 14.7180000000001,11.758 14.3309999999999,11.758 C14.3309999999999,11.758 10.8920000000001,11.758 10.8920000000001,11.758 C10.8920000000001,11.758 11.3969999999999,9.822 11.3969999999999,9.822 C11.3969999999999,9.822 11.3969999999999,9.822 11.3969999999999,9.822 ZM23.8889999999999,0.95800000000003 C23.8889999999999,0.43400000000003 23.4459999999999,0.00999999999999 22.9059999999999,0.00999999999999 C22.373,0.00999999999999 21.9369999999999,0.43400000000003 21.9369999999999,0.95800000000003 C21.9369999999999,0.95800000000003 21.9369999999999,1.18700000000001 21.9369999999999,1.18700000000001 C21.9369999999999,1.18700000000001 16.1510000000001,1.18700000000001 16.1510000000001,1.18700000000001 C15.6110000000001,1.18700000000001 15.175,1.60399999999999 15.175,2.12799999999999 C15.175,2.12799999999999 15.175,2.15499999999997 15.175,2.15499999999997 C15.175,2.15499999999997 15.175,2.42399999999998 15.175,2.42399999999998 C15.175,2.42399999999998 11.7360000000001,2.42399999999998 11.7360000000001,2.42399999999998 C11.7360000000001,2.42399999999998 11.7360000000001,2.12799999999999 11.7360000000001,2.12799999999999 C11.7360000000001,1.60399999999999 11.3,1.18700000000001 10.76,1.18700000000001 C10.76,1.18700000000001 10.739,1.18700000000001 10.739,1.18700000000001 C10.739,1.18700000000001 4.71800000000007,1.18700000000001 4.71800000000007,1.18700000000001 C4.31600000000003,1.18700000000001 3.971,1.416 3.82500000000005,1.75200000000001 C3.82500000000005,1.75200000000001 1.58999999999992,1.75200000000001 1.58999999999992,1.75200000000001 C1.27199999999993,1.75200000000001 1.00900000000001,2.00700000000001 1.00900000000001,2.31599999999997 C1.00900000000001,2.39800000000002 1.02299999999991,2.464 1.04999999999995,2.53199999999998 C1.04999999999995,2.53199999999998 2.22000000000003,6.24400000000003 2.22000000000003,6.24400000000003 C2.23399999999992,6.298 2.25399999999991,6.33800000000002 2.28199999999993,6.392 C2.26800000000003,7.118 2.61400000000003,7.75700000000001 2.94699999999989,8.38200000000001 C2.94699999999989,8.38200000000001 2.97399999999993,8.42899999999997 2.97399999999993,8.42899999999997 C3.18200000000002,8.79899999999998 3.375,9.16300000000001 3.33400000000006,9.37700000000001 C2.67000000000007,11.193 1.07799999999997,16.519 1.07099999999991,16.533 C0.9190000000001,17.031 1.21599999999989,17.562 1.72800000000007,17.71 C1.78400000000011,17.73 1.83300000000008,17.736 1.88799999999992,17.743 C1.88799999999992,17.743 8.08200000000011,19.001 8.08200000000011,19.001 C8.58699999999999,19.088 9.07099999999991,18.779 9.19599999999991,18.301 C9.19599999999991,18.301 9.20299999999997,18.301 9.20299999999997,18.301 C9.20299999999997,18.301 10.6010000000001,12.901 10.6010000000001,12.901 C10.6010000000001,12.901 14.3309999999999,12.901 14.3309999999999,12.901 C15.037,12.901 15.681,12.619 16.1510000000001,12.161 C16.1510000000001,12.161 16.1510000000001,12.161 16.1510000000001,12.161 C16.6220000000001,11.704 16.912,11.072 16.912,10.386 C16.912,10.386 16.912,8.678 16.912,8.678 C16.912,8.678 21.002,8.678 21.002,8.678 C21.3,8.678 21.556,8.55700000000002 21.7429999999999,8.35599999999999 C21.7429999999999,8.35599999999999 23.4110000000001,6.72800000000001 23.4110000000001,6.72800000000001 C23.4110000000001,6.72800000000001 25.01,6.72800000000001 25.01,6.72800000000001 C25.549,6.72800000000001 25.992,6.298 25.992,5.77999999999997 C25.992,5.77999999999997 25.992,5.75900000000001 25.992,5.75900000000001 C25.992,5.75900000000001 25.992,2.12799999999999 25.992,2.12799999999999 C25.992,1.60399999999999 25.549,1.18700000000001 25.01,1.18700000000001 C25.01,1.18700000000001 24.9880000000001,1.18700000000001 24.9880000000001,1.18700000000001 C24.9880000000001,1.18700000000001 23.8889999999999,1.18700000000001 23.8889999999999,1.18700000000001 C23.8889999999999,1.18700000000001 23.8889999999999,0.95800000000003 23.8889999999999,0.95800000000003 C23.8889999999999,0.95800000000003 23.8889999999999,0.95800000000003 23.8889999999999,0.95800000000003 ZM3.41699999999992,2.88799999999998 C3.41699999999992,2.88799999999998 2.86400000000003,4.428 2.86400000000003,4.428 C2.86400000000003,4.428 2.37899999999991,2.88799999999998 2.37899999999991,2.88799999999998 C2.37899999999991,2.88799999999998 3.41699999999992,2.88799999999998 3.41699999999992,2.88799999999998 C3.41699999999992,2.88799999999998 3.41699999999992,2.88799999999998 3.41699999999992,2.88799999999998 ZM17.106,3.077 C19.4179999999999,3.077 21.729,3.077 24.0409999999999,3.077 C24.0409999999999,3.077 24.0409999999999,4.83199999999999 24.0409999999999,4.83199999999999 C24.0409999999999,4.83199999999999 23.009,4.83199999999999 23.009,4.83199999999999 C23.009,4.83199999999999 23.009,4.83199999999999 23.009,4.83199999999999 C22.7670000000001,4.83199999999999 22.518,4.92599999999999 22.325,5.10700000000003 C22.325,5.10700000000003 20.6010000000001,6.78199999999998 20.6010000000001,6.78199999999998 C20.6010000000001,6.78199999999998 10.933,6.78199999999998 10.933,6.78199999999998 C10.933,6.78199999999998 10.933,6.78199999999998 10.933,6.78199999999998 C10.49,6.78199999999998 10.1030000000001,7.07100000000003 9.9849999999999,7.50200000000001 C9.9849999999999,7.50200000000001 7.52800000000002,16.99 7.52800000000002,16.99 C7.52800000000002,16.99 3.24399999999991,16.062 3.24399999999991,16.062 C3.7349999999999,14.435 4.71100000000001,11.274 5.18900000000008,9.97000000000003 C5.18900000000008,9.97000000000003 5.18900000000008,9.97000000000003 5.18900000000008,9.97000000000003 C5.18900000000008,9.97000000000003 5.20900000000006,9.89499999999998 5.20900000000006,9.89499999999998 C5.46599999999989,8.988 5.0920000000001,8.27499999999998 4.69800000000009,7.54199999999997 C4.69800000000009,7.54199999999997 4.67599999999993,7.495 4.67599999999993,7.495 C4.41399999999999,7.01100000000002 4.13699999999994,6.51299999999998 4.30300000000011,6.16300000000001 C4.30300000000011,6.16300000000001 4.3309999999999,6.089 4.3309999999999,6.089 C4.3309999999999,6.089 5.41000000000008,3.077 5.41000000000008,3.077 C5.41000000000008,3.077 9.80500000000006,3.077 9.80500000000006,3.077 C9.923,3.78199999999998 10.566,4.32100000000003 11.3140000000001,4.32100000000003 C11.3140000000001,4.32100000000003 15.604,4.32100000000003 15.604,4.32100000000003 C16.3520000000001,4.32100000000003 16.9880000000001,3.78199999999998 17.106,3.077 C17.106,3.077 17.106,3.077 17.106,3.077 Z "/>
</svg>
