<?xml version="1.0" encoding="utf-8"?>
<!DOCTYPE svg PUBLIC "-//W3C//DTD SVG 1.1//EN" "http://www.w3.org/Graphics/SVG/1.1/DTD/svg11.dtd">
<svg version="1.1" baseProfile="full"
 xmlns="http://www.w3.org/2000/svg"
 xmlns:xlink="http://www.w3.org/1999/xlink"
 xmlns:ev="http://www.w3.org/2001/xml-events" 
  height="28px" 
  width="30px" 
>
<path fill="rgb( 93, 193, 232 )"
 d="M19.8440000000001,14.358 C19.8440000000001,14.358 21.021,13.174 21.021,13.174 C21.5410000000001,13.381 22.111,13.52 22.679,13.571 C23.39,13.639 24.124,13.588 24.842,13.393 C25.806,13.134 26.651,12.653 27.354,12.03 C28.0650000000001,11.382 28.625,10.572 28.981,9.678 C29.107,9.33199999999999 28.941,8.94299999999998 28.602,8.80799999999999 C28.4589999999999,8.75299999999999 28.317,8.74799999999999 28.191,8.78399999999999 C28.191,8.78399999999999 26.4059999999999,9.25700000000001 26.4059999999999,9.25700000000001 C26.4059999999999,9.25700000000001 24.9690000000001,9.654 24.9690000000001,9.654 C24.9690000000001,9.654 23.9109999999999,8.589 23.9109999999999,8.589 C23.9109999999999,8.589 22.852,7.52499999999998 22.852,7.52499999999998 C22.852,7.52499999999998 23.24,6.07100000000003 23.24,6.07100000000003 C23.24,6.07100000000003 23.627,4.61700000000002 23.627,4.61700000000002 C23.627,4.61700000000002 25.064,4.23099999999999 25.064,4.23099999999999 C25.064,4.23099999999999 26.848,3.74599999999998 26.848,3.74599999999998 C27.196,3.65499999999997 27.409,3.28500000000003 27.314,2.928 C27.275,2.78100000000001 27.196,2.65699999999998 27.085,2.57400000000001 C26.343,1.97399999999999 25.45,1.54899999999998 24.503,1.35500000000002 C23.595,1.16300000000001 22.616,1.18000000000001 21.668,1.43799999999999 C20.025,1.87900000000002 18.7140000000001,2.94799999999998 17.932,4.322 C17.143,5.69299999999998 16.883,7.36900000000003 17.317,9.01499999999999 C17.317,9.01499999999999 17.332,9.07799999999997 17.332,9.07799999999997 C17.332,9.07799999999997 17.34,9.09399999999999 17.34,9.09399999999999 C17.34,9.09399999999999 15.967,10.461 15.967,10.461 C15.967,10.461 12.034,6.495 12.034,6.495 C12.144,6.28899999999999 12.255,6.08199999999999 12.349,5.875 C12.349,5.875 12.366,5.83600000000001 12.366,5.83600000000001 C12.523,5.49099999999999 12.634,5.15300000000002 12.713,4.827 C12.95,4.41399999999999 13.25,4.13200000000001 13.597,3.96100000000001 C14,3.77800000000002 14.505,3.71800000000002 15.1369999999999,3.774 C15.335,3.80200000000002 15.548,3.73099999999999 15.698,3.57499999999999 C15.95,3.30900000000003 15.95,2.88799999999998 15.682,2.63 C14.703,1.661 13.582,1.07600000000002 12.413,0.99700000000001 C11.347,0.93299999999999 10.2809999999999,1.28699999999998 9.28499999999997,2.15699999999998 C9.05700000000002,2.24099999999999 8.82000000000005,2.34399999999999 8.58299999999997,2.46699999999998 C8.46500000000003,2.52600000000001 8.33799999999997,2.58999999999998 8.21199999999999,2.65699999999998 C8.21199999999999,2.65699999999998 7.88,2.31999999999999 7.88,2.31999999999999 C7.88,2.31999999999999 7.88,2.32400000000001 7.88,2.32400000000001 C7.62,2.06200000000001 7.20100000000002,2.06200000000001 6.94000000000005,2.31999999999999 C6.94000000000005,2.31999999999999 4.01099999999997,5.26799999999997 4.01099999999997,5.26799999999997 C3.75800000000004,5.52999999999997 3.75,5.95100000000002 4.01099999999997,6.21300000000002 C4.01099999999997,6.21300000000002 4.34199999999998,6.55099999999999 4.34199999999998,6.55099999999999 C4.34199999999998,6.55099999999999 4.27099999999996,6.69400000000002 4.27099999999996,6.69400000000002 C4.27099999999996,6.69400000000002 4.24800000000005,6.726 4.24800000000005,6.726 C4.16800000000001,6.88499999999999 4.08900000000006,7.048 4.01800000000003,7.21100000000001 C3.94799999999998,7.255 3.86800000000005,7.29000000000002 3.774,7.31400000000002 C3.60000000000002,7.358 3.39499999999998,7.37700000000001 3.149,7.358 C2.96000000000004,7.33800000000002 2.76300000000003,7.40899999999999 2.62099999999998,7.548 C2.62099999999998,7.548 1.18399999999997,8.99799999999999 1.18399999999997,8.99799999999999 C0.92999999999995,9.25700000000001 0.92999999999995,9.68599999999998 1.18399999999997,9.94799999999998 C1.18399999999997,9.94799999999998 2.86599999999999,11.629 2.86599999999999,11.629 C2.86599999999999,11.629 2.89700000000005,11.665 2.89700000000005,11.665 C2.89700000000005,11.665 2.90499999999997,11.669 2.90499999999997,11.669 C2.90499999999997,11.669 2.91300000000001,11.684 2.91300000000001,11.684 C2.91300000000001,11.684 2.92100000000005,11.693 2.92100000000005,11.693 C2.92100000000005,11.693 2.93700000000001,11.712 2.93700000000001,11.712 C2.93700000000001,11.712 2.952,11.724 2.952,11.724 C2.952,11.724 2.98400000000004,11.752 2.98400000000004,11.752 C2.98400000000004,11.752 3,11.768 3,11.768 C3,11.768 4.70500000000004,13.488 4.70500000000004,13.488 C4.96600000000001,13.75 5.39300000000003,13.75 5.65300000000002,13.488 C5.65300000000002,13.488 7.09000000000003,12.046 7.09000000000003,12.046 C7.09000000000003,12.046 7.09000000000003,12.046 7.09000000000003,12.046 C7.21699999999998,11.911 7.29499999999996,11.72 7.27999999999997,11.517 C7.26400000000001,11.319 7.28700000000003,11.152 7.33500000000004,11.009 C7.36699999999996,10.914 7.41399999999999,10.823 7.47699999999998,10.739 C7.64300000000003,10.663 7.81700000000001,10.58 7.97500000000002,10.492 C7.97500000000002,10.492 8.16399999999999,10.389 8.16399999999999,10.389 C8.16399999999999,10.389 12.104,14.362 12.104,14.362 C12.104,14.362 3.83699999999999,22.678 3.83699999999999,22.678 C3.57600000000002,22.94 3.57600000000002,23.366 3.83699999999999,23.628 C3.83699999999999,23.628 6.76599999999996,26.571 6.76599999999996,26.571 C7.02700000000004,26.834 7.44600000000003,26.834 7.70600000000002,26.571 C7.70600000000002,26.571 15.967,18.252 15.967,18.252 C15.967,18.252 24.471,26.806 24.471,26.806 C24.732,27.064 25.158,27.064 25.412,26.806 C25.412,26.806 28.341,23.858 28.341,23.858 C28.602,23.596 28.602,23.166 28.341,22.908 C28.341,22.908 19.8440000000001,14.358 19.8440000000001,14.358 C19.8440000000001,14.358 19.8440000000001,14.358 19.8440000000001,14.358 ZM8.73299999999995,9.06999999999999 C8.73299999999995,9.06999999999999 8.73299999999995,9.06999999999999 8.73299999999995,9.06999999999999 C8.49599999999998,8.82299999999998 8.11699999999996,8.80799999999999 7.84900000000005,9.01100000000002 C7.69000000000005,9.12200000000001 7.51700000000005,9.221 7.351,9.30799999999999 C7.351,9.30799999999999 7.34299999999996,9.31200000000001 7.34299999999996,9.31200000000001 C7.34299999999996,9.31200000000001 7.34299999999996,9.30799999999999 7.34299999999996,9.30799999999999 C7.16899999999998,9.40800000000002 6.98699999999997,9.49599999999998 6.81299999999999,9.56700000000001 C6.70399999999995,9.61399999999998 6.601,9.69 6.53800000000001,9.77699999999999 C6.34000000000003,10.011 6.18200000000002,10.27 6.07899999999995,10.568 C6.07899999999995,10.568 6.07899999999995,10.568 6.07899999999995,10.568 C6.00099999999998,10.79 5.95299999999997,11.033 5.93799999999999,11.295 C5.93799999999999,11.295 5.17899999999997,12.066 5.17899999999997,12.066 C5.17899999999997,12.066 3.93100000000004,10.823 3.93100000000004,10.823 C3.93100000000004,10.823 3.91600000000005,10.802 3.91600000000005,10.802 C3.91600000000005,10.802 3.89999999999998,10.779 3.89999999999998,10.779 C3.89999999999998,10.779 3.89999999999998,10.775 3.89999999999998,10.775 C3.89999999999998,10.775 3.88400000000001,10.762 3.88400000000001,10.762 C3.88400000000001,10.762 3.86800000000005,10.747 3.86800000000005,10.747 C3.86800000000005,10.747 3.86800000000005,10.739 3.86800000000005,10.739 C3.86800000000005,10.739 3.85199999999998,10.731 3.85199999999998,10.731 C3.85199999999998,10.731 3.85199999999998,10.731 3.85199999999998,10.731 C3.85199999999998,10.731 3.83699999999999,10.715 3.83699999999999,10.715 C3.83699999999999,10.715 3.80499999999995,10.679 3.80499999999995,10.679 C3.80499999999995,10.679 2.60400000000004,9.471 2.60400000000004,9.471 C2.60400000000004,9.471 3.36300000000006,8.70499999999998 3.36300000000006,8.70499999999998 C3.63099999999997,8.70499999999998 3.88400000000001,8.673 4.12099999999998,8.60899999999998 C4.476,8.51400000000001 4.78499999999997,8.339 5.02099999999996,8.10899999999998 C5.10000000000002,8.03300000000002 5.15599999999995,7.94900000000001 5.18700000000001,7.85399999999999 C5.25,7.70400000000001 5.33699999999999,7.53300000000002 5.42399999999998,7.358 C5.42399999999998,7.358 5.44000000000005,7.32999999999998 5.44000000000005,7.32999999999998 C5.52700000000004,7.17500000000001 5.63,7.00400000000002 5.74800000000005,6.81799999999998 C5.93799999999999,6.53500000000003 5.87400000000002,6.166 5.63,5.95100000000002 C5.63,5.95100000000002 5.42399999999998,5.74000000000001 5.42399999999998,5.74000000000001 C5.42399999999998,5.74000000000001 7.40599999999995,3.74200000000002 7.40599999999995,3.74200000000002 C7.40599999999995,3.74200000000002 7.64300000000003,3.98399999999998 7.64300000000003,3.98399999999998 C7.88,4.21100000000001 8.22799999999995,4.23899999999998 8.48800000000006,4.06400000000002 C8.73299999999995,3.90499999999997 8.97000000000003,3.76600000000002 9.18299999999999,3.65899999999999 C9.18299999999999,3.65899999999999 9.19100000000003,3.65899999999999 9.19100000000003,3.65899999999999 C9.41200000000003,3.548 9.63300000000004,3.44799999999998 9.83900000000006,3.37700000000001 C9.93299999999999,3.34500000000003 10.0119999999999,3.30099999999999 10.076,3.233 C10.8099999999999,2.56200000000001 11.5839999999999,2.29199999999997 12.3339999999999,2.33999999999998 C12.681,2.35899999999998 13.029,2.45100000000002 13.376,2.61000000000001 C13.266,2.64999999999998 13.155,2.697 13.045,2.74900000000002 C13.045,2.74900000000002 13.045,2.74900000000002 13.045,2.74900000000002 C12.389,3.04700000000003 11.8920000000001,3.548 11.497,4.27100000000002 C11.465,4.32600000000002 11.449,4.38999999999999 11.433,4.44900000000001 C11.433,4.44900000000001 11.433,4.44900000000001 11.433,4.44900000000001 C11.386,4.70400000000001 11.276,4.99000000000001 11.149,5.28800000000001 C11.149,5.28800000000001 11.133,5.31999999999999 11.133,5.31999999999999 C10.999,5.613 10.833,5.91899999999998 10.628,6.22899999999999 C10.454,6.5 10.502,6.85399999999999 10.715,7.072 C10.715,7.072 15.035,11.41 15.035,11.41 C15.035,11.41 13.045,13.413 13.045,13.413 C13.045,13.413 8.73299999999995,9.06999999999999 8.73299999999995,9.06999999999999 C8.73299999999995,9.06999999999999 8.73299999999995,9.06999999999999 8.73299999999995,9.06999999999999 ZM7.23199999999997,25.145 C7.23199999999997,25.145 7.23199999999997,25.145 7.23199999999997,25.145 C7.23199999999997,25.145 5.25,23.147 5.25,23.147 C5.25,23.147 13.519,14.831 13.519,14.831 C13.519,14.831 18.573,9.75299999999999 18.573,9.75299999999999 C18.739,9.57799999999997 18.809,9.31200000000001 18.73,9.06200000000001 C18.73,9.06200000000001 18.651,8.863 18.651,8.863 C18.651,8.863 18.612,8.69600000000003 18.612,8.69600000000003 C18.612,8.69600000000003 18.604,8.66899999999998 18.604,8.66899999999998 C18.2569999999999,7.36900000000003 18.47,6.06299999999999 19.078,4.99000000000001 C19.694,3.92099999999999 20.721,3.08300000000003 22.008,2.73700000000002 C22.766,2.52999999999997 23.532,2.51799999999997 24.227,2.66500000000002 C24.471,2.721 24.708,2.78500000000003 24.938,2.87200000000001 C24.938,2.87200000000001 24.724,2.928 24.724,2.928 C24.724,2.928 22.908,3.416 22.908,3.416 C22.686,3.48000000000002 22.505,3.65499999999997 22.442,3.89699999999999 C22.442,3.89699999999999 21.463,7.548 21.463,7.548 C21.407,7.77499999999998 21.463,8.017 21.6369999999999,8.19600000000003 C21.6369999999999,8.19600000000003 22.963,9.53500000000003 22.963,9.53500000000003 C22.963,9.53500000000003 22.963,9.53500000000003 22.963,9.53500000000003 C22.963,9.53500000000003 24.258,10.842 24.258,10.842 C24.432,11.028 24.6849999999999,11.112 24.938,11.049 C24.938,11.049 26.754,10.556 26.754,10.556 C26.754,10.556 26.975,10.5 26.975,10.5 C26.817,10.687 26.643,10.866 26.454,11.033 C25.917,11.522 25.253,11.891 24.503,12.09 C23.927,12.248 23.3579999999999,12.292 22.797,12.241 C22.237,12.185 21.7,12.03 21.1950000000001,11.792 C20.941,11.648 20.61,11.684 20.389,11.903 C20.389,11.903 7.23199999999997,25.145 7.23199999999997,25.145 C7.23199999999997,25.145 7.23199999999997,25.145 7.23199999999997,25.145 ZM24.9450000000001,25.384 C24.9450000000001,25.384 24.9450000000001,25.384 24.9450000000001,25.384 C24.9450000000001,25.384 16.914,17.302 16.914,17.302 C16.914,17.302 18.904,15.308 18.904,15.308 C18.904,15.308 26.928,23.385 26.928,23.385 C26.928,23.385 24.9450000000001,25.384 24.9450000000001,25.384 C24.9450000000001,25.384 24.9450000000001,25.384 24.9450000000001,25.384 Z "/>
</svg>
