<?xml version="1.0" encoding="utf-8"?>
<!DOCTYPE svg PUBLIC "-//W3C//DTD SVG 1.1//EN" "http://www.w3.org/Graphics/SVG/1.1/DTD/svg11.dtd">
<svg version="1.1" baseProfile="full"
 xmlns="http://www.w3.org/2000/svg"
 xmlns:xlink="http://www.w3.org/1999/xlink"
 xmlns:ev="http://www.w3.org/2001/xml-events" 
  height="34px" 
  width="23px" 
>
<path fill="rgb( 93, 193, 232 )"
 d="M6.09799999999996,8.68799999999999 C6.09799999999996,8.68799999999999 11.707,8.68799999999999 11.707,8.68799999999999 C11.707,8.68799999999999 13.4450000000001,4.78100000000001 13.4450000000001,4.78100000000001 C13.4450000000001,4.78100000000001 12.919,3.44900000000001 12.919,3.44900000000001 C12.919,3.44900000000001 4.89400000000001,3.44900000000001 4.89400000000001,3.44900000000001 C4.89400000000001,3.44900000000001 4.35900000000004,4.78100000000001 4.35900000000004,4.78100000000001 C4.35900000000004,4.78100000000001 6.09799999999996,8.68799999999999 6.09799999999996,8.68799999999999 C6.09799999999996,8.68799999999999 6.09799999999996,8.68799999999999 6.09799999999996,8.68799999999999 ZM14.194,10.393 C14.194,10.393 14.194,10.393 14.194,10.393 C14.194,10.393 21.756,17.795 21.756,17.795 C22.05,18.088 22.05,18.556 21.756,18.844 C21.756,18.844 18.822,21.715 18.822,21.715 C18.5359999999999,22.003 18.055,22.003 17.769,21.715 C17.769,21.715 17.716,21.68 17.716,21.68 C17.716,21.68 15.897,19.889 15.897,19.889 C15.897,19.889 16.8150000000001,25.019 16.8150000000001,25.019 C16.896,25.452 16.717,25.876 16.414,26.151 C16.414,26.151 9.78899999999999,32.64 9.78899999999999,32.64 C9.29899999999998,33.116 8.51400000000001,33.116 8.01499999999999,32.64 C8.01499999999999,32.64 1.34500000000003,26.099 1.34500000000003,26.099 C1.024,25.788 0.91700000000003,25.355 1.00599999999997,24.962 C1.00599999999997,24.962 3.75300000000004,9.571 3.75300000000004,9.571 C3.75300000000004,9.571 1.86199999999997,5.292 1.86199999999997,5.292 C1.73699999999997,4.98699999999999 1.73699999999997,4.655 1.84400000000005,4.36199999999999 C1.84400000000005,4.36199999999999 1.84400000000005,4.36199999999999 1.84400000000005,4.36199999999999 C1.84400000000005,4.36199999999999 2.87,1.77500000000001 2.87,1.77500000000001 C3.05700000000002,1.28999999999999 3.53800000000001,0.993 4.03800000000001,0.993 C4.03800000000001,0.993 13.775,0.993 13.775,0.993 C14.345,0.993 14.827,1.364 14.987,1.875 C14.987,1.875 15.9690000000001,4.36199999999999 15.9690000000001,4.36199999999999 C16.085,4.67699999999999 16.066,5.00899999999999 15.95,5.292 C15.95,5.292 14.051,9.571 14.051,9.571 C14.051,9.571 14.194,10.393 14.194,10.393 C14.194,10.393 14.194,10.393 14.194,10.393 ZM11.6079999999999,10.165 C11.6079999999999,10.165 11.6079999999999,10.165 11.6079999999999,10.165 C11.6079999999999,10.165 6.19600000000003,10.165 6.19600000000003,10.165 C6.19600000000003,10.165 3.57399999999996,24.805 3.57399999999996,24.805 C3.57399999999996,24.805 8.90599999999995,30.031 8.90599999999995,30.031 C8.90599999999995,30.031 14.229,24.814 14.229,24.814 C14.229,24.814 11.6079999999999,10.165 11.6079999999999,10.165 C11.6079999999999,10.165 11.6079999999999,10.165 11.6079999999999,10.165 ZM14.648,12.919 C14.648,12.919 14.648,12.919 14.648,12.919 C14.648,12.919 15.434,17.363 15.434,17.363 C15.434,17.363 18.287,20.151 18.287,20.151 C18.287,20.151 20.159,18.324 20.159,18.324 C20.159,18.324 14.648,12.919 14.648,12.919 C14.648,12.919 14.648,12.919 14.648,12.919 Z "/>
</svg>
