<?xml version="1.0" encoding="utf-8"?>
<!DOCTYPE svg PUBLIC "-//W3C//DTD SVG 1.1//EN" "http://www.w3.org/Graphics/SVG/1.1/DTD/svg11.dtd">
<svg version="1.1" baseProfile="full"
 xmlns="http://www.w3.org/2000/svg"
 xmlns:xlink="http://www.w3.org/1999/xlink"
 xmlns:ev="http://www.w3.org/2001/xml-events" 
  height="27px" 
  width="26px" 
>
<path fill="rgb( 93, 193, 232 )"
 d="M13.499,0.99900000000002 C16.944,0.99900000000002 20.0740000000001,2.40499999999997 22.3309999999999,4.66199999999998 C22.3309999999999,4.66199999999998 22.3309999999999,4.65499999999997 22.3309999999999,4.65499999999997 C24.596,6.91899999999998 26,10.049 26,13.4930000000001 C26,16.944 24.596,20.075 22.3309999999999,22.3390000000001 C22.3309999999999,22.3390000000001 22.2829999999999,22.386 22.2829999999999,22.386 C20.0260000000001,24.623 16.9159999999999,26.001 13.499,26.001 C10.049,26.001 6.92499999999995,24.596 4.66799999999989,22.332 C4.66799999999989,22.332 4.66100000000006,22.3390000000001 4.66100000000006,22.3390000000001 C2.40300000000002,20.075 0.99900000000002,16.944 0.99900000000002,13.4930000000001 C0.99900000000002,10.049 2.40300000000002,6.91899999999998 4.66100000000006,4.65499999999997 C4.66100000000006,4.65499999999997 4.70800000000008,4.61399999999998 4.70800000000008,4.61399999999998 C6.97299999999996,2.37700000000001 10.0820000000001,0.99900000000002 13.499,0.99900000000002 C13.499,0.99900000000002 13.499,0.99900000000002 13.499,0.99900000000002 ZM11.788,3.05900000000003 C11.7539999999999,3.25 11.712,3.46800000000002 11.6790000000001,3.68700000000001 C11.4469999999999,4.91399999999999 11.1869999999999,6.36000000000001 10.492,7.041 C10.212,7.31400000000002 8.58200000000011,8.50099999999998 8.596,8.80099999999999 C8.596,8.88299999999998 8.96399999999994,8.88299999999998 10.328,8.88299999999998 C10.328,8.88299999999998 10.3420000000001,8.88299999999998 10.3420000000001,8.88299999999998 C11.0509999999999,8.88299999999998 11.9380000000001,9.12900000000002 12.701,9.55099999999999 C13.261,9.85899999999998 13.7660000000001,10.274 14.106,10.779 C14.4739999999999,11.324 14.6379999999999,11.965 14.4739999999999,12.6609999999999 C14.4739999999999,12.6609999999999 14.4739999999999,12.6609999999999 14.4739999999999,12.6609999999999 C14.4739999999999,12.6609999999999 14.4739999999999,12.6609999999999 14.4739999999999,12.6609999999999 C14.3720000000001,13.097 14.134,13.561 13.7239999999999,14.019 C12.347,15.573 12.3599999999999,15.737 12.4559999999999,16.521 C12.4970000000001,16.848 12.5519999999999,17.2569999999999 12.5519999999999,17.878 C12.558,18.199 12.5650000000001,18.526 12.579,18.833 C12.5989999999999,19.5700000000001 12.6199999999999,20.184 12.558,20.654 C12.558,20.654 12.558,20.681 12.558,20.681 C12.21,23.478 9.7829999999999,21.5 8.923,20.538 C7.99600000000009,19.508 7.10899999999992,18.172 6.84300000000007,17.5309999999999 C6.76199999999994,17.326 6.40000000000009,17.1559999999999 6.01800000000003,16.958 C5.1110000000001,16.5069999999999 4.07400000000007,15.996 4.02700000000004,14.394 C3.99299999999994,13.357 4.19000000000005,12.593 4.33999999999992,12.047 C4.41499999999996,11.788 4.66799999999989,11.706 4.55799999999999,11.672 C4.35400000000004,11.611 4.00600000000009,11.679 3.65100000000007,11.761 C3.45399999999995,11.802 3.24900000000002,11.843 3.0440000000001,11.871 C2.96299999999997,12.402 2.92200000000003,12.947 2.92200000000003,13.4930000000001 C2.92200000000003,16.419 4.10899999999992,19.058 6.01800000000003,20.981 C6.01800000000003,20.981 6.01800000000003,20.981 6.01800000000003,20.981 C6.01800000000003,20.981 6.01800000000003,20.981 6.01800000000003,20.981 C7.13699999999994,22.1 8.5139999999999,22.973 10.0419999999999,23.498 C10.942,23.3339999999999 11.8689999999999,22.904 12.7280000000001,22.741 C14.652,22.386 16.5550000000001,22.0309999999999 18.6479999999999,22.741 C19.4939999999999,22.277 20.258,21.691 20.933,21.022 C20.933,21.022 20.981,20.981 20.981,20.981 C21.5060000000001,20.45 21.9770000000001,19.8630000000001 22.386,19.235 C21.963,19.59 21.5540000000001,19.856 21.1990000000001,20.019 C20.6880000000001,20.258 20.2170000000001,20.285 19.8889999999999,20.1079999999999 C19.8889999999999,20.1079999999999 19.8889999999999,20.1079999999999 19.8889999999999,20.1079999999999 C19.8889999999999,20.1079999999999 19.8889999999999,20.1079999999999 19.8889999999999,20.1079999999999 C19.7950000000001,20.054 19.7190000000001,19.999 19.6579999999999,19.931 C19.6579999999999,19.931 19.624,19.883 19.624,19.883 C18.751,18.874 19.194,17.545 19.644,16.174 C20.1210000000001,14.721 20.6189999999999,13.213 18.7850000000001,12.6609999999999 C18.4849999999999,12.566 18.1990000000001,12.443 17.9259999999999,12.307 C17.1959999999999,11.9109999999999 16.6300000000001,11.352 16.2750000000001,10.779 C15.375,9.33300000000003 15.9749999999999,8.50099999999998 16.9369999999999,7.43700000000001 C17.0930000000001,7.27300000000002 17.2429999999999,7.11000000000001 17.3530000000001,6.98099999999999 C16.5889999999999,7.02100000000002 15.607,7.06900000000002 15.143,5.815 C15.143,5.815 15.143,5.80799999999999 15.143,5.80799999999999 C15.143,5.80799999999999 15.143,5.815 15.143,5.815 C15.075,5.62299999999999 15.02,5.43200000000002 14.999,5.22800000000001 C14.999,5.22800000000001 14.9929999999999,5.18700000000001 14.9929999999999,5.18700000000001 C14.884,4.13600000000002 14.2909999999999,3.68700000000001 13.5740000000001,2.923 C13.5740000000001,2.923 13.499,2.923 13.499,2.923 C12.9200000000001,2.923 12.347,2.964 11.788,3.05900000000003 C11.788,3.05900000000003 11.788,3.05900000000003 11.788,3.05900000000003 ZM3.30999999999995,10.656 C3.30999999999995,10.656 3.41300000000001,10.629 3.41300000000001,10.629 C3.91699999999992,10.52 4.42900000000009,10.411 4.92699999999991,10.581 C5.84799999999996,10.888 5.70399999999995,11.413 5.45900000000006,12.348 C5.32899999999995,12.825 5.14499999999998,13.4930000000001 5.17200000000003,14.359 C5.19900000000007,15.274 5.90900000000011,15.621 6.52999999999997,15.9349999999999 C7.11599999999999,16.221 7.65499999999997,16.494 7.90000000000009,17.087 C8.13200000000006,17.639 8.9369999999999,18.833 9.77600000000007,19.774 C10.001,20.026 11.2829999999999,21.602 11.413,20.5309999999999 C11.4739999999999,19.986 11.4469999999999,19.413 11.433,18.867 C11.4190000000001,18.567 11.4059999999999,18.24 11.4059999999999,17.8920000000001 C11.3920000000001,17.373 11.3510000000001,16.971 11.3099999999999,16.658 C11.1669999999999,15.45 11.1400000000001,15.205 12.865,13.248 C13.1310000000001,12.947 13.288,12.6609999999999 13.356,12.402 C13.356,12.402 13.356,12.402 13.356,12.402 C13.4380000000001,12.0410000000001 13.3420000000001,11.706 13.152,11.42 C12.9200000000001,11.079 12.5519999999999,10.779 12.1420000000001,10.547 C11.556,10.22 10.874,10.036 10.3420000000001,10.036 C10.3420000000001,10.036 10.328,10.036 10.328,10.036 C8.077,10.036 7.4849999999999,10.036 7.44299999999998,8.82900000000001 C7.41599999999994,7.738 8.97800000000007,6.91899999999998 9.6869999999999,6.22399999999999 C10.124,5.79399999999998 10.355,4.53899999999999 10.546,3.48200000000003 C10.546,3.48200000000003 10.5740000000001,3.33199999999999 10.5740000000001,3.33199999999999 C8.84099999999989,3.82299999999998 7.29999999999995,4.75 6.05899999999997,5.97800000000001 C6.05899999999997,5.97800000000001 6.01800000000003,6.01900000000001 6.01800000000003,6.01900000000001 C4.75,7.28699999999998 3.80799999999999,8.87599999999998 3.30999999999995,10.656 C3.30999999999995,10.656 3.30999999999995,10.656 3.30999999999995,10.656 ZM16.875,23.532 C15.5519999999999,23.3819999999999 14.2560000000001,23.627 12.9469999999999,23.873 C12.7560000000001,23.914 12.558,23.955 12.3599999999999,24.016 C12.7349999999999,24.05 13.1099999999999,24.077 13.499,24.077 C14.6790000000001,24.077 15.8119999999999,23.88 16.875,23.532 C16.875,23.532 16.875,23.532 16.875,23.532 ZM23.7090000000001,15.744 C23.75,15.662 23.8040000000001,15.5940000000001 23.8789999999999,15.553 C24.009,14.885 24.077,14.202 24.077,13.4930000000001 C24.077,10.574 22.8900000000001,7.935 20.981,6.01900000000001 C20.981,6.01900000000001 20.981,6.01900000000001 20.981,6.01900000000001 C20.981,6.01900000000001 20.981,6.01900000000001 20.981,6.01900000000001 C19.453,4.49099999999999 17.4480000000001,3.428 15.211,3.05900000000003 C15.6890000000001,3.64499999999998 16.057,4.25900000000001 16.1389999999999,5.07100000000003 C16.1389999999999,5.07100000000003 16.1389999999999,5.08499999999998 16.1389999999999,5.08499999999998 C16.1590000000001,5.20699999999999 16.1800000000001,5.32400000000001 16.22,5.41899999999998 C16.22,5.41899999999998 16.22,5.41899999999998 16.22,5.41899999999998 C16.3910000000001,5.88200000000001 16.903,5.85500000000002 17.298,5.82799999999997 C17.9259999999999,5.80099999999999 18.431,5.77300000000002 18.6210000000001,6.45600000000002 C18.799,7.11000000000001 18.328,7.62799999999999 17.789,8.21499999999998 C17.1479999999999,8.92399999999998 16.6849999999999,9.26499999999999 17.25,10.179 C17.502,10.588 17.9259999999999,10.998 18.471,11.284 C18.6759999999999,11.393 18.894,11.489 19.126,11.556 C22.086,12.456 21.403,14.53 20.7349999999999,16.535 C20.4010000000001,17.558 20.0740000000001,18.554 20.463,19.086 C20.463,19.086 20.722,18.976 20.722,18.976 C21.0219999999999,18.84 21.3900000000001,18.581 21.7850000000001,18.226 C22.4269999999999,17.653 23.1220000000001,16.808 23.7090000000001,15.744 C23.7090000000001,15.744 23.7090000000001,15.744 23.7090000000001,15.744 ZM17.4280000000001,6.88499999999999 C17.489,6.81700000000001 17.5160000000001,6.76900000000001 17.509,6.755 C17.4690000000001,6.61900000000003 17.4690000000001,6.76900000000001 17.4280000000001,6.88499999999999 C17.4280000000001,6.88499999999999 17.4280000000001,6.88499999999999 17.4280000000001,6.88499999999999 Z "/>
</svg>
