<?xml version="1.0" encoding="utf-8"?>
<!DOCTYPE svg PUBLIC "-//W3C//DTD SVG 1.1//EN" "http://www.w3.org/Graphics/SVG/1.1/DTD/svg11.dtd">
<svg version="1.1" baseProfile="full"
 xmlns="http://www.w3.org/2000/svg"
 xmlns:xlink="http://www.w3.org/1999/xlink"
 xmlns:ev="http://www.w3.org/2001/xml-events" 
  height="26px" 
  width="28px" 
>
<path fill="rgb( 97, 194, 232 )"
 d="M18.693,23.805 C18.693,23.805 18.665,23.8200000000001 18.665,23.8200000000001 C17.1900000000001,25.359 14.742,25.351 13.2750000000001,23.805 C12.5650000000001,23.058 11.4159999999999,23.058 10.7070000000001,23.79 C10.7070000000001,23.79 10.6859999999999,23.805 10.6859999999999,23.805 C10.6859999999999,23.805 10.665,23.8200000000001 10.665,23.8200000000001 C9.19000000000005,25.359 6.74299999999994,25.351 5.27399999999989,23.805 C4.56600000000003,23.058 3.39499999999998,23.058 2.69399999999996,23.805 C2.29600000000005,24.224 1.66499999999996,24.224 1.27500000000009,23.805 C0.88400000000001,23.402 0.88400000000001,22.73 1.27500000000009,22.311 C2.3599999999999,21.176 4.02700000000004,20.818 5.44499999999994,21.4450000000001 C5.44499999999994,21.4450000000001 5.50199999999995,21.475 5.50199999999995,21.475 C5.94100000000003,21.669 6.3309999999999,21.9450000000001 6.6579999999999,22.282 C6.63599999999997,20.773 6.57199999999989,19.6 6.3309999999999,18.479 C6.04099999999994,17.1420000000001 5.48700000000008,15.813 4.45900000000006,13.923 C4.18200000000002,13.423 4.35300000000007,12.78 4.82099999999991,12.489 C4.82099999999991,12.489 4.87799999999993,12.451 4.87799999999993,12.451 C4.87799999999993,12.451 6.77099999999996,11.301 6.77099999999996,11.301 C6.77099999999996,11.301 6.77099999999996,6.84899999999999 6.77099999999996,6.84899999999999 C6.77099999999996,6.50599999999997 7.04099999999994,6.22199999999998 7.37400000000002,6.22199999999998 C7.37400000000002,6.22199999999998 7.3889999999999,6.22199999999998 7.3889999999999,6.22199999999998 C7.3889999999999,6.22199999999998 10.0619999999999,6.22199999999998 10.0619999999999,6.22199999999998 C10.0619999999999,6.22199999999998 10.0619999999999,4.21300000000002 10.0619999999999,4.21300000000002 C10.0619999999999,3.86200000000002 10.325,3.57799999999997 10.6569999999999,3.57799999999997 C10.6569999999999,3.57799999999997 10.6790000000001,3.57799999999997 10.6790000000001,3.57799999999997 C10.6790000000001,3.57799999999997 13.374,3.57799999999997 13.374,3.57799999999997 C13.374,3.57799999999997 13.374,0.65699999999998 13.374,0.65699999999998 C13.374,0.30599999999998 13.6510000000001,0.02199999999999 13.9839999999999,0.02199999999999 C14.3099999999999,0.02199999999999 14.5799999999999,0.30599999999998 14.5799999999999,0.65699999999998 C14.5799999999999,0.65699999999998 14.5799999999999,3.57799999999997 14.5799999999999,3.57799999999997 C14.5799999999999,3.57799999999997 17.3030000000001,3.57799999999997 17.3030000000001,3.57799999999997 C17.6289999999999,3.57799999999997 17.8989999999999,3.86200000000002 17.8989999999999,4.21300000000002 C17.8989999999999,4.21300000000002 17.8989999999999,4.22699999999998 17.8989999999999,4.22699999999998 C17.8989999999999,4.22699999999998 17.8989999999999,6.22199999999998 17.8989999999999,6.22199999999998 C17.8989999999999,6.22199999999998 20.586,6.22199999999998 20.586,6.22199999999998 C20.9200000000001,6.22199999999998 21.1890000000001,6.50599999999997 21.1890000000001,6.84899999999999 C21.1890000000001,6.84899999999999 21.1890000000001,6.86399999999998 21.1890000000001,6.86399999999998 C21.1890000000001,6.86399999999998 21.1890000000001,11.301 21.1890000000001,11.301 C21.1890000000001,11.301 23.1320000000001,12.489 23.1320000000001,12.489 C23.614,12.78 23.771,13.415 23.501,13.915 C23.501,13.915 23.4870000000001,13.9450000000001 23.4870000000001,13.9450000000001 C22.6220000000001,15.529 22.0830000000001,16.739 21.771,17.904 C21.473,18.995 21.3599999999999,20.0700000000001 21.317,21.4 C21.827,21.5940000000001 22.289,21.901 22.693,22.311 C23.395,23.058 24.558,23.066 25.2739999999999,22.311 C25.6569999999999,21.908 26.296,21.908 26.6859999999999,22.311 C27.076,22.73 27.076,23.402 26.6859999999999,23.805 C25.6010000000001,24.948 23.934,25.299 22.5160000000001,24.672 C22.5160000000001,24.672 22.5160000000001,24.672 22.5160000000001,24.672 C22.04,24.47 21.6220000000001,24.179 21.2750000000001,23.805 C20.5650000000001,23.058 19.4159999999999,23.058 18.7070000000001,23.79 C18.7070000000001,23.79 18.693,23.805 18.693,23.805 C18.693,23.805 18.693,23.805 18.693,23.805 ZM14.5799999999999,9.702 C14.5799999999999,9.702 14.5799999999999,22.207 14.5799999999999,22.207 C14.5799999999999,22.207 14.6859999999999,22.311 14.6859999999999,22.311 C15.3879999999999,23.051 16.537,23.066 17.26,22.341 C17.26,22.341 17.2750000000001,22.311 17.2750000000001,22.311 C17.8489999999999,21.7140000000001 18.5799999999999,21.34 19.3309999999999,21.206 C19.3879999999999,19.749 19.5160000000001,18.561 19.856,17.321 C20.154,16.2380000000001 20.5930000000001,15.133 21.288,13.788 C21.288,13.788 14.5799999999999,9.702 14.5799999999999,9.702 C14.5799999999999,9.702 14.5799999999999,9.702 14.5799999999999,9.702 ZM13.374,21.415 C13.374,21.415 13.374,9.702 13.374,9.702 C13.374,9.702 6.67900000000009,13.788 6.67900000000009,13.788 C7.50199999999995,15.409 7.98399999999992,16.694 8.27500000000009,18.023 C8.57999999999993,19.428 8.63599999999997,20.847 8.65100000000007,22.744 C8.87100000000009,22.655 9.07600000000002,22.52 9.25399999999991,22.341 C9.25399999999991,22.341 9.27500000000009,22.311 9.27500000000009,22.311 C9.27500000000009,22.311 9.28899999999999,22.296 9.28899999999999,22.296 C10.3530000000001,21.191 11.9770000000001,20.832 13.374,21.415 C13.374,21.415 13.374,21.415 13.374,21.415 ZM7.97000000000003,10.569 C7.97000000000003,10.569 13.4870000000001,7.22300000000001 13.4870000000001,7.22300000000001 C13.8,7.02800000000002 14.182,7.04399999999998 14.48,7.22300000000001 C14.48,7.22300000000001 14.48,7.22300000000001 14.48,7.22300000000001 C14.48,7.22300000000001 19.9829999999999,10.569 19.9829999999999,10.569 C19.9829999999999,10.569 19.9829999999999,7.476 19.9829999999999,7.476 C19.9829999999999,7.476 17.317,7.476 17.317,7.476 C17.317,7.476 17.3030000000001,7.476 17.3030000000001,7.476 C16.97,7.476 16.7070000000001,7.19999999999999 16.7070000000001,6.84899999999999 C16.7070000000001,6.84899999999999 16.7070000000001,4.84800000000001 16.7070000000001,4.84800000000001 C14.8920000000001,4.84800000000001 13.076,4.84800000000001 11.261,4.84800000000001 C11.261,4.84800000000001 11.261,6.834 11.261,6.834 C11.261,6.834 11.261,6.84899999999999 11.261,6.84899999999999 C11.261,7.19999999999999 10.991,7.476 10.6569999999999,7.476 C10.6569999999999,7.476 7.97000000000003,7.476 7.97000000000003,7.476 C7.97000000000003,7.476 7.97000000000003,10.569 7.97000000000003,10.569 C7.97000000000003,10.569 7.97000000000003,10.569 7.97000000000003,10.569 Z "/>
</svg>
