<?xml version="1.0" encoding="utf-8"?>
<!DOCTYPE svg PUBLIC "-//W3C//DTD SVG 1.1//EN" "http://www.w3.org/Graphics/SVG/1.1/DTD/svg11.dtd">
<svg version="1.1" baseProfile="full"
 xmlns="http://www.w3.org/2000/svg"
 xmlns:xlink="http://www.w3.org/1999/xlink"
 xmlns:ev="http://www.w3.org/2001/xml-events" 
  height="16px" 
  width="12px" 
>
<path fill="rgb( 187, 178, 150 )"
 d="M1.80500000000006,5.68100000000001 C1.80500000000006,5.68100000000001 1.81799999999998,5.68100000000001 1.81799999999998,5.68100000000001 C1.81799999999998,5.68100000000001 10.184,5.68100000000001 10.184,5.68100000000001 C10.184,5.68100000000001 10.1969999999999,5.68100000000001 10.1969999999999,5.68100000000001 C10.1969999999999,5.68100000000001 10.951,5.68100000000001 10.951,5.68100000000001 C10.951,5.68100000000001 10.951,4.126 10.951,4.126 C10.951,4.126 1.03899999999999,4.126 1.03899999999999,4.126 C1.03899999999999,4.126 1.03899999999999,5.68100000000001 1.03899999999999,5.68100000000001 C1.03899999999999,5.68100000000001 1.79199999999992,5.68100000000001 1.79199999999992,5.68100000000001 C1.79199999999992,5.68100000000001 1.80500000000006,5.68100000000001 1.80500000000006,5.68100000000001 C1.80500000000006,5.68100000000001 1.80500000000006,5.68100000000001 1.80500000000006,5.68100000000001 ZM3.59400000000005,0.99600000000001 C3.59400000000005,0.99600000000001 3.59400000000005,0.99600000000001 3.59400000000005,0.99600000000001 C3.59400000000005,0.99600000000001 3.60699999999997,0.99600000000001 3.60699999999997,0.99600000000001 C3.60699999999997,0.99600000000001 8.39599999999996,0.99600000000001 8.39599999999996,0.99600000000001 C8.68299999999999,0.99600000000001 8.91399999999999,1.25399999999999 8.91399999999999,1.571 C8.91399999999999,1.571 8.91399999999999,1.58799999999999 8.91399999999999,1.58799999999999 C8.91399999999999,1.58799999999999 8.91399999999999,2.97399999999999 8.91399999999999,2.97399999999999 C8.91399999999999,2.97399999999999 11.471,2.97399999999999 11.471,2.97399999999999 C11.758,2.97399999999999 11.99,3.23099999999999 11.99,3.547 C11.99,3.547 11.99,3.565 11.99,3.565 C11.99,3.565 11.99,6.261 11.99,6.261 C11.99,6.578 11.758,6.834 11.471,6.834 C11.471,6.834 11.4580000000001,6.834 11.4580000000001,6.834 C11.4580000000001,6.834 10.7049999999999,6.834 10.7049999999999,6.834 C10.7049999999999,6.834 10.7049999999999,15.414 10.7049999999999,15.414 C10.7049999999999,15.731 10.473,15.991 10.184,15.991 C10.184,15.991 10.172,15.991 10.172,15.991 C10.172,15.991 1.80500000000006,15.991 1.80500000000006,15.991 C1.51999999999998,15.991 1.28700000000003,15.731 1.28700000000003,15.414 C1.28700000000003,15.414 1.28700000000003,15.395 1.28700000000003,15.395 C1.28700000000003,15.395 1.28700000000003,6.834 1.28700000000003,6.834 C1.28700000000003,6.834 0.52199999999993,6.834 0.52199999999993,6.834 C0.2349999999999,6.834 0.00399999999991,6.578 0.00399999999991,6.261 C0.00399999999991,6.261 0.00399999999991,6.244 0.00399999999991,6.244 C0.00399999999991,6.244 0.00399999999991,3.547 0.00399999999991,3.547 C0.00399999999991,3.23099999999999 0.2349999999999,2.97399999999999 0.52199999999993,2.97399999999999 C0.52199999999993,2.97399999999999 0.5329999999999,2.97399999999999 0.5329999999999,2.97399999999999 C0.5329999999999,2.97399999999999 3.077,2.97399999999999 3.077,2.97399999999999 C3.077,2.97399999999999 3.077,1.571 3.077,1.571 C3.077,1.25399999999999 3.30700000000002,0.99600000000001 3.59400000000005,0.99600000000001 C3.59400000000005,0.99600000000001 3.59400000000005,0.99600000000001 3.59400000000005,0.99600000000001 ZM7.87899999999991,2.149 C7.87899999999991,2.149 7.87899999999991,2.149 7.87899999999991,2.149 C7.87899999999991,2.149 4.11400000000003,2.149 4.11400000000003,2.149 C4.11400000000003,2.149 4.11400000000003,2.87100000000001 4.11400000000003,2.87100000000001 C4.11400000000003,2.87100000000001 7.87899999999991,2.87100000000001 7.87899999999991,2.87100000000001 C7.87899999999991,2.87100000000001 7.87899999999991,2.149 7.87899999999991,2.149 C7.87899999999991,2.149 7.87899999999991,2.149 7.87899999999991,2.149 ZM4.15100000000007,6.834 C4.15100000000007,6.834 4.15100000000007,6.834 4.15100000000007,6.834 C4.15100000000007,6.834 4.15100000000007,13.506 4.15100000000007,13.506 C4.15100000000007,13.696 4.00900000000001,13.852 3.83799999999997,13.852 C3.66699999999992,13.852 3.52999999999997,13.696 3.52999999999997,13.506 C3.52999999999997,13.506 3.52999999999997,6.834 3.52999999999997,6.834 C3.52999999999997,6.834 2.32400000000007,6.834 2.32400000000007,6.834 C2.32400000000007,6.834 2.32400000000007,14.835 2.32400000000007,14.835 C2.32400000000007,14.835 9.66799999999989,14.835 9.66799999999989,14.835 C9.66799999999989,14.835 9.66799999999989,6.834 9.66799999999989,6.834 C9.66799999999989,6.834 8.46199999999999,6.834 8.46199999999999,6.834 C8.46199999999999,6.834 8.46199999999999,13.506 8.46199999999999,13.506 C8.46199999999999,13.696 8.32199999999989,13.852 8.15100000000007,13.852 C7.97800000000007,13.852 7.83899999999994,13.696 7.83899999999994,13.506 C7.83899999999994,13.506 7.83899999999994,6.834 7.83899999999994,6.834 C7.83899999999994,6.834 6.30500000000006,6.834 6.30500000000006,6.834 C6.30500000000006,6.834 6.30500000000006,13.506 6.30500000000006,13.506 C6.30500000000006,13.696 6.16599999999994,13.852 5.99299999999994,13.852 C5.82600000000002,13.852 5.68399999999997,13.696 5.68399999999997,13.506 C5.68399999999997,13.506 5.68399999999997,6.834 5.68399999999997,6.834 C5.68399999999997,6.834 4.15100000000007,6.834 4.15100000000007,6.834 C4.15100000000007,6.834 4.15100000000007,6.834 4.15100000000007,6.834 Z "/>
</svg>
