<?xml version="1.0" encoding="utf-8"?>
<!DOCTYPE svg PUBLIC "-//W3C//DTD SVG 1.1//EN" "http://www.w3.org/Graphics/SVG/1.1/DTD/svg11.dtd">
<svg version="1.1" baseProfile="full"
 xmlns="http://www.w3.org/2000/svg"
 xmlns:xlink="http://www.w3.org/1999/xlink"
 xmlns:ev="http://www.w3.org/2001/xml-events" 
  height="13px" 
  width="16px" 
>
<path fill="rgb( 255, 255, 255 )"
 d="M15.331,2.11500000000001 C14.773,2.35500000000002 14.168,2.52800000000002 13.543,2.596 C14.187,2.21100000000001 14.677,1.60599999999999 14.908,0.88499999999999 C14.312,1.24099999999999 13.639,1.5 12.937,1.63499999999999 C12.371,1.029 11.563,0.654 10.669,0.654 C8.94899999999996,0.654 7.56500000000005,2.048 7.56500000000005,3.75900000000001 C7.56500000000005,3.99900000000002 7.59400000000005,4.23899999999998 7.64200000000005,4.47000000000003 C5.06600000000003,4.33499999999998 2.76900000000001,3.10500000000002 1.24099999999999,1.221 C0.97199999999998,1.68299999999999 0.81799999999998,2.21100000000001 0.81799999999998,2.78800000000001 C0.81799999999998,3.86399999999998 1.36599999999999,4.81599999999997 2.202,5.37299999999999 C1.69299999999998,5.35399999999999 1.21199999999999,5.20999999999998 0.79899999999998,4.97899999999999 C0.79899999999998,4.98899999999998 0.79899999999998,5.00799999999998 0.79899999999998,5.01799999999997 C0.79899999999998,6.52699999999999 1.86599999999999,7.77600000000001 3.28800000000001,8.06400000000002 C3.029,8.13200000000001 2.75,8.17000000000002 2.471,8.17000000000002 C2.26900000000001,8.17000000000002 2.077,8.15100000000001 1.88499999999999,8.12200000000001 C2.279,9.35199999999998 3.423,10.246 4.78700000000003,10.275 C3.721,11.111 2.38499999999999,11.601 0.93299999999999,11.601 C0.67399999999998,11.601 0.43399999999997,11.592 0.18399999999997,11.563 C1.55799999999999,12.447 3.19200000000001,12.956 4.95100000000002,12.956 C10.66,12.956 13.783,8.22800000000001 13.783,4.12400000000002 C13.783,3.98899999999998 13.783,3.85500000000002 13.774,3.72000000000003 C14.379,3.27800000000002 14.908,2.73000000000002 15.331,2.11500000000001 Z "/>
</svg>
