<?xml version="1.0" encoding="utf-8"?>
<!DOCTYPE svg PUBLIC "-//W3C//DTD SVG 1.1//EN" "http://www.w3.org/Graphics/SVG/1.1/DTD/svg11.dtd">
<svg version="1.1" baseProfile="full"
 xmlns="http://www.w3.org/2000/svg"
 xmlns:xlink="http://www.w3.org/1999/xlink"
 xmlns:ev="http://www.w3.org/2001/xml-events" 
  height="27px" 
  width="42px" 
>
<path fill="rgb( 128, 164, 70 )"
 d="M40.842,13.1439999999998 C38.866,9.25599999999986 35.967,6.00700000000006 32.47,3.75300000000016 C29.099,1.57600000000002 25.168,0.33100000000013 20.98,0.33100000000013 C16.792,0.33100000000013 12.857,1.57600000000002 9.47799999999995,3.75300000000016 C5.98800000000006,6.00700000000006 3.08799999999997,9.25599999999986 1.11199999999997,13.1439999999998 C0.96000000000004,13.453 0.94399999999996,13.837 1.11199999999997,14.1709999999998 C3.08799999999997,18.0520000000001 5.98800000000006,21.3069999999998 9.47799999999995,23.5549999999998 C12.857,25.7260000000001 16.792,26.9839999999999 20.98,26.9839999999999 C25.168,26.9839999999999 29.099,25.7260000000001 32.47,23.5549999999998 C35.967,21.3069999999998 38.866,18.0520000000001 40.842,14.1709999999998 C41,13.8609999999999 41.0170000000001,13.471 40.842,13.1439999999998 C40.842,13.1439999999998 40.842,13.1439999999998 40.842,13.1439999999998 ZM10.447,21.7530000000002 C10.447,21.7530000000002 10.447,21.7530000000002 10.447,21.7530000000002 C7.39999999999998,19.7849999999999 4.84400000000005,17 3.03800000000001,13.6570000000002 C4.84400000000005,10.3139999999999 7.39999999999998,7.51699999999983 10.447,5.55400000000009 C12.8390000000001,4.01899999999978 15.5359999999999,2.97400000000016 18.424,2.59099999999989 C16.5890000000001,3.10399999999981 14.944,4.15599999999995 13.644,5.57999999999993 C13.644,5.57999999999993 13.638,5.5920000000001 13.638,5.5920000000001 C11.763,7.65999999999985 10.599,10.5189999999998 10.599,13.6570000000002 C10.599,16.7959999999998 11.763,19.6489999999999 13.638,21.7159999999999 C13.638,21.7159999999999 13.638,21.7220000000002 13.638,21.7220000000002 C13.638,21.7220000000002 13.644,21.7220000000002 13.644,21.7220000000002 C14.944,23.152 16.5890000000001,24.2040000000002 18.424,24.712 C15.5359999999999,24.335 12.8390000000001,23.2890000000002 10.447,21.7530000000002 C10.447,21.7530000000002 10.447,21.7530000000002 10.447,21.7530000000002 ZM14.984,20.2429999999999 C14.984,20.2429999999999 14.984,20.2429999999999 14.984,20.2429999999999 C13.453,18.5590000000002 12.5069999999999,16.2249999999999 12.5069999999999,13.6570000000002 C12.5069999999999,8.51999999999998 16.307,4.32999999999993 20.98,4.32999999999993 C25.63,4.32999999999993 29.458,8.54500000000007 29.458,13.6570000000002 C29.458,16.2249999999999 28.5069999999999,18.5590000000002 26.976,20.2429999999999 C25.4450000000001,21.9259999999999 23.322,22.9780000000001 20.98,22.9780000000001 C18.638,22.9780000000001 16.51,21.9259999999999 14.984,20.2429999999999 C14.984,20.2429999999999 14.984,20.2429999999999 14.984,20.2429999999999 ZM31.513,21.7530000000002 C31.513,21.7530000000002 31.513,21.7530000000002 31.513,21.7530000000002 C29.115,23.2890000000002 26.424,24.335 23.5410000000001,24.712 C25.371,24.2040000000002 27.01,23.152 28.316,21.7220000000002 C28.316,21.7220000000002 28.316,21.7159999999999 28.316,21.7159999999999 C30.202,19.6489999999999 31.362,16.7959999999998 31.362,13.6570000000002 C31.362,10.5189999999998 30.202,7.65999999999985 28.316,5.5920000000001 C27.01,4.13799999999992 25.349,3.10399999999981 23.5410000000001,2.59099999999989 C26.424,2.97400000000016 29.115,4.01899999999978 31.513,5.55400000000009 C34.5650000000001,7.51000000000022 37.115,10.3139999999999 38.9160000000001,13.6570000000002 C37.115,17 34.5650000000001,19.7910000000002 31.513,21.7530000000002 C31.513,21.7530000000002 31.513,21.7530000000002 31.513,21.7530000000002 ZM20.98,7.17099999999982 C20.98,7.17099999999982 20.98,7.17099999999982 20.98,7.17099999999982 C17.7430000000001,7.17099999999982 15.085,10.0909999999999 15.085,13.6570000000002 C15.085,17.2170000000001 17.7430000000001,20.1370000000002 20.98,20.1370000000002 C24.217,20.1370000000002 26.875,17.2170000000001 26.875,13.6570000000002 C26.875,10.0909999999999 24.217,7.17099999999982 20.98,7.17099999999982 C20.98,7.17099999999982 20.98,7.17099999999982 20.98,7.17099999999982 ZM20.98,16.6529999999998 C20.98,16.6529999999998 20.98,16.6529999999998 20.98,16.6529999999998 C19.477,16.6529999999998 18.255,15.3159999999998 18.255,13.6570000000002 C18.255,11.998 19.477,10.6619999999998 20.98,10.6619999999998 C24.684,10.6619999999998 24.33,16.6529999999998 20.98,16.6529999999998 C20.98,16.6529999999998 20.98,16.6529999999998 20.98,16.6529999999998 Z "/>
</svg>
