<svg baseProfile="full" xmlns="http://www.w3.org/2000/svg" height="18" width="15"><path fill="rgb( 255, 255, 255 )" d="M13.789 9.826c-.649-.699-1.512-1.162-2.59-1.388v-.094c.75-.313 1.338-.801 1.764-1.465.426-.664.639-1.422.639-2.274 0-.734-.155-1.382-.463-1.945-.309-.562-.776-1.012-1.401-1.347-.578-.313-1.197-.518-1.857-.616-.66-.097-1.631-.146-2.912-.146h-6.164v17.449h6.984c1.211 0 2.209-.109 2.994-.328.785-.219 1.506-.586 2.162-1.102.555-.429.996-.972 1.324-1.629.329-.656.493-1.418.493-2.285 0-1.187-.325-2.131-.973-2.83zm-4.84-3.334c-.133.289-.375.516-.726.68-.321.148-.631.23-.932.246-.301.016-.826.023-1.576.023h-.551v-3.691h.305c.781 0 1.369.006 1.763.018.395.011.737.08 1.026.205.304.133.529.347.674.644.144.297.216.586.216.867 0 .383-.066.719-.199 1.008zm1.025 7.213c-.183.332-.474.584-.872.756-.454.195-.899.301-1.336.316-.438.016-1.227.024-2.368.024h-.234v-4.371h.809c.781 0 1.404.006 1.869.017.464.012.83.069 1.095.17.438.157.766.387.985.692.218.304.328.726.328 1.265 0 .422-.092.799-.276 1.131z"/></svg>