<?xml version="1.0" encoding="utf-8"?>
<!DOCTYPE svg PUBLIC "-//W3C//DTD SVG 1.1//EN" "http://www.w3.org/Graphics/SVG/1.1/DTD/svg11.dtd">
<svg version="1.1" baseProfile="full"
 xmlns="http://www.w3.org/2000/svg"
 xmlns:xlink="http://www.w3.org/1999/xlink"
 xmlns:ev="http://www.w3.org/2001/xml-events" 
  height="28px" 
  width="28px" 
>
<path fill="rgb( 93, 193, 232 )"
 d="M13.162,8.536 C12.771,8.92699999999999 12.135,8.92699999999999 11.744,8.536 C11.357,8.14599999999999 11.357,7.51400000000001 11.744,7.119 C11.744,7.119 15.987,2.88200000000001 15.987,2.88200000000001 C15.987,2.88200000000001 15.987,2.88200000000001 15.987,2.88200000000001 C17.242,1.625 18.901,0.99600000000001 20.556,0.99600000000001 C24.125,0.99600000000001 27.006,3.88399999999999 27.006,7.44900000000001 C27.006,9.10499999999999 26.381,10.763 25.123,12.018 C25.123,12.018 20.556,16.581 20.556,16.581 C20.556,16.581 20.496,16.631 20.496,16.631 C19.249,17.853 17.6180000000001,18.467 15.987,18.467 C13.688,18.467 11.591,17.249 10.4400000000001,15.327 C10.4400000000001,15.327 10.4400000000001,15.321 10.4400000000001,15.321 C10.1660000000001,14.859 9.95299999999997,14.365 9.79999999999995,13.864 C9.64700000000005,13.335 9.94600000000003,12.778 10.472,12.618 C11.005,12.465 11.559,12.763 11.7190000000001,13.293 C11.822,13.64 11.971,13.985 12.16,14.304 C12.952,15.629 14.417,16.468 15.987,16.468 C17.1130000000001,16.468 18.24,16.049 19.099,15.21 C19.099,15.21 19.139,15.168 19.139,15.168 C19.139,15.168 23.705,10.6 23.705,10.6 C24.576,9.73699999999999 25.005,8.59399999999999 25.005,7.44900000000001 C25.005,4.98500000000001 23.019,2.999 20.556,2.999 C19.412,2.999 18.268,3.43299999999999 17.405,4.29900000000001 C17.405,4.29900000000001 17.397,4.29900000000001 17.397,4.29900000000001 C17.397,4.29900000000001 13.162,8.536 13.162,8.536 C13.162,8.536 13.162,8.536 13.162,8.536 ZM14.825,19.479 C14.825,19.479 14.825,19.479 14.825,19.479 C14.825,19.479 10.586,23.717 10.586,23.717 C8.87,25.432 5.99400000000003,25.443 4.27800000000002,23.724 C4.27800000000002,23.724 4.27800000000002,23.721 4.27800000000002,23.721 C4.27800000000002,23.721 4.27800000000002,23.717 4.27800000000002,23.717 C2.55100000000004,21.998 2.55100000000004,19.139 4.27800000000002,17.416 C4.27800000000002,17.416 8.84400000000005,12.848 8.84400000000005,12.848 C9.71199999999999,11.985 10.852,11.552 12,11.552 C13.144,11.552 14.285,11.985 15.152,12.848 C15.152,12.848 15.152,12.852 15.152,12.852 C15.422,13.118 15.646,13.41 15.827,13.712 C16.015,14.035 16.165,14.372 16.268,14.72 C16.424,15.249 16.978,15.551 17.508,15.395 C18.033,15.242 18.3390000000001,14.685 18.182,14.155 C18.03,13.644 17.8200000000001,13.154 17.547,12.695 C17.276,12.241 16.95,11.815 16.5700000000001,11.435 C15.312,10.177 13.6559999999999,9.54900000000001 12,9.54900000000001 C10.34,9.54900000000001 8.68499999999995,10.177 7.42600000000004,11.435 C7.42600000000004,11.435 2.86099999999999,15.999 2.86099999999999,15.999 C0.36199999999997,18.496 0.36199999999997,22.637 2.86099999999999,25.134 C2.86099999999999,25.134 2.92100000000005,25.191 2.92100000000005,25.191 C5.42600000000004,27.628 9.49800000000005,27.61 11.978,25.152 C11.978,25.152 11.996,25.134 11.996,25.134 C11.996,25.134 12,25.13 12,25.13 C12,25.13 16.239,20.89 16.239,20.89 C16.63,20.499 16.63,19.871 16.236,19.479 C15.848,19.089 15.212,19.089 14.825,19.479 C14.825,19.479 14.825,19.479 14.825,19.479 Z "/>
</svg>
