<?xml version="1.0" encoding="utf-8"?>
<!DOCTYPE svg PUBLIC "-//W3C//DTD SVG 1.1//EN" "http://www.w3.org/Graphics/SVG/1.1/DTD/svg11.dtd">
<svg version="1.1" baseProfile="full"
 xmlns="http://www.w3.org/2000/svg"
 xmlns:xlink="http://www.w3.org/1999/xlink"
 xmlns:ev="http://www.w3.org/2001/xml-events" 
  height="23px" 
  width="23px" 
>
<path fill="rgb( 93, 193, 232 )"
 d="M9.01900000000001,11.683 C9.27999999999997,11.944 9.64099999999996,12.103 10.034,12.103 C10.433,12.103 10.794,11.944 11.055,11.683 C11.317,11.422 11.476,11.062 11.476,10.662 C11.476,10.269 11.314,9.90799999999999 11.055,9.64699999999999 C11.055,9.64699999999999 11.052,9.64400000000001 11.052,9.64400000000001 C10.7910000000001,9.386 10.43,9.22399999999999 10.034,9.22399999999999 C9.64099999999996,9.22399999999999 9.27999999999997,9.386 9.01900000000001,9.64400000000001 C9.01900000000001,9.64400000000001 9.01599999999996,9.64699999999999 9.01599999999996,9.64699999999999 C8.75800000000004,9.90799999999999 8.59199999999998,10.269 8.59199999999998,10.662 C8.59199999999998,11.058 8.75800000000004,11.419 9.01300000000003,11.68 C9.01300000000003,11.68 9.01900000000001,11.683 9.01900000000001,11.683 C9.01900000000001,11.683 9.01900000000001,11.683 9.01900000000001,11.683 ZM9.73299999999995,10.362 C9.73299999999995,10.362 9.73299999999995,10.362 9.73299999999995,10.362 C9.73299999999995,10.362 9.73299999999995,10.362 9.73299999999995,10.362 C9.81200000000001,10.287 9.91700000000003,10.239 10.034,10.239 C10.154,10.239 10.2619999999999,10.287 10.3339999999999,10.362 C10.3339999999999,10.362 10.3339999999999,10.362 10.3339999999999,10.362 C10.4160000000001,10.437 10.46,10.545 10.46,10.662 C10.46,10.782 10.4160000000001,10.887 10.3339999999999,10.966 C10.259,11.041 10.154,11.089 10.034,11.089 C9.91700000000003,11.089 9.80899999999997,11.041 9.73299999999995,10.966 C9.65800000000002,10.891 9.61000000000001,10.782 9.61000000000001,10.662 C9.61000000000001,10.545 9.65800000000002,10.437 9.73299999999995,10.362 C9.73299999999995,10.362 9.73299999999995,10.362 9.73299999999995,10.362 ZM9.01900000000001,15.518 C9.01900000000001,15.518 9.01900000000001,15.518 9.01900000000001,15.518 C9.27999999999997,15.776 9.64099999999996,15.939 10.034,15.939 C10.43,15.939 10.7910000000001,15.776 11.052,15.518 C11.052,15.518 11.055,15.512 11.055,15.512 C11.314,15.25 11.476,14.89 11.476,14.497 C11.476,14.1 11.314,13.74 11.055,13.479 C11.055,13.479 11.052,13.479 11.052,13.479 C10.7910000000001,13.218 10.43,13.055 10.034,13.055 C9.64099999999996,13.055 9.27999999999997,13.218 9.01900000000001,13.479 C9.01900000000001,13.479 9.01599999999996,13.479 9.01599999999996,13.479 C8.75800000000004,13.74 8.59199999999998,14.103 8.59199999999998,14.497 C8.59199999999998,14.89 8.75800000000004,15.25 9.01599999999996,15.512 C9.01599999999996,15.512 9.01900000000001,15.518 9.01900000000001,15.518 C9.01900000000001,15.518 9.01900000000001,15.518 9.01900000000001,15.518 ZM9.73299999999995,14.197 C9.73299999999995,14.197 9.73299999999995,14.197 9.73299999999995,14.197 C9.73299999999995,14.197 9.73299999999995,14.194 9.73299999999995,14.194 C9.81200000000001,14.119 9.91700000000003,14.073 10.034,14.073 C10.154,14.073 10.2619999999999,14.119 10.3339999999999,14.194 C10.3339999999999,14.194 10.3339999999999,14.197 10.3339999999999,14.197 C10.4160000000001,14.272 10.46,14.377 10.46,14.497 C10.46,14.614 10.4160000000001,14.722 10.3339999999999,14.797 C10.3339999999999,14.797 10.3339999999999,14.8 10.3339999999999,14.8 C10.2619999999999,14.875 10.154,14.923 10.034,14.923 C9.91700000000003,14.923 9.81200000000001,14.875 9.73299999999995,14.8 C9.73299999999995,14.8 9.73299999999995,14.797 9.73299999999995,14.797 C9.65800000000002,14.722 9.61000000000001,14.614 9.61000000000001,14.497 C9.61000000000001,14.377 9.65800000000002,14.272 9.73299999999995,14.197 C9.73299999999995,14.197 9.73299999999995,14.197 9.73299999999995,14.197 ZM16.831,11.683 C16.831,11.683 16.831,11.683 16.831,11.683 C17.092,11.944 17.452,12.103 17.849,12.103 C18.248,12.103 18.605,11.944 18.867,11.683 C19.125,11.422 19.29,11.062 19.29,10.662 C19.29,10.269 19.125,9.90799999999999 18.867,9.64699999999999 C18.867,9.64699999999999 18.867,9.64400000000001 18.867,9.64400000000001 C18.602,9.386 18.242,9.22399999999999 17.849,9.22399999999999 C17.455,9.22399999999999 17.092,9.386 16.831,9.64400000000001 C16.831,9.64400000000001 16.831,9.64699999999999 16.831,9.64699999999999 C16.572,9.90799999999999 16.407,10.269 16.407,10.662 C16.407,11.058 16.572,11.419 16.825,11.68 C16.825,11.68 16.831,11.683 16.831,11.683 C16.831,11.683 16.831,11.683 16.831,11.683 ZM17.545,10.362 C17.545,10.362 17.545,10.362 17.545,10.362 C17.545,10.362 17.545,10.362 17.545,10.362 C17.62,10.287 17.729,10.239 17.849,10.239 C17.966,10.239 18.077,10.287 18.149,10.362 C18.149,10.362 18.149,10.362 18.149,10.362 C18.224,10.437 18.269,10.545 18.269,10.662 C18.269,10.782 18.224,10.887 18.149,10.966 C18.071,11.041 17.966,11.089 17.849,11.089 C17.729,11.089 17.62,11.041 17.545,10.966 C17.467,10.891 17.422,10.782 17.422,10.662 C17.422,10.545 17.467,10.437 17.545,10.362 C17.545,10.362 17.545,10.362 17.545,10.362 ZM12.926,11.683 C12.926,11.683 12.926,11.683 12.926,11.683 C13.1849999999999,11.944 13.545,12.103 13.941,12.103 C14.341,12.103 14.701,11.944 14.962,11.683 C15.221,11.422 15.38,11.062 15.38,10.662 C15.38,10.269 15.221,9.90799999999999 14.962,9.64699999999999 C14.962,9.64699999999999 14.957,9.64400000000001 14.957,9.64400000000001 C14.6950000000001,9.386 14.332,9.22399999999999 13.941,9.22399999999999 C13.548,9.22399999999999 13.188,9.386 12.926,9.64400000000001 C12.926,9.64400000000001 12.923,9.64699999999999 12.923,9.64699999999999 C12.662,9.90799999999999 12.5,10.269 12.5,10.662 C12.5,11.058 12.662,11.419 12.923,11.68 C12.923,11.68 12.926,11.683 12.926,11.683 C12.926,11.683 12.926,11.683 12.926,11.683 ZM13.641,10.362 C13.641,10.362 13.641,10.362 13.641,10.362 C13.641,10.362 13.641,10.362 13.641,10.362 C13.716,10.287 13.821,10.239 13.941,10.239 C14.059,10.239 14.167,10.287 14.242,10.362 C14.242,10.362 14.244,10.362 14.244,10.362 C14.323,10.437 14.3680000000001,10.545 14.3680000000001,10.662 C14.3680000000001,10.782 14.3200000000001,10.887 14.242,10.966 C14.167,11.041 14.059,11.089 13.941,11.089 C13.821,11.089 13.716,11.041 13.641,10.966 C13.563,10.891 13.518,10.782 13.518,10.662 C13.518,10.545 13.563,10.437 13.641,10.362 C13.641,10.362 13.641,10.362 13.641,10.362 ZM9.01900000000001,19.347 C9.01900000000001,19.347 9.01900000000001,19.347 9.01900000000001,19.347 C9.27999999999997,19.608 9.64099999999996,19.77 10.034,19.77 C10.43,19.77 10.7910000000001,19.608 11.052,19.347 C11.052,19.347 11.055,19.347 11.055,19.347 C11.314,19.086 11.476,18.725 11.476,18.329 C11.476,17.936 11.314,17.575 11.055,17.314 C11.055,17.314 11.052,17.311 11.052,17.311 C10.7910000000001,17.049 10.43,16.89 10.034,16.89 C9.64099999999996,16.89 9.27999999999997,17.049 9.01900000000001,17.311 C9.01900000000001,17.311 9.01599999999996,17.314 9.01599999999996,17.314 C8.75800000000004,17.575 8.59199999999998,17.936 8.59199999999998,18.329 C8.59199999999998,18.722 8.75800000000004,19.086 9.01599999999996,19.347 C9.01599999999996,19.347 9.01900000000001,19.347 9.01900000000001,19.347 C9.01900000000001,19.347 9.01900000000001,19.347 9.01900000000001,19.347 ZM9.73299999999995,18.028 C9.73299999999995,18.028 9.73299999999995,18.028 9.73299999999995,18.028 C9.73299999999995,18.028 9.73299999999995,18.028 9.73299999999995,18.028 C9.81200000000001,17.95 9.91700000000003,17.902 10.034,17.902 C10.154,17.902 10.2619999999999,17.95 10.3339999999999,18.028 C10.3339999999999,18.028 10.3339999999999,18.028 10.3339999999999,18.028 C10.4160000000001,18.104 10.46,18.212 10.46,18.329 C10.46,18.449 10.4160000000001,18.554 10.3339999999999,18.629 C10.3339999999999,18.629 10.3339999999999,18.632 10.3339999999999,18.632 C10.2619999999999,18.707 10.154,18.755 10.034,18.755 C9.91700000000003,18.755 9.81200000000001,18.707 9.73299999999995,18.632 C9.73299999999995,18.632 9.73299999999995,18.629 9.73299999999995,18.629 C9.65800000000002,18.554 9.61000000000001,18.449 9.61000000000001,18.329 C9.61000000000001,18.212 9.65800000000002,18.104 9.73299999999995,18.028 C9.73299999999995,18.028 9.73299999999995,18.028 9.73299999999995,18.028 ZM22.146,0.989 C22.146,0.989 22.146,0.989 22.146,0.989 C22.146,0.989 1.83500000000004,0.989 1.83500000000004,0.989 C1.36699999999996,0.989 0.98800000000006,1.368 0.98800000000006,1.83600000000001 C0.98800000000006,1.83600000000001 0.98800000000006,22.145 0.98800000000006,22.145 C0.98800000000006,22.611 1.36699999999996,22.992 1.83500000000004,22.992 C1.83500000000004,22.992 22.146,22.992 22.146,22.992 C22.612,22.992 22.99,22.611 22.99,22.145 C22.99,22.145 22.99,1.83600000000001 22.99,1.83600000000001 C22.99,1.368 22.612,0.989 22.146,0.989 C22.146,0.989 22.146,0.989 22.146,0.989 ZM21.299,21.299 C21.299,21.299 21.299,21.299 21.299,21.299 C21.299,21.299 2.67899999999997,21.299 2.67899999999997,21.299 C2.67899999999997,21.299 2.67899999999997,7.62299999999999 2.67899999999997,7.62299999999999 C2.67899999999997,7.62299999999999 21.299,7.62299999999999 21.299,7.62299999999999 C21.299,7.62299999999999 21.299,21.299 21.299,21.299 C21.299,21.299 21.299,21.299 21.299,21.299 ZM21.299,6.60499999999999 C21.299,6.60499999999999 21.299,6.60499999999999 21.299,6.60499999999999 C21.299,6.60499999999999 2.67899999999997,6.60499999999999 2.67899999999997,6.60499999999999 C2.67899999999997,6.60499999999999 2.67899999999997,2.68299999999999 2.67899999999997,2.68299999999999 C2.67899999999997,2.68299999999999 4.346,2.68299999999999 4.346,2.68299999999999 C4.346,2.68299999999999 4.346,3.94499999999999 4.346,3.94499999999999 C4.346,4.41300000000001 4.721,4.78800000000001 5.19299999999998,4.78800000000001 C5.65899999999999,4.78800000000001 6.03999999999996,4.41300000000001 6.03999999999996,3.94499999999999 C6.03999999999996,3.94499999999999 6.03999999999996,2.68299999999999 6.03999999999996,2.68299999999999 C6.03999999999996,2.68299999999999 8.87800000000004,2.68299999999999 8.87800000000004,2.68299999999999 C8.87800000000004,2.68299999999999 8.87800000000004,3.94499999999999 8.87800000000004,3.94499999999999 C8.87800000000004,4.41300000000001 9.25900000000001,4.78800000000001 9.72500000000002,4.78800000000001 C10.1900000000001,4.78800000000001 10.569,4.41300000000001 10.569,3.94499999999999 C10.569,3.94499999999999 10.569,2.68299999999999 10.569,2.68299999999999 C10.569,2.68299999999999 13.407,2.68299999999999 13.407,2.68299999999999 C13.407,2.68299999999999 13.407,3.94499999999999 13.407,3.94499999999999 C13.407,4.41300000000001 13.785,4.78800000000001 14.254,4.78800000000001 C14.722,4.78800000000001 15.1,4.41300000000001 15.1,3.94499999999999 C15.1,3.94499999999999 15.1,2.68299999999999 15.1,2.68299999999999 C15.1,2.68299999999999 17.942,2.68299999999999 17.942,2.68299999999999 C17.942,2.68299999999999 17.942,3.94499999999999 17.942,3.94499999999999 C17.942,4.41300000000001 18.317,4.78800000000001 18.785,4.78800000000001 C19.251,4.78800000000001 19.6319999999999,4.41300000000001 19.6319999999999,3.94499999999999 C19.6319999999999,3.94499999999999 19.6319999999999,2.68299999999999 19.6319999999999,2.68299999999999 C19.6319999999999,2.68299999999999 21.299,2.68299999999999 21.299,2.68299999999999 C21.299,2.68299999999999 21.299,6.60499999999999 21.299,6.60499999999999 C21.299,6.60499999999999 21.299,6.60499999999999 21.299,6.60499999999999 ZM12.926,19.347 C12.926,19.347 12.926,19.347 12.926,19.347 C13.188,19.608 13.548,19.77 13.941,19.77 C14.332,19.77 14.6950000000001,19.608 14.957,19.347 C14.957,19.347 14.962,19.347 14.962,19.347 C15.221,19.086 15.38,18.725 15.38,18.329 C15.38,17.936 15.221,17.575 14.962,17.314 C14.962,17.314 14.957,17.311 14.957,17.311 C14.6950000000001,17.049 14.332,16.89 13.941,16.89 C13.548,16.89 13.188,17.049 12.926,17.311 C12.926,17.311 12.923,17.314 12.923,17.314 C12.662,17.575 12.5,17.936 12.5,18.329 C12.5,18.722 12.662,19.086 12.923,19.347 C12.923,19.347 12.926,19.347 12.926,19.347 C12.926,19.347 12.926,19.347 12.926,19.347 ZM13.641,18.028 C13.641,18.028 13.641,18.028 13.641,18.028 C13.641,18.028 13.641,18.028 13.641,18.028 C13.716,17.95 13.821,17.902 13.941,17.902 C14.059,17.902 14.167,17.95 14.242,18.028 C14.242,18.028 14.244,18.028 14.244,18.028 C14.323,18.104 14.3680000000001,18.212 14.3680000000001,18.329 C14.3680000000001,18.449 14.323,18.554 14.244,18.629 C14.244,18.629 14.242,18.632 14.242,18.632 C14.167,18.707 14.059,18.755 13.941,18.755 C13.821,18.755 13.716,18.707 13.641,18.632 C13.641,18.632 13.641,18.629 13.641,18.629 C13.563,18.554 13.518,18.449 13.518,18.329 C13.518,18.212 13.563,18.104 13.641,18.028 C13.641,18.028 13.641,18.028 13.641,18.028 ZM5.11199999999997,15.518 C5.11199999999997,15.518 5.11199999999997,15.518 5.11199999999997,15.518 C5.37599999999998,15.776 5.73400000000004,15.939 6.13300000000004,15.939 C6.52300000000002,15.939 6.88699999999994,15.776 7.14499999999998,15.518 C7.14499999999998,15.518 7.15099999999995,15.512 7.15099999999995,15.512 C7.41200000000003,15.25 7.57100000000003,14.89 7.57100000000003,14.497 C7.57100000000003,14.1 7.41200000000003,13.74 7.15099999999995,13.479 C7.15099999999995,13.479 7.14499999999998,13.479 7.14499999999998,13.479 C6.88699999999994,13.218 6.52300000000002,13.055 6.13300000000004,13.055 C5.73400000000004,13.055 5.37599999999998,13.218 5.11199999999997,13.479 C5.11199999999997,13.479 5.11199999999997,13.479 5.11199999999997,13.479 C4.85299999999995,13.74 4.68799999999999,14.103 4.68799999999999,14.497 C4.68799999999999,14.89 4.85299999999995,15.25 5.11199999999997,15.512 C5.11199999999997,15.512 5.11199999999997,15.518 5.11199999999997,15.518 C5.11199999999997,15.518 5.11199999999997,15.518 5.11199999999997,15.518 ZM5.82600000000002,14.197 C5.82600000000002,14.197 5.82600000000002,14.197 5.82600000000002,14.197 C5.82600000000002,14.197 5.82600000000002,14.194 5.82600000000002,14.194 C5.90499999999997,14.119 6.00999999999999,14.073 6.13300000000004,14.073 C6.24699999999996,14.073 6.35799999999995,14.119 6.42999999999995,14.194 C6.42999999999995,14.194 6.43299999999999,14.197 6.43299999999999,14.197 C6.50800000000004,14.272 6.55600000000004,14.377 6.55600000000004,14.497 C6.55600000000004,14.614 6.50800000000004,14.722 6.43299999999999,14.797 C6.43299999999999,14.797 6.42999999999995,14.8 6.42999999999995,14.8 C6.35799999999995,14.875 6.24699999999996,14.923 6.13300000000004,14.923 C6.00999999999999,14.923 5.90499999999997,14.875 5.82600000000002,14.8 C5.82600000000002,14.8 5.82600000000002,14.797 5.82600000000002,14.797 C5.75400000000002,14.722 5.70699999999999,14.614 5.70699999999999,14.497 C5.70699999999999,14.377 5.75400000000002,14.272 5.82600000000002,14.197 C5.82600000000002,14.197 5.82600000000002,14.197 5.82600000000002,14.197 ZM5.11199999999997,19.347 C5.11199999999997,19.347 5.11199999999997,19.347 5.11199999999997,19.347 C5.37599999999998,19.608 5.73400000000004,19.77 6.13300000000004,19.77 C6.52300000000002,19.77 6.88699999999994,19.608 7.14499999999998,19.347 C7.14499999999998,19.347 7.15099999999995,19.347 7.15099999999995,19.347 C7.41200000000003,19.086 7.57100000000003,18.725 7.57100000000003,18.329 C7.57100000000003,17.936 7.41200000000003,17.575 7.15099999999995,17.314 C7.15099999999995,17.314 7.14499999999998,17.311 7.14499999999998,17.311 C6.88699999999994,17.049 6.52300000000002,16.89 6.13300000000004,16.89 C5.73400000000004,16.89 5.37599999999998,17.049 5.11199999999997,17.311 C5.11199999999997,17.311 5.11199999999997,17.314 5.11199999999997,17.314 C4.85299999999995,17.575 4.68799999999999,17.936 4.68799999999999,18.329 C4.68799999999999,18.722 4.85299999999995,19.086 5.11199999999997,19.347 C5.11199999999997,19.347 5.11199999999997,19.347 5.11199999999997,19.347 C5.11199999999997,19.347 5.11199999999997,19.347 5.11199999999997,19.347 ZM5.82600000000002,18.028 C5.82600000000002,18.028 5.82600000000002,18.028 5.82600000000002,18.028 C5.82600000000002,18.028 5.82600000000002,18.028 5.82600000000002,18.028 C5.90499999999997,17.95 6.00999999999999,17.902 6.13300000000004,17.902 C6.24699999999996,17.902 6.35799999999995,17.95 6.42999999999995,18.028 C6.42999999999995,18.028 6.43299999999999,18.028 6.43299999999999,18.028 C6.50800000000004,18.104 6.55600000000004,18.212 6.55600000000004,18.329 C6.55600000000004,18.449 6.50800000000004,18.554 6.43299999999999,18.629 C6.43299999999999,18.629 6.42999999999995,18.632 6.42999999999995,18.632 C6.35799999999995,18.707 6.24699999999996,18.755 6.13300000000004,18.755 C6.00999999999999,18.755 5.90499999999997,18.707 5.82600000000002,18.632 C5.82600000000002,18.632 5.82600000000002,18.629 5.82600000000002,18.629 C5.75400000000002,18.554 5.70699999999999,18.449 5.70699999999999,18.329 C5.70699999999999,18.212 5.75400000000002,18.104 5.82600000000002,18.028 C5.82600000000002,18.028 5.82600000000002,18.028 5.82600000000002,18.028 ZM12.926,15.518 C12.926,15.518 12.926,15.518 12.926,15.518 C13.188,15.776 13.548,15.939 13.941,15.939 C14.332,15.939 14.6950000000001,15.776 14.957,15.518 C14.957,15.518 14.962,15.512 14.962,15.512 C15.221,15.25 15.38,14.89 15.38,14.497 C15.38,14.1 15.221,13.74 14.962,13.479 C14.962,13.479 14.957,13.479 14.957,13.479 C14.6950000000001,13.218 14.332,13.055 13.941,13.055 C13.548,13.055 13.188,13.218 12.926,13.479 C12.926,13.479 12.923,13.479 12.923,13.479 C12.662,13.74 12.5,14.103 12.5,14.497 C12.5,14.89 12.662,15.25 12.923,15.512 C12.923,15.512 12.926,15.518 12.926,15.518 C12.926,15.518 12.926,15.518 12.926,15.518 ZM13.641,14.197 C13.641,14.197 13.641,14.197 13.641,14.197 C13.641,14.197 13.641,14.194 13.641,14.194 C13.716,14.119 13.821,14.073 13.941,14.073 C14.059,14.073 14.167,14.119 14.242,14.194 C14.242,14.194 14.244,14.197 14.244,14.197 C14.323,14.272 14.3680000000001,14.377 14.3680000000001,14.497 C14.3680000000001,14.614 14.323,14.722 14.244,14.797 C14.244,14.797 14.242,14.8 14.242,14.8 C14.167,14.875 14.059,14.923 13.941,14.923 C13.821,14.923 13.716,14.875 13.641,14.8 C13.641,14.8 13.641,14.797 13.641,14.797 C13.563,14.722 13.518,14.614 13.518,14.497 C13.518,14.377 13.563,14.272 13.641,14.197 C13.641,14.197 13.641,14.197 13.641,14.197 ZM16.831,15.518 C16.831,15.518 16.831,15.518 16.831,15.518 C17.092,15.776 17.455,15.939 17.849,15.939 C18.242,15.939 18.602,15.776 18.867,15.518 C18.867,15.518 18.867,15.512 18.867,15.512 C19.125,15.25 19.29,14.89 19.29,14.497 C19.29,14.1 19.125,13.74 18.867,13.479 C18.867,13.479 18.867,13.479 18.867,13.479 C18.602,13.218 18.242,13.055 17.849,13.055 C17.455,13.055 17.092,13.218 16.831,13.479 C16.831,13.479 16.831,13.479 16.831,13.479 C16.572,13.74 16.407,14.103 16.407,14.497 C16.407,14.89 16.572,15.25 16.831,15.512 C16.831,15.512 16.831,15.518 16.831,15.518 C16.831,15.518 16.831,15.518 16.831,15.518 ZM17.545,14.197 C17.545,14.197 17.545,14.197 17.545,14.197 C17.545,14.197 17.545,14.194 17.545,14.194 C17.62,14.119 17.729,14.073 17.849,14.073 C17.966,14.073 18.077,14.119 18.149,14.194 C18.149,14.194 18.149,14.197 18.149,14.197 C18.224,14.272 18.269,14.377 18.269,14.497 C18.269,14.614 18.224,14.722 18.149,14.797 C18.149,14.797 18.149,14.8 18.149,14.8 C18.077,14.875 17.966,14.923 17.849,14.923 C17.729,14.923 17.62,14.875 17.545,14.8 C17.545,14.8 17.545,14.797 17.545,14.797 C17.467,14.722 17.422,14.614 17.422,14.497 C17.422,14.377 17.467,14.272 17.545,14.197 C17.545,14.197 17.545,14.197 17.545,14.197 Z "/>
</svg>
