<?xml version="1.0" standalone="no"?>
<!DOCTYPE svg PUBLIC "-//W3C//DTD SVG 1.1//EN" "http://www.w3.org/Graphics/SVG/1.1/DTD/svg11.dtd">
<svg xmlns="http://www.w3.org/2000/svg">
<metadata>Copyright (C) 2015 by original authors @ fontello.com</metadata>
<defs>
<font id="fontello" horiz-adv-x="1000" >
<font-face font-family="fontello" font-weight="400" font-stretch="normal" units-per-em="1000" ascent="850" descent="-150" />
<missing-glyph horiz-adv-x="1000" />
<glyph glyph-name="vk" unicode="&#xe800;" d="m766 304c-36 39-84 65-144 77 0 0 0 5 0 5 42 18 75 45 98 82 24 37 36 79 36 126 0 41-9 77-26 108-17 31-43 56-78 75-32 17-66 29-103 34-37 6-91 8-162 8 0 0-342 0-342 0 0 0 0-969 0-969 0 0 388 0 388 0 67 0 122 6 166 18 44 12 84 33 120 61 31 24 56 54 74 91 18 36 27 79 27 127 0 66-18 118-54 157z m-269 185c-7-16-21-28-40-37-18-9-35-13-52-14-17-1-46-1-87-1 0 0-31 0-31 0 0 0 0 205 0 205 0 0 17 0 17 0 43 0 76-1 98-1 22-1 41-5 57-12 17-7 29-19 37-35 8-17 12-33 12-49 0-21-3-40-11-56z m57-400c-10-19-26-33-48-42-26-11-50-17-75-18-24-1-68-1-131-1 0 0-13 0-13 0 0 0 0 243 0 243 0 0 45 0 45 0 43 0 78-1 104-1 25-1 46-4 61-10 24-9 42-21 54-38 12-17 18-41 18-71 0-23-5-44-15-62z" horiz-adv-x="833" />
<glyph glyph-name="help" unicode="&#xe801;" d="m643 297c8 0 16-3 22-9 6-6 9-14 9-23 0-9-3-16-9-22-6-7-14-10-22-10-9 0-16 3-22 10-6 6-9 13-9 22 0 9 3 17 9 23 6 6 13 9 22 9z m-55 215c-4-7-5-15-5-24 0-3-1-6-2-9-1-3-3-6-5-8-2-2-4-4-7-5-3-1-6-2-9-2-6 0-12 3-16 7-4 5-7 10-7 17 0 15 3 29 9 42 5 14 13 25 23 35 9 10 20 18 33 23 13 6 26 9 41 9 14 0 28-3 40-9 13-6 24-14 34-23 9-10 17-22 23-35 5-13 8-27 8-42 0-30-10-55-31-77 0 0-34-33-34-33-12-12-18-25-18-39 0-7-2-13-6-17-4-4-10-7-16-7-7 0-12 3-17 7-4 4-6 10-6 17 0 27 10 51 31 72 0 0 34 33 34 33 12 13 18 27 18 44 0 8-2 16-5 24-3 7-8 14-13 20-6 5-12 10-19 13-7 3-15 5-23 5-9 0-16-2-24-5-7-3-13-8-19-13-5-6-9-12-12-20z m-142-268c0 0-252 0-252 0-12 0-22 11-22 24 0 13 10 23 22 23 0 0 252 0 252 0 13 0 23-10 23-23 0-13-10-24-23-24z m-252 291c-12 0-22 11-22 24 0 13 10 23 22 23 0 0 252 0 252 0 13 0 23-10 23-23 0-13-10-24-23-24 0 0-252 0-252 0z m252-145c0 0-252 0-252 0-12 0-22 10-22 23 0 13 10 24 22 24 0 0 252 0 252 0 13 0 23-11 23-24 0-13-10-23-23-23z m20-408c-3-1-7-1-11 0 0 0-2 0-2 0-14 3-23 17-22 32 2 15 13 26 28 26 211 7 377 172 377 376 0 207-175 375-390 375-214 0-389-168-389-375 0-137 77-263 202-329 11-7 17-20 14-33 0-1 0-3-1-4 0 0-41-141-41-141 29-1 80 6 139 52 13 10 31 8 40-5 9-14 7-32-6-42-68-52-129-64-169-64-30 0-48 6-50 7-14 5-22 21-18 36 0 0 45 153 45 153-131 79-212 219-212 370 0 239 200 434 446 434 247 0 447-195 447-434 0-235-187-424-427-434z" horiz-adv-x="893" />
<glyph glyph-name="settings" unicode="&#xe802;" d="m498 570c120 0 220-100 220-221 0-120-100-219-220-219-121 0-221 99-221 219 0 122 99 221 221 221 0 0 0 0 0 0z m115 144c10-3 21-7 31-11 10-4 20-9 30-14 0 0 45 44 45 44 14 14 36 14 50 1 0 0 0-1 0-1 0 0 1 0 1 0 0 0 112-112 112-112 13-14 13-37-1-50 0 0-44-45-44-45 5-10 10-20 14-30 4-10 8-21 12-31 0 0 63 0 63 0 19 0 35-16 35-36 0 0 0-3 0-3 0 0 0-156 0-156 0-19-16-35-36-35 0 0 0-1 0-1 0 0-63 0-63 0-3-10-7-20-11-31 0 0 0 0 0 0 0 0 0 0 0 0-4-10-9-20-14-30 0 0 44-45 44-45 14-14 14-36 1-50 0 0-1 0-1 0 0 0 0-1 0-1 0 0-112-111-112-111-14-15-36-14-50 0 0 0-45 44-45 44-10-5-20-10-30-14 0 0-2-1-2-1-10-4-19-7-29-10 0 0 0-63 0-63 0-20-16-36-36-36 0 0-3 0-3 0 0 0-156 0-156 0-20 0-35 16-35 36 0 0-1 0-1 0 0 0 0 63 0 63-10 3-21 7-31 11 0 0 0 0 0 0 0 0 0 0 0 0-10 4-20 9-30 14 0 0-45-44-45-44-14-14-36-15-50 0 0 0 0 0 0 0 0 0-1 0-1 0 0 0-111 112-111 112-14 14-14 36 0 50 0 0 44 45 44 45-5 10-10 20-14 30-4 10-8 21-12 31 0 0-63 0-63 0-19 0-35 17-35 36 0 0 0 3 0 3 0 0 0 156 0 156 0 19 16 36 36 36 0 0 0 0 0 0 0 0 63 0 63 0 3 10 7 21 11 31 4 10 9 20 14 30 0 0-44 45-44 45-14 13-14 36 0 50 0 0 0 0 0 0 0 0 0 1 0 1 0 0 112 112 112 112 14 13 36 13 50-1 0 0 45-44 45-44 20 10 40 19 61 25 0 0 0 64 0 64 0 19 16 35 36 35 0 0 1 0 1 0 0 0 158 0 158 0 20 0 36-16 36-35 0 0 0-1 0-1 0 0 0-63 0-63 0 0 0 0 0 0z m4-77c-15 7-31 11-47 15-16 3-29 18-29 35 0 0 0 55 0 55 0 0-87 0-87 0 0 0 0-55 0-55 0 0 0 0 0 0 0-16-12-31-28-34-33-8-64-21-92-39 0 0 0 0 0 0-14-8-33-7-44 5 0 0-39 39-39 39 0 0-62-62-62-62 0 0 37-37 37-37 13-12 16-31 7-45-9-15-17-30-23-45-6-15-11-31-15-47-3-16-18-29-35-29 0 0-55 0-55 0 0 0 0-87 0-87 0 0 55 0 55 0 0 0 0 0 0 0 16 0 31-11 34-28 4-16 9-33 16-47 6-16 14-31 23-45 0 0 0 0 0 0 8-14 6-33-6-44 0 0-38-39-38-39 0 0 62-62 62-62 0 0 37 38 37 38 12 12 31 15 46 6 14-9 29-17 44-23 0 0 0 0 0 0 15-6 30-11 47-15 16-3 29-18 29-35 0 0 0-55 0-55 0 0 87 0 87 0 0 0 0 55 0 55 0 0 0 0 0 0 0 16 11 31 28 34 16 4 31 9 46 15 0 0 2 1 2 1 15 6 30 14 44 23 0 0 0 0 0 0 14 8 32 7 44-5 0 0 39-39 39-39 0 0 62 62 62 62 0 0-37 37-37 37-13 12-16 31-7 46 9 14 17 29 23 44 0 0 0 0 0 0 6 15 12 31 15 47 3 16 18 29 35 29 0 0 55 0 55 0 0 0 0 87 0 87 0 0-55 0-55 0 0 0 0 0 0 0-16 0-31 11-34 28-4 16-9 32-16 48-6 15-14 30-22 43-9 14-8 33 4 46 0 0 39 38 39 38 0 0-62 62-62 62 0 0-37-37-37-37-12-13-31-16-46-7-14 9-29 17-44 23 0 0 0 0 0 0z m-119-110c-98 0-178-80-178-178 0-97 80-177 178-177 97 0 177 80 177 177 0 98-80 178-177 178 0 0 0 0 0 0z" horiz-adv-x="963" />
<glyph glyph-name="exit" unicode="&#xe803;" d="m64 444c-14 0-26 10-26 22 0 12 12 22 26 22 0 0 414 0 414 0 0 0-118 100-118 100-11 9-11 23 0 32 10 9 26 9 37 0 0 0 163-138 163-138 4-3 6-6 7-9 0 0 0-1 0-1 0 0 1-1 1-1 0 0 0-4 0-4 0 0 0 0 0 0 0 0 0-1 0-1 0 0 0-1 0-1 0 0 0 0 0 0 0-1 0-2 0-3 0 0-1-2-1-2 0 0 0 0 0 0-1-3-3-7-7-9 0 0 0-1 0-1 0 0-163-137-163-137-11-9-27-9-37 0-11 8-11 22 0 31 0 0 118 100 118 100 0 0-414 0-414 0 0 0 0 0 0 0z m948-322c0 0 0 0 0 0 0 0-273-133-273-133 0 0 0 638 0 638 0 0 317 154 317 154 21 10 28 33 16 50-8 12-22 18-37 19 0 0 0 0 0 0 0 0 0 0 0 0 0 0-1 0-1 0 0 0-1 0-1 0 0 0-554 0-554 0 0 0-1 0-1 0-14 0-26-10-26-23 0 0 0-170 0-170 0-12 12-22 26-22 15 0 26 10 26 22 0 0 0 148 0 148 0 0 427 0 427 0 0 0-254-123-254-123-16-6-26-19-26-34 0 0 0-521 0-521 0 0-147 0-147 0 0 0 0 139 0 139 0 12-11 22-26 22-14 0-26-10-26-22 0 0 0-161 0-161 0 0 0 0 0 0 0-12 12-22 26-22 0 0 173 0 173 0 0 0 0-158 0-158 0 0 0 0 0 0 0-6 2-12 6-18 12-17 39-24 59-14 0 0 340 166 340 166 21 9 28 32 16 50-12 17-39 23-60 13 0 0 0 0 0 0z" horiz-adv-x="1115" />
<glyph glyph-name="checked" unicode="&#xe804;" d="m460-150c-3 0-6 0-9 0-49 4-92 40-106 90-52 185-249 341-251 343-53 41-64 120-25 175 39 56 114 68 168 26 2-2 67-52 139-132 33-37 62-73 87-110 18 30 37 62 58 95 144 225 293 379 443 455 59 30 131 4 160-58 29-62 5-137-55-167-109-56-229-182-347-366-94-147-152-277-153-279-20-44-62-72-109-72z" horiz-adv-x="1182" />
<glyph glyph-name="arrow" unicode="&#xe805;" d="m224 834c13 0 29-6 12-12-152-140-140-534 0-681 45 33 52 105 125 111 37-146 93-273 147-402-123 13-300 45-443 56 20 89 92 126 137 190-145 157-190 621 22 738z m137-917c-5 40-109 79-125 145-32-32-72-56-80-111 48-32 150-10 205-34z m34 45c3 48-53 134-57 212-49 0-45-53-79-67 34-59 97-90 136-145z" horiz-adv-x="525" />
<glyph glyph-name="ok" unicode="&#xe806;" d="m592 319c-13 25-48 45-94 9-63-48-165-48-165-48 0 0-101 0-164 48-47 36-82 16-94-9-22-44 3-64 59-100 48-30 114-41 157-45 0 0-36-35-36-35-50-49-98-96-132-129-20-20-20-52 0-71 0 0 6-6 6-6 10-10 23-15 36-15 0 0 0 0 0 0 14 0 27 5 37 15 0 0 132 129 132 129 50-49 99-96 132-129 20-20 53-20 73 0 0 0 6 6 6 6 20 19 20 51 0 71 0 0-132 129-132 129 0 0-36 35-36 35 43 4 108 15 156 45 56 36 81 56 59 100 0 0 0 0 0 0z m-259 353c61 0 111-48 111-108 0-59-50-107-111-107-61 0-110 48-110 107 0 60 49 108 110 108 0 0 0 0 0 0z m0-326c124 0 225 98 225 218 0 121-101 219-225 219-124 0-224-98-224-219 0-120 100-218 224-218 0 0 0 0 0 0z" horiz-adv-x="667" />
<glyph glyph-name="mail" unicode="&#xe807;" d="m50 850c0 0 1 0 1 0 0 0 1186 0 1186 0 27 0 49-21 49-46 0 0 0-1 0-1 0 0 0-836 0-836 0-26-22-46-49-46 0 0-2 0-2 0 0 0-1185 0-1185 0-28 0-50 20-50 46 0 0 0 1 0 1 0 0 0 836 0 836 0 25 22 46 50 46 0 0 0 0 0 0z m1137-132c0 0 0 0 0 0 0 0-523-483-523-483-11-11-30-11-42 0 0 0-523 483-523 483 0 0 0-705 0-705 0 0 1088 0 1088 0 0 0 0 705 0 705 0 0 0 0 0 0z m-41 40c0 0 0 0 0 0 0 0-1006 0-1006 0 0 0 503-465 503-465 0 0 503 465 503 465 0 0 0 0 0 0z" horiz-adv-x="1357" />
<glyph glyph-name="pass" unicode="&#xe808;" d="m143 74c0 13 11 24 24 24 13 0 24-11 24-24 0 0 0-57 0-57 0 0 47 29 47 29 12 6 26 2 33-9 6-12 3-27-9-33 0 0-48-29-48-29 0 0 48-28 48-28 12-6 15-21 9-33-7-11-21-15-33-9 0 0-47 28-47 28 0 0 0-56 0-56 0-13-11-24-24-24-13 0-24 11-24 24 0 0 0 56 0 56 0 0-48-28-48-28-11-6-26-2-32 9-7 12-3 27 9 33 0 0 47 28 47 28 0 0-47 29-47 29-12 6-16 21-9 33 6 11 21 15 32 9 0 0 48-29 48-29 0 0 0 57 0 57 0 0 0 0 0 0z m231 535c0 0 0 0 0 0 0 0 0 50 0 50 0 52 21 100 54 134 34 35 81 56 132 56 0 0 0 0 0 0 51 0 98-21 131-56 0 0 2-3 2-3 33-34 53-80 53-131 0 0 0-50 0-50 14-5 26-13 36-23 0 0 3-3 3-3 15-17 24-39 24-63 0 0 0-166 0-166 0-26-10-50-27-66-16-17-39-28-64-28 0 0-316 0-316 0-25 0-48 11-65 28 0 0 0 0 0 0 0 0-1 1-1 1-16 17-26 39-26 65 0 0 0 166 0 166 0 26 11 49 27 66 10 10 23 18 37 23 0 0 0 0 0 0z m292 5c0 0 0 0 0 0 0 0 0 45 0 45 0 29-11 56-29 75 0 0-2 2-2 2-19 20-46 32-75 32 0 0 0 0 0 0-30 0-56-12-76-32 0 0 0 0 0 0 0 0 0 0 0 0-19-20-31-47-31-77 0 0 0-45 0-45 0 0 213 0 213 0 0 0 0 0 0 0z m52-82c0 0 0 0 0 0 0 0-11 0-11 0 0 0-1 0-1 0 0 0-1 0-1 0 0 0-291 0-291 0 0 0-1 0-1 0 0 0-1 0-1 0 0 0-10 0-10 0-4 0-6-1-9-3-2-2-3-5-3-9 0 0 0-166 0-166 0-4 1-7 3-9 3-2 5-4 9-4 0 0 316 0 316 0 3 0 6 2 8 4 2 2 4 5 4 9 0 0 0 166 0 166 0 3-1 6-3 8 0 0-1 1-1 1-2 2-5 3-8 3 0 0 0 0 0 0z m330-585c0 0 0 0 0 0 11-6 15-21 9-33-7-11-21-15-33-9 0 0-47 28-47 28 0 0 0-56 0-56 0-13-11-24-24-24-13 0-24 11-24 24 0 0 0 56 0 56 0 0-48-28-48-28-11-6-26-2-32 9-7 12-3 27 8 33 0 0 48 28 48 28 0 0-48 29-48 29-11 6-15 21-8 33 6 11 21 15 32 9 0 0 48-29 48-29 0 0 0 57 0 57 0 13 11 24 24 24 13 0 24-11 24-24 0 0 0-57 0-57 0 0 47 29 47 29 12 6 26 2 33-9 6-12 2-27-9-33 0 0-48-29-48-29 0 0 48-28 48-28 0 0 0 0 0 0z m-262 0c0 0 0 0 0 0 11-6 15-21 9-33-7-11-21-15-33-9 0 0-48 28-48 28 0 0 0-56 0-56 0-13-10-24-23-24-13 0-24 11-24 24 0 0 0 56 0 56 0 0-48-28-48-28-11-6-26-2-32 9-7 12-3 27 9 33 0 0 47 28 47 28 0 0-48 29-48 29-11 6-15 21-8 33 6 11 21 15 32 9 0 0 48-28 48-28 0 0 0 56 0 56 0 13 11 24 24 24 13 0 23-11 23-24 0 0 0-57 0-57 0 0 48 29 48 29 12 6 26 2 33-9 6-12 2-27-9-33 0 0-48-29-48-29 0 0 48-28 48-28 0 0 0 0 0 0z m-262 0c0 0 0 0 0 0 12-6 15-21 9-33-7-11-21-15-33-9 0 0-47 28-47 28 0 0 0-56 0-56 0-13-11-24-24-24-13 0-24 11-24 24 0 0 0 56 0 56 0 0-48-28-48-28-11-6-26-2-32 9-7 12-3 27 9 33 0 0 47 28 47 28 0 0-48 29-48 29-11 6-15 21-8 33 6 11 21 15 32 9 0 0 48-28 48-28 0 0 0 56 0 56 0 13 11 24 24 24 13 0 24-11 24-24 0 0 0-57 0-57 0 0 47 29 47 29 12 6 26 2 33-9 6-12 2-27-9-33 0 0-48-29-48-29 0 0 48-28 48-28 0 0 0 0 0 0z" horiz-adv-x="1118" />
<glyph glyph-name="correct" unicode="&#xe809;" d="m709 499c-19 19-50 19-70 0 0 0-276-281-276-281 0 0-114 115-114 115-19 20-50 20-69 0-19-19-19-50 0-69 0 0 146-148 146-148 0 0 2-3 2-3 20-19 50-19 69 0 0 0 312 316 312 316 19 19 19 50 0 70 0 0 0 0 0 0z m46 167c0 0 0 0 0 0 0 0 0 0 0 0 0 0 0 0 0 0-79 81-189 131-310 131-120 0-230-49-309-129 0 0-3-2-3-2-79-81-129-192-129-315 0-124 50-235 129-316 0 0 1 0 1 0 79-80 189-131 311-131 120 0 228 49 308 129 0 0 2 2 2 2 80 81 130 192 130 316 0 123-50 234-130 315 0 0 0 0 0 0z m-68-561c0 0 0 0 0 0 0 0-3-2-3-2-61-61-146-100-239-100-95 0-181 40-242 102-62 63-101 150-101 246 0 96 39 182 101 245 0 0 1 2 1 2 62 62 147 100 241 100 94 0 179-39 242-102 0 0 0 0 0 0 62-63 100-149 100-245 0-96-38-183-100-246 0 0 0 0 0 0z" horiz-adv-x="941" />
<glyph glyph-name="error" unicode="&#xe80a;" d="m942 350c0-244-198-443-443-442-178 1-337 108-405 270-23 52-35 111-35 172 0 243 198 441 443 441 244-1 440-199 440-441 0 0 0 0 0 0z m-228 49c0 0 0 0 0 0-179 0-197 0-214 0-17 0-34 0-213 0-13 0-26-6-35-14-8-10-14-22-14-35 0-14 6-26 14-35 9-9 22-15 35-15 179 0 196 0 213 0 17 0 35 0 214 0 13 0 25 6 34 15 9 9 15 21 15 35 0 13-6 25-15 35-9 8-21 14-34 14 0 0 0 0 0 0z m-212 294c0 0 0 0 0 0-191 1-345-154-345-343 0-48 10-93 27-134 53-126 176-209 315-210 139-1 264 83 318 210 17 41 26 86 26 134 0 47-9 92-26 134-53 125-177 208-315 209 0 0 0 0 0 0z" horiz-adv-x="1000" />
<glyph glyph-name="angle-left" unicode="&#xe80b;" d="m350 546q0-7-6-12l-219-220 219-219q6-6 6-13t-6-13l-28-28q-5-5-12-5t-13 5l-260 260q-6 6-6 13t6 13l260 260q5 6 13 6t12-6l28-28q6-5 6-13z" horiz-adv-x="357.1" />
<glyph glyph-name="angle-right" unicode="&#xe80c;" d="m332 314q0-7-6-13l-260-260q-5-5-12-5t-13 5l-28 28q-6 6-6 13t6 13l219 219-219 220q-6 5-6 12t6 13l28 28q5 6 13 6t12-6l260-260q6-5 6-13z" horiz-adv-x="357.1" />
<glyph glyph-name="lamp" unicode="&#xe80d;" d="m476 251c5-2 9-5 14-7 0 0 1-1 1-1 15-7 30-10 45-10 16 0 32 4 47 11 0 0 1 0 1 0 14 7 27 17 38 30 12 14 21 29 27 46 0 0 0 1 0 1 6 17 9 34 9 52 0 19-3 37-9 54 0 0-1 1-1 1-2 5-4 10-6 14 0 0 89 103 89 103 12 15 12 38 0 53-5 5-11 9-18 10 0 0-111 25-111 25 0 0-2 1-2 1 0 0-102 22-102 22 0 0-60 70-60 70 0 0-68 78-68 78-12 14-32 14-45 0 0 0 0 0 0 0 0 0 0 0 0 0 0 0-81-93-81-93 0 0-2-2-2-2 0 0-79-92-79-92-13-14-13-37 0-52 0 0 44-52 44-52 0 0-121-140-121-140 0 0-1-2-1-2-6 2-12 3-19 3-18 0-34-8-46-22-12-13-20-33-20-54 0-20 8-40 20-53 12-14 28-23 46-23 7 0 13 2 19 3 0 0 1-1 1-1 0 0 182-211 182-211-5-2-10-4-15-7-42-21-79-53-110-91-11-15-10-39 3-52 6-7 14-10 22-10 0 0 1 0 1 0 0 0 0 0 0 0 0 0 430 0 430 0 0 0 1 0 1 0 0 0 0 0 0 0 9 0 17 3 23 10 13 13 14 37 2 52-30 38-67 70-109 91-40 21-85 33-132 33-15 0-29-2-44-4 0 0-208 241-208 241 0 0-2 2-2 2 2 6 3 13 3 20 0 8-1 15-3 21 0 0 1 2 1 2 0 0 122 140 122 140 0 0 38-44 38-44 0 0 20-119 20-119 0 0 22-130 22-130 3-20 20-33 37-30 7 2 13 6 17 11 0 0 89 102 89 102 0 0 0 0 0 0z m-30 361c0 0 0 0 0 0 0 0-117-135-117-135 0 0-53 61-53 61 0 0 0 1 0 1 0 0 0 0 0 0 0 0-1 1-1 1 0 0-1 1-1 1 0 0-44 50-44 50 0 0 57 65 57 65 0 0 2 2 2 2 0 0 59 68 59 68 0 0 44-52 44-52 0 0 54-62 54-62 0 0 0 0 0 0z m-94-172c0 0 0 0 0 0 0 0 126 146 126 146 0 0 110-25 110-25 0 0 1 0 1 0 0 0 54-12 54-12 0 0-129-150-129-150 0 0-130-149-130-149 0 0-10 62-10 62 0 0-22 128-22 128 0 0 0 0 0 0z m-132-542c0 0 0 0 0 0 18 16 38 30 58 41 33 16 68 26 106 26 38 0 74-10 106-26 21-11 41-25 58-41 0 0-328 0-328 0 0 0 0 0 0 0z m285 386c0 0 0 0 0 0 0 0 54 63 54 63 0 0 54 63 54 63 4-12 6-24 6-37 0-12-2-25-5-36 0 0-1-1-1-1-4-11-10-21-18-31 0 0 0 0 0 0-8-9-17-15-26-20 0 0-1-1-1-1-10-4-21-6-32-6-10 0-21 2-31 6 0 0 0 0 0 0 0 0 0 0 0 0z m-458 37c0 0 0 0 0 0 5 5 12 9 19 9 8 0 15-4 20-9 5-6 8-14 8-23 0-8-3-16-8-22-5-6-12-9-20-9-7 0-14 3-19 9-5 6-8 14-8 22 0 9 3 17 8 23 0 0 0 0 0 0z" horiz-adv-x="778" />
<glyph glyph-name="uni" unicode="&#xe80e;" d="m442 850h132c12 0 22-11 22-24 0-7-3-13-8-17l-24-27 26-28c8-9 8-24 0-33-4-4-10-7-16-7h-110v-19l4-3 0-1 189-203h152c20 0 37-17 37-39v-560c0-21-17-39-37-39h-734c-21 0-37 18-37 39v560c0 22 16 39 37 39h152l189 204 4 3v131c0 13 10 24 22 24z m-200-440h-131v-482h138v409c0 13 11 23 23 23 12 0 21-10 21-23v-409h297v409c0 13 10 23 23 23 12 0 21-10 21-23v-409h139v482h-131c-9 0-18 4-26 12l-174 187-174-187c-7-7-16-12-26-12z m-78-96h36c12 0 22 10 22 23 0 13-10 23-22 23h-36c-12 0-22-10-22-23 0-13 10-23 22-23z m0-112h36c12 0 22 10 22 23 0 13-10 24-22 24h-36c-12 0-22-11-22-24 0-13 10-23 22-23z m0-112h36c12 0 22 10 22 24 0 12-10 23-22 23h-36c-12 0-22-11-22-23 0-14 10-24 22-24z m0-112h36c12 0 22 11 22 24 0 13-10 23-22 23h-36c-12 0-22-10-22-23 0-13 10-24 22-24z m520 336h36c12 0 22 10 22 23 0 13-10 23-22 23h-36c-12 0-22-10-22-23 0-13 10-23 22-23z m0-112h36c12 0 22 10 22 23 0 13-10 24-22 24h-36c-12 0-22-11-22-24 0-13 10-23 22-23z m0-112h36c12 0 22 10 22 24 0 12-10 23-22 23h-36c-12 0-22-11-22-23 0-14 10-24 22-24z m0-112h36c12 0 22 11 22 24 0 13-10 23-22 23h-36c-12 0-22-10-22-23 0-13 10-24 22-24z m-321 336h158c12 0 22 10 22 23 0 13-10 23-22 23h-158c-12 0-22-10-22-23 0-13 10-23 22-23z m0-112h158c12 0 22 10 22 23 0 13-10 24-22 24h-158c-12 0-22-11-22-24 0-13 10-23 22-23z m0-112h158c12 0 22 10 22 24 0 12-10 23-22 23h-158c-12 0-22-11-22-23 0-14 10-24 22-24z m0-112h158c12 0 22 11 22 24 0 13-10 23-22 23h-158c-12 0-22-10-22-23 0-13 10-24 22-24z m159 825h-58v-42h58l-5 4h0 0c-8 10-8 25 0 34l5 4z" horiz-adv-x="846" />
<glyph glyph-name="feather" unicode="&#xe80f;" d="m87 81c-74 126-44 314 35 431 11 17 34 22 50 10 8-5 13-13 16-22 0 0 0 0 0 0 1-7 3-13 5-19 7 27 18 53 33 78 42 74 110 136 182 164 19 7 41-3 48-21 4-10 3-20-1-29-7-16-13-33-19-49 55 49 123 93 193 119 146 55 311 39 374-127 7-20-2-41-22-48 0 0-3-1-3-1-123-33-170-114-214-191-60-106-117-206-318-203 13-6 31-12 54-20 19-6 30-26 24-46-3-10-10-17-18-22-93-53-256-90-361-48-15-21-37-68-21-139 0 0 0-1 0-1 0 0 101 0 101 0 12 0 22-9 22-22 0-12-10-22-22-22 0 0-110 0-110 0 0 0-20 0-20 0 0 0-4 0-4 0-18-2-36 10-40 29-20 97 12 164 36 199 0 0 0 0 0 0z m270-228c0 0 0 0 0 0 0 0 383 0 383 0 13 0 23 10 23 22 0 13-10 22-23 22 0 0-383 0-383 0-12 0-22-9-22-22 0-12 10-22 22-22 0 0 0 0 0 0z m-208 267c0 0 0 0 0 0 48-52 189-18 246-1-31 20-48 41-57 59-14 26-21 82 31 75 224-29 276 62 332 160 46 81 94 166 216 212-116 192-453-25-511-157-5-15-19-25-35-25-20 0-37 16-37 36 0 1 3 54 20 123-25-22-48-50-64-80-31-54-45-115-30-170 0 0 0 0 0 0 5-15-1-32-15-41-17-11-39-6-51 11-16 25-34 49-48 76-31-85-43-197 3-278 0 0 0 0 0 0z" horiz-adv-x="1042" />
<glyph glyph-name="calendar" unicode="&#xe810;" d="m855-150c0 0-769 0-769 0-47 0-86 41-86 90 0 0 0 709 0 709 0 49 38 88 84 90 0 0 0-121 0-121 0-55 43-99 95-99 0 0 60 0 60 0 53 0 96 44 96 99 0 0 0 121 0 121 0 0 271 0 271 0 0 0 0-121 0-121 0-55 43-99 96-99 0 0 60 0 60 0 53 0 95 44 95 99 0 0 0 121 0 121 46-2 84-41 84-90 0 0 0-709 0-709 0-49-38-90-86-90z m-25 501c0 21-17 38-38 38 0 0-645 0-645 0-20 0-37-17-37-38 0 0 0-367 0-367 0-21 17-38 37-38 0 0 645 0 645 0 21 0 38 17 38 38 0 0 0 367 0 367z m-131-353c0 0-76 0-76 0-12 0-22 11-22 23 0 0 0 79 0 79 0 13 10 23 22 23 0 0 76 0 76 0 12 0 22-10 22-23 0 0 0-79 0-79 0-12-10-23-22-23z m0 198c0 0-76 0-76 0-12 0-22 11-22 23 0 0 0 79 0 79 0 13 10 23 22 23 0 0 76 0 76 0 12 0 22-10 22-23 0 0 0-79 0-79 0-12-10-23-22-23z m-190-198c0 0-76 0-76 0-13 0-22 11-22 23 0 0 0 79 0 79 0 13 9 23 22 23 0 0 76 0 76 0 12 0 22-10 22-23 0 0 0-79 0-79 0-12-10-23-22-23z m0 198c0 0-76 0-76 0-13 0-22 11-22 23 0 0 0 79 0 79 0 13 9 23 22 23 0 0 76 0 76 0 12 0 22-10 22-23 0 0 0-79 0-79 0-12-10-23-22-23z m-191-198c0 0-76 0-76 0-12 0-22 11-22 23 0 0 0 79 0 79 0 13 10 23 22 23 0 0 76 0 76 0 12 0 22-10 22-23 0 0 0-79 0-79 0-12-10-23-22-23z m0 198c0 0-76 0-76 0-12 0-22 11-22 23 0 0 0 79 0 79 0 13 10 23 22 23 0 0 76 0 76 0 12 0 22-10 22-23 0 0 0-79 0-79 0-12-10-23-22-23z m443 388c0 0-60 0-60 0-18 0-32 15-32 34 0 0 0 198 0 198 0 19 14 34 32 34 0 0 60 0 60 0 18 0 32-15 32-34 0 0 0-198 0-198 0-19-14-34-32-34z m-523 0c0 0-59 0-59 0-18 0-33 15-33 34 0 0 0 198 0 198 0 19 15 34 33 34 0 0 59 0 59 0 18 0 33-15 33-34 0 0 0-198 0-198 0-19-15-34-33-34z" horiz-adv-x="941" />
<glyph glyph-name="clip" unicode="&#xe811;" d="m415 344c0 0-1-1-1-1 0 0-220-198-220-198-27-25-41-57-41-90 0-32 14-65 41-89 0 0 0 0 0 0 0 0 2-2 2-2 27-23 62-35 98-35 36 0 72 12 99 37 0 0 248 223 248 223 0 0 1 1 1 1 0 0 267 240 267 240 12 11 18 25 18 40 0 14-6 28-18 39-12 11-28 16-44 16-16 0-32-5-44-16 0 0-384-345-384-345-17-16-44-16-61 0-17 15-17 40 0 55 0 0 384 345 384 345 28 27 67 40 105 40 38 0 76-13 105-40 29-26 44-60 44-94 0-35-15-69-44-95 0 0-267-241-267-241 0 0 0 0 0 0 0 0-1-1-1-1 0 0-247-223-247-223-45-40-103-60-161-60-58 0-115 20-159 58 0 0-2 2-2 2-45 40-67 93-67 145 0 53 22 106 67 145 0 0 248 224 248 224 0 0 1 1 1 1 0 0 312 281 312 281 58 52 134 78 210 78 76 0 152-26 209-78 58-52 87-120 87-189 0-68-29-137-87-188 0 0-429-387-429-387-17-16-45-16-62 0-17 15-17 40 0 55 0 0 430 387 430 387 40 37 61 85 61 133 0 48-21 97-61 134-41 36-95 54-148 54-54 0-108-18-148-54 0 0-341-307-341-307 0 0 0 0 0 0z" horiz-adv-x="1200" />
<glyph glyph-name="close" unicode="&#xe812;" d="m911 120c0 19-8 38-21 51 0 0-219 219-219 219 0 0 219 219 219 219 13 13 21 32 21 50 0 19-8 38-21 51 0 0-102 101-102 101-13 14-32 21-50 21-19 0-37-7-51-21 0 0-219-219-219-219 0 0-218 219-218 219-14 14-32 21-51 21-19 0-37-7-51-21 0 0-101-101-101-101-13-13-21-32-21-51 0-18 8-37 21-50 0 0 219-219 219-219 0 0-219-219-219-219-13-13-21-32-21-51 0-18 8-37 21-50 0 0 101-101 101-101 14-14 32-21 51-21 19 0 37 7 51 21 0 0 218 218 218 218 0 0 219-218 219-218 14-14 32-21 51-21 18 0 37 7 50 21 0 0 102 101 102 101 13 13 21 32 21 50z" horiz-adv-x="1000" />
<glyph glyph-name="edit" unicode="&#xe813;" d="m181-20c0 0-41 0-41 0 0 0 0 75 0 75 0 0-70 0-70 0 0 0 0 43 0 43 0 0 85 90 85 90 0 0 110-118 110-118 0 0-84-90-84-90z m320 560c7-7 6-19-1-26 0 0-254-272-254-272-7-7-18-8-24-1-7 7-6 19 0 26 0 0 255 272 255 272 7 7 17 8 24 1z m-12 112c0 0-489-523-489-523 0 0 0-224 0-224 0 0 210 0 210 0 0 0 489 523 489 523 0 0-210 224-210 224z m323-103c27 29 27 77 0 106 0 0-110 118-110 118-27 29-72 29-99 0 0 0-67-71-67-71 0 0 210-224 210-224 0 0 66 71 66 71z" horiz-adv-x="889" />
<glyph glyph-name="angle-down" unicode="&#xe814;" d="m600 439q0-7-6-13l-260-260q-5-5-13-5t-12 5l-260 260q-6 6-6 13t6 13l27 28q6 6 13 6t13-6l219-219 220 219q5 6 13 6t12-6l28-28q6-5 6-13z" horiz-adv-x="642.9" />
<glyph glyph-name="clock" unicode="&#xe815;" d="m461 811c127 0 242-51 325-135 0 0 1-2 1-2 83-83 133-198 133-324 0-127-51-242-134-326 0 0-2-1-2-1-83-83-197-134-323-134-127 0-242 52-325 135 0 0 0 0 0 0-83 84-134 199-134 326 0 127 51 243 134 326 0 0 0 0 0 0 0 0 0 0 0 0 0 0 0 0 0 0 83 84 198 135 325 135 0 0 0 0 0 0z m200-425c0 0 0 0 0 0 0 0-165 0-165 0 0 0 0 282 0 282 0 20-16 35-35 35-20 0-36-15-36-35 0 0 0-317 0-317 0 0 0-1 0-1 0-19 16-35 36-35 0 0 200 0 200 0 20 0 36 16 36 35 0 20-16 36-36 36 0 0 0 0 0 0z m75 240c0 0 0 0 0 0-71 71-168 114-275 114-107 0-205-43-275-114 0 0 0 0 0 0-70-70-114-168-114-276 0-107 44-205 114-276 0 0 0 0 0 0 0 0 0 0 0 0 70-70 168-114 275-114 106 0 203 43 273 113 0 0 2 1 2 1 70 71 114 169 114 276 0 107-43 204-113 275 0 0-1 1-1 1 0 0 0 0 0 0z" horiz-adv-x="960" />
<glyph glyph-name="security" unicode="&#xe816;" d="m570 359c0 0 6-7 6-7 32-31 76-48 121-48 16 0 30 13 30 28 0 16-14 29-30 29-30 0-58 11-79 32-8 7-14 14-19 23 0 0 188 0 188 0 0 0 0-85 0-85 0-19-8-37-21-49 0 0 0 0 0 0-12-12-30-20-49-20 0 0-172 0-172 0 0 0 25 97 25 97 0 0 0 0 0 0z m624 443c0 26-22 48-49 48-26 0-48-22-48-48 0 0 0-11 0-11 0 0-289 0-289 0-27 0-49-21-49-47 0 0 0-2 0-2 0 0 0-13 0-13 0 0-172 0-172 0 0 0 0 15 0 15 0 26-22 47-49 47 0 0-1 0-1 0 0 0-301 0-301 0-20 0-37-12-45-29 0 0-111 0-111 0-16 0-29-12-29-28 0-4 0-7 2-11 0 0 58-185 58-185 1-3 2-5 3-8-1-36 17-68 33-99 0 0 2-2 2-2 10-19 20-37 18-48-33-91-113-357-113-358-8-25 7-51 32-59 3-1 6-1 8-1 0 0 310-63 310-63 25-4 50 11 56 35 0 0 0 0 0 0 0 0 70 270 70 270 0 0 187 0 187 0 35 0 67 14 91 37 0 0 0 0 0 0 23 23 38 54 38 89 0 0 0 85 0 85 0 0 204 0 204 0 15 0 28 6 37 16 0 0 84 82 84 82 0 0 80 0 80 0 27 0 49 21 49 47 0 0 0 1 0 1 0 0 0 182 0 182 0 26-22 47-49 47 0 0-2 0-2 0 0 0-55 0-55 0 0 0 0 11 0 11 0 0 0 0 0 0z m-1023-96c0 0-28-77-28-77 0 0-24 77-24 77 0 0 52 0 52 0 0 0 0 0 0 0z m684-10c116 0 232 0 347 0 0 0 0-88 0-88 0 0-51 0-51 0 0 0 0 0 0 0-13 0-25-4-35-13 0 0-86-84-86-84 0 0-483 0-483 0 0 0 0 0 0 0-22 0-42-15-48-36 0 0-123-474-123-474 0 0-214 46-214 46 25 81 74 239 98 305 0 0 0 0 0 0 0 0 1 3 1 3 12 46-6 81-26 118 0 0-1 2-1 2-13 24-27 49-19 67 0 0 2 4 2 4 0 0 54 150 54 150 0 0 219 0 219 0 6-35 38-62 76-62 0 0 214 0 214 0 38 0 69 27 75 62 0 0 0 0 0 0z" horiz-adv-x="1300" />
<glyph glyph-name="language" unicode="&#xe817;" d="m481 812c133 0 253-54 340-141 87-87 141-207 141-340 0-133-54-253-141-340-87-87-207-141-340-141-133 0-253 54-340 141-87 87-141 207-141 340 0 133 54 253 141 340 87 87 207 141 340 141 0 0 0 0 0 0z m-22-888c0 0 0 0 0 0 0 0 0 156 0 156-44-2-86-11-125-25-5-2-11-5-17-7 4-7 7-14 11-20 24-44 53-78 86-99 15-2 30-4 45-5 0 0 0 0 0 0z m310 695c0 0 0 0 0 0-4 3-7 6-10 9-18-13-37-25-57-36 27-68 43-150 45-239 0 0 141 0 141 0-6 104-50 197-119 266 0 0 0 0 0 0z m-45 39c0 0 0 0 0 0-26 19-53 35-83 47 11-15 22-31 32-50 4-7 8-14 12-22 13 8 26 16 39 25 0 0 0 0 0 0z m-176 74c0 0 0 0 0 0-14 3-30 5-45 5 0 0 0-156 0-156 44 3 86 12 125 26 6 2 11 5 17 7-4 7-7 14-11 20-24 45-53 78-86 98 0 0 0 0 0 0z m-89 5c0 0 0 0 0 0-15 0-30-2-45-5-33-20-62-53-86-98-4-6-7-13-11-20 6-2 11-5 17-7 39-14 81-23 125-26 0 0 0 156 0 156 0 0 0 0 0 0z m-138-32c0 0 0 0 0 0-29-12-57-28-83-47 13-9 26-17 40-25 3 8 7 15 11 22 10 19 21 35 32 50 0 0 0 0 0 0z m-118-77c0 0 0 0 0 0-3-3-6-6-10-9-69-69-113-162-118-266 0 0 140 0 140 0 2 89 19 171 45 239-20 11-39 23-57 36 0 0 0 0 0 0z m-128-319c0 0 0 0 0 0 5-104 49-197 118-266 0 0 10-10 10-10 18 14 37 26 57 37-26 68-43 150-45 239 0 0-140 0-140 0 0 0 0 0 0 0z m163-305c0 0 0 0 0 0 26-19 54-35 83-47-11 14-22 31-32 49-4 8-8 15-11 23-14-8-27-16-40-25 0 0 0 0 0 0z m265-80c0 0 0 0 0 0 15 1 31 3 45 5 33 21 62 55 86 99 4 6 7 13 11 20-6 2-11 5-17 7-39 14-81 23-125 25 0 0 0-156 0-156 0 0 0 0 0 0z m138 33c0 0 0 0 0 0 30 12 57 28 83 47-13 9-26 17-39 25-4-8-8-15-12-23-10-18-21-35-32-49 0 0 0 0 0 0z m118 76c0 0 0 0 0 0 0 0 10 10 10 10 69 69 113 162 119 266 0 0-141 0-141 0-2-89-18-171-45-239 20-11 39-23 57-37 0 0 0 0 0 0z m-97 540c0 0 0 0 0 0-6-2-12-5-18-7-45-17-92-27-141-29 0 0 0-184 0-184 0 0 200 0 200 0-3 82-17 157-41 220 0 0 0 0 0 0z m-203-36c0 0 0 0 0 0-49 2-96 12-140 29-7 2-13 5-19 7-24-63-38-138-41-220 0 0 200 0 200 0 0 0 0 184 0 184 0 0 0 0 0 0z m0-412c0 0 0 0 0 0 0 0 0 184 0 184 0 0-200 0-200 0 3-82 17-157 41-220 6 2 12 5 19 7 44 16 91 26 140 29 0 0 0 0 0 0z m44 0c0 0 0 0 0 0 49-3 96-13 141-29 6-2 12-5 18-7 24 63 38 138 41 220 0 0-200 0-200 0 0 0 0-184 0-184 0 0 0 0 0 0z" horiz-adv-x="1000" />
<glyph glyph-name="globe" unicode="&#xe818;" d="m762 811c9 9 24 9 34 0 9-8 9-22 0-31 0 0-25-23-25-23 36-36 65-79 86-125 23-51 36-107 36-166 0-59-13-115-36-166-24-53-59-101-103-141 0 0 0 0 0 0-43-40-95-72-153-94 0 0-2-1-2-1-43-16-91-27-140-31 1-2 1-3 1-5 0 0 0-69 0-69 0 0 153 0 153 0 23 0 41-16 41-37 0-20-18-37-41-37 0 0-192 0-192 0 0 0-1 0-1 0 0 0-1 0-1 0 0 0-193 0-193 0-22 0-40 17-40 37 0 21 18 37 40 37 0 0 154 0 154 0 0 0 0 69 0 69 0 2 0 4 0 5-49 4-97 15-141 32 0 0 0 0 0 0-51 19-96 46-136 79 0 0-25-22-25-22-9-9-25-9-34 0-9 8-9 22 0 30 0 0 88 81 88 81-60 62-97 144-97 233 0 98 44 186 113 249 0 0 0 0 0 0 0 0 0 1 0 1 70 63 166 103 272 103 97 0 186-34 254-89 0 0 46 43 46 43 0 0 0 0 0 0 0 0 0 0 0 0 0 0 1 1 1 1 0 0 41 37 41 37 0 0 0 0 0 0z m-25-85c0 0 0 0 0 0 0 0-29-27-29-27 60-62 96-143 96-233 0-97-43-185-113-249 0 0-2-2-2-2-69-63-165-101-269-101-98 0-186 33-255 88 0 0-28-27-28-27 35-29 76-52 120-69 0 0 0 0 0 0 50-19 105-30 163-30 57 0 112 11 161 29 0 0 1 1 1 1 52 19 99 49 138 85 0 0 0-1 0-1 0 0 0 1 0 1 39 35 71 78 92 126 21 46 32 96 32 149 0 53-11 104-32 150-18 40-44 78-75 110 0 0 0 0 0 0z m-103-63c0 0 0 0 0 0-54 51-130 82-214 82-84 0-160-31-215-82-55-50-89-120-89-197 0-77 34-146 89-197 55-50 131-81 215-81 83 0 158 30 212 79 0 0 2 2 2 2 56 51 89 120 89 197 0 77-33 147-89 197 0 0 1 0 1 0 0 0-1 0-1 0 0 0 0 0 0 0z" horiz-adv-x="929" />
<glyph glyph-name="year" unicode="&#xe819;" d="m392 342c12-11 27-18 44-18 18 0 33 7 45 18 11 11 18 27 18 44 0 18-7 33-18 45 0 0 0 0 0 0-12 11-27 18-45 18-17 0-32-7-44-18 0 0 0 0 0 0-11-12-18-27-18-45 0-17 7-32 18-44 0 0 0 0 0 0 0 0 0 0 0 0z m31 58c0 0 0 0 0 0 0 0 0 0 0 0 4 3 8 5 13 5 6 0 10-2 13-5 0 0 0 0 0 0 4-4 6-8 6-14 0-5-2-9-6-13-3-3-7-5-13-5-5 0-9 2-13 5-3 4-5 8-5 13 0 6 2 10 5 14 0 0 0 0 0 0z m-31-225c0 0 0 0 0 0 12-11 27-18 44-18 18 0 33 7 45 18 0 0 0 1 0 1 11 11 18 27 18 44 0 17-7 33-18 44 0 0 0 0 0 0-12 11-27 18-45 18-17 0-32-7-44-18 0 0 0 0 0 0-11-11-18-27-18-44 0-17 7-33 18-44 0 0 0-1 0-1 0 0 0 0 0 0z m31 58c0 0 0 0 0 0 0 0 0 0 0 0 4 3 8 5 13 5 6 0 10-2 13-5 0 0 0 0 0 0 4-3 6-8 6-13 0-5-2-10-6-13 0 0 0 0 0 0-3-4-7-6-13-6-5 0-9 2-13 6 0 0 0 0 0 0-3 3-5 8-5 13 0 5 2 10 5 13 0 0 0 0 0 0z m309 109c0 0 0 0 0 0 11-11 27-18 44-18 17 0 33 7 44 18 12 11 19 27 19 44 0 18-7 33-19 45 0 0 0 0 0 0-11 11-27 18-44 18-17 0-33-7-44-18 0 0 0 0 0 0-11-12-19-27-19-45 0-17 8-32 19-44 0 0 0 0 0 0 0 0 0 0 0 0z m31 58c0 0 0 0 0 0 0 0 0 0 0 0 3 3 8 5 13 5 5 0 10-2 13-5 0 0 0 0 0 0 3-4 5-8 5-14 0-5-2-9-5-13-3-3-8-5-13-5-5 0-10 2-13 5-4 4-5 8-5 13 0 6 1 10 5 14 0 0 0 0 0 0z m-201-58c0 0 0 0 0 0 11-11 27-18 44-18 18 0 33 7 45 18 11 11 18 27 18 44 0 18-7 33-18 45 0 0-1 0-1 0-11 11-27 18-44 18-17 0-33-7-44-18 0 0 0 0 0 0-11-12-18-27-18-45 0-17 7-32 18-44 0 0 0 0 0 0 0 0 0 0 0 0z m31 58c0 0 0 0 0 0 0 0 0 0 0 0 3 3 8 5 13 5 5 0 10-2 13-5 0 0 0 0 0 0 4-4 6-8 6-14 0-5-2-9-6-13-3-3-8-5-13-5-5 0-10 2-13 5-3 4-5 8-5 13 0 6 2 10 5 14 0 0 0 0 0 0z m-201-391c0 0 0 0 0 0 12-12 27-19 44-19 18 0 33 7 45 19 0 0 0 0 0 0 11 11 18 27 18 44 0 17-7 33-18 44 0 0 0 0 0 0-12 12-27 19-45 19-17 0-32-7-44-19 0 0 0 0 0 0-11-11-18-27-18-44 0-17 7-33 18-44 0 0 0 0 0 0 0 0 0 0 0 0z m31 57c0 0 0 0 0 0 0 0 0 0 0 0 4 4 8 6 13 6 6 0 10-2 13-6 0 0 0 0 0 0 4-3 6-8 6-13 0-5-2-10-6-13 0 0 0 0 0 0-3-3-7-5-13-5-5 0-9 2-13 5 0 0 0 0 0 0-3 3-5 8-5 13 0 5 2 10 5 13 0 0 0 0 0 0z m540 741c0 0 0 0 0 0 0 0-883 0-883 0-21 0-37-16-37-37 0 0 0-883 0-883 0-20 16-37 37-37 0 0 883 0 883 0 20 0 37 17 37 37 0 0 0 883 0 883 0 21-17 37-37 37 0 0 0 0 0 0z m-37-883c0 0 0 0 0 0 0 0-809 0-809 0 0 0 0 595 0 595 0 0 809 0 809 0 0 0 0-595 0-595 0 0 0 0 0 0z m0 639c0 0 0 0 0 0 0 0-809 0-809 0 0 0 0 170 0 170 0 0 72 0 72 0 0 0 0-54 0-54 0-21 16-37 37-37 20 0 37 16 37 37 0 0 0 54 0 54 0 0 123 0 123 0 0 0 0-54 0-54 0-21 17-37 37-37 20 0 37 16 37 37 0 0 0 54 0 54 0 0 123 0 123 0 0 0 0-54 0-54 0-21 16-37 37-37 20 0 37 16 37 37 0 0 0 54 0 54 0 0 123 0 123 0 0 0 0-54 0-54 0-21 16-37 37-37 20 0 37 16 37 37 0 0 0 54 0 54 0 0 72 0 72 0 0 0 0-170 0-170 0 0 0 0 0 0z m-364-554c0 0 0 0 0 0 11-12 27-19 44-19 17 0 33 7 44 19 0 0 1 0 1 0 11 11 18 27 18 44 0 17-7 33-18 44 0 0-1 0-1 0-11 12-27 19-44 19-17 0-33-7-44-19 0 0 0 0 0 0-11-11-18-27-18-44 0-17 7-33 18-44 0 0 0 0 0 0 0 0 0 0 0 0z m31 57c0 0 0 0 0 0 0 0 0 0 0 0 3 4 8 6 13 6 5 0 10-2 13-6 0 0 0 0 0 0 4-3 6-8 6-13 0-5-2-10-6-13 0 0 0 0 0 0-3-3-8-5-13-5-5 0-10 2-13 5 0 0 0 0 0 0-3 3-5 8-5 13 0 5 2 10 5 13 0 0 0 0 0 0z m-371 109c0 0 0 0 0 0 12-11 27-18 45-18 17 0 32 7 44 18 0 0 0 1 0 1 11 11 18 27 18 44 0 17-7 33-18 44 0 0 0 0 0 0-12 11-27 18-44 18-18 0-33-7-45-18 0 0 0 0 0 0-11-11-18-27-18-44 0-17 7-33 18-44 0 0 0-1 0-1 0 0 0 0 0 0z m31 58c0 0 0 0 0 0 0 0 0 0 0 0 4 3 8 5 14 5 5 0 9-2 13-5 0 0 0 0 0 0 3-3 5-8 5-13 0-5-2-10-5-13 0 0 0 0 0 0-4-4-8-6-13-6-6 0-10 2-14 6 0 0 0 0 0 0-3 3-5 8-5 13 0 5 2 10 5 13 0 0 0 0 0 0z m-31-224c0 0 0 0 0 0 12-12 27-19 45-19 17 0 32 7 44 19 0 0 0 0 0 0 11 11 18 27 18 44 0 17-7 33-18 44 0 0 0 0 0 0-12 12-27 19-44 19-18 0-33-7-45-19 0 0 0 0 0 0-11-11-18-27-18-44 0-17 7-33 18-44 0 0 0 0 0 0 0 0 0 0 0 0z m31 57c0 0 0 0 0 0 0 0 0 0 0 0 4 4 8 6 14 6 5 0 9-2 13-6 0 0 0 0 0 0 3-3 5-8 5-13 0-5-2-10-5-13 0 0 0 0 0 0-4-3-8-5-13-5-6 0-10 2-14 5 0 0 0 0 0 0-3 3-5 8-5 13 0 5 2 10 5 13 0 0 0 0 0 0z m309 109c0 0 0 0 0 0 11-11 27-18 44-18 17 0 33 7 44 18 0 0 1 1 1 1 11 11 18 27 18 44 0 17-7 33-18 44 0 0-1 0-1 0-11 11-27 18-44 18-17 0-33-7-44-18 0 0 0 0 0 0-11-11-18-27-18-44 0-17 7-33 18-44 0 0 0-1 0-1 0 0 0 0 0 0z m31 58c0 0 0 0 0 0 0 0 0 0 0 0 3 3 8 5 13 5 5 0 10-2 13-5 0 0 0 0 0 0 4-3 6-8 6-13 0-5-2-10-6-13 0 0 0 0 0 0-3-4-8-6-13-6-5 0-10 2-13 6 0 0 0 0 0 0-3 3-5 8-5 13 0 5 2 10 5 13 0 0 0 0 0 0z m139-58c0 0 0 0 0 0 11-11 27-18 44-18 17 0 33 7 44 18 0 0 0 1 0 1 12 11 19 27 19 44 0 17-7 33-19 44 0 0 0 0 0 0-11 11-27 18-44 18-17 0-33-7-44-18 0 0 0 0 0 0-11-11-19-27-19-44 0-17 8-33 19-44 0 0 0-1 0-1 0 0 0 0 0 0z m31 58c0 0 0 0 0 0 0 0 0 0 0 0 3 3 8 5 13 5 5 0 10-2 13-5 0 0 0 0 0 0 3-3 5-8 5-13 0-5-2-10-5-13 0 0 0 0 0 0-3-4-8-6-13-6-5 0-10 2-13 6 0 0 0 0 0 0-4 3-5 8-5 13 0 5 1 10 5 13 0 0 0 0 0 0z" horiz-adv-x="1000" />
<glyph glyph-name="it" unicode="&#xe81a;" d="m44 805c0 0 1 0 1 0 0 0 1047 0 1047 0 24 0 44-20 44-44 0 0 0-1 0-1 0 0 0-760 0-760 0-24-20-44-44-44 0 0-1 0-1 0 0 0-479 0-479 0 0 0 0-48 0-48 0 0 0-5 0-5 0 0 242 0 242 0 15 0 26-12 26-26 0-15-11-27-26-27 0 0-572 0-572 0-14 0-26 12-26 27 0 14 12 26 26 26 0 0 243 0 243 0 0 0-1 5-1 5 0 0 0 48 0 48 0 0-480 0-480 0-24 0-44 20-44 44 0 0 0 2 0 2 0 0 0 759 0 759 0 24 20 44 44 44 0 0 0 0 0 0z m926-637c0 0 0 0 0 0-24 0-44-20-44-44 0-25 20-44 44-44 24 0 44 19 44 44 0 24-20 44-44 44 0 0 0 0 0 0z m79 548c0 0 0 0 0 0 0 0-961 0-961 0 0-224 0-447 0-671 320 0 641 0 961 0 0 224 0 447 0 671 0 0 0 0 0 0z" horiz-adv-x="1136" />
<glyph glyph-name="tie" unicode="&#xe81b;" d="m179 595c0 0 165 0 165 0 0 0 51 114 51 114 0 0-15 40-15 40 0 0-236 0-236 0 0 0-16-40-16-40 0 0 51-114 51-114 0 0 0 0 0 0z m239-51c0 0 0 0 0 0 0 0 222-217 222-217 9-9 9-23 0-31 0 0-86-85-86-85-9-8-23-8-31 0 0 0-2 1-2 1 0 0-53 53-53 53 0 0 27-151 27-151 2-13-3-25-12-33 0 0-195-191-195-191-14-14-38-14-52 0 0 0-196 192-196 192-10 10-13 22-10 34 0 0 80 453 80 453 0 0-55 125-55 125-4 9-4 19-1 28 0 0 0 0 0 0 0 0 30 76 30 76 6 14 20 23 35 23 0 0 286 0 286 0 17 0 31-11 36-26 0 0 29-73 29-73 3-10 3-19-1-28 0 0-56-125-56-125 0 0 5-25 5-25 0 0 0 0 0 0z m-77 7c0 0 0 0 0 0 0 0-159 0-159 0 0 0-77-431-77-431 0 0 157-153 157-153 0 0 157 153 157 153 0 0-78 431-78 431 0 0 0 0 0 0z m90-81c0 0 0 0 0 0 0 0 23-131 23-131 0 0 84-82 84-82 0 0 55 54 55 54 0 0-162 159-162 159 0 0 0 0 0 0z" horiz-adv-x="676" />
<glyph glyph-name="auto" unicode="&#xe81c;" d="m975 134c0-29 23-53 50-53 28 0 50 24 50 53 0 28-22 51-50 51-27 0-50-23-50-51 0 0 0 0 0 0z m325 386c0 0 0 0 0 0 0 0-207 0-207 0 0 0-137 300-137 300-9 19-26 29-45 29 0 0 0 1 0 1 0 0-615 0-615 0-21 0-39-14-46-33 0 0-136-297-136-297 0 0-14 0-14 0-28 0-50-24-50-52 0 0 0-330 0-330 0-29 22-52 50-52 0 0 41 0 41 0 9-46 31-86 61-118 0 0 3-3 3-3 41-40 96-65 157-65 62 0 119 26 159 68 0 0 2 1 2 1 29 32 51 72 60 117 0 0 221 0 221 0 9-46 31-86 62-118 0 0 2-3 2-3 41-40 96-65 157-65 62 0 118 26 160 68 0 0 1 1 1 1 30 32 51 72 60 117 0 0 54 0 54 0 28 0 50 23 50 52 0 0 0 330 0 330 0 28-22 52-50 52 0 0 0 0 0 0z m-50-331c0 0 0 0 0 0 0 0-49 0-49 0 0 0 0 0 0 0 0 0-1 0-1 0-27 0-49-23-49-52 0 0 0-3 0-3 0-37-14-69-37-93-23-23-54-38-89-38-34 0-64 14-87 37 0 0-2 2-2 2-22 23-36 56-36 92 0 0 0 4 0 4 0 29-23 51-51 51 0 0-312 0-312 0 0 0 0 0 0 0 0 0 0 0 0 0-27 0-49-23-49-52 0 0 0-3 0-3 0-37-15-69-37-93-23-23-54-38-89-38-34 0-65 14-87 37 0 0-2 2-2 2-22 23-37 56-37 92 0 0 0 4 0 4 0 29-22 51-50 51 0 0-36 0-36 0 0 0 0 40 0 40 0 0 377 0 377 0 46 0 88 19 118 51 0 0 0 0 0 0 24 24 40 56 47 91 0 0 51 0 51 0 19 0 37 9 49 22 0 0 1 0 1 0 12 13 20 32 20 52 0 0 0 103 0 103 0 18-13 32-30 32 0 0-17 0-17 0 0 0 0 97 0 97 0 17-14 31-30 31-17 0-30-14-30-31 0 0 0-97 0-97 0 0-83 0-83 0 0 0 0 97 0 97 0 17-13 31-30 31-16 0-30-14-30-31 0 0 0-97 0-97 0 0-18 0-18 0-16 0-30-14-30-32 0 0 0-103 0-103 0-20 9-39 21-52 13-13 31-22 50-22 0 0 44 0 44 0-5-18-14-34-27-48-20-19-47-32-76-32 0 0-377 0-377 0 0 0 0 106 0 106 0 0 178 349 178 349 0 0 551 0 551 0 0 0 139-304 139-304 7-16 22-26 40-26 0 0 192 0 192 0 0 0 0-227 0-227 0 0 0 0 0 0z m-664 245c0 0 0 0 0 0-3 0-5 1-7 3-2 2-4 5-4 8 0 0 0 72 0 72 0 0 178 0 178 0 0 0 0-72 0-72 0-3-1-6-3-8 0 0 0 0 0 0-2-2-5-3-7-3 0 0-157 0-157 0 0 0 0 0 0 0z m-224-249c0 0 0 0 0 0-28 0-50-23-50-51 0-29 22-53 50-53 28 0 50 24 50 53 0 28-22 51-50 51 0 0 0 0 0 0z" horiz-adv-x="1400" />
<glyph glyph-name="bank" unicode="&#xe81d;" d="m1003 850c0 0-922 0-922 0-22 0-39-18-39-40 0 0 0-842 0-842 0-22 17-40 39-40 0 0 75 0 75 0 0 0 0-38 0-38 0-22 17-40 39-40 22 0 40 18 40 40 0 0 0 38 0 38 0 0 614 0 614 0 0 0 0-38 0-38 0-22 18-40 39-40 22 0 40 18 40 40 0 0 0 38 0 38 0 0 75 0 75 0 21 0 39 18 39 40 0 0 0 842 0 842 0 22-18 40-39 40 0 0 0 0 0 0z m-40-843c0 0 0 0 0 0 0 0-843 0-843 0 0 0 0 763 0 763 0 0 843 0 843 0 0 0 0-763 0-763 0 0 0 0 0 0z m-284 268c0 0 0 0 0 0 30 0 58 13 78 32 0 0 2 2 2 2 20 20 33 49 33 80 0 31-13 59-33 80 0 0 0 0 0 0 0 0 0 0 0 0 0 0 0 0 0 0-21 21-49 33-80 33-31 0-60-12-80-33-21-20-33-49-33-80 0-31 12-60 33-80 20-21 49-34 80-34 0 0 0 0 0 0z m-47 161c0 0 0 0 0 0 12 11 29 19 47 19 18 0 34-7 46-19 0 0 0 0 0 0 12-12 19-29 19-47 0-18-7-35-19-47 0 0-1-1-1-1-12-11-28-18-45-18-18 0-35 7-47 19-11 12-19 29-19 47 0 18 8 35 19 47 0 0 0 0 0 0z m-90-185c0 0 0 0 0 0 0 0 0 0 0 0 35-35 83-57 137-57 53 0 102 22 137 57 35 35 57 84 57 138 0 54-22 103-57 138-35 35-84 57-137 57-53 0-101-21-136-56 0 0-2-1-2-1-35-35-56-84-56-138 0-54 21-103 56-138 0 0 1 0 1 0 0 0 0 0 0 0z m33 242c0 0 0 0 0 0 0 0 1 1 1 1 26 26 63 42 103 42 40 0 77-16 104-43 26-26 43-63 43-104 0-41-17-78-43-104-27-27-64-43-104-43-41 0-78 16-104 43 0 0 0 0 0 0-27 26-43 63-43 104 0 41 16 78 43 104 0 0 0 0 0 0z m-355-301c0 0 0 0 0 0 0 0-1-1-1-1-13-14-22-32-22-52 0-21 9-39 22-53 0 0 0 0 0 0 0 0 0 0 0 0 13-13 32-22 52-22 19 0 37 8 50 21 0 0 2 1 2 1 13 14 22 32 22 53 0 20-9 38-22 52 0 0 0 0 0 0 0 0 0 0 0 0-8 8-18 14-29 18 0 0 0 376 0 376 11 4 21 10 29 18 0 0 0 0 0 0 13 13 22 32 22 52 0 21-9 39-22 53 0 0 0 0 0 0-13 13-32 21-52 21-20 0-39-8-52-21 0 0 0 0 0 0-13-14-22-32-22-53 0-20 9-39 22-52 0 0 0 0 0 0 8-8 17-14 28-18 0 0 0-376 0-376-10-4-19-9-27-17 0 0 0 0 0 0z m24 463c0 0 0 0 0 0 0 8 3 14 8 19 0 0 0 0 0 0 5 5 12 8 19 8 7 0 14-3 19-8 0 0 0 0 0 0 4-5 7-11 7-19 0-7-3-14-7-18 0 0 0-1 0-1-5-4-12-7-19-7-7 0-14 3-19 7 0 0 0 1 0 1-5 4-8 11-8 18 0 0 0 0 0 0z m8-498c0 0 0 0 0 0 0 0 1 1 1 1 5 4 11 7 17 7 0 0 2 0 2 0 7 0 13-3 18-8 0 0 0 0 0 0 4-4 7-11 7-18 0-8-3-15-7-19 0 0-1-1-1-1 0 0 0 0 0 0-5-4-11-7-18-7-7 0-14 3-19 8 0 0 0 0 0 0-5 4-8 11-8 19 0 7 3 14 8 18 0 0 0 0 0 0z" horiz-adv-x="1083" />
<glyph glyph-name="waiter" unicode="&#xe81e;" d="m465 816c19 0 37-8 49-21 13-13 21-31 21-51 0-14-4-26-10-37 74-13 140-50 191-103 65-67 105-159 105-260 0-11-9-21-20-21 0 0-1 0-1 0 0 0-671 0-671 0-11 0-20 10-20 21 0 0 0 1 0 1 0 101 40 193 105 259 51 53 117 90 191 103-7 11-10 23-10 37 0 20 8 38 20 51 13 13 31 21 50 21 0 0 0 0 0 0z m-256-932c0 0 0 0 0 0-11-1-21 6-22 18-2 11 6 21 16 23 0 0 274 41 274 41 0 0 3 0 3 0 19 1 34 17 49 35 0 0 1 0 1 0 0 0 4 4 4 4 0 0 161 176 161 176 7 7 9 14 8 18 0 0 0 0 0 0 0 0 0 0 0 0 0 1 0 2 0 3-1 0-2 1-3 1 0 0-1 1-1 1 0 0 0 0 0 0-4 1-12-1-20-8 0 0-155-125-155-125 0 0 0-1 0-1-8-6-17-11-27-15-9-4-19-6-30-6 0 0-75-5-75-5 0 0 0 0 0 0 0 0-1 0-1 0-5 0-9 1-14 3-5 2-9 6-12 10 0 0-1 1-1 1 0 0 0 0 0 0-3 4-5 9-6 13 0 0 0 2 0 2 0 0 0 0 0 0-1 5 0 9 0 14 0 0 0 0 0 0 5 18 7 34 7 50-1 15-5 32-11 51-5 13-12 19-19 20-2 0-4 0-7-1-2-1-4-2-6-5-6-7-9-19-3-35 0 0 0-1 0-1 7-20 9-37 7-54-3-16-10-32-22-50-12-19-26-31-41-39-15-7-29-11-44-14-11-2-21 5-24 16-2 11 5 22 16 24 12 3 24 6 34 11 9 5 18 12 26 25 9 13 15 24 16 34 1 9-1 20-5 33 0 0-1 1-1 1-11 33-3 60 12 77 0 0-226 0-226 0-18 0-33 16-33 35 0 19 15 34 33 34 0 0 796 0 796 0 18 0 33-15 33-34 0-19-15-35-33-35 0 0-132 0-132 0 0 0 1 0 1 0 5-6 9-14 11-23 0 0 0 0 0 0 3-16-2-36-19-54 0 0-161-176-161-176 0 0-5-4-5-4 0 0 0-1 0-1-21-23-41-45-76-47 0 0-273-41-273-41 0 0 0 0 0 0z m165 346c0 0 0 0 0 0 7-7 13-16 17-28 0 0 0-1 0-1 8-22 12-43 13-62 1-18-1-35-5-53 0 0 66 4 66 4 7 0 13 1 18 3 0 0 0 0 0 0 6 2 11 6 17 10 0 0 0 0 0 0 0 0 155 125 155 125 0 0 2 2 2 2 0 0-283 0-283 0 0 0 0 0 0 0z m105-264c0 0 0 0 0 0 0 0 1 0 1 0 0 0-1 0-1 0 0 0 0 0 0 0z m51 35c0 0 0 0 0 0 0 0 0 0 0 0 0 0 0 0 0 0 0 0 0 0 0 0z m169 203c0 0 0 0 0 0 0 0-12 25-12 25-4-11 2-22 12-25 0 0 0 0 0 0z m-11 371c0 0 0 0 0 0-57 59-136 96-223 96-87 0-166-37-223-96-53-55-87-129-93-210 0 0 631 0 631 0-5 81-39 155-92 210 0 0 0 0 0 0z m-202 191c0 0 0 0 0 0-5 5-13 9-21 9-8 0-16-4-21-9-6-6-9-14-9-22 0-9 3-17 9-23 5-5 12-9 20-9 0 0 1 0 1 0 0 0 0 0 0 0 0 0 0 0 0 0 0 0 1 0 1 0 8 0 15 4 20 9 6 6 9 14 9 23 0 8-3 16-9 22 0 0 0 0 0 0z" horiz-adv-x="897" />
<glyph glyph-name="sale" unicode="&#xe81f;" d="m923 809c0 0-402 0-402 0 0 0-2 0-2 0-9 0-19-5-25-11 0 0-442-442-442-442 0 0 0 0 0 0-14-14-14-37 0-50 0 0 402-403 402-403 0 0 1-1 1-1 14-14 36-14 50 0 0 0 443 442 443 442 7 7 11 16 11 26 0 0 0 404 0 404 0 19-16 35-36 35 0 0 0 0 0 0z m-35-424c0 0 0 0 0 0 0 0-408-408-408-408 0 0-354 354-354 354 0 0 408 407 408 407 0 0 354 0 354 0 0 0 0-353 0-353 0 0 0 0 0 0z m-151 96c0 0 0 0 0 0 57 0 105 48 105 106 0 58-47 105-105 105-59 0-106-47-106-105 0-58 47-106 106-106 0 0 0 0 0 0z m0 169c0 0 0 0 0 0 34 0 63-28 63-63 0-35-29-64-63-64-35 0-64 29-64 64 0 35 29 63 64 63 0 0 0 0 0 0z" horiz-adv-x="1000" />
<glyph glyph-name="account" unicode="&#xe820;" d="m847 778c-5 20-24 32-44 27 0 0-213-60-213-60-7 10-17 17-30 17 0 0-524 0-524 0-20 0-36-17-36-38 0 0 0-793 0-793 0-21 16-38 36-38 0 0 524 0 524 0 20 0 36 17 36 38 0 0 0 479 0 479 0 0 124-489 124-489 5-20 25-32 44-26 0 0 253 71 253 71 19 5 31 26 25 46 0 0-195 766-195 766 0 0 0 0 0 0z m-571-809c0 0 0 0 0 0 0 0-204 0-204 0 0 0 0 717 0 717 0 0 204 0 204 0 0 0 0-717 0-717 0 0 0 0 0 0z m248 0c0 0 0 0 0 0 0 0-205 0-205 0 0 0 0 717 0 717 0 0 205 0 205 0 0 0 0-717 0-717 0 0 0 0 0 0z m256 8c0 0 0 0 0 0 0 0-176 693-176 693 0 0 183 52 183 52 0 0 177-693 177-693 0 0-184-52-184-52 0 0 0 0 0 0z m-659 87c0 0 0 0 0 0 0 0 1-1 1-1 13-14 31-23 51-23 20 0 38 9 51 22 0 0 0 0 0 0 0 0 1 1 1 1 13 14 21 33 21 54 0 21-8 41-21 54 0 0 0 0 0 0 0 0 0 0 0 0-13 14-31 23-52 23-20 0-38-9-51-23 0 0 0 0 0 0-13-13-21-33-21-54 0-20 7-39 20-53 0 0 0 0 0 0z m31 75c0 0 0 0 0 0 6 6 13 9 21 9 9 0 16-3 22-8 0 0 0-1 0-1 5-5 8-13 8-22 0-9-3-16-8-22 0 0 0 0 0 0-6-6-13-9-22-9-8 0-15 3-21 9 0 0-1 1-1 1-4 5-7 13-7 21 0 9 3 17 8 22 0 0 0 0 0 0z m15 163c0 0 0 0 0 0 12 0 22 10 22 23 0 0 0 274 0 274 0 12-10 22-22 22-12 0-21-10-21-22 0 0 0-274 0-274 0-13 9-23 21-23 0 0 0 0 0 0z m545 331c0 0 0 0 0 0-12-3-19-15-16-27 0 0 68-265 68-265 3-12 14-19 26-16 12 3 18 16 15 28 0 0-67 264-67 264-3 12-15 20-26 16 0 0 0 0 0 0z m-348-569c0 0 0 0 0 0 0 0 1-1 1-1 13-14 32-23 52-23 19 0 37 9 51 22 0 0 0 0 0 0 0 0 0 1 0 1 14 14 22 33 22 54 0 21-8 41-22 54 0 0 0 0 0 0 0 0 0 0 0 0-13 14-31 23-51 23-20 0-39-9-52-23 0 0 0 0 0 0-13-13-21-33-21-54 0-20 8-39 20-53 0 0 0 0 0 0z m32 75c0 0 0 0 0 0 5 6 12 9 21 9 8 0 15-3 21-8 0 0 0-1 0-1 5-5 9-13 9-22 0-9-4-16-9-22 0 0 0 0 0 0-6-6-13-9-21-9-9 0-16 3-21 9 0 0-1 1-1 1-5 5-8 13-8 21 0 9 3 17 9 22 0 0 0 0 0 0z m33 163c0 0 0 0 0 0 12 0 21 10 21 23 0 0 0 274 0 274 0 12-9 22-21 22-12 0-22-10-22-22 0 0 0-274 0-274 0-13 10-23 22-23 0 0 0 0 0 0z m358-101c0 0 0 0 0 0-14-14-22-33-22-54 0-21 8-39 21-53 0 0 1-2 1-2 13-13 31-22 51-22 20 0 38 8 51 22 0 0 0 0 0 0 0 0 1 1 1 1 13 13 21 33 21 54 0 21-8 40-21 54 0 0 0 0 0 0 0 0 0 0 0 0-13 14-32 23-52 23-20 0-38-9-51-23 0 0 0 0 0 0 0 0 0 0 0 0z m30-32c0 0 0 0 0 0 6 5 13 9 21 9 9 0 16-4 21-9 0 0 0 0 0 0 6-6 9-14 9-22 0-9-3-17-9-23 0 0 0 0 0 0-5-5-12-9-21-9-8 0-15 4-21 9 0 0-1 2-1 2-4 5-8 13-8 21 0 8 4 16 9 22 0 0 0 0 0 0z" horiz-adv-x="1087" />
<glyph glyph-name="deputy" unicode="&#xe821;" d="m452 850c0 0 221 0 221 0 32 0 62-13 83-33 21-20 34-48 34-79 0 0 0-35 0-35 0 0 88 0 88 0 56 0 108-22 145-58 37-36 61-85 61-140 0 0 0-416 0-416 0-54-24-104-61-140-37-35-89-58-145-58 0 0-630 0-630 0-57 0-109 23-146 58 0 0-2 3-2 3-36 35-59 84-59 137 0 0 0 416 0 416 0 55 23 104 61 140 0 0 0 0 0 0 0 0 0 0 0 0 37 36 89 58 146 58 0 0 87 0 87 0 0 0 0 35 0 35 0 31 13 59 34 79 22 20 51 33 83 33 0 0 0 0 0 0z m319-224c0 0 0 0 0 0-2 0-3 0-5 0 0 0 0 0 0 0 0 0-407 0-407 0-1 0-3 0-5 0 0 0-106 0-106 0-35 0-67-13-89-35 0 0-1 0-1 0-22-22-37-52-37-86 0 0 0-185 0-185 0 0 115 0 115 0 0 0 0 69 0 69 0 12 11 23 24 23 0 0 1 0 1 0 0 0 171 0 171 0 13 0 24-11 24-23 0 0 0-1 0-1 0 0 0-68 0-68 0 0 213 0 213 0 0 0 0 69 0 69 0 12 11 23 24 23 0 0 1 0 1 0 0 0 171 0 171 0 13 0 24-11 24-23 0 0 0-1 0-1 0 0 0-68 0-68 0 0 115 0 115 0 0 0 0 185 0 185 0 33-15 64-37 86-23 22-55 35-89 35 0 0-107 0-107 0 0 0 0 0 0 0z m-388 77c0 0 0 0 0 0 0 0 359 0 359 0 0 0 0 35 0 35 0 18-8 34-20 46-12 12-30 20-49 20 0 0-221 0-221 0-19 0-36-8-49-20-12-12-20-28-20-46 0 0 0-35 0-35 0 0 0 0 0 0z m-262-429c0 0 0 0 0 0 0 0 0-185 0-185 0-32 14-62 36-84 0 0 2-1 2-1 22-22 54-36 89-36 0 0 630 0 630 0 34 0 66 14 89 36 22 22 37 52 37 85 0 0 0 185 0 185 0 0-115 0-115 0 0 0 0-68 0-68 0-13-11-23-24-23 0 0 0 0 0 0 0 0-172 0-172 0-13 0-24 10-24 23 0 0 0 1 0 1 0 0 0 67 0 67 0 0-213 0-213 0 0 0 0-68 0-68 0-13-11-23-24-23 0 0-1 0-1 0 0 0-171 0-171 0-13 0-24 10-24 23 0 0 0 1 0 1 0 0 0 67 0 67 0 0-115 0-115 0 0 0 0 0 0 0z m287 91c0 0 0 0 0 0 0 0-124 0-124 0 0 0 0-67 0-67 0 0 0-1 0-1 0 0 0 0 0 0 0 0 0-68 0-68 0 0 124 0 124 0 0 0 0 68 0 68 0 0 0 0 0 0 0 0 0 1 0 1 0 0 0 67 0 67 0 0 0 0 0 0z m433 0c0 0 0 0 0 0 0 0-124 0-124 0 0 0 0-67 0-67 0 0 0-1 0-1 0 0 0 0 0 0 0 0 0-68 0-68 0 0 124 0 124 0 0 0 0 68 0 68 0 0 0 0 0 0 0 0 0 1 0 1 0 0 0 67 0 67 0 0 0 0 0 0z" horiz-adv-x="1125" />
<glyph glyph-name="design" unicode="&#xe822;" d="m1149 222c-3 0-6-1-9-2-23-11-43-11-66 0-10 5-23 1-28-10-5-10-1-22 10-27 0-1 0-1 0-1 34-15 69-15 102 0 10 5 15 17 10 28-3 7-11 12-19 12 0 0 0 0 0 0 0 0 0 0 0 0z m-42-72c-42 0-84-35-84-90 0-38 22-62 38-77 15-16 25-24 25-47-1-9 5-17 13-20 0 0 0 0 0 0 0 0 0 0 0 0 10-4 20-1 26 8 14 15 24 28 29 40 5 14 5 26 5 33 0 8 0 12 3 18 2 6 8 16 22 30 4 4 7 9 7 15 0 55-42 90-84 90 0 0 0 0 0 0z m0-41c19 0 39-11 41-42-12-14-21-26-25-37-6-13-6-25-6-33 0-7 0-11-2-16-7 13-17 23-25 31-15 16-25 23-25 48 0 37 21 49 42 49 0 0 0 0 0 0z m0 723c-11 0-20-8-21-19 0 0-42-539-42-539 0-8 4-17 12-20 34-16 69-15 102 0 7 4 12 12 12 20 0 0-42 539-42 539-1 11-10 19-21 19 0 0 0 0 0 0z m0-291c0 0 20-254 20-254-13-4-26-4-40 0 0 0 20 254 20 254 0 0 0 0 0 0z m-501-313c-58 0-105-46-105-103 0-57 47-104 105-104 57 0 104 47 104 104 0 57-47 103-104 103z m0-41c35 0 62-28 62-62 0-35-27-63-62-63-35 0-63 28-63 63 0 34 28 62 63 62z m-293 83c-57 0-104-47-104-104 0-57 47-104 104-104 58 0 105 47 105 104 0 57-47 104-105 104z m0-42c35 0 63-27 63-62 0-34-28-62-63-62-34 0-62 28-62 62 0 35 28 62 62 62z m-125 249c-57 0-104-47-104-104 0-57 47-103 104-103 57 0 104 46 104 103 0 57-47 104-104 104z m0-41c35 0 63-28 63-63 0-34-28-62-63-62-35 0-63 28-63 62 0 35 28 63 63 63z m167 248c-57 0-104-46-104-103 0-57 47-104 104-104 58 0 105 47 105 104 0 57-47 103-105 103z m0-41c35 0 63-28 63-62 0-35-28-62-63-62-35 0-63 27-63 62 0 34 28 62 63 62z m251 41c-58 0-105-46-105-103 0-57 47-104 105-104 57 0 104 47 104 104 0 57-47 103-104 103z m0-41c35 0 62-28 62-62 0-35-27-62-62-62-35 0-63 27-63 62 0 34 28 62 63 62z m-122 207c-62 0-124-11-181-33-183-73-303-248-303-444 0-195 120-371 303-443 183-72 392-26 527 116 7 7 8 18 2 26 0 0 0 0 0 0-101 151-69 254-27 349 21 48 45 92 56 138 11 46 7 95-30 140-79 98-212 151-347 151 0 0 0 0 0 0z m-1-42c124-1 246-49 315-135 30-36 32-66 22-104-9-38-32-81-53-131-43-96-75-219 21-374-123-121-307-159-469-95-167 66-277 226-277 404 0 179 109 339 276 405 52 20 109 30 165 30z" horiz-adv-x="1190" />
<glyph glyph-name="production" unicode="&#xe823;" d="m1219 159c0 0 0-265 0-265 12 0 21-10 21-22 0-12-10-22-22-22 0 0-21 0-21 0 0 0-347 0-347 0 0 0-285 0-285 0 0 0-521 0-521 0 0 0-22 0-22 0-12 0-22 10-22 22 0 12 10 22 22 22 0 0 0 488 0 488-7 0-13 4-17 9-4 6-5 14-2 21 0 0 41 111 41 111 3 8 11 14 20 14 0 0 67 0 67 0 0 0 0 291 0 291 0 12 10 22 22 22 0 0 87 0 87 0 12 0 22-10 22-22 0 0 0-291 0-291 0 0 44 0 44 0 0 0 0 291 0 291 0 12 9 22 21 22 0 0 88 0 88 0 12 0 21-10 21-22 0 0 0-291 0-291 0 0 107 0 107 0 0 0 0 221 0 221 0 12 10 22 22 22 0 0 282 0 282 0 12 0 22-10 22-22 0 0 0-444 0-444 0 0 307 0 307 0 9 0 17-5 21-14 0 0 41-111 41-111 3-7 2-14-2-20-4-6-10-9-17-10z m-980-265c0 0 131 0 131 0 0 0 0 133 0 133 0 0-131 0-131 0 0 0 0-133 0-133z m0 178c0 0 131 0 131 0 0 0 0 134 0 134 0 0-131 0-131 0 0 0 0-134 0-134z m0 178c0 0 131 0 131 0 0 0 0 132 0 132 0 0-131 0-131 0 0 0 0-132 0-132z m-174-356c0 0 130 0 130 0 0 0 0 133 0 133 0 0-130 0-130 0 0 0 0-133 0-133z m0 178c0 0 130 0 130 0 0 0 0 134 0 134 0 0-130 0-130 0 0 0 0-134 0-134z m0 178c0 0 130 0 130 0 0 0 0 132 0 132 0 0-126 0-126 0-1 0-2 0-4 0 0 0 0-132 0-132z m154 556c0 0-44 0-44 0 0 0 0-45 0-45 0 0 44 0 44 0 0 0 0 45 0 45z m0-90c0 0-44 0-44 0 0 0 0-178 0-178 0 0 44 0 44 0 0 0 0 178 0 178z m174 90c0 0-44 0-44 0 0 0 0-45 0-45 0 0 44 0 44 0 0 0 0 45 0 45z m0-90c0 0-44 0-44 0 0 0 0-178 0-178 0 0 44 0 44 0 0 0 0 178 0 178z m150-224c0 0-464 0-464 0 0 0-24-65-24-65 0 0 158 0 158 0 1 0 3 0 4 0 1 0 3 0 4 0 0 0 167 0 167 0 1 0 2 0 4 0 1 0 3 0 4 0 0 0 147 0 147 0 0 0 0 65 0 65z m0-110c0 0-129 0-129 0 0 0 0-132 0-132 0 0 129 0 129 0 0 0 0 132 0 132z m0-176c0 0-129 0-129 0 0 0 0-134 0-134 0 0 129 0 129 0 0 0 0 134 0 134z m0-179c0 0-129 0-129 0 0 0 0-133 0-133 0 0 129 0 129 0 0 0 0 133 0 133z m283 709c0 0-239 0-239 0 0 0 0-332 0-332 0 0 0-510 0-510 0 0 239 0 239 0 0 0 0 842 0 842z m130-842c0 0 132 0 132 0 0 0 0 111 0 111 0 0-132 0-132 0 0 0 0-111 0-111z m-84 0c0 0 41 0 41 0 0 0 0 133 0 133 0 12 10 22 22 22 0 0 174 0 174 0 12 0 22-10 22-22 0 0 0-133 0-133 0 0 44 0 44 0 0 0 0 265 0 265 0 0-303 0-303 0 0 0 0-265 0-265z m289 376c0 0-292 0-292 0 0 0 0-66 0-66 0 0 307 0 307 0 0 0 10 0 10 0 0 0-25 66-25 66z m-485 399c12 0 21-9 21-22 0 0 0-43 0-43 0-13-9-23-21-23-12 0-22 10-22 23 0 0 0 43 0 43 0 13 10 22 22 22z m0-156c12 0 21-10 21-23 0 0 0-43 0-43 0-13-9-23-21-23-12 0-22 10-22 23 0 0 0 43 0 43 0 13 10 23 22 23z m0-155c12 0 21-10 21-22 0 0 0-44 0-44 0-12-9-22-21-22-12 0-22 10-22 22 0 0 0 44 0 44 0 12 10 22 22 22z m0-157c12 0 21-10 21-22 0 0 0-44 0-44 0-12-9-22-21-22-12 0-22 10-22 22 0 0 0 44 0 44 0 12 10 22 22 22z m0-155c12 0 21-9 21-22 0 0 0-44 0-44 0-12-9-22-21-22-12 0-22 10-22 22 0 0 0 44 0 44 0 13 10 22 22 22z m64 623c12 0 22-9 22-22 0 0 0-43 0-43 0-13-10-23-22-23-12 0-22 10-22 23 0 0 0 43 0 43 0 13 10 22 22 22z m0-156c12 0 22-10 22-23 0 0 0-43 0-43 0-13-10-23-22-23-12 0-22 10-22 23 0 0 0 43 0 43 0 13 10 23 22 23z m0-155c12 0 22-10 22-22 0 0 0-44 0-44 0-12-10-22-22-22-12 0-22 10-22 22 0 0 0 44 0 44 0 12 10 22 22 22z m0-157c12 0 22-10 22-22 0 0 0-44 0-44 0-12-10-22-22-22-12 0-22 10-22 22 0 0 0 44 0 44 0 12 10 22 22 22z m0-155c12 0 22-9 22-22 0 0 0-44 0-44 0-12-10-22-22-22-12 0-22 10-22 22 0 0 0 44 0 44 0 13 10 22 22 22z" horiz-adv-x="1280" />
<glyph glyph-name="restaurant" unicode="&#xe824;" d="m889-19c0-25-8-47-22-63-16-18-37-28-61-28-23 0-44 10-60 28-14 16-23 38-23 63 0 0 0 3 0 3 0 0 18 276 18 276 0 0 0 2 0 2 0 0 0 1 0 1 0 0 0 0 0 0 0 19 7 36 18 49 3 3 6 6 10 9 0 0 0 142 0 142-29 8-53 25-72 48-27 31-44 75-44 122 0 48 17 92 44 123 27 33 66 53 109 53 43 0 82-20 110-53 0 0 2-1 2-1 26-32 42-75 42-122 0-47-17-91-44-122 0 0 0 0 0 0-19-23-44-40-72-48 0 0 0-142 0-142 4-3 7-6 10-9 11-13 18-30 18-49 0 0 0-2 0-2 0 0 17-279 17-279 0 0 0-1 0-1 0 0 0 0 0 0 0 0 0 0 0 0z m-415 509c0 0 0-169 0-169 4-3 7-6 10-9 11-13 18-30 18-49 0 0 0-2 0-2 0 0 17-279 17-279 0 0 1-1 1-1 0 0 0 0 0 0 0-25-9-47-24-63-15-18-36-28-60-28-23 0-45 10-59 28-15 16-24 38-24 63 0 0 0 3 0 3 0 0 18 277 18 277 0 0 0 2 0 2 0 0 0 0 0 0 0 0 0 0 0 0 0 19 7 36 18 49 3 3 6 6 9 9 0 0 0 169 0 169 0 0-14 0-14 0-18 0-34 7-46 18-11 12-18 27-18 45 0 0 0 202 0 202 0 13 10 23 22 23 13 0 23-10 23-23 0 0 0-202 0-202 0-5 2-10 6-13 3-3 7-5 11-6 0 0 0 221 0 221 0 13 10 23 23 23 13 0 23-10 23-23 0 0 0-221 0-221 0 0 7 0 7 0 0 0 1 0 1 0 0 0 2 0 2 0 0 0 7 0 7 0 0 0 0 221 0 221 0 13 10 23 23 23 12 0 22-10 22-23 0 0 0-221 0-221 5 1 9 3 12 5 0 0 0 1 0 1 3 3 6 8 6 13 0 0 0 202 0 202 0 13 10 23 22 23 13 0 23-10 23-23 0 0 0-202 0-202 0-18-7-33-19-45 0 0 0 0 0 0-12-11-28-18-45-18 0 0-15 0-15 0 0 0 0 0 0 0z m-297-183c8-10 13-23 13-37 0 0 0-316 0-316 0-18-8-34-19-45 0 0-1-1-1-1 0 0 0 0 0 0-12-11-28-18-46-18 0 0-57 0-57 0-18 0-35 7-47 18 0 0 0 1 0 1 0 0 0 0 0 0-12 12-19 27-19 45 0 0 0 6 0 6 0 0 0 1 0 1 0 221 0 442 0 663 0 58 74 175 74 175 7 10 21 13 32 7 2-2 4-4 6-6 0 0 0 0 0 0 0 0 92-118 92-214 0 0 0-247 0-247 0-8-5-15-11-19 0 0-17-13-17-13 0 0 0 0 0 0z m-131 27c31 0 62 0 92 0 0 0 21 16 21 16 0 0 0 236 0 236 0 55-38 122-63 160-20-35-50-92-50-122 0 0 0-290 0-290 0 0 0 0 0 0z m835 394c-19 23-46 37-75 37-28 0-55-14-74-37-21-24-33-57-33-95 0-37 12-70 33-94 19-23 46-37 74-37 29 0 56 14 75 37 0 0 0 0 0 0 0 0 0 0 0 0 21 24 33 57 33 94 0 37-12 70-32 94 0 0-1 1-1 1 0 0 0 0 0 0z m-419-782c7 9 12 21 12 35 0 0-18 278-18 278 0 0 0 0 0 0 0 0 0 1 0 1 0 0 0 2 0 2 0 0 0 1 0 1 0 8-3 15-7 20-3 4-8 6-12 6 0 0-1 0-1 0 0 0 0 0 0 0-5 0-9-2-13-6-4-5-7-12-7-20 0 0 0 0 0 0 0 0 0-1 0-1 0 0 0-3 0-3 0 0-17-278-17-278 0 0 0 0 0 0 0-14 5-26 12-35 7-7 16-12 25-12 10 0 19 5 26 12 0 0 0 0 0 0z m-46 316c0 0 0-2 0-2 0 0 0 2 0 2 0 0 0 0 0 0z m416-316c7 9 12 21 12 35 0 0-18 278-18 278 0 0 0 0 0 0 0 0 0 2 0 2 0 0 0 1 0 1 0 0 0 1 0 1 0 8-2 15-7 20-3 4-7 6-12 6 0 0-1 0-1 0 0 0 0 0 0 0-5 0-9-2-12-6-5-5-7-12-7-20 0 0 0 0 0 0 0 0 0-1 0-1 0-1 0-2 0-3 0 0-18-278-18-278 0 0 0 0 0 0 0-14 5-26 12-35 7-7 16-12 25-12 10 0 19 5 26 12 0 0 0 0 0 0z m-718 314c0 0-37 0-37 0 0 0 0-296 0-296 0 0 37 0 37 0 0 0 0 296 0 296 0 0 0 0 0 0z" horiz-adv-x="1000" />
<glyph glyph-name="realty" unicode="&#xe825;" d="m369-36c0 0 0 39 0 39 0 0-155 0-155 0-13 0-23 10-23 23 0 13 10 23 23 23 0 0 155 0 155 0 0 0 0 46 0 46 0 0-155 0-155 0-13 0-23 10-23 22 0 14 10 24 23 24 0 0 155 0 155 0 0 0 0 45 0 45 0 0-155 0-155 0-13 0-23 11-23 23 0 13 10 24 23 24 0 0 155 0 155 0 0 0 0 45 0 45 0 0-155 0-155 0-13 0-23 10-23 23 0 13 10 23 23 23 203 0 406 0 609 0 12 0 22-10 22-23 0-13-10-23-22-23 0 0-156 0-156 0 0 0 0-45 0-45 0 0 156 0 156 0 12 0 22-11 22-24 0-12-10-23-22-23 0 0-156 0-156 0 0 0 0-45 0-45 0 0 156 0 156 0 12 0 22-10 22-24 0-12-10-22-22-22 0 0-156 0-156 0 0 0 0-46 0-46 0 0 156 0 156 0 12 0 22-10 22-23 0-13-10-23-22-23 0 0-156 0-156 0 0 0 0-39 0-39 0 0 206 0 206 0 20 0 37-17 37-38 0-21-17-38-37-38 0 0-710 0-710 0-20 0-37 17-37 38 0 21 17 38 37 38 0 0 206 0 206 0 0 0 0 0 0 0z m-85 406c0 0 0 0 0 0-12 0-22 10-22 23 0 13 10 23 22 23 0 0 468 0 468 0 12 0 22-10 22-23 0-13-10-23-22-23 0 0-468 0-468 0 0 0 0 0 0 0z m89 92c0 0 0 0 0 0-12 0-22 10-22 23 0 13 10 23 22 23 0 0 290 0 290 0 13 0 23-10 23-23 0-13-10-23-23-23 0 0-290 0-290 0 0 0 0 0 0 0z m89 91c0 0 0 0 0 0-12 0-22 11-22 24 0 12 10 23 22 23 0 0 113 0 113 0 12 0 22-11 22-23 0-13-10-24-22-24 0 0-113 0-113 0 0 0 0 0 0 0z m-48-589c0 0 0 0 0 0 0 0 209 0 209 0 0 105 0 209 0 314 0 0-209 0-209 0 0 0 0-314 0-314 0 0 0 0 0 0z m-313 324c0 0 0 0 0 0 0 0 417 432 417 432 0 0 418-432 418-432 14-15 38-15 52 0 15 15 15 40 0 54 0 0-443 459-443 459 0 0-1 1-1 1-14 14-37 14-52 0 0 0-444-460-444-460-14-14-14-39 0-54 15-15 38-15 53 0 0 0 0 0 0 0z" horiz-adv-x="1038" />
<glyph glyph-name="logistic" unicode="&#xe826;" d="m1030 101c28 0 50-22 50-51 0-28-22-51-50-51-28 0-51 23-51 51 0 29 23 51 51 51 0 0 0 0 0 0z m-140 227c0 0 279 0 279 0 0 0-82 166-82 166 0 0-197 0-197 0 0 0 0-166 0-166 0 0 0 0 0 0z m309-61c0 0-309 0-309 0 0 0 0-166 0-166 25-4 44-25 44-51 0-27 10-51 28-69 0 0 0 0 0 0 0 0 0 0 0 0 17-18 41-28 68-28 25 0 49 10 66 26 0 0 2 2 2 2 17 18 27 42 28 68 0 0 0 1 0 1 0 29 22 51 50 51 0 0 39 0 39 0 0 0 0 135 0 135 0 0-16 31-16 31 0 0 0 0 0 0z m21-268c-9-35-27-65-51-90 0 0-3-3-3-3-35-35-83-56-136-56-55 0-104 23-140 59 0 0 0 0 0 0-24 25-42 55-51 90 0 0-1 0-1 0 0 0-296 0-296 0-9-35-27-65-51-90-36-36-85-59-140-59-54 0-104 23-139 59-25 25-42 55-51 90 0 0-110 0-110 0-28 0-50 23-50 51 0 0 0 1 0 1 0 0 0 748 0 748 0 28 22 51 50 51 0 0 1 0 1 0 0 0 787 0 787 0 28 0 51-23 51-51 0 0 0-2 0-2 0 0 0-201 0-201 0 0 228 0 228 0 22 0 40-13 47-32 0 0 145-293 145-293 4-8 5-15 5-23 0 0 1 0 1 0 0 0 0-198 0-198 0-28-23-51-51-51 0 0-1 0-1 0 0 0-44 0-44 0 0 0 0 0 0 0z m-431 748c0 0-687 0-687 0 0 0 0-646 0-646 0 0 101 0 101 0 0 0 1 0 1 0 28 0 51-22 51-51 0-27 11-51 28-69 18-17 42-28 68-28 27 0 51 11 68 28 17 18 28 42 28 68 0 0 0 1 0 1 0 29 23 51 51 51 0 0 291 0 291 0 0 0 0 444 0 444 0 0 0 2 0 2 0 0 0 200 0 200 0 0 0 0 0 0z m-438-646c28 0 51-22 51-51 0-28-23-51-51-51-28 0-50 23-50 51 0 29 22 51 50 51 0 0 0 0 0 0z" horiz-adv-x="1316" />
<glyph glyph-name="medicine" unicode="&#xe827;" d="m1238 479c0-34-5-68-16-100-51-232-488-512-507-523-6-4-12-6-19-6-6 0-13 2-19 6-5 3-128 81-253 190-15 12-16 35-4 50 13 15 35 17 50 4 93-80 187-145 226-172 132 87 422 307 457 470 10 28 14 54 14 81 0 92-50 177-130 222-102 57-239 30-313-61-14-16-41-16-55 0-75 91-212 118-314 61-80-45-130-130-130-222 0-26 5-52 13-78 5-23 15-47 28-71 0 0 207 0 207 0 0 0 72 166 72 166 6 14 20 23 35 21 15-1 28-12 32-27 0 0 52-224 52-224 0 0 68 112 68 112 6 11 18 17 30 17 0 0 129 0 129 0 19 0 35-16 35-36 0-19-16-35-35-35 0 0-109 0-109 0 0 0-102-170-102-170-7-11-18-17-30-17-2 0-4 0-6 0-14 3-25 13-29 27 0 0-48 204-48 204 0 0-38-88-38-88-5-13-18-21-32-21 0 0-414 0-414 0-20 0-36 16-36 35 0 20 16 36 36 36 0 0 104 0 104 0-7 18-13 35-17 52-10 29-15 63-15 97 0 118 63 227 166 285 119 66 277 45 375-48 99 93 256 114 376 48 102-58 166-167 166-285z" horiz-adv-x="1286" />
<glyph glyph-name="oil" unicode="&#xe828;" d="m408 802c-11 14-36 14-46 0-13-19-324-453-324-625 0-180 156-327 347-327 191 0 346 147 346 327 0 172-310 606-323 625z m-23-900c-161 0-291 124-291 275 0 119 192 421 291 563 98-142 291-444 291-563 0-151-131-275-291-275z m27 79c0-15-12-26-27-26-130 0-236 99-236 222 0 14 13 26 28 26 15 0 28-12 28-26 0-94 80-170 180-170 15 0 27-12 27-26z" horiz-adv-x="769" />
<glyph glyph-name="transport" unicode="&#xe829;" d="m719-66c0 0-1 0-1 0-57-59-151-59-207 0-28 29-72 29-99 1 0 0-1-1-1-1 0 0-1 0-1 0-56-59-151-59-207 0-27 29-72 29-99 0-16-16-40-16-55 0-15 16-15 42 0 58 42 44 106 57 160 33 0 0 3-1 3-1 17-7 32-18 44-31-1 58-3 103-12 146-12 52-33 103-72 176-11 19-5 44 13 55 0 0 3 1 3 1 0 0 72 44 72 44 0 0 0 172 0 172 0 13 11 24 24 24 0 0 0 0 0 0 0 0 103 0 103 0 0 0 0 77 0 77 0 14 10 24 23 24 0 0 1 0 1 0 0 0 103 0 103 0 0 0 0 113 0 113 0 13 11 24 24 24 12 0 23-11 23-24 0 0 0-113 0-113 0 0 105 0 105 0 12 0 22-10 22-24 0 0 0-1 0-1 0 0 0-76 0-76 0 0 104 0 104 0 13 0 23-11 23-24 0 0 0-1 0-1 0 0 0-171 0-171 0 0 75-45 75-45 18-11 24-36 14-55 0 0-1-1-1-1-33-61-54-108-66-153-11-42-15-83-17-134 20-7 37-19 53-35 27-29 72-29 99 0 15 15 39 15 54 0 15-16 15-42 0-58-41-44-105-57-160-33 0 0 0 0 0 0-18 8-34 19-48 33-27 29-71 29-98 1 0 0-1-1-1-1 0 0 0 0 0 0z m-158 543c0 0 0-481 0-481 0 0 4-4 4-4 27-29 71-29 99-1 0 0 0 1 0 1 23 23 51 37 80 42 2 56 7 102 20 150 11 42 28 84 55 136 0 0-258 157-258 157 0 0 0 0 0 0z m-47-451c0 0 0 451 0 451 0 0-257-157-257-157 32-63 50-112 61-163 12-54 14-109 15-182 8 4 16 9 23 16 0 0 1 1 1 1 0 0 0 0 0 0 41 43 104 57 157 34 0 0 0 0 0 0z m-207 418c0 0 212 128 212 128 12 8 27 7 38 0 0 0 0 0 0 0 0 0 212-128 212-128 0 0 0 119 0 119 0 0-103 0-103 0 0 0 0 0 0 0-13 0-23 10-23 24 0 0 0 77 0 77-70 0-140 0-210 0 0 0 0-77 0-77 0 0 0 0 0 0 0-14-10-24-23-24 0 0-103 0-103 0 0 0 0-119 0-119 0 0 0 0 0 0z" horiz-adv-x="1077" />
<glyph glyph-name="tourism" unicode="&#xe82a;" d="m500 813c128 0 244-52 327-136 0 0 0 1 0 1 84-84 136-200 136-328 0-128-52-243-136-327 0 0-2-2-2-2-83-83-198-134-325-134-128 0-243 52-327 136 0 0 0 0 0 0-84 84-136 199-136 327 0 128 52 244 136 328 0 0 1 1 1 1 84 83 199 134 326 134 0 0 0 0 0 0z m-63-76c-2-7-3-15-4-24-9-45-19-99-44-124-11-10-71-54-71-65 0-3 14-3 65-3 0 0 0 0 0 0 26 0 59-9 87-25 21-11 40-26 52-45 14-20 20-44 14-70 0 0 0 0 0 0 0 0 0 0 0 0-4-16-12-33-28-50-51-58-50-64-47-93 2-12 4-27 4-50 0-12 0-24 1-35 1-28 1-51-1-68 0 0 0-1 0-1-13-104-103-30-134 5-35 39-68 88-78 112-3 7-16 14-30 21-34 17-72 36-74 95-1 38 6 67 12 87 3 9 12 12 8 14-8 2-21-1-34-4-7-1-15-3-22-4-3-19-5-39-5-60 0-108 44-206 115-277 0 0 0 0 0 0 0 0 0 0 0 0 41-41 92-74 149-93 33 6 68 22 99 28 72 13 142 26 220 0 31 17 59 39 84 63 0 0 2 2 2 2 20 20 37 41 52 65-16-14-31-23-44-29-19-9-36-10-48-4 0 0 0 0 0 0 0 0 0 0 0 0-4 2-7 4-9 7 0 0-1 2-1 2-32 37-16 86 1 137 17 54 36 110-32 130-11 4-22 8-32 13-27 15-48 36-61 57-34 53-11 84 24 124 6 6 12 12 16 16-29-1-65-3-82 44 0 0 0 0 0 0 0 0 0 0 0 0-3 7-5 14-5 21 0 0-1 2-1 2-4 39-26 55-52 84 0 0-3 0-3 0-21 0-43-2-63-5 0 0 0 0 0 0z m-314-282c0 0 3 1 3 1 19 4 38 8 57 2 34-11 28-31 19-65-5-18-11-43-10-75 1-34 27-47 50-58 22-11 42-21 51-43 8-20 38-64 69-99 8-10 56-68 61-28 2 20 1 41 0 61 0 11-1 23-1 36 0 20-2 34-3 46-5 45-6 54 58 126 9 12 15 22 18 32 0 0 0 0 0 0 3 13-1 25-8 36-8 13-22 24-37 32-22 13-47 19-67 19 0 0 0 0 0 0-84 0-106 0-107 45-1 40 57 71 83 97 16 15 25 62 32 101 0 0 1 6 1 6-65-19-122-53-168-98 0 0-1-2-1-2-47-47-82-106-100-172 0 0 0 0 0 0z m502-477c-49 6-97-3-145-12-8-2-15-3-22-6 14-1 28-2 42-2 44 0 86 8 125 20 0 0 0 0 0 0z m253 289c2 3 4 5 6 7 5 25 8 50 8 76 0 108-44 206-115 277 0 0 0 0 0 0 0 0 0 0 0 0-56 57-131 96-214 110 18-22 32-45 35-75 0 0 0 0 0 0 1-5 1-9 3-13 0 0 0 0 0 0 6-17 25-16 40-15 23 1 42 2 49-23 6-24-11-43-31-65-24-26-41-39-20-73 9-15 25-30 45-41 8-4 16-7 24-10 110-33 85-110 60-184-12-38-24-75-10-95 0 0 10 4 10 4 11 5 24 15 39 28 24 21 49 53 71 92 0 0 0 0 0 0z m-232 328c2 3 3 4 3 5-2 5-2-1-3-5 0 0 0 0 0 0z" horiz-adv-x="963" />
<glyph glyph-name="guitar" unicode="&#xe82b;" d="m127-26c-24 24-43 49-57 75-65 114-29 246 88 302 22 11 48 20 77 26 2 0 4 0 6 1 0 0 2 0 2 0 15 3 21 4 26 13 7 11 14 24 21 35 0 0 0 1 0 1 0 0 0 0 0 0 8 12 17 25 28 37 25 30 56 53 95 59 33 4 69-3 110-29 0 0 158 158 158 158 0 2 1 4 1 6 0 0 1 3 1 3 2 9 7 17 14 23 0 0 1 2 1 2 35 37 71 74 107 110 0 0 1 1 1 1 0 0 1 1 1 1 10 10 23 15 36 15 14 0 28-5 39-15 0 0 0 0 0 0 0 0 0-1 0-1 0 0 1 0 1 0 0 0 0 0 0 0 0 0 0 0 0 0 0 0 0 0 0 0 0 0 66-66 66-66 11-11 16-25 16-39 0-14-5-28-16-39 0 0-3-2-3-2-36-36-73-72-111-108-7-7-17-11-26-13 0 0-3-1-3-1 0 0-2 0-2 0 0 0-157-158-157-158 25-41 33-78 28-110-6-40-29-71-59-96-11-10-24-19-37-27 0 0 0 0 0 0-9-6-21-13-33-20 0 0-2-1-2-1 0 0 0 0 0 0-10-6-11-11-14-26 0 0-1-5-1-5 0 0 0 0 0 0 0 0 0 0 0 0-5-30-14-57-25-81-58-120-191-152-303-87-25 14-50 33-74 56 0 0 0 0 0 0z m382 296c0-48-39-86-87-86-47 0-86 38-86 86 0 48 39 86 86 86 48 0 87-39 87-86 0 0 0 0 0 0z m-42 0c0 25-20 45-45 45-11 0-23-4-32-13 0 0 0 0 0 0 0 0 0 0 0 0-8-9-13-20-13-32 0-25 21-45 45-45 25 0 45 20 45 45 0 0 0 0 0 0z m-338-187c12-20 27-41 47-60 19-20 39-35 59-46 78-45 166-28 207 58 9 18 16 40 21 63 0 0 0 0 0 0 0 0 1 5 1 5 6 37 9 52 46 73 0 0 0 0 0 0 0 0 0 0 0 0 9 5 19 11 33 20 0 0 0 0 0 0 0 0 0 0 0 0 10 6 20 13 29 21 18 15 33 33 35 54 3 21-5 47-30 81-12 14-12 34 1 47 0 0 189 189 189 189 0 0 0 0 0 0 7 7 17 10 26 10 33 31 66 63 98 94 0 0-47 47-47 47 0 0-25-26-25-26-23-24-46-48-69-71 1-10-3-20-10-28 0 0-189-188-189-188 0 0 0 0 0 0-12-12-31-14-45-3-35 27-62 35-83 32-20-3-38-17-53-35-8-9-16-19-22-30 0 0 0 0 0 0-7-11-13-22-19-33-21-37-37-39-73-46 0 0-4-1-4-1 0 0-1 0-1 0-24-4-45-11-64-20-84-41-104-126-58-207 0 0 0 0 0 0z" horiz-adv-x="1000" />
<glyph glyph-name="glasses" unicode="&#xe82c;" d="m566 301c51 17 108 18 159 0 47 82 133 134 225 134 85 0 166-44 214-116 0 0 19 0 19 0 0 0-89 320-89 320-8 28-17 59-32 82-13 19-32 33-59 33-26 0-50-16-69-44-20-30-32-71-32-118 0-15-12-27-27-27-14 0-26 12-26 27 0 58 16 111 42 150 28 41 67 67 112 67 48 0 80-24 102-57 20-29 30-66 39-98 0 0 100-358 100-358 4-6 6-14 6-22 0-26-20-46-44-46 0 0-2 0-2 0 5-21 8-42 8-65 0-75-29-143-77-192 0 0 0 0 0 0-47-49-113-80-185-80-144 0-262 123-262 272 0 18 2 36 5 53-28 8-68 8-95 0 3-17 5-35 5-53 0-149-118-272-262-272-72 0-137 31-185 80 0 0-2 2-2 2-63 68-88 165-67 255 0 0-2 0-2 0-24 0-43 20-43 46 0 12 4 22 11 31 0 0 98 349 98 349 9 32 20 69 39 98 22 33 54 57 102 57 45 0 84-26 112-67 26-39 42-92 42-150 0-15-12-27-27-27-14 0-26 12-26 27 0 47-12 88-32 118-19 28-43 44-69 44-27 0-46-14-59-33-14-23-24-54-32-82 0 0-89-320-89-320 0 0 15 0 15 0 49 72 129 116 214 116 73 0 138-31 185-80 15-16 29-34 40-54 0 0 0 0 0 0z m-375-47c0 0 0 0 0 0-1-2-2-4-3-5-36-69-24-156 28-212 0 0 2-1 2-1 32-33 75-54 123-54 96 0 174 81 174 181 0 50-20 95-51 127-31 33-75 53-123 53-62 0-119-35-150-89 0 0 0 0 0 0z m759 89c0 0 0 0 0 0-96 0-174-80-174-180 0-99 78-181 174-181 48 0 92 21 123 54 0 0 0-1 0-1 0 0 0 1 0 1 32 32 51 77 51 127 0 98-77 180-174 180 0 0 0 0 0 0z" horiz-adv-x="1250" />
<glyph glyph-name="certificate" unicode="&#xe82d;" d="m806 38c0 0-87 156-87 156 14 6 26 17 33 30 0 0 0 0 0 0 0 0 0 0 0 0 9 15 12 32 8 50 0 0-12 56-12 56 0 0-1 0-1 0 0 0 36 40 36 40 0 0 2 2 2 2 12 14 18 31 18 48 0 17-6 34-18 47 0 0 0 0 0 0 0 0-38 42-38 42 0 0 13 57 13 57 4 17 1 35-8 50-8 15-21 26-38 32 0 0-53 17-53 17 0 0-17 54-17 54 0 0 0 0 0 0-5 18-16 32-30 40 0 0 0 0 0 0 0 0-1 0-1 0-14 9-31 12-48 8 0 0-54-13-54-13 0 0-1 0-1 0 0 0-39 37-39 37 0 0-1 2-1 2-13 13-30 19-46 19-17 0-33-6-46-19 0 0-40-38-40-38 0 0-1-1-1-1 0 0-54 13-54 13-17 4-35 1-49-8-14-8-25-22-31-40 0 0-16-54-16-54 0 0 0 0 0 0 0 0-53-17-53-17-17-6-31-17-39-32-8-15-11-33-7-50 0 0 12-57 12-57 0 0-36-40-36-40 0 0-2-2-2-2-12-13-18-30-18-47 0-17 6-34 18-48 0 0 1 0 1 0 0 0 36-41 36-41 0 0 1-1 1-1 0 0-12-55-12-55 0 0 0-1 0-1-4-18-1-35 7-50 8-13 19-24 34-30 0 0-87-156-87-156-6-10-3-23 7-29 4-2 7-3 11-3 0 0 0 0 0 0 0 0 118 1 118 1 0 0 58-106 58-106 6-11 18-15 28-9 4 2 7 5 9 9 0 0 89 160 89 160 0 0 16-15 16-15 13-12 29-18 46-18 16 0 33 6 46 18 0 0 15 15 15 15 0 0 90-160 90-160 2-4 4-7 8-9 10-6 23-2 28 9 0 0 58 106 58 106 0 0 119-1 119-1 0 0 0 0 0 0 3 0 7 1 10 3 10 6 14 19 8 29 0 0 0 0 0 0z m-551-83c0 0 0 0 0 0 0 0-47 84-47 84 0 0 0 0 0 0-3 7-10 11-18 11 0 0-94-1-94-1 0 0 73 131 73 131 0 0 18-5 18-5 0 0 16-55 16-55 0 0 0 0 0 0 6-17 17-31 31-40 14-8 32-11 49-7 0 0 43 10 43 10 0 0-71-128-71-128 0 0 0 0 0 0z m235 199c0 0 0 0 0 0-10-3-19-8-26-15 0 0-2-2-2-2 0 0-38-37-38-37 0 0-40 39-40 39 0 0 0 0 0 0-9 8-18 13-29 16 0 0 0 0 0 0 0 0 0 0 0 0-10 3-21 3-32 1 0 0-54-13-54-13 0 0-16 54-16 54 0 0 0 0 0 0 0 0 0 0 0 0-3 12-9 21-17 29-7 8-17 14-28 17 0 0-52 17-52 17 0 0 12 55 12 55 3 12 2 23 0 34 0 0-1 3-1 3-3 10-8 18-15 26 0 0-2 2-2 2 0 0-35 40-35 40 0 0 0 0 0 0 0 0 37 41 37 41 0 0 0 0 0 0 7 9 13 19 16 30 0 0 0 0 0 0 0 0 0 0 0 0 2 11 3 22 0 33 0 0-12 56-12 56 0 0 52 16 52 16 11 4 21 10 28 17 8 8 14 18 17 29 0 0 0 2 0 2 0 0 16 52 16 52 0 0 54-12 54-12 11-3 22-2 32 0 0 0 0 0 0 0 11 3 20 9 29 17 0 0 1 2 1 2 0 0 39 36 39 36 0 0 0 0 0 0 0 0 40-38 40-38 0 0 0 0 0 0 8-8 18-14 28-17 11-2 22-3 33 0 0 0 1 0 1 0 0 0 52 12 52 12 0 0 16-54 16-54 0 0 1 0 1 0 0 0-1 0-1 0 7-22 24-39 45-46 0 0 53-16 53-16 0 0-13-56-13-56 0 0 0 0 0 0-2-11-2-23 1-33 3-11 8-21 16-29 0 0 37-42 37-42 0 0-1-1-1-1 0 0-36-41-36-41 0 0 0 0 0 0-8-8-13-18-16-29 0 0-1-2-1-2-2-11-2-21 0-32 0 0 1-1 1-1 0 0 12-54 12-54 0 0-53-17-53-17-11-3-20-9-28-17-7-8-13-17-17-29 0 0 0-1 0-1 0 0-16-53-16-53 0 0-53 13-53 13-11 2-22 2-32-1 0 0-3-1-3-1 0 0 0 0 0 0z m168-104c0 0 0 0 0 0-8 0-15-4-19-11 0 0 0 0 0 0 0 0-46-84-46-84 0 0-72 128-72 128 0 0 43-10 43-10 0 0 1 0 1 0 16-4 32-2 46 6 0 0 3 1 3 1 13 8 24 21 29 38 0 0 1 2 1 2 0 0 17 54 17 54 0 0 0 1 0 1 0 0 17 5 17 5 0 0 74-131 74-131 0 0-94 1-94 1 0 0 0 0 0 0z m-105 236c0 0 0 0 0 0 33 34 54 82 54 134 0 52-21 99-54 133-33 35-79 56-129 56-51 0-96-21-129-56-34-34-54-81-54-133 0-52 20-98 52-133 0 0 2-1 2-1 33-34 78-55 129-55 50 0 96 21 129 55 0 0 0 0 0 0z m-29 31c0 0 0 0 0 0 0 0-1 0-1 0-25-27-60-43-99-43-39 0-74 16-100 43 0 0-1 1-1 1-25 26-40 62-40 102 0 40 16 76 41 103 26 26 61 42 100 42 39 0 74-16 99-42 26-27 42-63 42-103 0-41-16-77-41-103 0 0 0 0 0 0 0 0 0 0 0 0z" horiz-adv-x="846" />
<glyph glyph-name="skill" unicode="&#xe82e;" d="m709 337c0 0 42 43 42 43 18-8 39-13 59-15 25-2 52 0 77 7 35 9 65 26 90 48 25 24 45 52 58 84 5 13-1 27-13 31-6 2-11 3-15 1 0 0-64-17-64-17 0 0-51-14-51-14 0 0-38 38-38 38 0 0-38 38-38 38 0 0 14 52 14 52 0 0 14 52 14 52 0 0 51 14 51 14 0 0 64 17 64 17 12 4 20 17 17 29-2 6-5 10-9 13-26 22-58 37-92 44-32 7-67 6-101-3-59-16-106-54-134-103-28-49-37-109-21-168 0 0 0-2 0-2 0 0 0-1 0-1 0 0-49-49-49-49 0 0-140 142-140 142 4 7 8 15 11 22 0 0 1 2 1 2 5 12 9 24 12 36 9 14 19 24 32 31 14 6 32 8 55 6 7-1 14 2 20 7 9 10 9 25-1 34-35 35-75 56-117 58-38 3-76-10-111-41-8-3-17-7-25-11-5-2-9-4-14-7 0 0-12 12-12 12 0 0 0 0 0 0-9 9-24 9-33 0 0 0-105-105-105-105-9-9-9-24 0-34 0 0 12-12 12-12 0 0-2-5-2-5 0 0-1-1-1-1-3-6-6-12-8-17-3-2-6-3-9-4-6-2-14-2-22-2-7 1-14-2-19-7 0 0-52-51-52-51-9-10-9-25 0-34 0 0 60-60 60-60 0 0 2-2 2-2 0 0 0 0 0 0 0 0 0 0 0 0 0 0 0-1 0-1 0 0 1 0 1 0 0 0 0-1 0-1 0 0 2-1 2-1 0 0 0 0 0 0 0 0 61-62 61-62 9-9 25-9 34 0 0 0 51 52 51 52 0 0 0 0 0 0 5 5 8 11 7 19-1 7 0 13 2 18 1 3 3 7 5 10 6 2 12 5 18 8 0 0 7 4 7 4 0 0 140-142 140-142 0 0-295-297-295-297-9-9-9-24 0-34 0 0 105-105 105-105 9-9 24-9 33 0 0 0 295 297 295 297 0 0 304-305 304-305 9-10 25-10 34 0 0 0 104 105 104 105 10 9 10 25 0 34 0 0-303 305-303 305 0 0 0 0 0 0z m-397 189c0 0 0 0 0 0-9 9-22 9-32 2-5-4-11-7-17-10 0 0-1-1-1-1 0 0 0 1 0 1-6-4-12-7-19-10-4-1-7-4-9-7-8-8-13-18-17-28 0 0 0 0 0 0-3-8-4-17-5-26 0 0-27-28-27-28 0 0-45 45-45 45 0 0 0 0 0 0 0 0-1 1-1 1 0 0 0 0 0 0 0 0 0 1 0 1 0 0-1 0-1 0 0 0 0 1 0 1 0 0 0 0 0 0 0 0 0 0 0 0 0 0-1 0-1 0 0 0-1 2-1 2 0 0-43 43-43 43 0 0 27 27 27 27 10 0 19 1 27 4 13 3 24 9 32 17 3 3 5 6 6 10 3 5 6 11 9 17 0 0 0 1 0 1 3 6 7 12 11 19 7 10 5 23-4 31 0 0-7 7-7 7 0 0 71 71 71 71 0 0 8-8 8-8 8-8 21-9 30-3 9 6 17 11 25 14 0 0 0 0 0 0 8 4 16 8 23 10 4 2 7 3 9 6 26 24 54 33 81 31 12 0 24-3 37-9-4-2-8-3-12-5 0 0 0 0 0 0-23-11-41-29-55-54-1-2-2-5-3-7 0 0 0 0 0 0-1-9-5-19-10-30 0 0 0-1 0-1-5-10-11-21-18-32-7-10-5-23 3-31 0 0 154-154 154-154 0 0-71-72-71-72 0 0-154 155-154 155 0 0 0 0 0 0z m-54-574c0 0 0 0 0 0 0 0-70 71-70 71 0 0 295 297 295 297 0 0 180 182 180 182 6 6 9 15 6 24 0 0-3 8-3 8 0 0-1 5-1 5 0 0-1 1-1 1-12 47-4 94 17 132 22 38 59 68 105 80 27 8 54 8 79 3 9-2 17-4 26-8 0 0-8-2-8-2 0 0-65-17-65-17-8-2-14-8-16-17 0 0-35-131-35-131-2-8 0-16 6-23 0 0 47-47 47-47 0 0 0 0 0 0 0 0 46-47 46-47 7-7 16-10 25-8 0 0 65 18 65 18 0 0 7 2 7 2-5-7-11-13-18-19-19-17-43-31-70-38-20-5-41-7-61-5-20 2-39 7-57 16-9 5-21 4-29-4 0 0-470-473-470-473 0 0 0 0 0 0z m633-9c0 0 0 0 0 0 0 0-287 289-287 289 0 0 71 71 71 71 0 0 287-288 287-288 0 0-71-72-71-72 0 0 0 0 0 0z" horiz-adv-x="1071" />
<glyph glyph-name="info" unicode="&#xe82f;" d="m1198 691c0 0-411 0-411 0 0 0 0 132 0 132 0 14-13 25-28 25 0 0-268 0-268 0-16 0-28-11-28-25 0 0 0-132 0-132 0 0-411 0-411 0-26 0-48-19-48-42 0 0 0-757 0-757 0-23 22-42 48-42 0 0 1146 0 1146 0 26 0 48 19 48 42 0 0 0 757 0 757 0 23-22 42-48 42 0 0 0 0 0 0z m-678 107c0 0 0 0 0 0 0 0 210 0 210 0 0 0 0-107 0-107 0 0-210 0-210 0 0 0 0 107 0 107 0 0 0 0 0 0z m-181-157c0 0 0 0 0 0 0 0 572 0 572 0 0 0 0-80 0-80 0 0-572 0-572 0 0 0 0 80 0 80 0 0 0 0 0 0z m811-708c0 0 0 0 0 0 0 0-1050 0-1050 0 0 0 0 675 0 675 0 0 181 0 181 0 0 0 0-71 0-71 0-14 13-25 29-25 0 0 630 0 630 0 15 0 28 11 28 25 0 0 0 71 0 71 0 0 182 0 182 0 0 0 0-675 0-675 0 0 0 0 0 0z m-107 346c0 0 0 0 0 0 0 0-296 0-296 0-16 0-29-11-29-24 0-15 13-26 29-26 0 0 296 0 296 0 16 0 29 11 29 26 0 13-13 24-29 24 0 0 0 0 0 0z m0-109c0 0 0 0 0 0 0 0-296 0-296 0-16 0-29-11-29-25 0-14 13-25 29-25 0 0 296 0 296 0 16 0 29 11 29 25 0 14-13 25-29 25 0 0 0 0 0 0z m-325 194c0 0 0 0 0 0 0-14 13-25 29-25 0 0 296 0 296 0 16 0 29 11 29 25 0 14-13 25-29 25 0 0-296 0-296 0-16 0-29-11-29-25 0 0 0 0 0 0z m-145-205c0 0 0 0 0 0-14 13-31 23-50 29 0 0-6 2-6 2 0 0 4 4 4 4 32 28 52 67 52 110 0 43-20 82-52 110-33 28-77 46-127 46-49 0-94-18-126-46-33-28-53-67-53-110 0-43 20-82 53-110 0 0 4-4 4-4-21-6-41-17-57-31-14-12-25-26-33-43-8-15-12-33-12-51 0 0 0-36 0-36 0-14 13-25 29-25 0 0 390 0 390 0 16 0 29 11 29 25 0 0 0 36 0 36 0 18-4 36-12 51-8 17-19 31-33 43 0 0 0 0 0 0z m-265 220c0 0 0 0 0 0 22 19 53 31 86 31 34 0 64-12 86-31 22-19 36-45 36-75 0-29-14-55-36-75-47-41-125-41-172 0-22 20-36 46-36 75 0 30 14 56 36 75 0 0 0 0 0 0z m253-325c0 0 0 0 0 0 0 0-333 0-333 0 0 0 0 11 0 11 0 12 2 23 7 32 5 10 12 19 21 27 17 15 41 25 68 25 0 0 141 0 141 0 13 0 25-3 36-7 12-4 23-10 31-18 9-8 16-17 21-27 5-9 8-20 8-32 0 0 0-11 0-11 0 0 0 0 0 0z" horiz-adv-x="1250" />
<glyph glyph-name="hobby" unicode="&#xe830;" d="m911 446c-29 110-100 208-206 269 0 0-1 1-1 1-211 122-484 49-606-161 0 0-1-1-1-1-62-107-75-228-45-338 29-109 100-207 206-269 0 0 1-1 1-1 107-61 228-74 338-44 109 29 207 100 269 205 0 0 1 2 1 2 61 106 74 228 44 337 0 0 0 0 0 0z m-238 209c0 0 0 0 0 0 62-37 110-89 142-148 0 0-56-5-56-5 0 0-102 114-102 114 0 0 16 39 16 39 0 0 0 0 0 0z m-418-294c0 0 0 0 0 0 0 0 145 30 145 30 0 0 116-139 116-139 0 0-49-128-49-128-25-11-49-19-73-24-25-6-50-8-74-9-26 16-47 32-65 51-17 19-32 40-47 65 5 27 11 54 19 81 8 25 17 50 28 73 0 0 0 0 0 0z m-44 151c0 0 0 0 0 0 17 21 65 73 120 96 0 0 92-31 92-31 0 0-35-147-35-147 0 0-134-27-134-27 0 0-43 109-43 109 0 0 0 0 0 0z m219-93c0 0 0 0 0 0 0 1-1 2-3 3 0 0 37 150 37 150 0 0 161 18 161 18 0 0 109-122 109-122 0 0-45-152-45-152 0 0-143-37-143-37 0 0-116 140-116 140 0 0 0 0 0 0z m207 255c0 0 0 0 0 0 0 0-18-44-18-44 0 0-170-19-170-19 0 0-111 38-111 38 0 0-10 26-10 26 97 43 211 44 309-1 0 0 0 0 0 0z m-346-18c0 0 0 0 0 0 0 0 7-18 7-18-55-29-101-79-119-100 0 0-11 2-11 2 32 49 75 88 123 116 0 0 0 0 0 0z m-173-422c0 0 0 0 0 0-23 87-16 183 28 268 0 0 26-4 26-4 0 0 46-118 46-118-12-26-22-53-30-81-8-26-14-52-19-78 0 0-45-9-45-9-2 7-4 15-6 22 0 0 0 0 0 0z m158-218c0 0 0 0 0 0-61 40-107 95-136 157 0 0 36 7 36 7 16-25 31-47 50-66 18-20 39-37 64-52 0 0-14-46-14-46 0 0 0 0 0 0z m317-44c0 0 0 0 0 0-5-2-9-3-14-4-86-23-181-16-266 27 0 0 16 56 16 56 25 1 49 4 74 9 26 6 53 15 79 26 0 0 117-63 117-63 0 0-6-51-6-51 0 0 0 0 0 0z m-85 146c0 0 0 0 0 0 0 0 47 121 47 121 0 0 138 36 138 36 0 0 43-120 43-120-14-19-31-37-48-52-21-17-43-32-67-45 0 0-113 60-113 60 0 0 0 0 0 0z m298 23c0 0 0 0 0 0-41-70-101-122-170-153 0 0 4 34 4 34 26 14 51 30 74 50 21 18 41 39 57 62 0 0 37 10 37 10-1-1-1-2-2-3 0 0 0 0 0 0z m26 52c0 0 0 0 0 0 0 0-60-16-60-16 0 0-45 123-45 123 0 0 48 162 48 162 0 0 58 5 58 5 5-13 9-25 12-38 21-77 17-159-13-236 0 0 0 0 0 0z" horiz-adv-x="963" />
<glyph glyph-name="note" unicode="&#xe831;" d="m707 80c0 0 0-124 0-124 0-21-18-38-40-38 0 0-51 0-51 0-5-14-14-26-24-37-21-19-48-31-76-31-29 0-56 11-77 31-10 11-19 23-24 37 0 0-51 0-51 0-22 0-40 17-40 38 0 0 0 124 0 124-15 10-29 22-43 35-62 61-97 143-97 229 0 87 35 168 97 230 63 60 146 94 235 94 88 0 171-34 234-94 62-62 97-143 97-230 0-86-35-168-97-229-14-13-28-25-43-35 0 0 0 0 0 0z m-168 641c0-12-10-23-23-23-13 0-24 11-24 23 0 0 0 74 0 74 0 13 11 24 24 24 13 0 23-11 23-24 0 0 0-74 0-74 0 0 0 0 0 0z m190-61c-7-11-21-15-33-9-11 6-15 21-8 32 0 0 37 64 37 64 7 11 22 14 33 8 11-6 15-20 8-31 0 0-37-64-37-64 0 0 0 0 0 0z m132-147c-11-6-26-3-32 8-7 12-3 26 9 32 0 0 65 37 65 37 11 6 26 2 32-9 7-11 3-25-9-31 0 0-65-37-65-37 0 0 0 0 0 0z m40-192c-13 0-24 11-24 23 0 13 11 23 24 23 0 0 75 0 75 0 13 0 24-10 24-23 0-12-11-23-24-23 0 0-75 0-75 0 0 0 0 0 0 0z m-63-185c-12 6-16 20-9 31 6 11 21 15 32 9 0 0 65-37 65-37 12-6 16-21 9-32-6-11-21-15-32-8 0 0-65 37-65 37 0 0 0 0 0 0z m-668 40c11 6 26 2 32-9 6-11 3-25-9-31 0 0-65-37-65-37-11-7-26-3-32 8-6 11-3 26 9 32 0 0 65 37 65 37 0 0 0 0 0 0z m-40 191c13 0 24-10 24-23 0-12-11-23-24-23 0 0-75 0-75 0-13 0-24 11-24 23 0 13 11 23 24 23 0 0 75 0 75 0 0 0 0 0 0 0z m64 186c11-6 15-20 8-32-6-11-21-14-32-8 0 0-66 37-66 37-11 6-15 20-8 31 6 12 21 15 32 9 0 0 66-37 66-37 0 0 0 0 0 0z m149 130c7-11 3-26-9-32-11-6-25-2-32 9 0 0-37 64-37 64-7 11-3 25 8 31 12 6 26 3 32-8 0 0 38-64 38-64 0 0 0 0 0 0z m303-550c0 0 1 1 1 1 17 10 33 22 47 36 47 46 74 109 74 174 0 66-27 128-74 175-48 46-111 72-178 72-68 0-131-26-179-72-47-47-74-109-74-175 0-65 27-128 74-174 14-14 30-26 46-36 0 0 2-1 2-1 39-23 84-35 131-35 46 0 91 12 130 35 0 0 0 0 0 0z m-243-94c0 0 0-44 0-44 0 0 44 0 44 0 22 0 40-17 40-39 0 0 0 0 0 0 0-7 3-14 8-20 0 0 0 0 0 0 6-6 13-8 21-8 7 0 14 3 20 8 0 0 0 0 0 0 6 6 8 12 8 20 0 0 0 0 0 0 0 22 18 39 40 39 0 0 44 0 44 0 0 0 0 44 0 44-36-13-74-19-112-19-39 0-77 6-113 19 0 0 0 0 0 0z" horiz-adv-x="1031" />
</font>
</defs>
</svg>
